<svg width="26" height="24" viewBox="0 0 26 24" fill="none" xmlns="http://www.w3.org/2000/svg">
<path d="M10.9582 20.9504C12.2326 20.9491 13.492 20.6746 14.6516 20.1455C15.8111 19.6164 16.843 18.8444 17.6786 17.8817C17.8092 17.7261 17.8741 17.5258 17.8587 17.3228C17.8434 17.1203 17.7496 16.9313 17.5966 16.7976C17.4423 16.6644 17.2411 16.5982 17.0377 16.6131C16.8342 16.6284 16.6453 16.7244 16.5125 16.8792C15.4183 18.1312 13.9352 18.9794 12.3014 19.2876C10.6676 19.5954 8.97719 19.3455 7.50249 18.5774C6.02779 17.8094 4.85381 16.5679 4.16906 15.0529C3.48476 13.5378 3.32913 11.8361 3.72762 10.222C4.1261 8.60784 5.0559 7.17435 6.36709 6.15205C7.67828 5.12975 9.29502 4.5774 10.9578 4.58397C12.0099 4.58178 13.0497 4.80535 14.008 5.23935C14.9663 5.67334 15.8198 6.30811 16.512 7.10026C16.6444 7.25545 16.8338 7.35102 17.0372 7.36636C17.2406 7.3817 17.4418 7.31551 17.5961 7.18224C17.7487 7.0481 17.843 6.85959 17.8583 6.65662C17.8736 6.45409 17.8092 6.25332 17.6781 6.09769C16.3573 4.59143 14.5683 3.57176 12.5982 3.20265C10.6286 2.83353 8.59186 3.13645 6.81424 4.0623C5.03705 4.9886 3.62197 6.48434 2.79606 8.31019C1.96972 10.136 1.78034 12.1868 2.25774 14.1327C2.73513 16.0787 3.85212 17.809 5.42984 19.0447C7.00756 20.281 8.95396 20.9517 10.9582 20.9499V20.9504Z" fill="black" stroke="black" stroke-width="0.3"/>
<path d="M12.8325 12.7858L22.2327 12.7858C22.5067 12.7858 22.76 12.6394 22.8973 12.4023C23.0345 12.1651 23.034 11.8723 22.8973 11.6351C22.7605 11.3979 22.5071 11.2515 22.2327 11.2515L12.8325 11.2515L14.5917 9.4923C14.7351 9.34851 14.8162 9.15343 14.8162 8.95003C14.8162 8.74662 14.7355 8.55154 14.5917 8.40775C14.448 8.26396 14.2529 8.1833 14.0495 8.1833C13.8461 8.1833 13.651 8.26396 13.5072 8.40775L10.4386 11.4764C10.3693 11.5474 10.3136 11.6307 10.275 11.7219C10.1931 11.9113 10.1931 12.1256 10.275 12.315C10.3141 12.4062 10.3693 12.4895 10.4386 12.5605L13.5072 15.6292C13.7027 15.8115 13.9798 15.879 14.2375 15.8067C14.4953 15.7344 14.6965 15.5327 14.7688 15.2754C14.8412 15.0176 14.7741 14.741 14.5917 14.545L12.8321 12.7858L12.8325 12.7858Z" fill="black" stroke="black" stroke-width="0.3"/>
</svg>
