<svg width="26" height="24" viewBox="0 0 26 24" fill="none" xmlns="http://www.w3.org/2000/svg">
<path d="M10.0608 20.9304C11.3351 20.929 12.5946 20.6546 13.7541 20.1255C14.9136 19.5964 15.9455 18.8244 16.7811 17.8617C16.9117 17.7061 16.9766 17.5057 16.9613 17.3028C16.9459 17.1002 16.8521 16.9113 16.6991 16.7776C16.5448 16.6443 16.3436 16.5781 16.1402 16.593C15.9368 16.6084 15.7478 16.7044 15.615 16.8591C14.5208 18.1111 13.0378 18.9594 11.404 19.2676C9.77012 19.5753 8.07973 19.3255 6.60503 18.5574C5.13033 17.7894 3.95635 16.5479 3.2716 15.0329C2.5873 13.5178 2.43167 11.816 2.83016 10.2019C3.22864 8.58783 4.15844 7.15433 5.46963 6.13203C6.78082 5.10973 8.39756 4.55738 10.0603 4.56395C11.1124 4.56176 12.1523 4.78534 13.1106 5.21933C14.0689 5.65332 14.9224 6.28809 15.6146 7.08024C15.747 7.23543 15.9363 7.331 16.1398 7.34634C16.3432 7.36168 16.5444 7.29549 16.6987 7.16222C16.8512 7.02808 16.9455 6.83957 16.9608 6.63661C16.9762 6.43407 16.9117 6.2333 16.7807 6.07767C15.4598 4.57141 13.6708 3.55174 11.7007 3.18263C9.7311 2.81351 7.6944 3.11643 5.91678 4.04228C4.13959 4.96858 2.72451 6.46432 1.8986 8.29017C1.07226 10.116 0.882882 12.1667 1.36028 14.1127C1.83767 16.0587 2.95466 17.7889 4.53238 19.0247C6.1101 20.261 8.0565 20.9317 10.0608 20.9299V20.9304Z" fill="black" stroke="black" stroke-width="0.3"/>
<path d="M22.4839 11.2129H13.0837C12.8097 11.2129 12.5564 11.3594 12.4192 11.5965C12.2819 11.8337 12.2824 12.1265 12.4192 12.3637C12.5559 12.6008 12.8093 12.7473 13.0837 12.7473H22.4839L20.7247 14.5065C20.5813 14.6503 20.5002 14.8453 20.5002 15.0488C20.5002 15.2522 20.5809 15.4472 20.7247 15.591C20.8684 15.7348 21.0635 15.8155 21.2669 15.8155C21.4703 15.8155 21.6654 15.7348 21.8092 15.591L24.8779 12.5224C24.9471 12.4514 25.0028 12.3681 25.0414 12.2769C25.1233 12.0875 25.1233 11.8731 25.0414 11.6838C25.0024 11.5926 24.9471 11.5093 24.8779 11.4383L21.8092 8.36963C21.6137 8.18726 21.3366 8.11975 21.0789 8.19208C20.8211 8.26441 20.6199 8.46607 20.5476 8.7234C20.4752 8.98116 20.5423 9.25778 20.7247 9.45373L22.4843 11.2129H22.4839Z" fill="black" stroke="black" stroke-width="0.3"/>
</svg>
