<svg width="280" height="400" viewBox="0 0 280 400" fill="none" xmlns="http://www.w3.org/2000/svg">
<path d="M280 0H0V400H280V0Z" fill="black"/>
<mask id="mask0_1455_33757" style="mask-type:alpha" maskUnits="userSpaceOnUse" x="0" y="220" width="280" height="180">
<path d="M280 220H0V400H280V220Z" fill="black"/>
</mask>
<g mask="url(#mask0_1455_33757)">
<path d="M175.211 223.862V293.85C175.211 295.974 173.424 297.711 171.223 297.711H44.2842C42.0942 297.711 40.3076 295.974 40.3076 293.85V223.862C40.3076 221.738 42.0942 220 44.2842 220H171.223C173.424 220 175.211 221.738 175.211 223.862Z" fill="#40398D"/>
<path d="M175.211 224.611V229.495H40.3076V224.611C40.3076 222.067 42.0942 220 44.2842 220H171.223C173.424 220 175.211 222.067 175.211 224.611Z" fill="#EDEDED"/>
<path d="M62.4363 227.004C63.7031 227.004 64.73 225.993 64.73 224.744C64.73 223.496 63.7031 222.484 62.4363 222.484C61.1695 222.484 60.1426 223.496 60.1426 224.744C60.1426 225.993 61.1695 227.004 62.4363 227.004Z" fill="#FFB904"/>
<path d="M55.0955 227.004C56.3623 227.004 57.3892 225.993 57.3892 224.744C57.3892 223.496 56.3623 222.484 55.0955 222.484C53.8287 222.484 52.8018 223.496 52.8018 224.744C52.8018 225.993 53.8287 227.004 55.0955 227.004Z" fill="#E64218"/>
<path d="M47.7664 227.004C49.0332 227.004 50.0601 225.993 50.0601 224.744C50.0601 223.496 49.0332 222.484 47.7664 222.484C46.4996 222.484 45.4727 223.496 45.4727 224.744C45.4727 225.993 46.4996 227.004 47.7664 227.004Z" fill="#0017BF"/>
<path d="M164.682 256.494H135.876C135.139 256.494 134.541 257.092 134.541 257.829C134.541 258.567 135.139 259.165 135.876 259.165H164.682C165.419 259.165 166.017 258.567 166.017 257.829C166.017 257.092 165.419 256.494 164.682 256.494Z" fill="#FFB904"/>
<path d="M129.895 256.494H101.089C100.352 256.494 99.7539 257.092 99.7539 257.829C99.7539 258.567 100.352 259.165 101.089 259.165H129.895C130.632 259.165 131.23 258.567 131.23 257.829C131.23 257.092 130.632 256.494 129.895 256.494Z" fill="#3DF130"/>
<path d="M164.682 248.197H150.128C149.391 248.197 148.793 248.795 148.793 249.533C148.793 250.27 149.391 250.868 150.128 250.868H164.682C165.419 250.868 166.017 250.27 166.017 249.533C166.017 248.795 165.419 248.197 164.682 248.197Z" fill="#3DF130"/>
<path d="M116.541 272.3H101.988C101.25 272.3 100.652 272.898 100.652 273.636C100.652 274.373 101.25 274.971 101.988 274.971H116.541C117.279 274.971 117.876 274.373 117.876 273.636C117.876 272.898 117.279 272.3 116.541 272.3Z" fill="#FFB904"/>
<path d="M144.969 248.197H107.875C107.137 248.197 106.539 248.795 106.539 249.533C106.539 250.27 107.137 250.868 107.875 250.868H144.969C145.707 250.868 146.304 250.27 146.304 249.533C146.304 248.795 145.707 248.197 144.969 248.197Z" fill="#E64218"/>
<path d="M164.682 264.397H93.2759C92.5383 264.397 91.9404 264.995 91.9404 265.733C91.9404 266.47 92.5383 267.068 93.2759 267.068H164.682C165.419 267.068 166.017 266.47 166.017 265.733C166.017 264.995 165.419 264.397 164.682 264.397Z" fill="#3DF130"/>
<path d="M164.681 272.3H122.001C121.264 272.3 120.666 272.898 120.666 273.636C120.666 274.373 121.264 274.971 122.001 274.971H164.681C165.419 274.971 166.017 274.373 166.017 273.636C166.017 272.898 165.419 272.3 164.681 272.3Z" fill="#3DF130"/>
<path d="M85.0337 245H51.001V278.536H85.0337V245Z" fill="#2E2C6E"/>
<path d="M56.2119 260.703V262.281L63.7588 265.781V263.828L58.4463 261.539V261.445L63.7588 259.156V257.203L56.2119 260.703ZM70.6963 268.844L67.0557 255.297H65.3057L68.9619 268.844H70.6963ZM79.8057 260.703L72.2588 257.203V259.156L77.5713 261.445V261.539L72.2588 263.828V265.781L79.8057 262.281V260.703Z" fill="#FFB904"/>
<path d="M202.699 315.461C202.699 315.461 190.729 313.072 182.286 320.17C173.842 327.269 169.104 381.508 169.104 381.508C169.104 381.508 197.382 396.588 221.487 396.588C245.592 396.588 243.471 395.502 243.471 395.502L249.091 373.5L202.713 315.474L202.699 315.461Z" fill="#0017BF"/>
<path d="M133.689 287.172C133.689 287.172 130.232 278.499 128.386 280.969C126.54 283.44 129.874 296.47 129.874 296.47C129.874 296.47 137.766 297.692 133.689 287.172Z" fill="#FFBB87"/>
<path d="M185.454 284.211H150.123C148.845 284.211 147.809 285.232 147.809 286.491V321.307C147.809 322.566 148.845 323.587 150.123 323.587H185.454C186.732 323.587 187.768 322.566 187.768 321.307V286.491C187.768 285.232 186.732 284.211 185.454 284.211Z" fill="#F6F6F6"/>
<path d="M172.643 309.117C176.72 305.099 176.72 298.585 172.643 294.567C168.565 290.549 161.954 290.549 157.877 294.567C153.8 298.585 153.8 305.099 157.877 309.117C161.954 313.135 168.565 313.135 172.643 309.117Z" fill="#5EF939"/>
<path d="M172.398 301.964L176.585 309.103L180.759 316.229H172.398H164.037L168.225 309.103L172.398 301.964Z" fill="#E64218"/>
<path d="M141.983 320.426C141.983 320.426 150.426 312.621 150.027 308.481C149.628 304.341 147.658 295.044 147.658 295.044C147.658 295.044 155.964 286.533 155.564 284.715C155.165 282.896 148.774 285.76 148.774 285.76C148.774 285.76 155.592 279.136 155.578 276.53C155.578 273.937 152.01 275.227 152.01 275.227C152.01 275.227 152.534 272.241 150.426 272.499C148.319 272.757 135.123 281.729 131.308 286.533C127.478 291.338 131.569 303.636 131.308 305.346C131.046 307.056 128.401 310.572 128.401 310.572L141.983 320.412V320.426Z" fill="#FFBB87"/>
<path d="M126.677 305.372L151.994 317.832C151.994 317.832 148.565 327.605 156.485 330.469C164.391 333.333 173.634 320.56 184.171 317.33C194.722 314.099 203.193 316.19 203.193 316.19L198.166 359.447C198.166 359.447 150.768 384.273 127.82 367.89C104.873 351.521 126.663 305.358 126.663 305.358L126.677 305.372Z" fill="#0017BF"/>
<path d="M129.763 291.309C129.419 291.268 129.226 291.01 129.267 290.739C129.281 290.59 129.791 287.128 131.912 285.079C132.105 284.889 132.422 284.889 132.628 285.079C132.821 285.269 132.821 285.595 132.628 285.785C130.755 287.59 130.287 290.834 130.273 290.861C130.231 291.105 130.025 291.295 129.777 291.295L129.763 291.309Z" fill="black"/>
<path d="M140.921 284.699C140.77 284.699 140.632 284.631 140.536 284.522C140.356 284.305 140.384 283.993 140.604 283.83L151.679 274.858C151.886 274.682 152.202 274.709 152.381 274.926C152.56 275.143 152.533 275.455 152.313 275.618L141.238 284.59C141.142 284.672 141.031 284.699 140.921 284.699Z" fill="black"/>
<path d="M145.135 288.622C144.97 288.622 144.818 288.541 144.722 288.391C144.57 288.161 144.639 287.862 144.86 287.713L148.496 285.351C148.73 285.202 149.033 285.269 149.185 285.487C149.336 285.717 149.267 286.016 149.047 286.165L145.411 288.527C145.328 288.581 145.231 288.608 145.135 288.608V288.622Z" fill="black"/>
<path d="M182.768 369.519C182.768 369.519 144.089 335.328 121.885 340.785C99.6812 346.241 97.9869 369.099 94.0337 394.82C90.0805 420.555 88.8408 439.354 88.8408 439.354L141.996 440.399L145.15 395.444L201.955 378.03L182.781 369.519H182.768Z" fill="#3DF130"/>
<path d="M243.456 395.486C243.456 395.486 240.026 423.487 228.263 431.808C216.5 440.128 196.279 437.536 176.637 426.962C157.311 416.565 151.609 412.71 149.405 412.71C147.201 412.71 108.895 464.994 108.895 464.994L64.1836 441.988C64.1836 441.988 98.2611 360.847 126.498 354.848C153.827 349.038 215.177 387.125 215.177 387.125L243.456 395.486Z" fill="#4EFD62"/>
<path d="M221.474 283.167C221.474 283.167 237.493 278.933 243.306 289.628C249.105 300.324 244.105 343.717 244.105 343.717L219.504 327.769L220.027 306.255L221.487 283.167H221.474Z" fill="#0017BF"/>
<path d="M189.146 339.387L170.399 355.81C170.399 355.81 197.066 397.086 235.042 390.503C273.018 383.92 256.31 349.254 249.987 339.916C240.139 325.365 228.086 317.045 217.26 316.312C206.447 315.566 189.146 339.4 189.146 339.4V339.387Z" fill="#0017BF"/>
<path d="M217.257 307.881L216.968 319.378C216.968 319.378 214.778 322.635 207.946 323.015C202.849 323.3 201.307 320.681 201.307 320.681L202.794 310.65L215.191 308.288L217.271 307.895L217.257 307.881Z" fill="#FFBB87"/>
<path d="M215.177 308.276C215.136 308.588 215.012 308.955 214.806 309.375C212.051 315.049 204.874 316.121 201.94 316.298L202.781 310.638L215.177 308.276Z" fill="black"/>
<path d="M200.852 284.378C200.852 284.378 194.364 298.644 196.568 306.706C198.772 314.769 206.224 313.574 210.7 312.067C215.163 310.547 217.257 307.887 217.257 307.887C217.257 307.887 221.403 309.312 224.213 305.525C227.037 301.738 225.356 297.354 223.001 296.322C220.632 295.291 217.794 296.96 217.794 296.96L220.053 292.821C220.053 292.821 210.948 271.579 200.852 284.378Z" fill="#FFBB87"/>
<path d="M209.518 292.058C209.339 292.058 209.174 291.963 209.077 291.8C208.705 291.162 208.237 290.755 207.686 290.62C206.735 290.375 205.771 290.945 205.758 290.959C205.523 291.108 205.207 291.027 205.069 290.796C204.917 290.565 205 290.267 205.234 290.117C205.289 290.09 206.556 289.317 207.934 289.656C208.774 289.859 209.449 290.43 209.959 291.312C210.096 291.556 210.014 291.855 209.766 291.99C209.683 292.031 209.601 292.058 209.518 292.058Z" fill="black"/>
<path d="M198.786 290.701C198.717 290.701 198.649 290.687 198.58 290.66C198.332 290.552 198.222 290.253 198.332 290.009C198.525 289.588 198.841 289.316 199.255 289.208C200.246 288.936 201.445 289.724 201.583 289.819C201.803 289.968 201.872 290.28 201.706 290.511C201.555 290.742 201.238 290.796 201.004 290.633C200.701 290.429 199.943 290.049 199.516 290.171C199.434 290.199 199.324 290.239 199.241 290.429C199.158 290.606 198.979 290.714 198.786 290.714V290.701Z" fill="black"/>
<path d="M209.036 295.083C208.871 295.083 208.705 295.002 208.609 294.853C208.416 294.554 208.196 294.391 207.92 294.351C207.3 294.255 206.515 294.771 206.295 294.961C206.088 295.138 205.771 295.111 205.592 294.907C205.413 294.703 205.441 294.391 205.647 294.215C205.771 294.106 206.901 293.197 208.072 293.373C208.636 293.455 209.119 293.78 209.463 294.323C209.614 294.554 209.546 294.866 209.311 295.002C209.229 295.056 209.132 295.083 209.036 295.083Z" fill="black"/>
<path d="M200.728 294.72C200.549 294.72 200.37 294.625 200.273 294.449C200.205 294.313 199.585 293.186 198.373 293.689C198.125 293.797 197.822 293.689 197.711 293.431C197.601 293.173 197.711 292.888 197.973 292.779C199.654 292.073 200.797 293.281 201.169 294.014C201.293 294.259 201.196 294.557 200.935 294.68C200.866 294.72 200.783 294.734 200.714 294.734L200.728 294.72Z" fill="black"/>
<path d="M201.294 301.708C201.032 301.708 200.812 301.518 200.798 301.26C200.536 298.342 202.175 294.975 202.244 294.84C202.368 294.595 202.671 294.487 202.919 294.609C203.167 294.731 203.277 295.03 203.153 295.274C203.139 295.301 201.569 298.545 201.803 301.178C201.831 301.45 201.624 301.694 201.349 301.721C201.335 301.721 201.321 301.721 201.307 301.721L201.294 301.708Z" fill="black"/>
<path d="M204.862 305.859C204.628 305.859 204.421 305.696 204.366 305.479C204.311 305.208 204.476 304.95 204.738 304.882C204.766 304.882 207.355 304.271 208.085 302.452C208.182 302.194 208.485 302.072 208.733 302.181C208.994 302.276 209.118 302.574 209.008 302.819C208.071 305.126 205.069 305.818 204.945 305.846C204.903 305.846 204.876 305.846 204.834 305.846L204.862 305.859Z" fill="black"/>
<path d="M218.237 303.133C218.086 303.133 217.948 303.065 217.851 302.956C217.672 302.739 217.714 302.427 217.92 302.264L222.617 298.491C222.838 298.314 223.155 298.355 223.32 298.558C223.499 298.776 223.458 299.088 223.251 299.251L218.554 303.024C218.457 303.092 218.347 303.133 218.237 303.133Z" fill="black"/>
<path d="M222.947 303.133C222.878 303.133 222.796 303.12 222.727 303.079L219.807 301.654C219.559 301.532 219.462 301.233 219.573 300.989C219.696 300.744 220 300.649 220.247 300.758L223.168 302.183C223.416 302.305 223.512 302.604 223.402 302.848C223.319 303.025 223.14 303.12 222.947 303.12V303.133Z" fill="black"/>
<path d="M217.796 296.958C217.796 296.958 212.699 296.415 209.504 292.248C206.322 288.081 204.848 283.846 204.848 283.846C204.848 283.846 202.685 284.185 201.294 285.869C200.261 287.104 199.063 288.909 199.063 288.909C199.063 288.909 198.994 283.113 201.983 280.29C204.972 277.467 207.506 278.471 207.506 278.471C207.506 278.471 214.035 274.888 220.592 280.711C227.148 286.534 223.953 296.971 223.953 296.971C223.953 296.971 220.619 295.628 217.796 296.971V296.958Z" fill="#0017BF"/>
<path d="M187.548 311.63C187.548 311.63 187.727 306.757 186.143 305.087C184.559 303.418 183.347 305.929 183.347 305.929C183.347 305.929 181.942 301.178 180.358 302.617C178.773 304.056 178.236 307.354 178.236 307.354C178.236 307.354 175.44 305.291 174.379 309.376C173.319 313.462 173.14 319.421 169.104 323.194C165.054 326.967 161.542 335.763 164.531 343.133C167.52 350.503 173.14 350.788 173.14 350.788L183.691 339.821C183.691 339.821 181.666 332.831 184.834 330.32C188.002 327.809 191.473 326.18 192.093 320.411C192.327 318.226 187.548 311.602 187.548 311.602V311.63ZM185.619 323.031L186.639 317.833C189.807 321.986 185.619 323.031 185.619 323.031Z" fill="#FFBB87"/>
<path d="M185.634 323.52C185.634 323.52 185.524 323.52 185.469 323.492C185.207 323.397 185.069 323.112 185.166 322.854C186.708 318.525 187.053 311.67 187.066 311.589C187.066 311.317 187.328 311.141 187.59 311.114C187.865 311.114 188.086 311.358 188.072 311.629C188.072 311.914 187.714 318.701 186.116 323.167C186.047 323.37 185.854 323.492 185.648 323.492L185.634 323.52Z" fill="black"/>
<path d="M180.619 322.516C180.537 322.516 180.454 322.489 180.372 322.448C180.124 322.312 180.041 322.014 180.179 321.769C183.099 316.639 182.107 305.509 182.093 305.4C182.066 305.129 182.272 304.884 182.548 304.857C182.823 304.844 183.071 305.034 183.099 305.305C183.14 305.78 184.132 316.842 181.06 322.245C180.964 322.407 180.799 322.502 180.619 322.502V322.516Z" fill="black"/>
<path d="M175.743 322.514C175.619 322.514 175.481 322.46 175.385 322.365C175.192 322.175 175.192 321.862 175.385 321.659C177.534 319.541 177.809 310.61 177.74 307.353C177.74 307.081 177.961 306.85 178.236 306.85C178.457 306.85 178.746 307.068 178.746 307.339C178.746 307.841 178.98 319.528 176.101 322.365C176.005 322.46 175.881 322.514 175.743 322.514Z" fill="black"/>
<path d="M95.824 383.406C95.7414 383.406 95.645 383.379 95.5623 383.338C95.3282 383.202 95.2455 382.89 95.3832 382.659C95.4934 382.483 106.306 364.77 121.196 356.232C137.601 346.826 176.335 366.005 177.974 366.833C178.222 366.955 178.318 367.254 178.194 367.498C178.07 367.742 177.767 367.837 177.519 367.715C177.12 367.511 137.629 347.952 121.706 357.087C107.05 365.503 96.3612 382.985 96.251 383.161C96.1546 383.324 95.9893 383.406 95.824 383.406Z" fill="white"/>
<path d="M156.489 342.28C156.007 342.28 155.594 342.076 155.304 341.696C153.638 339.565 155.759 331.286 156.007 330.349C156.117 329.915 156.861 329.915 156.985 330.349C157.233 331.286 159.354 339.565 157.687 341.696C157.384 342.076 156.971 342.28 156.503 342.28H156.489ZM156.489 332.643C155.786 335.928 155.249 340.013 156.089 341.099C156.31 341.384 156.654 341.384 156.875 341.099C157.715 340.027 157.191 335.941 156.475 332.643H156.489Z" fill="#FFB904"/>
<path d="M207.988 323.682C203.222 323.682 199.848 320.845 199.793 320.805C199.586 320.628 199.558 320.316 199.751 320.112C199.93 319.909 200.247 319.882 200.454 320.072C200.771 320.343 208.223 326.587 216.625 319.027C216.831 318.85 217.148 318.85 217.341 319.054C217.534 319.257 217.506 319.57 217.314 319.76C213.98 322.759 210.757 323.709 207.988 323.709V323.682Z" fill="#FFB904"/>
<path d="M224.737 351.288C224.737 351.288 224.627 351.288 224.585 351.261C214.461 347.99 192.161 339.968 191.94 339.886C191.679 339.791 191.541 339.506 191.637 339.249C191.734 338.991 192.023 338.868 192.285 338.95C192.505 339.031 214.792 347.053 224.902 350.324C225.164 350.406 225.302 350.691 225.219 350.949C225.15 351.152 224.957 351.288 224.737 351.288Z" fill="#FFB904"/>
<path d="M233.981 354.115C230.33 354.115 223.581 351.061 222.727 350.668C222.52 350.573 222.396 350.342 222.452 350.111C222.507 349.88 222.7 349.718 222.934 349.718C224.876 349.677 234.656 349.595 236.185 351.74C236.446 352.106 236.501 352.541 236.336 352.962C236.171 353.382 235.84 353.694 235.358 353.898C234.986 354.047 234.518 354.115 233.981 354.115ZM225.33 350.708C228.54 352.011 233.292 353.654 234.972 352.989C235.262 352.88 235.344 352.731 235.386 352.622C235.441 352.486 235.413 352.405 235.358 352.324C234.573 351.224 229.49 350.79 225.33 350.722V350.708Z" fill="#FFB904"/>
<path d="M232.81 405.65C223.719 405.474 221.033 396.787 221.006 396.706C220.923 396.448 221.075 396.163 221.35 396.095C221.612 396.013 221.887 396.163 221.97 396.434C222.067 396.76 224.491 404.51 232.824 404.673C233.1 404.673 233.32 404.904 233.32 405.175C233.32 405.447 233.086 405.664 232.81 405.664V405.65Z" fill="white"/>
</g>
</svg>
