<svg width="743" height="210" viewBox="0 0 743 210" fill="none" xmlns="http://www.w3.org/2000/svg">
<path d="M690.286 174.568V190.344H710.658V169.636L690.286 174.568Z" fill="#FFBB87"/>
<path d="M637.267 168.675L632.995 183.882L652.648 189.224L658.255 169.262L637.267 168.675Z" fill="#FFBB87"/>
<path d="M695.855 5.59524C695.855 5.59524 701.083 -3.05712 709.427 1.15718C717.772 5.37148 716.862 14.0798 723.199 16.0844C729.535 18.0796 734.725 23.4594 731.041 30.3962C727.963 36.1955 719.618 34.3588 719.618 34.3588C719.618 34.3588 714.428 43.0577 705.26 40.0835C696.092 37.1092 691.906 32.4194 692.872 24.9419C693.828 17.4643 695.865 5.60457 695.865 5.60457L695.855 5.59524Z" fill="#0017BF"/>
<path d="M680.948 18.1642C680.948 18.1642 675.995 11.0409 686.025 5.41872C696.055 -0.194133 703.367 7.50722 703.452 11.6376C703.537 15.7773 701.141 17.6887 701.141 17.6887C701.141 17.6887 702.079 26.658 693.327 26.0333C684.576 25.418 680.948 18.1455 680.948 18.1455V18.1642Z" fill="#0017BF"/>
<path d="M694.17 24.6153L694.35 31.8598C694.35 31.8598 693.08 33.9762 688.781 34.4238C685.579 34.7594 684.433 34.0695 684.433 34.0695L684.784 30.3866L685.134 26.797L692.863 24.923L694.16 24.606L694.17 24.6153Z" fill="#FFBB87"/>
<path d="M694.141 24.2708C694.131 24.4665 694.055 24.709 693.942 24.9793C692.388 28.6342 686.63 30.1913 684.783 30.3964L685.134 26.8068L694.141 24.2708Z" fill="black"/>
<path d="M683.079 10.3309C683.079 10.3309 679.452 19.5054 681.1 24.5122C682.748 29.519 687.407 28.54 690.173 27.4398C692.939 26.3489 694.17 24.6054 694.17 24.6054C694.17 24.6054 696.822 25.3793 698.479 22.9085C700.137 20.4377 698.943 17.7245 697.419 17.1558C695.894 16.5871 694.16 17.7152 694.16 17.7152L695.448 15.0393C695.448 15.0393 689.036 1.95822 683.079 10.3216V10.3309Z" fill="#FFBB87"/>
<path d="M682.501 22.172C682.501 22.172 682.539 22.172 682.558 22.172C682.747 22.144 682.87 21.9669 682.842 21.7804C682.378 19.0112 683.458 17.5381 683.476 17.5195C683.59 17.3703 683.562 17.1558 683.41 17.044C683.259 16.9321 683.041 16.96 682.927 17.1092C682.88 17.1745 681.648 18.8061 682.169 21.8829C682.198 22.0508 682.34 22.172 682.51 22.172H682.501Z" fill="black"/>
<path d="M694.36 21.4453C694.416 21.4453 694.473 21.436 694.521 21.408L698.101 19.5339C698.271 19.45 698.337 19.2356 698.243 19.0771C698.158 18.9093 697.94 18.8533 697.779 18.9372L694.199 20.8113C694.028 20.8952 693.962 21.1096 694.057 21.2682C694.123 21.38 694.236 21.4453 694.36 21.4453Z" fill="black"/>
<path d="M697.702 22.0791C697.796 22.0791 697.891 22.0418 697.967 21.9673C698.09 21.8274 698.081 21.613 697.929 21.4917L696.205 20.0093C696.063 19.8881 695.845 19.8974 695.713 20.0466C695.59 20.1864 695.599 20.4009 695.751 20.5221L697.474 22.0046C697.541 22.0605 697.626 22.0885 697.702 22.0885V22.0791Z" fill="black"/>
<path d="M681.639 14.8819C681.639 14.8819 681.809 12.6442 683.543 10.7329C685.389 8.7003 686.952 9.03596 686.952 9.03596C686.952 9.03596 684.225 14.9099 688.809 16.9797C692.067 18.4529 694.16 17.7349 694.16 17.7349L698.829 13.1757L689.547 5.75403C689.547 5.75403 681.08 4.58857 681.648 14.8912L681.639 14.8819Z" fill="#0017BF"/>
<path d="M684.802 24.0368C684.802 24.0368 684.878 24.0368 684.916 24.0181C684.963 23.9995 686.071 23.6172 686.791 22.4238C686.886 22.2653 686.829 22.0508 686.668 21.9576C686.507 21.8644 686.289 21.9203 686.194 22.0788C685.607 23.0578 684.698 23.3748 684.688 23.3748C684.508 23.4401 684.414 23.6265 684.471 23.8037C684.518 23.9435 684.65 24.0368 684.793 24.0368H684.802Z" fill="black"/>
<path d="M685.74 18.3402C685.901 18.3402 686.043 18.2376 686.081 18.0791L686.451 16.4661C686.47 16.3822 686.451 16.289 686.403 16.2051L685.882 15.3846C685.778 15.2261 685.56 15.1795 685.409 15.282C685.248 15.3846 685.201 15.5897 685.305 15.7482L685.75 16.4475L685.409 17.9206C685.371 18.1071 685.485 18.2843 685.665 18.3309C685.693 18.3309 685.712 18.3309 685.74 18.3309V18.3402Z" fill="black"/>
<path d="M681.165 18.3038C681.326 18.3038 681.468 18.2013 681.506 18.0428L681.876 16.4298C681.894 16.3459 681.876 16.2526 681.828 16.1687L681.307 15.3482C681.203 15.1897 680.995 15.1431 680.834 15.2457C680.673 15.3482 680.625 15.5533 680.73 15.7118L681.175 16.4111L680.834 17.8843C680.796 18.0707 680.909 18.2479 681.089 18.2945C681.118 18.2945 681.137 18.2945 681.165 18.2945V18.3038Z" fill="black"/>
<path d="M681.942 14.1179C681.942 14.1179 681.989 14.1179 682.018 14.1179L683.031 13.9032C683.221 13.8659 683.334 13.6792 683.296 13.5019C683.259 13.3152 683.079 13.2032 682.889 13.2406L681.876 13.4552C681.686 13.4925 681.573 13.6792 681.611 13.8565C681.648 14.0152 681.791 14.1272 681.952 14.1272L681.942 14.1179Z" fill="black"/>
<path d="M645.98 28.7919L629.425 38.7869L610.861 14.3402L627.426 4.33594L645.98 28.7919Z" fill="#3DF130"/>
<path d="M648.121 27.6264L631.565 37.6214L613.002 13.1747L629.567 3.17041L648.121 27.6264Z" fill="#F6F6F6"/>
<path d="M617.652 15.16C617.718 15.16 617.775 15.1414 617.832 15.1134L629.983 7.77567C630.144 7.67311 630.201 7.46799 630.097 7.30949C630.002 7.15099 629.784 7.09504 629.623 7.1976L617.472 14.5353C617.311 14.6379 617.254 14.843 617.358 15.0015C617.424 15.1041 617.538 15.16 617.652 15.16Z" fill="#0017BF"/>
<path d="M619.622 17.6876C619.689 17.6876 619.745 17.669 619.802 17.641L631.954 10.3033C632.115 10.2007 632.172 9.99558 632.067 9.83708C631.973 9.67857 631.755 9.62263 631.594 9.72519L619.442 17.0629C619.281 17.1655 619.225 17.3706 619.329 17.5291C619.395 17.6317 619.509 17.6876 619.622 17.6876Z" fill="#0017BF"/>
<path d="M621.545 20.2425C621.611 20.2425 621.668 20.2239 621.725 20.1959L633.877 12.8582C634.038 12.7556 634.094 12.5505 633.99 12.392C633.896 12.2335 633.678 12.1776 633.517 12.2801L621.365 19.6178C621.204 19.7204 621.147 19.9255 621.252 20.084C621.318 20.1866 621.432 20.2425 621.545 20.2425Z" fill="#0017BF"/>
<path d="M623.477 22.7884C623.543 22.7884 623.6 22.7698 623.657 22.7418L635.808 15.4041C635.969 15.3015 636.026 15.0964 635.922 14.9379C635.827 14.7794 635.609 14.7235 635.448 14.826L623.297 22.1637C623.136 22.2663 623.079 22.4714 623.183 22.6299C623.249 22.7325 623.363 22.7884 623.477 22.7884Z" fill="#0017BF"/>
<path d="M665.794 16.0942L683.751 39.6365L666.513 49.5476L655.356 20.4577L665.794 16.0942Z" fill="#FFBB87"/>
<path d="M687.17 14.5267C687.313 14.5267 687.445 14.4428 687.492 14.3029C687.559 14.1258 687.464 13.93 687.284 13.8741L685.153 13.1468C684.973 13.0909 684.774 13.1748 684.717 13.3519C684.651 13.5291 684.746 13.7249 684.926 13.7808L687.057 14.5081C687.057 14.5081 687.133 14.5267 687.17 14.5267Z" fill="black"/>
<path d="M639.805 39.4399C639.805 39.4399 639.417 32.7268 637.362 30.0696C635.306 27.4124 631.698 25.3425 630.931 26.8809C630.164 28.4193 632.607 30.6477 632.219 31.5614C631.831 32.4751 629.264 32.0183 625.4 30.657C621.535 29.3051 618.969 24.9043 618.969 24.9043C618.969 24.9043 618.201 26.6478 618.457 28.2328C618.713 29.8179 619.224 30.657 619.224 30.657C619.224 30.657 618.4 28.8296 618.4 32.1674C618.4 33.8457 619.868 35.0205 619.868 35.0205C619.868 35.0205 618.713 36.4004 621.156 39.4399C623.6 42.4794 630.419 45.2672 630.419 45.2672C630.419 45.2672 638.006 63.5043 650.489 68.3153C662.972 73.1263 672.746 66.665 672.746 66.665L668.891 46.6564C668.891 46.6564 655.509 51.3462 639.815 39.4399H639.805Z" fill="#FFBB87"/>
<path d="M625.314 34.4711C625.475 34.4711 625.617 34.3592 625.655 34.2007C625.693 34.0142 625.579 33.8371 625.39 33.7998C622.539 33.2124 619.214 29.8372 619.186 29.8C619.053 29.6694 618.836 29.6601 618.694 29.7906C618.551 29.9212 618.551 30.1356 618.694 30.2755C618.836 30.4246 622.198 33.8371 625.257 34.4711C625.285 34.4711 625.304 34.4711 625.333 34.4711H625.314Z" fill="black"/>
<path d="M624.736 37.7801C624.897 37.7801 625.049 37.6589 625.077 37.5004C625.105 37.3139 624.982 37.1367 624.793 37.1088C621.554 36.568 620.152 34.8338 620.133 34.8151C620.019 34.666 619.802 34.638 619.65 34.7592C619.498 34.8711 619.47 35.0855 619.584 35.2347C619.65 35.3186 621.156 37.202 624.67 37.7801C624.689 37.7801 624.708 37.7801 624.727 37.7801H624.736Z" fill="black"/>
<path d="M679.697 76.4183C679.697 76.4183 663.113 98.4222 649.484 122.86C635.855 147.297 628.288 177.86 628.288 177.86L663.18 179.986L688.553 119.606L681.09 179.184L714.835 178.018C714.835 178.018 722.138 122.71 718.245 96.6227C714.352 70.5351 709.787 65.0435 709.787 65.0435L679.707 76.4183H679.697Z" fill="#FFB904"/>
<path d="M699.786 18.8717C699.89 18.8717 699.985 18.8251 700.06 18.7412C705.942 11.4501 698.024 4.93285 697.948 4.86759C697.797 4.74638 697.579 4.77435 697.465 4.91421C697.342 5.06339 697.37 5.27783 697.513 5.38972C697.825 5.64146 704.985 11.5433 699.52 18.3123C699.407 18.4615 699.426 18.6759 699.577 18.7878C699.644 18.8344 699.719 18.8624 699.795 18.8624L699.786 18.8717Z" fill="white"/>
<path d="M660.575 46.9086C660.575 46.9086 673.854 32.2797 689.888 31.3287C705.923 30.3777 711.322 37.9765 712.098 41.5847C712.866 45.193 714.22 71.0289 713.254 72.7444C712.288 74.4507 705.705 77.4902 695.012 78.2547C684.31 79.0193 678.712 77.686 677.945 77.1172C677.178 76.5485 676.212 68.5674 676.212 68.5674L667.139 70.8517L660.575 46.9179V46.9086Z" fill="#3DF130"/>
<path d="M694.169 24.615C694.169 24.615 689.651 34.6193 694.349 38.5819C699.047 42.5444 706.036 39.9804 706.036 39.9804C706.036 39.9804 708.395 41.4629 712.903 39.9617C717.411 38.4606 719.618 34.3489 719.618 34.3489L694.169 24.615Z" fill="#0017BF"/>
<path d="M665.794 16.0936C665.794 16.0936 661.286 9.12881 659.022 7.59973C656.758 6.07065 644.124 1.17572 642.874 2.36915C641.623 3.56258 649.011 8.55075 649.011 8.55075C649.011 8.55075 647.742 8.82113 647.429 9.82808C647.117 10.835 647.676 11.6555 647.676 11.6555C647.676 11.6555 646.103 11.5996 645.658 12.6532C645.213 13.7067 645.942 14.8629 645.942 14.8629C645.942 14.8629 648.841 20.0841 650.498 20.1867C652.146 20.2986 651.928 17.4082 651.928 17.4082C651.928 17.4082 652.525 20.0375 653.964 21.492C655.404 22.9372 658.359 23.0957 661.409 21.5106C664.459 19.9256 665.794 16.0843 665.794 16.0843V16.0936Z" fill="#FFBB87"/>
<path d="M662.271 20.6535C662.441 20.6535 662.593 20.523 662.611 20.3458C662.63 20.1594 662.498 19.9915 662.299 19.9729C658.823 19.6093 657.971 15.1992 657.961 15.1526C657.942 15.0593 657.895 14.9847 657.81 14.9288C657.734 14.8822 657.63 14.8635 657.544 14.8822C655.896 15.2365 653.917 15.367 653.595 14.9568C653.529 14.8728 653.595 14.7143 653.652 14.5931C654.561 12.8123 658.757 10.9942 658.795 10.9756C658.965 10.901 659.05 10.6958 658.975 10.528C658.899 10.3602 658.69 10.2763 658.52 10.3509C658.34 10.4255 654.05 12.2809 653.036 14.2855C652.761 14.8169 652.894 15.1712 653.055 15.3763C653.718 16.2155 656.199 15.8425 657.355 15.6187C657.639 16.7562 658.795 20.2992 662.223 20.6535C662.233 20.6535 662.252 20.6535 662.261 20.6535H662.271Z" fill="black"/>
<path d="M653.747 14.2007C653.889 14.2007 654.031 14.1075 654.078 13.9676C654.135 13.7904 654.04 13.5947 653.86 13.5387C651.871 12.8954 649.343 8.42934 649.314 8.38272C649.22 8.2149 649.011 8.15895 648.841 8.25219C648.67 8.34543 648.613 8.55055 648.708 8.71837C648.822 8.91417 651.398 13.4641 653.643 14.1914C653.68 14.2007 653.718 14.21 653.747 14.21V14.2007Z" fill="black"/>
<path d="M652.923 18.014C652.923 18.014 652.961 18.014 652.989 18.014C653.662 17.9767 654.173 17.7436 654.505 17.3148C655.082 16.5595 654.855 15.506 654.846 15.4593C654.808 15.2729 654.618 15.161 654.438 15.1983C654.249 15.2356 654.135 15.4221 654.173 15.5992C654.173 15.5992 654.344 16.401 653.955 16.8952C653.756 17.1563 653.415 17.2961 652.961 17.3241C651.682 17.38 649.229 13.7811 647.998 11.4875C647.913 11.3196 647.704 11.2544 647.534 11.3476C647.363 11.4315 647.297 11.6366 647.392 11.8045C647.733 12.4478 650.792 18.0047 652.942 18.0047L652.923 18.014Z" fill="black"/>
<path d="M676.212 68.9125C676.344 68.9125 676.477 68.8286 676.534 68.7074C676.979 67.6725 679.129 62.4419 677.434 61.323C677.083 61.0899 676.799 61.1832 676.657 61.2671C675.53 61.9104 675.767 67.0384 675.871 68.5955C675.88 68.754 676.003 68.8845 676.155 68.9125C676.174 68.9125 676.193 68.9125 676.212 68.9125ZM676.998 61.8545C677.756 62.358 677.244 64.7728 676.477 66.9266C676.411 64.26 676.619 62.041 676.998 61.8545Z" fill="white"/>
<path d="M690.599 82.6082C697.759 82.6082 707.372 81.4241 713.15 75.8765C713.282 75.746 713.292 75.5316 713.15 75.3917C713.017 75.2612 712.799 75.2519 712.657 75.3917C703.025 84.6315 681.601 81.3122 681.393 81.2749C681.204 81.247 681.024 81.3682 680.995 81.5547C680.967 81.7411 681.09 81.9183 681.279 81.9462C681.649 82.0022 685.503 82.6082 690.59 82.6082H690.599Z" fill="white"/>
<path d="M688.392 119.95C688.505 119.95 688.629 119.885 688.695 119.783C688.742 119.699 693.601 111.68 706.198 106.963C706.378 106.897 706.463 106.702 706.397 106.524C706.33 106.347 706.131 106.254 705.951 106.329C693.108 111.14 688.146 119.363 688.098 119.438C688.004 119.596 688.06 119.811 688.221 119.904C688.278 119.932 688.335 119.95 688.392 119.95Z" fill="white"/>
<path d="M717.828 101.47C718.15 101.47 718.472 101.461 718.804 101.442C718.993 101.433 719.135 101.265 719.126 101.078C719.116 100.892 718.965 100.761 718.756 100.761C715.773 100.957 713.377 100.23 711.624 98.589C708.802 95.9504 708.499 91.6709 708.461 90.6546L716.748 87.41C716.928 87.3447 717.013 87.1396 716.938 86.9717C716.862 86.8039 716.663 86.7107 716.493 86.7853L707.978 90.1138C707.845 90.1604 707.76 90.291 707.76 90.4215C707.76 90.6453 707.703 95.8758 711.132 99.0832C712.827 100.668 715.072 101.47 717.809 101.47H717.828Z" fill="white"/>
<path d="M682.453 104.585C689.746 104.585 692.237 93.117 692.256 92.9957C692.294 92.8279 692.19 92.6508 692.019 92.6042L679.138 88.6696C678.968 88.6229 678.778 88.7069 678.712 88.8654C678.561 89.229 675.141 97.7415 677.642 102.096C678.4 103.42 679.621 104.221 681.279 104.483C681.677 104.548 682.065 104.576 682.444 104.576L682.453 104.585ZM691.508 93.1636C691.044 95.0283 688.25 104.921 681.392 103.821C679.953 103.587 678.892 102.907 678.248 101.769C676.155 98.1238 678.665 90.9539 679.242 89.4155L691.508 93.1542V93.1636Z" fill="white"/>
<path d="M653.187 203.751C653.187 203.751 658.131 180.927 654.399 180.852C650.658 180.778 644.625 183.155 644.625 183.155C644.625 183.155 636.934 177.542 632.9 179.398C628.856 181.263 625.929 186.26 625.929 186.26L603.501 196.218C603.501 196.218 600.432 199.714 600.84 201.756C601.162 203.35 632.303 207.201 645.979 208.814C649.503 209.234 652.695 206.987 653.206 203.751H653.187Z" fill="#E64218"/>
<path d="M623.647 193.263C623.742 193.263 623.846 193.225 623.912 193.142C624.007 193.039 624.026 192.89 623.96 192.769L622.52 189.804L630.978 191.957C631.129 191.995 631.281 191.93 631.366 191.799C631.442 191.668 631.423 191.501 631.319 191.389L626.166 186.009C626.034 185.869 625.816 185.869 625.674 185.99C625.532 186.121 625.532 186.335 625.655 186.475L629.983 190.997L621.961 188.955C621.829 188.927 621.696 188.965 621.611 189.067C621.525 189.17 621.506 189.31 621.563 189.431L622.984 192.34L616.771 190.391C616.591 190.335 616.392 190.438 616.335 190.615C616.278 190.792 616.373 190.988 616.563 191.044L623.533 193.225C623.533 193.225 623.6 193.244 623.638 193.244L623.647 193.263Z" fill="#0017BF"/>
<path d="M688.127 183.49C688.127 183.49 674.82 204.888 677.112 207.527C679.404 210.165 695.619 210.538 703.025 209.373C710.422 208.207 713.264 207.331 713.823 205.55C714.381 203.769 710.868 181.784 710.868 181.784C710.868 181.784 707.609 178.167 703.139 179.099C698.669 180.031 691.669 183.434 691.669 183.434C691.669 183.434 689.927 180.497 688.118 183.481L688.127 183.49Z" fill="#E64218"/>
<path d="M688.638 185.542C688.695 185.542 688.761 185.524 688.818 185.496L691.848 183.734C692.01 183.64 692.066 183.426 691.972 183.268C691.877 183.109 691.659 183.053 691.498 183.146L688.467 184.908C688.306 185.002 688.249 185.216 688.344 185.375C688.41 185.487 688.524 185.542 688.638 185.542Z" fill="#0017BF"/>
<path d="M605.054 90.8782H639.529C641.016 90.8782 642.228 89.6847 642.228 88.2209V72.7716C642.228 71.3078 641.016 70.1144 639.529 70.1144H605.054C603.567 70.1144 602.354 71.3078 602.354 72.7716V88.2209C602.354 89.6847 603.567 90.8782 605.054 90.8782Z" fill="#F6F6F6"/>
<path d="M624.48 71.6339L637.096 62.7671L634.008 71.6339H624.48Z" fill="#F6F6F6"/>
<path d="M613.967 86.832H609.591V74.1705H613.967V86.832Z" fill="#3DF130"/>
<path d="M620.985 86.832H616.609V76.4455H620.985V86.832Z" fill="#FFB904"/>
<path d="M635.002 86.832H630.626V76.4455H635.002V86.832Z" fill="#5EF939"/>
<path d="M627.984 86.823H623.608V80.4922H627.984V86.823Z" fill="#373178"/>
<path d="M482.716 26.4406V80.1598C482.716 81.9033 484.184 83.3299 485.993 83.3299H590.299C592.098 83.3299 593.566 81.9033 593.566 80.1598V26.4406C593.566 24.697 592.098 23.2705 590.299 23.2705H485.993C484.184 23.2705 482.716 24.697 482.716 26.4406Z" fill="#40398D"/>
<path d="M482.716 23.3225V27.3317H593.566V23.3225C593.566 21.234 592.098 19.5371 590.299 19.5371H485.993C484.184 19.5371 482.716 21.234 482.716 23.3225Z" fill="#EDEDED"/>
<path d="M575.382 25.2894C574.341 25.2894 573.497 24.4587 573.497 23.434C573.497 22.4093 574.341 21.5786 575.382 21.5786C576.423 21.5786 577.267 22.4093 577.267 23.434C577.267 24.4587 576.423 25.2894 575.382 25.2894Z" fill="#FFB904"/>
<path d="M581.415 25.2894C580.374 25.2894 579.53 24.4587 579.53 23.434C579.53 22.4093 580.374 21.5786 581.415 21.5786C582.456 21.5786 583.3 22.4093 583.3 23.434C583.3 24.4587 582.456 25.2894 581.415 25.2894Z" fill="#E64218"/>
<path d="M587.438 25.2894C586.398 25.2894 585.554 24.4587 585.554 23.434C585.554 22.4093 586.398 21.5786 587.438 21.5786C588.479 21.5786 589.323 22.4093 589.323 23.434C589.323 24.4587 588.479 25.2894 587.438 25.2894Z" fill="#0017BF"/>
<path d="M496.521 51.1541H516.885C517.657 51.1541 518.283 51.7802 518.283 52.5526C518.283 53.325 517.657 53.9512 516.885 53.9512H496.521C495.749 53.9512 495.122 53.325 495.122 52.5526C495.122 51.7802 495.749 51.1541 496.521 51.1541Z" fill="#FFB904"/>
<path d="M522.118 51.1541H542.481C543.254 51.1541 543.88 51.7802 543.88 52.5526C543.88 53.325 543.254 53.9512 542.481 53.9512H522.118C521.345 53.9512 520.719 53.325 520.719 52.5526C520.719 51.7802 521.345 51.1541 522.118 51.1541Z" fill="#3DF130"/>
<path d="M496.522 41.783H506.398C507.171 41.783 507.797 42.4091 507.797 43.1815C507.797 43.9539 507.171 44.5801 506.398 44.5801H496.522C495.749 44.5801 495.123 43.9539 495.123 43.1815C495.123 42.4091 495.749 41.783 496.522 41.783Z" fill="#3DF130"/>
<path d="M511.026 41.783H537.489C538.262 41.783 538.888 42.4091 538.888 43.1815C538.888 43.9539 538.262 44.5801 537.489 44.5801H511.026C510.254 44.5801 509.628 43.9539 509.628 43.1815C509.628 42.4091 510.254 41.783 511.026 41.783Z" fill="#E64218"/>
<path d="M496.522 60.2354H548.231C549.004 60.2354 549.63 60.8615 549.63 61.6339C549.63 62.4063 549.004 63.0325 548.231 63.0325H496.522C495.749 63.0325 495.123 62.4063 495.123 61.6339C495.123 60.8615 495.749 60.2354 496.522 60.2354Z" fill="#3DF130"/>
<path d="M554.99 41.0471H580.032V65.6989H554.99V41.0471Z" fill="#2E2C6E"/>
<path d="M559.221 54.519V53.3354L564.881 50.7104V52.1753L560.896 53.8921V53.9624L564.881 55.6792V57.144L559.221 54.519ZM570.084 48.4136L567.354 58.5737H566.041L568.783 48.4136H570.084ZM564.881 76.519L559.221 79.144V77.6792L563.205 75.9624V75.8921L559.221 74.1753V72.7104L564.881 75.3354V76.519Z" fill="#3DF130"/>
<path d="M510.096 178.133C510.096 178.133 508.827 193.312 509.282 193.843C509.737 194.375 546.371 205.088 546.371 205.088L541.474 183.13L533.31 168.315L510.096 178.133Z" fill="#001AF8"/>
<path d="M435.368 176.473H491.627C494.682 176.473 497.158 178.911 497.158 181.918V204.127C497.158 207.134 494.682 209.572 491.627 209.572H435.368C432.313 209.572 429.837 207.134 429.837 204.127V181.918C429.837 178.911 432.313 176.473 435.368 176.473Z" fill="#1D4568"/>
<path d="M466.803 94.2663C466.803 94.2663 475.034 92.6253 480.839 97.5016C486.645 102.378 489.903 139.635 489.903 139.635C489.903 139.635 470.459 149.994 453.884 149.994C437.31 149.994 438.768 149.248 438.768 149.248L434.904 134.134L466.794 94.2756L466.803 94.2663Z" fill="#0017BF"/>
<path d="M440.445 176.473H496.704C499.759 176.473 502.235 178.911 502.235 181.918V204.127C502.235 207.134 499.759 209.572 496.704 209.572H440.445C437.39 209.572 434.914 207.134 434.914 204.127V181.918C434.914 178.911 437.39 176.473 440.445 176.473Z" fill="#40398D"/>
<path d="M514.254 74.836C514.254 74.836 516.631 68.8782 517.9 70.5751C519.169 72.272 516.877 81.2227 516.877 81.2227C516.877 81.2227 511.45 82.0619 514.254 74.836Z" fill="#FFBB87"/>
<path d="M478.661 72.804H502.955C503.834 72.804 504.546 73.5053 504.546 74.3703V98.2855C504.546 99.1506 503.834 99.8519 502.955 99.8519H478.661C477.782 99.8519 477.07 99.1506 477.07 98.2855V74.3703C477.07 73.5053 477.782 72.804 478.661 72.804Z" fill="#F6F6F6"/>
<path d="M487.471 89.9112C484.667 87.1512 484.667 82.6764 487.471 79.9165C490.275 77.1565 494.82 77.1565 497.624 79.9164C500.427 82.6764 500.427 87.1512 497.624 89.9112C494.82 92.6712 490.275 92.6711 487.471 89.9112Z" fill="#5EF939"/>
<path d="M487.64 84.9976L484.76 89.9018L481.891 94.7967H487.64H493.389L490.509 89.9018L487.64 84.9976Z" fill="#E64218"/>
<path d="M508.552 97.6786C508.552 97.6786 502.746 92.3175 503.021 89.4738C503.296 86.63 504.65 80.2433 504.65 80.2433C504.65 80.2433 498.939 74.3974 499.213 73.148C499.488 71.8986 503.883 73.8659 503.883 73.8659C503.883 73.8659 499.194 69.316 499.204 67.5258C499.204 65.745 501.657 66.6308 501.657 66.6308C501.657 66.6308 501.297 64.5795 502.746 64.7567C504.195 64.9338 513.269 71.0968 515.892 74.3974C518.525 77.698 515.712 86.1452 515.892 87.32C516.072 88.4948 517.891 90.9096 517.891 90.9096L508.552 97.6692V97.6786Z" fill="#FFBB87"/>
<path d="M519.074 87.3379L501.666 95.8971C501.666 95.8971 504.025 102.61 498.579 104.577C493.142 106.545 486.787 97.7711 479.542 95.5521C472.287 93.333 466.462 94.7689 466.462 94.7689L469.919 124.483C469.919 124.483 502.509 141.536 518.288 130.283C534.067 119.038 519.084 87.3286 519.084 87.3286L519.074 87.3379Z" fill="#0017BF"/>
<path d="M516.953 77.6785C517.19 77.6505 517.322 77.4734 517.294 77.2869C517.285 77.1843 516.934 74.8068 515.476 73.3989C515.343 73.2684 515.125 73.2684 514.983 73.3989C514.85 73.5295 514.85 73.7532 514.983 73.8838C516.271 75.1238 516.593 77.3522 516.603 77.3708C516.631 77.5386 516.773 77.6692 516.944 77.6692L516.953 77.6785Z" fill="black"/>
<path d="M509.282 73.1385C509.386 73.1385 509.481 73.0919 509.547 73.0173C509.67 72.8681 509.651 72.6537 509.5 72.5418L501.885 66.3789C501.743 66.2577 501.525 66.2763 501.402 66.4255C501.279 66.5747 501.298 66.7891 501.449 66.901L509.064 73.0639C509.13 73.1199 509.206 73.1385 509.282 73.1385Z" fill="black"/>
<path d="M506.384 75.8325C506.497 75.8325 506.602 75.7765 506.668 75.674C506.772 75.5155 506.725 75.3103 506.573 75.2078L504.073 73.5855C503.912 73.4829 503.703 73.5295 503.599 73.6787C503.495 73.8372 503.542 74.0423 503.694 74.1449L506.194 75.7672C506.251 75.8045 506.317 75.8232 506.384 75.8232V75.8325Z" fill="black"/>
<path d="M557.035 182.617C557.035 182.617 583.839 196.78 587.267 198.71C590.696 200.64 592.77 206.766 591.406 207.894C590.043 209.022 545.84 208.537 542.402 207.894C538.964 207.251 536.511 191.456 536.511 191.456L557.035 182.617Z" fill="#001AF8"/>
<path d="M565.683 190.039C565.683 190.039 565.768 190.039 565.806 190.021C566.194 189.872 575.353 186.403 574.614 181.061C574.5 180.231 574.169 179.746 573.619 179.616C572.312 179.299 570.03 181.629 568.287 183.746C569.48 181.126 570.74 177.695 570.011 176.11C569.802 175.644 569.424 175.345 568.922 175.233C568.429 175.131 567.956 175.233 567.51 175.55C564.877 177.424 563.874 186.757 563.826 187.149C563.807 187.336 563.94 187.503 564.139 187.522C564.338 187.531 564.499 187.401 564.518 187.214C564.792 184.604 565.938 177.499 567.918 176.091C568.202 175.895 568.477 175.821 568.77 175.886C569.064 175.951 569.253 176.11 569.386 176.38C570.276 178.31 567.245 184.52 566.005 186.748C565.919 186.907 565.967 187.102 566.128 187.205C566.289 187.298 566.488 187.261 566.592 187.112C568.704 184.1 572.237 179.97 573.458 180.268C573.752 180.333 573.875 180.781 573.932 181.145C574.595 185.946 565.654 189.34 565.569 189.368C565.389 189.433 565.304 189.629 565.37 189.806C565.417 189.946 565.55 190.03 565.692 190.03L565.683 190.039Z" fill="#FFB904"/>
<path d="M480.509 131.402C480.509 131.402 507.104 107.916 522.371 111.664C537.639 115.412 538.804 131.113 541.522 148.781C544.24 166.459 545.093 179.372 545.093 179.372L508.543 180.09L506.375 149.21L467.315 137.248L480.499 131.402H480.509Z" fill="#3DF130"/>
<path d="M438.778 149.239C438.778 149.239 441.137 168.474 449.225 174.19C457.313 179.905 471.217 178.124 484.723 170.861C498.011 163.719 501.932 161.071 503.448 161.071C504.963 161.071 531.302 196.986 531.302 196.986L562.046 181.182C562.046 181.182 538.614 125.445 519.198 121.324C500.407 117.334 458.223 143.496 458.223 143.496L438.778 149.239Z" fill="#4EFD62"/>
<path d="M453.894 72.0847C453.894 72.0847 442.879 69.1757 438.882 76.5228C434.894 83.8698 438.333 113.678 438.333 113.678L455.248 102.722L454.888 87.9443L453.884 72.0847H453.894Z" fill="#0017BF"/>
<path d="M476.123 110.704L489.014 121.986C489.014 121.986 470.677 150.339 444.565 145.817C418.453 141.295 429.942 117.482 434.289 111.068C441.061 101.073 449.348 95.3573 456.793 94.8538C464.228 94.341 476.123 110.713 476.123 110.713V110.704Z" fill="#0017BF"/>
<path d="M456.792 89.064L456.991 96.9611C456.991 96.9611 458.497 99.1988 463.195 99.4598C466.699 99.6556 467.76 97.8562 467.76 97.8562L466.737 90.966L458.213 89.3437L456.783 89.0733L456.792 89.064Z" fill="#FFBB87"/>
<path d="M458.222 89.3335C458.251 89.5479 458.336 89.7997 458.478 90.0887C460.372 93.986 465.307 94.7226 467.324 94.8438L466.746 90.9558L458.222 89.3335Z" fill="black"/>
<path d="M468.072 72.9157C468.072 72.9157 472.533 82.7149 471.018 88.2531C469.503 93.7914 464.379 92.9709 461.301 91.936C458.232 90.8917 456.792 89.0643 456.792 89.0643C456.792 89.0643 453.941 90.0433 452.009 87.442C450.068 84.8407 451.223 81.8291 452.843 81.1205C454.472 80.4119 456.423 81.5587 456.423 81.5587L454.87 78.715C454.87 78.715 461.13 64.1235 468.072 72.9157Z" fill="#FFBB87"/>
<path d="M462.115 78.1917C462.238 78.1917 462.351 78.1265 462.418 78.0146C462.673 77.5764 462.996 77.2967 463.374 77.2034C464.028 77.0356 464.691 77.4272 464.7 77.4365C464.861 77.5391 465.079 77.4831 465.174 77.3246C465.278 77.1661 465.221 76.961 465.06 76.8584C465.022 76.8398 464.151 76.3083 463.204 76.5414C462.626 76.6813 462.162 77.0729 461.812 77.6789C461.717 77.8467 461.774 78.0519 461.944 78.1451C462.001 78.1731 462.058 78.1917 462.115 78.1917Z" fill="black"/>
<path d="M469.493 77.2591C469.54 77.2591 469.588 77.2498 469.635 77.2311C469.806 77.1565 469.881 76.9514 469.806 76.7836C469.673 76.4946 469.455 76.3081 469.171 76.2335C468.489 76.047 467.665 76.5878 467.57 76.6531C467.419 76.7556 467.371 76.9701 467.485 77.1286C467.589 77.2871 467.807 77.3244 467.968 77.2125C468.177 77.0726 468.697 76.8116 468.991 76.8955C469.048 76.9141 469.124 76.9421 469.18 77.0726C469.237 77.1938 469.36 77.2684 469.493 77.2684V77.2591Z" fill="black"/>
<path d="M462.447 80.2714C462.561 80.2714 462.674 80.2154 462.741 80.1129C462.873 79.9078 463.025 79.7959 463.214 79.7679C463.64 79.7026 464.18 80.0569 464.332 80.1875C464.474 80.3087 464.692 80.29 464.815 80.1502C464.938 80.0103 464.919 79.7959 464.777 79.6747C464.692 79.6001 463.915 78.9754 463.11 79.0966C462.722 79.1526 462.39 79.3763 462.153 79.7493C462.049 79.9078 462.097 80.1222 462.258 80.2154C462.314 80.2527 462.381 80.2714 462.447 80.2714Z" fill="black"/>
<path d="M468.157 80.0203C468.28 80.0203 468.404 79.955 468.47 79.8338C468.517 79.7406 468.943 78.9667 469.777 79.3117C469.947 79.3863 470.156 79.3117 470.232 79.1345C470.307 78.9574 470.232 78.7616 470.052 78.687C468.896 78.2022 468.11 79.032 467.854 79.5355C467.769 79.7033 467.835 79.9084 468.015 79.9923C468.063 80.0203 468.119 80.0296 468.167 80.0296L468.157 80.0203Z" fill="black"/>
<path d="M467.769 84.8206C467.949 84.8206 468.101 84.6901 468.11 84.5129C468.29 82.5083 467.163 80.196 467.116 80.1028C467.031 79.935 466.822 79.8604 466.652 79.9443C466.481 80.0282 466.406 80.2333 466.491 80.4012C466.5 80.4198 467.58 82.6482 467.419 84.457C467.4 84.6434 467.542 84.8113 467.732 84.8299C467.741 84.8299 467.751 84.8299 467.76 84.8299L467.769 84.8206Z" fill="black"/>
<path d="M465.317 87.6736C465.478 87.6736 465.62 87.5617 465.658 87.4125C465.696 87.226 465.582 87.0489 465.402 87.0023C465.383 87.0023 463.602 86.5827 463.101 85.3333C463.034 85.1562 462.826 85.0723 462.655 85.1469C462.475 85.2121 462.39 85.4173 462.466 85.5851C463.11 87.1701 465.175 87.6456 465.26 87.6643C465.288 87.6643 465.307 87.6643 465.336 87.6643L465.317 87.6736Z" fill="black"/>
<path d="M456.12 85.8009C456.224 85.8009 456.319 85.7543 456.385 85.6797C456.508 85.5305 456.48 85.3161 456.338 85.2042L453.108 82.6122C452.957 82.491 452.739 82.519 452.625 82.6588C452.502 82.808 452.53 83.0225 452.672 83.1343L455.902 85.7263C455.968 85.7729 456.044 85.8009 456.12 85.8009Z" fill="black"/>
<path d="M452.881 85.8004C452.928 85.8004 452.985 85.7911 453.032 85.7631L455.04 84.7841C455.211 84.7002 455.277 84.4951 455.201 84.3273C455.116 84.1594 454.908 84.0942 454.737 84.1688L452.729 85.1478C452.559 85.2317 452.493 85.4368 452.568 85.6046C452.625 85.7258 452.748 85.7911 452.881 85.7911V85.8004Z" fill="black"/>
<path d="M456.423 81.5575C456.423 81.5575 459.927 81.1845 462.124 78.3222C464.312 75.4598 465.326 72.5508 465.326 72.5508C465.326 72.5508 466.813 72.7839 467.769 73.94C468.48 74.7885 469.304 76.0285 469.304 76.0285C469.304 76.0285 469.351 72.0473 467.296 70.108C465.24 68.1687 463.498 68.8586 463.498 68.8586C463.498 68.8586 459.008 66.3972 454.5 70.397C449.992 74.3969 452.189 81.5668 452.189 81.5668C452.189 81.5668 454.481 80.6437 456.423 81.5668V81.5575Z" fill="#0017BF"/>
<path d="M477.221 91.6371C477.221 91.6371 477.098 88.2899 478.188 87.1431C479.277 85.9963 480.11 87.7212 480.11 87.7212C480.11 87.7212 481.076 84.4579 482.165 85.4462C483.255 86.4345 483.624 88.7001 483.624 88.7001C483.624 88.7001 485.547 87.2829 486.276 90.0894C487.005 92.8958 487.128 96.9889 489.903 99.5809C492.688 102.173 495.103 108.215 493.048 113.277C490.993 118.34 487.128 118.536 487.128 118.536L479.873 111.002C479.873 111.002 481.266 106.201 479.087 104.476C476.909 102.751 474.522 101.632 474.096 97.6695C473.935 96.1684 477.221 91.6185 477.221 91.6185V91.6371ZM478.547 99.469L477.847 95.898C475.668 98.7511 478.547 99.469 478.547 99.469Z" fill="#FFBB87"/>
<path d="M478.539 99.8038C478.539 99.8038 478.614 99.8038 478.652 99.7852C478.832 99.7199 478.927 99.5241 478.861 99.3469C477.8 96.3727 477.563 91.6642 477.554 91.6083C477.554 91.4218 477.374 91.3006 477.194 91.282C477.004 91.282 476.853 91.4498 476.862 91.6363C476.862 91.8321 477.108 96.4939 478.207 99.5614C478.254 99.7012 478.387 99.7852 478.529 99.7852L478.539 99.8038Z" fill="black"/>
<path d="M481.985 99.1149C482.042 99.1149 482.099 99.0963 482.156 99.0683C482.326 98.9751 482.383 98.77 482.288 98.6021C480.28 95.0778 480.962 87.4324 480.972 87.3578C480.991 87.1713 480.849 87.0035 480.659 86.9848C480.47 86.9755 480.299 87.106 480.28 87.2925C480.252 87.6188 479.57 95.2176 481.682 98.9285C481.748 99.0403 481.862 99.1056 481.985 99.1056V99.1149Z" fill="black"/>
<path d="M485.339 99.115C485.424 99.115 485.519 99.0777 485.585 99.0124C485.718 98.8819 485.718 98.6674 485.585 98.5276C484.108 97.0731 483.918 90.9381 483.966 88.7004C483.966 88.514 483.814 88.3555 483.625 88.3555C483.473 88.3555 483.274 88.5046 483.274 88.6911C483.274 89.0361 483.113 97.0638 485.093 99.0124C485.159 99.0777 485.244 99.115 485.339 99.115Z" fill="black"/>
<path d="M540.291 140.94C540.347 140.94 540.414 140.921 540.471 140.893C540.632 140.8 540.688 140.586 540.594 140.427C540.518 140.306 533.083 128.138 522.845 122.274C511.564 115.813 484.931 128.987 483.804 129.556C483.634 129.64 483.568 129.845 483.653 130.013C483.738 130.18 483.946 130.246 484.117 130.162C484.392 130.022 511.546 116.586 522.494 122.861C532.572 128.642 539.921 140.651 539.997 140.772C540.063 140.884 540.177 140.94 540.291 140.94Z" fill="white"/>
<path d="M503.447 161.415C503.447 161.415 503.513 161.415 503.542 161.405C503.655 161.377 503.741 161.293 503.778 161.191C504.015 160.51 506.061 154.524 504.091 153.061C503.655 152.734 503.201 152.772 502.888 153.163C501.865 154.431 502.32 160.594 503.229 161.34C503.295 161.387 503.371 161.415 503.447 161.415ZM503.513 153.517C503.513 153.517 503.589 153.536 503.674 153.592C504.735 154.375 504.138 157.732 503.4 160.128C502.983 158.478 502.708 154.45 503.438 153.573C503.466 153.536 503.485 153.517 503.523 153.517H503.513Z" fill="white"/>
<path d="M498.579 112.691C498.911 112.691 499.195 112.551 499.394 112.29C500.54 110.826 499.081 105.139 498.911 104.495C498.835 104.197 498.323 104.197 498.238 104.495C498.068 105.139 496.609 110.826 497.755 112.29C497.963 112.551 498.248 112.691 498.57 112.691H498.579ZM498.579 106.071C499.062 108.327 499.431 111.134 498.854 111.88C498.702 112.075 498.465 112.075 498.314 111.88C497.736 111.143 498.096 108.337 498.589 106.071H498.579Z" fill="#FFB904"/>
<path d="M463.167 99.9171C466.444 99.9171 468.764 97.9685 468.802 97.9405C468.944 97.8193 468.963 97.6048 468.83 97.465C468.707 97.3251 468.489 97.3065 468.347 97.437C468.129 97.6235 463.006 101.912 457.228 96.7191C457.086 96.5979 456.868 96.5979 456.736 96.7377C456.603 96.8776 456.622 97.092 456.755 97.2226C459.047 99.2831 461.263 99.9357 463.167 99.9357V99.9171Z" fill="#FFB904"/>
<path d="M451.649 118.881C451.649 118.881 451.725 118.881 451.753 118.862C458.715 116.615 474.049 111.105 474.2 111.049C474.38 110.983 474.475 110.788 474.408 110.61C474.342 110.433 474.143 110.349 473.963 110.405C473.812 110.461 458.487 115.972 451.536 118.219C451.356 118.275 451.261 118.47 451.318 118.647C451.365 118.787 451.498 118.881 451.649 118.881Z" fill="#FFB904"/>
<path d="M445.294 120.821C447.804 120.821 452.445 118.723 453.032 118.453C453.174 118.387 453.259 118.229 453.221 118.07C453.184 117.912 453.051 117.8 452.89 117.8C451.555 117.772 444.83 117.716 443.779 119.189C443.599 119.441 443.561 119.739 443.675 120.028C443.788 120.317 444.015 120.532 444.347 120.672C444.603 120.774 444.925 120.821 445.294 120.821ZM451.242 118.481C449.035 119.376 445.768 120.504 444.612 120.047C444.413 119.972 444.356 119.87 444.328 119.795C444.29 119.702 444.309 119.646 444.347 119.59C444.887 118.835 448.382 118.537 451.242 118.49V118.481Z" fill="#FFB904"/>
<path d="M446.099 156.221C452.35 156.1 454.197 150.133 454.216 150.077C454.273 149.9 454.169 149.704 453.979 149.658C453.799 149.602 453.61 149.704 453.553 149.891C453.487 150.114 451.82 155.438 446.09 155.55C445.9 155.55 445.749 155.709 445.749 155.895C445.749 156.082 445.91 156.231 446.099 156.231V156.221Z" fill="white"/>
<path d="M463.043 33.0478H512.511C513.837 33.0478 514.917 31.9849 514.917 30.6795V7.03472C514.917 5.7294 513.837 4.6665 512.511 4.6665H463.043C461.717 4.6665 460.638 5.7294 460.638 7.03472V30.6795C460.638 31.9849 461.717 33.0478 463.043 33.0478ZM512.511 5.35646C513.458 5.35646 514.216 6.11168 514.216 7.04404V30.6889C514.216 31.6212 513.449 32.3764 512.511 32.3764H463.043C462.096 32.3764 461.338 31.6212 461.338 30.6889V7.04404C461.338 6.11168 462.106 5.35646 463.043 5.35646H512.511Z" fill="#E64218"/>
<path d="M460.988 10.5885H514.567C514.756 10.5885 514.917 10.4391 514.917 10.2525C514.917 10.0658 514.765 9.9165 514.567 9.9165H460.988C460.799 9.9165 460.638 10.0658 460.638 10.2525C460.638 10.4391 460.789 10.5885 460.988 10.5885Z" fill="#E64218"/>
<path d="M464.757 9.30912C465.676 9.30912 466.434 8.57255 466.434 7.65883C466.434 6.74511 465.685 6.00854 464.757 6.00854C463.829 6.00854 463.081 6.74511 463.081 7.65883C463.081 8.57255 463.829 9.30912 464.757 9.30912ZM464.757 6.69849C465.297 6.69849 465.742 7.12738 465.742 7.66816C465.742 8.20893 465.307 8.63782 464.757 8.63782C464.208 8.63782 463.772 8.20893 463.772 7.66816C463.772 7.12738 464.208 6.69849 464.757 6.69849Z" fill="#E64218"/>
<path d="M469.2 9.30912C470.118 9.30912 470.876 8.57255 470.876 7.65883C470.876 6.74511 470.128 6.00854 469.2 6.00854C468.271 6.00854 467.523 6.74511 467.523 7.65883C467.523 8.57255 468.271 9.30912 469.2 9.30912ZM469.2 6.69849C469.739 6.69849 470.185 7.12738 470.185 7.66816C470.185 8.20893 469.749 8.63782 469.2 8.63782C468.65 8.63782 468.215 8.20893 468.215 7.66816C468.215 7.12738 468.65 6.69849 469.2 6.69849Z" fill="#E64218"/>
<path d="M473.641 9.30912C474.56 9.30912 475.317 8.57255 475.317 7.65883C475.317 6.74511 474.569 6.00854 473.641 6.00854C472.713 6.00854 471.965 6.74511 471.965 7.65883C471.965 8.57255 472.713 9.30912 473.641 9.30912ZM473.641 6.69849C474.181 6.69849 474.626 7.12738 474.626 7.66816C474.626 8.20893 474.19 8.63782 473.641 8.63782C473.092 8.63782 472.656 8.20893 472.656 7.66816C472.656 7.12738 473.092 6.69849 473.641 6.69849Z" fill="#E64218"/>
<path d="M41.8226 116.76L52.5457 127.428L63.3213 110.506L57.26 104.269L41.8226 116.76Z" fill="#FFBB87"/>
<path d="M47.4998 88.3073C46.3978 87.9235 41.7009 93.2094 41.1324 93.4885C40.5639 93.7677 41.9021 97.9284 40.6339 98.2249C39.3656 98.5215 37.0653 98.0156 35.2198 98.4692C33.488 98.8878 13.931 115.958 10.5724 119.752C10.2925 120.075 10.345 120.572 10.6949 120.851C11.4646 121.488 12.9602 122.631 14.7445 123.625C16.6949 124.707 19.004 125.597 21.1294 125.448C26.1585 125.091 33.3219 120.494 36.9516 120.005C40.5901 119.517 46.3715 120.939 47.15 119.046C47.9284 117.162 47.771 111.71 51.9343 108.91C56.0976 106.11 58.6253 105.517 58.8614 103.729C59.0189 102.525 54.2608 96.0617 50.8235 91.901C49.1792 89.9035 47.8409 88.4294 47.4911 88.3073H47.4998Z" fill="#E64218"/>
<path d="M47.4996 88.3073C46.3976 87.9235 41.7008 93.2094 41.1322 93.4885C40.5637 93.7677 41.9019 97.9284 40.6337 98.2249C39.3655 98.5215 37.0651 98.0156 35.2197 98.4692C33.4879 98.8878 13.9309 115.958 10.5722 119.752C10.2923 120.075 10.3448 120.572 10.6947 120.851C11.4644 121.488 12.96 122.631 14.7443 123.625L50.832 91.901C49.1877 89.9035 47.8495 88.4294 47.4996 88.3073Z" fill="white"/>
<path d="M90.374 176.729L88.1349 183.088L75.4351 187.144L69.3301 184.431L72.5838 169.855L90.374 176.729Z" fill="#FFBB87"/>
<path d="M67.5636 76.2274C67.5636 76.2274 65.2808 87.6279 64.205 97.3187C63.1291 107.01 61.3886 120.024 61.3886 120.024C61.3886 120.024 53.4119 149.847 72.5753 152.481C96.3393 155.752 95.1323 127.647 95.1323 127.647L87.9865 68.8306L67.5636 76.2274Z" fill="#FFB904"/>
<path d="M41.4642 121.628L61.1349 104.706L66.995 112.94L68.5781 151.442C68.5781 151.442 60.0154 150.29 41.4642 121.628Z" fill="#FFB904"/>
<path d="M105.567 73.5571C105.567 73.5571 113.5 105.09 110.99 128.335C108.479 151.59 96.9165 180.104 96.9165 180.104L66.0591 174.374L76.3712 139.91L83.8231 75.101L105.567 73.5571Z" fill="#FFB904"/>
<path d="M66.2518 202.818C66.8116 203.83 73.8525 203.045 74.4647 203.22C75.077 203.394 76.8787 199.408 78.0158 200.027C79.1616 200.655 80.526 202.565 82.2053 203.464C83.7709 204.31 109.765 204.676 114.803 204.101C115.232 204.048 115.52 203.647 115.45 203.202C115.302 202.217 114.961 200.367 114.296 198.44C113.579 196.337 112.45 194.139 110.771 192.822C106.8 189.734 98.3862 188.374 95.3599 186.306C92.3249 184.239 88.9838 179.32 87.1383 180.209C85.2928 181.09 81.7593 185.242 76.7825 184.544C71.8146 183.847 69.5317 182.599 68.1585 183.777C67.2314 184.571 66.4355 192.543 66.1994 197.925C66.0769 200.507 66.0769 202.496 66.2606 202.818H66.2518Z" fill="#E64218"/>
<path d="M74.3251 152.889C77.8499 152.889 85.8441 151.956 91.6692 144.289C101.728 131.048 95.7888 95.4594 95.0541 91.29L105.182 90.4701C105.357 90.4526 105.489 90.3043 105.471 90.1299C105.454 89.9554 105.305 89.8159 105.13 89.842L94.6518 90.6881C94.5643 90.6881 94.4768 90.7405 94.4243 90.8102C94.3719 90.88 94.3456 90.976 94.3631 91.0632C94.4331 91.4557 101.456 130.359 91.1619 143.905C83.7362 153.674 72.7332 152.183 72.6283 152.165C72.4533 152.139 72.2959 152.261 72.2697 152.436C72.2434 152.61 72.3659 152.767 72.5408 152.793C72.567 152.793 73.2318 152.889 74.3338 152.889H74.3251Z" fill="#E64218"/>
<path d="M69.2333 118.443C69.4957 118.443 69.7406 118.365 69.968 118.199C70.3091 117.946 70.4928 117.589 70.5278 117.135C70.7114 114.222 63.6006 107.488 63.3032 107.2C63.1982 107.095 63.032 107.087 62.9096 107.165C62.7871 107.244 62.7347 107.401 62.7784 107.531C63.1283 108.552 66.2595 117.571 68.8397 118.382C68.9709 118.426 69.1108 118.443 69.242 118.443H69.2333ZM63.8455 108.622C66.1808 110.968 70.003 115.225 69.8893 117.091C69.8718 117.353 69.7756 117.545 69.5919 117.676C69.4169 117.807 69.242 117.833 69.0321 117.763C67.3703 117.24 65.035 111.814 63.8455 108.613V108.622Z" fill="#E64218"/>
<path d="M69.2776 89.1362C69.3213 89.1362 69.3738 89.1275 69.4175 89.1014C73.6945 87.0166 76.4409 81.8354 76.5546 81.6173C76.6333 81.4603 76.5721 81.2684 76.4147 81.1899C76.2572 81.1114 76.0648 81.1725 75.9861 81.3207C75.9599 81.3731 73.2222 86.5369 69.1289 88.5257C68.9715 88.6042 68.9015 88.7961 68.9802 88.9531C69.0327 89.0665 69.1464 89.1362 69.2689 89.1362H69.2776Z" fill="#E64218"/>
<path d="M66.2518 202.819C66.8116 203.831 73.8525 203.045 74.4647 203.22C75.077 203.394 76.8787 199.408 78.0158 200.027C79.1616 200.655 80.526 202.566 82.2053 203.464C83.7709 204.31 109.765 204.677 114.803 204.101C115.232 204.049 115.52 203.647 115.45 203.203C115.302 202.217 114.961 200.368 114.296 198.44L66.1994 197.925C66.0769 200.507 66.0769 202.496 66.2606 202.819H66.2518Z" fill="white"/>
<path d="M73.537 33.5997C73.537 33.5997 59.1754 36.6788 54.3736 52.1004C49.5718 67.5221 68.9539 83.7724 68.9539 83.7724L105.566 73.5581C105.566 73.5581 101.176 33.966 96.7938 30.0059C92.403 26.0459 73.537 33.5909 73.537 33.5909V33.5997Z" fill="#DC3C1E"/>
<path d="M84.5228 25.0594C84.5228 25.0594 86.482 10.2832 105.567 6.67206C124.651 3.06088 136.074 26.6905 136.074 26.6905L79.8697 36.9571L84.5228 25.0594Z" fill="#DC3C1E"/>
<path d="M83.1319 18.5967C83.1319 18.5967 89.2369 14.375 86.8579 10.3713C84.4876 6.36757 78.575 9.87408 78.575 9.87408C78.575 9.87408 76.5284 7.52769 73.2922 9.08905C70.056 10.6504 69.4088 14.9594 69.4088 14.9594C69.4088 14.9594 66.2426 14.6715 65.7965 18.5095C65.3505 22.3475 69.2689 26.0546 69.2689 26.0546L83.1319 18.588V18.5967Z" fill="#0017BF"/>
<path d="M72.2605 28.392L71.6832 35.7191C71.6832 35.7191 72.8465 37.9259 77.1147 38.615C80.2984 39.1209 81.418 37.0972 81.418 37.0972L81.3218 34.7421L81.1643 31.0873L73.5375 28.7758L72.2605 28.3833V28.392Z" fill="#FFBB87"/>
<path d="M73.537 28.7759C73.537 28.9765 73.5982 29.2207 73.6944 29.4999C75.0501 33.2855 79.4845 34.4282 81.3213 34.7422L81.1638 31.0874L73.537 28.7759Z" fill="black"/>
<path d="M84.1111 14.5143C84.1111 14.5143 87.2423 24.0045 85.3268 28.9852C83.4114 33.9658 78.802 32.7272 76.0994 31.4711C73.3967 30.2151 72.2597 28.3833 72.2597 28.3833C72.2597 28.3833 69.5658 29.0201 68.0439 26.4382C66.522 23.8475 67.8602 21.1697 69.4171 20.6638C70.9739 20.1666 72.6445 21.4052 72.6445 21.4052L71.4987 18.6227C71.4987 18.6227 78.6183 5.71314 84.1198 14.4968L84.1111 14.5143Z" fill="#FFBB87"/>
<path d="M72.0762 25.3727C72.1637 25.3727 72.2599 25.3378 72.3211 25.2593C72.4348 25.1284 72.4173 24.9278 72.2861 24.8144L69.1636 22.1802C69.0324 22.0668 68.8313 22.0842 68.7176 22.2151C68.6039 22.3459 68.6214 22.5465 68.7526 22.6599L71.875 25.2942C71.9362 25.3465 72.0062 25.3727 72.0849 25.3727H72.0762Z" fill="black"/>
<path d="M69.0594 25.0946C69.0594 25.0946 69.0944 25.0946 69.1118 25.0946L71.3334 24.7021C71.5084 24.6759 71.6221 24.5102 71.5959 24.3357C71.5609 24.1613 71.4034 24.0479 71.2285 24.0741L69.0069 24.4666C68.832 24.4927 68.7183 24.6585 68.7445 24.8329C68.7707 24.9899 68.9107 25.0946 69.0594 25.0946Z" fill="black"/>
<path d="M77.6834 17.9249C77.7709 17.9249 77.8583 17.89 77.9195 17.8202C78.9429 16.6863 80.0362 17.3754 80.0799 17.4016C80.2286 17.4975 80.421 17.4539 80.5172 17.3056C80.6134 17.1573 80.5697 16.9567 80.421 16.8695C79.8787 16.5206 78.5493 16.1717 77.4385 17.3928C77.316 17.5237 77.3335 17.7243 77.4647 17.8464C77.526 17.8988 77.6047 17.9249 77.6746 17.9249H77.6834Z" fill="black"/>
<path d="M84.837 18.1334C84.9245 18.1334 85.0032 18.0985 85.0644 18.0374C85.1869 17.9153 85.1869 17.706 85.0644 17.5839C84.0236 16.5808 82.8166 17.1564 82.7641 17.1826C82.6067 17.2611 82.5367 17.453 82.6154 17.61C82.6941 17.767 82.8866 17.8281 83.044 17.7583C83.0877 17.7409 83.9186 17.3658 84.6183 18.0462C84.6796 18.1072 84.7583 18.1334 84.837 18.1334Z" fill="black"/>
<path d="M82.8176 25.7831C82.9488 25.7831 83.0625 25.7046 83.115 25.5825C84.252 22.6517 82.4153 20.7763 82.3366 20.6978C82.2141 20.5757 82.013 20.5757 81.8905 20.6978C81.7681 20.8199 81.7681 21.0205 81.8905 21.1514C81.9605 21.2211 83.4999 22.8174 82.5203 25.3557C82.459 25.5214 82.5377 25.7046 82.7039 25.7656C82.7389 25.7831 82.7827 25.7831 82.8176 25.7831Z" fill="black"/>
<path d="M84.5226 21.6493C84.5226 21.6493 84.5663 21.6493 84.5838 21.6493C84.7587 21.6144 84.8724 21.4487 84.8374 21.2743L84.5138 19.5559C84.4788 19.3814 84.3127 19.268 84.1377 19.3029C83.9628 19.3378 83.8491 19.5036 83.8841 19.678L84.2077 21.3964C84.2339 21.5447 84.3739 21.6581 84.5226 21.6581V21.6493Z" fill="black"/>
<path d="M79.8692 21.3791C79.8692 21.3791 79.913 21.3791 79.9305 21.3791C80.1054 21.3442 80.2191 21.1784 80.1841 21.004L79.8605 19.2856C79.8255 19.1112 79.6593 18.9978 79.4844 19.0327C79.3095 19.0676 79.1958 19.2333 79.2307 19.4077L79.5544 21.1261C79.5806 21.2744 79.7206 21.3878 79.8692 21.3878V21.3791Z" fill="black"/>
<path d="M84.7234 16.6427C84.7234 16.6427 84.0412 15.1075 82.2132 14.9505C80.3852 14.7934 79.2132 15.9972 79.2132 15.9972C79.2132 15.9972 79.773 19.1373 77.1578 20.5766C74.5339 22.0158 72.6446 21.4052 72.6446 21.4052L70.8866 20.6202L69.767 17.8813L75.4347 12.6651L82.4844 9.62964L85.6855 13.0227L84.7234 16.6252V16.6427Z" fill="#0017BF"/>
<path d="M80.972 27.7813C81.1819 27.7813 81.3218 27.633 81.3131 27.4585C81.3131 27.2841 81.1732 27.1707 80.9895 27.1445C80.9195 27.1619 79.4851 27.1445 78.9778 25.8012C78.9166 25.6355 78.7329 25.557 78.5667 25.618C78.4005 25.6791 78.3218 25.8623 78.383 26.028C78.9078 27.4236 80.281 27.7813 80.9632 27.7813H80.972Z" fill="black"/>
<path d="M166.757 87.0164L99.6718 87.0164C97.2324 87.0164 95.2549 85.0442 95.2549 82.6114L95.2549 26.4201C95.2549 23.9873 97.2324 22.0152 99.6718 22.0152L166.757 22.0152C169.196 22.0152 171.174 23.9873 171.174 26.4201V82.6114C171.174 85.0442 169.196 87.0164 166.757 87.0164Z" fill="#373178"/>
<path d="M88.4326 53.486C88.4326 53.486 97.625 48.6275 100.415 48.2088C103.205 47.7901 107.972 50.8517 107.972 50.8517L105.567 52.2386C105.567 52.2386 109.328 60.4379 108.628 61.6853C107.928 62.9326 106.118 61.6853 106.118 61.6853C106.118 61.6853 101.797 66.1338 100.546 66.2734C99.2956 66.4129 92.6046 63.77 92.6046 63.77L88.4238 53.486H88.4326Z" fill="#FFBB87"/>
<path d="M89.683 51.542L69.7586 58.6248L71.8053 34.1055C71.8053 34.1055 56.5253 38.7546 52.4932 54.4554C48.4523 70.1562 54.3037 82.6557 66.8373 83.7722C79.3709 84.88 96.3652 67.3824 96.3652 67.3824L89.683 51.542Z" fill="#DC3C1E"/>
<path d="M125.823 16.0845C125.823 16.0845 123.593 12.3425 121.537 15.4739C119.482 18.6053 121.24 27.5373 122.911 27.9473C124.704 28.3921 125.823 24.9816 125.823 24.9816C125.823 24.9816 126.164 27.895 128.054 27.9473C129.934 27.9996 130.791 24.9816 130.791 24.9816C130.791 24.9816 131.727 28.3834 133.363 27.9473C135.156 27.4588 136.1 16.0845 132.68 14.8982C131.036 14.3312 130.109 16.0845 130.109 16.0845C130.109 16.0845 129.47 13.9213 127.59 14.2004C125.709 14.4795 125.832 16.0845 125.832 16.0845H125.823Z" fill="#FFBB87"/>
<path d="M105.567 52.2392L112.223 48.1658L113.929 51.5589L107.028 55.6585L105.567 52.2392Z" fill="white"/>
<path d="M116.054 52.6921C114.628 52.6921 112.94 52.256 112.162 50.7034C110.981 48.3483 112.564 45.4698 112.756 45.1558L114.969 46.4205C114.681 46.9265 113.963 48.6012 114.444 49.5607C114.786 50.2411 116.29 50.1887 116.928 50.0579L117.462 52.5526C117.068 52.6398 116.579 52.6921 116.062 52.6921H116.054Z" fill="white"/>
<path d="M105.567 52.5531C105.628 52.5531 105.698 52.5356 105.751 52.492C105.891 52.3873 105.926 52.1867 105.821 52.0472L104.115 49.6746C104.01 49.535 103.818 49.5001 103.669 49.6048C103.529 49.7095 103.494 49.9101 103.599 50.0497L105.305 52.4222C105.366 52.5095 105.462 52.5531 105.567 52.5531Z" fill="black"/>
<path d="M106.127 61.9991C106.188 61.9991 106.258 61.9817 106.31 61.9381C106.45 61.8334 106.485 61.6415 106.38 61.4932L105.41 60.1412C105.305 60.0016 105.103 59.9667 104.963 60.0627C104.824 60.1674 104.789 60.3593 104.893 60.5075L105.864 61.8595C105.926 61.9468 106.022 61.9904 106.127 61.9904V61.9991Z" fill="black"/>
<path d="M125.824 24.9019C125.999 24.9019 126.139 24.7623 126.139 24.5879V16.0833C126.139 15.9089 125.999 15.7693 125.824 15.7693C125.649 15.7693 125.509 15.9089 125.509 16.0833V24.5879C125.509 24.7623 125.649 24.9019 125.824 24.9019Z" fill="black"/>
<path d="M130.792 25.3036C130.993 25.2861 131.124 25.1378 131.107 24.9634L130.425 16.0663C130.407 15.8918 130.25 15.761 130.083 15.7697C129.909 15.7871 129.777 15.9354 129.786 16.1099L130.468 25.007C130.477 25.1727 130.617 25.3036 130.783 25.3036H130.792Z" fill="black"/>
<path d="M77.9364 38.946C77.9801 38.946 78.0326 38.946 78.0763 38.946C79.4495 38.9111 80.6478 38.3616 81.6448 37.3149C81.7673 37.184 81.7585 36.9834 81.6361 36.8613C81.5136 36.7392 81.3037 36.7479 81.1813 36.87C79.6594 38.475 77.6477 38.7366 75.2162 37.6638C73.3445 36.8351 71.9101 35.4918 71.9013 35.4831C71.7701 35.361 71.569 35.3697 71.4465 35.4918C71.3241 35.6227 71.3328 35.8233 71.4553 35.9454C71.5865 36.0675 74.6564 38.946 77.9276 38.946H77.9364Z" fill="white"/>
<path d="M64.9309 59.2869C64.9309 59.2869 65.0184 59.2869 65.0534 59.2607C73.5112 55.6932 85.6337 53.0328 85.7562 53.0066C85.9311 52.9717 86.0361 52.7973 86.0011 52.6315C85.9661 52.4571 85.7912 52.3524 85.625 52.3873C85.5025 52.4135 73.3188 55.0826 64.8085 58.6763C64.6423 58.7461 64.5724 58.9293 64.6423 59.095C64.6948 59.2171 64.8085 59.2869 64.9397 59.2869H64.9309Z" fill="white"/>
<path d="M69.2519 56.6088C70.5201 56.6088 71.7446 56.5651 72.5843 56.5215C72.733 56.5215 72.8555 56.4081 72.8817 56.2599C72.9079 56.1116 72.8292 55.972 72.698 55.911C72.4269 55.7888 66.1294 53.015 63.9428 54.7944C63.523 55.1434 63.523 55.4486 63.593 55.6405C63.8903 56.4256 66.6717 56.6088 69.2432 56.6088H69.2519ZM71.0624 55.9458C67.7913 56.0331 64.5638 55.8761 64.2052 55.4225C64.2227 55.4225 64.2577 55.3614 64.3539 55.2916C65.5959 54.2798 68.9021 55.1608 71.0624 55.9458Z" fill="white"/>
<path d="M103.572 22.339C103.721 22.339 103.835 22.243 103.878 22.1122C104.097 21.3882 105.129 17.7247 104.281 16.7826C104.15 16.6343 103.896 16.4773 103.511 16.5471C103.205 16.6082 102.96 16.7826 102.794 17.0618C102.033 18.344 103.144 21.7458 103.266 22.1296C103.31 22.2605 103.432 22.3477 103.572 22.3477V22.339ZM103.695 17.1577C103.765 17.1577 103.791 17.1839 103.809 17.2013C104.167 17.6026 103.922 19.3122 103.564 20.8299C103.257 19.6349 102.969 18.0125 103.345 17.3758C103.415 17.2537 103.511 17.1839 103.634 17.1664C103.66 17.1664 103.677 17.1664 103.704 17.1664L103.695 17.1577Z" fill="white"/>
<path d="M80.2544 80.2294C80.3069 80.2294 80.3506 80.2206 80.3944 80.1945C80.4818 80.1509 89.4382 75.5889 94.4236 69.6924C94.5373 69.5616 94.5198 69.3609 94.3887 69.2476C94.2575 69.1342 94.0563 69.1516 93.9426 69.2824C89.0446 75.0743 80.2019 79.5752 80.1145 79.6275C79.957 79.706 79.8958 79.8979 79.9745 80.0549C80.027 80.1683 80.1407 80.2294 80.2631 80.2294H80.2544Z" fill="white"/>
<path d="M127.057 108.265C127.135 108.265 127.205 108.239 127.267 108.186C127.398 108.073 127.407 107.864 127.293 107.741L124.31 104.453C124.188 104.322 123.987 104.313 123.856 104.427C123.724 104.54 123.716 104.75 123.829 104.872L126.812 108.16C126.873 108.23 126.961 108.265 127.048 108.265H127.057Z" fill="white"/>
<path d="M124.074 108.265C124.162 108.265 124.249 108.23 124.31 108.16L127.293 104.872C127.407 104.741 127.398 104.54 127.267 104.427C127.135 104.305 126.934 104.322 126.812 104.453L123.829 107.742C123.716 107.872 123.724 108.073 123.856 108.186C123.917 108.239 123.995 108.265 124.065 108.265H124.074Z" fill="white"/>
<path d="M145.879 152.898H194.247C196.083 152.898 197.579 151.407 197.579 149.575V110.445C197.579 108.613 196.083 107.122 194.247 107.122H145.879C144.042 107.122 142.547 108.613 142.547 110.445V149.575C142.547 151.407 144.042 152.898 145.879 152.898ZM194.247 107.75C195.734 107.75 196.941 108.954 196.941 110.436V149.566C196.941 151.049 195.734 152.253 194.247 152.253H145.879C144.392 152.253 143.185 151.049 143.185 149.566V110.436C143.185 108.954 144.392 107.75 145.879 107.75H194.247Z" fill="#E64218"/>
<path d="M142.861 116.167H197.264C197.439 116.167 197.579 116.028 197.579 115.844C197.579 115.661 197.439 115.521 197.264 115.521H142.861C142.687 115.521 142.547 115.661 142.547 115.844C142.547 116.028 142.687 116.167 142.861 116.167Z" fill="#E64218"/>
<path d="M190.879 113.776C190.967 113.776 191.063 113.742 191.124 113.663L194.019 110.261C194.133 110.13 194.116 109.93 193.984 109.816C193.853 109.703 193.652 109.72 193.538 109.851L190.643 113.253C190.53 113.384 190.547 113.585 190.678 113.698C190.739 113.75 190.809 113.776 190.888 113.776H190.879Z" fill="#E64218"/>
<path d="M193.783 113.776C193.853 113.776 193.932 113.75 193.993 113.698C194.124 113.585 194.142 113.384 194.028 113.253L191.133 109.851C191.019 109.72 190.818 109.703 190.687 109.816C190.556 109.93 190.538 110.13 190.652 110.261L193.547 113.663C193.608 113.742 193.696 113.776 193.792 113.776H193.783Z" fill="#E64218"/>
<path d="M316.215 202.295H269.614C265.315 202.295 261.83 198.819 261.83 194.532V138.149C261.83 133.861 265.315 130.385 269.614 130.385H316.215C320.515 130.385 324 133.861 324 138.149V194.532C324 198.819 320.515 202.295 316.215 202.295Z" fill="#1D4568"/>
<path d="M311.537 202.295H264.936C260.637 202.295 257.151 198.819 257.151 194.532V138.149C257.151 133.861 260.637 130.385 264.936 130.385H311.537C315.836 130.385 319.321 133.861 319.321 138.149V194.532C319.321 198.819 315.836 202.295 311.537 202.295Z" fill="#40398D"/>
<path d="M211.819 118.976C211.906 118.976 211.985 118.942 212.046 118.88C212.108 118.819 212.143 118.741 212.143 118.654V20.0267C212.143 19.8522 212.003 19.7126 211.828 19.7126C211.653 19.7126 211.513 19.8522 211.513 20.0267V118.34L133.556 118.287V61.7209C133.556 61.5465 133.416 61.4069 133.241 61.4069C133.066 61.4069 132.926 61.5465 132.926 61.7209V118.601C132.926 118.776 133.066 118.915 133.241 118.924L211.836 118.976H211.819Z" fill="#E64218"/>
<path d="M251.527 176.085L247.801 188.672L232.032 185.985L235.635 174.244L251.527 176.085Z" fill="#FFBB87"/>
<path d="M276.123 173.799L277.837 188.182L262.067 191.2L260.598 177.733L276.123 173.799Z" fill="#FFBB87"/>
<path d="M225.078 45.7859C225.078 45.7859 223.477 50.8189 226.241 51.8569C229.014 52.8948 229.022 50.0251 229.022 50.0251L227.308 46.4226L225.078 45.7946V45.7859Z" fill="#FFBB87"/>
<path d="M237.848 55.7906C237.848 55.7906 234.227 46.4835 230.929 44.8611C227.632 43.2387 221.361 43.4393 220.399 45.1489C219.445 46.8498 222.314 46.8847 223.057 46.7103C223.801 46.5358 226.04 47.0243 226.565 47.7832C227.098 48.542 227.308 51.7345 227.308 51.7345C227.308 51.7345 224.859 52.2317 223.801 51.342C222.743 50.4523 221.676 48.8473 220.932 50.0249C220.189 51.1937 223.162 57.3519 225.297 59.0441C227.422 60.745 232.845 62.8646 232.845 62.8646L237.848 55.7906Z" fill="#FFBB87"/>
<path d="M227.317 52.0485C227.519 52.031 227.65 51.874 227.632 51.6995C227.632 51.6559 227.527 50.6005 227.134 48.856C226.696 46.937 224.956 46.5706 224.877 46.5532C224.711 46.5183 224.536 46.6317 224.501 46.8061C224.466 46.9806 224.58 47.1463 224.746 47.1812C224.807 47.1899 226.163 47.4952 226.504 49.0042C226.889 50.7052 226.985 51.7519 226.994 51.7606C227.011 51.9263 227.151 52.0485 227.309 52.0485H227.317Z" fill="black"/>
<path d="M206.071 38.4663H217.564C218.192 38.4663 218.701 38.974 218.701 39.6002V51.0618C218.701 51.6881 218.192 52.1958 217.564 52.1958H206.071C205.443 52.1958 204.934 51.6881 204.934 51.0618V39.6002C204.934 38.974 205.443 38.4663 206.071 38.4663Z" fill="#373178"/>
<path d="M206.071 55.9998H217.564C218.192 55.9998 218.701 56.5074 218.701 57.1337V68.5953C218.701 69.2215 218.192 69.7292 217.564 69.7292H206.071C205.443 69.7292 204.934 69.2215 204.934 68.5953V57.1337C204.934 56.5074 205.443 55.9998 206.071 55.9998Z" fill="#373178"/>
<path d="M206.071 73.5315H217.564C218.192 73.5315 218.701 74.0392 218.701 74.6654V86.127C218.701 86.7533 218.192 87.261 217.564 87.261H206.071C205.443 87.261 204.934 86.7533 204.934 86.127V74.6654C204.934 74.0392 205.443 73.5315 206.071 73.5315Z" fill="#373178"/>
<path d="M217.451 53.0942L223.889 47.6774L222.236 45.7322L217.679 49.5789L213.97 45.5491L212.09 47.2762L217.451 53.0942Z" fill="#F6F6F6"/>
<path d="M211.967 67.9933L217.25 63.5099L215.597 61.5734L212.378 64.3036L208.232 58.8083L206.186 60.3435L211.967 67.9933Z" fill="white"/>
<path d="M211.967 85.534L217.25 81.0506L215.597 79.1141L212.378 81.8443L208.232 76.3403L206.186 77.8755L211.967 85.534Z" fill="white"/>
<path d="M228.463 0H194.746C193.364 0 192.244 1.1165 192.244 2.49468V21.0216C192.244 22.3998 193.364 23.5163 194.746 23.5163H228.463C229.845 23.5163 230.965 22.3998 230.965 21.0216V2.49468C230.965 1.1165 229.845 0 228.463 0Z" fill="#5EF939"/>
<path d="M117.462 108.239V160.854C117.462 164.012 120.348 166.567 123.891 166.567H216.612C220.171 166.567 223.058 164.012 223.058 160.854V108.239C223.058 105.081 220.171 102.526 216.612 102.526H123.891C120.348 102.526 117.462 105.081 117.462 108.239Z" fill="#40398D"/>
<path d="M156.069 117.659H178.366C178.856 117.659 179.253 118.056 179.253 118.546C179.253 119.036 178.856 119.433 178.366 119.433H156.069C155.579 119.433 155.182 119.036 155.182 118.546C155.182 118.056 155.579 117.659 156.069 117.659Z" fill="#5EF939"/>
<path d="M133.579 126.793H173.037C173.527 126.793 173.924 127.19 173.924 127.68C173.924 128.171 173.527 128.568 173.037 128.568H133.579C133.089 128.568 132.692 128.171 132.692 127.68C132.692 127.19 133.089 126.793 133.579 126.793Z" fill="#FFB904"/>
<path d="M178.338 126.793H194.471C194.961 126.793 195.358 127.19 195.358 127.68C195.358 128.171 194.961 128.568 194.471 128.568H178.338C177.848 128.568 177.45 128.171 177.45 127.68C177.45 127.19 177.848 126.793 178.338 126.793Z" fill="#5EF939"/>
<path d="M133.579 152.509H173.037C173.527 152.509 173.924 152.906 173.924 153.396C173.924 153.886 173.527 154.283 173.037 154.283H133.579C133.089 154.283 132.692 153.886 132.692 153.396C132.692 152.906 133.089 152.509 133.579 152.509Z" fill="#FFB904"/>
<path d="M178.338 152.509H208.89C209.38 152.509 209.777 152.906 209.777 153.396C209.777 153.886 209.38 154.283 208.89 154.283H178.338C177.848 154.283 177.451 153.886 177.451 153.396C177.451 152.906 177.848 152.509 178.338 152.509Z" fill="#5EF939"/>
<path d="M133.579 139.436H173.037C173.527 139.436 173.924 139.833 173.924 140.323C173.924 140.813 173.527 141.21 173.037 141.21H133.579C133.089 141.21 132.692 140.813 132.692 140.323C132.692 139.833 133.089 139.436 133.579 139.436Z" fill="#5EF939"/>
<path d="M178.338 139.436H194.471C194.961 139.436 195.358 139.833 195.358 140.323C195.358 140.813 194.961 141.21 194.471 141.21H178.338C177.848 141.21 177.45 140.813 177.45 140.323C177.45 139.833 177.848 139.436 178.338 139.436Z" fill="#5EF939"/>
<path d="M181.992 134.889L155.014 134.889C154.524 134.889 154.127 134.492 154.127 134.002C154.127 133.512 154.524 133.115 155.014 133.115L181.992 133.115C182.482 133.115 182.879 133.512 182.879 134.002C182.879 134.492 182.482 134.889 181.992 134.889Z" fill="#FFB904"/>
<path d="M149.713 134.889L133.58 134.889C133.09 134.889 132.692 134.492 132.692 134.002C132.692 133.512 133.09 133.115 133.58 133.115L149.713 133.115C150.203 133.115 150.6 133.512 150.6 134.002C150.6 134.492 150.203 134.889 149.713 134.889Z" fill="#5EF939"/>
<path d="M181.992 147.531L155.014 147.531C154.524 147.531 154.127 147.134 154.127 146.644C154.127 146.154 154.524 145.756 155.014 145.756L181.992 145.756C182.482 145.756 182.879 146.154 182.879 146.644C182.879 147.134 182.482 147.531 181.992 147.531Z" fill="#FFB904"/>
<path d="M149.713 147.531L133.58 147.531C133.09 147.531 132.692 147.134 132.692 146.644C132.692 146.154 133.09 145.756 133.58 145.756L149.713 145.756C150.203 145.756 150.6 146.154 150.6 146.644C150.6 147.134 150.203 147.531 149.713 147.531Z" fill="#5EF939"/>
<path d="M133.42 120.229V119.037L138.264 116.889V118.266L134.973 119.599V119.657L138.264 120.99V122.367L133.42 120.229ZM144.727 115.053L142.441 123.52H141.201L143.477 115.053H144.727ZM138.264 142.229L133.42 144.367V142.99L136.711 141.657V141.599L133.42 140.266V138.889L138.264 141.037V142.229Z" fill="#3DF130"/>
<path d="M183.667 117.659H208.89C209.38 117.659 209.777 118.056 209.777 118.546C209.777 119.036 209.38 119.433 208.89 119.433H183.667C183.177 119.433 182.78 119.036 182.78 118.546C182.78 118.056 183.177 117.659 183.667 117.659Z" fill="#FFB904"/>
<path d="M246.315 200.587C247.469 200.657 248.492 199.75 248.624 198.52C249.166 193.67 250.985 182.854 250.102 182.758C248.973 182.636 237.253 184.459 237.253 184.459C237.253 184.459 237.682 177.699 232.854 178.379C229.154 178.903 224.501 182.714 222.533 184.459C221.912 185.017 221.16 185.366 220.355 185.471C216.909 185.933 207.375 187.651 206.693 192.571C205.854 198.59 208.364 198.171 209.492 198.293C210.463 198.398 238.416 200.099 246.315 200.578V200.587Z" fill="#FFB904"/>
<path d="M281.859 196.53C282.944 196.12 283.495 194.872 283.11 193.695C281.597 189.054 278.781 178.456 277.932 178.727C276.848 179.076 266.929 185.565 266.929 185.565C266.929 185.565 264.524 179.233 260.413 181.841C257.256 183.847 254.597 189.229 253.53 191.628C253.188 192.386 252.655 193.014 251.964 193.442C249.016 195.282 241.04 200.769 242.457 205.531C244.18 211.358 246.288 209.945 247.372 209.596C248.299 209.291 274.469 199.338 281.859 196.521V196.53Z" fill="#FFB904"/>
<path d="M289.54 36.1725C289.54 36.1725 298.977 33.643 305.992 42.2173C313.015 50.7917 308.651 61.3461 297.525 61.0408C286.408 60.7355 283.819 49.4048 283.819 49.4048L289.531 36.1813L289.54 36.1725Z" fill="#0017BF"/>
<path d="M275.37 43.2304C275.37 43.2304 272.684 40.3868 273.358 35.8859C273.813 32.833 275.151 31.8212 275.151 31.8212C275.151 31.8212 272.999 27.7128 279.166 27.8436C285.323 27.9745 290.37 27.4511 293.116 32.737C294.734 35.851 294.087 42.6111 294.087 42.6111L275.37 43.2304Z" fill="#0017BF"/>
<path d="M288.979 48.0264L288.936 55.5191C288.936 55.5191 287.571 57.6649 283.172 57.9964C279.892 58.2406 278.869 56.5571 278.869 56.5571L279.7 50.0064L287.65 48.3142L288.979 48.0264Z" fill="#FFBB87"/>
<path d="M288.971 47.574C288.953 47.7746 288.874 48.0188 288.752 48.298C287.046 52.0313 281.116 53.5577 279.227 53.7147L279.699 50.0163L288.971 47.574Z" fill="black"/>
<path d="M278.116 32.9109C278.116 32.9109 274.119 42.2877 275.64 47.5126C277.162 52.7462 281.947 51.8739 284.807 50.8272C287.667 49.7892 288.979 48.0185 288.979 48.0185C288.979 48.0185 291.664 48.8995 293.431 46.3961C295.197 43.8927 294.069 41.0578 292.53 40.4124C290.99 39.7756 289.189 40.8921 289.189 40.8921L290.588 38.1619C290.588 38.1619 284.457 24.4325 278.116 32.8934V32.9109Z" fill="#FFBB87"/>
<path d="M289.19 40.9103C289.19 40.9103 285.184 41.8 282.298 37.3863C279.411 32.9726 279.639 31.1322 279.639 31.1322L276.945 35.7988C276.945 35.7988 276.263 32.615 277.505 30.5477C278.747 28.4805 280.085 28.8817 280.085 28.8817L289.006 30.9228L291.481 37.9707L289.199 40.9103H289.19Z" fill="#0017BF"/>
<path d="M279.087 44.7916C279.087 44.7916 279.157 44.7916 279.183 44.7742C279.35 44.7219 279.446 44.5387 279.385 44.373C278.816 42.6371 279.568 40.7443 279.577 40.7269C279.647 40.5612 279.568 40.378 279.402 40.3082C279.236 40.2384 279.052 40.3169 278.982 40.4827C278.947 40.5699 278.134 42.611 278.772 44.5649C278.816 44.6957 278.938 44.7829 279.078 44.7829L279.087 44.7916Z" fill="black"/>
<path d="M289.652 45.2967C289.74 45.2967 289.827 45.2618 289.888 45.192L292.39 42.4618C292.512 42.331 292.504 42.1304 292.372 42.0083C292.241 41.8861 292.04 41.8949 291.918 42.0257L289.416 44.7559C289.294 44.8867 289.302 45.0874 289.434 45.2095C289.495 45.2618 289.574 45.2967 289.652 45.2967Z" fill="black"/>
<path d="M292.338 44.5395C292.495 44.5395 292.635 44.4259 292.653 44.26C292.679 44.0854 292.556 43.9283 292.382 43.9021L290.615 43.6663C290.44 43.6489 290.282 43.7624 290.256 43.937C290.23 44.1116 290.352 44.2688 290.527 44.295L292.294 44.5307C292.294 44.5307 292.32 44.5307 292.338 44.5307V44.5395Z" fill="black"/>
<path d="M276.708 37.1841C276.708 37.1841 276.752 37.1841 276.769 37.1841L278.387 36.8701C278.562 36.8352 278.676 36.6694 278.641 36.495C278.606 36.3205 278.44 36.2159 278.265 36.242L276.647 36.556C276.472 36.5909 276.358 36.7567 276.393 36.9311C276.42 37.0794 276.559 37.1928 276.708 37.1928V37.1841Z" fill="black"/>
<path d="M282.883 37.5594C283.014 37.5594 283.137 37.4809 283.181 37.3501C283.242 37.1843 283.154 37.0012 282.997 36.9401L281.318 36.3121C281.151 36.251 280.968 36.3383 280.906 36.4953C280.845 36.661 280.933 36.8442 281.09 36.9052L282.769 37.5333C282.769 37.5333 282.839 37.5507 282.883 37.5507V37.5594Z" fill="black"/>
<path d="M277.609 41.0135C277.749 41.0135 277.88 40.9263 277.915 40.7868L278.405 39.0946C278.431 38.9899 278.405 38.8852 278.344 38.798L277.81 38.1787C277.696 38.0478 277.495 38.0304 277.364 38.1438C277.233 38.2572 277.215 38.4578 277.329 38.5887L277.749 39.0858L277.312 40.621C277.259 40.7868 277.364 40.9699 277.53 41.0135C277.557 41.0135 277.591 41.0223 277.618 41.0223L277.609 41.0135Z" fill="black"/>
<path d="M282.349 41.3809C282.489 41.3809 282.612 41.2936 282.655 41.1541L283.145 39.4619C283.172 39.3572 283.145 39.2438 283.075 39.1653L282.341 38.3454C282.227 38.2145 282.017 38.2058 281.886 38.3192C281.755 38.4326 281.746 38.6332 281.86 38.7728L282.472 39.4619L282.034 40.9883C281.982 41.1541 282.087 41.3372 282.253 41.3809C282.279 41.3809 282.314 41.3896 282.341 41.3896L282.349 41.3809Z" fill="black"/>
<path d="M280.224 47.4949C280.303 47.4949 280.382 47.4949 280.46 47.4774C281.501 47.303 282.079 46.0469 282.105 45.9946C282.157 45.8812 282.14 45.7591 282.061 45.6631C281.982 45.5672 281.86 45.5235 281.746 45.5497L278.877 46.1777C278.764 46.2039 278.676 46.2824 278.641 46.3958C278.606 46.5092 278.641 46.6226 278.711 46.7098C279.201 47.2419 279.708 47.5036 280.216 47.5036L280.224 47.4949ZM281.134 46.3348C280.924 46.579 280.662 46.7971 280.355 46.8494C280.128 46.893 279.892 46.8232 279.638 46.6575L281.134 46.3348Z" fill="black"/>
<path d="M275.903 102.517C275.903 102.517 246.9 104.148 239.361 109.975C231.821 115.801 231.401 176.799 231.401 176.799L255.061 179.486L255.279 119.77L275.903 102.517Z" fill="#E64218"/>
<path d="M290.903 55.9474C290.903 55.9474 290.072 53.034 289.653 53.034C289.102 53.034 286.058 54.4995 283.285 54.482C280.521 54.4646 280.04 53.601 279.218 53.7144C278.396 53.8278 278.09 55.9474 278.09 55.9474C278.09 55.9474 272.964 57.6483 267.008 59.0265C261.052 60.4047 251.693 58.5991 247.757 56.6888C243.821 54.7786 237.122 50.644 237.122 50.644L230.203 68.7784C230.203 68.7784 244.241 86.7035 257.116 86.8082C269.991 86.9128 285.516 84.3658 285.516 84.3658L290.895 55.9387L290.903 55.9474Z" fill="#0017BF"/>
<path d="M310.662 103.451C310.662 103.451 312.788 126.252 309.394 128.398C301.47 133.414 279.77 132.149 279.665 133.082C279.56 134.015 282.096 175.579 282.096 175.579L253.504 180.9C253.504 180.9 243 120.234 248.947 110.447C254.886 100.66 289.924 101.585 289.924 101.585L310.653 103.451H310.662Z" fill="#E64218"/>
<path d="M254.999 98.1212L270.883 96.5424L264.892 70.8105L249.008 72.3893L254.999 98.1212Z" fill="#FFB904"/>
<path d="M252.62 98.3563L268.495 96.7862L262.504 71.0457L246.629 72.6245L252.62 98.3563Z" fill="#F6F6F6"/>
<path d="M273.253 82.2554L272.659 101.777C272.659 101.777 285.21 105.274 294.673 106.129C304.137 106.975 310.627 106.129 310.627 106.129V98.6016L273.245 82.2641L273.253 82.2554Z" fill="#0017BF"/>
<path d="M275.3 84.7928C275.3 84.7928 273.402 80.8676 271.487 79.4895C269.571 78.1113 266.65 78.12 266.65 78.12L267.227 80.92C267.227 80.92 262.775 81.5044 262.023 80.92C261.271 80.3356 258.079 77.7885 257.23 78.0066C256.382 78.216 258.184 80.92 258.184 80.92C258.184 80.92 256.268 79.1667 255.63 80.2309C254.991 81.295 257.44 85.5343 257.44 85.5343C257.44 85.5343 255.21 83.31 255.953 86.8078C256.697 90.3055 263.169 93.6987 265.408 94.0214C267.647 94.3354 276.612 94.3703 276.612 94.3703L275.292 84.7928H275.3Z" fill="#FFBB87"/>
<path d="M267.227 81.2434C267.227 81.2434 267.271 81.2434 267.288 81.2434L269.632 80.7637C269.807 80.7288 269.912 80.5631 269.877 80.3886C269.842 80.2142 269.676 80.1095 269.501 80.1444L267.157 80.6241C266.982 80.659 266.877 80.8247 266.912 80.9992C266.947 81.1475 267.078 81.2522 267.227 81.2522V81.2434Z" fill="black"/>
<path d="M264.891 84.9054C265.057 84.9054 265.197 84.7746 265.206 84.6001C265.206 84.4257 265.075 84.2774 264.9 84.2687C264.882 84.2687 262.713 84.1553 261.515 83.5621C260.308 82.9603 258.445 80.7447 258.428 80.7273C258.314 80.5877 258.113 80.579 257.982 80.6924C257.85 80.8058 257.833 81.0064 257.938 81.1372C258.016 81.2332 259.914 83.4749 261.226 84.1378C262.547 84.8007 264.769 84.9054 264.865 84.9141C264.865 84.9141 264.874 84.9141 264.882 84.9141L264.891 84.9054Z" fill="black"/>
<path d="M264.358 88.9364C264.533 88.9364 264.673 88.7968 264.673 88.6223C264.673 88.4479 264.542 88.2996 264.358 88.2996C264.34 88.2996 262.556 88.2473 261.034 87.5146C259.058 86.5638 257.667 85.3165 257.649 85.3077C257.518 85.1943 257.317 85.2031 257.195 85.3339C257.081 85.4647 257.09 85.6654 257.221 85.7875C257.282 85.8398 258.69 87.0959 260.754 88.099C262.399 88.8927 264.262 88.9451 264.34 88.9538L264.358 88.9364Z" fill="black"/>
<path d="M215.589 6.44702H223.548V14.3846H215.589V6.44702Z" fill="#DC3C1E"/>
<path d="M205.032 3.60352L202.557 7.88633L200.082 12.1692H205.032H209.991L207.516 7.88633L205.032 3.60352Z" fill="#E64218"/>
<path d="M211.916 19.8973C208.863 19.8973 206.388 17.4291 206.388 14.3845C206.388 11.34 208.863 8.87183 211.916 8.87183C214.969 8.87183 217.443 11.34 217.443 14.3845C217.443 17.4291 214.969 19.8973 211.916 19.8973Z" fill="white"/>
<path d="M131.518 74.8575C131.518 75.7908 132.278 76.5497 133.214 76.5497C134.15 76.5497 134.911 75.7908 134.911 74.8575C134.911 73.9242 134.15 73.1653 133.214 73.1653C132.278 73.1653 131.518 73.9242 131.518 74.8575Z" fill="#E64218"/>
<path d="M133.214 98.3573C132.277 98.3573 131.518 97.5997 131.518 96.6651C131.518 95.7305 132.277 94.9729 133.214 94.9729C134.151 94.9729 134.911 95.7305 134.911 96.6651C134.911 97.5997 134.151 98.3573 133.214 98.3573Z" fill="#E64218"/>
<path d="M210.122 94.8946C210.122 95.8279 210.883 96.5868 211.819 96.5868C212.755 96.5868 213.516 95.8279 213.516 94.8946C213.516 93.9613 212.755 93.2024 211.819 93.2024C210.883 93.2024 210.122 93.9613 210.122 94.8946Z" fill="#E64218"/>
<path d="M117.462 108.239V109.757H223.066V108.239C223.066 105.081 220.18 102.526 216.62 102.526H123.899C120.357 102.526 117.471 105.081 117.471 108.239H117.462Z" fill="#EDEDED"/>
<path d="M252.699 174.514C252.699 174.514 252.734 174.514 252.76 174.514C252.935 174.479 253.049 174.313 253.014 174.139C252.927 173.659 244.04 125.929 247.819 115.95C251.562 106.085 274.784 105.832 275.02 105.823C275.177 105.823 275.317 105.701 275.335 105.544C275.352 105.387 275.256 105.239 275.099 105.195L269.65 103.782C269.484 103.738 269.309 103.843 269.265 104.009C269.221 104.174 269.326 104.349 269.492 104.401L272.816 105.265C266.79 105.579 250.46 107.21 247.233 115.723C243.384 125.868 252.026 172.29 252.393 174.261C252.419 174.409 252.559 174.523 252.708 174.523L252.699 174.514Z" fill="white"/>
<path d="M289.653 55.73C289.653 55.73 307.968 56.1574 318.498 76.8388C329.029 97.5289 317.965 108.136 300.096 105.798C282.227 103.46 273.244 97.8429 273.244 97.8429L275.291 80.3017L289.653 55.73Z" fill="#0017BF"/>
<path d="M300.822 83.0746C300.962 83.0746 301.093 82.9874 301.128 82.8478C301.18 82.6821 301.076 82.4989 300.909 82.4553C293.58 80.3619 278.475 80.3793 278.326 80.3706C278.151 80.3706 278.011 80.5102 278.011 80.6934C278.011 80.8678 278.151 81.0074 278.326 81.0074C278.973 81.0074 293.606 81.0335 300.734 83.0659C300.761 83.0659 300.796 83.0746 300.822 83.0746Z" fill="#FFB904"/>
<path d="M285.262 58.1017C288.175 58.1017 290.956 56.2874 291.078 56.2089C291.227 56.1129 291.262 55.9123 291.166 55.7727C291.07 55.6244 290.869 55.5896 290.72 55.6855C290.694 55.7029 287.676 57.6568 284.825 57.4562C284.65 57.43 284.492 57.5783 284.484 57.7528C284.475 57.9272 284.606 58.0842 284.781 58.093C284.938 58.1017 285.096 58.1104 285.253 58.1104L285.262 58.1017Z" fill="#FFB904"/>
<path d="M257.833 65.847C258.026 65.847 258.21 65.7947 258.376 65.6813C259.801 64.7829 260.221 59.9941 260.265 59.4533C260.274 59.3138 260.195 59.1829 260.064 59.1306C259.933 59.0782 259.784 59.1219 259.696 59.2265C259.355 59.6539 256.382 63.4745 256.828 65.0882C256.915 65.4109 257.134 65.6464 257.449 65.7685C257.58 65.8209 257.702 65.8383 257.825 65.8383L257.833 65.847ZM259.513 60.5436C259.268 62.4103 258.761 64.6956 258.043 65.1405C257.93 65.219 257.816 65.2277 257.685 65.1754C257.554 65.123 257.484 65.0445 257.449 64.9137C257.23 64.1112 258.411 62.0788 259.513 60.5349V60.5436Z" fill="#FFB904"/>
<path d="M299.79 82.3943C302.58 82.3943 305.956 82.1762 306.437 81.1382C306.542 80.9115 306.586 80.5364 306.157 80.0828C303.892 77.6405 296.746 81.5482 296.449 81.7139C296.326 81.7837 296.265 81.9233 296.291 82.0628C296.318 82.2024 296.44 82.2984 296.589 82.3071C297.271 82.342 298.469 82.3943 299.79 82.3943ZM303.892 79.9083C304.653 79.9083 305.291 80.0828 305.694 80.5189C305.773 80.6062 305.912 80.7719 305.86 80.8766C305.528 81.5744 301.644 81.8448 297.822 81.7314C299.51 80.9202 302.055 79.9171 303.892 79.9171V79.9083Z" fill="#FFB904"/>
<path d="M279.673 133.395C279.752 133.395 279.83 133.369 279.892 133.308C279.997 133.212 280.023 133.064 279.962 132.933C279.306 131.625 277.084 127.377 275.737 127.377C275.501 127.377 275.195 127.49 275.002 127.944C274.067 130.194 278.956 133.038 279.516 133.352C279.568 133.378 279.621 133.395 279.673 133.395ZM275.746 128.013C276.306 128.013 277.688 130.028 278.86 132.192C277.303 131.154 275.107 129.365 275.597 128.188C275.623 128.118 275.676 128.013 275.737 128.013H275.746Z" fill="white"/>
<path d="M291.454 102.841C291.603 102.841 291.743 102.736 291.769 102.579C291.804 102.405 291.69 102.239 291.515 102.204C291.428 102.186 282.297 100.451 275.186 96.2987C275.028 96.2115 274.836 96.2638 274.749 96.4121C274.661 96.5603 274.714 96.761 274.862 96.8482C282.069 101.061 291.306 102.814 291.402 102.832C291.419 102.832 291.445 102.832 291.463 102.832L291.454 102.841Z" fill="#FFB904"/>
<path d="M143.85 68.0012H122.587C120.824 68.0012 119.395 66.5758 119.395 64.8175V43.6127C119.395 41.8544 120.824 40.4289 122.587 40.4289H143.85C145.613 40.4289 147.042 41.8544 147.042 43.6127V64.8175C147.042 66.5758 145.613 68.0012 143.85 68.0012Z" fill="#5EF939"/>
<path d="M142.896 56.7757L141.917 59.1134L143.141 60.2735C142.232 61.7563 140.99 63.0211 139.529 63.9632L138.164 62.6722L135.838 63.6579L135.917 65.5071C135.051 65.7077 134.15 65.8211 133.223 65.8211C132.383 65.8211 131.561 65.7339 130.765 65.5594V63.5706L128.447 62.5675L127.022 64.0329C125.552 63.1083 124.31 61.8697 123.383 60.413L124.747 59.1221L123.768 56.7844L121.87 56.767C121.686 55.947 121.59 55.0922 121.59 54.2112C121.59 53.2866 121.695 52.3882 121.905 51.5247L123.768 51.5072L124.747 49.1695L123.444 47.9309C124.38 46.483 125.64 45.2531 127.109 44.3459L128.447 45.7241L130.765 44.721V42.8718C131.561 42.6973 132.383 42.6101 133.223 42.6101C134.15 42.6101 135.051 42.7148 135.917 42.9241L135.847 44.6338L138.173 45.6194L139.45 44.407C140.92 45.3403 142.17 46.5876 143.097 48.0618L141.925 49.1695L142.905 51.4985L144.549 51.5159C144.751 52.3795 144.864 53.2779 144.864 54.2025C144.864 55.0748 144.768 55.9296 144.584 56.7495L142.914 56.767L142.896 56.7757ZM138.864 54.2112C138.864 51.0972 136.336 48.5764 133.214 48.5764C130.092 48.5764 127.564 51.0972 127.564 54.2112C127.564 57.3252 130.092 59.8461 133.214 59.8461C136.336 59.8461 138.864 57.3252 138.864 54.2112Z" fill="white"/>
<ellipse cx="123.749" cy="115.521" rx="1.15155" ry="1.1504" fill="#1D166C"/>
<ellipse cx="123.749" cy="120.932" rx="1.15155" ry="1.1504" fill="#1D166C"/>
<ellipse cx="123.749" cy="126.343" rx="1.15155" ry="1.1504" fill="#1D166C"/>
<ellipse cx="123.749" cy="131.753" rx="1.15155" ry="1.1504" fill="#1D166C"/>
<ellipse cx="123.749" cy="137.164" rx="1.15155" ry="1.1504" fill="#1D166C"/>
<ellipse cx="123.749" cy="142.574" rx="1.15155" ry="1.1504" fill="#1D166C"/>
<ellipse cx="123.749" cy="147.985" rx="1.15155" ry="1.1504" fill="#1D166C"/>
<ellipse cx="123.749" cy="153.396" rx="1.15155" ry="1.1504" fill="#1D166C"/>
<ellipse cx="123.749" cy="158.807" rx="1.15155" ry="1.1504" fill="#1D166C"/>
</svg>
