<svg width="980" height="260" viewBox="0 0 980 260" fill="none" xmlns="http://www.w3.org/2000/svg">
<path d="M980 0H0V260H980V0Z" fill="black"/>
<mask id="mask0_1455_34914" style="mask-type:alpha" maskUnits="userSpaceOnUse" x="480" y="0" width="500" height="260">
<path d="M980 0H480V260H980V0Z" fill="black"/>
</mask>
<g mask="url(#mask0_1455_34914)">
<path d="M703.489 158.478C703.489 158.478 711.673 162.754 712.81 170.611C713.946 178.468 707.047 179.859 707.047 179.859L689.952 171.501L703.489 158.478Z" fill="#FFBB87"/>
<path d="M585.588 97.0023C585.588 97.0023 575.495 93.1821 570.608 88.6892C565.72 84.1962 565.55 83.1699 565.902 80.5129C566.05 79.3954 564.652 77.2287 566.152 75.2559C567.652 73.2832 573.301 76.67 573.301 76.67C573.301 76.67 570.858 72.8042 572.835 71.9832C574.824 71.1621 580.917 76.8296 580.917 76.8296C580.917 76.8296 578.769 71.1393 580.292 70.4779C581.815 69.8279 588.771 73.4884 589.851 76.2366C590.93 78.9849 591.101 88.6322 591.101 88.6322L585.588 97.0137V97.0023Z" fill="#FFBB87"/>
<path d="M614.628 168.889C614.628 168.889 601.364 206.544 598.181 232.144C594.999 257.756 609.559 298.797 609.559 298.797L650.83 297.109C650.83 297.109 641.93 256.274 640.179 243.833C638.747 230.114 644.51 170.417 644.51 170.417L614.628 168.889Z" fill="#FFB700"/>
<path d="M662.606 166.825C662.606 166.825 671.289 199.884 687.577 227.309C703.865 254.734 711.503 262.477 711.503 262.477L679.848 291.385C679.848 291.385 641.612 251.028 636.236 222.942C630.871 194.855 630.53 169.528 630.53 169.528L662.594 166.825H662.606Z" fill="#FFB700"/>
<path d="M661.23 188.709C654.99 188.709 651.933 182.414 651.899 182.334C651.796 182.129 651.899 181.878 652.092 181.775C652.297 181.673 652.547 181.775 652.649 181.969C652.797 182.288 656.457 189.769 664.083 187.409C664.311 187.34 664.538 187.466 664.606 187.682C664.674 187.899 664.549 188.138 664.333 188.207C663.219 188.549 662.185 188.697 661.23 188.697V188.709Z" fill="#0002BB"/>
<path d="M678.382 225.907C678.097 225.907 677.836 225.815 677.597 225.656C676.813 225.097 676.711 224.493 676.756 224.082C677.029 222.007 682.064 220.068 682.644 219.851C682.803 219.794 682.985 219.84 683.098 219.965C683.212 220.091 683.235 220.273 683.167 220.422C682.928 220.923 680.734 225.359 678.779 225.861C678.654 225.895 678.518 225.907 678.393 225.907H678.382ZM681.894 221.049C679.996 221.881 677.711 223.181 677.586 224.185C677.575 224.287 677.529 224.595 678.075 224.972C678.222 225.074 678.37 225.097 678.563 225.051C679.632 224.778 681.053 222.577 681.894 221.049Z" fill="#0002BB"/>
<path d="M678.722 281.27C678.609 281.27 678.495 281.225 678.415 281.133C678.268 280.962 678.279 280.7 678.45 280.552L705.933 256.434C706.103 256.285 706.365 256.297 706.513 256.468C706.66 256.639 706.649 256.901 706.478 257.049L678.995 281.168C678.916 281.236 678.813 281.27 678.722 281.27Z" fill="#0002BB"/>
<path d="M639.396 234.87C639.248 234.87 639.101 234.79 639.021 234.641C633.827 224.139 630.701 196.052 630.349 192.722L618.38 189.438C618.164 189.381 618.028 189.153 618.096 188.925C618.153 188.708 618.38 188.572 618.607 188.64L630.849 192.004C631.008 192.05 631.133 192.187 631.156 192.358C631.19 192.665 634.429 223.477 639.771 234.277C639.873 234.482 639.794 234.733 639.578 234.835C639.521 234.87 639.453 234.881 639.396 234.881V234.87Z" fill="#0002BB"/>
<path d="M592.499 80.7183C592.499 80.7183 600.478 99.4427 609.127 106.114C617.777 112.785 628.166 114.324 630.939 114.039C633.712 113.743 642.362 114.552 647.886 114.849C669.709 116.023 666.629 151.534 666.322 157.144C666.106 161.078 665.765 166.449 665.572 169.289C665.492 170.429 664.628 171.353 663.492 171.478C658.945 171.991 647.181 173.189 636.008 173.337C625.086 173.474 617.027 172.847 613.867 172.55C613.026 172.47 612.378 171.786 612.344 170.942C612.276 169.232 611.48 165.081 611.264 160.109C610.935 152.275 610.003 142.821 610.003 142.821C610.003 142.821 594.726 143.631 582.474 125.511C572.187 110.299 574.767 93.2849 574.767 93.2849L592.499 80.7183Z" fill="#0002BB"/>
<path d="M601.501 110.743C601.217 110.743 600.842 110.641 600.546 110.185C600.307 109.808 600.262 109.386 600.387 108.919C601.012 106.661 606.127 104.004 606.718 103.707C606.877 103.628 607.082 103.662 607.207 103.787C607.332 103.924 607.354 104.118 607.264 104.278C606.638 105.35 603.445 110.698 601.524 110.732C601.524 110.732 601.512 110.732 601.501 110.732V110.743ZM605.729 105.201C603.945 106.25 601.524 107.904 601.183 109.147C601.114 109.375 601.137 109.569 601.251 109.74C601.353 109.899 601.455 109.911 601.501 109.911C602.387 109.899 604.286 107.459 605.729 105.201Z" fill="white"/>
<path d="M633.428 91.7682C633.428 91.7682 626.859 85.6673 630.359 81.2656C633.871 76.8639 640.339 82.0639 640.339 82.0639C640.339 82.0639 643.18 79.5893 646.783 82.0183C650.375 84.4472 650.432 89.727 650.432 89.727C650.432 89.727 654.262 89.9208 654.137 94.5962C654.024 99.2716 648.716 103.069 648.716 103.069L633.428 91.7682Z" fill="#0002BB"/>
<path d="M644.862 104.597L644.328 114.883C644.328 114.883 642.498 117.722 637.065 117.814C633.008 117.882 631.644 116.764 631.644 116.764L632.496 112.214L633.292 106.547L643.192 104.871L644.851 104.586L644.862 104.597Z" fill="#FFBB87"/>
<path d="M643.238 106.114C643.204 106.364 643.079 106.661 642.908 106.992C640.555 111.496 634.827 112.146 632.485 112.214L633.247 106.969L643.238 106.114Z" fill="black"/>
<path d="M632.951 86.7051C632.951 86.7051 627.609 97.5726 629.052 103.879C630.496 110.185 636.202 109.478 639.645 108.429C643.089 107.38 644.749 105.373 644.749 105.373C644.749 105.373 647.863 106.593 650.114 103.742C652.364 100.891 651.216 97.4472 649.454 96.5805C647.681 95.7252 645.476 96.9226 645.476 96.9226L647.306 93.7753C647.306 93.7753 640.987 77.0693 632.939 86.6937L632.951 86.7051Z" fill="#FFBB87"/>
<path d="M645.533 101.815C645.397 101.815 645.26 101.746 645.181 101.621C645.056 101.427 645.113 101.165 645.306 101.051L649.477 98.4164C649.67 98.291 649.932 98.348 650.045 98.5418C650.17 98.7357 650.114 98.998 649.92 99.112L645.749 101.746C645.681 101.792 645.601 101.815 645.533 101.815Z" fill="black"/>
<path d="M649.182 101.997C649.182 101.997 649.091 101.997 649.057 101.974L646.465 101.13C646.249 101.062 646.124 100.823 646.204 100.606C646.272 100.389 646.511 100.264 646.727 100.344L649.318 101.187C649.534 101.256 649.659 101.495 649.58 101.712C649.523 101.883 649.364 101.997 649.182 101.997Z" fill="black"/>
<path d="M640.112 91.9277C640.032 91.9277 639.964 91.9049 639.885 91.8593C638.509 90.9812 637.123 90.9242 637.111 90.9242C636.884 90.9242 636.702 90.7189 636.713 90.4909C636.713 90.2628 636.907 90.069 637.145 90.0918C637.214 90.0918 638.771 90.1602 640.339 91.1637C640.532 91.2891 640.589 91.54 640.464 91.7339C640.385 91.8593 640.248 91.9277 640.112 91.9277Z" fill="black"/>
<path d="M631.542 90.9699C631.348 90.9699 631.189 90.8444 631.144 90.6506C631.087 90.4225 631.223 90.2058 631.451 90.1488C632.485 89.8979 633.36 90.069 633.394 90.0804C633.622 90.126 633.758 90.3427 633.712 90.5707C633.667 90.7988 633.451 90.947 633.224 90.89C633.224 90.89 632.485 90.7418 631.644 90.947C631.61 90.947 631.576 90.9584 631.553 90.9584L631.542 90.9699Z" fill="black"/>
<path d="M632.496 100.503C632.303 100.503 632.133 100.378 632.087 100.184C631.223 96.4434 633.906 94.482 634.019 94.4022C634.201 94.2654 634.463 94.311 634.599 94.5048C634.735 94.6873 634.69 94.9496 634.508 95.0864C634.417 95.1548 632.167 96.8197 632.905 100.001C632.951 100.229 632.815 100.446 632.599 100.503C632.564 100.503 632.542 100.503 632.508 100.503H632.496Z" fill="black"/>
<path d="M631.314 95.2461C631.314 95.2461 631.223 95.2461 631.178 95.2233C630.962 95.1549 630.848 94.9154 630.916 94.6988L631.598 92.6918C631.666 92.4751 631.905 92.3611 632.121 92.4295C632.337 92.4979 632.451 92.7374 632.382 92.954L631.7 94.961C631.644 95.1321 631.485 95.2461 631.303 95.2461H631.314Z" fill="black"/>
<path d="M636.918 95.7023C636.918 95.7023 636.827 95.7023 636.781 95.6795C636.565 95.611 636.452 95.3716 636.52 95.1549L637.202 93.1479C637.281 92.9312 637.509 92.8172 637.725 92.8856C637.941 92.954 638.054 93.1935 637.986 93.4102L637.304 95.4172C637.247 95.5882 637.088 95.7023 636.906 95.7023H636.918Z" fill="black"/>
<path d="M631.859 89.1568C631.859 89.1568 632.928 87.4235 635.144 87.5489C637.361 87.6743 638.554 89.3164 638.554 89.3164C638.554 89.3164 637.349 92.9883 640.236 95.1664C643.123 97.3444 645.487 96.9339 645.487 96.9339L647.715 96.2953L649.511 93.1936L643.623 85.9752L635.724 81.1402L631.325 84.6752L631.859 89.1682V89.1568Z" fill="#0002BB"/>
<path d="M634.315 104.358C634.315 104.358 634.258 104.358 634.235 104.358C632.951 104.278 632.167 103.012 632.144 102.955C632.076 102.841 632.065 102.693 632.121 102.567C632.178 102.442 632.303 102.351 632.44 102.328L635.861 101.826C636.009 101.803 636.145 101.86 636.236 101.963C636.327 102.077 636.361 102.225 636.315 102.362C636.293 102.442 635.656 104.358 634.326 104.358H634.315ZM633.281 103.035C633.531 103.263 633.872 103.491 634.281 103.525C634.667 103.559 634.986 103.149 635.213 102.75L633.281 103.035Z" fill="black"/>
<path d="M637.179 118.258C634.065 118.258 631.508 117.163 631.462 117.141C631.258 117.049 631.155 116.798 631.246 116.593C631.337 116.388 631.587 116.285 631.792 116.377C631.871 116.411 639.419 119.649 643.999 114.598C644.147 114.427 644.42 114.415 644.579 114.575C644.749 114.734 644.761 114.997 644.602 115.168C642.408 117.585 639.612 118.27 637.157 118.27L637.179 118.258Z" fill="white"/>
<path d="M610.014 143.232C609.787 143.232 609.594 143.049 609.594 142.821V136.971C609.594 136.743 609.776 136.561 610.014 136.561C610.253 136.561 610.435 136.743 610.435 136.971V142.821C610.435 143.049 610.253 143.232 610.014 143.232Z" fill="white"/>
<path d="M652.273 115.635C652.273 115.635 669.175 120.505 685.122 132.672C701.068 144.84 705.547 158.49 705.547 158.49L687.804 174.203C687.804 174.203 670.948 158.387 662.23 154.179C653.512 149.971 652.273 115.647 652.273 115.647V115.635Z" fill="#0002BB"/>
<path d="M666.356 156.996C666.356 156.996 666.311 156.996 666.288 156.996C666.106 156.973 665.97 156.825 665.947 156.642C665.788 155.49 665.095 149.675 666.527 148.489C666.732 148.318 667.095 148.135 667.607 148.306C668.005 148.443 668.311 148.728 668.482 149.139C669.346 151.169 667.004 156.197 666.732 156.768C666.663 156.916 666.516 157.007 666.356 157.007V156.996ZM667.209 149.059C667.141 149.059 667.095 149.082 667.061 149.116C666.413 149.652 666.391 152.491 666.607 154.977C667.334 153.153 668.186 150.541 667.72 149.458C667.641 149.264 667.516 149.15 667.345 149.082C667.288 149.059 667.243 149.059 667.209 149.059Z" fill="white"/>
<path d="M587.569 67.0833L535.96 30L498.998 81.7784L550.607 118.862L587.569 67.0833Z" fill="#4EFD62"/>
<path d="M589.236 73.933C589.236 73.933 581.792 64.7533 578.768 66.2699C575.745 67.7866 584.61 81.4479 584.61 81.4479C584.61 81.4479 591.987 79.9769 589.225 73.933H589.236Z" fill="#FFBB87"/>
<path d="M880.415 158.478C880.415 158.478 888.099 162.013 890.372 164.431C892.645 166.848 892.27 168.867 892.27 168.867L887.223 171.022L880.415 158.489V158.478Z" fill="#FFBB87"/>
<path d="M939.196 198.212C939.196 177.335 922.272 160.387 901.396 160.357C880.519 160.327 863.596 177.226 863.596 198.103C863.596 218.979 880.519 235.927 901.396 235.957C922.272 235.987 939.196 219.088 939.196 198.212Z" fill="#FFB700"/>
<path d="M767.197 171.809L736.008 185.174L704.808 198.538L708.865 164.75L712.934 130.962L740.065 151.385L767.197 171.809Z" fill="#1C34ED"/>
<path d="M831.665 113.845C831.665 113.845 858.694 140.883 866.105 146.79L873.516 152.697C873.516 152.697 882.688 159.961 884.575 163.473C886.462 166.985 876.607 164.716 876.607 164.716L867.548 167.92C867.548 167.92 826.05 152.537 821.152 125.978C816.253 99.4198 831.654 113.845 831.654 113.845H831.665Z" fill="#FFBB87"/>
<path d="M879.256 157.737C879.256 157.737 884.268 162.446 886.189 165.445C888.11 168.445 892.645 178.229 890.145 180.578C888.917 181.73 886.201 176.758 886.201 176.758C886.201 176.758 889.497 182.22 887.871 184.74C886.769 186.451 883.802 180.977 883.802 180.977C883.802 180.977 885.928 187.648 881.461 184.637C876.994 181.627 873.766 176.142 868.788 173.747C863.809 171.352 864.389 166.346 864.389 166.346L879.256 157.725V157.737Z" fill="#FFBB87"/>
<path d="M887.405 179.095C887.212 179.095 887.03 178.959 886.996 178.753C885.996 173.086 881.086 169.733 881.04 169.699C880.847 169.573 880.801 169.311 880.926 169.117C881.051 168.923 881.313 168.878 881.506 169.003C881.722 169.152 886.769 172.595 887.826 178.605C887.871 178.833 887.712 179.05 887.485 179.084C887.462 179.084 887.439 179.084 887.416 179.084L887.405 179.095Z" fill="black"/>
<path d="M884.143 182.129C883.984 182.129 883.836 182.037 883.768 181.889C883.745 181.832 881.143 176.165 878.199 174.477C878.006 174.363 877.926 174.112 878.04 173.907C878.153 173.701 878.415 173.633 878.608 173.747C881.791 175.572 884.416 181.296 884.53 181.536C884.621 181.741 884.53 181.992 884.325 182.083C884.268 182.106 884.211 182.117 884.155 182.117L884.143 182.129Z" fill="black"/>
<path d="M833.654 86.4312C833.654 86.4312 851.181 82.9303 857.785 100.309C863.672 115.806 856.466 138.419 843.224 137.929C829.983 137.45 822.788 131.497 822.788 131.497V90.4224L833.654 86.4312Z" fill="#0002BB"/>
<path d="M813.457 95.1091C813.457 95.1091 805.716 88.1302 817.753 81.254C829.79 74.3777 838.564 83.8084 838.667 88.8601C838.769 93.9232 835.893 96.2609 835.893 96.2609C835.893 96.2609 837.019 107.231 826.516 106.467C816.014 105.714 813.457 95.0863 813.457 95.0863V95.1091Z" fill="#0002BB"/>
<path d="M827.517 104.722L827.733 113.583C827.733 113.583 826.21 116.171 821.05 116.719C817.208 117.129 815.833 116.285 815.833 116.285L816.254 111.781L816.674 107.391L825.949 105.099L827.506 104.711L827.517 104.722Z" fill="#FFBB87"/>
<path d="M827.494 104.3C827.483 104.54 827.392 104.836 827.256 105.167C825.392 109.637 818.481 111.542 816.265 111.792L816.685 107.402L827.494 104.3Z" fill="black"/>
<path d="M814.219 87.2636C814.219 87.2636 809.866 98.4846 811.843 104.608C813.821 110.732 819.413 109.534 822.732 108.189C826.051 106.855 827.529 104.722 827.529 104.722C827.529 104.722 830.711 105.669 832.7 102.647C834.689 99.6249 833.257 96.3065 831.427 95.6109C829.597 94.9153 827.517 96.2951 827.517 96.2951L829.063 93.0223C829.063 93.0223 821.368 77.0233 814.219 87.2522V87.2636Z" fill="#FFBB87"/>
<path d="M813.514 101.735C813.31 101.735 813.139 101.586 813.105 101.381C812.491 97.618 813.957 95.6224 814.014 95.5426C814.151 95.3601 814.412 95.3259 814.594 95.4628C814.776 95.5996 814.81 95.8619 814.673 96.0443C814.662 96.0672 813.355 97.8689 813.912 101.256C813.946 101.484 813.798 101.7 813.571 101.735C813.548 101.735 813.525 101.735 813.503 101.735H813.514Z" fill="black"/>
<path d="M827.755 100.845C827.608 100.845 827.46 100.765 827.392 100.628C827.289 100.423 827.358 100.172 827.562 100.07L831.859 97.7775C832.063 97.6749 832.313 97.7433 832.416 97.9486C832.518 98.1538 832.45 98.4047 832.245 98.5074L827.949 100.799C827.892 100.834 827.824 100.845 827.755 100.845Z" fill="black"/>
<path d="M831.768 101.621C831.677 101.621 831.575 101.586 831.495 101.518L829.427 99.7048C829.256 99.5565 829.233 99.2943 829.381 99.1232C829.529 98.9522 829.79 98.9294 829.972 99.0776L832.041 100.891C832.211 101.039 832.234 101.301 832.086 101.472C832.007 101.564 831.893 101.609 831.768 101.609V101.621Z" fill="black"/>
<path d="M812.491 92.8171C812.491 92.8171 812.696 90.0803 814.776 87.7426C816.992 85.2566 818.868 85.6672 818.868 85.6672C818.868 85.6672 815.594 92.8513 821.095 95.3829C825.005 97.1846 827.517 96.3066 827.517 96.3066L833.121 90.7303L821.982 81.6532C821.982 81.6532 811.821 80.2277 812.503 92.8285L812.491 92.8171Z" fill="#0002BB"/>
<path d="M816.276 104.015C816.106 104.015 815.947 103.913 815.89 103.73C815.81 103.514 815.924 103.274 816.14 103.206C816.14 103.206 817.242 102.807 817.947 101.621C818.061 101.427 818.322 101.358 818.515 101.472C818.708 101.586 818.777 101.849 818.663 102.043C817.799 103.502 816.469 103.97 816.413 103.993C816.367 104.004 816.322 104.015 816.276 104.015Z" fill="black"/>
<path d="M817.412 97.0592C817.412 97.0592 817.355 97.0592 817.321 97.0592C817.094 97.0136 816.958 96.7855 817.003 96.5575L817.412 94.7557L816.878 93.9005C816.753 93.7066 816.81 93.4443 817.003 93.3303C817.196 93.2049 817.458 93.2619 817.571 93.4557L818.196 94.4592C818.253 94.5505 818.276 94.6645 818.253 94.7785L817.81 96.7513C817.765 96.9452 817.594 97.0706 817.401 97.0706L817.412 97.0592Z" fill="black"/>
<path d="M811.912 97.0135C811.912 97.0135 811.855 97.0135 811.821 97.0135C811.593 96.9679 811.457 96.7398 811.514 96.5118L811.923 94.71L811.389 93.8548C811.264 93.6609 811.321 93.3986 811.514 93.2846C811.707 93.1592 811.968 93.2162 812.082 93.41L812.707 94.4135C812.764 94.5048 812.787 94.6188 812.764 94.7328L812.321 96.7056C812.275 96.8995 812.105 97.0249 811.912 97.0249V97.0135Z" fill="black"/>
<path d="M812.844 91.8936C812.65 91.8936 812.48 91.7567 812.434 91.5629C812.389 91.3348 812.525 91.1181 812.753 91.0725L813.969 90.8103C814.208 90.7646 814.412 90.9015 814.458 91.1295C814.503 91.3576 814.367 91.5743 814.139 91.6199L812.923 91.8822C812.923 91.8822 812.866 91.8822 812.832 91.8822L812.844 91.8936Z" fill="black"/>
<path d="M819.128 92.3952C819.128 92.3952 819.038 92.3952 818.992 92.3724L816.435 91.4715C816.219 91.3917 816.105 91.1636 816.185 90.947C816.264 90.7303 816.491 90.6163 816.707 90.6961L819.265 91.5969C819.481 91.6768 819.594 91.9048 819.515 92.1215C819.458 92.2926 819.299 92.3952 819.128 92.3952Z" fill="black"/>
<path d="M758.172 152.297C758.172 152.297 752.523 147.177 748.454 147.257C744.373 147.337 740.691 149.869 739.145 150.701L742.68 153.358C743.248 153.392 744.044 153.472 744.044 153.472C744.669 154.51 743.396 157.19 739.327 159.949C735.258 162.72 730.279 164.054 732.018 164.944C733.757 165.833 734.951 165.947 734.951 165.947C734.951 165.947 732.575 165.423 735.86 167.84C737.508 169.049 739.702 168.479 739.702 168.479C739.702 168.479 740.236 170.6 744.953 170.417C749.67 170.246 757.251 165.639 757.251 165.639C757.251 165.639 780.882 170.201 794.464 161.557C808.047 152.913 808.32 140.005 808.32 140.005L789.406 130.962C789.406 130.962 779.87 142.81 758.183 152.297H758.172Z" fill="#FFBB87"/>
<path d="M734.121 166.187C733.916 166.187 733.734 166.039 733.712 165.822C733.678 165.594 733.837 165.389 734.064 165.354C734.121 165.354 739.793 164.568 742.395 162.218C742.566 162.07 742.827 162.082 742.986 162.253C743.134 162.424 743.123 162.686 742.952 162.846C740.156 165.366 734.416 166.153 734.178 166.187C734.155 166.187 734.144 166.187 734.121 166.187Z" fill="black"/>
<path d="M739.69 168.878C739.463 168.878 739.281 168.695 739.281 168.467C739.281 168.239 739.452 168.045 739.679 168.045C739.702 168.045 742.418 167.931 745.237 165.183C745.396 165.024 745.658 165.024 745.828 165.183C745.987 165.343 745.987 165.617 745.828 165.776C742.759 168.764 739.838 168.867 739.713 168.878H739.69Z" fill="black"/>
<path d="M810.16 168.08C810.16 168.08 790.258 194.992 773.902 224.88C757.546 254.768 748.465 292.149 748.465 292.149L790.338 294.749L820.788 220.9L811.831 293.768L852.318 292.343C852.318 292.343 861.081 224.698 856.409 192.791C851.738 160.884 846.259 154.168 846.259 154.168L810.16 168.08Z" fill="#0002BB"/>
<path d="M787.213 131.988C787.213 131.988 803.148 114.096 822.391 112.933C841.634 111.77 848.113 121.063 849.045 125.477C849.966 129.89 851.591 161.488 850.432 163.575C849.272 165.662 841.373 169.38 828.54 170.315C815.697 171.25 808.979 169.619 808.058 168.924C807.138 168.228 805.978 158.467 805.978 158.467L796.931 162.515L787.224 131.976L787.213 131.988Z" fill="#E24E1B"/>
<path d="M805.978 158.9C805.978 158.9 805.933 158.9 805.91 158.9C805.717 158.866 805.581 158.706 805.569 158.512C805.444 156.608 805.16 150.336 806.513 149.549C806.683 149.458 807.024 149.333 807.445 149.618C809.479 150.975 806.899 157.372 806.365 158.649C806.297 158.809 806.149 158.9 805.978 158.9ZM806.979 150.313C806.479 150.507 806.217 153.21 806.297 156.482C807.217 153.848 807.842 150.895 806.979 150.313Z" fill="white"/>
<path d="M820.595 221.322C820.527 221.322 820.447 221.299 820.39 221.265C820.197 221.151 820.129 220.9 820.243 220.695C820.299 220.592 826.267 210.535 841.668 204.662C841.884 204.582 842.123 204.685 842.202 204.901C842.282 205.118 842.179 205.358 841.963 205.437C826.846 211.207 821.016 221.014 820.959 221.117C820.879 221.254 820.743 221.322 820.595 221.322Z" fill="white"/>
<path d="M827.529 104.722C827.529 104.722 814.969 134.326 836.156 138.841C857.354 143.357 860.332 120.425 858.661 110.561C856.99 100.686 838.679 97.0935 838.679 97.0935C838.679 97.0935 838.781 105.863 827.529 104.734V104.722Z" fill="#0002BB"/>
<path d="M831.074 81.5962C831.074 81.5962 833.666 68.4708 841.815 72.1199C849.965 75.769 841.815 89.054 841.815 89.054H834.12L831.074 81.5962Z" fill="#0002BB"/>
<path d="M809.354 185.938C809.195 185.938 809.047 185.846 808.979 185.687C805.546 177.898 811.445 173.884 811.502 173.85C811.695 173.725 811.945 173.782 812.07 173.964C812.195 174.158 812.139 174.409 811.957 174.546C811.741 174.694 806.592 178.218 809.729 185.356C809.82 185.561 809.729 185.812 809.513 185.903C809.456 185.926 809.399 185.938 809.343 185.938H809.354Z" fill="white"/>
<path d="M584.747 85.6216C584.679 85.6216 584.611 85.6102 584.543 85.5646C579.257 82.5997 581.406 76.1567 581.428 76.0883C581.508 75.8717 581.735 75.7576 581.951 75.826C582.167 75.9059 582.281 76.1339 582.213 76.3506C582.133 76.5901 580.269 82.2006 584.941 84.8233C585.145 84.9374 585.213 85.1883 585.1 85.3935C585.02 85.5304 584.884 85.6102 584.736 85.6102L584.747 85.6216Z" fill="black"/>
<path d="M696.579 170.908C696.579 170.908 705.251 179.426 706.41 179.723C707.57 180.019 714.719 183.315 715.628 181.912C717.061 179.723 710.991 175.15 710.991 175.15C710.991 175.15 708.991 165.115 703.41 166.187C697.829 167.27 696.567 170.896 696.567 170.896L696.579 170.908Z" fill="#FFBB87"/>
<path d="M707.695 167.396C707.592 167.396 707.49 167.361 707.411 167.282C707.376 167.247 703.807 163.906 701.443 165.115C701.25 165.217 700.989 165.138 700.886 164.932C700.784 164.727 700.864 164.476 701.068 164.374C703.955 162.891 707.82 166.517 707.979 166.677C708.149 166.837 708.149 167.099 707.99 167.27C707.911 167.361 707.797 167.396 707.695 167.396Z" fill="black"/>
</g>
</svg>
