<svg width="280" height="400" viewBox="0 0 280 400" fill="none" xmlns="http://www.w3.org/2000/svg">
<path d="M280 0H0V400H280V0Z" fill="black"/>
<mask id="mask0_1455_34493" style="mask-type:alpha" maskUnits="userSpaceOnUse" x="0" y="220" width="280" height="180">
<path d="M280 220H0V400H280V220Z" fill="black"/>
</mask>
<g mask="url(#mask0_1455_34493)">
<path d="M29.5515 316.292C29.4745 316.292 29.4052 316.261 29.3513 316.205C29.2974 316.15 29.2666 316.079 29.2666 316.001V251.828C29.2666 251.67 29.3898 251.544 29.5438 251.544C29.6977 251.544 29.8209 251.67 29.8209 251.828V315.717L98.4411 315.67V264.581C98.4411 264.424 98.5643 264.297 98.7182 264.297C98.8722 264.297 98.9954 264.424 98.9954 264.581V315.953C98.9954 316.111 98.8722 316.237 98.7182 316.245L29.5361 316.292H29.5515Z" fill="#E64218"/>
<path d="M100.525 277.575C100.525 278.397 99.8555 279.064 99.0328 279.064C98.21 279.064 97.541 278.397 97.541 277.575C97.541 276.754 98.21 276.086 99.0328 276.086C99.8555 276.086 100.525 276.754 100.525 277.575Z" fill="#E64218"/>
<path d="M99.0328 298.256C99.8566 298.256 100.525 297.589 100.525 296.767C100.525 295.944 99.8566 295.277 99.0328 295.277C98.2089 295.277 97.541 295.944 97.541 296.767C97.541 297.589 98.2089 298.256 99.0328 298.256Z" fill="#E64218"/>
<path d="M31.42 295.208C31.42 296.029 30.751 296.697 29.9283 296.697C29.1055 296.697 28.4365 296.029 28.4365 295.208C28.4365 294.387 29.1055 293.719 29.9283 293.719C30.751 293.719 31.42 294.387 31.42 295.208Z" fill="#E64218"/>
<path d="M17.6446 315.252V361.554C17.6446 364.333 20.1821 366.582 23.2963 366.582H104.811C107.941 366.582 110.479 364.333 110.479 361.554V315.252C110.479 312.473 107.941 310.224 104.811 310.224H23.2963C20.1821 310.224 17.6446 312.473 17.6446 315.252Z" fill="#40398D"/>
<path d="M51.5879 323.542H71.1879C71.6192 323.542 71.9688 323.891 71.9688 324.323C71.9688 324.754 71.6192 325.104 71.1879 325.104H51.5879C51.1566 325.104 50.807 324.754 50.807 324.323C50.807 323.891 51.1566 323.542 51.5879 323.542Z" fill="#5EF939"/>
<path d="M31.8153 331.581H66.5024C66.9336 331.581 67.2832 331.931 67.2832 332.362C67.2832 332.793 66.9336 333.143 66.5024 333.143H31.8153C31.3841 333.143 31.0345 332.793 31.0345 332.362C31.0345 331.931 31.3841 331.581 31.8153 331.581Z" fill="#FFB904"/>
<path d="M71.164 331.581H85.3461C85.7774 331.581 86.127 331.931 86.127 332.362C86.127 332.793 85.7774 333.143 85.3461 333.143H71.164C70.7328 333.143 70.3832 332.793 70.3832 332.362C70.3832 331.931 70.7328 331.581 71.164 331.581Z" fill="#5EF939"/>
<path d="M31.8153 354.211H66.5024C66.9336 354.211 67.2832 354.56 67.2832 354.991C67.2832 355.423 66.9336 355.772 66.5024 355.772H31.8153C31.3841 355.772 31.0345 355.423 31.0345 354.991C31.0345 354.56 31.3841 354.211 31.8153 354.211Z" fill="#FFB904"/>
<path d="M71.1648 354.211H98.0229C98.4541 354.211 98.8037 354.56 98.8037 354.991C98.8037 355.423 98.4541 355.772 98.0229 355.772H71.1648C70.7336 355.772 70.384 355.423 70.384 354.991C70.384 354.56 70.7336 354.211 71.1648 354.211Z" fill="#5EF939"/>
<path d="M31.8153 342.706H66.5024C66.9336 342.706 67.2832 343.056 67.2832 343.487C67.2832 343.918 66.9336 344.268 66.5024 344.268H31.8153C31.3841 344.268 31.0345 343.918 31.0345 343.487C31.0345 343.056 31.3841 342.706 31.8153 342.706Z" fill="#5EF939"/>
<path d="M71.164 342.706H85.3461C85.7774 342.706 86.127 343.056 86.127 343.487C86.127 343.918 85.7774 344.268 85.3461 344.268H71.164C70.7328 344.268 70.3832 343.918 70.3832 343.487C70.3832 343.056 70.7328 342.706 71.164 342.706Z" fill="#5EF939"/>
<path d="M74.3756 338.705L50.6597 338.705C50.2285 338.705 49.8789 338.356 49.8789 337.925C49.8789 337.493 50.2285 337.144 50.6597 337.144L74.3756 337.144C74.8068 337.144 75.1564 337.493 75.1564 337.925C75.1564 338.356 74.8068 338.705 74.3756 338.705Z" fill="#FFB904"/>
<path d="M45.9981 338.705L31.816 338.705C31.3847 338.705 31.0352 338.356 31.0352 337.925C31.0352 337.493 31.3847 337.144 31.816 337.144L45.9981 337.144C46.4294 337.144 46.7789 337.493 46.7789 337.925C46.7789 338.356 46.4294 338.705 45.9981 338.705Z" fill="#5EF939"/>
<path d="M74.3756 349.831L50.6597 349.831C50.2285 349.831 49.8789 349.481 49.8789 349.05C49.8789 348.619 50.2285 348.269 50.6597 348.269L74.3756 348.269C74.8068 348.269 75.1564 348.619 75.1564 349.05C75.1564 349.481 74.8068 349.831 74.3756 349.831Z" fill="#FFB904"/>
<path d="M45.9981 349.831L31.816 349.831C31.3847 349.831 31.0352 349.481 31.0352 349.05C31.0352 348.619 31.3847 348.269 31.816 348.269L45.9981 348.269C46.4294 348.269 46.7789 348.619 46.7789 349.05C46.7789 349.481 46.4294 349.831 45.9981 349.831Z" fill="#5EF939"/>
<path d="M31.6934 325.219V324.266L35.5684 322.547V323.648L32.9355 324.715V324.762L35.5684 325.828V326.93L31.6934 325.219ZM41.1387 321.078L39.3105 327.852H38.3184L40.1387 321.078H41.1387ZM47.7637 325.219L43.8887 326.93V325.828L46.5215 324.762V324.715L43.8887 323.648V322.547L47.7637 324.266V325.219Z" fill="#3DF130"/>
<path d="M75.8498 323.542H98.0229C98.4541 323.542 98.8037 323.891 98.8037 324.323C98.8037 324.754 98.4541 325.104 98.0229 325.104H75.8498C75.4185 325.104 75.0689 324.754 75.0689 324.323C75.0689 323.891 75.4185 323.542 75.8498 323.542Z" fill="#FFB904"/>
<path d="M17.6447 315.252V316.588H110.486V315.252C110.486 312.473 107.949 310.224 104.819 310.224H23.3041C20.1899 310.224 17.6524 312.473 17.6524 315.252H17.6447Z" fill="#373178"/>
<path d="M43.8419 236.602H14.1993C12.9844 236.602 12.0001 237.585 12.0001 238.797V255.101C12.0001 256.314 12.9844 257.297 14.1993 257.297H43.8419C45.0568 257.297 46.041 256.314 46.041 255.101V238.797C46.041 237.585 45.0568 236.602 43.8419 236.602Z" fill="#5EF939"/>
<path d="M32.5232 242.277H39.5205V249.262H32.5232V242.277Z" fill="#DC3C1E"/>
<path d="M23.2417 239.774L21.0656 243.543L18.8895 247.312H23.2417H27.6016L25.4255 243.543L23.2417 239.774Z" fill="#E64218"/>
<path d="M29.2936 254.112C26.6097 254.112 24.4339 251.94 24.4339 249.261C24.4339 246.581 26.6097 244.409 29.2936 244.409C31.9776 244.409 34.1533 246.581 34.1533 249.261C34.1533 251.94 31.9776 254.112 29.2936 254.112Z" fill="white"/>
<path d="M263.167 400.436L282.53 397.537L279.441 376.348L262.378 377.518L263.167 400.436Z" fill="#FFBB87"/>
<path d="M144.66 267.931C144.66 267.931 128.585 268.209 125.673 267.931C122.765 267.655 125.673 265.577 125.673 265.577C125.673 265.577 120.131 265.022 122.071 263.498C124.011 261.974 142.337 261.638 146.461 262.221C150.582 262.805 156.575 263.637 156.575 263.637L144.66 267.931Z" fill="#FFBB87"/>
<path d="M207.013 257.021C207.013 257.021 197.316 257.402 194.822 258.232C192.327 259.064 174.728 268.543 171.542 268.543C168.354 268.543 155.189 260.172 155.189 260.172L135.79 271.257C135.79 271.257 147.846 295.925 167.107 298.141C186.369 300.359 193.851 292.46 193.851 292.46L207.013 257.021Z" fill="#3DF130"/>
<path d="M183.509 318.08C183.509 318.08 170.787 350.23 171.047 379.262C171.308 408.295 180.1 439.714 180.1 439.714L218.705 440.443C218.705 440.443 212.222 409.615 211.666 402.519C211.111 395.422 209.666 350.475 209.666 350.475L209.245 319.938L183.509 318.08Z" fill="#0002BB"/>
<path d="M230.792 308.563C230.792 308.563 234.811 332.136 236.419 345.792C237.5 354.983 245.023 364.573 253.666 367.4C262.312 370.229 270.515 371.551 270.515 371.551L271.623 405.099C271.623 405.099 242.43 412.925 221.918 400.087C201.406 387.25 202.737 360.497 202.737 360.497L201.212 317.357L230.792 308.563Z" fill="#0002BB"/>
<path d="M213.205 257.088C198.816 255.694 186.862 265.792 184.911 280.115L183.748 288.639C183.748 288.639 179.974 316.943 180.599 318.038C181.225 319.133 194.286 321.948 206.916 321.322C219.545 320.696 229.638 319.503 230.263 319.032C230.446 318.895 236.286 313.558 236.217 306.317C236.05 288.747 226.895 259.248 226.895 258.916C226.895 258.691 220.921 257.838 213.205 257.088Z" fill="#3DF130"/>
<path d="M210.641 388.968C210.729 388.968 210.818 388.939 210.891 388.881C211.065 388.745 211.095 388.493 210.957 388.318C192.47 364.909 201.169 330.49 201.261 330.146C201.29 330.032 201.267 329.912 201.202 329.815C201.134 329.717 201.026 329.656 200.911 329.645L189.193 328.513C188.952 328.498 188.775 328.654 188.754 328.876C188.733 329.096 188.894 329.292 189.114 329.313L200.373 330.4C199.4 334.59 192.759 366.567 210.326 388.815C210.406 388.915 210.524 388.968 210.641 388.968Z" fill="#5E1DBB"/>
<path d="M228.754 330.238C228.892 330.238 229.032 330.235 229.173 330.232C229.397 330.225 229.57 330.04 229.565 329.817C229.559 329.597 229.371 329.411 229.153 329.429C229.016 329.432 228.881 329.435 228.751 329.435C222.199 329.435 221.584 324.619 221.56 324.41C221.538 324.189 221.362 324.025 221.118 324.054C220.898 324.078 220.739 324.275 220.762 324.495C220.768 324.555 221.459 330.238 228.754 330.238Z" fill="#5E1DBB"/>
<path d="M241.333 359.978C240.908 362.215 239.979 365.7 238.563 366.718C238.227 366.961 237.889 367.046 237.534 366.975C237.16 366.903 237.107 366.734 237.084 366.664C236.731 365.546 239.226 362.301 241.333 359.978ZM237.776 367.802C238.211 367.802 238.634 367.658 239.032 367.37C241.41 365.66 242.303 359.073 242.342 358.792C242.363 358.621 242.274 358.454 242.117 358.379C241.963 358.305 241.776 358.337 241.654 358.461C240.648 359.5 235.655 364.793 236.318 366.905C236.418 367.221 236.683 367.627 237.38 367.764C237.513 367.789 237.645 367.802 237.776 367.802Z" fill="#5E1DBB"/>
<path d="M211.504 236.678C211.504 236.678 203.183 237.076 202.711 229.096C202.21 220.599 210.07 219.785 213.409 223.22C216.746 226.655 216.129 230.15 216.129 230.15C216.129 230.15 218.456 228.051 220.994 230.627C222.856 232.518 221.896 235.608 221.896 235.608C221.896 235.608 226.187 235.443 225.787 239.191C225.387 242.939 222.707 244.842 222.707 244.842L211.504 236.678Z" fill="#0017BF"/>
<path d="M219.111 251.371L218.247 260.213C218.247 260.213 216.404 262.6 211.19 262.514C207.305 262.45 206.038 261.447 206.038 261.447L207.013 257.021L207.97 252.706L217.51 251.566L219.111 251.371Z" fill="#FFBB87"/>
<path d="M217.51 251.566C217.463 251.804 217.344 252.08 217.169 252.393C214.759 256.616 209.257 257.04 207.012 257.021L207.969 252.706L217.51 251.566Z" fill="black"/>
<path d="M207.97 232.358C207.97 232.358 202.245 242.991 203.472 249.329C204.699 255.669 210.424 255.157 213.899 254.237C217.374 253.316 219.113 251.375 219.113 251.375C219.113 251.375 222.179 252.703 224.531 249.942C226.882 247.184 225.859 243.707 224.122 242.787C222.384 241.867 220.136 242.991 220.136 242.991L222.078 239.923C222.078 239.923 216.353 223.055 207.97 232.358Z" fill="#FFBB87"/>
<path d="M220.028 247.846C220.097 247.846 220.166 247.828 220.23 247.792L224.492 245.317C224.686 245.204 224.751 244.96 224.638 244.768C224.529 244.575 224.282 244.511 224.091 244.622L219.825 247.096C219.634 247.209 219.57 247.453 219.681 247.645C219.755 247.774 219.89 247.846 220.028 247.846Z" fill="black"/>
<path d="M223.665 248.151C223.829 248.151 223.983 248.05 224.042 247.886C224.118 247.679 224.01 247.45 223.803 247.372L221.245 246.441C221.034 246.364 220.805 246.473 220.729 246.682C220.654 246.889 220.761 247.119 220.969 247.196L223.527 248.127C223.572 248.143 223.618 248.151 223.665 248.151Z" fill="black"/>
<path d="M214.954 237.797C215.081 237.797 215.206 237.736 215.285 237.623C215.41 237.442 215.365 237.192 215.183 237.065C213.632 235.992 212.092 235.894 212.026 235.891C211.792 235.889 211.617 236.055 211.604 236.267C211.589 236.488 211.76 236.678 211.98 236.692C211.994 236.692 213.369 236.787 214.724 237.725C214.795 237.774 214.875 237.797 214.954 237.797Z" fill="black"/>
<path d="M206.418 236.541C206.468 236.541 206.519 236.533 206.569 236.512C207.306 236.212 208.074 236.51 208.08 236.514C208.289 236.595 208.52 236.494 208.602 236.29C208.686 236.085 208.586 235.852 208.382 235.768C208.337 235.751 207.31 235.344 206.266 235.768C206.06 235.852 205.962 236.086 206.046 236.292C206.108 236.448 206.259 236.541 206.418 236.541Z" fill="black"/>
<path d="M207.605 246.609C207.675 246.609 207.745 246.591 207.809 246.552C208 246.44 208.062 246.194 207.95 246.002C206.555 243.644 209.257 240.709 209.286 240.68C209.436 240.517 209.429 240.264 209.267 240.111C209.108 239.962 208.854 239.967 208.698 240.13C208.57 240.267 205.556 243.533 207.26 246.413C207.333 246.538 207.468 246.609 207.605 246.609Z" fill="black"/>
<path d="M206.043 240.795C206.205 240.795 206.356 240.695 206.418 240.535L207.168 238.561C207.249 238.354 207.144 238.123 206.937 238.044C206.73 237.964 206.499 238.07 206.42 238.277L205.668 240.249C205.588 240.456 205.692 240.689 205.9 240.767C205.948 240.785 205.996 240.795 206.043 240.795Z" fill="black"/>
<path d="M211.629 241.452C211.789 241.452 211.942 241.353 212.003 241.194L212.754 239.219C212.835 239.012 212.729 238.779 212.522 238.7C212.316 238.621 212.085 238.727 212.004 238.933L211.253 240.908C211.173 241.115 211.279 241.346 211.486 241.425C211.532 241.443 211.58 241.452 211.629 241.452Z" fill="black"/>
<path d="M206.794 234.766C206.794 234.766 207.927 233.082 210.134 233.283C212.342 233.483 213.479 235.163 213.479 235.163C213.479 235.163 212.146 238.783 214.953 241.05C217.76 243.316 220.135 242.99 220.135 242.99L222.385 242.428L224.293 239.406L218.663 232.008L210.937 226.911L206.418 230.273L206.794 234.766Z" fill="#0017BF"/>
<path d="M211.084 262.606C213.583 262.606 216.489 261.972 219.311 259.902C219.487 259.77 219.528 259.518 219.396 259.34C219.264 259.16 219.012 259.122 218.834 259.253C212.017 264.262 204.659 260.361 204.583 260.32C204.397 260.217 204.146 260.286 204.039 260.48C203.934 260.674 204.005 260.919 204.199 261.025C204.248 261.05 207.169 262.606 211.084 262.606Z" fill="white"/>
<path d="M298.543 371.889C299.834 372.515 299.25 381.128 299.499 381.855C299.749 382.584 294.915 385.017 295.754 386.366C296.582 387.718 299.031 389.273 300.239 391.259C301.365 393.114 303.293 424.727 302.866 430.9C302.828 431.408 302.349 431.787 301.8 431.731C300.435 431.593 297.774 431.239 295.089 430.383C292.672 429.614 290.218 428.439 288.667 426.645C284.607 421.996 282.449 411.829 279.716 408.267C276.981 404.694 270.702 400.923 271.69 398.617C272.687 396.311 277.626 391.772 276.478 385.757C275.341 379.743 273.665 377.042 275.047 375.31C275.918 374.219 284.546 372.902 291.097 372.233C294.936 371.833 298.065 371.66 298.543 371.889Z" fill="#FFB904"/>
<path d="M222.758 292.894C222.758 292.894 221.441 289.133 220.937 287.934C220.433 286.734 220.663 282.668 219.209 281.989C217.756 281.309 217.308 287.839 217.308 287.839C217.308 287.839 208.71 278.118 207.115 278.563C205.519 279.008 209.198 285.578 209.198 285.578C209.198 285.578 202.763 278.608 201.537 279.856C200.311 281.104 205.789 288.038 205.789 288.038C205.789 288.038 200.883 283.829 199.916 285.188C198.946 286.548 206.788 297.269 206.788 297.269C206.788 297.269 211.297 308.471 217.51 306.87C223.723 305.271 222.758 292.894 222.758 292.894Z" fill="#FFBB87"/>
<path d="M210.575 248.322C210.285 248.812 209.923 249.239 209.649 249.239C209.321 249.239 209 248.985 208.761 248.722L210.575 248.322ZM209.649 250.042C210.765 250.042 211.539 248.259 211.683 247.9C211.74 247.762 211.714 247.604 211.618 247.49C211.521 247.378 211.37 247.325 211.226 247.359L207.984 248.072C207.858 248.099 207.755 248.184 207.703 248.301C207.651 248.417 207.658 248.552 207.722 248.663C207.804 248.804 208.547 250.042 209.649 250.042Z" fill="black"/>
<path d="M125.673 265.978C125.721 265.978 125.769 265.969 125.816 265.953C125.866 265.932 130.939 264.03 134.985 263.761C135.181 263.746 135.339 263.595 135.36 263.399C135.377 263.205 135.255 263.023 135.066 262.972L132.016 262.129C131.799 262.065 131.584 262.196 131.523 262.41C131.465 262.622 131.591 262.844 131.804 262.903L132.883 263.202C129.277 263.794 125.71 265.134 125.53 265.201C125.323 265.278 125.22 265.511 125.299 265.718C125.358 265.879 125.512 265.978 125.673 265.978Z" fill="black"/>
<path d="M110.707 260.067H176.114L162.521 255.075H97.1114L110.707 260.067Z" fill="#EDEDED"/>
<path d="M110.431 262.81H176.114V260.067H110.431V262.81Z" fill="#40398D"/>
<path d="M97.1105 255.075V258.11L110.43 262.81V260.067L97.1105 255.075Z" fill="#40398D"/>
<path d="M162.521 255.075L150.181 220.715C150.027 220.286 149.62 220.001 149.166 220.001H88.1795C87.4585 220.001 86.9398 220.694 87.1453 221.386L97.1114 255.075H162.521Z" fill="#40398D"/>
<path d="M142.028 228.301H118.785C118.098 228.301 117.54 228.859 117.54 229.546C117.54 230.234 118.098 230.792 118.785 230.792H142.028C142.716 230.792 143.273 230.234 143.273 229.546C143.273 228.859 142.716 228.301 142.028 228.301Z" fill="#FFB904"/>
<path d="M147.839 243.243H137.048C136.36 243.243 135.803 243.801 135.803 244.488C135.803 245.176 136.36 245.733 137.048 245.733H147.839C148.527 245.733 149.084 245.176 149.084 244.488C149.084 243.801 148.527 243.243 147.839 243.243Z" fill="#5EF939"/>
<path d="M113.805 235.772H138.708C139.396 235.772 139.953 236.329 139.953 237.017C139.953 237.705 139.396 238.262 138.708 238.262H113.805C113.117 238.262 112.56 237.705 112.56 237.017C112.56 236.329 113.117 235.772 113.805 235.772Z" fill="#E64218"/>
<path d="M113.805 228.301H104.674C103.986 228.301 103.429 228.859 103.429 229.546C103.429 230.234 103.986 230.792 104.674 230.792H113.805C114.493 230.792 115.05 230.234 115.05 229.546C115.05 228.859 114.493 228.301 113.805 228.301Z" fill="#5EF939"/>
<path d="M132.067 243.243H110.484C109.797 243.243 109.239 243.801 109.239 244.488C109.239 245.176 109.797 245.733 110.484 245.733H132.067C132.755 245.733 133.312 245.176 133.312 244.488C133.312 243.801 132.755 243.243 132.067 243.243Z" fill="#5EF939"/>
<path d="M226.895 258.916C226.895 258.916 246.095 266.685 257.688 285.439C268.381 302.736 268.588 317.958 250.482 322.392C232.376 326.825 214.25 309.273 214.25 309.273L223.664 290.242L227.94 291.906L226.895 258.916Z" fill="#3DF130"/>
<path d="M218.103 291.352C218.128 291.352 218.157 291.349 218.185 291.341C218.366 291.296 218.475 291.111 218.43 290.93L217.635 287.758C217.59 287.578 217.401 287.464 217.226 287.511C217.044 287.557 216.934 287.74 216.98 287.922L217.775 291.095C217.812 291.249 217.95 291.352 218.103 291.352Z" fill="black"/>
<path d="M207.013 289.765C207.091 289.765 207.172 289.736 207.236 289.68C207.376 289.556 207.39 289.343 207.266 289.203L206.043 287.814C205.919 287.674 205.705 287.661 205.564 287.785C205.424 287.909 205.412 288.122 205.535 288.264L206.757 289.651C206.825 289.725 206.918 289.765 207.013 289.765Z" fill="black"/>
<path d="M210.48 287.257C210.566 287.257 210.649 287.225 210.713 287.162C210.85 287.032 210.853 286.819 210.725 286.684L209.441 285.346C209.31 285.211 209.096 285.206 208.963 285.335C208.828 285.465 208.825 285.68 208.953 285.815L210.235 287.153C210.302 287.222 210.391 287.257 210.48 287.257Z" fill="black"/>
<path d="M182.587 298.057C182.782 298.057 182.952 297.916 182.984 297.719L184.686 286.98C184.722 286.76 184.572 286.556 184.352 286.521C184.135 286.493 183.928 286.636 183.893 286.855L182.191 297.593C182.155 297.812 182.305 298.017 182.525 298.053C182.544 298.056 182.566 298.057 182.587 298.057Z" fill="white"/>
<path d="M248.998 298.057C249.131 298.057 249.262 297.992 249.337 297.87C249.456 297.683 249.4 297.434 249.213 297.317C240.678 291.929 228.078 289.851 227.953 289.832C227.715 289.792 227.528 289.946 227.492 290.164C227.457 290.383 227.606 290.588 227.825 290.624C227.95 290.645 240.391 292.697 248.783 297.995C248.85 298.037 248.924 298.057 248.998 298.057Z" fill="white"/>
<path d="M246.225 292.389C247.288 292.389 248.2 292.575 248.719 293.078C248.92 293.271 248.933 293.365 248.933 293.365C248.586 293.979 244.073 293.858 241.104 293.259C242.572 292.837 244.578 292.389 246.225 292.389ZM246.27 294.571C247.905 294.571 249.267 294.356 249.625 293.762C249.757 293.542 249.887 293.088 249.278 292.5C246.982 290.285 239.816 292.816 239.514 292.925C239.352 292.983 239.244 293.137 239.248 293.309C239.251 293.481 239.36 293.632 239.524 293.685C240.768 294.093 243.826 294.571 246.27 294.571Z" fill="white"/>
<path d="M171.239 270.151C171.293 271.956 171.195 274.403 170.469 275.272C170.326 275.442 170.179 275.527 170.005 275.542C169.861 275.548 169.833 275.51 169.819 275.486C169.446 274.94 170.2 272.524 171.239 270.151ZM169.963 276.345C169.999 276.345 170.033 276.345 170.069 276.342C170.461 276.31 170.803 276.123 171.086 275.786C172.457 274.143 171.998 269.077 171.942 268.503C171.923 268.327 171.789 268.181 171.614 268.148C171.431 268.118 171.261 268.206 171.181 268.367C170.678 269.388 168.215 274.558 169.152 275.937C169.334 276.204 169.618 276.345 169.963 276.345Z" fill="white"/>
<path d="M227.889 319.125C228.032 319.125 228.17 319.048 228.243 318.912C228.347 318.717 228.273 318.473 228.077 318.371C227.983 318.319 218.619 313.315 215.68 309.301C215.547 309.121 215.294 309.084 215.118 309.212C214.94 309.344 214.901 309.594 215.031 309.773C218.079 313.938 227.308 318.872 227.7 319.079C227.761 319.111 227.825 319.125 227.889 319.125Z" fill="white"/>
</g>
</svg>
