<svg width="385" height="400" viewBox="0 0 385 400" fill="none" xmlns="http://www.w3.org/2000/svg">
<path d="M385 0H0V400H385V0Z" fill="black"/>
<mask id="mask0_1455_35000" style="mask-type:alpha" maskUnits="userSpaceOnUse" x="0" y="220" width="385" height="180">
<path d="M385 220H0V400H385V220Z" fill="black"/>
</mask>
<g mask="url(#mask0_1455_35000)">
<path d="M227.855 239.805C227.855 239.805 233.951 238.402 236.207 239.805C238.462 241.208 238.462 254.039 236.207 254.171C233.951 254.304 227.855 239.805 227.855 239.805Z" fill="#FFBB87"/>
<path d="M265.172 249.851C265.172 249.851 252.117 253.826 251.873 267.002C251.629 280.179 276.083 281.47 276.083 281.47C276.083 281.47 290.276 282.873 294.137 273.58C297.987 264.288 285.339 258.574 285.339 258.574C285.339 258.574 269.957 246.475 265.182 249.851H265.172Z" fill="#0002BB"/>
<path d="M239.701 247.787L224.838 262.559C224.838 262.559 226.006 282.019 238.624 290.803C251.243 299.588 268.809 294.118 268.809 294.118V267.958C268.809 267.958 258.466 269.046 252.787 268.294C247.108 267.531 239.712 247.797 239.712 247.797L239.701 247.787Z" fill="#1C34ED"/>
<path d="M226.615 267.429C226.514 267.429 226.412 267.389 226.341 267.307C226.209 267.155 226.219 266.921 226.371 266.789L241.276 253.531C241.428 253.399 241.662 253.409 241.794 253.561C241.926 253.714 241.916 253.948 241.763 254.08L226.859 267.338C226.788 267.399 226.697 267.429 226.615 267.429Z" fill="#0002BB"/>
<path d="M334.795 260.089C334.795 260.089 329.39 271.628 325.113 270.53C320.836 269.432 318.509 267.328 318.509 267.328C318.509 267.328 314.008 256.124 318.052 254.843C324.371 252.84 334.795 260.079 334.795 260.079V260.089Z" fill="#FFBB87"/>
<path d="M283.855 270.479C283.855 270.479 295.274 272.574 300.923 271.415C306.572 270.256 315.533 262.224 315.533 262.224L331.859 270.886C331.859 270.886 324.006 297.91 294.868 296.893C275.808 296.233 277.952 274.597 277.952 274.597L283.855 270.459V270.479Z" fill="#1C34ED"/>
<path d="M303.606 278.501C303.484 278.501 303.362 278.491 303.209 278.461C302.508 278.328 301.97 277.962 301.604 277.363C300.405 275.421 301.472 271.638 301.523 271.476C301.563 271.333 301.685 271.232 301.828 271.211C301.98 271.191 302.112 271.252 302.193 271.384C302.752 272.259 305.475 276.671 304.54 278.054C304.398 278.267 304.124 278.501 303.606 278.501ZM302.031 272.543C301.797 273.723 301.523 275.817 302.234 276.976C302.488 277.393 302.854 277.637 303.341 277.729C303.555 277.769 303.829 277.779 303.921 277.637C304.307 277.058 303.301 274.689 302.031 272.543Z" fill="#0002BB"/>
<path d="M329.36 276.275C329.299 276.275 329.238 276.264 329.187 276.234L310.687 266.331C310.504 266.23 310.443 266.006 310.534 265.833C310.626 265.65 310.859 265.579 311.032 265.681L329.533 275.583C329.716 275.685 329.776 275.909 329.685 276.081C329.614 276.203 329.492 276.275 329.36 276.275Z" fill="#0002BB"/>
<path d="M293.873 314.36C293.873 314.36 299.603 347.251 300.842 378.199C302.082 409.148 302.894 431.505 302.894 431.505L268.199 432.664L266.736 371.204L267.529 315.194L293.863 314.36H293.873Z" fill="#E24E1B"/>
<path d="M253.64 315.204C253.64 315.204 250.085 327.069 248.022 337.226C245.96 347.383 242.861 360.986 242.861 360.986C242.861 360.986 231.34 391.844 252.35 396.256C278.41 401.736 279.588 371.916 279.588 371.916L276.947 309.114L253.64 315.194V315.204Z" fill="#E24E1B"/>
<path d="M276.458 269.341C276.458 269.341 276.408 266.941 268.808 267.958C258.547 269.32 254.839 288.709 254.839 288.709C254.839 288.709 251.649 316.76 252.096 317.35C252.543 317.929 264.816 320.562 278.582 319.83C292.358 319.098 295.355 317.207 296.107 316.77C296.859 316.333 290.397 274.943 290.397 274.943C290.397 274.943 287.258 269.483 276.438 269.341H276.458Z" fill="#1C34ED"/>
<path d="M271.246 261.98L271.541 269.92C271.541 269.92 273.055 272.147 277.708 272.35C281.172 272.503 282.361 271.679 282.361 271.679L281.731 267.673L281.111 263.769L272.659 262.234L271.236 261.98H271.246Z" fill="#FFBB87"/>
<path d="M271.247 261.604C271.278 261.817 271.369 262.071 271.511 262.366C273.431 266.27 279.741 267.582 281.742 267.684L281.122 263.779L271.257 261.614L271.247 261.604Z" fill="black"/>
<path d="M282.209 245.601C282.209 245.601 286.74 255.402 285.308 260.994C283.875 266.585 278.796 265.823 275.738 264.816C272.69 263.81 271.237 261.98 271.237 261.98C271.237 261.98 268.433 262.996 266.482 260.414C264.532 257.821 265.629 254.771 267.234 254.049C268.829 253.317 270.78 254.446 270.78 254.446L269.215 251.599C269.215 251.599 275.23 236.847 282.209 245.601Z" fill="#FFBB87"/>
<path d="M242.373 348.573L235.201 341.039L217.482 350.921L221.424 356.981L228.729 363L242.373 348.573Z" fill="#FFBB87"/>
<path d="M221.15 328.899C222.237 327.974 223.913 328.106 224.97 329.225C229.115 333.617 238.96 342.96 238.157 343.713C237.131 344.679 224.228 351.572 224.228 351.572C224.228 351.572 229.684 357.936 224.421 360.844C220.378 363.081 212.961 362.766 209.73 362.491C208.704 362.41 207.698 362.613 206.835 363.111C203.096 365.216 192.418 370.594 188.08 366.243C182.777 360.915 185.561 359.472 186.577 358.506C187.45 357.672 213.733 335.233 221.16 328.899H221.15Z" fill="#0002BB"/>
<path d="M283.672 249.667C283.672 249.667 283.631 249.667 283.621 249.667L281.68 249.383C281.477 249.352 281.335 249.169 281.365 248.966C281.396 248.763 281.579 248.63 281.782 248.651L283.722 248.935C283.926 248.966 284.068 249.149 284.037 249.352C284.007 249.535 283.855 249.667 283.672 249.667Z" fill="black"/>
<path d="M276.459 250.471C276.297 250.471 276.154 250.369 276.104 250.216C276.043 250.023 276.154 249.81 276.347 249.749L278.877 248.946C279.08 248.885 279.284 248.996 279.345 249.19C279.405 249.383 279.294 249.596 279.101 249.657L276.571 250.46C276.571 250.46 276.5 250.481 276.459 250.481V250.471Z" fill="black"/>
<path d="M282.707 257.618C282.707 257.618 282.646 257.618 282.605 257.608C282.412 257.557 282.29 257.354 282.341 257.15C283.215 253.958 281.01 252.819 280.919 252.768C280.736 252.677 280.665 252.453 280.746 252.27C280.838 252.087 281.061 252.006 281.244 252.097C281.275 252.108 284.089 253.531 283.052 257.333C283.012 257.496 282.859 257.608 282.697 257.608L282.707 257.618Z" fill="black"/>
<path d="M279.069 261.024C278.917 261.024 278.765 261.004 278.602 260.963C277.353 260.607 277.22 259.174 277.21 259.113C277.2 258.991 277.251 258.879 277.342 258.798C277.434 258.716 277.556 258.696 277.678 258.726L280.614 259.489C280.736 259.519 280.827 259.611 280.868 259.723C280.908 259.845 280.888 259.967 280.817 260.068C280.786 260.109 280.075 261.024 279.069 261.024ZM278.104 259.601C278.226 259.865 278.44 260.14 278.805 260.251C279.171 260.353 279.517 260.211 279.77 260.038L278.104 259.611V259.601Z" fill="black"/>
<path d="M270.8 258.523C270.749 258.523 270.698 258.513 270.647 258.492L266.665 256.683C266.482 256.601 266.4 256.378 266.482 256.195C266.563 256.012 266.786 255.92 266.969 256.012L270.952 257.821C271.135 257.903 271.216 258.126 271.135 258.309C271.074 258.442 270.942 258.523 270.8 258.523Z" fill="black"/>
<path d="M267.254 259.448C267.162 259.448 267.061 259.408 266.989 259.336C266.847 259.194 266.847 258.96 266.989 258.808L268.747 257.069C268.889 256.927 269.123 256.927 269.275 257.069C269.418 257.211 269.418 257.445 269.275 257.598L267.518 259.336C267.447 259.408 267.355 259.448 267.254 259.448Z" fill="black"/>
<path d="M276.459 246.18C276.459 246.18 278.725 245.834 281.102 247.268C283.469 248.702 283.957 250.094 283.957 250.094C283.957 250.094 285.42 246.394 282.209 243.13C278.999 239.866 273.259 238.748 268.535 242.51C264.43 245.773 264.643 250.816 264.643 250.816L270.8 254.446C270.8 254.446 278.278 253.002 276.469 246.19L276.459 246.18Z" fill="#0002BB"/>
<path d="M271.42 267.419C271.42 267.419 275.473 274.404 282.707 271.283C289.941 268.161 262.235 313.425 262.235 313.425L265.933 273.804L271.409 267.409L271.42 267.419Z" fill="#1C34ED"/>
<path d="M220.632 360.986L243.958 344.77L249.719 353.981L248.022 394.822C248.022 394.822 238.635 392.881 220.642 360.986H220.632Z" fill="#E24E1B"/>
<path d="M267.62 394.955C267.508 394.955 267.397 394.904 267.325 394.802C267.204 394.639 267.234 394.406 267.397 394.284C267.478 394.223 275.748 387.909 280.157 371.825C284.577 355.669 281.864 330.943 281.833 330.689C281.813 330.526 281.905 330.374 282.047 330.313L291.119 326.195C291.302 326.114 291.526 326.195 291.607 326.378C291.688 326.561 291.607 326.785 291.424 326.866L282.595 330.872C282.88 333.617 285.074 356.635 280.868 372.018C276.388 388.366 267.925 394.812 267.833 394.883C267.773 394.934 267.691 394.955 267.61 394.955H267.62Z" fill="white"/>
<path d="M252.218 358.221C252.127 358.221 252.015 358.221 251.903 358.191C248.215 357.57 246.529 348.542 246.458 348.166C246.427 348.003 246.508 347.83 246.661 347.759C246.813 347.688 246.996 347.729 247.098 347.861C248.713 349.803 253.925 356.238 253.031 357.804C252.919 358.008 252.685 358.221 252.208 358.221H252.218ZM247.514 349.528C248.235 352.477 249.82 357.092 252.025 357.469C252.269 357.509 252.381 357.469 252.391 357.448C252.787 356.757 250.298 353.026 247.504 349.538L247.514 349.528Z" fill="white"/>
<path d="M254.839 332.437C254.646 332.437 254.484 332.285 254.473 332.092C254.453 331.888 254.606 331.705 254.819 331.695C255.083 331.675 261.321 331.085 263.089 322.423C263.129 322.22 263.333 322.098 263.526 322.138C263.729 322.179 263.861 322.372 263.81 322.575C261.931 331.807 254.941 332.437 254.87 332.437C254.87 332.437 254.849 332.437 254.839 332.437Z" fill="white"/>
<path d="M292.288 297.28C292.288 297.28 292.237 297.28 292.206 297.28C292.003 297.239 291.881 297.036 291.922 296.832C293.913 287.855 290.205 282.7 290.174 282.649C290.052 282.487 290.093 282.253 290.256 282.131C290.418 282.009 290.652 282.039 290.774 282.212C290.936 282.426 294.716 287.672 292.653 297.005C292.613 297.178 292.46 297.3 292.288 297.3V297.28Z" fill="#0002BB"/>
<path d="M278.988 272.452C273.797 272.452 271.135 267.653 271.094 267.592C270.993 267.409 271.064 267.185 271.247 267.094C271.43 266.992 271.653 267.063 271.745 267.246C271.897 267.521 275.453 273.896 282.565 270.947C282.747 270.866 282.971 270.957 283.052 271.15C283.133 271.344 283.042 271.557 282.849 271.638C281.437 272.228 280.147 272.462 278.988 272.462V272.452Z" fill="#0002BB"/>
<path d="M278.612 254.548C278.44 254.548 278.287 254.426 278.247 254.253L277.871 252.514C277.85 252.402 277.871 252.28 277.952 252.199L278.704 251.315C278.836 251.162 279.069 251.142 279.222 251.274C279.374 251.406 279.395 251.64 279.262 251.792L278.622 252.545L278.958 254.11C278.998 254.314 278.876 254.507 278.673 254.548C278.643 254.548 278.622 254.548 278.592 254.548H278.612Z" fill="black"/>
<path d="M284.048 253.826C283.875 253.826 283.723 253.704 283.682 253.531L283.306 251.792C283.286 251.681 283.306 251.559 283.387 251.477L284.139 250.593C284.271 250.44 284.505 250.42 284.657 250.552C284.81 250.684 284.83 250.918 284.698 251.071L284.058 251.823L284.393 253.389C284.434 253.592 284.312 253.785 284.109 253.826C284.078 253.826 284.058 253.826 284.028 253.826H284.048Z" fill="black"/>
<path d="M252.025 275.248C251.944 275.248 251.862 275.238 251.781 275.207C249.912 274.678 251.111 269.636 251.527 268.1C251.568 267.938 251.7 267.816 251.893 267.826C252.066 267.826 252.208 267.948 252.248 268.11C252.574 269.493 253.549 274.089 252.563 275.034C252.421 275.177 252.238 275.248 252.035 275.248H252.025ZM251.862 269.92C251.415 272.208 251.344 274.323 251.984 274.495C252.36 274.343 252.33 272.462 251.862 269.92Z" fill="#0002BB"/>
<path d="M300.913 231.631L332.316 225.816L363.72 220L353.052 250.125L342.385 280.24L321.649 255.93L300.913 231.631Z" fill="#E24E1B"/>
<path d="M325.611 262.824C325.397 262.824 325.235 262.651 325.245 262.447C325.296 259.519 322.644 257.252 322.614 257.222C322.461 257.089 322.441 256.856 322.573 256.703C322.705 256.551 322.939 256.53 323.091 256.652C323.213 256.754 326.048 259.174 325.987 262.458C325.987 262.661 325.814 262.824 325.621 262.824H325.611Z" fill="black"/>
<path d="M322.847 256.947C322.847 256.947 323.833 246.77 321.263 247.288C318.692 247.797 315.98 257.435 316.569 258.848C317.158 260.261 320.541 260.495 320.541 260.495L322.847 256.957V256.947Z" fill="#FFBB87"/>
<path d="M183.935 281.694C183.376 282.67 177.92 289.573 168.888 290.712C159.856 291.851 160.039 280.982 160.039 280.982L173.166 273.021L183.945 281.694H183.935Z" fill="#FFBB87"/>
<path d="M203.218 297.473C222.918 297.473 238.889 281.491 238.889 261.776C238.889 242.062 222.918 226.08 203.218 226.08C183.518 226.08 167.548 242.062 167.548 261.776C167.548 281.491 183.518 297.473 203.218 297.473Z" fill="#07CBF5"/>
<path d="M160.792 275.746C160.792 275.746 168.046 267.978 171.531 267.948C175.015 267.917 179.882 270.052 181.101 273.692C182.33 277.342 174.629 274.607 174.629 274.607C174.629 274.607 169.224 282.507 164.378 282.446C159.532 282.385 160.792 275.736 160.792 275.736V275.746Z" fill="#FFBB87"/>
<path d="M166.664 295.602C166.664 295.602 130.902 307.274 116.181 291.8C101.46 276.336 112.391 265.06 112.391 265.06C112.391 265.06 134.296 270.815 139.132 271.089L159.817 272.706L166.664 295.592V295.602Z" fill="#E24E1B"/>
<path d="M69.0297 376.756C69.0297 377.294 68.5929 377.732 68.0544 377.732C67.516 377.732 67.0791 377.294 67.0791 376.756C67.0791 376.217 67.516 375.78 68.0544 375.78C68.5929 375.78 69.0297 376.217 69.0297 376.756Z" fill="white"/>
<path d="M58.3014 391.284L41.6396 390.552L42.3813 372.313L56.94 371.784L58.3014 391.284Z" fill="#FFBB87"/>
<path d="M131.258 319.098C131.258 319.098 142.992 348.776 142.758 375.576C142.515 402.377 134.407 431.383 134.407 431.383L98.7979 432.054C98.7979 432.054 104.782 403.597 105.29 397.039C105.798 390.491 107.139 349 107.139 349L107.525 320.806L131.268 319.088L131.258 319.098Z" fill="#1C34ED"/>
<path d="M86.2907 319.098C86.2907 319.098 87.2661 333.586 84.8481 344.241C82.4402 354.846 74.7088 364.23 66.7335 366.843C58.7582 369.456 50.9861 368.459 50.9861 368.459L49.96 399.428C49.96 399.428 76.8931 406.657 95.8103 394.802C114.727 382.947 113.508 358.252 113.508 358.252L114.91 318.427L86.2806 319.098H86.2907Z" fill="#1C34ED"/>
<path d="M100.494 263.403C114.27 262.102 125.71 271.496 127.579 284.825L128.687 292.756C128.687 292.756 132.304 319.088 131.704 320.105C131.105 321.122 118.598 323.745 106.508 323.165C94.4184 322.586 86.7784 320.542 86.179 320.105C85.5796 319.668 87.3778 265.538 87.3778 265.101C87.3778 264.888 93.0977 264.095 100.484 263.403H100.494Z" fill="#E24E1B"/>
<path d="M106.224 384.544C106.143 384.544 106.061 384.513 105.99 384.462C105.828 384.34 105.797 384.106 105.929 383.944C122.987 362.339 114.961 330.567 114.88 330.241C114.849 330.14 114.88 330.028 114.931 329.936C114.992 329.845 115.093 329.794 115.195 329.784L126.005 328.737C126.208 328.716 126.391 328.869 126.411 329.072C126.431 329.276 126.279 329.459 126.076 329.479L115.693 330.485C116.587 334.359 122.713 363.874 106.508 384.411C106.437 384.503 106.326 384.554 106.214 384.554L106.224 384.544Z" fill="#0002BB"/>
<path d="M89.5224 330.323C89.3903 330.323 89.2684 330.323 89.1363 330.323C88.9331 330.323 88.7706 330.15 88.7807 329.936C88.7807 329.733 88.9534 329.581 89.1465 329.581C95.5369 329.743 96.1363 325.148 96.1566 324.944C96.1769 324.741 96.3598 324.599 96.563 324.619C96.7662 324.639 96.9084 324.822 96.8881 325.026C96.8881 325.077 96.248 330.323 89.5122 330.323H89.5224Z" fill="#0002BB"/>
<path d="M83.6398 365.003C83.2335 365.003 82.8474 364.87 82.4816 364.606C80.2872 363.03 79.4642 356.94 79.4338 356.686C79.4134 356.523 79.4947 356.371 79.6369 356.3C79.7792 356.228 79.9519 356.259 80.0637 356.371C80.9882 357.326 85.6006 362.217 84.9911 364.169C84.8996 364.464 84.6558 364.84 84.0157 364.962C83.8938 364.982 83.7719 365.003 83.65 365.003H83.6398ZM80.3583 357.784C80.7545 359.848 81.6079 363.061 82.9083 364.006C83.2131 364.23 83.5281 364.311 83.8633 364.24C84.2088 364.169 84.2596 364.016 84.2799 363.955C84.605 362.928 82.2988 359.929 80.3583 357.784Z" fill="#0002BB"/>
<path d="M25.2725 367.829C24.0838 368.398 24.5816 376.339 24.348 377C24.1143 377.671 28.554 379.928 27.7717 381.168C26.9996 382.409 24.7442 383.832 23.6266 385.652C22.5802 387.36 20.6803 416.468 21.0461 422.152C21.0766 422.619 21.5134 422.975 22.0214 422.924C23.2812 422.802 25.7297 422.487 28.1984 421.714C30.4234 421.013 32.689 419.945 34.1215 418.298C37.8806 414.038 39.9023 404.674 42.4321 401.411C44.9618 398.127 50.7528 394.68 49.8587 392.555C48.9545 390.43 44.4233 386.221 45.5003 380.69C46.5772 375.159 48.1316 372.679 46.8617 371.072C46.0692 370.066 38.1244 368.815 32.0997 368.175C28.5642 367.788 25.689 367.615 25.2522 367.829H25.2725Z" fill="#FFB700"/>
<path d="M104.02 245.774C104.02 245.774 110.979 246.109 111.375 239.419C111.792 232.302 105.219 231.621 102.425 234.498C99.6308 237.376 100.149 240.304 100.149 240.304C100.149 240.304 98.1983 238.545 96.0749 240.7C94.5205 242.286 95.3231 244.869 95.3231 244.869C95.3231 244.869 91.7367 244.726 92.0619 247.868C92.3971 251.01 94.6424 252.596 94.6424 252.596L104.02 245.763V245.774Z" fill="#0002BB"/>
<path d="M97.6498 258.076L98.3711 265.477C98.3711 265.477 99.9154 267.48 104.274 267.399C107.525 267.348 108.582 266.504 108.582 266.504L107.769 262.793L106.966 259.184L98.9807 258.228L97.6396 258.065L97.6498 258.076Z" fill="#FFBB87"/>
<path d="M98.9902 258.238C99.0309 258.442 99.1325 258.665 99.2747 258.93C101.296 262.468 105.899 262.824 107.778 262.803L106.976 259.194L98.9902 258.238Z" fill="black"/>
<path d="M106.976 242.154C106.976 242.154 111.772 251.06 110.735 256.368C109.709 261.675 104.914 261.248 102.008 260.475C99.1026 259.702 97.6497 258.076 97.6497 258.076C97.6497 258.076 95.0794 259.184 93.1186 256.876C91.1476 254.568 92.0112 251.65 93.464 250.888C94.9168 250.115 96.7963 251.06 96.7963 251.06L95.1708 248.488C95.1708 248.488 99.9661 234.366 106.976 242.154Z" fill="#FFBB87"/>
<path d="M96.8873 255.158C96.8263 255.158 96.7654 255.137 96.7044 255.107L93.1384 253.033C92.9657 252.931 92.9047 252.707 93.0063 252.524C93.1079 252.352 93.3416 252.291 93.5143 252.392L97.0803 254.466C97.253 254.568 97.314 254.792 97.2124 254.975C97.1413 255.097 97.0194 255.158 96.8873 255.158Z" fill="black"/>
<path d="M93.8398 255.412C93.6874 255.412 93.5452 255.32 93.4944 255.168C93.4233 254.975 93.5249 254.761 93.7179 254.69L95.8616 253.907C96.0546 253.836 96.268 253.938 96.3391 254.131C96.4102 254.324 96.3086 254.538 96.1156 254.609L93.9719 255.392C93.9719 255.392 93.8906 255.412 93.85 255.412H93.8398Z" fill="black"/>
<path d="M101.135 246.739C101.063 246.739 101.002 246.719 100.941 246.678C100.769 246.567 100.718 246.343 100.82 246.17C101.724 244.726 103.126 244.838 103.746 245.102C103.939 245.184 104.02 245.397 103.939 245.59C103.857 245.784 103.644 245.865 103.451 245.794C103.329 245.743 102.211 245.336 101.439 246.577C101.368 246.689 101.246 246.75 101.124 246.75L101.135 246.739Z" fill="black"/>
<path d="M108.277 245.692C108.206 245.692 108.134 245.672 108.074 245.631C107.261 245.082 106.519 245.621 106.509 245.631C106.346 245.753 106.113 245.713 105.991 245.55C105.869 245.387 105.91 245.153 106.072 245.031C106.123 245.001 107.251 244.188 108.48 245.031C108.653 245.143 108.693 245.377 108.582 245.55C108.51 245.662 108.388 245.713 108.277 245.713V245.692Z" fill="black"/>
<path d="M107.281 254.121C107.281 254.121 107.23 254.121 107.21 254.121C107.006 254.08 106.874 253.887 106.915 253.684C107.443 250.959 105.909 249.22 105.838 249.149C105.706 248.996 105.716 248.763 105.869 248.62C106.021 248.488 106.255 248.498 106.387 248.641C106.458 248.722 108.236 250.715 107.636 253.816C107.606 253.989 107.443 254.111 107.271 254.111L107.281 254.121Z" fill="black"/>
<path d="M108.591 249.251C108.439 249.251 108.297 249.159 108.246 249.017L107.616 247.36C107.545 247.166 107.636 246.953 107.829 246.882C108.022 246.811 108.236 246.902 108.307 247.095L108.937 248.752C109.008 248.946 108.916 249.159 108.723 249.23C108.683 249.251 108.632 249.251 108.591 249.251Z" fill="black"/>
<path d="M103.918 249.8C103.766 249.8 103.624 249.708 103.573 249.566L102.943 247.909C102.872 247.715 102.963 247.502 103.156 247.431C103.349 247.36 103.563 247.451 103.634 247.644L104.264 249.302C104.335 249.495 104.243 249.708 104.05 249.779C104.01 249.8 103.959 249.8 103.918 249.8Z" fill="black"/>
<path d="M107.961 244.167C107.961 244.167 107.016 242.754 105.167 242.927C103.318 243.1 102.373 244.503 102.373 244.503C102.373 244.503 103.491 247.532 101.134 249.434C98.777 251.335 96.7959 251.06 96.7959 251.06L94.9163 250.593L93.3213 248.061L98.0353 241.869L104.497 237.599L108.276 240.415L107.961 244.177V244.167Z" fill="#0002BB"/>
<path d="M105.747 256.022C105.096 256.022 103.979 255.839 103.288 254.67C103.186 254.497 103.237 254.263 103.42 254.161C103.593 254.06 103.826 254.111 103.928 254.294C104.649 255.514 106.051 255.27 106.112 255.259C106.315 255.219 106.508 255.351 106.549 255.554C106.59 255.758 106.458 255.951 106.255 255.991C106.234 255.991 106.041 256.032 105.757 256.032L105.747 256.022Z" fill="black"/>
<path d="M110.512 252.728C108.906 252.728 107.596 251.243 107.596 249.434C107.596 247.624 108.906 246.14 110.512 246.14C112.117 246.14 113.427 247.624 113.427 249.434C113.427 251.243 112.117 252.728 110.512 252.728ZM110.512 246.872C109.313 246.872 108.337 248.02 108.337 249.424C108.337 250.827 109.313 251.975 110.512 251.975C111.71 251.975 112.686 250.827 112.686 249.424C112.686 248.02 111.71 246.872 110.512 246.872Z" fill="#07CBF5"/>
<path d="M103.38 253.45C101.561 253.45 100.088 251.965 100.088 250.156C100.088 248.346 101.571 246.861 103.38 246.861C105.188 246.861 106.671 248.346 106.671 250.156C106.671 251.965 105.188 253.45 103.38 253.45ZM103.38 247.593C101.967 247.593 100.83 248.742 100.83 250.145C100.83 251.548 101.978 252.697 103.38 252.697C104.782 252.697 105.93 251.548 105.93 250.145C105.93 248.742 104.782 247.593 103.38 247.593Z" fill="#07CBF5"/>
<path d="M107.961 249.8H106.173C105.97 249.8 105.808 249.637 105.808 249.434C105.808 249.23 105.97 249.068 106.173 249.068H107.961C108.165 249.068 108.327 249.23 108.327 249.434C108.327 249.637 108.165 249.8 107.961 249.8Z" fill="#07CBF5"/>
<path d="M94.906 250.959C94.7637 250.959 94.6215 250.867 94.5606 250.725C94.4793 250.532 94.5809 250.318 94.7637 250.247C96.9481 249.373 100.352 249.779 100.494 249.79C100.697 249.81 100.839 250.003 100.819 250.206C100.799 250.41 100.606 250.552 100.402 250.532C100.372 250.532 97.0395 250.135 95.0381 250.938C94.9974 250.959 94.9466 250.969 94.8958 250.969L94.906 250.959Z" fill="#07CBF5"/>
<path d="M137.018 279.691C136.947 279.691 136.876 279.691 136.805 279.681C136.195 279.599 135.911 279.254 135.778 278.969C134.884 277.037 138.41 271.506 138.806 270.886C138.897 270.754 139.06 270.693 139.212 270.734C139.365 270.774 139.477 270.906 139.487 271.069C139.527 271.73 139.863 277.596 138.125 279.243C137.81 279.548 137.424 279.701 137.018 279.701V279.691ZM138.796 272.309C137.455 274.567 135.982 277.637 136.449 278.654C136.5 278.766 136.601 278.908 136.896 278.938C137.17 278.969 137.404 278.898 137.617 278.694C138.654 277.718 138.826 274.414 138.796 272.309Z" fill="white"/>
<path d="M166.034 282.517C165.211 282.517 164.327 282.334 163.413 281.877C163.23 281.785 163.159 281.562 163.24 281.379C163.332 281.196 163.555 281.124 163.738 281.206C168.127 283.371 171.632 278.491 171.673 278.44C171.795 278.278 172.018 278.237 172.191 278.349C172.354 278.471 172.394 278.694 172.282 278.867C172.252 278.908 169.671 282.507 166.034 282.507V282.517Z" fill="black"/>
<path d="M99.1229 271.466C99.0721 271.466 99.0112 271.466 98.9604 271.466C98.5337 271.435 98.1679 271.222 97.9241 270.866C96.9285 269.432 97.9038 265.792 98.0156 265.386C98.046 265.264 98.1375 265.172 98.2492 265.132C98.361 265.091 98.4931 265.111 98.5947 265.182C98.6353 265.213 102.984 268.324 108.46 266.169C108.551 266.128 108.653 266.138 108.744 266.169C108.836 266.209 108.907 266.28 108.937 266.372C109.354 267.46 110.187 270.052 109.039 270.54C108.074 270.947 105.595 269.015 104.315 267.928C103.532 268.822 101.063 271.466 99.1229 271.466ZM98.6048 266.077C98.3102 267.328 97.9444 269.595 98.5235 270.439C98.6454 270.612 98.7978 270.703 99.0112 270.723C100.413 270.835 102.496 268.853 103.573 267.653C101.185 267.46 99.3973 266.555 98.5947 266.077H98.6048ZM105.158 267.663C106.804 269.015 108.399 270.012 108.754 269.869C109.018 269.758 108.896 268.487 108.378 266.992C107.251 267.399 106.164 267.602 105.168 267.663H105.158Z" fill="white"/>
<path d="M173.293 301.257L121.21 278.724L98.6934 330.845L150.776 353.378L173.293 301.257Z" fill="#0002BB"/>
<path d="M110.085 293.813C111.599 294.026 114.494 296.538 114.494 296.538C114.494 296.538 119.91 297.697 120.194 299.354C120.478 301.011 117.857 302.618 117.857 302.618C117.857 302.618 119.158 306.044 118.822 307.305C118.487 308.565 117.613 314.605 114.393 315.886C111.172 317.156 97.9851 310.995 97.9851 310.995L97.5889 297.544C97.5889 297.544 108.582 293.599 110.095 293.813H110.085Z" fill="#FFBB87"/>
<path d="M114.494 296.904H107.961C107.758 296.904 107.596 296.741 107.596 296.538C107.596 296.334 107.758 296.172 107.961 296.172H114.494C114.697 296.172 114.86 296.334 114.86 296.538C114.86 296.741 114.697 296.904 114.494 296.904Z" fill="black"/>
<path d="M87.3883 265.101C87.3883 265.101 57.5902 273.489 58.1896 297.199C58.789 320.908 99.0719 317.004 99.0719 317.004V295.094L87.3883 265.101Z" fill="#E24E1B"/>
<path d="M98.6349 294.585C98.6349 294.585 98.5739 294.585 98.5333 294.575C98.4012 294.545 85.4578 291.037 74.5261 289.604C74.3229 289.573 74.1807 289.39 74.2111 289.187C74.2416 288.983 74.4245 288.841 74.6277 288.872C85.6102 290.315 98.6044 293.833 98.7365 293.864C98.9295 293.914 99.0514 294.118 99.0006 294.321C98.96 294.484 98.8076 294.596 98.645 294.596L98.6349 294.585Z" fill="white"/>
<path d="M83.9343 291.19C83.9343 291.19 83.8632 291.19 83.8226 291.169C83.0098 290.915 75.8676 288.618 75.319 286.411C75.2478 286.106 75.2478 285.639 75.6949 285.191C76.0606 284.825 76.5279 284.652 77.0766 284.693C79.7993 284.876 84.0359 290.356 84.2188 290.59C84.3204 290.722 84.3204 290.895 84.2188 291.027C84.1477 291.129 84.0359 291.19 83.914 291.19H83.9343ZM76.9445 285.425C76.6499 285.425 76.4162 285.517 76.2232 285.71C75.9996 285.933 76.0098 286.106 76.0403 286.228C76.3349 287.408 79.9822 289.055 82.8472 290.061C81.3233 288.262 78.6818 285.537 77.0359 285.425C77.0055 285.425 76.975 285.425 76.9445 285.425Z" fill="white"/>
<path d="M98.6355 317.177H85.6616C85.4585 317.177 85.2959 317.014 85.2959 316.801C85.2959 316.587 85.4585 316.435 85.6616 316.435H98.6355C98.8387 316.435 99.0012 316.597 99.0012 316.801C99.0012 317.004 98.8387 317.177 98.6355 317.177Z" fill="white"/>
<path d="M233.789 239.185C233.789 239.185 224.025 238.88 226.281 241.513C228.536 244.147 234.337 244.33 234.337 244.33C234.337 244.33 237.548 240.649 233.778 239.185H233.789Z" fill="#FFBB87"/>
</g>
</svg>
