<svg width="385" height="400" viewBox="0 0 385 400" fill="none" xmlns="http://www.w3.org/2000/svg">
<path d="M385 0H0V400H385V0Z" fill="black"/>
<mask id="mask0_1455_33197" style="mask-type:alpha" maskUnits="userSpaceOnUse" x="0" y="220" width="385" height="180">
<path d="M385 220H0V400H385V220Z" fill="black"/>
</mask>
<g mask="url(#mask0_1455_33197)">
<path d="M59.2868 343.782L70.6435 355.091L82.0557 337.152L75.6363 330.54L59.2868 343.782Z" fill="#FFBB87"/>
<path d="M65.2991 313.617C64.1319 313.21 59.1576 318.814 58.5555 319.11C57.9534 319.406 59.3707 323.817 58.0275 324.131C56.6843 324.445 54.2481 323.909 52.2936 324.39C50.4595 324.834 29.7471 342.931 26.1901 346.953C25.8936 347.295 25.9492 347.822 26.3198 348.118C27.1349 348.793 28.7189 350.005 30.6086 351.059C32.6743 352.205 35.1197 353.149 37.3707 352.991C42.697 352.612 50.2835 347.739 54.1277 347.221C57.9812 346.703 64.1041 348.211 64.9286 346.204C65.753 344.207 65.5862 338.427 69.9955 335.459C74.4048 332.491 77.0818 331.862 77.3319 329.966C77.4986 328.69 72.4595 321.838 68.8191 317.427C67.0776 315.309 65.6603 313.747 65.2898 313.617H65.2991Z" fill="#E64218"/>
<path d="M65.2989 313.617C64.1317 313.21 59.1574 318.814 58.5553 319.11C57.9532 319.406 59.3704 323.817 58.0273 324.131C56.6841 324.445 54.2479 323.909 52.2934 324.39C50.4593 324.834 29.7469 342.931 26.1898 346.953C25.8934 347.295 25.949 347.822 26.3195 348.118C27.1347 348.793 28.7187 350.005 30.6084 351.059L68.8281 317.427C67.0867 315.309 65.6694 313.747 65.2989 313.617Z" fill="white"/>
<path d="M86.5485 300.811C86.5485 300.811 84.1308 312.897 82.9915 323.171C81.8521 333.444 80.0087 347.241 80.0087 347.241C80.0087 347.241 71.5608 378.857 91.8563 381.65C117.024 385.117 115.746 355.323 115.746 355.323L108.178 292.969L86.5485 300.811Z" fill="#FFB904"/>
<path d="M58.9073 348.941L79.7401 331.002L85.9464 339.731L87.623 380.548C87.623 380.548 78.5544 379.328 58.9073 348.941Z" fill="#FFB904"/>
<path d="M126.797 297.98C126.797 297.98 135.199 331.409 132.541 356.052C129.882 380.705 117.636 410.934 117.636 410.934L84.9558 404.859L95.8771 368.323L103.769 299.617L126.797 297.98Z" fill="#FFB904"/>
<path d="M93.7086 382.083C97.4416 382.083 105.908 381.093 112.077 372.965C122.73 358.928 116.44 321.2 115.662 316.779L126.389 315.91C126.574 315.892 126.713 315.734 126.695 315.549C126.676 315.365 126.519 315.217 126.333 315.244L115.236 316.141C115.143 316.141 115.051 316.197 114.995 316.271C114.94 316.345 114.912 316.446 114.93 316.539C115.005 316.955 122.443 358.197 111.54 372.558C103.676 382.915 92.0227 381.334 91.9115 381.315C91.7262 381.288 91.5595 381.417 91.5317 381.602C91.5039 381.787 91.6336 381.953 91.8189 381.981C91.8467 381.981 92.5506 382.083 93.7178 382.083H93.7086Z" fill="#E64218"/>
<path d="M88.3177 345.565C88.5956 345.565 88.855 345.482 89.0958 345.306C89.4571 345.038 89.6516 344.659 89.6887 344.178C89.8832 341.089 82.3523 333.95 82.0373 333.645C81.9261 333.534 81.7501 333.525 81.6205 333.608C81.4908 333.692 81.4352 333.858 81.4815 333.997C81.852 335.079 85.1682 344.64 87.9009 345.5C88.0398 345.546 88.188 345.565 88.327 345.565H88.3177ZM82.6116 335.153C85.0849 337.64 89.1329 342.153 89.0125 344.132C88.9939 344.409 88.892 344.612 88.6975 344.751C88.5123 344.89 88.327 344.918 88.1047 344.844C86.3447 344.289 83.8714 338.537 82.6116 335.143V335.153Z" fill="#E64218"/>
<path d="M88.3642 314.496C88.4105 314.496 88.4661 314.487 88.5124 314.459C93.0421 312.249 95.9507 306.756 96.0711 306.525C96.1545 306.359 96.0897 306.155 95.9229 306.072C95.7562 305.989 95.5524 306.054 95.469 306.211C95.4413 306.266 92.5419 311.741 88.2067 313.849C88.04 313.932 87.9659 314.136 88.0493 314.302C88.1048 314.422 88.2253 314.496 88.355 314.496H88.3642Z" fill="#E64218"/>
<path d="M92.8752 255.62C92.8752 255.62 77.6651 258.884 72.5797 275.233C67.4942 291.582 88.0213 308.81 88.0213 308.81L126.797 297.981C126.797 297.981 122.147 256.008 117.506 251.81C112.856 247.612 92.8752 255.611 92.8752 255.611V255.62Z" fill="#DC3C1E"/>
<path d="M104.509 246.567C104.509 246.567 106.584 230.902 126.797 227.074C147.009 223.245 159.106 248.296 159.106 248.296L99.5814 259.18L104.509 246.567Z" fill="#DC3C1E"/>
<path d="M103.037 239.714C103.037 239.714 109.502 235.239 106.983 230.994C104.472 226.75 98.2104 230.467 98.2104 230.467C98.2104 230.467 96.0428 227.98 92.6155 229.635C89.1881 231.29 88.5027 235.858 88.5027 235.858C88.5027 235.858 85.1494 235.553 84.677 239.622C84.2046 243.691 88.3544 247.621 88.3544 247.621L103.037 239.705V239.714Z" fill="#0017BF"/>
<path d="M91.5232 250.099L90.9118 257.867C90.9118 257.867 92.1438 260.206 96.6642 260.937C100.036 261.473 101.222 259.328 101.222 259.328L101.12 256.831L100.953 252.956L92.8756 250.506L91.5232 250.09V250.099Z" fill="#FFBB87"/>
<path d="M92.8749 250.506C92.8749 250.719 92.9398 250.978 93.0417 251.274C94.4775 255.287 99.1739 256.499 101.119 256.831L100.952 252.957L92.8749 250.506Z" fill="black"/>
<path d="M104.074 235.387C104.074 235.387 107.39 245.448 105.361 250.728C103.333 256.008 98.4512 254.695 95.5889 253.363C92.7265 252.032 91.5223 250.09 91.5223 250.09C91.5223 250.09 88.6693 250.765 87.0575 248.028C85.4457 245.281 86.8629 242.443 88.5118 241.906C90.1606 241.379 91.9299 242.692 91.9299 242.692L90.7164 239.742C90.7164 239.742 98.2566 226.057 104.083 235.368L104.074 235.387Z" fill="#FFBB87"/>
<path d="M91.3288 246.898C91.4214 246.898 91.5233 246.861 91.5881 246.778C91.7085 246.639 91.69 246.427 91.5511 246.306L88.2441 243.514C88.1052 243.394 87.8921 243.412 87.7717 243.551C87.6513 243.689 87.6698 243.902 87.8088 244.022L91.1157 246.815C91.1805 246.871 91.2547 246.898 91.338 246.898H91.3288Z" fill="black"/>
<path d="M88.1319 246.604C88.1319 246.604 88.169 246.604 88.1875 246.604L90.5404 246.188C90.7256 246.16 90.8461 245.984 90.8183 245.799C90.7812 245.614 90.6145 245.494 90.4292 245.522L88.0764 245.938C87.8911 245.966 87.7707 246.141 87.7985 246.326C87.8263 246.493 87.9745 246.604 88.1319 246.604Z" fill="black"/>
<path d="M97.2659 239.003C97.3585 239.003 97.4511 238.966 97.516 238.892C98.5998 237.69 99.7577 238.42 99.804 238.448C99.9615 238.55 100.165 238.503 100.267 238.346C100.369 238.189 100.323 237.976 100.165 237.884C99.5909 237.514 98.1829 237.144 97.0065 238.439C96.8768 238.577 96.8954 238.79 97.0343 238.92C97.0991 238.975 97.1825 239.003 97.2566 239.003H97.2659Z" fill="black"/>
<path d="M104.844 239.224C104.936 239.224 105.02 239.187 105.084 239.122C105.214 238.993 105.214 238.771 105.084 238.642C103.982 237.578 102.704 238.188 102.648 238.216C102.481 238.299 102.407 238.503 102.491 238.669C102.574 238.836 102.778 238.9 102.945 238.826C102.991 238.808 103.871 238.41 104.612 239.132C104.677 239.196 104.76 239.224 104.844 239.224Z" fill="black"/>
<path d="M102.703 247.333C102.842 247.333 102.962 247.25 103.018 247.12C104.222 244.013 102.277 242.025 102.194 241.942C102.064 241.812 101.851 241.812 101.721 241.942C101.591 242.071 101.591 242.284 101.721 242.423C101.795 242.497 103.426 244.189 102.388 246.88C102.323 247.055 102.407 247.25 102.583 247.314C102.62 247.333 102.666 247.333 102.703 247.333Z" fill="black"/>
<path d="M104.509 242.951C104.509 242.951 104.556 242.951 104.574 242.951C104.76 242.914 104.88 242.738 104.843 242.553L104.5 240.732C104.463 240.547 104.287 240.426 104.102 240.463C103.917 240.5 103.796 240.676 103.833 240.861L104.176 242.683C104.204 242.84 104.352 242.96 104.509 242.96V242.951Z" fill="black"/>
<path d="M99.5817 242.665C99.5817 242.665 99.628 242.665 99.6466 242.665C99.8318 242.628 99.9522 242.452 99.9152 242.267L99.5724 240.446C99.5354 240.261 99.3594 240.14 99.1741 240.177C98.9889 240.214 98.8684 240.39 98.9055 240.575L99.2482 242.397C99.276 242.554 99.4242 242.674 99.5817 242.674V242.665Z" fill="black"/>
<path d="M104.722 237.644C104.722 237.644 104 236.016 102.064 235.85C100.128 235.683 98.8865 236.959 98.8865 236.959C98.8865 236.959 99.4793 240.288 96.7096 241.814C93.9307 243.34 91.9298 242.693 91.9298 242.693L90.0679 241.86L88.8823 238.957L94.8848 233.427L102.351 230.209L105.741 233.806L104.722 237.625V237.644Z" fill="#0017BF"/>
<path d="M100.749 249.452C100.971 249.452 101.119 249.295 101.11 249.11C101.11 248.925 100.962 248.805 100.767 248.777C100.693 248.796 99.1739 248.777 98.6367 247.353C98.5718 247.177 98.3773 247.094 98.2013 247.159C98.0253 247.224 97.9419 247.418 98.0068 247.593C98.5626 249.073 100.017 249.452 100.739 249.452H100.749Z" fill="black"/>
<path d="M191.602 312.249H120.554C117.97 312.249 115.876 310.158 115.876 307.579L115.876 248.009C115.876 245.43 117.97 243.339 120.554 243.339H191.602C194.186 243.339 196.28 245.43 196.28 248.009V307.579C196.28 310.158 194.186 312.249 191.602 312.249Z" fill="#373178"/>
<path d="M108.65 276.702C108.65 276.702 118.386 271.551 121.341 271.108C124.296 270.664 129.344 273.91 129.344 273.91L126.797 275.38C126.797 275.38 130.78 284.072 130.039 285.394C129.298 286.717 127.38 285.394 127.38 285.394C127.38 285.394 122.804 290.111 121.48 290.258C120.155 290.406 113.069 287.605 113.069 287.605L108.641 276.702H108.65Z" fill="#FFBB87"/>
<path d="M109.975 274.641L88.8733 282.15L91.0408 256.156C91.0408 256.156 74.8581 261.085 70.5878 277.73C66.3082 294.375 72.5053 307.626 85.7794 308.81C99.0535 309.984 117.052 291.434 117.052 291.434L109.975 274.641Z" fill="#DC3C1E"/>
<path d="M148.25 237.052C148.25 237.052 145.888 233.085 143.711 236.404C141.534 239.724 143.396 249.193 145.165 249.628C147.064 250.099 148.25 246.484 148.25 246.484C148.25 246.484 148.611 249.572 150.612 249.628C152.604 249.683 153.512 246.484 153.512 246.484C153.512 246.484 154.503 250.09 156.235 249.628C158.134 249.11 159.134 237.052 155.512 235.794C153.771 235.193 152.789 237.052 152.789 237.052C152.789 237.052 152.113 234.758 150.121 235.054C148.13 235.35 148.259 237.052 148.259 237.052H148.25Z" fill="#FFBB87"/>
<path d="M126.797 275.38L133.846 271.062L135.652 274.659L128.344 279.005L126.797 275.38Z" fill="white"/>
<path d="M137.903 275.86C136.393 275.86 134.605 275.398 133.781 273.752C132.531 271.255 134.207 268.204 134.411 267.871L136.755 269.212C136.449 269.748 135.689 271.523 136.199 272.541C136.56 273.262 138.153 273.206 138.829 273.068L139.395 275.712C138.978 275.805 138.459 275.86 137.912 275.86H137.903Z" fill="white"/>
<path d="M126.797 275.713C126.861 275.713 126.936 275.695 126.991 275.648C127.139 275.537 127.176 275.325 127.065 275.177L125.259 272.661C125.148 272.513 124.944 272.477 124.787 272.587C124.638 272.698 124.601 272.911 124.712 273.059L126.519 275.574C126.584 275.667 126.685 275.713 126.797 275.713Z" fill="black"/>
<path d="M127.39 285.728C127.455 285.728 127.529 285.709 127.585 285.663C127.733 285.552 127.77 285.349 127.659 285.191L126.631 283.758C126.52 283.61 126.307 283.573 126.158 283.675C126.01 283.786 125.973 283.989 126.084 284.146L127.112 285.58C127.177 285.672 127.279 285.718 127.39 285.718V285.728Z" fill="black"/>
<path d="M148.251 246.399C148.436 246.399 148.584 246.251 148.584 246.066V237.05C148.584 236.865 148.436 236.717 148.251 236.717C148.065 236.717 147.917 236.865 147.917 237.05V246.066C147.917 246.251 148.065 246.399 148.251 246.399Z" fill="black"/>
<path d="M153.513 246.824C153.726 246.806 153.865 246.649 153.846 246.464L153.123 237.032C153.105 236.847 152.938 236.708 152.762 236.717C152.577 236.736 152.438 236.893 152.447 237.078L153.17 246.51C153.179 246.686 153.327 246.824 153.503 246.824H153.513Z" fill="black"/>
<path d="M97.5353 261.288C97.5817 261.288 97.6372 261.288 97.6835 261.288C99.1378 261.251 100.407 260.669 101.463 259.559C101.593 259.42 101.583 259.208 101.454 259.078C101.324 258.949 101.102 258.958 100.972 259.088C99.3602 260.789 97.2296 261.066 94.6545 259.929C92.6722 259.051 91.153 257.626 91.1437 257.617C91.0048 257.488 90.7918 257.497 90.6621 257.627C90.5324 257.765 90.5417 257.978 90.6713 258.107C90.8103 258.237 94.0617 261.288 97.5261 261.288H97.5353Z" fill="white"/>
<path d="M83.76 282.852C83.76 282.852 83.8526 282.852 83.8897 282.824C92.8471 279.042 105.686 276.222 105.816 276.194C106.001 276.157 106.112 275.972 106.075 275.796C106.038 275.611 105.853 275.5 105.677 275.537C105.547 275.565 92.6434 278.395 83.6303 282.205C83.4543 282.279 83.3802 282.473 83.4543 282.648C83.5099 282.778 83.6303 282.852 83.7692 282.852H83.76Z" fill="white"/>
<path d="M88.336 280.013C89.6792 280.013 90.976 279.967 91.8653 279.921C92.0227 279.921 92.1524 279.8 92.1802 279.643C92.208 279.486 92.1246 279.338 91.9857 279.273C91.6985 279.144 85.0291 276.203 82.7133 278.09C82.2687 278.46 82.2686 278.783 82.3427 278.987C82.6577 279.819 85.6034 280.013 88.3267 280.013H88.336ZM90.2535 279.31C86.7891 279.403 83.371 279.236 82.9912 278.755C83.0097 278.755 83.0468 278.691 83.1487 278.617C84.464 277.544 87.9655 278.478 90.2535 279.31Z" fill="white"/>
<path d="M124.685 243.683C124.842 243.683 124.963 243.581 125.009 243.442C125.241 242.675 126.334 238.791 125.435 237.792C125.296 237.635 125.028 237.469 124.62 237.543C124.296 237.607 124.036 237.792 123.86 238.088C123.055 239.448 124.231 243.054 124.361 243.461C124.407 243.6 124.537 243.692 124.685 243.692V243.683ZM124.815 238.19C124.889 238.19 124.916 238.218 124.935 238.236C125.315 238.662 125.055 240.474 124.676 242.083C124.351 240.816 124.046 239.096 124.444 238.421C124.518 238.292 124.62 238.218 124.75 238.199C124.778 238.199 124.796 238.199 124.824 238.199L124.815 238.19Z" fill="white"/>
<path d="M99.989 305.054C100.045 305.054 100.091 305.045 100.137 305.017C100.23 304.971 109.715 300.134 114.995 293.883C115.116 293.745 115.097 293.532 114.958 293.412C114.819 293.292 114.606 293.31 114.486 293.449C109.299 299.589 99.9335 304.36 99.8408 304.416C99.6741 304.499 99.6092 304.703 99.6926 304.869C99.7482 304.989 99.8686 305.054 99.9983 305.054H99.989Z" fill="white"/>
<path d="M149.557 334.776C149.64 334.776 149.714 334.748 149.779 334.693C149.918 334.573 149.927 334.351 149.807 334.221L146.648 330.735C146.518 330.596 146.305 330.587 146.166 330.707C146.027 330.827 146.018 331.049 146.139 331.179L149.297 334.665C149.362 334.739 149.455 334.776 149.547 334.776H149.557Z" fill="white"/>
<path d="M146.398 334.775C146.491 334.775 146.583 334.738 146.648 334.664L149.807 331.178C149.927 331.039 149.918 330.826 149.779 330.706C149.64 330.577 149.427 330.595 149.297 330.734L146.139 334.22C146.018 334.359 146.027 334.571 146.166 334.692C146.231 334.747 146.315 334.775 146.389 334.775H146.398Z" fill="white"/>
<path d="M169.491 382.092H220.716C222.661 382.092 224.245 380.511 224.245 378.569V337.086C224.245 335.145 222.661 333.563 220.716 333.563H169.491C167.545 333.563 165.961 335.145 165.961 337.086V378.569C165.961 380.511 167.545 382.092 169.491 382.092ZM220.716 334.229C222.291 334.229 223.569 335.505 223.569 337.077V378.56C223.569 380.132 222.291 381.408 220.716 381.408H169.491C167.916 381.408 166.638 380.132 166.638 378.56V337.077C166.638 335.505 167.916 334.229 169.491 334.229H220.716Z" fill="#E64218"/>
<path d="M166.295 343.153H223.912C224.097 343.153 224.245 343.005 224.245 342.81C224.245 342.616 224.097 342.468 223.912 342.468H166.295C166.11 342.468 165.961 342.616 165.961 342.81C165.961 343.005 166.11 343.153 166.295 343.153Z" fill="#E64218"/>
<path d="M217.149 340.618C217.242 340.618 217.344 340.581 217.409 340.498L220.475 336.892C220.595 336.753 220.577 336.54 220.438 336.42C220.299 336.3 220.086 336.318 219.965 336.457L216.899 340.063C216.779 340.202 216.797 340.415 216.936 340.535C217.001 340.591 217.075 340.618 217.159 340.618H217.149Z" fill="#E64218"/>
<path d="M220.225 340.618C220.299 340.618 220.383 340.591 220.448 340.535C220.587 340.415 220.605 340.202 220.485 340.063L217.418 336.457C217.298 336.318 217.085 336.3 216.946 336.42C216.807 336.54 216.789 336.753 216.909 336.892L219.975 340.498C220.04 340.581 220.133 340.618 220.235 340.618H220.225Z" fill="#E64218"/>
<path d="M349.89 434.459H300.536C295.983 434.459 292.292 430.774 292.292 426.229V366.455C292.292 361.91 295.983 358.225 300.536 358.225H349.89C354.443 358.225 358.134 361.91 358.134 366.455V426.229C358.134 430.774 354.443 434.459 349.89 434.459Z" fill="#1D4568"/>
<path d="M344.935 434.459H295.581C291.028 434.459 287.337 430.774 287.337 426.229V366.455C287.337 361.91 291.028 358.225 295.581 358.225H344.935C349.488 358.225 353.179 361.91 353.179 366.455V426.229C353.179 430.774 349.488 434.459 344.935 434.459Z" fill="#40398D"/>
<path d="M239.326 346.131C239.419 346.131 239.502 346.094 239.567 346.029C239.632 345.964 239.669 345.881 239.669 345.789V241.231C239.669 241.046 239.521 240.898 239.335 240.898C239.15 240.898 239.002 241.046 239.002 241.231V345.456L156.44 345.4V285.433C156.44 285.248 156.291 285.1 156.106 285.1C155.921 285.1 155.773 285.248 155.773 285.433V345.733C155.773 345.918 155.921 346.066 156.106 346.075L239.345 346.131H239.326Z" fill="#E64218"/>
<path d="M253.369 268.539C253.369 268.539 251.674 273.875 254.601 274.975C257.538 276.075 257.547 273.033 257.547 273.033L255.731 269.214L253.369 268.548V268.539Z" fill="#FFBB87"/>
<path d="M266.893 279.146C266.893 279.146 263.058 269.279 259.565 267.559C256.073 265.839 249.432 266.052 248.413 267.864C247.403 269.667 250.441 269.704 251.229 269.519C252.016 269.334 254.387 269.852 254.943 270.657C255.508 271.461 255.73 274.846 255.73 274.846C255.73 274.846 253.137 275.373 252.016 274.429C250.895 273.486 249.765 271.785 248.978 273.033C248.19 274.272 251.34 280.801 253.6 282.595C255.851 284.398 261.594 286.645 261.594 286.645L266.893 279.146Z" fill="#FFBB87"/>
<path d="M255.74 275.179C255.953 275.16 256.092 274.994 256.074 274.809C256.074 274.762 255.962 273.644 255.546 271.794C255.082 269.76 253.239 269.371 253.156 269.353C252.98 269.316 252.794 269.436 252.757 269.621C252.72 269.806 252.841 269.982 253.017 270.019C253.082 270.028 254.517 270.352 254.879 271.951C255.286 273.755 255.388 274.864 255.397 274.873C255.416 275.049 255.564 275.179 255.731 275.179H255.74Z" fill="black"/>
<path d="M233.239 260.78H245.411C246.076 260.78 246.615 261.318 246.615 261.982V274.133C246.615 274.797 246.076 275.335 245.411 275.335H233.239C232.574 275.335 232.035 274.797 232.035 274.133V261.982C232.035 261.318 232.574 260.78 233.239 260.78Z" fill="#373178"/>
<path d="M233.239 279.367H245.411C246.076 279.367 246.615 279.905 246.615 280.569V292.72C246.615 293.384 246.076 293.922 245.411 293.922H233.239C232.574 293.922 232.035 293.384 232.035 292.72V280.569C232.035 279.905 232.574 279.367 233.239 279.367Z" fill="#373178"/>
<path d="M233.239 297.953H245.411C246.076 297.953 246.615 298.491 246.615 299.155V311.306C246.615 311.969 246.076 312.508 245.411 312.508H233.239C232.574 312.508 232.035 311.969 232.035 311.306V299.155C232.035 298.491 232.574 297.953 233.239 297.953Z" fill="#373178"/>
<path d="M245.291 276.287L252.108 270.544L250.358 268.482L245.532 272.56L241.604 268.288L239.612 270.119L245.291 276.287Z" fill="white"/>
<path d="M239.483 292.082L245.078 287.329L243.327 285.276L239.919 288.17L235.528 282.344L233.36 283.972L239.483 292.082Z" fill="white"/>
<path d="M239.483 310.677L245.078 305.924L243.327 303.871L239.919 306.766L235.528 300.931L233.36 302.558L239.483 310.677Z" fill="white"/>
<path d="M256.953 220H221.244C219.78 220 218.595 221.184 218.595 222.645V242.286C218.595 243.747 219.78 244.93 221.244 244.93H256.953C258.417 244.93 259.603 243.747 259.603 242.286V222.645C259.603 221.184 258.417 220 256.953 220Z" fill="#5EF939"/>
<path d="M139.395 334.747V390.526C139.395 393.873 142.452 396.583 146.204 396.583H244.403C248.173 396.583 251.229 393.873 251.229 390.526V334.747C251.229 331.4 248.173 328.69 244.403 328.69H146.204C142.452 328.69 139.395 331.4 139.395 334.747Z" fill="#40398D"/>
<path d="M180.285 344.733H203.896C204.416 344.733 204.837 345.155 204.837 345.674C204.837 346.194 204.416 346.615 203.896 346.615H180.285C179.765 346.615 179.344 346.194 179.344 345.674C179.344 345.155 179.765 344.733 180.285 344.733Z" fill="#5EF939"/>
<path d="M156.466 354.418H198.253C198.772 354.418 199.193 354.839 199.193 355.359C199.193 355.878 198.772 356.299 198.253 356.299H156.466C155.947 356.299 155.526 355.878 155.526 355.359C155.526 354.839 155.947 354.418 156.466 354.418Z" fill="#FFB904"/>
<path d="M203.868 354.418H220.953C221.472 354.418 221.894 354.839 221.894 355.359C221.894 355.878 221.472 356.299 220.953 356.299H203.868C203.349 356.299 202.928 355.878 202.928 355.359C202.928 354.839 203.349 354.418 203.868 354.418Z" fill="#5EF939"/>
<path d="M156.466 381.679H198.253C198.772 381.679 199.193 382.101 199.193 382.62C199.193 383.14 198.772 383.561 198.253 383.561H156.466C155.947 383.561 155.526 383.14 155.526 382.62C155.526 382.101 155.947 381.679 156.466 381.679Z" fill="#FFB904"/>
<path d="M203.868 381.679H236.223C236.743 381.679 237.164 382.101 237.164 382.62C237.164 383.14 236.743 383.561 236.223 383.561H203.868C203.349 383.561 202.928 383.14 202.928 382.62C202.928 382.101 203.349 381.679 203.868 381.679Z" fill="#5EF939"/>
<path d="M156.466 367.82H198.253C198.772 367.82 199.193 368.241 199.193 368.761C199.193 369.28 198.772 369.701 198.253 369.701H156.466C155.947 369.701 155.526 369.28 155.526 368.761C155.526 368.241 155.947 367.82 156.466 367.82Z" fill="#5EF939"/>
<path d="M203.868 367.82H220.953C221.472 367.82 221.894 368.241 221.894 368.761C221.894 369.28 221.472 369.701 220.953 369.701H203.868C203.349 369.701 202.928 369.28 202.928 368.761C202.928 368.241 203.349 367.82 203.868 367.82Z" fill="#5EF939"/>
<path d="M207.736 363L179.166 363C178.647 363 178.226 362.579 178.226 362.06C178.226 361.54 178.647 361.119 179.166 361.119L207.736 361.119C208.255 361.119 208.677 361.54 208.677 362.06C208.677 362.579 208.255 363 207.736 363Z" fill="#FFB904"/>
<path d="M173.551 363L156.466 363C155.947 363 155.525 362.579 155.525 362.06C155.525 361.54 155.947 361.119 156.466 361.119L173.551 361.119C174.07 361.119 174.491 361.54 174.491 362.06C174.491 362.579 174.07 363 173.551 363Z" fill="#5EF939"/>
<path d="M207.736 376.403L179.166 376.403C178.647 376.403 178.226 375.981 178.226 375.462C178.226 374.942 178.647 374.521 179.166 374.521L207.736 374.521C208.255 374.521 208.677 374.942 208.677 375.462C208.677 375.981 208.255 376.403 207.736 376.403Z" fill="#FFB904"/>
<path d="M173.551 376.403L156.466 376.403C155.947 376.403 155.525 375.981 155.525 375.462C155.525 374.942 155.947 374.521 156.466 374.521L173.551 374.521C174.07 374.521 174.491 374.942 174.491 375.462C174.491 375.981 174.07 376.403 173.551 376.403Z" fill="#5EF939"/>
<path d="M156.245 346.691L161.089 348.829V347.452L157.798 346.119V346.061L161.089 344.728V343.351L156.245 345.499V346.691ZM167.552 341.515H166.302L164.026 349.982H165.267L167.552 341.515ZM161.089 368.691V367.499L156.245 365.351V366.728L159.536 368.061V368.119L156.245 369.452V370.829L161.089 368.691Z" fill="#3DF130"/>
<path d="M209.512 344.733H236.223C236.743 344.733 237.164 345.155 237.164 345.674C237.164 346.194 236.743 346.615 236.223 346.615H209.512C208.993 346.615 208.572 346.194 208.572 345.674C208.572 345.155 208.993 344.733 209.512 344.733Z" fill="#FFB904"/>
<path d="M321.638 258.348C321.638 258.348 331.633 255.666 339.062 264.756C346.501 273.846 341.878 285.035 330.096 284.711C318.322 284.388 315.58 272.375 315.58 272.375L321.629 258.357L321.638 258.348Z" fill="#0017BF"/>
<path d="M306.632 265.83C306.632 265.83 303.788 262.815 304.502 258.044C304.983 254.807 306.401 253.734 306.401 253.734C306.401 253.734 304.122 249.379 310.652 249.518C317.174 249.656 322.519 249.102 325.427 254.705C327.141 258.007 326.455 265.173 326.455 265.173L306.632 265.83Z" fill="#0017BF"/>
<path d="M321.045 270.914L320.999 278.857C320.999 278.857 319.554 281.132 314.894 281.483C311.421 281.742 310.337 279.958 310.337 279.958L311.217 273.013L319.637 271.219L321.045 270.914Z" fill="#FFBB87"/>
<path d="M321.036 270.435C321.018 270.647 320.934 270.906 320.805 271.202C318.998 275.16 312.718 276.778 310.717 276.945L311.217 273.024L321.036 270.435Z" fill="black"/>
<path d="M309.541 254.89C309.541 254.89 305.307 264.831 306.919 270.37C308.531 275.918 313.598 274.993 316.627 273.884C319.656 272.783 321.045 270.906 321.045 270.906C321.045 270.906 323.889 271.84 325.76 269.186C327.632 266.532 326.437 263.527 324.806 262.842C323.176 262.167 321.268 263.351 321.268 263.351L322.75 260.457C322.75 260.457 316.256 245.902 309.541 254.871V254.89Z" fill="#FFBB87"/>
<path d="M321.267 263.37C321.267 263.37 317.025 264.313 313.968 259.634C310.911 254.955 311.152 253.004 311.152 253.004L308.299 257.951C308.299 257.951 307.576 254.576 308.892 252.384C310.207 250.193 311.624 250.618 311.624 250.618L321.073 252.782L323.694 260.254L321.277 263.37H321.267Z" fill="#0017BF"/>
<path d="M310.568 267.485C310.568 267.485 310.643 267.485 310.67 267.466C310.846 267.411 310.948 267.217 310.883 267.041C310.281 265.201 311.078 263.194 311.087 263.176C311.161 263 311.078 262.806 310.902 262.732C310.726 262.658 310.531 262.741 310.457 262.917C310.42 263.009 309.559 265.173 310.235 267.244C310.281 267.383 310.411 267.476 310.559 267.476L310.568 267.485Z" fill="black"/>
<path d="M321.758 268.021C321.851 268.021 321.943 267.984 322.008 267.91L324.657 265.016C324.787 264.877 324.778 264.664 324.639 264.535C324.5 264.405 324.287 264.414 324.157 264.553L321.508 267.448C321.378 267.586 321.387 267.799 321.526 267.928C321.591 267.984 321.675 268.021 321.758 268.021Z" fill="black"/>
<path d="M324.602 267.217C324.769 267.217 324.917 267.097 324.936 266.921C324.963 266.736 324.834 266.57 324.649 266.542L322.777 266.292C322.592 266.274 322.425 266.394 322.398 266.579C322.37 266.764 322.499 266.93 322.685 266.958L324.556 267.208C324.556 267.208 324.584 267.208 324.602 267.208V267.217Z" fill="black"/>
<path d="M308.049 259.42C308.049 259.42 308.095 259.42 308.114 259.42L309.827 259.087C310.012 259.05 310.133 258.874 310.096 258.689C310.059 258.504 309.883 258.393 309.698 258.421L307.984 258.754C307.799 258.791 307.678 258.967 307.715 259.152C307.743 259.309 307.891 259.429 308.049 259.429V259.42Z" fill="black"/>
<path d="M314.589 259.818C314.728 259.818 314.858 259.735 314.904 259.596C314.969 259.42 314.876 259.226 314.709 259.161L312.931 258.496C312.755 258.431 312.56 258.523 312.496 258.69C312.431 258.866 312.523 259.06 312.69 259.124L314.469 259.79C314.469 259.79 314.543 259.809 314.589 259.809V259.818Z" fill="black"/>
<path d="M309.004 263.479C309.152 263.479 309.291 263.387 309.328 263.239L309.847 261.445C309.874 261.334 309.847 261.223 309.782 261.13L309.217 260.474C309.096 260.335 308.883 260.317 308.744 260.437C308.605 260.557 308.587 260.77 308.707 260.908L309.152 261.436L308.689 263.063C308.633 263.239 308.744 263.433 308.92 263.479C308.948 263.479 308.985 263.488 309.013 263.488L309.004 263.479Z" fill="black"/>
<path d="M314.023 263.87C314.172 263.87 314.301 263.777 314.348 263.629L314.866 261.835C314.894 261.724 314.866 261.604 314.792 261.521L314.014 260.652C313.894 260.513 313.671 260.504 313.532 260.624C313.394 260.744 313.384 260.957 313.505 261.105L314.153 261.835L313.69 263.453C313.634 263.629 313.746 263.823 313.922 263.87C313.949 263.87 313.986 263.879 314.014 263.879L314.023 263.87Z" fill="black"/>
<path d="M311.773 270.351C311.856 270.351 311.939 270.351 312.023 270.332C313.125 270.147 313.736 268.816 313.764 268.76C313.82 268.64 313.801 268.51 313.718 268.409C313.634 268.307 313.505 268.261 313.384 268.288L310.346 268.954C310.226 268.982 310.133 269.065 310.096 269.185C310.059 269.306 310.096 269.426 310.17 269.518C310.689 270.082 311.226 270.36 311.763 270.36L311.773 270.351ZM312.736 269.121C312.514 269.38 312.236 269.611 311.911 269.666C311.671 269.713 311.421 269.639 311.152 269.463L312.736 269.121Z" fill="black"/>
<path d="M307.197 328.682C307.197 328.682 276.481 330.411 268.496 336.588C260.511 342.765 260.066 407.43 260.066 407.43L285.123 410.279L285.355 346.973L307.197 328.682Z" fill="#E64218"/>
<path d="M323.083 279.311C323.083 279.311 322.203 276.222 321.758 276.222C321.175 276.222 317.951 277.776 315.015 277.757C312.088 277.739 311.578 276.824 310.707 276.944C309.837 277.064 309.512 279.311 309.512 279.311C309.512 279.311 304.084 281.114 297.776 282.575C291.468 284.036 281.556 282.122 277.388 280.097C273.219 278.072 266.124 273.689 266.124 273.689L258.797 292.914C258.797 292.914 273.664 311.916 287.299 312.027C300.935 312.138 317.377 309.438 317.377 309.438L323.074 279.302L323.083 279.311Z" fill="#0017BF"/>
<path d="M344.009 329.673C344.009 329.673 346.26 353.845 342.666 356.119C334.273 361.437 311.292 360.096 311.18 361.085C311.069 362.075 313.756 406.137 313.756 406.137L283.474 411.778C283.474 411.778 272.349 347.464 278.648 337.089C284.938 326.714 322.046 327.694 322.046 327.694L344 329.673H344.009Z" fill="#E64218"/>
<path d="M285.058 324.021L301.88 322.347L295.535 295.068L278.713 296.742L285.058 324.021Z" fill="#FFB904"/>
<path d="M282.538 324.271L299.351 322.606L293.005 295.318L276.193 296.992L282.538 324.271Z" fill="white"/>
<path d="M304.39 307.202L303.76 327.897C303.76 327.897 317.053 331.605 327.076 332.511C337.098 333.408 343.972 332.511 343.972 332.511V324.531L304.381 307.211L304.39 307.202Z" fill="#0017BF"/>
<path d="M306.558 309.891C306.558 309.891 304.548 305.73 302.519 304.269C300.49 302.808 297.397 302.817 297.397 302.817L298.008 305.786C298.008 305.786 293.293 306.405 292.496 305.786C291.7 305.166 288.319 302.466 287.42 302.697C286.522 302.919 288.43 305.786 288.43 305.786C288.43 305.786 286.401 303.927 285.725 305.055C285.049 306.183 287.642 310.677 287.642 310.677C287.642 310.677 285.28 308.319 286.068 312.027C286.855 315.736 293.71 319.333 296.081 319.675C298.453 320.008 307.947 320.045 307.947 320.045L306.549 309.891H306.558Z" fill="#FFBB87"/>
<path d="M298.007 306.128C298.007 306.128 298.054 306.128 298.072 306.128L300.555 305.62C300.74 305.583 300.851 305.407 300.814 305.222C300.777 305.037 300.601 304.926 300.416 304.963L297.933 305.472C297.748 305.509 297.637 305.684 297.674 305.869C297.711 306.027 297.85 306.138 298.007 306.138V306.128Z" fill="black"/>
<path d="M295.535 310.011C295.711 310.011 295.859 309.873 295.868 309.688C295.868 309.503 295.729 309.346 295.544 309.336C295.525 309.336 293.228 309.216 291.959 308.587C290.681 307.949 288.708 305.6 288.689 305.582C288.569 305.434 288.356 305.425 288.217 305.545C288.078 305.665 288.059 305.878 288.17 306.017C288.254 306.118 290.264 308.495 291.653 309.198C293.052 309.9 295.405 310.011 295.507 310.021C295.507 310.021 295.516 310.021 295.525 310.021L295.535 310.011Z" fill="black"/>
<path d="M294.969 314.284C295.155 314.284 295.303 314.136 295.303 313.951C295.303 313.766 295.164 313.609 294.969 313.609C294.951 313.609 293.061 313.554 291.449 312.777C289.356 311.769 287.883 310.447 287.864 310.437C287.725 310.317 287.512 310.327 287.383 310.465C287.262 310.604 287.272 310.817 287.411 310.946C287.475 311.002 288.967 312.333 291.153 313.397C292.894 314.238 294.867 314.294 294.951 314.303L294.969 314.284Z" fill="black"/>
<path d="M243.319 226.835H251.748V235.25H243.319V226.835Z" fill="#DC3C1E"/>
<path d="M232.137 223.821L229.516 228.361L226.895 232.901H232.137H237.39L234.768 228.361L232.137 223.821Z" fill="#E64218"/>
<path d="M239.428 241.094C236.195 241.094 233.574 238.477 233.574 235.249C233.574 232.022 236.195 229.405 239.428 229.405C242.661 229.405 245.282 232.022 245.282 235.249C245.282 238.477 242.661 241.094 239.428 241.094Z" fill="white"/>
<path d="M154.281 299.359C154.281 300.348 155.087 301.153 156.078 301.153C157.069 301.153 157.875 300.348 157.875 299.359C157.875 298.369 157.069 297.565 156.078 297.565C155.087 297.565 154.281 298.369 154.281 299.359Z" fill="#E64218"/>
<path d="M156.078 324.272C155.085 324.272 154.281 323.469 154.281 322.478C154.281 321.487 155.085 320.684 156.078 320.684C157.07 320.684 157.875 321.487 157.875 322.478C157.875 323.469 157.07 324.272 156.078 324.272Z" fill="#E64218"/>
<path d="M237.529 320.6C237.529 321.59 238.335 322.394 239.326 322.394C240.317 322.394 241.123 321.59 241.123 320.6C241.123 319.611 240.317 318.806 239.326 318.806C238.335 318.806 237.529 319.611 237.529 320.6Z" fill="#E64218"/>
<path d="M139.395 334.747V336.356H251.238V334.747C251.238 331.4 248.181 328.69 244.411 328.69H146.213C142.461 328.69 139.404 331.4 139.404 334.747H139.395Z" fill="#373178"/>
<path d="M282.621 405.008C282.621 405.008 282.659 405.008 282.686 405.008C282.872 404.971 282.992 404.796 282.955 404.611C282.862 404.102 273.451 353.502 277.453 342.923C281.417 332.464 306.011 332.196 306.261 332.187C306.428 332.187 306.576 332.057 306.595 331.891C306.613 331.724 306.511 331.567 306.344 331.521L300.573 330.023C300.397 329.977 300.212 330.088 300.166 330.263C300.12 330.439 300.231 330.624 300.407 330.68L303.927 331.595C297.544 331.928 280.25 333.657 276.832 342.682C272.756 353.437 281.908 402.65 282.297 404.74C282.325 404.897 282.473 405.017 282.631 405.017L282.621 405.008Z" fill="white"/>
<path d="M321.759 279.081C321.759 279.081 341.156 279.534 352.309 301.459C363.462 323.393 351.744 334.638 332.819 332.16C313.895 329.682 304.381 323.726 304.381 323.726L306.549 305.13L321.759 279.081Z" fill="#0017BF"/>
<path d="M333.588 308.07C333.736 308.07 333.875 307.978 333.912 307.83C333.968 307.654 333.857 307.46 333.681 307.414C325.918 305.194 309.921 305.213 309.763 305.204C309.578 305.204 309.43 305.352 309.43 305.546C309.43 305.731 309.578 305.879 309.763 305.879C310.449 305.879 325.946 305.906 333.496 308.061C333.523 308.061 333.56 308.07 333.588 308.07Z" fill="#FFB904"/>
<path d="M317.108 281.595C320.193 281.595 323.139 279.672 323.268 279.589C323.426 279.487 323.463 279.274 323.361 279.126C323.259 278.969 323.046 278.932 322.889 279.034C322.861 279.052 319.665 281.124 316.645 280.911C316.46 280.883 316.293 281.041 316.284 281.226C316.275 281.41 316.414 281.577 316.599 281.586C316.766 281.595 316.932 281.605 317.099 281.605L317.108 281.595Z" fill="#FFB904"/>
<path d="M288.059 289.806C288.263 289.806 288.457 289.751 288.633 289.631C290.143 288.678 290.588 283.602 290.634 283.028C290.643 282.88 290.56 282.742 290.421 282.686C290.282 282.631 290.125 282.677 290.032 282.788C289.671 283.241 286.521 287.291 286.994 289.002C287.086 289.344 287.318 289.594 287.651 289.723C287.79 289.779 287.92 289.797 288.05 289.797L288.059 289.806ZM289.837 284.184C289.578 286.163 289.041 288.586 288.281 289.057C288.161 289.141 288.04 289.15 287.901 289.094C287.762 289.039 287.688 288.956 287.651 288.817C287.42 287.966 288.67 285.812 289.837 284.175V284.184Z" fill="#FFB904"/>
<path d="M332.495 307.349C335.45 307.349 339.025 307.118 339.535 306.017C339.646 305.777 339.692 305.379 339.238 304.898C336.839 302.309 329.271 306.452 328.956 306.628C328.826 306.701 328.762 306.849 328.789 306.997C328.817 307.145 328.947 307.247 329.104 307.256C329.827 307.293 331.096 307.349 332.495 307.349ZM336.839 304.713C337.645 304.713 338.321 304.898 338.747 305.361C338.831 305.453 338.979 305.629 338.923 305.74C338.571 306.48 334.458 306.766 330.41 306.646C332.198 305.786 334.894 304.723 336.839 304.723V304.713Z" fill="#FFB904"/>
<path d="M311.189 361.416C311.273 361.416 311.356 361.389 311.421 361.324C311.532 361.222 311.56 361.065 311.495 360.926C310.8 359.539 308.447 355.036 307.021 355.036C306.771 355.036 306.446 355.156 306.243 355.637C305.251 358.023 310.43 361.037 311.022 361.37C311.078 361.398 311.134 361.416 311.189 361.416ZM307.03 355.711C307.623 355.711 309.086 357.847 310.328 360.14C308.679 359.04 306.354 357.144 306.873 355.896C306.9 355.822 306.956 355.711 307.021 355.711H307.03Z" fill="white"/>
<path d="M323.667 329.025C323.824 329.025 323.972 328.914 324 328.747C324.037 328.562 323.917 328.387 323.732 328.35C323.639 328.331 313.968 326.491 306.437 322.089C306.27 321.997 306.067 322.052 305.974 322.21C305.881 322.367 305.937 322.579 306.094 322.672C313.727 327.138 323.509 328.997 323.611 329.015C323.63 329.015 323.657 329.015 323.676 329.015L323.667 329.025Z" fill="#FFB904"/>
<path d="M167.341 292.091H144.822C142.955 292.091 141.441 290.58 141.441 288.716V266.236C141.441 264.372 142.955 262.861 144.822 262.861H167.341C169.208 262.861 170.722 264.372 170.722 266.236V288.716C170.722 290.58 169.208 292.091 167.341 292.091Z" fill="#5EF939"/>
<path d="M166.332 280.19L165.294 282.668L166.591 283.898C165.628 285.47 164.312 286.811 162.765 287.809L161.32 286.441L158.856 287.486L158.94 289.446C158.023 289.659 157.069 289.779 156.087 289.779C155.197 289.779 154.327 289.687 153.484 289.502V287.393L151.029 286.33L149.519 287.883C147.963 286.903 146.648 285.59 145.666 284.046L147.111 282.677L146.073 280.199L144.063 280.181C143.869 279.311 143.767 278.405 143.767 277.471C143.767 276.491 143.878 275.538 144.1 274.623L146.073 274.604L147.111 272.126L145.731 270.813C146.722 269.278 148.056 267.974 149.612 267.013L151.029 268.474L153.484 267.41V265.45C154.327 265.265 155.197 265.172 156.087 265.172C157.069 265.172 158.023 265.283 158.94 265.505L158.866 267.318L161.33 268.363L162.682 267.077C164.238 268.067 165.563 269.389 166.545 270.952L165.304 272.126L166.341 274.595L168.083 274.614C168.296 275.529 168.416 276.482 168.416 277.462C168.416 278.387 168.314 279.293 168.12 280.162L166.35 280.181L166.332 280.19ZM162.061 277.471C162.061 274.17 159.384 271.497 156.077 271.497C152.771 271.497 150.094 274.17 150.094 277.471C150.094 280.772 152.771 283.445 156.077 283.445C159.384 283.445 162.061 280.772 162.061 277.471Z" fill="white"/>
</g>
</svg>
