<svg width="643" height="260" viewBox="0 0 643 260" fill="none" xmlns="http://www.w3.org/2000/svg">
<path d="M643 0H0V260H643V0Z" fill="black"/>
<mask id="mask0_1455_33644" style="mask-type:alpha" maskUnits="userSpaceOnUse" x="273" y="0" width="370" height="260">
<path d="M643 0H273V260H643V0Z" fill="black"/>
</mask>
<g mask="url(#mask0_1455_33644)">
<path d="M521.528 232.262H574.556C576.801 232.262 578.625 230.464 578.625 228.252V151.675C578.625 149.462 576.801 147.665 574.556 147.665H521.528C519.283 147.665 517.459 149.462 517.459 151.675V228.252C517.459 230.464 519.283 232.262 521.528 232.262ZM574.556 148.452C576.369 148.452 577.837 149.899 577.837 151.685V228.263C577.837 230.05 576.369 231.496 574.556 231.496H521.528C519.715 231.496 518.247 230.05 518.247 228.263V151.685C518.247 149.899 519.715 148.452 521.528 148.452H574.556Z" fill="white"/>
<path d="M581.55 238.09H528.533C526.5 238.09 524.853 236.466 524.853 234.463V157.896C524.853 155.893 526.5 154.269 528.533 154.269H581.55C583.583 154.269 585.23 155.893 585.23 157.896V234.463C585.23 236.466 583.583 238.09 581.55 238.09Z" fill="#0017BF"/>
<path d="M540.611 191.739C540.342 190.548 540.201 189.314 540.201 188.038C540.201 186.698 540.363 185.39 540.665 184.135L543.083 184.113L544.519 180.721L542.802 179.104C544.162 176.956 545.997 175.137 548.167 173.786L550.045 175.541L553.466 174.105L553.358 171.627C554.632 171.329 555.959 171.17 557.319 171.17C558.561 171.17 559.769 171.297 560.935 171.553V174.243L564.346 175.701L566.31 173.701C568.48 175.02 570.325 176.807 571.696 178.913L569.775 180.71L571.21 184.103L573.952 184.135C574.254 185.39 574.416 186.698 574.416 188.038C574.416 189.314 574.276 190.548 573.995 191.75L571.2 191.782L569.764 195.175L571.761 197.057C570.401 199.174 568.566 200.982 566.418 202.322L564.324 200.195L560.914 201.652V204.545C559.748 204.789 558.539 204.928 557.298 204.928C555.938 204.928 554.599 204.768 553.337 204.47L553.455 201.79L550.034 200.354L548.026 202.237C545.878 200.865 544.054 199.035 542.716 196.876L544.519 195.185L543.083 191.792L540.622 191.771L540.611 191.739ZM557.309 196.228C561.896 196.228 565.619 192.569 565.619 188.038C565.619 183.507 561.907 179.859 557.309 179.859C552.711 179.859 549.009 183.518 549.009 188.038C549.009 192.558 552.732 196.228 557.309 196.228Z" fill="white"/>
<path d="M537.427 216.075C537.071 215.447 536.78 214.766 536.575 214.054C536.348 213.299 536.218 212.533 536.175 211.778L537.535 211.363L537.773 209.214L536.531 208.587C536.941 207.151 537.675 205.822 538.668 204.705L540.028 205.396L541.723 204.024L541.248 202.642C541.917 202.269 542.64 201.961 543.407 201.737C544.108 201.535 544.81 201.408 545.511 201.365L545.965 202.886L548.134 203.152L548.911 201.695C550.358 202.088 551.707 202.79 552.84 203.758L552.063 205.088L553.444 206.768L554.999 206.332C555.376 206.992 555.689 207.704 555.916 208.47C556.132 209.193 556.262 209.916 556.305 210.64L554.729 211.108L554.491 213.256L555.938 213.99C555.528 215.415 554.794 216.734 553.801 217.84L552.257 216.979L550.573 218.361L551.059 219.999C550.444 220.329 549.775 220.605 549.084 220.807C548.307 221.031 547.53 221.158 546.763 221.201L546.375 219.669L544.195 219.414L543.374 220.807C541.928 220.382 540.59 219.648 539.467 218.648L540.201 217.404L538.82 215.724L537.427 216.117V216.075ZM547.627 215.883C550.217 215.128 551.707 212.448 550.94 209.895C550.174 207.343 547.454 205.875 544.864 206.63C542.273 207.385 540.784 210.065 541.55 212.618C542.317 215.17 545.036 216.638 547.627 215.883Z" fill="#5EF939"/>
<path d="M553.686 60H610.192C611.704 60 612.93 61.2079 612.93 62.6978V127.599C612.93 129.089 611.704 130.297 610.192 130.297H553.686C552.174 130.297 550.948 129.089 550.948 127.599V62.6978C550.948 61.2079 552.174 60 553.686 60Z" fill="#0017BF"/>
<path d="M578.27 72.5024H601.81V99.8146H578.27V72.5024Z" fill="#FFB904"/>
<path d="M562.069 92.0957H588.135V117.781H562.069V92.0957Z" fill="#3DF130"/>
<path d="M590.488 84.0325L595.658 84.3654L591.634 87.4193C591.634 87.4193 588.608 86.7101 590.488 84.0325Z" fill="white"/>
<path d="M385.428 173.783C385.428 173.783 411.588 161.669 425.042 164.853C438.511 168.037 444.239 140.566 444.239 140.566C444.239 140.566 405.757 114.311 374.603 160.091C352.072 193.192 383.71 171.656 383.71 171.656L385.428 173.783Z" fill="#FFBB87"/>
<path d="M423.177 215.844L371.959 330.996L402.54 362.071C402.54 362.071 417.962 349.537 433.37 307.448C448.793 265.344 443.299 224.499 443.299 224.499L423.177 215.844Z" fill="#3DF130"/>
<path d="M465.11 105.365C465.11 105.365 443.681 94.0902 450.848 86.6507C458.016 79.2113 467.637 96.406 467.637 96.406L465.096 105.365H465.11Z" fill="#0017BF"/>
<path d="M481.796 90.341C481.796 90.341 468.738 84.2476 461.982 93.8581C455.431 103.194 463.627 112.269 463.627 112.269L479.093 99.4449L481.796 90.341Z" fill="#0017BF"/>
<path d="M468.416 117.771L468.328 128.583C468.328 128.583 470.282 131.709 476.686 132.273C481.459 132.693 483.148 131.651 483.148 131.651L482.532 126.165L481.915 120.825L470.355 118.219L468.416 117.785V117.771Z" fill="#FFBB87"/>
<path d="M470.354 118.217C470.383 118.507 470.486 118.869 470.662 119.259C473.071 124.673 479.769 125.903 482.53 126.163L481.913 120.823L470.354 118.217Z" fill="black"/>
<path d="M483.104 95.3344C483.104 95.3344 489.978 108.882 488.171 116.77C486.364 124.658 479.109 123.819 474.717 122.53C470.325 121.242 468.195 118.753 468.195 118.753C468.195 118.753 464.244 120.301 461.365 116.755C458.487 113.209 459.911 108.896 462.159 107.796C464.406 106.711 467.226 108.202 467.226 108.202L464.876 104.279C464.876 104.279 472.807 83.3503 483.104 95.3344Z" fill="#FFBB87"/>
<path d="M485.644 113.383C485.924 113.383 486.159 113.165 486.173 112.89C486.511 108.1 484.411 105.769 484.323 105.683C484.117 105.465 483.779 105.451 483.573 105.654C483.353 105.842 483.338 106.189 483.529 106.392C483.544 106.406 485.424 108.519 485.101 112.818C485.086 113.108 485.307 113.368 485.6 113.383C485.6 113.383 485.63 113.383 485.644 113.383Z" fill="black"/>
<path d="M467.402 113.92C467.608 113.92 467.813 113.804 467.901 113.602C468.019 113.327 467.901 113.023 467.608 112.907L461.85 110.533C461.571 110.417 461.262 110.533 461.145 110.823C461.027 111.098 461.145 111.402 461.439 111.517L467.196 113.891C467.196 113.891 467.328 113.934 467.402 113.934V113.92Z" fill="black"/>
<path d="M462.379 115.367C462.525 115.367 462.658 115.309 462.76 115.207L465.184 112.703C465.39 112.486 465.375 112.153 465.169 111.951C464.949 111.748 464.611 111.763 464.406 111.965L461.982 114.469C461.776 114.686 461.791 115.019 461.997 115.222C462.099 115.323 462.232 115.367 462.364 115.367H462.379Z" fill="black"/>
<path d="M482.371 117.641C483.883 117.641 484.574 116.541 484.721 115.962C484.765 115.817 484.721 115.658 484.647 115.542C484.559 115.412 484.427 115.339 484.28 115.31C484.265 115.31 482.371 115.006 481.357 113.617C481.225 113.429 480.99 113.356 480.77 113.429C480.549 113.501 480.402 113.689 480.388 113.921C480.388 114.152 480.358 116.266 481.284 117.192C481.577 117.496 481.959 117.655 482.371 117.655H482.385L482.371 117.641ZM483.399 116.179C483.208 116.396 482.841 116.627 482.356 116.584C482.238 116.584 482.136 116.541 482.033 116.439C481.798 116.193 481.651 115.745 481.563 115.281C482.209 115.745 482.899 116.02 483.399 116.164V116.179Z" fill="black"/>
<path d="M480.136 107.971C480.136 107.971 480.254 107.971 480.298 107.942C480.577 107.855 480.739 107.551 480.636 107.276L479.901 105.062L480.489 103.933C480.621 103.672 480.518 103.354 480.254 103.224C479.99 103.093 479.666 103.195 479.534 103.455L478.844 104.772C478.785 104.903 478.77 105.047 478.815 105.178L479.608 107.595C479.681 107.812 479.887 107.957 480.122 107.957L480.136 107.971Z" fill="black"/>
<path d="M487.129 107.277C487.129 107.277 487.246 107.277 487.29 107.248C487.569 107.161 487.731 106.857 487.628 106.582L486.894 104.368L487.481 103.239C487.613 102.978 487.511 102.66 487.246 102.53C486.982 102.399 486.659 102.501 486.526 102.761L485.836 104.078C485.777 104.209 485.763 104.353 485.807 104.484L486.6 106.901C486.673 107.118 486.879 107.262 487.114 107.262L487.129 107.277Z" fill="black"/>
<path d="M485.336 100.98C485.6 100.98 485.835 100.777 485.864 100.517C485.894 100.227 485.688 99.9668 485.394 99.9378L483.808 99.7497C483.514 99.7063 483.25 99.9234 483.206 100.213C483.176 100.502 483.382 100.763 483.676 100.792L485.262 100.98C485.262 100.98 485.306 100.98 485.321 100.98H485.336Z" fill="black"/>
<path d="M550.962 114.239C550.962 114.239 537.038 133.112 523.672 136.673C510.306 140.233 518.619 167.053 518.619 167.053C518.619 167.053 565.151 171.945 570.277 117.047C573.979 77.3453 555.002 114.224 555.002 114.224H550.977L550.962 114.239Z" fill="#FFBB87"/>
<path d="M477.39 102.327C477.463 102.327 477.537 102.313 477.61 102.284L480.768 100.866C481.033 100.75 481.15 100.431 481.033 100.171C480.915 99.9104 480.592 99.7946 480.328 99.9104L477.17 101.329C476.905 101.445 476.788 101.763 476.905 102.024C476.993 102.212 477.184 102.327 477.39 102.327Z" fill="black"/>
<path d="M431.02 181.049C431.02 181.049 420.033 215.988 420.826 219.245C421.605 222.501 429.184 240.55 429.713 242.055C430.241 243.56 416.126 365.848 416.126 365.848L462.026 377.123C462.026 377.123 492.827 246.629 489.082 208.795C485.336 170.961 431.02 181.063 431.02 181.063V181.049Z" fill="#3DF130"/>
<path d="M539.799 104.514L538.646 101.124L590.481 84.004L591.634 87.3937L539.799 104.514Z" fill="white"/>
<path d="M468.532 110.605C468.532 110.605 474.084 108.868 478.388 102.558C482.691 96.2616 482.53 94.6984 482.53 94.6984L485.467 100.763C485.467 100.763 487.303 95.7984 485.541 92.8024C483.764 89.8063 481.81 90.3418 481.81 90.3418L468.752 93.1063L463.964 103.281L468.547 110.605H468.532Z" fill="#0017BF"/>
<path d="M532.675 130.794C532.675 130.794 508.352 133.443 501.184 131.677C494.016 129.912 475.803 127.769 462.378 127.017C448.953 126.264 428.61 127.147 419.386 128.652C410.177 130.172 406.196 131.301 406.196 131.301C406.196 131.301 406.96 145.673 409.016 155.139C411.058 164.605 411.455 166.371 411.455 166.371L431.548 164.851L424.41 194.898C424.41 194.898 434.486 201.426 457.149 207.1C479.798 212.773 492.019 208.359 492.019 208.359L499.26 173.173C499.26 173.173 516.283 172.927 524.861 171.031C533.439 169.135 534.717 168.889 534.717 168.889L532.675 130.794Z" fill="#E64218"/>
<path d="M552.269 117.061C552.269 117.061 547.084 106.292 547.392 103.832C547.701 101.371 553.136 99.6635 553.136 99.6635C553.136 99.6635 554.252 89.7346 556.352 88.982C558.453 88.2293 559.569 91.2688 559.569 91.2688C559.569 91.2688 560.803 85.0596 563.402 85.7978C566.002 86.5215 566.487 90.2557 566.487 90.2557C566.487 90.2557 566.986 85.3491 570.071 86.5504C573.155 87.7517 575.858 99.7214 574.374 109.983C572.891 120.245 563.652 124.327 563.652 124.327L552.284 117.09L552.269 117.061Z" fill="#FFBB87"/>
<path d="M552.402 107.103C552.666 107.103 552.901 106.9 552.931 106.625L553.665 99.7067C553.695 99.4172 553.489 99.1567 553.18 99.1278C552.887 99.0988 552.622 99.3014 552.593 99.5909L551.859 106.509C551.829 106.799 552.035 107.059 552.343 107.088C552.358 107.088 552.387 107.088 552.402 107.088V107.103Z" fill="black"/>
<path d="M387.455 170.064C387.455 170.064 386.765 179.399 385.296 182.699C383.842 185.999 381.198 189.878 379.156 189.314C377.129 188.749 380.346 179.978 380.346 179.978C380.346 179.978 374.456 183.64 370.064 187.403C365.673 191.152 364.189 194.206 361.957 194.148C359.724 194.09 360.106 189.907 360.106 189.907C360.106 189.907 358.314 192.252 356.522 191.427C354.715 190.602 356.067 186.086 356.067 186.086C356.067 186.086 352.923 187.085 352.659 183.93C352.395 180.774 360.253 171.092 367.288 166.359C374.324 161.626 381.08 162.407 381.08 162.407L387.426 170.078L387.455 170.064Z" fill="#FFBB87"/>
<path d="M376.13 180.31C376.321 180.31 376.512 180.209 376.6 180.021C376.732 179.76 376.63 179.442 376.38 179.312L364.336 173.102C364.071 172.972 363.748 173.059 363.616 173.319C363.484 173.58 363.587 173.898 363.836 174.029L375.881 180.238C375.954 180.281 376.042 180.296 376.13 180.296V180.31Z" fill="black"/>
<path d="M356.096 186.591C356.272 186.591 356.448 186.504 356.551 186.345C356.595 186.272 361.163 179.122 365.511 174.447C365.716 174.23 365.702 173.897 365.481 173.695C365.261 173.492 364.923 173.506 364.732 173.724C360.311 178.471 355.699 185.693 355.655 185.766C355.494 186.012 355.567 186.345 355.817 186.489C355.905 186.547 356.008 186.576 356.096 186.576V186.591Z" fill="black"/>
<path d="M360.135 190.415C360.296 190.415 360.458 190.343 360.561 190.212L370.578 177.548C370.754 177.316 370.71 176.983 370.49 176.81C370.255 176.636 369.917 176.665 369.741 176.896L359.723 189.561C359.547 189.793 359.591 190.125 359.811 190.299C359.914 190.371 360.032 190.415 360.135 190.415Z" fill="black"/>
<path d="M376.394 176.142C376.394 176.142 376.453 176.142 376.482 176.142C376.776 176.099 376.967 175.824 376.923 175.534C376.042 170.498 381.653 166.271 381.711 166.228C381.946 166.054 381.99 165.721 381.814 165.49C381.638 165.258 381.3 165.215 381.065 165.388C380.815 165.577 374.867 170.049 375.865 175.708C375.91 175.969 376.13 176.142 376.394 176.142Z" fill="black"/>
<path d="M419.182 339.665C419.446 339.665 419.681 339.462 419.71 339.202C420.944 328.737 431.813 236.974 431.549 235.209C431.285 233.414 423.221 222.284 421.605 220.069C421.429 219.837 421.091 219.78 420.856 219.953C420.621 220.127 420.562 220.445 420.739 220.691C424.411 225.743 430.315 234.181 430.491 235.368C430.624 237.322 422.81 304.074 418.653 339.086C418.623 339.375 418.829 339.636 419.123 339.665C419.138 339.665 419.167 339.665 419.182 339.665Z" fill="#0017BF"/>
<path d="M474.394 236.309C474.394 236.309 474.482 236.309 474.526 236.295C484.249 233.965 483.823 223.587 483.823 223.471C483.809 223.182 483.588 222.979 483.265 222.965C482.972 222.965 482.736 223.225 482.751 223.515C482.766 223.905 483.133 233.125 474.276 235.253C473.982 235.325 473.806 235.615 473.88 235.89C473.938 236.136 474.159 236.295 474.394 236.295V236.309Z" fill="#0017BF"/>
<path d="M499.274 173.709C499.48 173.709 499.671 173.594 499.759 173.405L503.093 166.444C503.226 166.183 503.093 165.865 502.844 165.734C502.579 165.619 502.256 165.734 502.124 165.98L498.79 172.942C498.658 173.203 498.79 173.521 499.039 173.651C499.113 173.68 499.186 173.695 499.274 173.695V173.709Z" fill="white"/>
<path d="M431.563 165.388C431.857 165.388 432.106 165.157 432.106 164.867V158.152C432.106 157.862 431.871 157.631 431.563 157.631C431.255 157.631 431.02 157.862 431.02 158.152V164.867C431.02 165.157 431.255 165.388 431.563 165.388Z" fill="white"/>
</g>
</svg>
