<svg width="643" height="260" viewBox="0 0 643 260" fill="none" xmlns="http://www.w3.org/2000/svg">
<path d="M643 0H0V260H643V0Z" fill="black"/>
<mask id="mask0_1455_34334" style="mask-type:alpha" maskUnits="userSpaceOnUse" x="273" y="0" width="370" height="260">
<path d="M643 0H273V260H643V0Z" fill="black"/>
</mask>
<g mask="url(#mask0_1455_34334)">
<path d="M355.009 100.972V169.368C355.009 171.443 356.755 173.141 358.907 173.141H482.957C485.097 173.141 486.843 171.443 486.843 169.368V100.972C486.843 98.8964 485.097 97.1982 482.957 97.1982H358.907C356.755 97.1982 355.009 98.8964 355.009 100.972Z" fill="#40398D"/>
<path d="M355.009 101.705V106.477H486.843V101.705C486.843 99.2183 485.097 97.1982 482.957 97.1982H358.907C356.755 97.1982 355.009 99.2183 355.009 101.705Z" fill="#EDEDED"/>
<path d="M465.218 104.044C463.98 104.044 462.977 103.055 462.977 101.835C462.977 100.615 463.98 99.6262 465.218 99.6262C466.456 99.6262 467.46 100.615 467.46 101.835C467.46 103.055 466.456 104.044 465.218 104.044Z" fill="#FFB904"/>
<path d="M472.391 104.044C471.153 104.044 470.15 103.055 470.15 101.835C470.15 100.615 471.153 99.6262 472.391 99.6262C473.629 99.6262 474.633 100.615 474.633 101.835C474.633 103.055 473.629 104.044 472.391 104.044Z" fill="#E64218"/>
<path d="M479.554 104.044C478.316 104.044 477.313 103.055 477.313 101.835C477.313 100.615 478.316 99.6262 479.554 99.6262C480.792 99.6262 481.796 100.615 481.796 101.835C481.796 103.055 480.792 104.044 479.554 104.044Z" fill="#0017BF"/>
<path d="M365.299 132.862H393.449C394.17 132.862 394.754 133.446 394.754 134.167C394.754 134.888 394.17 135.472 393.449 135.472H365.299C364.578 135.472 363.994 134.888 363.994 134.167C363.994 133.446 364.578 132.862 365.299 132.862Z" fill="#FFB904"/>
<path d="M399.294 132.862H427.444C428.165 132.862 428.749 133.446 428.749 134.167C428.749 134.888 428.165 135.472 427.444 135.472H399.294C398.573 135.472 397.989 134.888 397.989 134.167C397.989 133.446 398.573 132.862 399.294 132.862Z" fill="#3DF130"/>
<path d="M365.299 124.754H379.521C380.242 124.754 380.826 125.338 380.826 126.059C380.826 126.78 380.242 127.364 379.521 127.364H365.299C364.578 127.364 363.994 126.78 363.994 126.059C363.994 125.338 364.578 124.754 365.299 124.754Z" fill="#3DF130"/>
<path d="M412.344 148.309H426.566C427.287 148.309 427.871 148.893 427.871 149.614C427.871 150.334 427.287 150.919 426.566 150.919H412.344C411.623 150.919 411.039 150.334 411.039 149.614C411.039 148.893 411.623 148.309 412.344 148.309Z" fill="#FFB904"/>
<path d="M384.563 124.754H420.813C421.534 124.754 422.118 125.338 422.118 126.059C422.118 126.78 421.534 127.364 420.813 127.364H384.563C383.842 127.364 383.258 126.78 383.258 126.059C383.258 125.338 383.842 124.754 384.563 124.754Z" fill="#E64218"/>
<path d="M365.3 140.585H435.081C435.801 140.585 436.386 141.169 436.386 141.89C436.386 142.61 435.801 143.195 435.081 143.195H365.3C364.579 143.195 363.995 142.61 363.995 141.89C363.995 141.169 364.579 140.585 365.3 140.585Z" fill="#3DF130"/>
<path d="M365.299 148.309H407.007C407.728 148.309 408.312 148.893 408.312 149.614C408.312 150.334 407.728 150.919 407.007 150.919H365.299C364.578 150.919 363.994 150.334 363.994 149.614C363.994 148.893 364.578 148.309 365.299 148.309Z" fill="#3DF130"/>
<path d="M443.505 122.036H476.764V154.809H443.505V122.036Z" fill="#2E2C6E"/>
<path d="M453.502 127.993V126.415L461.049 122.915V124.868L455.736 127.157V127.251L461.049 129.54V131.493L453.502 127.993ZM467.986 119.853L464.345 133.399H462.595L466.252 119.853H467.986ZM463.916 149.993L456.369 153.493V151.54L461.681 149.251V149.157L456.369 146.868V144.915L463.916 148.415V149.993Z" fill="#FFB904"/>
<path d="M579.64 66.6612C579.64 66.6612 585.858 56.3608 595.782 61.3778C605.705 66.3948 604.624 76.7618 612.159 79.1482C619.695 81.5235 625.868 87.928 621.486 96.1861C617.825 103.09 607.902 100.903 607.902 100.903C607.902 100.903 601.729 111.259 590.825 107.719C579.922 104.178 574.943 98.5947 576.092 89.6928C577.23 80.791 579.652 66.6723 579.652 66.6723L579.64 66.6612Z" fill="#0017BF"/>
<path d="M561.913 81.6246C561.913 81.6246 556.022 73.1445 567.95 66.4515C579.879 59.7695 588.575 68.9378 588.676 73.8549C588.777 78.7831 585.928 81.0585 585.928 81.0585C585.928 81.0585 587.043 91.7363 576.635 90.9926C566.227 90.26 561.913 81.6024 561.913 81.6024V81.6246Z" fill="#0017BF"/>
<path d="M577.635 89.3065L577.849 97.9309C577.849 97.9309 576.339 100.45 571.225 100.983C567.418 101.383 566.055 100.561 566.055 100.561L566.472 96.1771L566.889 91.9038L576.08 89.6728L577.623 89.2954L577.635 89.3065Z" fill="#FFBB87"/>
<path d="M577.601 88.8929C577.589 89.126 577.499 89.4146 577.364 89.7364C575.517 94.0875 568.668 95.9411 566.472 96.1853L566.889 91.912L577.601 88.8929Z" fill="black"/>
<path d="M564.445 72.2988C564.445 72.2988 560.131 83.2207 562.091 89.1812C564.051 95.1416 569.593 93.9762 572.882 92.6664C576.171 91.3678 577.635 89.2922 577.635 89.2922C577.635 89.2922 580.789 90.2134 582.76 87.2721C584.731 84.3307 583.312 81.1007 581.499 80.4236C579.685 79.7466 577.624 81.0896 577.624 81.0896L579.156 77.904C579.156 77.904 571.53 62.3313 564.445 72.2877V72.2988Z" fill="#FFBB87"/>
<path d="M563.758 86.3981C563.758 86.3981 563.803 86.3981 563.826 86.3981C564.051 86.3648 564.197 86.1539 564.164 85.9319C563.612 82.6353 564.896 80.8816 564.918 80.8594C565.054 80.6818 565.02 80.4265 564.84 80.2933C564.659 80.1601 564.4 80.1934 564.265 80.371C564.209 80.4487 562.744 82.3911 563.364 86.054C563.398 86.2538 563.567 86.3981 563.769 86.3981H563.758Z" fill="black"/>
<path d="M577.861 85.5318C577.929 85.5318 577.997 85.5207 578.053 85.4874L582.311 83.2564C582.513 83.1565 582.592 82.9012 582.48 82.7125C582.378 82.5127 582.119 82.4461 581.928 82.546L577.67 84.777C577.467 84.8769 577.388 85.1322 577.501 85.3209C577.58 85.4541 577.715 85.5318 577.861 85.5318Z" fill="black"/>
<path d="M581.838 86.2837C581.95 86.2837 582.063 86.2393 582.153 86.1505C582.299 85.984 582.288 85.7287 582.108 85.5844L580.058 83.8196C579.889 83.6753 579.63 83.6864 579.472 83.864C579.326 84.0304 579.337 84.2857 579.517 84.43L581.567 86.1949C581.646 86.2615 581.748 86.2948 581.838 86.2948V86.2837Z" fill="black"/>
<path d="M562.733 77.7167C562.733 77.7167 562.935 75.0528 564.997 72.7774C567.193 70.3577 569.052 70.7573 569.052 70.7573C569.052 70.7573 565.808 77.75 571.259 80.2141C575.134 81.9678 577.624 81.1131 577.624 81.1131L583.177 75.6855L572.138 66.8502C572.138 66.8502 562.068 65.4628 562.744 77.7278L562.733 77.7167Z" fill="#0017BF"/>
<path d="M566.495 88.6155C566.495 88.6155 566.585 88.6155 566.63 88.5933C566.686 88.5711 568.004 88.116 568.86 86.6953C568.973 86.5066 568.905 86.2513 568.714 86.1403C568.522 86.0293 568.263 86.0959 568.151 86.2846C567.452 87.45 566.371 87.8274 566.36 87.8274C566.146 87.9051 566.033 88.1271 566.101 88.338C566.157 88.5045 566.315 88.6155 566.484 88.6155H566.495Z" fill="black"/>
<path d="M567.61 81.8345C567.802 81.8345 567.971 81.7124 568.016 81.5237L568.455 79.6035C568.478 79.5036 568.455 79.3926 568.399 79.2927L567.779 78.3159C567.655 78.1273 567.396 78.0718 567.216 78.1939C567.025 78.316 566.968 78.5601 567.092 78.7488L567.622 79.5813L567.216 81.335C567.171 81.557 567.306 81.7679 567.52 81.8234C567.554 81.8234 567.577 81.8234 567.61 81.8234V81.8345Z" fill="black"/>
<path d="M562.17 81.7892C562.361 81.7892 562.53 81.6671 562.576 81.4784L563.015 79.5581C563.037 79.4582 563.015 79.3473 562.958 79.2474L562.339 78.2706C562.215 78.0819 561.967 78.0264 561.776 78.1485C561.584 78.2706 561.528 78.5148 561.652 78.7035L562.181 79.5359L561.776 81.2897C561.731 81.5117 561.866 81.7226 562.08 81.7781C562.114 81.7781 562.136 81.7781 562.17 81.7781V81.7892Z" fill="black"/>
<path d="M563.094 76.8058C563.094 76.8058 563.151 76.8058 563.185 76.8058L564.39 76.5505C564.615 76.5061 564.75 76.2842 564.705 76.0733C564.66 75.8513 564.446 75.7181 564.221 75.7625L563.016 76.0178C562.79 76.0622 562.655 76.2841 562.7 76.495C562.745 76.6837 562.914 76.8169 563.106 76.8169L563.094 76.8058Z" fill="black"/>
<path d="M520.323 94.2777L500.634 106.176L478.556 77.0733L498.257 65.1635L520.323 94.2777Z" fill="#3DF130"/>
<path d="M522.87 92.8887L503.181 104.787L481.103 75.6844L500.804 63.7745L522.87 92.8887Z" fill="#F6F6F6"/>
<path d="M486.634 78.0477C486.712 78.0477 486.78 78.0255 486.848 77.9922L501.299 69.2568C501.491 69.1347 501.558 68.8905 501.434 68.7018C501.322 68.5131 501.063 68.4465 500.871 68.5686L486.42 77.304C486.228 77.4261 486.16 77.6703 486.284 77.859C486.363 77.9811 486.498 78.0477 486.634 78.0477Z" fill="#0017BF"/>
<path d="M488.977 81.057C489.056 81.057 489.124 81.0349 489.191 81.0016L503.643 72.2662C503.835 72.1441 503.902 71.8999 503.778 71.7112C503.666 71.5225 503.406 71.4559 503.215 71.578L488.763 80.3134C488.572 80.4355 488.504 80.6797 488.628 80.8684C488.707 80.9905 488.842 81.057 488.977 81.057Z" fill="#0017BF"/>
<path d="M491.264 84.0977C491.343 84.0977 491.411 84.0755 491.478 84.0422L505.93 75.3068C506.122 75.1847 506.189 74.9406 506.065 74.7519C505.953 74.5632 505.694 74.4966 505.502 74.6187L491.05 83.354C490.859 83.4761 490.791 83.7203 490.915 83.909C490.994 84.0311 491.129 84.0977 491.264 84.0977Z" fill="#0017BF"/>
<path d="M493.56 87.1292C493.639 87.1292 493.707 87.107 493.774 87.0737L508.226 78.3383C508.418 78.2162 508.485 77.9721 508.361 77.7834C508.249 77.5947 507.989 77.5281 507.798 77.6502L493.346 86.3855C493.155 86.5076 493.087 86.7518 493.211 86.9405C493.29 87.0626 493.425 87.1292 493.56 87.1292Z" fill="#0017BF"/>
<path d="M543.889 79.1605L565.245 107.187L544.745 118.986L531.476 84.3551L543.889 79.1605Z" fill="#FFBB87"/>
<path d="M569.312 77.2956C569.48 77.2956 569.638 77.1957 569.695 77.0292C569.773 76.8183 569.661 76.5853 569.447 76.5187L566.912 75.6529C566.698 75.5863 566.462 75.6862 566.394 75.8971C566.315 76.108 566.428 76.3411 566.642 76.4077L569.176 77.2734C569.176 77.2734 569.266 77.2956 569.312 77.2956Z" fill="black"/>
<path d="M512.979 106.953C512.979 106.953 512.517 98.9617 510.073 95.7983C507.629 92.6349 503.337 90.1708 502.425 92.0023C501.512 93.8337 504.419 96.4865 503.957 97.5743C503.495 98.662 500.442 98.1181 495.847 96.4976C491.251 94.8882 488.198 89.6492 488.198 89.6492C488.198 89.6492 487.286 91.7248 487.59 93.6117C487.894 95.4986 488.503 96.4976 488.503 96.4976C488.503 96.4976 487.523 94.3221 487.523 98.2957C487.523 100.294 489.268 101.692 489.268 101.692C489.268 101.692 487.894 103.335 490.8 106.953C493.706 110.572 501.817 113.891 501.817 113.891C501.817 113.891 510.839 135.601 525.685 141.329C540.531 147.056 552.155 139.364 552.155 139.364L547.571 115.544C547.571 115.544 531.655 121.128 512.99 106.953H512.979Z" fill="#FFBB87"/>
<path d="M495.747 101.04C495.939 101.04 496.107 100.907 496.152 100.718C496.198 100.496 496.062 100.285 495.837 100.241C492.447 99.5416 488.493 95.5235 488.459 95.4791C488.302 95.3237 488.042 95.3126 487.873 95.468C487.705 95.6234 487.705 95.8787 487.873 96.0452C488.042 96.2228 492.041 100.285 495.679 101.04C495.713 101.04 495.736 101.04 495.77 101.04H495.747Z" fill="black"/>
<path d="M495.059 104.977C495.251 104.977 495.431 104.833 495.465 104.644C495.499 104.422 495.352 104.212 495.127 104.178C491.275 103.534 489.608 101.47 489.585 101.448C489.45 101.27 489.191 101.237 489.011 101.381C488.83 101.514 488.797 101.77 488.932 101.947C489.011 102.047 490.802 104.289 494.981 104.977C495.003 104.977 495.026 104.977 495.048 104.977H495.059Z" fill="black"/>
<path d="M560.426 150.975C560.426 150.975 540.702 177.17 524.494 206.262C508.285 235.354 499.285 271.738 499.285 271.738L540.781 274.269L570.957 202.388L562.081 273.314L602.215 271.927C602.215 271.927 610.9 206.084 606.27 175.027C601.641 143.971 596.211 137.433 596.211 137.433L560.437 150.975H560.426Z" fill="#FFB904"/>
<path d="M584.317 82.469C584.441 82.469 584.553 82.4135 584.643 82.3136C591.638 73.6338 582.222 65.8752 582.131 65.7975C581.951 65.6532 581.692 65.6865 581.557 65.853C581.411 66.0306 581.444 66.2858 581.613 66.419C581.985 66.7187 590.501 73.7447 584.001 81.803C583.866 81.9806 583.889 82.2359 584.069 82.3691C584.148 82.4246 584.238 82.4579 584.328 82.4579L584.317 82.469Z" fill="white"/>
<path d="M537.684 115.843C537.684 115.843 553.476 98.4281 572.546 97.296C591.616 96.1638 598.036 105.21 598.96 109.505C599.872 113.801 601.483 144.558 600.334 146.6C599.185 148.631 591.357 152.25 578.64 153.16C565.911 154.07 559.254 152.483 558.342 151.806C557.43 151.129 556.281 141.628 556.281 141.628L545.49 144.347L537.684 115.854V115.843Z" fill="#3DF130"/>
<path d="M577.635 89.3065C577.635 89.3065 572.262 101.216 577.849 105.934C583.436 110.651 591.749 107.599 591.749 107.599C591.749 107.599 594.554 109.363 599.915 107.576C605.277 105.789 607.901 100.894 607.901 100.894L577.635 89.3065Z" fill="#0017BF"/>
<path d="M543.888 79.1615C543.888 79.1615 538.526 70.8701 535.834 69.0498C533.142 67.2295 518.116 61.4022 516.629 62.823C515.142 64.2437 523.928 70.182 523.928 70.182C523.928 70.182 522.419 70.5038 522.047 71.7026C521.675 72.9014 522.34 73.8781 522.34 73.8781C522.34 73.8781 520.47 73.8115 519.94 75.0658C519.411 76.32 520.278 77.6964 520.278 77.6964C520.278 77.6964 523.725 83.9121 525.696 84.0342C527.656 84.1674 527.397 80.7266 527.397 80.7266C527.397 80.7266 528.107 83.8566 529.819 85.5882C531.531 87.3086 535.045 87.4973 538.672 85.6104C542.299 83.7234 543.888 79.1504 543.888 79.1504V79.1615Z" fill="#FFBB87"/>
<path d="M539.698 84.5886C539.901 84.5886 540.081 84.4332 540.103 84.2223C540.126 84.0004 539.968 83.8006 539.732 83.7784C535.598 83.3455 534.584 78.0954 534.573 78.0399C534.55 77.9289 534.494 77.8401 534.393 77.7735C534.302 77.718 534.179 77.6958 534.077 77.718C532.117 78.1398 529.763 78.2952 529.38 77.8068C529.301 77.7069 529.38 77.5182 529.448 77.3739C530.529 75.2539 535.519 73.0895 535.564 73.0673C535.767 72.9785 535.868 72.7343 535.778 72.5345C535.688 72.3347 535.44 72.2348 535.237 72.3236C535.023 72.4124 529.921 74.6212 528.715 77.0076C528.389 77.6403 528.546 78.0621 528.738 78.3063C529.526 79.3052 532.478 78.8613 533.852 78.5949C534.19 79.949 535.564 84.1668 539.642 84.5886C539.653 84.5886 539.675 84.5886 539.687 84.5886H539.698Z" fill="black"/>
<path d="M529.561 76.9078C529.73 76.9078 529.899 76.7968 529.955 76.6303C530.023 76.4194 529.91 76.1863 529.696 76.1197C527.331 75.3539 524.323 70.0372 524.289 69.9817C524.177 69.7819 523.929 69.7153 523.726 69.8263C523.523 69.9373 523.456 70.1815 523.568 70.3813C523.704 70.6144 526.767 76.0309 529.437 76.8967C529.482 76.9078 529.527 76.9189 529.561 76.9189V76.9078Z" fill="black"/>
<path d="M528.581 81.4474C528.581 81.4474 528.626 81.4474 528.66 81.4474C529.46 81.403 530.068 81.1255 530.462 80.6149C531.15 79.7158 530.879 78.4616 530.868 78.4061C530.823 78.1841 530.598 78.0509 530.384 78.0953C530.158 78.1397 530.023 78.3617 530.068 78.5726C530.068 78.5726 530.271 79.5272 529.809 80.1154C529.573 80.4262 529.167 80.5927 528.626 80.626C527.106 80.6926 524.188 76.4082 522.724 73.6777C522.623 73.4779 522.375 73.4002 522.172 73.5112C521.969 73.6111 521.891 73.8553 522.003 74.0551C522.409 74.8209 526.047 81.4363 528.604 81.4363L528.581 81.4474Z" fill="black"/>
<path d="M556.279 142.04C556.437 142.04 556.594 141.941 556.662 141.796C557.191 140.564 559.748 134.337 557.732 133.005C557.315 132.728 556.977 132.839 556.808 132.939C555.468 133.705 555.75 139.809 555.873 141.663C555.885 141.852 556.031 142.007 556.211 142.04C556.234 142.04 556.256 142.04 556.279 142.04ZM557.214 133.638C558.115 134.237 557.507 137.112 556.594 139.676C556.515 136.502 556.763 133.86 557.214 133.638Z" fill="white"/>
<path d="M573.389 158.344C581.905 158.344 593.337 156.934 600.209 150.33C600.366 150.174 600.377 149.919 600.209 149.753C600.051 149.597 599.792 149.586 599.623 149.753C588.167 160.752 562.688 156.801 562.44 156.757C562.215 156.723 562.001 156.868 561.967 157.09C561.934 157.312 562.08 157.522 562.305 157.556C562.745 157.622 567.329 158.344 573.378 158.344H573.389Z" fill="white"/>
<path d="M570.764 202.8C570.899 202.8 571.045 202.722 571.124 202.6C571.18 202.5 576.959 192.954 591.94 187.338C592.154 187.26 592.255 187.027 592.176 186.816C592.098 186.605 591.861 186.494 591.647 186.583C576.373 192.31 570.471 202.1 570.414 202.189C570.302 202.378 570.369 202.633 570.561 202.744C570.629 202.777 570.696 202.8 570.764 202.8Z" fill="white"/>
<path d="M605.774 180.795C606.157 180.795 606.54 180.784 606.934 180.761C607.159 180.75 607.328 180.55 607.317 180.328C607.306 180.106 607.125 179.951 606.878 179.951C603.329 180.184 600.48 179.318 598.396 177.365C595.039 174.224 594.679 169.129 594.634 167.919L604.49 164.057C604.704 163.979 604.805 163.735 604.715 163.535C604.625 163.335 604.388 163.224 604.185 163.313L594.059 167.275C593.901 167.331 593.8 167.486 593.8 167.642C593.8 167.908 593.732 174.135 597.81 177.953C599.826 179.84 602.496 180.795 605.751 180.795H605.774Z" fill="white"/>
<path d="M563.703 184.507C572.376 184.507 575.338 170.854 575.361 170.71C575.406 170.51 575.282 170.299 575.079 170.244L559.76 165.56C559.558 165.504 559.332 165.604 559.253 165.793C559.073 166.226 555.007 176.36 557.981 181.543C558.882 183.119 560.335 184.074 562.306 184.385C562.779 184.462 563.241 184.496 563.691 184.496L563.703 184.507ZM574.471 170.91C573.919 173.13 570.596 184.906 562.441 183.597C560.729 183.319 559.467 182.509 558.701 181.155C556.212 176.815 559.197 168.279 559.884 166.448L574.471 170.899V170.91Z" fill="white"/>
<path d="M471.652 168.187H512.653C514.421 168.187 515.863 166.766 515.863 165.023V146.631C515.863 144.889 514.421 143.468 512.653 143.468H471.652C469.883 143.468 468.441 144.889 468.441 146.631V165.023C468.441 166.766 469.883 168.187 471.652 168.187Z" fill="white"/>
<path d="M494.754 145.277L509.758 134.721L506.086 145.277H494.754Z" fill="white"/>
<path d="M482.252 163.371H477.048V148.297H482.252V163.371Z" fill="#3DF130"/>
<path d="M490.598 163.371H485.395V151.006H490.598V163.371Z" fill="#FFB904"/>
<path d="M507.268 163.371H502.064V151.006H507.268V163.371Z" fill="#5EF939"/>
<path d="M498.922 163.358H493.718V155.821H498.922V163.358Z" fill="#373178"/>
<path d="M331.617 113.284H390.449C392.026 113.284 393.31 112.019 393.31 110.465V82.3162C393.31 80.7622 392.026 79.4969 390.449 79.4969H331.617C330.04 79.4969 328.756 80.7622 328.756 82.3162V110.465C328.756 112.019 330.04 113.284 331.617 113.284ZM390.449 80.3183C391.575 80.3183 392.476 81.2173 392.476 82.3273V110.476C392.476 111.586 391.564 112.485 390.449 112.485H331.617C330.49 112.485 329.589 111.586 329.589 110.476V82.3273C329.589 81.2173 330.502 80.3183 331.617 80.3183H390.449Z" fill="#E64218"/>
<path d="M329.173 86.5458H392.893C393.118 86.5458 393.31 86.3682 393.31 86.1462C393.31 85.9242 393.129 85.7466 392.893 85.7466H329.173C328.947 85.7466 328.756 85.9242 328.756 86.1462C328.756 86.3682 328.936 86.5458 329.173 86.5458Z" fill="#E64218"/>
<path d="M333.656 85.0253C334.748 85.0253 335.649 84.1484 335.649 83.0606C335.649 81.9729 334.76 81.096 333.656 81.096C332.552 81.096 331.662 81.9729 331.662 83.0606C331.662 84.1484 332.552 85.0253 333.656 85.0253ZM333.656 81.9174C334.298 81.9174 334.827 82.428 334.827 83.0717C334.827 83.7155 334.309 84.2261 333.656 84.2261C333.002 84.2261 332.484 83.7155 332.484 83.0717C332.484 82.428 333.002 81.9174 333.656 81.9174Z" fill="#E64218"/>
<path d="M338.939 85.0253C340.032 85.0253 340.933 84.1484 340.933 83.0606C340.933 81.9729 340.043 81.096 338.939 81.096C337.835 81.096 336.945 81.9729 336.945 83.0606C336.945 84.1484 337.835 85.0253 338.939 85.0253ZM338.939 81.9174C339.581 81.9174 340.11 82.428 340.11 83.0717C340.11 83.7155 339.592 84.2261 338.939 84.2261C338.286 84.2261 337.767 83.7155 337.767 83.0717C337.767 82.428 338.286 81.9174 338.939 81.9174Z" fill="#E64218"/>
<path d="M344.221 85.0253C345.314 85.0253 346.215 84.1484 346.215 83.0606C346.215 81.9729 345.325 81.096 344.221 81.096C343.117 81.096 342.227 81.9729 342.227 83.0606C342.227 84.1484 343.117 85.0253 344.221 85.0253ZM344.221 81.9174C344.863 81.9174 345.393 82.428 345.393 83.0717C345.393 83.7155 344.874 84.2261 344.221 84.2261C343.568 84.2261 343.05 83.7155 343.05 83.0717C343.05 82.428 343.568 81.9174 344.221 81.9174Z" fill="#E64218"/>
</g>
</svg>
