<svg width="385" height="400" viewBox="0 0 385 400" fill="none" xmlns="http://www.w3.org/2000/svg">
<path d="M385 0H0V400H385V0Z" fill="black"/>
<mask id="mask0_1455_34742" style="mask-type:alpha" maskUnits="userSpaceOnUse" x="0" y="220" width="385" height="180">
<path d="M385 220H0V400H385V220Z" fill="black"/>
</mask>
<g mask="url(#mask0_1455_34742)">
<path d="M179.592 322.783C179.592 322.783 186.139 326.204 187.049 332.489C187.958 338.775 182.438 339.888 182.438 339.888L168.763 333.201L179.592 322.783Z" fill="#FFBB87"/>
<path d="M85.2718 273.602C85.2718 273.602 77.1972 270.546 73.2873 266.951C69.3773 263.357 69.2409 262.536 69.5228 260.41C69.641 259.516 68.5225 257.783 69.7228 256.205C70.9231 254.626 75.4423 257.336 75.4423 257.336C75.4423 257.336 73.4873 254.243 75.0695 253.586C76.6607 252.93 81.5346 257.464 81.5346 257.464C81.5346 257.464 79.816 252.911 81.0344 252.382C82.2529 251.862 87.8178 254.791 88.6816 256.989C89.5454 259.188 89.6818 266.906 89.6818 266.906L85.2718 273.611V273.602Z" fill="#FFBB87"/>
<path d="M108.504 331.112C108.504 331.112 97.8924 361.235 95.3463 381.715C92.8003 402.205 104.448 435.038 104.448 435.038L137.465 433.688C137.465 433.688 130.345 401.019 128.945 391.066C127.799 380.092 132.409 332.334 132.409 332.334L108.504 331.112Z" fill="#FFB700"/>
<path d="M146.886 329.46C146.886 329.46 153.833 355.907 166.863 377.847C179.893 399.788 186.004 405.982 186.004 405.982L160.68 429.108C160.68 429.108 130.091 396.823 125.79 374.353C121.498 351.884 121.226 331.623 121.226 331.623L146.877 329.46H146.886Z" fill="#FFB700"/>
<path d="M145.786 346.967C140.794 346.967 138.348 341.931 138.32 341.867C138.239 341.703 138.32 341.502 138.475 341.42C138.639 341.338 138.839 341.42 138.92 341.575C139.039 341.831 141.967 347.815 148.068 345.927C148.25 345.872 148.432 345.973 148.486 346.146C148.541 346.319 148.441 346.511 148.268 346.565C147.377 346.839 146.549 346.958 145.786 346.958V346.967Z" fill="#0002BB"/>
<path d="M159.507 376.725C159.279 376.725 159.07 376.652 158.879 376.525C158.252 376.078 158.17 375.594 158.206 375.266C158.425 373.605 162.453 372.055 162.917 371.881C163.044 371.836 163.189 371.872 163.28 371.972C163.371 372.073 163.389 372.219 163.335 372.337C163.144 372.739 161.389 376.288 159.825 376.689C159.725 376.716 159.616 376.725 159.516 376.725H159.507ZM162.316 372.839C160.798 373.505 158.97 374.545 158.87 375.348C158.861 375.43 158.825 375.676 159.261 375.977C159.379 376.059 159.498 376.078 159.652 376.041C160.507 375.822 161.644 374.062 162.316 372.839Z" fill="#0002BB"/>
<path d="M128.318 383.896C128.2 383.896 128.082 383.832 128.018 383.713C123.862 375.311 121.362 352.842 121.08 350.178L111.505 347.551C111.332 347.505 111.223 347.323 111.278 347.14C111.323 346.967 111.505 346.857 111.687 346.912L121.48 349.603C121.607 349.64 121.707 349.749 121.726 349.886C121.753 350.132 124.344 374.782 128.618 383.421C128.7 383.586 128.636 383.786 128.463 383.868C128.418 383.896 128.363 383.905 128.318 383.905V383.896Z" fill="#0002BB"/>
<path d="M90.8001 260.575C90.8001 260.575 97.1834 275.554 104.103 280.891C111.023 286.228 119.334 287.459 121.552 287.231C123.771 286.994 130.691 287.642 135.11 287.879C152.569 288.819 150.104 317.227 149.859 321.715C149.686 324.862 149.413 329.159 149.259 331.431C149.195 332.343 148.504 333.082 147.595 333.182C143.958 333.593 134.546 334.551 125.608 334.669C116.87 334.779 110.423 334.277 107.895 334.04C107.222 333.976 106.704 333.429 106.676 332.754C106.622 331.385 105.985 328.065 105.813 324.087C105.549 317.82 104.803 310.257 104.803 310.257C104.803 310.257 92.5823 310.905 82.7801 296.409C74.551 284.239 76.6151 270.628 76.6151 270.628L90.8001 260.575Z" fill="#0002BB"/>
<path d="M98.0019 284.595C97.7746 284.595 97.4745 284.512 97.2381 284.148C97.0471 283.847 97.0108 283.509 97.1108 283.135C97.6109 281.329 101.703 279.203 102.176 278.966C102.303 278.902 102.467 278.929 102.567 279.03C102.667 279.139 102.685 279.294 102.612 279.422C102.112 280.28 99.5568 284.558 98.0201 284.585C98.0201 284.585 98.011 284.585 98.0019 284.585V284.595ZM101.384 280.161C99.9569 281 98.0201 282.323 97.7473 283.317C97.6927 283.5 97.7109 283.655 97.8019 283.792C97.8837 283.919 97.9655 283.929 98.0019 283.929C98.7112 283.919 100.23 281.967 101.384 280.161Z" fill="white"/>
<path d="M123.544 269.415C123.544 269.415 118.288 264.534 121.088 261.012C123.898 257.491 129.072 261.651 129.072 261.651C129.072 261.651 131.345 259.671 134.228 261.615C137.101 263.558 137.147 267.782 137.147 267.782C137.147 267.782 140.211 267.937 140.111 271.677C140.02 275.417 135.774 278.455 135.774 278.455L123.544 269.415Z" fill="#0002BB"/>
<path d="M132.691 279.678L132.264 287.906C132.264 287.906 130.8 290.178 126.454 290.251C123.207 290.306 122.116 289.412 122.116 289.412L122.798 285.772L123.435 281.238L131.355 279.897L132.682 279.668L132.691 279.678Z" fill="#FFBB87"/>
<path d="M131.391 280.891C131.364 281.092 131.264 281.329 131.127 281.593C129.245 285.197 124.662 285.717 122.789 285.772L123.398 281.575L131.391 280.891Z" fill="black"/>
<path d="M123.162 265.364C123.162 265.364 118.888 274.058 120.043 279.103C121.198 284.148 125.762 283.582 128.517 282.743C131.273 281.904 132.6 280.298 132.6 280.298C132.6 280.298 135.092 281.274 136.892 278.993C138.692 276.713 137.774 273.958 136.365 273.264C134.946 272.58 133.182 273.538 133.182 273.538L134.646 271.02C134.646 271.02 129.59 257.655 123.153 265.355L123.162 265.364Z" fill="#FFBB87"/>
<path d="M133.228 277.452C133.118 277.452 133.009 277.397 132.946 277.297C132.846 277.142 132.891 276.932 133.046 276.84L136.383 274.733C136.537 274.633 136.747 274.678 136.838 274.833C136.938 274.989 136.892 275.198 136.737 275.29L133.4 277.397C133.346 277.433 133.282 277.452 133.228 277.452Z" fill="black"/>
<path d="M136.147 277.598C136.147 277.598 136.074 277.598 136.047 277.579L133.974 276.904C133.801 276.85 133.701 276.658 133.764 276.485C133.819 276.311 134.01 276.211 134.183 276.275L136.256 276.95C136.429 277.005 136.529 277.196 136.465 277.37C136.42 277.506 136.292 277.598 136.147 277.598Z" fill="black"/>
<path d="M128.891 269.542C128.827 269.542 128.773 269.524 128.709 269.488C127.609 268.785 126.5 268.74 126.491 268.74C126.309 268.74 126.163 268.575 126.172 268.393C126.172 268.21 126.327 268.055 126.518 268.074C126.572 268.074 127.818 268.128 129.073 268.931C129.228 269.031 129.273 269.232 129.173 269.387C129.109 269.488 129 269.542 128.891 269.542Z" fill="black"/>
<path d="M122.035 268.776C121.88 268.776 121.753 268.676 121.716 268.52C121.671 268.338 121.78 268.165 121.962 268.119C122.789 267.918 123.489 268.055 123.517 268.064C123.699 268.101 123.808 268.274 123.771 268.457C123.735 268.639 123.562 268.758 123.38 268.712C123.38 268.712 122.789 268.593 122.116 268.758C122.089 268.758 122.062 268.767 122.044 268.767L122.035 268.776Z" fill="black"/>
<path d="M122.798 276.403C122.644 276.403 122.507 276.302 122.471 276.147C121.78 273.155 123.926 271.586 124.017 271.522C124.162 271.412 124.371 271.449 124.48 271.604C124.59 271.75 124.553 271.96 124.408 272.069C124.335 272.124 122.535 273.456 123.126 276.001C123.162 276.184 123.053 276.357 122.88 276.403C122.853 276.403 122.835 276.403 122.807 276.403H122.798Z" fill="black"/>
<path d="M121.853 272.197C121.853 272.197 121.78 272.197 121.743 272.179C121.571 272.124 121.48 271.932 121.534 271.759L122.08 270.153C122.134 269.98 122.325 269.889 122.498 269.944C122.671 269.998 122.762 270.19 122.707 270.363L122.162 271.969C122.116 272.106 121.989 272.197 121.844 272.197H121.853Z" fill="black"/>
<path d="M126.336 272.562C126.336 272.562 126.263 272.562 126.227 272.544C126.054 272.489 125.963 272.297 126.018 272.124L126.563 270.518C126.627 270.345 126.809 270.254 126.982 270.309C127.154 270.363 127.245 270.555 127.191 270.728L126.645 272.334C126.6 272.471 126.472 272.562 126.327 272.562H126.336Z" fill="black"/>
<path d="M122.289 267.325C122.289 267.325 123.143 265.939 124.917 266.039C126.69 266.139 127.644 267.453 127.644 267.453C127.644 267.453 126.681 270.391 128.99 272.133C131.3 273.876 133.191 273.547 133.191 273.547L134.973 273.036L136.41 270.555L131.7 264.78L125.38 260.912L121.861 263.74L122.289 267.335V267.325Z" fill="#0002BB"/>
<path d="M124.253 279.486C124.253 279.486 124.207 279.486 124.189 279.486C123.162 279.422 122.534 278.41 122.516 278.364C122.461 278.273 122.452 278.154 122.498 278.054C122.543 277.953 122.643 277.88 122.752 277.862L125.489 277.461C125.608 277.443 125.717 277.488 125.79 277.57C125.862 277.661 125.89 277.78 125.853 277.89C125.835 277.953 125.326 279.486 124.262 279.486H124.253ZM123.425 278.428C123.625 278.61 123.898 278.793 124.226 278.82C124.535 278.847 124.789 278.519 124.971 278.2L123.425 278.428Z" fill="black"/>
<path d="M126.545 290.607C124.053 290.607 122.007 289.731 121.971 289.712C121.807 289.64 121.725 289.439 121.798 289.275C121.871 289.11 122.071 289.028 122.235 289.101C122.298 289.129 128.336 291.719 132 287.678C132.119 287.541 132.337 287.532 132.464 287.66C132.601 287.788 132.61 287.997 132.482 288.134C130.727 290.068 128.491 290.616 126.527 290.616L126.545 290.607Z" fill="white"/>
<path d="M104.813 310.585C104.631 310.585 104.477 310.439 104.477 310.257V305.577C104.477 305.394 104.622 305.249 104.813 305.249C105.004 305.249 105.149 305.394 105.149 305.577V310.257C105.149 310.439 105.004 310.585 104.813 310.585Z" fill="white"/>
<path d="M138.62 288.508C138.62 288.508 152.141 292.404 164.899 302.138C177.656 311.872 181.239 322.792 181.239 322.792L167.045 335.363C167.045 335.363 153.56 322.71 146.586 319.343C139.611 315.977 138.62 288.518 138.62 288.518V288.508Z" fill="#0002BB"/>
<path d="M149.886 321.597C149.886 321.597 149.85 321.597 149.831 321.597C149.686 321.578 149.577 321.46 149.559 321.314C149.431 320.392 148.877 315.74 150.022 314.791C150.186 314.654 150.477 314.508 150.886 314.645C151.204 314.755 151.45 314.983 151.586 315.311C152.277 316.935 150.404 320.958 150.186 321.414C150.131 321.533 150.013 321.606 149.886 321.606V321.597ZM150.568 315.247C150.513 315.247 150.477 315.265 150.45 315.293C149.931 315.722 149.913 317.993 150.086 319.982C150.668 318.522 151.35 316.433 150.977 315.567C150.913 315.411 150.813 315.32 150.677 315.265C150.632 315.247 150.595 315.247 150.568 315.247Z" fill="white"/>
<path d="M86.8568 249.667L45.5693 220L15.9995 261.423L57.287 291.089L86.8568 249.667Z" fill="#4EFD62"/>
<path d="M88.1909 255.146C88.1909 255.146 82.2351 247.803 79.8163 249.016C77.3976 250.229 84.4901 261.158 84.4901 261.158C84.4901 261.158 90.3914 259.982 88.1818 255.146H88.1909Z" fill="#FFBB87"/>
<path d="M321.135 322.782C321.135 322.782 327.282 325.61 329.1 327.544C330.919 329.478 330.619 331.093 330.619 331.093L326.581 332.817L321.135 322.791V322.782Z" fill="#FFBB87"/>
<path d="M368.159 354.569C368.159 337.868 354.62 324.31 337.919 324.286C321.218 324.262 307.679 337.781 307.679 354.482C307.679 371.183 321.218 384.742 337.919 384.766C354.62 384.79 368.159 371.27 368.159 354.569Z" fill="#FFB700"/>
<path d="M230.56 333.447L205.609 344.139L180.648 354.831L183.895 327.8L187.15 300.769L208.855 317.108L230.56 333.447Z" fill="#1C34ED"/>
<path d="M282.135 287.076C282.135 287.076 303.758 308.706 309.686 313.432L315.615 318.157C315.615 318.157 322.953 323.968 324.463 326.778C325.972 329.588 318.088 327.773 318.088 327.773L310.841 330.336C310.841 330.336 277.643 318.029 273.724 296.783C269.805 275.536 282.126 287.076 282.126 287.076H282.135Z" fill="#FFBB87"/>
<path d="M320.207 322.189C320.207 322.189 324.217 325.957 325.754 328.356C327.29 330.756 330.918 338.583 328.918 340.462C327.936 341.384 325.763 337.406 325.763 337.406C325.763 337.406 328.4 341.776 327.099 343.792C326.217 345.16 323.844 340.781 323.844 340.781C323.844 340.781 325.545 346.118 321.971 343.71C318.397 341.301 315.815 336.913 311.832 334.998C307.85 333.082 308.313 329.077 308.313 329.077L320.207 322.18V322.189Z" fill="#FFBB87"/>
<path d="M326.726 339.276C326.572 339.276 326.426 339.167 326.399 339.003C325.599 334.469 321.671 331.786 321.634 331.759C321.48 331.659 321.443 331.449 321.543 331.294C321.643 331.139 321.852 331.102 322.007 331.203C322.18 331.321 326.217 334.076 327.063 338.884C327.099 339.066 326.972 339.24 326.79 339.267C326.772 339.267 326.754 339.267 326.735 339.267L326.726 339.276Z" fill="black"/>
<path d="M324.117 341.703C323.99 341.703 323.872 341.63 323.817 341.511C323.799 341.466 321.717 336.932 319.362 335.582C319.207 335.49 319.143 335.29 319.234 335.125C319.325 334.961 319.534 334.906 319.689 334.998C322.235 336.457 324.335 341.037 324.426 341.228C324.499 341.393 324.426 341.593 324.263 341.666C324.217 341.685 324.172 341.694 324.126 341.694L324.117 341.703Z" fill="black"/>
<path d="M283.726 265.145C283.726 265.145 297.747 262.344 303.03 276.247C307.741 288.645 301.976 306.736 291.382 306.343C280.789 305.96 275.033 301.198 275.033 301.198V268.338L283.726 265.145Z" fill="#0002BB"/>
<path d="M267.568 272.087C267.568 272.087 261.376 266.504 271.005 261.003C280.635 255.502 287.655 263.047 287.736 267.088C287.818 271.138 285.518 273.009 285.518 273.009C285.518 273.009 286.418 281.785 278.016 281.173C269.614 280.571 267.568 272.069 267.568 272.069V272.087Z" fill="#0002BB"/>
<path d="M278.816 279.778L278.989 286.866C278.989 286.866 277.771 288.937 273.642 289.375C270.569 289.703 269.469 289.028 269.469 289.028L269.805 285.425L270.142 281.913L277.561 280.079L278.807 279.769L278.816 279.778Z" fill="#FFBB87"/>
<path d="M278.797 279.44C278.788 279.632 278.715 279.869 278.606 280.134C277.115 283.71 271.587 285.233 269.813 285.434L270.15 281.922L278.797 279.44Z" fill="black"/>
<path d="M268.177 265.811C268.177 265.811 264.694 274.788 266.276 279.686C267.859 284.585 272.332 283.627 274.988 282.551C277.643 281.484 278.825 279.778 278.825 279.778C278.825 279.778 281.371 280.535 282.962 278.117C284.553 275.7 283.408 273.045 281.944 272.489C280.48 271.932 278.816 273.036 278.816 273.036L280.052 270.418C280.052 270.418 273.896 257.619 268.177 265.802V265.811Z" fill="#FFBB87"/>
<path d="M267.613 277.388C267.45 277.388 267.313 277.269 267.286 277.105C266.795 274.094 267.968 272.498 268.013 272.434C268.122 272.288 268.332 272.261 268.477 272.37C268.623 272.48 268.65 272.689 268.541 272.835C268.532 272.854 267.486 274.295 267.931 277.004C267.959 277.187 267.841 277.36 267.659 277.388C267.641 277.388 267.622 277.388 267.604 277.388H267.613Z" fill="black"/>
<path d="M279.007 276.676C278.889 276.676 278.771 276.612 278.716 276.503C278.634 276.338 278.689 276.138 278.853 276.056L282.29 274.222C282.454 274.14 282.654 274.195 282.735 274.359C282.817 274.523 282.763 274.724 282.599 274.806L279.162 276.639C279.116 276.667 279.062 276.676 279.007 276.676Z" fill="black"/>
<path d="M282.216 277.296C282.144 277.296 282.062 277.269 281.998 277.214L280.343 275.764C280.207 275.645 280.189 275.435 280.307 275.299C280.425 275.162 280.634 275.144 280.78 275.262L282.435 276.713C282.571 276.831 282.589 277.041 282.471 277.178C282.407 277.251 282.316 277.287 282.216 277.287V277.296Z" fill="black"/>
<path d="M266.796 270.253C266.796 270.253 266.959 268.064 268.623 266.194C270.396 264.205 271.897 264.534 271.897 264.534C271.897 264.534 269.278 270.281 273.679 272.306C276.807 273.747 278.816 273.045 278.816 273.045L283.299 268.584L274.388 261.322C274.388 261.322 266.259 260.182 266.805 270.263L266.796 270.253Z" fill="#0002BB"/>
<path d="M269.823 279.212C269.686 279.212 269.559 279.13 269.514 278.984C269.45 278.811 269.541 278.619 269.714 278.565C269.714 278.565 270.596 278.245 271.159 277.297C271.25 277.141 271.459 277.087 271.614 277.178C271.769 277.269 271.823 277.479 271.732 277.634C271.041 278.802 269.977 279.176 269.932 279.194C269.895 279.203 269.859 279.212 269.823 279.212Z" fill="black"/>
<path d="M270.732 273.647C270.732 273.647 270.687 273.647 270.66 273.647C270.478 273.611 270.369 273.428 270.405 273.246L270.732 271.804L270.305 271.12C270.205 270.965 270.251 270.755 270.405 270.664C270.56 270.564 270.769 270.609 270.86 270.764L271.36 271.567C271.405 271.64 271.424 271.732 271.405 271.823L271.051 273.401C271.014 273.556 270.878 273.656 270.723 273.656L270.732 273.647Z" fill="black"/>
<path d="M266.331 273.611C266.331 273.611 266.285 273.611 266.258 273.611C266.076 273.574 265.967 273.392 266.013 273.209L266.34 271.768L265.913 271.084C265.813 270.929 265.858 270.719 266.013 270.628C266.167 270.527 266.376 270.573 266.467 270.728L266.967 271.531C267.013 271.604 267.031 271.695 267.013 271.786L266.658 273.364C266.622 273.519 266.485 273.62 266.331 273.62V273.611Z" fill="black"/>
<path d="M267.076 269.515C266.922 269.515 266.786 269.405 266.749 269.25C266.713 269.068 266.822 268.894 267.004 268.858L267.977 268.648C268.168 268.612 268.331 268.721 268.368 268.904C268.404 269.086 268.295 269.259 268.113 269.296L267.14 269.506C267.14 269.506 267.095 269.506 267.067 269.506L267.076 269.515Z" fill="black"/>
<path d="M272.105 269.916C272.105 269.916 272.032 269.916 271.996 269.898L269.95 269.177C269.777 269.113 269.686 268.931 269.75 268.757C269.813 268.584 269.995 268.493 270.168 268.557L272.214 269.277C272.387 269.341 272.478 269.524 272.414 269.697C272.369 269.834 272.241 269.916 272.105 269.916Z" fill="black"/>
<path d="M223.34 317.838C223.34 317.838 218.821 313.742 215.565 313.806C212.301 313.87 209.355 315.895 208.118 316.561L210.946 318.686C211.401 318.714 212.037 318.778 212.037 318.778C212.537 319.608 211.519 321.752 208.264 323.959C205.008 326.176 201.026 327.243 202.417 327.955C203.808 328.667 204.763 328.758 204.763 328.758C204.763 328.758 202.862 328.338 205.49 330.272C206.809 331.239 208.564 330.783 208.564 330.783C208.564 330.783 208.991 332.48 212.765 332.334C216.538 332.197 222.603 328.512 222.603 328.512C222.603 328.512 241.508 332.161 252.374 325.246C263.24 318.331 263.458 308.004 263.458 308.004L248.327 300.769C248.327 300.769 240.698 310.248 223.349 317.838H223.34Z" fill="#FFBB87"/>
<path d="M204.1 328.949C203.936 328.949 203.79 328.831 203.772 328.658C203.745 328.475 203.872 328.311 204.054 328.283C204.1 328.283 208.637 327.654 210.719 325.775C210.856 325.656 211.065 325.665 211.192 325.802C211.31 325.939 211.301 326.149 211.165 326.276C208.928 328.293 204.336 328.922 204.145 328.949C204.127 328.949 204.118 328.949 204.1 328.949Z" fill="black"/>
<path d="M208.555 331.102C208.373 331.102 208.228 330.956 208.228 330.774C208.228 330.591 208.364 330.436 208.546 330.436C208.564 330.436 210.737 330.345 212.992 328.146C213.12 328.019 213.329 328.019 213.465 328.146C213.592 328.274 213.592 328.493 213.465 328.621C211.01 331.011 208.673 331.093 208.573 331.102H208.555Z" fill="black"/>
<path d="M264.931 330.464C264.931 330.464 249.009 351.993 235.924 375.904C222.839 399.815 215.574 429.719 215.574 429.719L249.073 431.799L273.433 372.72L266.267 431.015L298.657 429.874C298.657 429.874 305.667 375.758 301.93 350.233C298.193 324.707 293.81 319.334 293.81 319.334L264.931 330.464Z" fill="#0002BB"/>
<path d="M246.572 301.59C246.572 301.59 259.321 287.277 274.715 286.346C290.109 285.416 295.292 292.851 296.038 296.381C296.774 299.912 298.075 325.191 297.147 326.86C296.22 328.53 289.9 331.504 279.634 332.252C269.359 333 263.985 331.695 263.249 331.139C262.512 330.582 261.585 322.773 261.585 322.773L254.347 326.012L246.581 301.581L246.572 301.59Z" fill="#E24E1B"/>
<path d="M261.585 323.12C261.585 323.12 261.549 323.12 261.53 323.12C261.376 323.093 261.267 322.965 261.258 322.81C261.158 321.286 260.93 316.269 262.012 315.639C262.149 315.566 262.421 315.466 262.758 315.694C264.386 316.78 262.321 321.898 261.894 322.919C261.84 323.047 261.721 323.12 261.585 323.12ZM262.385 316.251C261.985 316.406 261.776 318.568 261.839 321.186C262.576 319.079 263.076 316.716 262.385 316.251Z" fill="white"/>
<path d="M273.278 373.058C273.224 373.058 273.16 373.04 273.114 373.012C272.96 372.921 272.905 372.72 272.996 372.556C273.042 372.474 277.816 364.428 290.136 359.73C290.309 359.666 290.5 359.748 290.564 359.921C290.628 360.094 290.546 360.286 290.373 360.35C278.279 364.966 273.615 372.812 273.569 372.894C273.505 373.003 273.396 373.058 273.278 373.058Z" fill="white"/>
<path d="M278.825 279.778C278.825 279.778 268.777 303.46 285.726 307.073C302.685 310.686 305.067 292.34 303.73 284.449C302.394 276.548 287.745 273.675 287.745 273.675C287.745 273.675 287.827 280.69 278.825 279.787V279.778Z" fill="#0002BB"/>
<path d="M281.662 261.277C281.662 261.277 283.735 250.777 290.255 253.696C296.775 256.615 290.255 267.243 290.255 267.243H284.099L281.662 261.277Z" fill="#0002BB"/>
<path d="M264.285 344.75C264.158 344.75 264.04 344.677 263.985 344.549C261.239 338.319 265.958 335.107 266.004 335.08C266.158 334.98 266.358 335.025 266.458 335.171C266.558 335.326 266.513 335.527 266.367 335.636C266.195 335.755 262.076 338.574 264.585 344.285C264.658 344.449 264.585 344.65 264.412 344.723C264.367 344.741 264.321 344.75 264.276 344.75H264.285Z" fill="white"/>
<path d="M84.5988 264.497C84.5443 264.497 84.4897 264.488 84.4352 264.452C80.2069 262.08 81.9255 256.925 81.9437 256.871C82.0073 256.697 82.1892 256.606 82.362 256.661C82.5347 256.725 82.6257 256.907 82.5711 257.081C82.5075 257.272 81.0162 261.76 84.7534 263.859C84.9171 263.95 84.9716 264.151 84.8807 264.315C84.8171 264.424 84.708 264.488 84.5897 264.488L84.5988 264.497Z" fill="black"/>
<path d="M174.065 332.726C174.065 332.726 181.003 339.541 181.93 339.778C182.858 340.015 188.577 342.652 189.305 341.53C190.45 339.778 185.595 336.12 185.595 336.12C185.595 336.12 183.994 328.092 179.53 328.949C175.065 329.816 174.056 332.717 174.056 332.717L174.065 332.726Z" fill="#FFBB87"/>
<path d="M182.958 329.916C182.876 329.916 182.794 329.889 182.731 329.825C182.703 329.798 179.848 327.125 177.957 328.092C177.802 328.174 177.593 328.11 177.511 327.946C177.429 327.782 177.493 327.581 177.657 327.499C179.966 326.313 183.058 329.214 183.185 329.342C183.322 329.469 183.322 329.679 183.194 329.816C183.131 329.889 183.04 329.916 182.958 329.916Z" fill="black"/>
</g>
</svg>
