<svg width="643" height="260" viewBox="0 0 643 260" fill="none" xmlns="http://www.w3.org/2000/svg">
<path d="M643 0H0V260H643V0Z" fill="black"/>
<mask id="mask0_1455_35089" style="mask-type:alpha" maskUnits="userSpaceOnUse" x="273" y="0" width="370" height="260">
<path d="M643 0H273V260H643V0Z" fill="black"/>
</mask>
<g mask="url(#mask0_1455_35089)">
<path d="M502.235 78.9802C502.235 78.9802 508.077 77.6356 510.239 78.9802C512.4 80.3248 512.4 92.621 510.239 92.7476C508.077 92.8743 502.235 78.9802 502.235 78.9802Z" fill="#FFBB87"/>
<path d="M537.998 88.6067C537.998 88.6067 525.486 92.4164 525.253 105.044C525.019 117.671 548.454 118.909 548.454 118.909C548.454 118.909 562.056 120.253 565.756 111.348C569.446 102.442 557.324 96.9665 557.324 96.9665C557.324 96.9665 542.583 85.3719 538.007 88.6067H537.998Z" fill="#0002BB"/>
<path d="M513.588 86.6288L499.344 100.786C499.344 100.786 500.463 119.435 512.556 127.853C524.648 136.272 541.482 131.03 541.482 131.03V105.96C541.482 105.96 531.571 107.002 526.128 106.281C520.686 105.551 513.598 86.6385 513.598 86.6385L513.588 86.6288Z" fill="#1C34ED"/>
<path d="M501.047 105.453C500.95 105.453 500.853 105.414 500.784 105.336C500.658 105.19 500.668 104.966 500.814 104.839L515.097 92.1338C515.243 92.0071 515.467 92.0169 515.593 92.163C515.72 92.3092 515.71 92.5333 515.564 92.66L501.281 105.365C501.213 105.424 501.125 105.453 501.047 105.453Z" fill="#0002BB"/>
<path d="M604.72 98.4183C604.72 98.4183 599.54 109.477 595.441 108.425C591.342 107.372 589.112 105.356 589.112 105.356C589.112 105.356 584.799 94.6183 588.674 93.3907C594.73 91.4712 604.72 98.4085 604.72 98.4085V98.4183Z" fill="#FFBB87"/>
<path d="M555.903 108.376C555.903 108.376 566.846 110.383 572.26 109.273C577.673 108.162 586.261 100.464 586.261 100.464L601.907 108.766C601.907 108.766 594.381 134.664 566.457 133.69C548.192 133.056 550.246 112.322 550.246 112.322L555.903 108.357V108.376Z" fill="#1C34ED"/>
<path d="M574.83 116.064C574.713 116.064 574.596 116.054 574.45 116.025C573.778 115.898 573.262 115.547 572.912 114.972C571.763 113.111 572.785 109.487 572.834 109.331C572.873 109.195 572.989 109.097 573.126 109.078C573.272 109.058 573.398 109.117 573.476 109.243C574.012 110.081 576.621 114.31 575.725 115.635C575.589 115.84 575.326 116.064 574.83 116.064ZM573.32 110.354C573.097 111.484 572.834 113.491 573.515 114.602C573.759 115.002 574.109 115.235 574.576 115.323C574.781 115.362 575.044 115.372 575.131 115.235C575.501 114.68 574.538 112.41 573.32 110.354Z" fill="#0002BB"/>
<path d="M599.511 113.93C599.453 113.93 599.394 113.92 599.346 113.891L581.616 104.401C581.441 104.303 581.382 104.089 581.47 103.923C581.558 103.748 581.781 103.68 581.947 103.777L599.677 113.267C599.852 113.365 599.91 113.579 599.823 113.745C599.755 113.862 599.638 113.93 599.511 113.93Z" fill="#0002BB"/>
<path d="M545.065 261.728L545.513 271.695L564.538 275.7L565.502 268.831L563.993 259.886L545.065 261.728Z" fill="#FFBB87"/>
<path d="M565.503 150.429C565.503 150.429 570.994 181.949 572.182 211.608C573.37 241.267 574.149 262.692 574.149 262.692L540.899 263.803L539.497 204.904L540.257 151.228L565.493 150.429H565.503Z" fill="#E24E1B"/>
<path d="M526.947 151.237C526.947 151.237 523.539 162.608 521.562 172.342C519.586 182.075 516.616 195.112 516.616 195.112C516.616 195.112 505.575 224.683 525.71 228.912C550.684 234.164 551.813 205.586 551.813 205.586L549.282 145.401L526.947 151.228V151.237Z" fill="#E24E1B"/>
<path d="M548.815 107.285C548.815 107.285 548.766 104.985 541.483 105.96C531.649 107.265 528.096 125.846 528.096 125.846C528.096 125.846 525.039 152.728 525.467 153.293C525.895 153.849 537.657 156.372 550.849 155.671C564.052 154.969 566.924 153.157 567.645 152.738C568.365 152.319 562.173 112.654 562.173 112.654C562.173 112.654 559.164 107.421 548.795 107.285H548.815Z" fill="#1C34ED"/>
<path d="M543.819 100.231L544.102 107.84C544.102 107.84 545.552 109.974 550.012 110.169C553.332 110.315 554.471 109.526 554.471 109.526L553.867 105.687L553.273 101.945L545.173 100.474L543.81 100.231H543.819Z" fill="#FFBB87"/>
<path d="M543.819 99.8701C543.849 100.075 543.936 100.318 544.072 100.601C545.913 104.342 551.959 105.599 553.877 105.697L553.283 101.955L543.829 99.8799L543.819 99.8701Z" fill="black"/>
<path d="M554.325 84.5338C554.325 84.5338 558.667 93.9265 557.295 99.2854C555.922 104.644 551.054 103.914 548.123 102.949C545.202 101.984 543.81 100.23 543.81 100.23C543.81 100.23 541.123 101.205 539.253 98.73C537.384 96.2454 538.435 93.3224 539.974 92.6306C541.502 91.9291 543.372 93.0106 543.372 93.0106L541.872 90.2825C541.872 90.2825 547.636 76.1447 554.325 84.5338Z" fill="#FFBB87"/>
<path d="M516.149 183.215L509.275 175.995L492.295 185.466L496.073 191.273L503.073 197.041L516.149 183.215Z" fill="#FFBB87"/>
<path d="M495.81 164.362C496.852 163.475 498.458 163.602 499.471 164.674C503.443 168.883 512.878 177.837 512.108 178.558C511.125 179.484 498.76 186.09 498.76 186.09C498.76 186.09 503.988 192.189 498.945 194.976C495.07 197.119 487.962 196.817 484.866 196.554C483.883 196.476 482.919 196.671 482.091 197.148C478.508 199.165 468.276 204.32 464.118 200.149C459.036 195.044 461.704 193.66 462.677 192.735C463.515 191.936 488.702 170.432 495.82 164.362H495.81Z" fill="#0002BB"/>
<path d="M555.727 88.4313C555.727 88.4313 555.688 88.4313 555.678 88.4313L553.818 88.1585C553.624 88.1292 553.487 87.9538 553.517 87.759C553.546 87.5641 553.721 87.4374 553.916 87.4569L555.775 87.7297C555.97 87.759 556.106 87.9344 556.077 88.1292C556.048 88.3046 555.902 88.4313 555.727 88.4313Z" fill="black"/>
<path d="M548.814 89.201C548.658 89.201 548.522 89.1036 548.473 88.9574C548.415 88.7723 548.522 88.5677 548.707 88.5092L551.131 87.7395C551.326 87.681 551.52 87.7882 551.579 87.9733C551.637 88.1585 551.53 88.3631 551.345 88.4215L548.921 89.1913C548.921 89.1913 548.853 89.2108 548.814 89.2108V89.201Z" fill="black"/>
<path d="M554.802 96.0506C554.802 96.0506 554.743 96.0506 554.704 96.0408C554.519 95.9921 554.402 95.7972 554.451 95.6024C555.288 92.5429 553.176 91.4517 553.088 91.403C552.913 91.3153 552.845 91.1009 552.923 90.9255C553.01 90.7502 553.224 90.6722 553.4 90.7599C553.429 90.7696 556.126 92.1337 555.133 95.7778C555.094 95.9337 554.948 96.0408 554.792 96.0408L554.802 96.0506Z" fill="black"/>
<path d="M551.316 99.3147C551.17 99.3147 551.024 99.2952 550.868 99.2562C549.671 98.9152 549.544 97.5414 549.534 97.4829C549.525 97.366 549.573 97.2588 549.661 97.1809C549.749 97.103 549.865 97.0835 549.982 97.1127L552.796 97.8435C552.913 97.8727 553.001 97.9604 553.04 98.0675C553.078 98.1845 553.059 98.3014 552.991 98.3988C552.962 98.4378 552.28 99.3147 551.316 99.3147ZM550.391 97.9506C550.508 98.204 550.713 98.467 551.063 98.5742C551.414 98.6716 551.745 98.5352 551.988 98.3696L550.391 97.9604V97.9506Z" fill="black"/>
<path d="M543.391 96.9178C543.342 96.9178 543.293 96.9081 543.245 96.8886L539.428 95.1543C539.253 95.0763 539.175 94.862 539.253 94.6866C539.331 94.5112 539.545 94.4235 539.72 94.5112L543.537 96.2455C543.712 96.3235 543.79 96.5378 543.712 96.7132C543.654 96.8399 543.527 96.9178 543.391 96.9178Z" fill="black"/>
<path d="M539.993 97.8045C539.905 97.8045 539.808 97.7655 539.74 97.6973C539.604 97.5609 539.604 97.3368 539.74 97.1907L541.424 95.5245C541.561 95.3881 541.785 95.3881 541.931 95.5245C542.067 95.661 542.067 95.8851 541.931 96.0312L540.246 97.6973C540.178 97.7655 540.09 97.8045 539.993 97.8045Z" fill="black"/>
<path d="M548.814 85.0893C548.814 85.0893 550.986 84.758 553.264 86.1318C555.532 87.5057 556 88.8405 556 88.8405C556 88.8405 557.402 85.2939 554.325 82.1663C551.248 79.0386 545.747 77.9669 541.22 81.5719C537.287 84.6996 537.491 89.5323 537.491 89.5323L543.391 93.0107C543.391 93.0107 550.557 91.6271 548.824 85.099L548.814 85.0893Z" fill="#0002BB"/>
<path d="M543.985 105.443C543.985 105.443 547.87 112.137 554.802 109.146C561.734 106.154 535.184 149.532 535.184 149.532L538.728 111.562L543.975 105.433L543.985 105.443Z" fill="#1C34ED"/>
<path d="M495.313 195.112L517.668 179.571L523.188 188.399L521.563 227.538C521.563 227.538 512.566 225.677 495.323 195.112H495.313Z" fill="#E24E1B"/>
<path d="M540.344 227.665C540.237 227.665 540.13 227.616 540.062 227.519C539.945 227.363 539.974 227.139 540.13 227.022C540.208 226.963 548.133 220.913 552.359 205.499C556.594 190.016 553.994 166.32 553.965 166.077C553.946 165.921 554.033 165.775 554.17 165.716L562.864 161.77C563.039 161.692 563.253 161.77 563.331 161.946C563.409 162.121 563.331 162.335 563.156 162.413L554.695 166.252C554.968 168.883 557.071 190.942 553.04 205.684C548.746 221.351 540.636 227.529 540.548 227.597C540.49 227.645 540.412 227.665 540.334 227.665H540.344Z" fill="white"/>
<path d="M525.583 192.462C525.496 192.462 525.388 192.462 525.281 192.433C521.747 191.838 520.131 183.186 520.063 182.826C520.034 182.67 520.111 182.504 520.257 182.436C520.403 182.368 520.579 182.407 520.676 182.533C522.224 184.394 527.219 190.562 526.362 192.062C526.255 192.257 526.031 192.462 525.573 192.462H525.583ZM521.075 184.131C521.767 186.957 523.285 191.38 525.398 191.741C525.632 191.78 525.739 191.741 525.749 191.721C526.128 191.059 523.743 187.483 521.066 184.141L521.075 184.131Z" fill="white"/>
<path d="M528.095 167.753C527.91 167.753 527.755 167.606 527.745 167.421C527.725 167.226 527.871 167.051 528.076 167.041C528.329 167.022 534.307 166.457 536.001 158.155C536.04 157.96 536.235 157.843 536.42 157.882C536.615 157.921 536.741 158.107 536.693 158.301C534.891 167.148 528.193 167.753 528.125 167.753C528.125 167.753 528.105 167.753 528.095 167.753Z" fill="white"/>
<path d="M563.984 134.06C563.984 134.06 563.935 134.06 563.906 134.06C563.711 134.021 563.594 133.826 563.633 133.631C565.542 125.028 561.988 120.088 561.959 120.039C561.842 119.883 561.881 119.659 562.036 119.542C562.192 119.425 562.416 119.454 562.533 119.62C562.689 119.825 566.311 124.852 564.334 133.797C564.295 133.962 564.149 134.079 563.984 134.079V134.06Z" fill="#0002BB"/>
<path d="M551.239 110.266C546.263 110.266 543.712 105.667 543.673 105.609C543.576 105.434 543.644 105.219 543.82 105.131C543.995 105.034 544.209 105.102 544.297 105.278C544.443 105.541 547.85 111.65 554.666 108.824C554.841 108.746 555.055 108.834 555.133 109.019C555.211 109.204 555.123 109.409 554.938 109.487C553.585 110.052 552.349 110.276 551.239 110.276V110.266Z" fill="#0002BB"/>
<path d="M550.878 93.1082C550.712 93.1082 550.566 92.9912 550.527 92.8256L550.167 91.1595C550.148 91.0523 550.167 90.9354 550.245 90.8574L550.966 90.0097C551.092 89.8636 551.316 89.8441 551.462 89.9708C551.608 90.0974 551.628 90.3215 551.501 90.4677L550.888 91.1887L551.209 92.6892C551.248 92.8841 551.131 93.0692 550.936 93.1082C550.907 93.1082 550.888 93.1082 550.858 93.1082H550.878Z" fill="black"/>
<path d="M556.087 92.4163C555.921 92.4163 555.775 92.2994 555.736 92.1338L555.376 90.4676C555.357 90.3605 555.376 90.2435 555.454 90.1656L556.175 89.3179C556.301 89.1718 556.525 89.1523 556.671 89.2789C556.817 89.4056 556.837 89.6297 556.71 89.7759L556.097 90.4969L556.418 91.9974C556.457 92.1922 556.34 92.3773 556.145 92.4163C556.116 92.4163 556.097 92.4163 556.067 92.4163H556.087Z" fill="black"/>
<path d="M525.398 112.946C525.32 112.946 525.242 112.936 525.164 112.907C523.373 112.4 524.522 107.567 524.921 106.096C524.96 105.94 525.087 105.823 525.272 105.833C525.437 105.833 525.573 105.95 525.612 106.106C525.924 107.431 526.859 111.835 525.914 112.741C525.778 112.877 525.603 112.946 525.408 112.946H525.398ZM525.242 107.84C524.814 110.032 524.746 112.059 525.359 112.225C525.719 112.078 525.69 110.276 525.242 107.84Z" fill="#0002BB"/>
<path d="M572.25 71.1465L602.345 65.5732L632.44 60L622.217 88.8698L611.994 117.73L592.122 94.4333L572.25 71.1465Z" fill="#E24E1B"/>
<path d="M595.919 101.039C595.714 101.039 595.559 100.874 595.568 100.679C595.617 97.8727 593.076 95.6999 593.047 95.6707C592.901 95.5441 592.881 95.32 593.008 95.1738C593.134 95.0276 593.358 95.0082 593.504 95.1251C593.621 95.2225 596.338 97.5415 596.279 100.689C596.279 100.883 596.114 101.039 595.929 101.039H595.919Z" fill="black"/>
<path d="M593.271 95.4077C593.271 95.4077 594.215 85.6545 591.752 86.1514C589.289 86.6386 586.689 95.8754 587.254 97.2297C587.819 98.584 591.061 98.8081 591.061 98.8081L593.271 95.4174V95.4077Z" fill="#FFBB87"/>
<path d="M460.146 119.123C459.611 120.058 454.382 126.674 445.727 127.765C437.071 128.857 437.246 118.441 437.246 118.441L449.826 110.812L460.156 119.123H460.146Z" fill="#FFBB87"/>
<path d="M478.626 134.245C497.505 134.245 512.81 118.929 512.81 100.036C512.81 81.1425 497.505 65.8265 478.626 65.8265C459.746 65.8265 444.441 81.1425 444.441 100.036C444.441 118.929 459.746 134.245 478.626 134.245Z" fill="#07CBF5"/>
<path d="M437.967 113.423C437.967 113.423 444.919 105.979 448.259 105.95C451.598 105.921 456.262 107.967 457.43 111.455C458.608 114.953 451.228 112.332 451.228 112.332C451.228 112.332 446.049 119.903 441.404 119.844C436.76 119.786 437.967 113.413 437.967 113.413V113.423Z" fill="#FFBB87"/>
<path d="M443.595 132.452C443.595 132.452 409.323 143.638 395.215 128.808C381.107 113.988 391.583 103.183 391.583 103.183C391.583 103.183 412.575 108.698 417.209 108.961L437.032 110.51L443.595 132.442V132.452Z" fill="#E24E1B"/>
<path d="M350.029 210.224C350.029 210.74 349.61 211.159 349.094 211.159C348.578 211.159 348.159 210.74 348.159 210.224C348.159 209.708 348.578 209.289 349.094 209.289C349.61 209.289 350.029 209.708 350.029 210.224Z" fill="white"/>
<path d="M405.516 259.341L404.24 275.291L386.803 273.956V259.984L405.516 259.341Z" fill="#FFBB87"/>
<path d="M339.747 224.147L323.779 223.446L324.49 205.966L338.442 205.46L339.747 224.147Z" fill="#FFBB87"/>
<path d="M409.663 154.969C409.663 154.969 420.909 183.41 420.685 209.094C420.451 234.777 412.681 262.575 412.681 262.575L378.556 263.219C378.556 263.219 384.29 235.947 384.777 229.662C385.264 223.387 386.549 183.625 386.549 183.625L386.919 156.606L409.673 154.959L409.663 154.969Z" fill="#1C34ED"/>
<path d="M366.571 154.969C366.571 154.969 367.506 168.854 365.188 179.065C362.881 189.227 355.472 198.22 347.829 200.724C340.186 203.228 332.737 202.274 332.737 202.274L331.754 231.952C331.754 231.952 357.565 238.88 375.694 227.519C393.823 216.158 392.654 192.491 392.654 192.491L393.998 154.326L366.561 154.969H366.571Z" fill="#1C34ED"/>
<path d="M380.181 101.595C393.384 100.348 404.347 109.35 406.138 122.124L407.2 129.724C407.2 129.724 410.666 154.959 410.091 155.934C409.517 156.908 397.531 159.422 385.945 158.867C374.359 158.311 367.037 156.353 366.463 155.934C365.888 155.515 367.612 103.641 367.612 103.222C367.612 103.017 373.093 102.257 380.172 101.595H380.181Z" fill="#E24E1B"/>
<path d="M385.673 217.688C385.595 217.688 385.517 217.658 385.449 217.61C385.293 217.493 385.264 217.269 385.391 217.113C401.738 196.408 394.046 165.96 393.968 165.648C393.939 165.55 393.968 165.443 394.017 165.356C394.076 165.268 394.173 165.219 394.27 165.209L404.63 164.206C404.824 164.186 405 164.333 405.019 164.527C405.039 164.722 404.893 164.898 404.698 164.917L394.747 165.882C395.604 169.594 401.475 197.879 385.946 217.561C385.878 217.649 385.77 217.697 385.663 217.697L385.673 217.688Z" fill="#0002BB"/>
<path d="M369.667 165.726C369.541 165.726 369.424 165.726 369.297 165.726C369.103 165.726 368.947 165.56 368.956 165.356C368.956 165.161 369.122 165.015 369.307 165.015C375.431 165.171 376.006 160.767 376.025 160.572C376.045 160.377 376.22 160.24 376.414 160.26C376.609 160.279 376.746 160.455 376.726 160.65C376.726 160.698 376.113 165.726 369.658 165.726H369.667Z" fill="#0002BB"/>
<path d="M364.029 198.961C363.639 198.961 363.269 198.834 362.919 198.581C360.816 197.071 360.027 191.234 359.998 190.991C359.979 190.835 360.056 190.689 360.193 190.62C360.329 190.552 360.495 190.581 360.602 190.689C361.488 191.604 365.908 196.291 365.324 198.162C365.236 198.444 365.003 198.805 364.389 198.922C364.272 198.941 364.155 198.961 364.039 198.961H364.029ZM360.884 192.043C361.264 194.021 362.082 197.1 363.328 198.006C363.62 198.22 363.922 198.298 364.243 198.23C364.574 198.162 364.623 198.016 364.642 197.957C364.954 196.973 362.744 194.099 360.884 192.043Z" fill="#0002BB"/>
<path d="M308.094 201.669C306.955 202.215 307.432 209.825 307.208 210.458C306.985 211.101 311.239 213.264 310.49 214.453C309.75 215.641 307.588 217.005 306.517 218.75C305.514 220.386 303.694 248.282 304.044 253.728C304.073 254.177 304.492 254.518 304.979 254.469C306.186 254.352 308.533 254.05 310.899 253.309C313.031 252.637 315.202 251.614 316.575 250.036C320.177 245.953 322.115 236.979 324.539 233.852C326.963 230.705 332.513 227.402 331.656 225.365C330.79 223.329 326.447 219.295 327.479 213.995C328.511 208.694 330.001 206.317 328.784 204.777C328.025 203.813 320.411 202.614 314.637 202.001C311.249 201.63 308.494 201.465 308.075 201.669H308.094Z" fill="#FFB700"/>
<path d="M383.561 84.6995C383.561 84.6995 390.23 85.0211 390.61 78.6099C391.009 71.7895 384.71 71.1367 382.032 73.8941C379.355 76.6515 379.851 79.4576 379.851 79.4576C379.851 79.4576 377.982 77.772 375.947 79.8376C374.457 81.3575 375.226 83.8324 375.226 83.8324C375.226 83.8324 371.789 83.696 372.101 86.7067C372.422 89.7174 374.574 91.2374 374.574 91.2374L383.561 84.6898V84.6995Z" fill="#0002BB"/>
<path d="M377.456 96.4891L378.147 103.582C378.147 103.582 379.627 105.502 383.804 105.424C386.92 105.375 387.932 104.566 387.932 104.566L387.153 101.01L386.384 97.5511L378.731 96.6353L377.446 96.4794L377.456 96.4891Z" fill="#FFBB87"/>
<path d="M378.741 96.645C378.78 96.8399 378.878 97.0542 379.014 97.3076C380.951 100.698 385.362 101.039 387.163 101.02L386.394 97.5609L378.741 96.645Z" fill="black"/>
<path d="M386.394 81.2309C386.394 81.2309 390.989 89.7661 389.996 94.8522C389.013 99.9382 384.417 99.529 381.633 98.7885C378.848 98.048 377.456 96.4891 377.456 96.4891C377.456 96.4891 374.993 97.5511 373.114 95.3393C371.225 93.1276 372.052 90.3312 373.445 89.6005C374.837 88.86 376.638 89.7661 376.638 89.7661L375.08 87.301C375.08 87.301 379.676 73.7674 386.394 81.2309Z" fill="#FFBB87"/>
<path d="M376.725 93.6928C376.667 93.6928 376.609 93.6733 376.55 93.6441L373.133 91.6564C372.967 91.559 372.909 91.3446 373.006 91.1692C373.104 91.0036 373.328 90.9451 373.493 91.0426L376.91 93.0302C377.076 93.1277 377.134 93.342 377.037 93.5174C376.969 93.6343 376.852 93.6928 376.725 93.6928Z" fill="black"/>
<path d="M373.805 93.9362C373.659 93.9362 373.523 93.8485 373.474 93.7024C373.406 93.5173 373.503 93.3127 373.688 93.2445L375.742 92.4942C375.927 92.426 376.132 92.5234 376.2 92.7086C376.268 92.8937 376.171 93.0983 375.986 93.1665L373.932 93.9168C373.932 93.9168 373.854 93.9362 373.815 93.9362H373.805Z" fill="black"/>
<path d="M380.795 85.6252C380.727 85.6252 380.668 85.6057 380.61 85.5667C380.445 85.4595 380.396 85.2452 380.493 85.0795C381.36 83.696 382.703 83.8031 383.297 84.0565C383.482 84.1344 383.56 84.339 383.482 84.5242C383.404 84.7093 383.2 84.7872 383.015 84.719C382.898 84.6703 381.827 84.2806 381.087 85.4693C381.019 85.5765 380.902 85.6349 380.785 85.6349L380.795 85.6252Z" fill="black"/>
<path d="M387.64 84.6216C387.572 84.6216 387.504 84.6021 387.446 84.5631C386.667 84.037 385.956 84.5534 385.946 84.5631C385.791 84.68 385.567 84.6411 385.45 84.4852C385.333 84.3293 385.372 84.1052 385.528 83.9883C385.576 83.959 386.657 83.1796 387.835 83.9883C388.001 84.0954 388.04 84.3195 387.933 84.4852C387.864 84.5924 387.748 84.6411 387.64 84.6411V84.6216Z" fill="black"/>
<path d="M386.686 92.6989C386.686 92.6989 386.637 92.6989 386.617 92.6989C386.423 92.6599 386.296 92.4748 386.335 92.2799C386.841 89.6687 385.371 88.0026 385.303 87.9344C385.176 87.7882 385.186 87.5641 385.332 87.4277C385.478 87.301 385.702 87.3108 385.829 87.4472C385.897 87.5251 387.601 89.4349 387.026 92.4066C386.997 92.5722 386.841 92.6892 386.676 92.6892L386.686 92.6989Z" fill="black"/>
<path d="M387.942 88.0317C387.796 88.0317 387.66 87.944 387.611 87.8076L387.007 86.2194C386.939 86.0343 387.027 85.8297 387.212 85.7615C387.397 85.6933 387.601 85.781 387.669 85.9661L388.273 87.5543C388.341 87.7394 388.254 87.944 388.069 88.0122C388.03 88.0317 387.981 88.0317 387.942 88.0317Z" fill="black"/>
<path d="M383.464 88.558C383.318 88.558 383.181 88.4703 383.133 88.3339L382.529 86.7457C382.461 86.5606 382.548 86.356 382.733 86.2878C382.918 86.2196 383.123 86.3073 383.191 86.4924L383.795 88.0806C383.863 88.2657 383.775 88.4703 383.59 88.5385C383.551 88.558 383.503 88.558 383.464 88.558Z" fill="black"/>
<path d="M387.339 83.1602C387.339 83.1602 386.433 81.8059 384.661 81.9715C382.889 82.1372 381.984 83.4818 381.984 83.4818C381.984 83.4818 383.055 86.3853 380.796 88.2073C378.537 90.0293 376.638 89.7663 376.638 89.7663L374.837 89.3181L373.309 86.892L377.826 80.9582L384.019 76.866L387.64 79.5649L387.339 83.17V83.1602Z" fill="#0002BB"/>
<path d="M385.215 94.5209C384.592 94.5209 383.521 94.3455 382.859 93.225C382.762 93.0594 382.81 92.8353 382.986 92.7378C383.151 92.6404 383.375 92.6891 383.472 92.8645C384.164 94.0337 385.507 93.7999 385.566 93.7901C385.76 93.7511 385.945 93.8778 385.984 94.0727C386.023 94.2675 385.897 94.4527 385.702 94.4916C385.683 94.4916 385.498 94.5306 385.225 94.5306L385.215 94.5209Z" fill="black"/>
<path d="M389.782 91.364C388.243 91.364 386.987 89.9415 386.987 88.2072C386.987 86.4728 388.243 85.0503 389.782 85.0503C391.32 85.0503 392.576 86.4728 392.576 88.2072C392.576 89.9415 391.32 91.364 389.782 91.364ZM389.782 85.7518C388.633 85.7518 387.698 86.8528 387.698 88.1974C387.698 89.542 388.633 90.643 389.782 90.643C390.93 90.643 391.865 89.542 391.865 88.1974C391.865 86.8528 390.93 85.7518 389.782 85.7518Z" fill="#07CBF5"/>
<path d="M382.948 92.0559C381.205 92.0559 379.793 90.6333 379.793 88.899C379.793 87.1647 381.214 85.7421 382.948 85.7421C384.681 85.7421 386.102 87.1647 386.102 88.899C386.102 90.6333 384.681 92.0559 382.948 92.0559ZM382.948 86.4437C381.594 86.4437 380.504 87.5447 380.504 88.8893C380.504 90.2338 381.604 91.3349 382.948 91.3349C384.291 91.3349 385.391 90.2338 385.391 88.8893C385.391 87.5447 384.291 86.4437 382.948 86.4437Z" fill="#07CBF5"/>
<path d="M387.339 88.5579H385.625C385.43 88.5579 385.274 88.402 385.274 88.2071C385.274 88.0123 385.43 87.8564 385.625 87.8564H387.339C387.533 87.8564 387.689 88.0123 387.689 88.2071C387.689 88.402 387.533 88.5579 387.339 88.5579Z" fill="#07CBF5"/>
<path d="M374.827 89.6686C374.691 89.6686 374.554 89.5809 374.496 89.4445C374.418 89.2594 374.515 89.0548 374.691 88.9866C376.784 88.1487 380.046 88.5384 380.182 88.5481C380.377 88.5676 380.513 88.7527 380.493 88.9476C380.474 89.1425 380.289 89.2789 380.094 89.2594C380.065 89.2594 376.872 88.8794 374.954 89.6491C374.915 89.6686 374.866 89.6784 374.817 89.6784L374.827 89.6686Z" fill="#07CBF5"/>
<path d="M415.184 117.204C415.116 117.204 415.048 117.204 414.979 117.194C414.395 117.116 414.123 116.785 413.996 116.512C413.139 114.661 416.518 109.36 416.897 108.766C416.985 108.639 417.141 108.581 417.287 108.62C417.433 108.659 417.54 108.785 417.55 108.941C417.589 109.574 417.91 115.196 416.245 116.775C415.943 117.067 415.573 117.213 415.184 117.213V117.204ZM416.888 110.13C415.603 112.293 414.191 115.235 414.639 116.21C414.687 116.317 414.785 116.453 415.067 116.483C415.33 116.512 415.554 116.444 415.758 116.249C416.751 115.313 416.917 112.147 416.888 110.13Z" fill="white"/>
<path d="M442.991 119.912C442.202 119.912 441.355 119.737 440.479 119.298C440.303 119.211 440.235 118.996 440.313 118.821C440.401 118.646 440.615 118.577 440.79 118.655C444.996 120.731 448.355 116.054 448.394 116.005C448.511 115.849 448.725 115.81 448.891 115.917C449.047 116.034 449.086 116.249 448.978 116.414C448.949 116.453 446.476 119.902 442.991 119.902V119.912Z" fill="black"/>
<path d="M378.868 109.321C378.819 109.321 378.761 109.321 378.712 109.321C378.303 109.292 377.953 109.087 377.719 108.746C376.765 107.372 377.7 103.884 377.807 103.495C377.836 103.378 377.924 103.29 378.031 103.251C378.138 103.212 378.264 103.231 378.362 103.3C378.401 103.329 382.568 106.31 387.816 104.245C387.903 104.206 388.001 104.216 388.088 104.245C388.176 104.284 388.244 104.352 388.273 104.44C388.672 105.482 389.471 107.967 388.371 108.434C387.446 108.824 385.07 106.973 383.843 105.93C383.094 106.788 380.728 109.321 378.868 109.321ZM378.371 104.157C378.089 105.356 377.739 107.528 378.294 108.337C378.41 108.503 378.556 108.59 378.761 108.61C380.104 108.717 382.1 106.817 383.132 105.667C380.844 105.482 379.131 104.615 378.362 104.157H378.371ZM384.651 105.677C386.229 106.973 387.757 107.928 388.098 107.791C388.351 107.684 388.234 106.466 387.738 105.034C386.657 105.424 385.615 105.619 384.661 105.677H384.651Z" fill="white"/>
<path d="M449.948 137.871L400.035 116.277L378.457 166.226L428.369 187.82L449.948 137.871Z" fill="#0002BB"/>
<path d="M389.373 130.737C390.824 130.942 393.599 133.349 393.599 133.349C393.599 133.349 398.788 134.459 399.061 136.047C399.333 137.636 396.821 139.175 396.821 139.175C396.821 139.175 398.068 142.459 397.746 143.667C397.425 144.875 396.588 150.663 393.501 151.89C390.415 153.108 377.777 147.204 377.777 147.204L377.397 134.313C377.397 134.313 387.932 130.533 389.383 130.737H389.373Z" fill="#FFBB87"/>
<path d="M393.598 133.699H387.338C387.143 133.699 386.987 133.543 386.987 133.348C386.987 133.154 387.143 132.998 387.338 132.998H393.598C393.793 132.998 393.949 133.154 393.949 133.348C393.949 133.543 393.793 133.699 393.598 133.699Z" fill="black"/>
<path d="M367.622 103.222C367.622 103.222 339.066 111.26 339.64 133.982C340.215 156.704 378.819 152.962 378.819 152.962V131.965L367.622 103.222Z" fill="#E24E1B"/>
<path d="M378.4 131.478C378.4 131.478 378.342 131.478 378.303 131.468C378.176 131.439 365.772 128.077 355.296 126.703C355.101 126.674 354.965 126.499 354.994 126.304C355.023 126.109 355.199 125.973 355.393 126.002C365.918 127.385 378.371 130.757 378.498 130.786C378.683 130.835 378.799 131.029 378.751 131.224C378.712 131.38 378.566 131.487 378.41 131.487L378.4 131.478Z" fill="white"/>
<path d="M364.312 128.223C364.312 128.223 364.244 128.223 364.205 128.204C363.426 127.96 356.582 125.758 356.056 123.644C355.988 123.352 355.988 122.904 356.416 122.475C356.767 122.124 357.214 121.958 357.74 121.997C360.349 122.173 364.41 127.424 364.585 127.649C364.682 127.775 364.682 127.941 364.585 128.068C364.517 128.165 364.41 128.223 364.293 128.223H364.312ZM357.614 122.699C357.331 122.699 357.107 122.787 356.922 122.972C356.708 123.186 356.718 123.352 356.747 123.469C357.029 124.599 360.525 126.177 363.27 127.142C361.81 125.417 359.279 122.806 357.701 122.699C357.672 122.699 357.643 122.699 357.614 122.699Z" fill="white"/>
<path d="M378.4 153.128H365.967C365.772 153.128 365.616 152.972 365.616 152.767C365.616 152.562 365.772 152.416 365.967 152.416H378.4C378.595 152.416 378.75 152.572 378.75 152.767C378.75 152.962 378.595 153.128 378.4 153.128Z" fill="white"/>
<path d="M507.923 78.3858C507.923 78.3858 498.566 78.0935 500.727 80.6171C502.889 83.1406 508.448 83.316 508.448 83.316C508.448 83.316 511.525 79.7889 507.913 78.3858H507.923Z" fill="#FFBB87"/>
</g>
</svg>
