<svg width="280" height="400" viewBox="0 0 280 400" fill="none" xmlns="http://www.w3.org/2000/svg">
<path d="M280 0H0V400H280V0Z" fill="black"/>
<mask id="mask0_1455_33587" style="mask-type:alpha" maskUnits="userSpaceOnUse" x="0" y="220" width="280" height="180">
<path d="M280 220H0V400H280V220Z" fill="black"/>
</mask>
<g mask="url(#mask0_1455_33587)">
<path d="M176.009 377.828H224.593C226.65 377.828 228.321 376.182 228.321 374.155V303.993C228.321 301.966 226.65 300.32 224.593 300.32H176.009C173.952 300.32 172.28 301.966 172.28 303.993V374.155C172.28 376.182 173.952 377.828 176.009 377.828ZM224.593 301.041C226.254 301.041 227.599 302.366 227.599 304.003V374.164C227.599 375.801 226.254 377.127 224.593 377.127H176.009C174.347 377.127 173.002 375.801 173.002 374.164V304.003C173.002 302.366 174.347 301.041 176.009 301.041H224.593Z" fill="white"/>
<path d="M231.001 383.168H182.427C180.564 383.168 179.055 381.68 179.055 379.845V309.693C179.055 307.858 180.564 306.37 182.427 306.37H231.001C232.864 306.37 234.374 307.858 234.374 309.693V379.845C234.374 381.68 232.864 383.168 231.001 383.168Z" fill="#0017BF"/>
<path d="M193.494 340.701C193.246 339.61 193.118 338.479 193.118 337.31C193.118 336.082 193.266 334.884 193.543 333.734L195.758 333.714L197.073 330.606L195.501 329.125C196.747 327.156 198.428 325.49 200.416 324.252L202.137 325.86L205.271 324.545L205.172 322.274C206.339 322.001 207.556 321.855 208.802 321.855C209.939 321.855 211.046 321.972 212.114 322.206V324.671L215.239 326.006L217.039 324.174C219.027 325.383 220.718 327.02 221.974 328.949L220.214 330.596L221.529 333.705L224.041 333.734C224.317 334.884 224.466 336.082 224.466 337.31C224.466 338.479 224.337 339.61 224.08 340.711L221.519 340.74L220.204 343.849L222.033 345.574C220.787 347.513 219.106 349.169 217.138 350.397L215.22 348.448L212.095 349.783V352.434C211.027 352.658 209.919 352.785 208.782 352.785C207.536 352.785 206.31 352.638 205.153 352.366L205.261 349.91L202.127 348.594L200.287 350.319C198.319 349.062 196.648 347.386 195.422 345.408L197.073 343.858L195.758 340.75L193.503 340.73L193.494 340.701ZM208.792 344.813C212.995 344.813 216.406 341.461 216.406 337.31C216.406 333.159 213.004 329.816 208.792 329.816C204.579 329.816 201.187 333.169 201.187 337.31C201.187 341.452 204.599 344.813 208.792 344.813Z" fill="white"/>
<path d="M190.576 362.997C190.25 362.422 189.983 361.799 189.795 361.146C189.587 360.454 189.469 359.752 189.429 359.06L190.675 358.68L190.893 356.712L189.755 356.137C190.131 354.822 190.804 353.604 191.713 352.58L192.959 353.214L194.512 351.957L194.077 350.69C194.69 350.349 195.353 350.066 196.055 349.862C196.698 349.676 197.34 349.559 197.983 349.521L198.398 350.914L200.386 351.158L201.098 349.823C202.423 350.183 203.659 350.826 204.698 351.713L203.986 352.931L205.251 354.471L206.676 354.071C207.022 354.675 207.308 355.328 207.516 356.03C207.714 356.693 207.833 357.355 207.872 358.018L206.428 358.447L206.211 360.415L207.536 361.087C207.16 362.393 206.488 363.601 205.578 364.615L204.164 363.826L202.621 365.092L203.066 366.593C202.502 366.895 201.889 367.149 201.256 367.334C200.544 367.538 199.832 367.655 199.13 367.694L198.774 366.291L196.777 366.057L196.025 367.334C194.7 366.944 193.474 366.272 192.445 365.356L193.118 364.215L191.852 362.676L190.576 363.036V362.997ZM199.921 362.822C202.295 362.13 203.659 359.674 202.957 357.336C202.255 354.997 199.763 353.652 197.39 354.344C195.016 355.036 193.652 357.492 194.354 359.83C195.056 362.169 197.548 363.514 199.921 362.822Z" fill="#5EF939"/>
<path d="M205.472 220H257.244C258.629 220 259.752 221.107 259.752 222.472V281.935C259.752 283.3 258.629 284.407 257.244 284.407H205.472C204.087 284.407 202.964 283.3 202.964 281.935V222.472C202.964 221.107 204.087 220 205.472 220Z" fill="#0017BF"/>
<path d="M227.996 231.455H249.563V256.479H227.996V231.455Z" fill="#FFB904"/>
<path d="M213.153 249.407H237.034V272.94H213.153V249.407Z" fill="#3DF130"/>
<path d="M239.192 242.019L243.929 242.324L240.241 245.122C240.241 245.122 237.469 244.472 239.192 242.019Z" fill="white"/>
<path d="M51.3129 324.25C51.3129 324.25 75.2805 313.15 87.6075 316.068C99.9479 318.985 105.196 293.816 105.196 293.816C105.196 293.816 69.9379 269.76 41.3948 311.705C20.7512 342.033 49.7384 322.3 49.7384 322.3L51.3129 324.25Z" fill="#FFBB87"/>
<path d="M85.8984 362.786L38.9725 468.29L66.9907 496.761C66.9907 496.761 81.121 485.277 95.2378 446.715C109.368 408.138 104.335 370.716 104.335 370.716L85.8984 362.786Z" fill="#3DF130"/>
<path d="M124.319 261.564C124.319 261.564 104.685 251.234 111.252 244.418C117.819 237.602 126.634 253.356 126.634 253.356L124.306 261.564H124.319Z" fill="#0017BF"/>
<path d="M139.606 247.799C139.606 247.799 127.643 242.216 121.452 251.021C115.45 259.575 122.96 267.889 122.96 267.889L137.13 256.14L139.606 247.799Z" fill="#0017BF"/>
<path d="M127.348 272.93L127.267 282.836C127.267 282.836 129.057 285.701 134.924 286.218C139.298 286.602 140.846 285.648 140.846 285.648L140.28 280.622L139.715 275.728L129.124 273.342L127.348 272.944V272.93Z" fill="#FFBB87"/>
<path d="M129.123 273.339C129.15 273.605 129.244 273.936 129.406 274.294C131.613 279.254 137.749 280.381 140.279 280.62L139.714 275.726L129.123 273.339Z" fill="black"/>
<path d="M140.805 252.374C140.805 252.374 147.103 264.786 145.447 272.013C143.792 279.241 137.144 278.471 133.12 277.291C129.097 276.111 127.145 273.83 127.145 273.83C127.145 273.83 123.525 275.249 120.888 272C118.25 268.751 119.555 264.799 121.614 263.792C123.673 262.797 126.257 264.163 126.257 264.163L124.104 260.569C124.104 260.569 131.371 241.394 140.805 252.374Z" fill="#FFBB87"/>
<path d="M143.133 268.91C143.389 268.91 143.604 268.711 143.618 268.459C143.927 264.069 142.003 261.934 141.922 261.855C141.734 261.656 141.424 261.643 141.236 261.828C141.034 262.001 141.02 262.319 141.195 262.505C141.209 262.518 142.931 264.454 142.635 268.393C142.622 268.658 142.824 268.896 143.093 268.91C143.093 268.91 143.12 268.91 143.133 268.91Z" fill="black"/>
<path d="M126.418 269.402C126.607 269.402 126.795 269.296 126.876 269.111C126.983 268.859 126.876 268.58 126.607 268.474L121.331 266.299C121.076 266.193 120.793 266.299 120.685 266.564C120.578 266.816 120.685 267.095 120.954 267.201L126.23 269.376C126.23 269.376 126.351 269.416 126.418 269.416V269.402Z" fill="black"/>
<path d="M121.816 270.728C121.951 270.728 122.072 270.675 122.166 270.582L124.387 268.288C124.575 268.089 124.562 267.784 124.373 267.598C124.171 267.412 123.862 267.426 123.673 267.611L121.453 269.906C121.265 270.104 121.278 270.409 121.466 270.595C121.561 270.688 121.682 270.728 121.803 270.728H121.816Z" fill="black"/>
<path d="M140.132 272.811C141.519 272.811 142.151 271.803 142.286 271.273C142.326 271.14 142.286 270.994 142.218 270.888C142.138 270.769 142.017 270.702 141.882 270.676C141.868 270.676 140.132 270.397 139.204 269.124C139.083 268.952 138.867 268.886 138.666 268.952C138.464 269.018 138.329 269.191 138.316 269.403C138.316 269.615 138.289 271.551 139.137 272.4C139.406 272.678 139.756 272.824 140.132 272.824H140.146L140.132 272.811ZM141.074 271.472C140.9 271.671 140.563 271.883 140.119 271.843C140.011 271.843 139.917 271.803 139.823 271.71C139.608 271.485 139.473 271.074 139.392 270.649C139.984 271.074 140.617 271.326 141.074 271.458V271.472Z" fill="black"/>
<path d="M138.086 263.952C138.086 263.952 138.194 263.952 138.234 263.925C138.49 263.846 138.638 263.567 138.544 263.315L137.871 261.286L138.409 260.252C138.53 260.013 138.436 259.722 138.194 259.602C137.952 259.483 137.656 259.576 137.534 259.814L136.902 261.021C136.848 261.14 136.835 261.273 136.875 261.392L137.602 263.607C137.669 263.806 137.857 263.939 138.073 263.939L138.086 263.952Z" fill="black"/>
<path d="M144.492 263.316C144.492 263.316 144.6 263.316 144.64 263.289C144.896 263.21 145.044 262.931 144.95 262.679L144.277 260.65L144.815 259.616C144.937 259.377 144.842 259.086 144.6 258.966C144.358 258.847 144.062 258.94 143.941 259.178L143.308 260.385C143.254 260.505 143.241 260.637 143.281 260.756L144.008 262.971C144.075 263.17 144.264 263.303 144.479 263.303L144.492 263.316Z" fill="black"/>
<path d="M142.85 257.546C143.092 257.546 143.307 257.361 143.334 257.122C143.361 256.857 143.173 256.618 142.904 256.592L141.45 256.419C141.181 256.379 140.939 256.578 140.899 256.843C140.872 257.109 141.06 257.347 141.329 257.374L142.783 257.546C142.783 257.546 142.823 257.546 142.836 257.546H142.85Z" fill="black"/>
<path d="M202.977 269.694C202.977 269.694 190.22 286.986 177.973 290.249C165.727 293.511 173.344 318.083 173.344 318.083C173.344 318.083 215.977 322.565 220.674 272.267C224.065 235.892 206.678 269.681 206.678 269.681H202.991L202.977 269.694Z" fill="#FFBB87"/>
<path d="M135.569 258.781C135.636 258.781 135.704 258.768 135.771 258.741L138.664 257.441C138.907 257.335 139.014 257.044 138.907 256.805C138.799 256.566 138.503 256.46 138.261 256.566L135.367 257.866C135.125 257.972 135.017 258.264 135.125 258.502C135.206 258.675 135.381 258.781 135.569 258.781Z" fill="black"/>
<path d="M93.0839 330.907C93.0839 330.907 83.0178 362.918 83.7445 365.902C84.4577 368.886 91.4017 385.422 91.8862 386.801C92.3706 388.181 79.4381 500.222 79.4381 500.222L121.492 510.553C121.492 510.553 149.713 390.992 146.281 356.328C142.849 321.664 93.0839 330.92 93.0839 330.92V330.907Z" fill="#3DF130"/>
<path d="M192.75 260.784L191.693 257.678L239.185 241.993L240.241 245.098L192.75 260.784Z" fill="white"/>
<path d="M127.454 266.365C127.454 266.365 132.541 264.774 136.484 258.992C140.427 253.223 140.279 251.791 140.279 251.791L142.97 257.348C142.97 257.348 144.652 252.799 143.038 250.054C141.409 247.309 139.619 247.8 139.619 247.8L127.656 250.332L123.269 259.655L127.467 266.365H127.454Z" fill="#0017BF"/>
<path d="M186.223 284.863C186.223 284.863 163.938 287.289 157.371 285.672C150.803 284.054 134.116 282.091 121.816 281.402C109.516 280.712 90.8776 281.521 82.4264 282.9C73.9886 284.292 70.3417 285.327 70.3417 285.327C70.3417 285.327 71.0415 298.495 72.9255 307.168C74.7961 315.84 75.1594 317.458 75.1594 317.458L93.5691 316.066L87.0288 343.595C87.0288 343.595 96.2606 349.576 117.025 354.774C137.777 359.973 148.973 355.928 148.973 355.928L155.608 323.691C155.608 323.691 171.205 323.465 179.064 321.728C186.923 319.991 188.094 319.766 188.094 319.766L186.223 284.863Z" fill="#E64218"/>
<path d="M204.176 272.28C204.176 272.28 199.425 262.414 199.708 260.16C199.99 257.905 204.97 256.34 204.97 256.34C204.97 256.34 205.992 247.243 207.917 246.554C209.841 245.864 210.864 248.649 210.864 248.649C210.864 248.649 211.994 242.96 214.376 243.636C216.758 244.299 217.202 247.721 217.202 247.721C217.202 247.721 217.66 243.225 220.486 244.326C223.312 245.427 225.788 256.393 224.429 265.795C223.07 275.197 214.605 278.937 214.605 278.937L204.189 272.307L204.176 272.28Z" fill="#FFBB87"/>
<path d="M204.297 263.156C204.539 263.156 204.755 262.971 204.782 262.719L205.454 256.38C205.481 256.115 205.293 255.876 205.01 255.849C204.741 255.823 204.499 256.009 204.472 256.274L203.799 262.613C203.772 262.878 203.961 263.116 204.243 263.143C204.257 263.143 204.284 263.143 204.297 263.143V263.156Z" fill="black"/>
<path d="M53.1699 320.842C53.1699 320.842 52.5374 329.395 51.1917 332.419C49.8594 335.442 47.4371 338.996 45.5665 338.479C43.7094 337.962 46.6566 329.926 46.6566 329.926C46.6566 329.926 41.2601 333.281 37.2364 336.729C33.2126 340.163 31.8534 342.961 29.8079 342.908C27.7624 342.855 28.1123 339.023 28.1123 339.023C28.1123 339.023 26.4705 341.171 24.8287 340.415C23.1734 339.659 24.4115 335.522 24.4115 335.522C24.4115 335.522 21.5316 336.437 21.2894 333.546C21.0471 330.655 28.2469 321.783 34.6929 317.447C41.139 313.111 47.3294 313.827 47.3294 313.827L53.143 320.855L53.1699 320.842Z" fill="#FFBB87"/>
<path d="M42.7946 330.23C42.9696 330.23 43.1445 330.137 43.2253 329.964C43.3464 329.726 43.2522 329.434 43.0234 329.315L31.9884 323.626C31.7461 323.506 31.4501 323.586 31.3289 323.825C31.2078 324.063 31.302 324.355 31.5308 324.474L42.5659 330.163C42.6332 330.203 42.7139 330.216 42.7946 330.216V330.23Z" fill="black"/>
<path d="M24.4378 335.984C24.5993 335.984 24.7608 335.904 24.855 335.758C24.8954 335.692 29.0806 329.141 33.064 324.858C33.2524 324.659 33.2389 324.354 33.0371 324.168C32.8352 323.983 32.5257 323.996 32.3507 324.195C28.3001 328.544 24.0745 335.162 24.0341 335.228C23.8861 335.453 23.9533 335.758 24.1821 335.891C24.2629 335.944 24.3571 335.971 24.4378 335.971V335.984Z" fill="black"/>
<path d="M28.1388 339.488C28.2868 339.488 28.4349 339.421 28.5291 339.302L37.707 327.699C37.8685 327.486 37.8281 327.181 37.6262 327.022C37.4109 326.863 37.1014 326.89 36.9399 327.102L27.762 338.705C27.6005 338.917 27.6409 339.222 27.8427 339.382C27.9369 339.448 28.0446 339.488 28.1388 339.488Z" fill="black"/>
<path d="M43.0361 326.411C43.0361 326.411 43.0899 326.411 43.1169 326.411C43.386 326.371 43.561 326.119 43.5206 325.854C42.7131 321.239 47.8539 317.367 47.9077 317.327C48.123 317.168 48.1634 316.863 48.0019 316.651C47.8404 316.439 47.5309 316.399 47.3156 316.558C47.0868 316.731 41.6365 320.828 42.5517 326.013C42.592 326.252 42.7939 326.411 43.0361 326.411Z" fill="black"/>
<path d="M82.2388 476.232C82.481 476.232 82.6963 476.047 82.7232 475.808C83.8536 466.22 93.8121 382.146 93.5699 380.528C93.3276 378.884 85.9395 368.686 84.4592 366.657C84.2977 366.445 83.9882 366.392 83.7729 366.551C83.5576 366.71 83.5038 367.002 83.6652 367.227C87.0296 371.856 92.4395 379.587 92.6009 380.674C92.7221 382.464 85.5627 443.624 81.7543 475.702C81.7274 475.967 81.9158 476.206 82.1849 476.232C82.1984 476.232 82.2253 476.232 82.2388 476.232Z" fill="#0017BF"/>
<path d="M132.825 381.537C132.825 381.537 132.905 381.537 132.946 381.524C141.855 379.389 141.464 369.881 141.464 369.775C141.451 369.509 141.249 369.324 140.953 369.31C140.684 369.31 140.468 369.549 140.482 369.814C140.495 370.172 140.832 378.62 132.717 380.569C132.448 380.635 132.286 380.901 132.354 381.152C132.407 381.378 132.609 381.524 132.825 381.524V381.537Z" fill="#0017BF"/>
<path d="M155.621 324.182C155.81 324.182 155.985 324.076 156.065 323.903L159.12 317.525C159.241 317.286 159.12 316.994 158.891 316.875C158.649 316.769 158.353 316.875 158.232 317.101L155.177 323.479C155.056 323.718 155.177 324.009 155.406 324.129C155.473 324.155 155.541 324.169 155.621 324.169V324.182Z" fill="white"/>
<path d="M93.5821 316.558C93.8513 316.558 94.0801 316.346 94.0801 316.081V309.928C94.0801 309.663 93.8647 309.45 93.5821 309.45C93.2995 309.45 93.0842 309.663 93.0842 309.928V316.081C93.0842 316.346 93.2995 316.558 93.5821 316.558Z" fill="white"/>
</g>
</svg>
