<svg width="280" height="400" viewBox="0 0 280 400" fill="none" xmlns="http://www.w3.org/2000/svg">
<path d="M280 0H0V400H280V0Z" fill="black"/>
<mask id="mask0_1455_35000" style="mask-type:alpha" maskUnits="userSpaceOnUse" x="0" y="220" width="280" height="180">
<path d="M280 220H0V400H280V220Z" fill="black"/>
</mask>
<g mask="url(#mask0_1455_35000)">
<path d="M174.855 239.805C174.855 239.805 180.951 238.402 183.207 239.805C185.462 241.208 185.462 254.039 183.207 254.171C180.951 254.304 174.855 239.805 174.855 239.805Z" fill="#FFBB87"/>
<path d="M212.172 249.85C212.172 249.85 199.117 253.826 198.873 267.002C198.629 280.179 223.083 281.47 223.083 281.47C223.083 281.47 237.276 282.873 241.137 273.58C244.987 264.288 232.339 258.574 232.339 258.574C232.339 258.574 216.957 246.475 212.182 249.85H212.172Z" fill="#0002BB"/>
<path d="M186.701 247.787L171.838 262.559C171.838 262.559 173.006 282.019 185.624 290.803C198.243 299.588 215.809 294.118 215.809 294.118V267.958C215.809 267.958 205.466 269.046 199.787 268.294C194.108 267.531 186.712 247.797 186.712 247.797L186.701 247.787Z" fill="#1C34ED"/>
<path d="M173.615 267.429C173.514 267.429 173.412 267.389 173.341 267.307C173.209 267.155 173.219 266.921 173.371 266.789L188.276 253.531C188.428 253.399 188.662 253.409 188.794 253.561C188.926 253.714 188.916 253.948 188.763 254.08L173.859 267.338C173.788 267.399 173.697 267.429 173.615 267.429Z" fill="#0002BB"/>
<path d="M281.795 260.089C281.795 260.089 276.39 271.628 272.113 270.53C267.836 269.432 265.509 267.328 265.509 267.328C265.509 267.328 261.008 256.124 265.052 254.843C271.371 252.84 281.795 260.079 281.795 260.079V260.089Z" fill="#FFBB87"/>
<path d="M230.855 270.479C230.855 270.479 242.274 272.574 247.923 271.415C253.572 270.256 262.533 262.224 262.533 262.224L278.859 270.886C278.859 270.886 271.006 297.91 241.868 296.893C222.808 296.233 224.952 274.597 224.952 274.597L230.855 270.459V270.479Z" fill="#1C34ED"/>
<path d="M250.606 278.501C250.484 278.501 250.362 278.491 250.209 278.461C249.508 278.328 248.97 277.962 248.604 277.362C247.405 275.421 248.472 271.638 248.523 271.476C248.563 271.333 248.685 271.232 248.828 271.211C248.98 271.191 249.112 271.252 249.193 271.384C249.752 272.259 252.475 276.671 251.54 278.054C251.398 278.267 251.124 278.501 250.606 278.501ZM249.031 272.543C248.797 273.723 248.523 275.817 249.234 276.976C249.488 277.393 249.854 277.637 250.341 277.728C250.555 277.769 250.829 277.779 250.921 277.637C251.307 277.057 250.301 274.689 249.031 272.543Z" fill="#0002BB"/>
<path d="M276.36 276.275C276.299 276.275 276.238 276.264 276.187 276.234L257.687 266.331C257.504 266.23 257.443 266.006 257.534 265.833C257.626 265.65 257.859 265.579 258.032 265.681L276.533 275.583C276.716 275.685 276.776 275.909 276.685 276.081C276.614 276.203 276.492 276.275 276.36 276.275Z" fill="#0002BB"/>
<path d="M240.873 314.36C240.873 314.36 246.603 347.251 247.842 378.199C249.082 409.148 249.894 431.505 249.894 431.505L215.199 432.664L213.736 371.204L214.529 315.194L240.863 314.36H240.873Z" fill="#E24E1B"/>
<path d="M200.64 315.204C200.64 315.204 197.085 327.069 195.022 337.226C192.96 347.383 189.861 360.986 189.861 360.986C189.861 360.986 178.34 391.843 199.35 396.256C225.41 401.736 226.588 371.916 226.588 371.916L223.947 309.114L200.64 315.194V315.204Z" fill="#E24E1B"/>
<path d="M223.458 269.341C223.458 269.341 223.408 266.941 215.808 267.958C205.547 269.32 201.839 288.709 201.839 288.709C201.839 288.709 198.649 316.76 199.096 317.349C199.543 317.929 211.816 320.562 225.582 319.83C239.358 319.098 242.355 317.207 243.107 316.77C243.859 316.333 237.397 274.943 237.397 274.943C237.397 274.943 234.258 269.483 223.438 269.341H223.458Z" fill="#1C34ED"/>
<path d="M218.246 261.98L218.541 269.92C218.541 269.92 220.055 272.147 224.708 272.35C228.172 272.503 229.361 271.679 229.361 271.679L228.731 267.673L228.111 263.769L219.659 262.234L218.236 261.98H218.246Z" fill="#FFBB87"/>
<path d="M218.247 261.604C218.278 261.817 218.369 262.071 218.511 262.366C220.431 266.27 226.741 267.582 228.742 267.683L228.122 263.779L218.257 261.614L218.247 261.604Z" fill="black"/>
<path d="M229.209 245.601C229.209 245.601 233.74 255.402 232.308 260.993C230.875 266.585 225.796 265.823 222.738 264.816C219.69 263.81 218.237 261.98 218.237 261.98C218.237 261.98 215.433 262.996 213.482 260.414C211.532 257.821 212.629 254.771 214.234 254.049C215.829 253.317 217.78 254.446 217.78 254.446L216.215 251.599C216.215 251.599 222.23 236.847 229.209 245.601Z" fill="#FFBB87"/>
<path d="M189.373 348.572L182.201 341.039L164.482 350.921L168.424 356.981L175.729 363L189.373 348.572Z" fill="#FFBB87"/>
<path d="M168.15 328.899C169.237 327.974 170.913 328.106 171.97 329.225C176.115 333.617 185.96 342.96 185.157 343.713C184.131 344.679 171.228 351.572 171.228 351.572C171.228 351.572 176.684 357.936 171.421 360.844C167.378 363.081 159.961 362.766 156.73 362.491C155.704 362.41 154.698 362.613 153.835 363.111C150.096 365.216 139.418 370.594 135.08 366.243C129.777 360.915 132.561 359.472 133.577 358.506C134.45 357.672 160.733 335.233 168.16 328.899H168.15Z" fill="#0002BB"/>
<path d="M230.672 249.667C230.672 249.667 230.631 249.667 230.621 249.667L228.68 249.383C228.477 249.352 228.335 249.169 228.365 248.966C228.396 248.763 228.579 248.63 228.782 248.651L230.722 248.935C230.926 248.966 231.068 249.149 231.037 249.352C231.007 249.535 230.855 249.667 230.672 249.667Z" fill="black"/>
<path d="M223.459 250.471C223.297 250.471 223.154 250.369 223.104 250.216C223.043 250.023 223.154 249.81 223.347 249.749L225.877 248.946C226.08 248.885 226.284 248.996 226.345 249.19C226.405 249.383 226.294 249.596 226.101 249.657L223.571 250.46C223.571 250.46 223.5 250.481 223.459 250.481V250.471Z" fill="black"/>
<path d="M229.707 257.618C229.707 257.618 229.646 257.618 229.605 257.608C229.412 257.557 229.29 257.354 229.341 257.15C230.215 253.958 228.01 252.819 227.919 252.768C227.736 252.677 227.665 252.453 227.746 252.27C227.838 252.087 228.061 252.006 228.244 252.097C228.275 252.108 231.089 253.531 230.052 257.333C230.012 257.496 229.859 257.608 229.697 257.608L229.707 257.618Z" fill="black"/>
<path d="M226.069 261.024C225.917 261.024 225.765 261.004 225.602 260.963C224.353 260.607 224.22 259.174 224.21 259.113C224.2 258.991 224.251 258.879 224.342 258.797C224.434 258.716 224.556 258.696 224.678 258.726L227.614 259.489C227.736 259.519 227.827 259.611 227.868 259.723C227.908 259.845 227.888 259.967 227.817 260.068C227.786 260.109 227.075 261.024 226.069 261.024ZM225.104 259.601C225.226 259.865 225.44 260.14 225.805 260.251C226.171 260.353 226.517 260.211 226.77 260.038L225.104 259.611V259.601Z" fill="black"/>
<path d="M217.8 258.523C217.749 258.523 217.698 258.513 217.647 258.492L213.665 256.683C213.482 256.601 213.4 256.378 213.482 256.195C213.563 256.012 213.786 255.92 213.969 256.012L217.952 257.821C218.135 257.903 218.216 258.126 218.135 258.309C218.074 258.442 217.942 258.523 217.8 258.523Z" fill="black"/>
<path d="M214.255 259.448C214.163 259.448 214.062 259.408 213.99 259.336C213.848 259.194 213.848 258.96 213.99 258.808L215.748 257.069C215.89 256.927 216.124 256.927 216.276 257.069C216.419 257.211 216.419 257.445 216.276 257.598L214.519 259.336C214.448 259.408 214.356 259.448 214.255 259.448Z" fill="black"/>
<path d="M223.459 246.18C223.459 246.18 225.725 245.834 228.102 247.268C230.469 248.702 230.957 250.094 230.957 250.094C230.957 250.094 232.42 246.394 229.209 243.13C225.999 239.866 220.259 238.748 215.535 242.51C211.43 245.773 211.643 250.816 211.643 250.816L217.8 254.446C217.8 254.446 225.278 253.002 223.469 246.19L223.459 246.18Z" fill="#0002BB"/>
<path d="M218.42 267.419C218.42 267.419 222.473 274.404 229.707 271.283C236.941 268.161 209.235 313.425 209.235 313.425L212.933 273.804L218.409 267.409L218.42 267.419Z" fill="#1C34ED"/>
<path d="M167.632 360.986L190.958 344.77L196.719 353.981L195.022 394.822C195.022 394.822 185.635 392.881 167.642 360.986H167.632Z" fill="#E24E1B"/>
<path d="M214.62 394.955C214.508 394.955 214.397 394.904 214.325 394.802C214.204 394.639 214.234 394.406 214.397 394.284C214.478 394.223 222.748 387.909 227.157 371.825C231.577 355.669 228.864 330.943 228.833 330.689C228.813 330.526 228.905 330.374 229.047 330.313L238.119 326.195C238.302 326.114 238.526 326.195 238.607 326.378C238.688 326.561 238.607 326.785 238.424 326.866L229.595 330.872C229.88 333.617 232.074 356.635 227.868 372.018C223.388 388.366 214.925 394.812 214.833 394.883C214.773 394.934 214.691 394.955 214.61 394.955H214.62Z" fill="white"/>
<path d="M199.218 358.221C199.127 358.221 199.015 358.221 198.903 358.19C195.215 357.57 193.529 348.542 193.458 348.166C193.427 348.003 193.508 347.83 193.661 347.759C193.813 347.688 193.996 347.729 194.098 347.861C195.713 349.803 200.925 356.238 200.031 357.804C199.919 358.007 199.685 358.221 199.208 358.221H199.218ZM194.514 349.528C195.235 352.477 196.82 357.092 199.025 357.469C199.269 357.509 199.381 357.469 199.391 357.448C199.787 356.757 197.298 353.026 194.504 349.538L194.514 349.528Z" fill="white"/>
<path d="M201.839 332.437C201.646 332.437 201.484 332.285 201.473 332.092C201.453 331.888 201.606 331.705 201.819 331.695C202.083 331.675 208.321 331.085 210.089 322.423C210.129 322.219 210.333 322.097 210.526 322.138C210.729 322.179 210.861 322.372 210.81 322.575C208.931 331.807 201.941 332.437 201.87 332.437C201.87 332.437 201.849 332.437 201.839 332.437Z" fill="white"/>
<path d="M239.288 297.28C239.288 297.28 239.237 297.28 239.206 297.28C239.003 297.239 238.881 297.036 238.922 296.832C240.913 287.855 237.205 282.7 237.174 282.649C237.052 282.487 237.093 282.253 237.256 282.131C237.418 282.009 237.652 282.039 237.774 282.212C237.936 282.426 241.716 287.672 239.653 297.005C239.613 297.178 239.46 297.3 239.288 297.3V297.28Z" fill="#0002BB"/>
<path d="M225.988 272.452C220.797 272.452 218.135 267.653 218.094 267.592C217.993 267.409 218.064 267.185 218.247 267.094C218.43 266.992 218.653 267.063 218.745 267.246C218.897 267.521 222.453 273.895 229.565 270.947C229.747 270.866 229.971 270.957 230.052 271.15C230.133 271.344 230.042 271.557 229.849 271.638C228.437 272.228 227.147 272.462 225.988 272.462V272.452Z" fill="#0002BB"/>
<path d="M225.612 254.548C225.44 254.548 225.287 254.426 225.247 254.253L224.871 252.514C224.85 252.402 224.871 252.28 224.952 252.199L225.704 251.314C225.836 251.162 226.069 251.142 226.222 251.274C226.374 251.406 226.395 251.64 226.262 251.792L225.622 252.545L225.958 254.11C225.998 254.314 225.876 254.507 225.673 254.548C225.643 254.548 225.622 254.548 225.592 254.548H225.612Z" fill="black"/>
<path d="M231.048 253.826C230.875 253.826 230.723 253.704 230.682 253.531L230.306 251.792C230.286 251.681 230.306 251.559 230.387 251.477L231.139 250.593C231.271 250.44 231.505 250.42 231.657 250.552C231.81 250.684 231.83 250.918 231.698 251.071L231.058 251.823L231.393 253.389C231.434 253.592 231.312 253.785 231.109 253.826C231.078 253.826 231.058 253.826 231.028 253.826H231.048Z" fill="black"/>
<path d="M199.025 275.248C198.944 275.248 198.862 275.238 198.781 275.207C196.912 274.678 198.111 269.636 198.527 268.1C198.568 267.938 198.7 267.816 198.893 267.826C199.066 267.826 199.208 267.948 199.248 268.11C199.574 269.493 200.549 274.089 199.563 275.034C199.421 275.177 199.238 275.248 199.035 275.248H199.025ZM198.862 269.92C198.415 272.208 198.344 274.323 198.984 274.495C199.36 274.343 199.33 272.462 198.862 269.92Z" fill="#0002BB"/>
<path d="M247.913 231.631L279.316 225.816L310.72 220L300.052 250.125L289.385 280.24L268.649 255.93L247.913 231.631Z" fill="#E24E1B"/>
<path d="M272.611 262.824C272.397 262.824 272.235 262.651 272.245 262.447C272.296 259.519 269.644 257.252 269.614 257.222C269.461 257.089 269.441 256.856 269.573 256.703C269.705 256.551 269.939 256.53 270.091 256.652C270.213 256.754 273.048 259.174 272.987 262.458C272.987 262.661 272.814 262.824 272.621 262.824H272.611Z" fill="black"/>
<path d="M269.847 256.947C269.847 256.947 270.833 246.77 268.263 247.288C265.692 247.797 262.98 257.435 263.569 258.848C264.158 260.261 267.541 260.495 267.541 260.495L269.847 256.957V256.947Z" fill="#FFBB87"/>
<path d="M130.935 281.694C130.376 282.67 124.92 289.573 115.888 290.712C106.856 291.851 107.039 280.982 107.039 280.982L120.166 273.021L130.945 281.694H130.935Z" fill="#FFBB87"/>
<path d="M150.218 297.473C169.918 297.473 185.889 281.491 185.889 261.776C185.889 242.062 169.918 226.08 150.218 226.08C130.518 226.08 114.548 242.062 114.548 261.776C114.548 281.491 130.518 297.473 150.218 297.473Z" fill="#07CBF5"/>
<path d="M107.792 275.746C107.792 275.746 115.046 267.978 118.531 267.948C122.015 267.917 126.882 270.052 128.101 273.692C129.33 277.342 121.629 274.607 121.629 274.607C121.629 274.607 116.224 282.507 111.378 282.446C106.532 282.385 107.792 275.736 107.792 275.736V275.746Z" fill="#FFBB87"/>
<path d="M113.664 295.602C113.664 295.602 77.9023 307.274 63.181 291.8C48.4597 276.336 59.3915 265.06 59.3915 265.06C59.3915 265.06 81.2956 270.815 86.1316 271.089L106.817 272.706L113.664 295.592V295.602Z" fill="#E24E1B"/>
<path d="M16.0297 376.756C16.0297 377.294 15.5929 377.732 15.0544 377.732C14.516 377.732 14.0791 377.294 14.0791 376.756C14.0791 376.217 14.516 375.78 15.0544 375.78C15.5929 375.78 16.0297 376.217 16.0297 376.756Z" fill="white"/>
<path d="M5.30141 391.284L-11.3604 390.552L-10.6187 372.313L3.94002 371.784L5.30141 391.284Z" fill="#FFBB87"/>
<path d="M78.2578 319.098C78.2578 319.098 89.9922 348.776 89.7585 375.576C89.5147 402.377 81.4073 431.383 81.4073 431.383L45.7979 432.054C45.7979 432.054 51.7819 403.597 52.2898 397.039C52.7978 390.491 54.1389 349 54.1389 349L54.525 320.806L78.268 319.088L78.2578 319.098Z" fill="#1C34ED"/>
<path d="M33.2907 319.098C33.2907 319.098 34.2661 333.586 31.8481 344.241C29.4402 354.846 21.7088 364.23 13.7335 366.843C5.75818 369.456 -2.01392 368.459 -2.01392 368.459L-3.04004 399.428C-3.04004 399.428 23.8931 406.657 42.8103 394.802C61.7275 382.947 60.5083 358.252 60.5083 358.252L61.9104 318.427L33.2806 319.098H33.2907Z" fill="#1C34ED"/>
<path d="M47.4939 263.403C61.2703 262.102 72.71 271.496 74.5794 284.825L75.6868 292.756C75.6868 292.756 79.3036 319.088 78.7042 320.105C78.1048 321.122 65.5983 323.745 53.5084 323.165C41.4184 322.586 33.7784 320.542 33.179 320.105C32.5796 319.668 34.3778 265.538 34.3778 265.101C34.3778 264.888 40.0977 264.095 47.4837 263.403H47.4939Z" fill="#E24E1B"/>
<path d="M53.224 384.544C53.1427 384.544 53.0614 384.513 52.9903 384.462C52.8277 384.34 52.7973 384.106 52.9293 383.944C69.9873 362.339 61.9612 330.567 61.88 330.241C61.8495 330.14 61.8799 330.028 61.9307 329.936C61.9917 329.845 62.0933 329.794 62.1949 329.784L73.0047 328.737C73.2079 328.716 73.3908 328.869 73.4111 329.072C73.4314 329.276 73.279 329.459 73.0758 329.479L62.6927 330.485C63.5868 334.359 69.713 363.874 53.5084 384.411C53.4373 384.503 53.3256 384.554 53.2138 384.554L53.224 384.544Z" fill="#0002BB"/>
<path d="M36.5224 330.323C36.3903 330.323 36.2684 330.323 36.1363 330.323C35.9331 330.323 35.7706 330.15 35.7807 329.936C35.7807 329.733 35.9534 329.581 36.1465 329.581C42.5369 329.743 43.1363 325.148 43.1566 324.944C43.1769 324.741 43.3598 324.599 43.563 324.619C43.7662 324.639 43.9084 324.822 43.8881 325.026C43.8881 325.077 43.248 330.323 36.5122 330.323H36.5224Z" fill="#0002BB"/>
<path d="M30.6398 365.003C30.2335 365.003 29.8474 364.87 29.4816 364.606C27.2872 363.03 26.4642 356.94 26.4338 356.686C26.4134 356.523 26.4947 356.371 26.6369 356.3C26.7792 356.228 26.9519 356.259 27.0637 356.371C27.9882 357.326 32.6006 362.217 31.9911 364.169C31.8996 364.464 31.6558 364.84 31.0157 364.962C30.8938 364.982 30.7719 365.003 30.65 365.003H30.6398ZM27.3583 357.784C27.7545 359.848 28.6079 363.061 29.9083 364.006C30.2131 364.23 30.5281 364.311 30.8633 364.24C31.2088 364.169 31.2596 364.016 31.2799 363.955C31.605 362.928 29.2988 359.929 27.3583 357.784Z" fill="#0002BB"/>
<path d="M51.0197 245.774C51.0197 245.774 57.979 246.109 58.3753 239.419C58.7918 232.302 52.2185 231.621 49.4247 234.498C46.6308 237.376 47.1489 240.304 47.1489 240.304C47.1489 240.304 45.1983 238.545 43.0749 240.7C41.5205 242.286 42.3231 244.869 42.3231 244.869C42.3231 244.869 38.7367 244.726 39.0619 247.868C39.3971 251.01 41.6424 252.596 41.6424 252.596L51.0197 245.763V245.774Z" fill="#0002BB"/>
<path d="M44.6498 258.076L45.3711 265.477C45.3711 265.477 46.9154 267.48 51.2739 267.399C54.5249 267.348 55.5815 266.504 55.5815 266.504L54.7688 262.793L53.9662 259.184L45.9807 258.228L44.6396 258.065L44.6498 258.076Z" fill="#FFBB87"/>
<path d="M45.9902 258.238C46.0309 258.442 46.1325 258.665 46.2747 258.93C48.2965 262.468 52.8988 262.824 54.7783 262.803L53.9757 259.194L45.9902 258.238Z" fill="black"/>
<path d="M53.9763 242.154C53.9763 242.154 58.7716 251.06 57.7353 256.368C56.7092 261.675 51.9139 261.248 49.0082 260.475C46.1026 259.702 44.6497 258.076 44.6497 258.076C44.6497 258.076 42.0794 259.184 40.1186 256.876C38.1476 254.568 39.0112 251.65 40.464 250.888C41.9168 250.115 43.7963 251.06 43.7963 251.06L42.1708 248.488C42.1708 248.488 46.9661 234.366 53.9763 242.154Z" fill="#FFBB87"/>
<path d="M43.8873 255.158C43.8263 255.158 43.7654 255.137 43.7044 255.107L40.1384 253.033C39.9657 252.931 39.9047 252.707 40.0063 252.524C40.1079 252.352 40.3416 252.291 40.5143 252.392L44.0803 254.466C44.253 254.568 44.314 254.792 44.2124 254.975C44.1413 255.097 44.0194 255.158 43.8873 255.158Z" fill="black"/>
<path d="M40.8398 255.412C40.6874 255.412 40.5452 255.32 40.4944 255.168C40.4233 254.975 40.5249 254.761 40.7179 254.69L42.8616 253.907C43.0546 253.836 43.268 253.938 43.3391 254.131C43.4102 254.324 43.3086 254.538 43.1156 254.609L40.9719 255.392C40.9719 255.392 40.8906 255.412 40.85 255.412H40.8398Z" fill="black"/>
<path d="M48.1345 246.739C48.0634 246.739 48.0024 246.719 47.9415 246.678C47.7688 246.567 47.718 246.343 47.8196 246.17C48.7238 244.726 50.1258 244.838 50.7455 245.102C50.9386 245.184 51.0198 245.397 50.9386 245.59C50.8573 245.784 50.6439 245.865 50.4509 245.794C50.329 245.743 49.2114 245.336 48.4393 246.577C48.3682 246.689 48.2463 246.75 48.1244 246.75L48.1345 246.739Z" fill="black"/>
<path d="M55.2767 245.692C55.2056 245.692 55.1345 245.672 55.0735 245.631C54.2608 245.082 53.5191 245.621 53.509 245.631C53.3464 245.753 53.1127 245.713 52.9908 245.55C52.8689 245.387 52.9095 245.153 53.0721 245.031C53.1229 245.001 54.2506 244.188 55.4799 245.031C55.6526 245.143 55.6933 245.377 55.5815 245.55C55.5104 245.662 55.3885 245.713 55.2767 245.713V245.692Z" fill="black"/>
<path d="M54.2807 254.121C54.2807 254.121 54.2299 254.121 54.2096 254.121C54.0064 254.08 53.8744 253.887 53.915 253.684C54.4433 250.959 52.9092 249.22 52.8381 249.149C52.706 248.996 52.7162 248.763 52.8686 248.62C53.0209 248.488 53.2546 248.498 53.3867 248.641C53.4578 248.722 55.2357 250.715 54.6363 253.816C54.6058 253.989 54.4433 254.111 54.2706 254.111L54.2807 254.121Z" fill="black"/>
<path d="M55.5911 249.251C55.4387 249.251 55.2965 249.159 55.2457 249.017L54.6158 247.36C54.5447 247.166 54.6361 246.953 54.8292 246.882C55.0222 246.811 55.2355 246.902 55.3067 247.095L55.9366 248.752C56.0077 248.946 55.9162 249.159 55.7232 249.23C55.6826 249.251 55.6318 249.251 55.5911 249.251Z" fill="black"/>
<path d="M50.9183 249.8C50.7659 249.8 50.6237 249.708 50.5729 249.566L49.943 247.909C49.8718 247.715 49.9633 247.502 50.1563 247.431C50.3493 247.36 50.5627 247.451 50.6338 247.644L51.2637 249.302C51.3348 249.495 51.2434 249.708 51.0504 249.779C51.0097 249.8 50.9589 249.8 50.9183 249.8Z" fill="black"/>
<path d="M54.9613 244.167C54.9613 244.167 54.0164 242.754 52.1674 242.927C50.3183 243.1 49.3735 244.503 49.3735 244.503C49.3735 244.503 50.4911 247.532 48.134 249.434C45.777 251.335 43.7959 251.06 43.7959 251.06L41.9163 250.593L40.3213 248.061L45.0353 241.869L51.4969 237.599L55.2762 240.415L54.9613 244.177V244.167Z" fill="#0002BB"/>
<path d="M52.7465 256.022C52.0963 256.022 50.9788 255.839 50.2879 254.67C50.1863 254.497 50.2371 254.263 50.42 254.161C50.5927 254.06 50.8264 254.111 50.928 254.294C51.6493 255.514 53.0513 255.27 53.1123 255.259C53.3155 255.219 53.5085 255.351 53.5491 255.554C53.5898 255.758 53.4577 255.951 53.2545 255.991C53.2342 255.991 53.0412 256.032 52.7567 256.032L52.7465 256.022Z" fill="black"/>
<path d="M57.5115 252.728C55.9063 252.728 54.5957 251.243 54.5957 249.434C54.5957 247.624 55.9063 246.14 57.5115 246.14C59.1167 246.14 60.4273 247.624 60.4273 249.434C60.4273 251.243 59.1167 252.728 57.5115 252.728ZM57.5115 246.872C56.3127 246.872 55.3374 248.02 55.3374 249.424C55.3374 250.827 56.3127 251.975 57.5115 251.975C58.7103 251.975 59.6857 250.827 59.6857 249.424C59.6857 248.02 58.7103 246.872 57.5115 246.872Z" fill="#07CBF5"/>
<path d="M50.3796 253.45C48.561 253.45 47.0879 251.965 47.0879 250.156C47.0879 248.346 48.5712 246.861 50.3796 246.861C52.188 246.861 53.6713 248.346 53.6713 250.156C53.6713 251.965 52.188 253.45 50.3796 253.45ZM50.3796 247.593C48.9674 247.593 47.8295 248.742 47.8295 250.145C47.8295 251.548 48.9776 252.697 50.3796 252.697C51.7816 252.697 52.9297 251.548 52.9297 250.145C52.9297 248.742 51.7816 247.593 50.3796 247.593Z" fill="#07CBF5"/>
<path d="M54.9614 249.8H53.1734C52.9702 249.8 52.8076 249.637 52.8076 249.434C52.8076 249.23 52.9702 249.068 53.1734 249.068H54.9614C55.1646 249.068 55.3272 249.23 55.3272 249.434C55.3272 249.637 55.1646 249.8 54.9614 249.8Z" fill="#07CBF5"/>
<path d="M41.906 250.959C41.7637 250.959 41.6215 250.867 41.5606 250.725C41.4793 250.532 41.5809 250.318 41.7637 250.247C43.9481 249.373 47.3515 249.779 47.4938 249.79C47.697 249.81 47.8392 250.003 47.8189 250.206C47.7985 250.41 47.6055 250.552 47.4023 250.532C47.3719 250.532 44.0395 250.135 42.0381 250.938C41.9974 250.959 41.9466 250.969 41.8958 250.969L41.906 250.959Z" fill="#07CBF5"/>
<path d="M84.018 279.691C83.9468 279.691 83.8757 279.691 83.8046 279.681C83.195 279.599 82.9106 279.254 82.7785 278.969C81.8844 277.037 85.4098 271.506 85.806 270.886C85.8975 270.754 86.06 270.693 86.2124 270.734C86.3648 270.774 86.4766 270.906 86.4867 271.069C86.5274 271.73 86.8626 277.596 85.1253 279.243C84.8104 279.548 84.4243 279.701 84.018 279.701V279.691ZM85.7959 272.309C84.4548 274.567 82.9817 277.637 83.449 278.654C83.4998 278.766 83.6014 278.908 83.896 278.938C84.1703 278.969 84.404 278.898 84.6174 278.694C85.6536 277.718 85.8264 274.414 85.7959 272.309Z" fill="white"/>
<path d="M113.034 282.517C112.211 282.517 111.327 282.334 110.413 281.877C110.23 281.785 110.159 281.562 110.24 281.379C110.332 281.196 110.555 281.124 110.738 281.206C115.127 283.371 118.632 278.491 118.673 278.44C118.795 278.278 119.018 278.237 119.191 278.349C119.354 278.471 119.394 278.694 119.282 278.867C119.252 278.908 116.671 282.507 113.034 282.507V282.517Z" fill="black"/>
<path d="M46.1229 271.466C46.0721 271.466 46.0112 271.466 45.9604 271.466C45.5337 271.435 45.1679 271.222 44.9241 270.866C43.9285 269.432 44.9038 265.792 45.0156 265.386C45.046 265.264 45.1375 265.172 45.2492 265.132C45.361 265.091 45.4931 265.111 45.5947 265.182C45.6353 265.213 49.9836 268.324 55.4596 266.169C55.5511 266.128 55.6527 266.138 55.7441 266.169C55.8355 266.209 55.9067 266.28 55.9371 266.372C56.3537 267.46 57.1868 270.052 56.0387 270.54C55.0736 270.947 52.5946 269.015 51.3145 267.928C50.5322 268.822 48.0634 271.466 46.1229 271.466ZM45.6048 266.077C45.3102 267.328 44.9444 269.595 45.5235 270.439C45.6454 270.612 45.7978 270.703 46.0112 270.723C47.4132 270.835 49.4959 268.853 50.5729 267.653C48.1853 267.46 46.3973 266.555 45.5947 266.077H45.6048ZM52.1578 267.663C53.8036 269.015 55.3987 270.012 55.7543 269.869C56.0184 269.758 55.8965 268.487 55.3784 266.992C54.2506 267.399 53.1636 267.602 52.1679 267.663H52.1578Z" fill="white"/>
<path d="M120.293 301.257L68.21 278.724L45.6934 330.845L97.776 353.378L120.293 301.257Z" fill="#0002BB"/>
<path d="M57.0852 293.813C58.599 294.026 61.4945 296.538 61.4945 296.538C61.4945 296.538 66.9095 297.697 67.194 299.354C67.4785 301.011 64.8573 302.618 64.8573 302.618C64.8573 302.618 66.1577 306.044 65.8225 307.305C65.4872 308.565 64.6135 314.605 61.3929 315.886C58.1723 317.156 44.9851 310.995 44.9851 310.995L44.5889 297.544C44.5889 297.544 55.5816 293.599 57.0954 293.813H57.0852Z" fill="#FFBB87"/>
<path d="M61.4941 296.904H54.9614C54.7582 296.904 54.5957 296.741 54.5957 296.538C54.5957 296.334 54.7582 296.172 54.9614 296.172H61.4941C61.6973 296.172 61.8598 296.334 61.8598 296.538C61.8598 296.741 61.6973 296.904 61.4941 296.904Z" fill="black"/>
<path d="M34.3883 265.101C34.3883 265.101 4.59017 273.489 5.18959 297.199C5.789 320.908 46.0719 317.004 46.0719 317.004V295.094L34.3883 265.101Z" fill="#E24E1B"/>
<path d="M45.6349 294.585C45.6349 294.585 45.5739 294.585 45.5333 294.575C45.4012 294.545 32.4578 291.037 21.5261 289.604C21.3229 289.573 21.1807 289.39 21.2111 289.187C21.2416 288.983 21.4245 288.841 21.6277 288.872C32.6102 290.315 45.6044 293.833 45.7365 293.864C45.9295 293.914 46.0514 294.118 46.0006 294.321C45.96 294.484 45.8076 294.596 45.645 294.596L45.6349 294.585Z" fill="white"/>
<path d="M30.9343 291.19C30.9343 291.19 30.8632 291.19 30.8226 291.169C30.0098 290.915 22.8676 288.618 22.319 286.411C22.2478 286.106 22.2478 285.639 22.6949 285.191C23.0606 284.825 23.5279 284.652 24.0766 284.693C26.7993 284.876 31.0359 290.356 31.2188 290.59C31.3204 290.722 31.3204 290.895 31.2188 291.027C31.1477 291.129 31.0359 291.19 30.914 291.19H30.9343ZM23.9445 285.425C23.6499 285.425 23.4162 285.517 23.2232 285.71C22.9996 285.933 23.0098 286.106 23.0403 286.228C23.3349 287.408 26.9822 289.055 29.8472 290.061C28.3233 288.262 25.6818 285.537 24.0359 285.425C24.0055 285.425 23.975 285.425 23.9445 285.425Z" fill="white"/>
<path d="M45.6355 317.177H32.6616C32.4585 317.177 32.2959 317.014 32.2959 316.801C32.2959 316.587 32.4585 316.435 32.6616 316.435H45.6355C45.8387 316.435 46.0012 316.597 46.0012 316.801C46.0012 317.004 45.8387 317.177 45.6355 317.177Z" fill="white"/>
<path d="M180.789 239.185C180.789 239.185 171.025 238.88 173.281 241.513C175.536 244.147 181.337 244.33 181.337 244.33C181.337 244.33 184.548 240.649 180.778 239.185H180.789Z" fill="#FFBB87"/>
</g>
</svg>
