<svg width="643" height="260" viewBox="0 0 643 260" fill="none" xmlns="http://www.w3.org/2000/svg">
<path d="M643 0H0V260H643V0Z" fill="black"/>
<mask id="mask0_1455_34828" style="mask-type:alpha" maskUnits="userSpaceOnUse" x="273" y="0" width="370" height="260">
<path d="M643 0H273V260H643V0Z" fill="black"/>
</mask>
<g mask="url(#mask0_1455_34828)">
<path d="M451.775 158.5C451.775 158.5 458.049 161.778 458.92 167.802C459.792 173.826 454.502 174.892 454.502 174.892L441.396 168.484L451.775 158.5Z" fill="#FFBB87"/>
<path d="M361.384 111.368C361.384 111.368 353.646 108.44 349.899 104.995C346.152 101.55 346.021 100.764 346.291 98.7266C346.404 97.8699 345.332 96.2088 346.483 94.6963C347.633 93.1838 351.964 95.7804 351.964 95.7804C351.964 95.7804 350.09 92.8166 351.607 92.1871C353.131 91.5577 357.802 95.9028 357.802 95.9028C357.802 95.9028 356.155 91.5402 357.323 91.0331C358.491 90.5348 363.824 93.3412 364.652 95.4481C365.479 97.5551 365.61 104.951 365.61 104.951L361.384 111.377V111.368Z" fill="#FFBB87"/>
<path d="M434.408 268.517C434.268 268.517 434.137 268.508 434.007 268.482C433.371 268.36 432.891 267.949 432.586 267.267C432.334 266.69 432.36 266.13 432.674 265.667C433.249 264.801 434.747 264.329 436.316 264.067C434.329 263.796 432.334 263.298 431.671 262.406C431.427 262.074 431.358 261.698 431.48 261.304C431.593 260.937 431.837 260.649 432.229 260.456C434.617 259.25 442.172 262.004 442.494 262.117C442.66 262.179 442.747 262.362 442.686 262.528C442.625 262.694 442.442 262.782 442.276 262.721C440.168 261.943 434.294 260.133 432.517 261.033C432.29 261.147 432.151 261.296 432.09 261.497C432.029 261.698 432.064 261.864 432.186 262.039C433.153 263.35 438.503 263.726 440.76 263.77C440.865 263.77 440.934 263.77 440.987 263.77C441.161 263.77 441.3 263.918 441.3 264.093C441.3 264.268 441.152 264.408 440.978 264.408C440.926 264.408 440.847 264.408 440.751 264.408C438.773 264.382 434.12 264.644 433.196 266.034C433.005 266.323 432.996 266.637 433.162 267.022C433.379 267.512 433.684 267.783 434.111 267.87C435.689 268.159 438.451 265.824 439.392 264.898C439.514 264.775 439.715 264.775 439.845 264.898C439.967 265.02 439.967 265.221 439.845 265.352C439.706 265.492 436.621 268.534 434.399 268.534L434.408 268.517Z" fill="white"/>
<path d="M468.802 255.15C469.063 255.386 469.09 255.797 468.854 256.068L441.736 287.672C441.501 287.952 441.074 287.978 440.804 287.742L437.928 285.277L437.893 285.242C437.658 285.015 437.623 284.647 437.824 284.376C437.963 284.193 437.989 283.957 437.919 283.756C437.885 283.651 437.815 283.546 437.71 283.467C436.848 282.768 435.096 281.115 434.608 278.746C433.954 275.546 438.477 266.812 440.107 262.572C441.17 259.818 439.906 256.592 438.887 254.678C438.329 253.62 438.477 252.326 439.279 251.452C442.486 247.998 450.049 239.859 450.659 239.448C451.417 238.932 457.962 244.134 460.018 246.678C462.083 249.222 464.271 252.405 464.271 252.405L464.898 251.504L468.802 255.132V255.15Z" fill="#E24E1B"/>
<path d="M468.802 255.15C469.063 255.386 469.089 255.797 468.854 256.068L441.736 287.672C441.501 287.952 441.074 287.978 440.803 287.742L437.928 285.277L437.893 285.242C437.658 285.015 437.623 284.647 437.823 284.376C437.963 284.193 437.989 283.957 437.919 283.756C445.657 274.987 464.279 252.422 464.279 252.422L464.907 251.522L468.811 255.15H468.802Z" fill="#E24E1B"/>
<path d="M383.647 166.482C383.647 166.482 373.478 195.35 371.038 214.977C368.598 234.613 379.761 266.078 379.761 266.078L411.402 264.784C411.402 264.784 404.579 233.477 403.237 223.939C402.139 213.421 406.557 167.654 406.557 167.654L383.647 166.482Z" fill="#FFB700"/>
<path d="M420.43 164.9C420.43 164.9 427.088 190.245 439.575 211.271C452.062 232.297 457.918 238.233 457.918 238.233L433.649 260.395C433.649 260.395 404.335 229.455 400.213 207.922C396.1 186.389 395.839 166.972 395.839 166.972L420.421 164.9H420.43Z" fill="#FFB700"/>
<path d="M419.376 181.677C414.592 181.677 412.248 176.851 412.221 176.79C412.143 176.632 412.221 176.44 412.37 176.361C412.526 176.282 412.718 176.361 412.796 176.51C412.91 176.755 415.716 182.49 421.563 180.68C421.737 180.628 421.911 180.724 421.964 180.89C422.016 181.056 421.92 181.24 421.755 181.292C420.901 181.554 420.108 181.668 419.376 181.668V181.677Z" fill="#0002BB"/>
<path d="M432.526 210.195C432.308 210.195 432.107 210.125 431.924 210.003C431.323 209.574 431.245 209.111 431.279 208.796C431.489 207.205 435.349 205.719 435.793 205.553C435.915 205.509 436.055 205.544 436.142 205.64C436.229 205.736 436.246 205.876 436.194 205.99C436.011 206.375 434.329 209.775 432.831 210.16C432.735 210.186 432.63 210.195 432.534 210.195H432.526ZM435.218 206.471C433.763 207.109 432.011 208.106 431.916 208.875C431.907 208.954 431.872 209.19 432.29 209.478C432.404 209.557 432.517 209.574 432.665 209.539C433.484 209.33 434.573 207.642 435.218 206.471Z" fill="#0002BB"/>
<path d="M432.787 252.641C432.7 252.641 432.613 252.606 432.552 252.536C432.438 252.405 432.447 252.204 432.578 252.09L453.648 233.599C453.779 233.486 453.979 233.495 454.093 233.626C454.206 233.757 454.197 233.958 454.067 234.072L432.996 252.562C432.935 252.615 432.857 252.641 432.787 252.641Z" fill="#0002BB"/>
<path d="M402.637 217.067C402.523 217.067 402.41 217.006 402.349 216.892C398.367 208.84 395.97 187.307 395.7 184.754L386.524 182.236C386.359 182.193 386.254 182.018 386.307 181.843C386.35 181.677 386.524 181.572 386.699 181.624L396.084 184.203C396.206 184.238 396.302 184.343 396.319 184.474C396.345 184.71 398.829 208.333 402.924 216.612C403.003 216.77 402.942 216.962 402.776 217.041C402.733 217.067 402.68 217.076 402.637 217.076V217.067Z" fill="#0002BB"/>
<path d="M382.507 259.915C382.341 259.915 382.193 259.783 382.193 259.609C382.193 259.434 382.324 259.285 382.498 259.276L409.495 258.009C409.634 258 409.817 258.14 409.826 258.315C409.826 258.49 409.695 258.638 409.521 258.647L382.524 259.915C382.524 259.915 382.516 259.915 382.507 259.915Z" fill="#0002BB"/>
<path d="M437.92 284.079C437.85 284.079 437.772 284.053 437.711 284C437.58 283.887 437.562 283.686 437.676 283.554L464.036 252.221C464.149 252.081 464.349 252.072 464.48 252.186C464.611 252.299 464.628 252.501 464.515 252.632L438.155 283.965C438.094 284.044 438.007 284.079 437.911 284.079H437.92Z" fill="white"/>
<path d="M366.682 98.8842C366.682 98.8842 372.799 113.24 379.431 118.354C386.062 123.468 394.027 124.649 396.153 124.43C398.279 124.203 404.911 124.824 409.146 125.051C425.877 125.951 423.515 153.176 423.28 157.477C423.114 160.493 422.853 164.611 422.705 166.788C422.644 167.662 421.981 168.371 421.11 168.467C417.624 168.86 408.605 169.778 400.039 169.892C391.665 169.997 385.487 169.516 383.064 169.289C382.42 169.227 381.923 168.703 381.897 168.056C381.844 166.744 381.234 163.562 381.069 159.75C380.816 153.744 380.102 146.496 380.102 146.496C380.102 146.496 368.39 147.117 358.996 133.225C351.11 121.563 353.088 108.519 353.088 108.519L366.682 98.8842Z" fill="#0002BB"/>
<path d="M373.584 121.903C373.366 121.903 373.078 121.825 372.852 121.475C372.669 121.186 372.634 120.863 372.73 120.504C373.209 118.773 377.13 116.736 377.583 116.509C377.705 116.448 377.862 116.474 377.958 116.57C378.054 116.675 378.071 116.824 378.002 116.946C377.522 117.768 375.074 121.868 373.601 121.895C373.601 121.895 373.592 121.895 373.584 121.895V121.903ZM376.825 117.654C375.457 118.459 373.601 119.726 373.34 120.679C373.287 120.854 373.305 121.003 373.392 121.134C373.47 121.256 373.549 121.265 373.584 121.265C374.263 121.256 375.719 119.385 376.825 117.654Z" fill="white"/>
<path d="M398.061 107.356C398.061 107.356 393.025 102.678 395.708 99.3037C398.401 95.929 403.359 99.9157 403.359 99.9157C403.359 99.9157 405.538 98.0185 408.3 99.8807C411.054 101.743 411.098 105.791 411.098 105.791C411.098 105.791 414.034 105.939 413.938 109.524C413.851 113.108 409.782 116.02 409.782 116.02L398.061 107.356Z" fill="#0002BB"/>
<path d="M406.828 117.191L406.418 125.077C406.418 125.077 405.015 127.254 400.85 127.324C397.739 127.376 396.693 126.519 396.693 126.519L397.347 123.031L397.957 118.686L405.547 117.401L406.819 117.182L406.828 117.191Z" fill="#FFBB87"/>
<path d="M405.581 118.354C405.555 118.546 405.459 118.773 405.329 119.027C403.525 122.48 399.133 122.979 397.338 123.031L397.922 119.01L405.581 118.354Z" fill="black"/>
<path d="M397.695 103.474C397.695 103.474 393.6 111.806 394.706 116.64C395.813 121.475 400.188 120.933 402.828 120.129C405.468 119.324 406.74 117.786 406.74 117.786C406.74 117.786 409.128 118.721 410.854 116.535C412.579 114.35 411.699 111.71 410.348 111.045C408.989 110.389 407.298 111.307 407.298 111.307L408.701 108.894C408.701 108.894 403.856 96.0865 397.687 103.465L397.695 103.474Z" fill="#FFBB87"/>
<path d="M407.342 115.058C407.237 115.058 407.132 115.006 407.071 114.909C406.976 114.761 407.019 114.56 407.167 114.472L410.365 112.453C410.514 112.356 410.714 112.4 410.801 112.549C410.897 112.697 410.853 112.899 410.705 112.986L407.507 115.006C407.455 115.04 407.394 115.058 407.342 115.058Z" fill="black"/>
<path d="M410.139 115.198C410.139 115.198 410.07 115.198 410.044 115.18L408.057 114.533C407.891 114.481 407.795 114.297 407.856 114.131C407.909 113.965 408.092 113.869 408.257 113.93L410.244 114.577C410.41 114.63 410.505 114.813 410.444 114.979C410.401 115.11 410.279 115.198 410.139 115.198Z" fill="black"/>
<path d="M403.185 107.478C403.124 107.478 403.072 107.461 403.011 107.426C401.956 106.752 400.893 106.709 400.884 106.709C400.71 106.709 400.571 106.551 400.579 106.376C400.579 106.202 400.728 106.053 400.911 106.071C400.963 106.071 402.157 106.123 403.359 106.892C403.507 106.988 403.551 107.181 403.455 107.329C403.394 107.426 403.29 107.478 403.185 107.478Z" fill="black"/>
<path d="M396.615 106.744C396.467 106.744 396.345 106.647 396.31 106.499C396.266 106.324 396.371 106.158 396.545 106.114C397.338 105.922 398.009 106.053 398.035 106.062C398.209 106.097 398.314 106.263 398.279 106.438C398.244 106.612 398.079 106.726 397.904 106.682C397.904 106.682 397.338 106.569 396.693 106.726C396.667 106.726 396.641 106.735 396.623 106.735L396.615 106.744Z" fill="black"/>
<path d="M397.346 114.052C397.198 114.052 397.067 113.956 397.033 113.808C396.37 110.94 398.427 109.436 398.514 109.375C398.653 109.27 398.854 109.305 398.958 109.454C399.063 109.594 399.028 109.795 398.889 109.9C398.819 109.952 397.094 111.229 397.66 113.668C397.695 113.843 397.59 114.009 397.425 114.052C397.399 114.052 397.381 114.052 397.355 114.052H397.346Z" fill="black"/>
<path d="M396.44 110.022C396.44 110.022 396.371 110.022 396.336 110.005C396.17 109.952 396.083 109.769 396.135 109.602L396.658 108.064C396.71 107.898 396.893 107.81 397.059 107.863C397.225 107.915 397.312 108.099 397.259 108.265L396.737 109.804C396.693 109.935 396.571 110.022 396.432 110.022H396.44Z" fill="black"/>
<path d="M400.736 110.372C400.736 110.372 400.666 110.372 400.632 110.354C400.466 110.302 400.379 110.118 400.431 109.952L400.954 108.414C401.015 108.247 401.189 108.16 401.355 108.212C401.52 108.265 401.608 108.449 401.555 108.615L401.032 110.153C400.989 110.284 400.867 110.372 400.727 110.372H400.736Z" fill="black"/>
<path d="M396.859 105.354C396.859 105.354 397.678 104.025 399.377 104.121C401.076 104.217 401.991 105.476 401.991 105.476C401.991 105.476 401.068 108.291 403.281 109.961C405.494 111.631 407.307 111.316 407.307 111.316L409.015 110.826L410.392 108.448L405.878 102.914L399.822 99.2075L396.449 101.918L396.859 105.362V105.354Z" fill="#0002BB"/>
<path d="M398.741 117.007C398.741 117.007 398.697 117.007 398.68 117.007C397.695 116.946 397.094 115.976 397.077 115.932C397.024 115.845 397.016 115.731 397.059 115.635C397.103 115.539 397.199 115.469 397.303 115.451L399.926 115.067C400.039 115.049 400.144 115.093 400.214 115.172C400.283 115.259 400.309 115.373 400.275 115.478C400.257 115.539 399.769 117.007 398.75 117.007H398.741ZM397.948 115.993C398.14 116.168 398.401 116.343 398.715 116.369C399.011 116.395 399.255 116.081 399.429 115.775L397.948 115.993Z" fill="black"/>
<path d="M400.937 127.665C398.549 127.665 396.588 126.825 396.553 126.808C396.397 126.738 396.318 126.546 396.388 126.388C396.458 126.231 396.649 126.152 396.806 126.222C396.867 126.248 402.653 128.731 406.165 124.858C406.278 124.727 406.488 124.718 406.61 124.841C406.74 124.963 406.749 125.164 406.627 125.295C404.945 127.149 402.801 127.673 400.919 127.673L400.937 127.665Z" fill="white"/>
<path d="M380.111 146.811C379.936 146.811 379.788 146.671 379.788 146.496V142.011C379.788 141.837 379.928 141.697 380.111 141.697C380.293 141.697 380.433 141.837 380.433 142.011V146.496C380.433 146.671 380.293 146.811 380.111 146.811Z" fill="white"/>
<path d="M412.51 125.654C412.51 125.654 425.468 129.387 437.693 138.716C449.919 148.044 453.353 158.509 453.353 158.509L439.75 170.556C439.75 170.556 426.827 158.43 420.143 155.204C413.46 151.978 412.51 125.663 412.51 125.663V125.654Z" fill="#0002BB"/>
<path d="M423.306 157.364C423.306 157.364 423.272 157.364 423.254 157.364C423.115 157.346 423.01 157.232 422.993 157.092C422.871 156.209 422.339 151.751 423.437 150.842C423.594 150.71 423.873 150.57 424.265 150.702C424.57 150.807 424.805 151.025 424.936 151.34C425.598 152.896 423.803 156.752 423.594 157.189C423.542 157.302 423.428 157.372 423.306 157.372V157.364ZM423.96 151.279C423.908 151.279 423.873 151.296 423.847 151.322C423.35 151.733 423.333 153.91 423.498 155.816C424.056 154.417 424.709 152.415 424.352 151.585C424.291 151.436 424.195 151.349 424.065 151.296C424.021 151.279 423.986 151.279 423.96 151.279Z" fill="white"/>
<path d="M362.903 88.4306L323.336 60L294.998 99.6968L334.565 128.127L362.903 88.4306Z" fill="#4EFD62"/>
<path d="M364.181 93.682C364.181 93.682 358.474 86.6442 356.156 87.8069C353.838 88.9697 360.635 99.4434 360.635 99.4434C360.635 99.4434 366.29 98.3156 364.173 93.682H364.181Z" fill="#FFBB87"/>
<path d="M587.419 158.5C587.419 158.5 593.31 161.21 595.052 163.063C596.795 164.917 596.508 166.464 596.508 166.464L592.639 168.117L587.419 158.509V158.5Z" fill="#FFBB87"/>
<path d="M632.483 188.962C632.483 172.957 619.509 159.964 603.503 159.941C587.498 159.917 574.523 172.874 574.523 188.879C574.523 204.884 587.498 217.877 603.503 217.901C619.509 217.924 632.483 204.968 632.483 188.962Z" fill="#FFB700"/>
<path d="M500.618 168.72L476.706 178.966L452.786 189.213L455.897 163.308L459.017 137.404L479.817 153.062L500.618 168.72Z" fill="#1C34ED"/>
<path d="M550.043 124.281C550.043 124.281 570.765 145.01 576.447 149.539L582.129 154.067C582.129 154.067 589.161 159.636 590.607 162.329C592.054 165.022 584.499 163.282 584.499 163.282L577.554 165.739C577.554 165.739 545.739 153.945 541.983 133.583C538.227 113.222 550.035 124.281 550.035 124.281H550.043Z" fill="#FFBB87"/>
<path d="M586.53 157.931C586.53 157.931 590.373 161.542 591.846 163.841C593.318 166.141 596.795 173.642 594.878 175.443C593.937 176.326 591.854 172.514 591.854 172.514C591.854 172.514 594.381 176.702 593.135 178.634C592.29 179.945 590.016 175.749 590.016 175.749C590.016 175.749 591.645 180.863 588.221 178.555C584.796 176.247 582.321 172.042 578.504 170.206C574.688 168.37 575.132 164.532 575.132 164.532L586.53 157.923V157.931Z" fill="#FFBB87"/>
<path d="M592.777 174.306C592.629 174.306 592.49 174.202 592.464 174.044C591.697 169.699 587.932 167.129 587.898 167.103C587.749 167.006 587.715 166.805 587.81 166.657C587.906 166.508 588.107 166.473 588.255 166.569C588.42 166.683 592.289 169.323 593.1 173.931C593.135 174.105 593.013 174.271 592.838 174.298C592.821 174.298 592.804 174.298 592.786 174.298L592.777 174.306Z" fill="black"/>
<path d="M590.276 176.632C590.154 176.632 590.041 176.562 589.989 176.448C589.971 176.405 587.976 172.059 585.719 170.766C585.571 170.678 585.51 170.486 585.597 170.328C585.684 170.171 585.884 170.119 586.033 170.206C588.472 171.605 590.485 175.994 590.573 176.177C590.642 176.335 590.573 176.527 590.416 176.597C590.372 176.614 590.329 176.623 590.285 176.623L590.276 176.632Z" fill="black"/>
<path d="M543.3 257.895V272.687H562.044V253.261L543.3 257.895Z" fill="#FFBB87"/>
<path d="M494.518 252.369L490.588 266.62L508.67 271.638L513.828 252.92L494.518 252.369Z" fill="#FFBB87"/>
<path d="M551.569 103.264C551.569 103.264 565.006 100.58 570.069 113.904C574.583 125.785 569.058 143.121 558.906 142.746C548.754 142.378 543.238 137.815 543.238 137.815V106.324L551.569 103.264Z" fill="#0002BB"/>
<path d="M536.084 109.917C536.084 109.917 530.15 104.566 539.378 99.2946C548.606 94.0228 555.334 101.253 555.412 105.126C555.49 109.008 553.286 110.8 553.286 110.8C553.286 110.8 554.148 119.21 546.097 118.625C538.045 118.048 536.084 109.899 536.084 109.899V109.917Z" fill="#0002BB"/>
<path d="M546.863 117.287L547.029 124.08C547.029 124.08 545.861 126.065 541.905 126.484C538.96 126.799 537.905 126.152 537.905 126.152L538.228 122.699L538.55 119.333L545.661 117.576L546.855 117.278L546.863 117.287Z" fill="#FFBB87"/>
<path d="M546.846 116.964C546.837 117.147 546.767 117.374 546.663 117.628C545.234 121.055 539.936 122.515 538.236 122.707L538.559 119.342L546.846 116.964Z" fill="black"/>
<path d="M536.667 103.902C536.667 103.902 533.33 112.505 534.846 117.199C536.362 121.894 540.65 120.976 543.194 119.945C545.739 118.922 546.872 117.287 546.872 117.287C546.872 117.287 549.312 118.013 550.837 115.696C552.361 113.379 551.264 110.835 549.861 110.302C548.458 109.768 546.863 110.826 546.863 110.826L548.048 108.317C548.048 108.317 542.149 96.0511 536.667 103.893V103.902Z" fill="#FFBB87"/>
<path d="M536.127 114.996C535.97 114.996 535.839 114.883 535.813 114.725C535.343 111.84 536.467 110.31 536.51 110.249C536.615 110.109 536.815 110.083 536.955 110.188C537.094 110.293 537.12 110.494 537.016 110.634C537.007 110.651 536.005 112.033 536.432 114.629C536.458 114.804 536.345 114.97 536.17 114.996C536.153 114.996 536.136 114.996 536.118 114.996H536.127Z" fill="black"/>
<path d="M547.046 114.314C546.933 114.314 546.82 114.253 546.767 114.148C546.689 113.991 546.741 113.799 546.898 113.72L550.192 111.963C550.349 111.884 550.541 111.936 550.619 112.094C550.698 112.251 550.645 112.443 550.488 112.522L547.194 114.279C547.151 114.306 547.099 114.314 547.046 114.314Z" fill="black"/>
<path d="M550.122 114.909C550.052 114.909 549.974 114.883 549.913 114.83L548.327 113.44C548.196 113.327 548.179 113.126 548.292 112.994C548.405 112.863 548.606 112.846 548.745 112.959L550.331 114.35C550.462 114.463 550.479 114.664 550.366 114.795C550.305 114.865 550.218 114.9 550.122 114.9V114.909Z" fill="black"/>
<path d="M535.344 108.16C535.344 108.16 535.5 106.061 537.095 104.269C538.794 102.363 540.232 102.678 540.232 102.678C540.232 102.678 537.723 108.186 541.94 110.127C544.938 111.508 546.864 110.835 546.864 110.835L551.16 106.56L542.62 99.6007C542.62 99.6007 534.829 98.5078 535.352 108.168L535.344 108.16Z" fill="#0002BB"/>
<path d="M538.245 116.745C538.115 116.745 537.993 116.666 537.949 116.527C537.888 116.36 537.975 116.177 538.141 116.124C538.141 116.124 538.986 115.818 539.526 114.909C539.614 114.761 539.814 114.708 539.962 114.795C540.11 114.883 540.163 115.084 540.075 115.233C539.413 116.352 538.394 116.71 538.35 116.728C538.315 116.736 538.28 116.745 538.245 116.745Z" fill="black"/>
<path d="M539.117 111.412C539.117 111.412 539.073 111.412 539.047 111.412C538.873 111.377 538.768 111.202 538.803 111.027L539.117 109.646L538.707 108.99C538.611 108.842 538.655 108.641 538.803 108.553C538.951 108.457 539.152 108.501 539.239 108.649L539.718 109.419C539.762 109.489 539.779 109.576 539.762 109.663L539.422 111.176C539.387 111.325 539.256 111.421 539.108 111.421L539.117 111.412Z" fill="black"/>
<path d="M534.899 111.377C534.899 111.377 534.855 111.377 534.829 111.377C534.655 111.342 534.551 111.167 534.594 110.992L534.908 109.611L534.498 108.955C534.402 108.807 534.446 108.605 534.594 108.518C534.742 108.422 534.943 108.466 535.03 108.614L535.509 109.384C535.553 109.454 535.57 109.541 535.553 109.628L535.213 111.141C535.178 111.289 535.047 111.386 534.899 111.386V111.377Z" fill="black"/>
<path d="M535.613 107.452C535.465 107.452 535.335 107.347 535.3 107.198C535.265 107.023 535.369 106.857 535.544 106.822L536.476 106.621C536.659 106.586 536.816 106.691 536.851 106.866C536.886 107.041 536.781 107.207 536.607 107.242L535.674 107.443C535.674 107.443 535.631 107.443 535.605 107.443L535.613 107.452Z" fill="black"/>
<path d="M540.433 107.836C540.433 107.836 540.363 107.836 540.328 107.819L538.367 107.128C538.202 107.067 538.115 106.892 538.176 106.726C538.237 106.56 538.411 106.472 538.577 106.534L540.537 107.224C540.703 107.285 540.79 107.46 540.729 107.626C540.685 107.758 540.563 107.836 540.433 107.836Z" fill="black"/>
<path d="M493.698 153.761C493.698 153.761 489.367 149.836 486.248 149.897C483.119 149.958 480.296 151.899 479.111 152.537L481.821 154.574C482.257 154.601 482.867 154.662 482.867 154.662C483.346 155.457 482.37 157.512 479.25 159.628C476.131 161.752 472.314 162.775 473.647 163.457C474.98 164.139 475.895 164.226 475.895 164.226C475.895 164.226 474.074 163.824 476.593 165.678C477.856 166.604 479.538 166.167 479.538 166.167C479.538 166.167 479.947 167.793 483.564 167.653C487.18 167.522 492.992 163.99 492.992 163.99C492.992 163.99 511.109 167.487 521.522 160.86C531.936 154.233 532.145 144.337 532.145 144.337L517.645 137.404C517.645 137.404 510.333 146.487 493.707 153.761H493.698Z" fill="#FFBB87"/>
<path d="M475.26 164.41C475.103 164.41 474.963 164.296 474.946 164.13C474.92 163.955 475.042 163.798 475.216 163.772C475.26 163.772 479.608 163.168 481.603 161.367C481.734 161.254 481.935 161.263 482.057 161.394C482.17 161.525 482.161 161.726 482.03 161.848C479.887 163.78 475.486 164.384 475.303 164.41C475.286 164.41 475.277 164.41 475.26 164.41Z" fill="black"/>
<path d="M479.53 166.473C479.355 166.473 479.216 166.333 479.216 166.158C479.216 165.983 479.347 165.835 479.521 165.835C479.538 165.835 481.621 165.747 483.782 163.64C483.904 163.518 484.104 163.518 484.235 163.64C484.357 163.763 484.357 163.973 484.235 164.095C481.882 166.386 479.643 166.464 479.547 166.473H479.53Z" fill="black"/>
<path d="M533.557 165.861C533.557 165.861 518.298 186.494 505.759 209.408C493.219 232.322 486.257 260.981 486.257 260.981L518.359 262.974L541.704 206.357L534.838 262.222L565.877 261.129C565.877 261.129 572.596 209.268 569.014 184.806C565.433 160.344 561.233 155.195 561.233 155.195L533.557 165.861Z" fill="#0002BB"/>
<path d="M515.963 138.191C515.963 138.191 528.18 124.473 542.933 123.582C557.686 122.69 562.653 129.815 563.367 133.198C564.073 136.582 565.319 160.808 564.431 162.408C563.542 164.007 557.485 166.858 547.647 167.574C537.8 168.291 532.65 167.041 531.945 166.508C531.239 165.975 530.35 158.491 530.35 158.491L523.413 161.595L515.972 138.182L515.963 138.191Z" fill="#E24E1B"/>
<path d="M530.35 158.823C530.35 158.823 530.315 158.823 530.297 158.823C530.149 158.797 530.045 158.675 530.036 158.526C529.94 157.066 529.722 152.258 530.759 151.654C530.89 151.584 531.151 151.488 531.474 151.707C533.034 152.747 531.056 157.652 530.646 158.631C530.594 158.753 530.48 158.823 530.35 158.823ZM531.117 152.24C530.733 152.389 530.533 154.461 530.594 156.97C531.3 154.95 531.779 152.686 531.117 152.24Z" fill="white"/>
<path d="M541.557 206.68C541.504 206.68 541.443 206.663 541.4 206.637C541.252 206.549 541.199 206.357 541.286 206.2C541.33 206.121 545.905 198.41 557.712 193.907C557.878 193.846 558.061 193.925 558.122 194.091C558.183 194.257 558.105 194.441 557.939 194.502C546.349 198.926 541.879 206.444 541.835 206.523C541.774 206.628 541.67 206.68 541.557 206.68Z" fill="white"/>
<path d="M546.872 117.287C546.872 117.287 537.243 139.983 553.486 143.445C569.737 146.907 572.02 129.326 570.739 121.763C569.458 114.192 555.42 111.438 555.42 111.438C555.42 111.438 555.499 118.161 546.872 117.296V117.287Z" fill="#0002BB"/>
<path d="M549.591 99.557C549.591 99.557 551.578 89.4942 557.826 92.2919C564.074 95.0895 557.826 105.275 557.826 105.275H551.926L549.591 99.557Z" fill="#0002BB"/>
<path d="M532.938 179.552C532.816 179.552 532.703 179.482 532.65 179.36C530.019 173.389 534.541 170.311 534.585 170.285C534.733 170.189 534.925 170.233 535.021 170.372C535.117 170.521 535.073 170.713 534.934 170.818C534.768 170.932 530.82 173.633 533.226 179.106C533.295 179.264 533.226 179.456 533.06 179.526C533.016 179.543 532.973 179.552 532.929 179.552H532.938Z" fill="white"/>
<path d="M360.739 102.643C360.687 102.643 360.634 102.635 360.582 102.6C356.53 100.326 358.177 95.3869 358.194 95.3345C358.255 95.1683 358.43 95.0809 358.595 95.1334C358.761 95.1946 358.848 95.3694 358.796 95.5355C358.735 95.7191 357.305 100.021 360.887 102.031C361.044 102.119 361.096 102.311 361.009 102.468C360.948 102.573 360.843 102.635 360.73 102.635L360.739 102.643Z" fill="black"/>
<path d="M446.476 168.029C446.476 168.029 453.125 174.56 454.014 174.787C454.903 175.015 460.384 177.541 461.081 176.466C462.179 174.787 457.526 171.281 457.526 171.281C457.526 171.281 455.992 163.588 451.714 164.41C447.435 165.24 446.468 168.02 446.468 168.02L446.476 168.029Z" fill="#FFBB87"/>
<path d="M454.999 165.337C454.921 165.337 454.842 165.31 454.781 165.249C454.755 165.223 452.019 162.661 450.206 163.588C450.058 163.667 449.858 163.606 449.779 163.448C449.701 163.291 449.762 163.098 449.919 163.02C452.132 161.883 455.095 164.663 455.217 164.786C455.348 164.908 455.348 165.109 455.226 165.24C455.165 165.31 455.077 165.337 454.999 165.337Z" fill="black"/>
</g>
</svg>
