<svg width="980" height="260" viewBox="0 0 980 260" fill="none" xmlns="http://www.w3.org/2000/svg">
<path d="M980 0H0V260H980V0Z" fill="black"/>
<mask id="mask0_1455_33457" style="mask-type:alpha" maskUnits="userSpaceOnUse" x="480" y="0" width="500" height="260">
<path d="M980 0H480V260H980V0Z" fill="black"/>
</mask>
<g mask="url(#mask0_1455_33457)">
<path d="M536.855 196.8L552.159 212.04L567.537 187.866L558.887 178.956L536.855 196.8Z" fill="#FFBB87"/>
<path d="M544.957 156.153C543.384 155.605 536.681 163.156 535.869 163.555C535.058 163.954 536.968 169.898 535.158 170.321C533.348 170.745 530.065 170.022 527.431 170.67C524.96 171.268 497.049 195.654 492.256 201.075C491.856 201.536 491.931 202.246 492.43 202.645C493.529 203.555 495.663 205.187 498.21 206.608C500.993 208.153 504.289 209.424 507.322 209.212C514.499 208.701 524.722 202.134 529.903 201.436C535.095 200.738 543.346 202.77 544.457 200.066C545.568 197.374 545.344 189.586 551.285 185.586C557.227 181.586 560.834 180.739 561.171 178.184C561.396 176.465 554.606 167.231 549.7 161.287C547.353 158.434 545.443 156.328 544.944 156.153H544.957Z" fill="#E64218"/>
<path d="M544.957 156.153C543.384 155.605 536.681 163.156 535.87 163.555C535.058 163.954 536.968 169.898 535.158 170.321C533.348 170.745 530.065 170.022 527.432 170.67C524.96 171.268 497.049 195.654 492.256 201.075C491.857 201.536 491.931 202.246 492.431 202.645C493.529 203.555 495.664 205.187 498.21 206.608L549.713 161.287C547.366 158.434 545.456 156.328 544.957 156.153Z" fill="white"/>
<path d="M573.591 138.896C573.591 138.896 570.333 155.183 568.798 169.027C567.262 182.871 564.778 201.463 564.778 201.463C564.778 201.463 553.394 244.067 580.743 247.83C614.658 252.503 612.936 212.354 612.936 212.354L602.737 128.33L573.591 138.896Z" fill="#FFB904"/>
<path d="M536.343 203.754L564.416 179.58L572.78 191.343L575.039 246.345C575.039 246.345 562.819 244.7 536.343 203.754Z" fill="#FFB904"/>
<path d="M627.828 135.082C627.828 135.082 639.149 180.129 635.567 213.337C631.984 246.558 615.483 287.293 615.483 287.293L571.444 279.106L586.161 229.873L596.796 137.288L627.828 135.082Z" fill="#FFB904"/>
<path d="M583.241 248.413C588.271 248.413 599.68 247.08 607.994 236.127C622.349 217.211 613.873 166.37 612.824 160.414L627.279 159.243C627.529 159.218 627.716 159.006 627.691 158.757C627.666 158.508 627.454 158.308 627.204 158.346L612.25 159.554C612.125 159.554 612.001 159.629 611.926 159.729C611.851 159.828 611.813 159.966 611.838 160.09C611.938 160.651 621.962 216.227 607.27 235.578C596.672 249.535 580.969 247.404 580.819 247.379C580.57 247.342 580.345 247.516 580.308 247.765C580.27 248.015 580.445 248.239 580.695 248.276C580.732 248.276 581.681 248.413 583.253 248.413H583.241Z" fill="#E64218"/>
<path d="M575.976 199.204C576.35 199.204 576.7 199.092 577.024 198.856C577.511 198.494 577.773 197.983 577.823 197.335C578.085 193.173 567.937 183.553 567.513 183.142C567.363 182.993 567.126 182.98 566.951 183.092C566.776 183.205 566.701 183.429 566.764 183.616C567.263 185.074 571.732 197.958 575.414 199.117C575.601 199.179 575.801 199.204 575.988 199.204H575.976ZM568.286 185.173C571.619 188.525 577.074 194.606 576.912 197.273C576.887 197.647 576.75 197.921 576.487 198.108C576.238 198.295 575.988 198.332 575.689 198.232C573.317 197.485 569.984 189.734 568.286 185.161V185.173Z" fill="#E64218"/>
<path d="M576.037 157.338C576.1 157.338 576.175 157.325 576.237 157.288C582.341 154.31 586.261 146.908 586.423 146.596C586.535 146.372 586.448 146.098 586.223 145.986C585.998 145.874 585.724 145.961 585.611 146.173C585.574 146.247 581.667 153.624 575.825 156.465C575.6 156.577 575.501 156.852 575.613 157.076C575.688 157.238 575.85 157.338 576.025 157.338H576.037Z" fill="#E64218"/>
<path d="M582.116 77.9991C582.116 77.9991 561.62 82.3978 554.767 104.429C547.914 126.46 575.575 149.674 575.575 149.674L627.827 135.083C627.827 135.083 621.561 78.5224 615.307 72.8652C609.041 67.2079 582.116 77.9866 582.116 77.9866V77.9991Z" fill="#DC3C1E"/>
<path d="M597.795 65.7996C597.795 65.7996 600.591 44.6908 627.828 39.5319C655.065 34.3731 671.367 68.1298 671.367 68.1298L591.155 82.7963L597.795 65.7996Z" fill="#DC3C1E"/>
<path d="M595.81 56.5663C595.81 56.5663 604.523 50.5352 601.128 44.8156C597.745 39.0961 589.307 44.1054 589.307 44.1054C589.307 44.1054 586.386 40.7534 581.767 42.9839C577.149 45.2144 576.225 51.3701 576.225 51.3701C576.225 51.3701 571.707 50.9589 571.07 56.4417C570.433 61.9245 576.025 67.2204 576.025 67.2204L595.81 56.5539V56.5663Z" fill="#0017BF"/>
<path d="M580.295 70.5596L579.471 81.0268C579.471 81.0268 581.131 84.1794 587.223 85.1638C591.767 85.8865 593.364 82.9956 593.364 82.9956L593.227 79.6311L593.002 74.41L582.118 71.1079L580.295 70.5471V70.5596Z" fill="#FFBB87"/>
<path d="M582.117 71.1084C582.117 71.395 582.205 71.7439 582.342 72.1426C584.277 77.5507 590.605 79.1831 593.227 79.6317L593.002 74.4105L582.117 71.1084Z" fill="black"/>
<path d="M597.209 50.7347C597.209 50.7347 601.677 64.2922 598.944 71.4074C596.21 78.5226 589.632 76.7532 585.775 74.9588C581.918 73.1644 580.295 70.5476 580.295 70.5476C580.295 70.5476 576.45 71.4573 574.278 67.7688C572.106 64.0679 574.016 60.2424 576.238 59.5197C578.46 58.8094 580.844 60.5789 580.844 60.5789L579.209 56.6038C579.209 56.6038 589.37 38.1617 597.221 50.7098L597.209 50.7347Z" fill="#FFBB87"/>
<path d="M580.032 66.2467C580.157 66.2467 580.294 66.1969 580.382 66.0847C580.544 65.8978 580.519 65.6112 580.332 65.4492L575.876 61.686C575.688 61.524 575.401 61.549 575.239 61.7359C575.077 61.9228 575.102 62.2094 575.289 62.3714L579.745 66.1346C579.832 66.2093 579.932 66.2467 580.045 66.2467H580.032Z" fill="black"/>
<path d="M575.726 65.8495C575.726 65.8495 575.776 65.8495 575.801 65.8495L578.972 65.2888C579.221 65.2514 579.384 65.0146 579.346 64.7654C579.296 64.5162 579.072 64.3542 578.822 64.3916L575.651 64.9523C575.402 64.9897 575.239 65.2265 575.277 65.4757C575.314 65.7 575.514 65.8495 575.726 65.8495Z" fill="black"/>
<path d="M588.034 55.6073C588.159 55.6073 588.284 55.5575 588.371 55.4578C589.832 53.8379 591.392 54.8223 591.454 54.8597C591.666 54.9968 591.941 54.9345 592.078 54.7226C592.216 54.5108 592.153 54.2242 591.941 54.0996C591.167 53.6011 589.27 53.1027 587.685 54.8472C587.51 55.0341 587.535 55.3207 587.722 55.4952C587.809 55.57 587.922 55.6073 588.022 55.6073H588.034Z" fill="black"/>
<path d="M598.245 55.9049C598.369 55.9049 598.482 55.855 598.569 55.7678C598.744 55.5933 598.744 55.2943 598.569 55.1198C597.084 53.6868 595.361 54.5092 595.286 54.5466C595.062 54.6588 594.962 54.9329 595.074 55.1572C595.186 55.3815 595.461 55.4687 595.686 55.369C595.748 55.3441 596.934 54.8083 597.933 55.7803C598.02 55.8675 598.132 55.9049 598.245 55.9049Z" fill="black"/>
<path d="M595.361 66.8328C595.548 66.8328 595.71 66.7207 595.785 66.5462C597.408 62.3593 594.786 59.6802 594.674 59.5681C594.499 59.3936 594.212 59.3936 594.037 59.5681C593.863 59.7425 593.863 60.0291 594.037 60.2161C594.137 60.3157 596.334 62.5961 594.936 66.2222C594.849 66.459 594.961 66.7207 595.198 66.8079C595.248 66.8328 595.311 66.8328 595.361 66.8328Z" fill="black"/>
<path d="M597.796 60.9274C597.796 60.9274 597.858 60.9274 597.883 60.9274C598.133 60.8776 598.295 60.6408 598.245 60.3916L597.783 57.9368C597.733 57.6876 597.496 57.5256 597.246 57.5754C596.997 57.6253 596.834 57.862 596.884 58.1112L597.346 60.566C597.384 60.7779 597.583 60.9399 597.796 60.9399V60.9274Z" fill="black"/>
<path d="M591.154 60.5414C591.154 60.5414 591.216 60.5414 591.241 60.5414C591.491 60.4916 591.653 60.2548 591.603 60.0056L591.141 57.5508C591.092 57.3016 590.854 57.1396 590.605 57.1894C590.355 57.2393 590.193 57.476 590.243 57.7253L590.705 60.1801C590.742 60.3919 590.942 60.5539 591.154 60.5539V60.5414Z" fill="black"/>
<path d="M598.082 53.7754C598.082 53.7754 597.108 51.5823 594.5 51.358C591.891 51.1337 590.218 52.8533 590.218 52.8533C590.218 52.8533 591.017 57.3393 587.285 59.3953C583.54 61.4514 580.844 60.5791 580.844 60.5791L578.335 59.4576L576.737 55.5449L584.826 48.0932L594.886 43.7568L599.455 48.6041L598.082 53.7505V53.7754Z" fill="#0017BF"/>
<path d="M592.727 69.6874C593.026 69.6874 593.226 69.4756 593.213 69.2263C593.213 68.9771 593.014 68.8151 592.751 68.7777C592.652 68.8027 590.604 68.7777 589.88 66.8588C589.793 66.622 589.531 66.5099 589.294 66.5971C589.057 66.6843 588.944 66.946 589.032 67.1827C589.781 69.1765 591.74 69.6874 592.714 69.6874H592.727Z" fill="black"/>
<path d="M715.156 154.309H619.415C615.934 154.309 613.111 151.492 613.111 148.016V67.743C613.111 64.2676 615.934 61.4502 619.415 61.4502L715.156 61.4502C718.637 61.4502 721.459 64.2676 721.459 67.743V148.016C721.459 151.492 718.637 154.309 715.156 154.309Z" fill="#373178"/>
<path d="M603.374 106.409C603.374 106.409 616.493 99.4678 620.475 98.8697C624.457 98.2715 631.26 102.645 631.26 102.645L627.828 104.627C627.828 104.627 633.195 116.34 632.196 118.122C631.198 119.904 628.614 118.122 628.614 118.122C628.614 118.122 622.448 124.477 620.663 124.676C618.878 124.876 609.329 121.1 609.329 121.1L603.362 106.409H603.374Z" fill="#FFBB87"/>
<path d="M605.16 103.632L576.725 113.75L579.645 78.7224C579.645 78.7224 557.839 85.3641 552.084 107.794C546.317 130.223 554.668 148.08 572.555 149.675C590.443 151.258 614.696 126.261 614.696 126.261L605.16 103.632Z" fill="#DC3C1E"/>
<path d="M656.737 52.9781C656.737 52.9781 653.554 47.6323 650.621 52.1058C647.687 56.5793 650.196 69.3393 652.58 69.9249C655.139 70.5604 656.737 65.6882 656.737 65.6882C656.737 65.6882 657.224 69.8502 659.92 69.9249C662.604 69.9997 663.827 65.6882 663.827 65.6882C663.827 65.6882 665.163 70.548 667.497 69.9249C670.056 69.2271 671.404 52.9781 666.523 51.2834C664.177 50.4734 662.854 52.9781 662.854 52.9781C662.854 52.9781 661.942 49.8877 659.259 50.2865C656.575 50.6852 656.75 52.9781 656.75 52.9781H656.737Z" fill="#FFBB87"/>
<path d="M627.827 104.627L637.327 98.8081L639.761 103.655L629.912 109.512L627.827 104.627Z" fill="white"/>
<path d="M642.794 105.275C640.759 105.275 638.35 104.652 637.239 102.433C635.554 99.069 637.814 94.9569 638.088 94.5083L641.246 96.3151C640.834 97.0379 639.811 99.4304 640.497 100.801C640.984 101.773 643.131 101.698 644.042 101.511L644.804 105.075C644.242 105.2 643.543 105.275 642.807 105.275H642.794Z" fill="white"/>
<path d="M627.828 105.076C627.916 105.076 628.015 105.051 628.09 104.989C628.29 104.839 628.34 104.552 628.19 104.353L625.756 100.964C625.606 100.764 625.332 100.715 625.12 100.864C624.92 101.014 624.87 101.3 625.02 101.5L627.454 104.889C627.541 105.014 627.678 105.076 627.828 105.076Z" fill="black"/>
<path d="M628.627 118.57C628.714 118.57 628.814 118.545 628.889 118.483C629.089 118.333 629.139 118.059 628.989 117.847L627.604 115.916C627.454 115.717 627.167 115.667 626.967 115.804C626.767 115.953 626.717 116.228 626.867 116.439L628.253 118.371C628.34 118.495 628.477 118.558 628.627 118.558V118.57Z" fill="black"/>
<path d="M656.737 65.5735C656.987 65.5735 657.187 65.3741 657.187 65.1249V52.9754C657.187 52.7262 656.987 52.5269 656.737 52.5269C656.488 52.5269 656.288 52.7262 656.288 52.9754V65.1249C656.288 65.3741 656.488 65.5735 656.737 65.5735Z" fill="black"/>
<path d="M663.828 66.1472C664.115 66.1223 664.302 65.9105 664.277 65.6613L663.303 52.9511C663.278 52.7019 663.054 52.515 662.817 52.5274C662.567 52.5524 662.38 52.7642 662.392 53.0134L663.366 65.7236C663.378 65.9603 663.578 66.1472 663.815 66.1472H663.828Z" fill="black"/>
<path d="M588.396 85.6372C588.458 85.6372 588.533 85.6372 588.596 85.6372C590.555 85.5874 592.265 84.8023 593.688 83.307C593.863 83.1201 593.851 82.8335 593.676 82.659C593.501 82.4846 593.202 82.497 593.027 82.6715C590.855 84.9643 587.984 85.3381 584.514 83.8054C581.843 82.6216 579.795 80.7027 579.783 80.6902C579.596 80.5158 579.309 80.5282 579.134 80.7027C578.959 80.8896 578.972 81.1762 579.146 81.3506C579.334 81.5251 583.715 85.6372 588.383 85.6372H588.396Z" fill="white"/>
<path d="M569.834 114.695C569.834 114.695 569.959 114.695 570.009 114.658C582.079 109.562 599.38 105.761 599.555 105.724C599.805 105.674 599.954 105.425 599.904 105.188C599.855 104.939 599.605 104.789 599.368 104.839C599.193 104.876 581.805 108.689 569.659 113.823C569.422 113.923 569.322 114.185 569.422 114.421C569.497 114.596 569.659 114.695 569.847 114.695H569.834Z" fill="white"/>
<path d="M576.001 110.87C577.811 110.87 579.559 110.808 580.757 110.745C580.969 110.745 581.144 110.583 581.181 110.371C581.219 110.16 581.106 109.96 580.919 109.873C580.532 109.699 571.545 105.736 568.424 108.278C567.825 108.776 567.825 109.213 567.925 109.487C568.349 110.608 572.319 110.87 575.989 110.87H576.001ZM578.585 109.923C573.916 110.047 569.31 109.823 568.799 109.175C568.824 109.175 568.874 109.088 569.011 108.988C570.783 107.543 575.502 108.801 578.585 109.923Z" fill="white"/>
<path d="M624.982 61.9132C625.194 61.9132 625.356 61.7761 625.418 61.5892C625.73 60.555 627.203 55.3214 625.993 53.9756C625.805 53.7638 625.443 53.5395 624.894 53.6392C624.457 53.7264 624.108 53.9756 623.871 54.3744C622.785 56.2061 624.37 61.0659 624.545 61.6142C624.607 61.8011 624.782 61.9257 624.982 61.9257V61.9132ZM625.156 54.5114C625.256 54.5114 625.294 54.5488 625.319 54.5737C625.83 55.1469 625.481 57.5893 624.969 59.7575C624.532 58.0503 624.12 55.7326 624.657 54.8229C624.757 54.6485 624.894 54.5488 625.069 54.5239C625.106 54.5239 625.131 54.5239 625.169 54.5239L625.156 54.5114Z" fill="white"/>
<path d="M591.704 144.614C591.779 144.614 591.841 144.602 591.904 144.564C592.029 144.502 604.811 137.985 611.926 129.561C612.088 129.374 612.063 129.088 611.876 128.926C611.688 128.764 611.401 128.789 611.239 128.976C604.249 137.25 591.629 143.68 591.504 143.754C591.28 143.866 591.192 144.141 591.305 144.365C591.379 144.527 591.542 144.614 591.716 144.614H591.704Z" fill="white"/>
<path d="M658.497 184.665C658.61 184.665 658.709 184.627 658.797 184.553C658.984 184.391 658.997 184.092 658.834 183.917L654.578 179.219C654.403 179.032 654.116 179.02 653.929 179.182C653.741 179.344 653.729 179.643 653.891 179.817L658.148 184.515C658.235 184.615 658.36 184.665 658.485 184.665H658.497Z" fill="white"/>
<path d="M654.241 184.665C654.366 184.665 654.49 184.615 654.578 184.515L658.834 179.817C658.997 179.63 658.984 179.344 658.797 179.182C658.61 179.007 658.322 179.032 658.148 179.219L653.891 183.917C653.729 184.104 653.741 184.39 653.929 184.552C654.016 184.627 654.128 184.665 654.228 184.665H654.241Z" fill="white"/>
<path d="M685.36 248.426H754.388C757.009 248.426 759.144 246.295 759.144 243.678V187.779C759.144 185.162 757.009 183.031 754.388 183.031H685.36C682.738 183.031 680.604 185.162 680.604 187.779V243.678C680.604 246.295 682.738 248.426 685.36 248.426ZM754.388 183.928C756.51 183.928 758.232 185.648 758.232 187.766V243.666C758.232 245.784 756.51 247.504 754.388 247.504H685.36C683.238 247.504 681.515 245.784 681.515 243.666V187.766C681.515 185.648 683.238 183.928 685.36 183.928H754.388Z" fill="#E64218"/>
<path d="M681.053 195.953H758.694C758.944 195.953 759.144 195.753 759.144 195.492C759.144 195.23 758.944 195.031 758.694 195.031H681.053C680.803 195.031 680.604 195.23 680.604 195.492C680.604 195.753 680.803 195.953 681.053 195.953Z" fill="#E64218"/>
<path d="M749.582 192.538C749.707 192.538 749.844 192.488 749.932 192.376L754.063 187.516C754.226 187.329 754.201 187.043 754.013 186.881C753.826 186.719 753.539 186.744 753.377 186.931L749.245 191.79C749.083 191.977 749.108 192.264 749.295 192.426C749.382 192.501 749.482 192.538 749.595 192.538H749.582Z" fill="#E64218"/>
<path d="M753.726 192.538C753.826 192.538 753.939 192.501 754.026 192.426C754.213 192.264 754.238 191.977 754.076 191.79L749.944 186.931C749.782 186.744 749.495 186.719 749.308 186.881C749.12 187.043 749.095 187.329 749.258 187.516L753.389 192.376C753.477 192.488 753.602 192.538 753.739 192.538H753.726Z" fill="#E64218"/>
<path d="M928.456 318.993H861.949C855.814 318.993 850.84 314.028 850.84 307.903V227.355C850.84 221.23 855.814 216.265 861.949 216.265H928.456C934.591 216.265 939.565 221.23 939.565 227.355V307.903C939.565 314.028 934.591 318.993 928.456 318.993Z" fill="#1D4568"/>
<path d="M921.777 318.993H855.271C849.135 318.993 844.161 314.028 844.161 307.903V227.355C844.161 221.23 849.135 216.265 855.271 216.265H921.777C927.913 216.265 932.887 221.23 932.887 227.355V307.903C932.887 314.028 927.913 318.993 921.777 318.993Z" fill="#40398D"/>
<path d="M779.466 199.967C779.591 199.967 779.703 199.917 779.79 199.83C779.878 199.743 779.928 199.63 779.928 199.506V58.61C779.928 58.3608 779.728 58.1614 779.478 58.1614C779.229 58.1614 779.029 58.3608 779.029 58.61V199.057L667.773 198.982V118.173C667.773 117.924 667.573 117.725 667.323 117.725C667.074 117.725 666.874 117.924 666.874 118.173V199.431C666.874 199.68 667.074 199.88 667.323 199.892L779.491 199.967H779.466Z" fill="#E64218"/>
<path d="M798.389 95.4084C798.389 95.4084 796.105 102.598 800.049 104.081C804.006 105.564 804.019 101.464 804.019 101.464L801.572 96.3181L798.389 95.4209V95.4084Z" fill="#FFBB87"/>
<path d="M816.613 109.701C816.613 109.701 811.446 96.405 806.74 94.0873C802.034 91.7695 793.084 92.0562 791.711 94.4985C790.35 96.9284 794.444 96.9782 795.505 96.729C796.566 96.4798 799.762 97.1776 800.511 98.2617C801.272 99.3458 801.572 103.907 801.572 103.907C801.572 103.907 798.077 104.617 796.566 103.346C795.056 102.075 793.533 99.7819 792.472 101.464C791.411 103.134 795.655 111.931 798.701 114.349C801.734 116.779 809.473 119.807 809.473 119.807L816.613 109.701Z" fill="#FFBB87"/>
<path d="M801.585 104.355C801.872 104.33 802.059 104.106 802.034 103.857C802.034 103.795 801.884 102.287 801.322 99.7945C800.698 97.0531 798.214 96.5298 798.102 96.5049C797.865 96.455 797.615 96.617 797.565 96.8662C797.515 97.1154 797.678 97.3522 797.915 97.402C798.002 97.4145 799.937 97.8506 800.424 100.006C800.973 102.436 801.11 103.932 801.123 103.944C801.148 104.181 801.347 104.355 801.572 104.355H801.585Z" fill="black"/>
<path d="M771.264 84.9526H787.666C788.563 84.9526 789.289 85.6779 789.289 86.5726V102.946C789.289 103.841 788.563 104.566 787.666 104.566H771.264C770.368 104.566 769.642 103.841 769.642 102.946V86.5726C769.642 85.6779 770.368 84.9526 771.264 84.9526Z" fill="#373178"/>
<path d="M771.264 110H787.666C788.563 110 789.289 110.726 789.289 111.62V127.994C789.289 128.888 788.563 129.614 787.666 129.614H771.264C770.368 129.614 769.642 128.888 769.642 127.994V111.62C769.642 110.726 770.368 110 771.264 110Z" fill="#373178"/>
<path d="M771.264 135.044H787.666C788.563 135.044 789.289 135.77 789.289 136.664V153.038C789.289 153.933 788.563 154.658 787.666 154.658H771.264C770.368 154.658 769.642 153.933 769.642 153.038V136.664C769.642 135.77 770.368 135.044 771.264 135.044Z" fill="#373178"/>
<path d="M787.503 105.849L796.69 98.1105L794.331 95.3317L787.828 100.827L782.535 95.0701L779.852 97.5373L787.503 105.849Z" fill="white"/>
<path d="M779.677 127.133L787.217 120.728L784.858 117.962L780.264 121.862L774.347 114.012L771.426 116.205L779.677 127.133Z" fill="white"/>
<path d="M779.677 152.191L787.217 145.786L784.858 143.02L780.264 146.92L774.347 139.057L771.426 141.25L779.677 152.191Z" fill="white"/>
<path d="M803.22 30H755.1C753.128 30 751.53 31.595 751.53 33.5638V60.0309C751.53 61.9997 753.128 63.5947 755.1 63.5947H803.22C805.192 63.5947 806.79 61.9997 806.79 60.0309V33.5638C806.79 31.595 805.192 30 803.22 30Z" fill="#5EF939"/>
<path d="M644.805 184.627V259.792C644.805 264.302 648.924 267.954 653.979 267.954H786.306C791.387 267.954 795.506 264.302 795.506 259.792V184.627C795.506 180.116 791.387 176.465 786.306 176.465H653.979C648.924 176.465 644.805 180.116 644.805 184.627Z" fill="#40398D"/>
<path d="M699.905 198.084H731.723C732.423 198.084 732.99 198.651 732.99 199.351C732.99 200.051 732.423 200.619 731.723 200.619H699.905C699.205 200.619 698.638 200.051 698.638 199.351C698.638 198.651 699.205 198.084 699.905 198.084Z" fill="#5EF939"/>
<path d="M667.808 211.134H724.117C724.817 211.134 725.385 211.701 725.385 212.401C725.385 213.101 724.817 213.669 724.117 213.669H667.808C667.108 213.669 666.541 213.101 666.541 212.401C666.541 211.701 667.108 211.134 667.808 211.134Z" fill="#FFB904"/>
<path d="M731.685 211.134H754.707C755.407 211.134 755.975 211.701 755.975 212.401C755.975 213.101 755.407 213.669 754.707 213.669H731.685C730.985 213.669 730.417 213.101 730.417 212.401C730.417 211.701 730.985 211.134 731.685 211.134Z" fill="#5EF939"/>
<path d="M667.808 247.87H724.117C724.817 247.87 725.385 248.437 725.385 249.137C725.385 249.837 724.817 250.405 724.117 250.405H667.808C667.108 250.405 666.541 249.837 666.541 249.137C666.541 248.437 667.108 247.87 667.808 247.87Z" fill="#FFB904"/>
<path d="M731.685 247.87H775.284C775.984 247.87 776.552 248.437 776.552 249.137C776.552 249.837 775.984 250.405 775.284 250.405H731.684C730.984 250.405 730.417 249.837 730.417 249.137C730.417 248.437 730.984 247.87 731.685 247.87Z" fill="#5EF939"/>
<path d="M667.808 229.194H724.117C724.817 229.194 725.385 229.761 725.385 230.461C725.385 231.161 724.817 231.729 724.117 231.729H667.808C667.108 231.729 666.541 231.161 666.541 230.461C666.541 229.761 667.108 229.194 667.808 229.194Z" fill="#5EF939"/>
<path d="M731.685 229.194H754.707C755.407 229.194 755.975 229.761 755.975 230.461C755.975 231.161 755.407 231.729 754.707 231.729H731.685C730.985 231.729 730.417 231.161 730.417 230.461C730.417 229.761 730.985 229.194 731.685 229.194Z" fill="#5EF939"/>
<path d="M736.897 222.699L698.398 222.699C697.698 222.699 697.131 222.131 697.131 221.431C697.131 220.731 697.698 220.164 698.398 220.164L736.897 220.164C737.597 220.164 738.165 220.731 738.165 221.431C738.165 222.131 737.597 222.699 736.897 222.699Z" fill="#FFB904"/>
<path d="M690.831 222.699L667.809 222.699C667.109 222.699 666.541 222.131 666.541 221.431C666.541 220.731 667.109 220.164 667.809 220.164L690.831 220.164C691.531 220.164 692.099 220.731 692.099 221.431C692.099 222.131 691.531 222.699 690.831 222.699Z" fill="#5EF939"/>
<path d="M736.897 240.759L698.398 240.759C697.698 240.759 697.131 240.191 697.131 239.491C697.131 238.791 697.698 238.224 698.398 238.224L736.897 238.224C737.597 238.224 738.165 238.791 738.165 239.491C738.165 240.191 737.597 240.759 736.897 240.759Z" fill="#FFB904"/>
<path d="M690.831 240.759L667.809 240.759C667.109 240.759 666.541 240.191 666.541 239.491C666.541 238.791 667.109 238.224 667.809 238.224L690.831 238.224C691.531 238.224 692.099 238.791 692.099 239.491C692.099 240.191 691.531 240.759 690.831 240.759Z" fill="#5EF939"/>
<path d="M667.216 196.281V195.09L672.06 192.941V194.318L668.769 195.651V195.71L672.06 197.043V198.42L667.216 196.281ZM678.522 191.105L676.237 199.572H674.997L677.272 191.105H678.522ZM686.304 196.281L681.46 198.42V197.043L684.751 195.71V195.651L681.46 194.318V192.941L686.304 195.09V196.281Z" fill="#3DF130"/>
<path d="M739.29 198.084H775.284C775.984 198.084 776.552 198.651 776.552 199.351C776.552 200.051 775.984 200.619 775.284 200.619H739.29C738.59 200.619 738.022 200.051 738.022 199.351C738.022 198.651 738.59 198.084 739.29 198.084Z" fill="#FFB904"/>
<path d="M890.384 81.6751C890.384 81.6751 903.853 78.0614 913.864 90.3105C923.887 102.56 917.659 117.637 901.781 117.201C885.916 116.765 882.221 100.578 882.221 100.578L890.372 81.6876L890.384 81.6751Z" fill="#0017BF"/>
<path d="M870.163 91.7577C870.163 91.7577 866.331 87.6954 867.292 81.2656C867.941 76.9042 869.851 75.4588 869.851 75.4588C869.851 75.4588 866.78 69.5897 875.58 69.7766C884.368 69.9635 891.57 69.2158 895.49 76.7672C897.799 81.2157 896.875 90.873 896.875 90.873L870.163 91.7577Z" fill="#0017BF"/>
<path d="M889.586 98.6089L889.524 109.313C889.524 109.313 887.576 112.378 881.298 112.852C876.617 113.201 875.156 110.796 875.156 110.796L876.342 101.438L887.689 99.0201L889.586 98.6089Z" fill="#FFBB87"/>
<path d="M889.573 97.9631C889.548 98.2497 889.436 98.5986 889.261 98.9974C886.827 104.331 878.364 106.511 875.668 106.736L876.342 101.452L889.573 97.9631Z" fill="black"/>
<path d="M874.083 77.016C874.083 77.016 868.378 90.4115 870.55 97.8756C872.722 105.352 879.55 104.106 883.632 102.611C887.714 101.128 889.586 98.5983 889.586 98.5983C889.586 98.5983 893.418 99.8569 895.939 96.2806C898.461 92.7043 896.851 88.6545 894.654 87.7324C892.457 86.8227 889.885 88.4177 889.885 88.4177L891.883 84.5174C891.883 84.5174 883.132 64.9039 874.083 76.991V77.016Z" fill="#FFBB87"/>
<path d="M889.886 88.4428C889.886 88.4428 884.169 89.7138 880.05 83.4086C875.93 77.1034 876.255 74.4741 876.255 74.4741L872.41 81.1407C872.41 81.1407 871.437 76.5925 873.209 73.6392C874.982 70.686 876.892 71.2592 876.892 71.2592L889.624 74.175L893.156 84.2435L889.898 88.4428H889.886Z" fill="#0017BF"/>
<path d="M875.468 93.9877C875.468 93.9877 875.567 93.9877 875.605 93.9628C875.842 93.888 875.979 93.6263 875.892 93.3896C875.081 90.9099 876.154 88.2058 876.167 88.1809C876.267 87.9442 876.154 87.6825 875.917 87.5828C875.68 87.4831 875.418 87.5953 875.318 87.832C875.268 87.9566 874.107 90.8725 875.018 93.6637C875.081 93.8506 875.255 93.9753 875.455 93.9753L875.468 93.9877Z" fill="black"/>
<path d="M890.547 94.7101C890.671 94.7101 890.796 94.6603 890.884 94.5606L894.454 90.6603C894.628 90.4734 894.616 90.1868 894.429 90.0123C894.241 89.8379 893.954 89.8503 893.779 90.0372L890.209 93.9375C890.035 94.1244 890.047 94.411 890.234 94.5855C890.322 94.6603 890.434 94.7101 890.547 94.7101Z" fill="black"/>
<path d="M894.379 93.6265C894.603 93.6265 894.803 93.4646 894.828 93.2278C894.865 92.9786 894.691 92.7543 894.441 92.7169L891.92 92.3805C891.67 92.3555 891.445 92.5175 891.408 92.7667C891.37 93.016 891.545 93.2403 891.795 93.2776L894.316 93.6141C894.316 93.6141 894.354 93.6141 894.379 93.6141V93.6265Z" fill="black"/>
<path d="M872.072 83.1203C872.072 83.1203 872.135 83.1203 872.16 83.1203L874.469 82.6717C874.718 82.6218 874.881 82.3851 874.831 82.1359C874.781 81.8866 874.544 81.7371 874.294 81.7745L871.985 82.2231C871.735 82.2729 871.573 82.5097 871.623 82.7589C871.66 82.9707 871.86 83.1327 872.072 83.1327V83.1203Z" fill="black"/>
<path d="M880.885 83.6564C881.073 83.6564 881.247 83.5442 881.31 83.3573C881.397 83.1205 881.272 82.8589 881.048 82.7716L878.651 81.8744C878.414 81.7872 878.152 81.9118 878.064 82.1361C877.977 82.3729 878.102 82.6346 878.327 82.7218L880.723 83.619C880.723 83.619 880.823 83.6439 880.885 83.6439V83.6564Z" fill="black"/>
<path d="M873.358 88.5904C873.558 88.5904 873.745 88.4658 873.795 88.2664L874.494 85.849C874.532 85.6994 874.494 85.5499 874.407 85.4253L873.646 84.5406C873.483 84.3536 873.196 84.3287 873.009 84.4907C872.822 84.6527 872.797 84.9393 872.959 85.1262L873.558 85.8365L872.934 88.0296C872.859 88.2664 873.009 88.5281 873.246 88.5904C873.284 88.5904 873.333 88.6028 873.371 88.6028L873.358 88.5904Z" fill="black"/>
<path d="M880.123 89.1158C880.323 89.1158 880.498 88.9911 880.56 88.7918L881.259 86.3744C881.297 86.2248 881.259 86.0628 881.159 85.9507L880.111 84.7794C879.949 84.5924 879.649 84.58 879.462 84.742C879.274 84.904 879.262 85.1906 879.424 85.3899L880.298 86.3744L879.674 88.555C879.599 88.7918 879.749 89.0534 879.986 89.1158C880.023 89.1158 880.073 89.1282 880.111 89.1282L880.123 89.1158Z" fill="black"/>
<path d="M877.091 97.8498C877.203 97.8498 877.316 97.8498 877.428 97.8249C878.913 97.5756 879.737 95.7813 879.775 95.7065C879.849 95.5445 879.825 95.3701 879.712 95.233C879.6 95.0959 879.425 95.0336 879.263 95.071L875.169 95.9682C875.006 96.0056 874.881 96.1177 874.832 96.2797C874.782 96.4417 874.832 96.6037 874.931 96.7283C875.63 97.4884 876.354 97.8622 877.078 97.8622L877.091 97.8498ZM878.389 96.1925C878.089 96.5414 877.715 96.8529 877.278 96.9277C876.954 96.99 876.617 96.8903 876.255 96.6535L878.389 96.1925Z" fill="black"/>
<path d="M870.925 176.453C870.925 176.453 829.533 178.783 818.773 187.107C808.013 195.431 807.414 282.57 807.414 282.57L841.179 286.408L841.491 201.101L870.925 176.453Z" fill="#E64218"/>
<path d="M892.332 109.924C892.332 109.924 891.146 105.762 890.547 105.762C889.761 105.762 885.417 107.856 881.46 107.831C877.515 107.806 876.829 106.572 875.655 106.734C874.482 106.896 874.045 109.924 874.045 109.924C874.045 109.924 866.73 112.354 858.23 114.323C849.729 116.292 836.373 113.713 830.756 110.984C825.139 108.255 815.577 102.348 815.577 102.348L805.704 128.254C805.704 128.254 825.738 153.862 844.112 154.011C862.486 154.161 884.643 150.522 884.643 150.522L892.32 109.912L892.332 109.924Z" fill="#0017BF"/>
<path d="M920.53 177.788C920.53 177.788 923.563 210.361 918.72 213.426C907.411 220.591 876.442 218.784 876.292 220.118C876.142 221.451 879.762 280.827 879.762 280.827L838.957 288.429C838.957 288.429 823.965 201.763 832.453 187.782C840.929 173.8 890.934 175.121 890.934 175.121L920.517 177.788H920.53Z" fill="#E64218"/>
<path d="M841.092 170.173L863.76 167.918L855.209 131.158L832.541 133.413L841.092 170.173Z" fill="#FFB904"/>
<path d="M837.696 170.509L860.352 168.266L851.801 131.494L829.145 133.749L837.696 170.509Z" fill="white"/>
<path d="M867.142 147.508L866.293 175.395C866.293 175.395 884.205 180.392 897.711 181.613C911.217 182.822 920.479 181.613 920.479 181.613V170.859L867.129 147.52L867.142 147.508Z" fill="#0017BF"/>
<path d="M870.063 151.132C870.063 151.132 867.354 145.525 864.621 143.556C861.887 141.587 857.718 141.6 857.718 141.6L858.542 145.6C858.542 145.6 852.188 146.435 851.115 145.6C850.041 144.765 845.485 141.126 844.274 141.438C843.064 141.737 845.635 145.6 845.635 145.6C845.635 145.6 842.901 143.095 841.99 144.615C841.079 146.136 844.574 152.192 844.574 152.192C844.574 152.192 841.391 149.014 842.452 154.011C843.513 159.008 852.75 163.855 855.945 164.316C859.141 164.765 871.936 164.815 871.936 164.815L870.051 151.132H870.063Z" fill="#FFBB87"/>
<path d="M858.541 146.062C858.541 146.062 858.604 146.062 858.629 146.062L861.974 145.376C862.224 145.327 862.373 145.09 862.323 144.841C862.274 144.591 862.036 144.442 861.787 144.492L858.441 145.177C858.192 145.227 858.042 145.464 858.092 145.713C858.142 145.925 858.329 146.074 858.541 146.074V146.062Z" fill="black"/>
<path d="M855.209 151.294C855.446 151.294 855.646 151.107 855.658 150.858C855.658 150.609 855.471 150.397 855.221 150.384C855.196 150.384 852.101 150.222 850.391 149.375C848.668 148.515 846.009 145.35 845.984 145.325C845.822 145.126 845.535 145.113 845.348 145.275C845.16 145.437 845.135 145.724 845.285 145.911C845.398 146.048 848.106 149.25 849.979 150.197C851.864 151.145 855.034 151.294 855.171 151.307C855.171 151.307 855.184 151.307 855.196 151.307L855.209 151.294Z" fill="black"/>
<path d="M854.447 157.052C854.697 157.052 854.896 156.853 854.896 156.603C854.896 156.354 854.709 156.142 854.447 156.142C854.422 156.142 851.876 156.068 849.704 155.021C846.883 153.663 844.898 151.881 844.873 151.868C844.686 151.706 844.399 151.719 844.224 151.906C844.062 152.092 844.074 152.379 844.261 152.554C844.349 152.628 846.358 154.423 849.304 155.856C851.651 156.99 854.31 157.064 854.422 157.077L854.447 157.052Z" fill="black"/>
<path d="M784.845 39.2109H796.204V50.5504H784.845V39.2109Z" fill="#DC3C1E"/>
<path d="M769.779 35.1482L766.246 41.2665L762.714 47.3848H769.779H776.856L773.324 41.2665L769.779 35.1482Z" fill="#E64218"/>
<path d="M779.602 58.4247C775.245 58.4247 771.713 54.8988 771.713 50.5494C771.713 46.2 775.245 42.6741 779.602 42.6741C783.959 42.6741 787.491 46.2 787.491 50.5494C787.491 54.8988 783.959 58.4247 779.602 58.4247Z" fill="white"/>
<path d="M664.864 136.939C664.864 138.272 665.95 139.357 667.285 139.357C668.621 139.357 669.707 138.272 669.707 136.939C669.707 135.606 668.621 134.522 667.285 134.522C665.95 134.522 664.864 135.606 664.864 136.939Z" fill="#E64218"/>
<path d="M667.285 170.511C665.948 170.511 664.864 169.429 664.864 168.094C664.864 166.759 665.948 165.676 667.285 165.676C668.623 165.676 669.707 166.759 669.707 168.094C669.707 169.429 668.623 170.511 667.285 170.511Z" fill="#E64218"/>
<path d="M777.044 165.563C777.044 166.896 778.129 167.981 779.465 167.981C780.801 167.981 781.887 166.896 781.887 165.563C781.887 164.23 780.801 163.146 779.465 163.146C778.129 163.146 777.044 164.23 777.044 165.563Z" fill="#E64218"/>
<path d="M644.804 184.627V186.795H795.518V184.627C795.518 180.116 791.398 176.465 786.318 176.465H653.991C648.936 176.465 644.817 180.116 644.817 184.627H644.804Z" fill="#373178"/>
<path d="M837.809 279.306C837.809 279.306 837.859 279.306 837.896 279.306C838.146 279.256 838.308 279.019 838.258 278.77C838.133 278.085 825.451 209.899 830.843 195.643C836.186 181.55 869.327 181.189 869.664 181.176C869.889 181.176 870.088 181.002 870.113 180.777C870.138 180.553 870.001 180.341 869.776 180.279L862 178.26C861.763 178.198 861.513 178.347 861.45 178.584C861.388 178.821 861.538 179.07 861.775 179.145L866.518 180.379C857.918 180.827 834.613 183.157 830.007 195.319C824.515 209.811 836.847 276.128 837.372 278.945C837.409 279.156 837.609 279.318 837.821 279.318L837.809 279.306Z" fill="white"/>
<path d="M890.547 109.614C890.547 109.614 916.686 110.224 931.715 139.769C946.744 169.327 930.953 184.479 905.451 181.14C879.95 177.8 867.13 169.775 867.13 169.775L870.051 144.716L890.547 109.614Z" fill="#0017BF"/>
<path d="M906.487 148.678C906.687 148.678 906.874 148.554 906.924 148.354C906.999 148.118 906.849 147.856 906.612 147.794C896.152 144.803 874.594 144.828 874.382 144.815C874.132 144.815 873.933 145.015 873.933 145.276C873.933 145.526 874.132 145.725 874.382 145.725C875.306 145.725 896.189 145.762 906.362 148.666C906.4 148.666 906.45 148.678 906.487 148.678Z" fill="#FFB904"/>
<path d="M884.281 113.003C888.437 113.003 892.407 110.411 892.582 110.299C892.794 110.162 892.844 109.875 892.706 109.676C892.569 109.464 892.282 109.414 892.07 109.551C892.032 109.576 887.726 112.367 883.657 112.081C883.407 112.043 883.182 112.255 883.17 112.504C883.157 112.753 883.345 112.978 883.594 112.99C883.819 113.003 884.044 113.015 884.268 113.015L884.281 113.003Z" fill="#FFB904"/>
<path d="M845.135 124.067C845.41 124.067 845.672 123.992 845.909 123.83C847.944 122.546 848.543 115.705 848.606 114.933C848.618 114.733 848.506 114.546 848.318 114.472C848.131 114.397 847.919 114.459 847.794 114.609C847.307 115.219 843.063 120.677 843.7 122.982C843.825 123.444 844.137 123.78 844.586 123.954C844.773 124.029 844.948 124.054 845.123 124.054L845.135 124.067ZM847.532 116.49C847.182 119.157 846.459 122.422 845.435 123.057C845.273 123.169 845.11 123.182 844.923 123.107C844.736 123.032 844.636 122.92 844.586 122.733C844.274 121.587 845.959 118.683 847.532 116.478V116.49Z" fill="#FFB904"/>
<path d="M905.014 147.707C908.996 147.707 913.814 147.395 914.501 145.912C914.651 145.588 914.713 145.052 914.101 144.405C910.868 140.915 900.67 146.498 900.246 146.735C900.071 146.834 899.984 147.034 900.021 147.233C900.059 147.433 900.233 147.57 900.446 147.582C901.419 147.632 903.129 147.707 905.014 147.707ZM910.868 144.155C911.954 144.155 912.866 144.405 913.44 145.028C913.552 145.152 913.752 145.389 913.677 145.538C913.203 146.535 907.66 146.922 902.206 146.76C904.615 145.601 908.247 144.168 910.868 144.168V144.155Z" fill="#FFB904"/>
<path d="M876.304 220.565C876.417 220.565 876.529 220.527 876.616 220.44C876.766 220.303 876.804 220.091 876.716 219.904C875.78 218.035 872.61 211.967 870.687 211.967C870.35 211.967 869.913 212.129 869.639 212.777C868.303 215.992 875.281 220.054 876.08 220.503C876.155 220.54 876.229 220.565 876.304 220.565ZM870.7 212.876C871.499 212.876 873.471 215.755 875.143 218.845C872.922 217.362 869.788 214.808 870.488 213.126C870.525 213.026 870.6 212.876 870.687 212.876H870.7Z" fill="white"/>
<path d="M893.118 176.915C893.33 176.915 893.53 176.766 893.567 176.541C893.617 176.292 893.455 176.055 893.205 176.006C893.08 175.981 880.049 173.501 869.9 167.57C869.676 167.445 869.401 167.52 869.276 167.731C869.151 167.943 869.226 168.23 869.439 168.355C879.724 174.373 892.906 176.878 893.043 176.903C893.068 176.903 893.105 176.903 893.13 176.903L893.118 176.915Z" fill="#FFB904"/>
<path d="M682.464 127.145H652.119C649.602 127.145 647.562 125.108 647.562 122.597V92.304C647.562 89.7921 649.602 87.7558 652.119 87.7558H682.464C684.98 87.7558 687.02 89.7921 687.02 92.304V122.597C687.02 125.108 684.98 127.145 682.464 127.145Z" fill="#5EF939"/>
<path d="M681.103 111.108L679.705 114.448L681.452 116.105C680.154 118.223 678.381 120.03 676.297 121.376L674.35 119.532L671.029 120.94L671.142 123.582C669.906 123.868 668.62 124.03 667.297 124.03C666.099 124.03 664.925 123.906 663.789 123.656V120.815L660.482 119.382L658.447 121.476C656.35 120.155 654.577 118.385 653.254 116.304L655.201 114.46L653.803 111.121L651.095 111.096C650.833 109.924 650.695 108.703 650.695 107.445C650.695 106.124 650.845 104.84 651.145 103.607L653.803 103.582L655.201 100.242L653.342 98.4728C654.677 96.4042 656.475 94.6472 658.572 93.3513L660.482 95.3201L663.789 93.8871V91.2454C664.925 90.9962 666.099 90.8716 667.297 90.8716C668.62 90.8716 669.906 91.0211 671.142 91.3202L671.042 93.7625L674.362 95.1706L676.184 93.4385C678.282 94.7719 680.067 96.5538 681.39 98.6597L679.717 100.242L681.115 103.569L683.462 103.594C683.749 104.828 683.911 106.111 683.911 107.432C683.911 108.678 683.774 109.899 683.512 111.071L681.128 111.096L681.103 111.108ZM675.348 107.445C675.348 102.996 671.741 99.3949 667.284 99.3949C662.828 99.3949 659.221 102.996 659.221 107.445C659.221 111.893 662.828 115.494 667.284 115.494C671.741 115.494 675.348 111.893 675.348 107.445Z" fill="white"/>
</g>
</svg>
