<svg width="320" height="214" viewBox="0 0 320 214" fill="none" xmlns="http://www.w3.org/2000/svg">
<path d="M32.0709 118.984L43.0126 129.855L54.0078 112.611L47.823 106.255L32.0709 118.984Z" fill="#FFBB87"/>
<path d="M37.8639 89.9893C36.7394 89.5982 31.9468 94.9848 31.3667 95.2692C30.7866 95.5537 32.1521 99.7936 30.858 100.096C29.5639 100.398 27.2167 99.8825 25.3336 100.345C23.5665 100.771 3.61088 118.167 0.1838 122.033C-0.101791 122.362 -0.0482292 122.869 0.308758 123.153C1.09413 123.802 2.62026 124.967 4.4409 125.98C6.43111 127.082 8.78722 127.989 10.9559 127.838C16.0876 127.473 23.3969 122.789 27.1007 122.291C30.8134 121.793 36.7126 123.242 37.5069 121.313C38.3012 119.393 38.1405 113.838 42.3887 110.985C46.6369 108.131 49.2161 107.527 49.4571 105.705C49.6177 104.478 44.7627 97.8914 41.2553 93.6515C39.5774 91.6159 38.2119 90.1137 37.8549 89.9893H37.8639Z" fill="#E64218"/>
<path d="M37.8634 89.9893C36.7389 89.5982 31.9463 94.9848 31.3662 95.2692C30.7861 95.5537 32.1516 99.7936 30.8575 100.096C29.5634 100.398 27.2162 99.8825 25.3331 100.345C23.566 100.771 3.61037 118.167 0.183289 122.033C-0.102299 122.362 -0.0487404 122.869 0.30825 123.153C1.09362 123.802 2.61975 124.967 4.44039 125.98L41.2637 93.6515C39.5858 91.6159 38.2204 90.1137 37.8634 89.9893Z" fill="white"/>
<path d="M81.6123 180.095L79.3276 186.575L66.3689 190.708L60.1395 187.944L63.4594 173.091L81.6123 180.095Z" fill="#FFBB87"/>
<path d="M58.3364 77.6793C58.3364 77.6793 56.0071 89.297 54.9093 99.1724C53.8116 109.048 52.0356 122.31 52.0356 122.31C52.0356 122.31 43.8963 152.701 63.4503 155.385C87.6987 158.718 86.4671 130.079 86.4671 130.079L79.1756 70.1416L58.3364 77.6793Z" fill="#FFB904"/>
<path d="M31.7045 123.944L51.7762 106.7L57.7557 115.091L59.3711 154.326C59.3711 154.326 50.6338 153.153 31.7045 123.944Z" fill="#FFB904"/>
<path d="M97.1152 74.958C97.1152 74.958 105.21 107.091 102.648 130.78C100.087 154.477 88.2886 183.535 88.2886 183.535L56.8023 177.695L67.3245 142.575L74.9284 76.5313L97.1152 74.958Z" fill="#FFB904"/>
<path d="M56.9979 206.681C57.569 207.713 64.7534 206.913 65.3782 207.09C66.0029 207.268 67.8414 203.206 69.0016 203.837C70.1707 204.477 71.563 206.424 73.2765 207.339C74.874 208.201 101.398 208.575 106.539 207.988C106.976 207.935 107.271 207.526 107.199 207.073C107.048 206.068 106.7 204.184 106.021 202.219C105.289 200.077 104.138 197.837 102.425 196.495C98.3728 193.348 89.7872 191.962 86.6993 189.855C83.6024 187.748 80.1932 182.735 78.3101 183.642C76.4269 184.539 72.8214 188.771 67.7432 188.059C62.674 187.348 60.3446 186.077 58.9434 187.277C57.9974 188.086 57.1853 196.21 56.9443 201.695C56.8194 204.326 56.8194 206.353 57.0068 206.681H56.9979Z" fill="#E64218"/>
<path d="M65.2361 155.801C68.8328 155.801 76.9899 154.85 82.9338 147.037C93.1972 133.544 87.1373 97.2774 86.3876 93.0286L96.7225 92.193C96.9009 92.1752 97.0348 92.0241 97.017 91.8464C96.9991 91.6686 96.8474 91.5264 96.6689 91.553L85.9771 92.4152C85.8879 92.4152 85.7986 92.4686 85.7451 92.5397C85.6915 92.6108 85.6648 92.7086 85.6826 92.7975C85.754 93.1975 92.9205 132.841 82.4162 146.646C74.8391 156.601 63.6118 155.081 63.5047 155.063C63.3262 155.037 63.1656 155.161 63.1388 155.339C63.112 155.517 63.237 155.677 63.4155 155.703C63.4422 155.703 64.1205 155.801 65.245 155.801H65.2361Z" fill="#E64218"/>
<path d="M60.0408 120.7C60.3085 120.7 60.5584 120.62 60.7905 120.451C61.1385 120.193 61.326 119.828 61.3617 119.366C61.5491 116.397 54.2933 109.535 53.9899 109.242C53.8828 109.135 53.7132 109.126 53.5882 109.206C53.4633 109.286 53.4097 109.446 53.4544 109.58C53.8114 110.62 57.0064 119.811 59.6392 120.637C59.773 120.682 59.9159 120.7 60.0497 120.7H60.0408ZM54.5432 110.691C56.9261 113.082 60.8262 117.42 60.7102 119.322C60.6923 119.588 60.5941 119.784 60.4067 119.917C60.2282 120.051 60.0497 120.077 59.8355 120.006C58.1398 119.473 55.7569 113.944 54.5432 110.682V110.691Z" fill="#E64218"/>
<path d="M60.0866 90.8339C60.1312 90.8339 60.1847 90.825 60.2294 90.7984C64.5935 88.6739 67.3959 83.394 67.5119 83.1718C67.5922 83.0118 67.5298 82.8162 67.3691 82.7362C67.2085 82.6562 67.0121 82.7184 66.9318 82.8695C66.9051 82.9229 64.1116 88.185 59.9349 90.2117C59.7742 90.2917 59.7028 90.4872 59.7831 90.6472C59.8367 90.7628 59.9527 90.8339 60.0777 90.8339H60.0866Z" fill="#E64218"/>
<path d="M56.9979 206.682C57.569 207.713 64.7534 206.913 65.3782 207.091C66.0029 207.269 67.8414 203.206 69.0016 203.838C70.1707 204.478 71.563 206.424 73.2765 207.34C74.874 208.202 101.398 208.575 106.539 207.989C106.976 207.935 107.271 207.526 107.199 207.073C107.048 206.069 106.7 204.184 106.021 202.22L56.9443 201.695C56.8194 204.326 56.8194 206.353 57.0068 206.682H56.9979Z" fill="white"/>
<path d="M64.433 34.2396C64.433 34.2396 49.7786 37.3773 44.879 53.0927C39.9793 68.8081 59.7564 85.3679 59.7564 85.3679L97.1152 74.9591C97.1152 74.9591 92.6351 34.6129 88.1638 30.5774C83.6836 26.5419 64.433 34.2307 64.433 34.2307V34.2396Z" fill="#DC3C1E"/>
<path d="M75.642 25.5369C75.642 25.5369 77.6411 10.4793 97.1148 6.79932C116.588 3.11936 128.244 27.1991 128.244 27.1991L70.894 37.6612L75.642 25.5369Z" fill="#DC3C1E"/>
<path d="M74.2225 18.9508C74.2225 18.9508 80.452 14.6487 78.0244 10.5687C75.6058 6.48874 69.5727 10.062 69.5727 10.062C69.5727 10.062 67.4844 7.67095 64.1822 9.26205C60.8801 10.8531 60.2197 15.2442 60.2197 15.2442C60.2197 15.2442 56.9889 14.9509 56.5338 18.8619C56.0786 22.773 60.0769 26.5507 60.0769 26.5507L74.2225 18.9419V18.9508Z" fill="#0017BF"/>
<path d="M63.1295 28.9325L62.5404 36.3991C62.5404 36.3991 63.7274 38.6479 68.0827 39.3501C71.3313 39.8657 72.4736 37.8035 72.4736 37.8035L72.3755 35.4035L72.2148 31.6791L64.4325 29.3236L63.1295 28.9236V28.9325Z" fill="#FFBB87"/>
<path d="M64.432 29.324C64.432 29.5284 64.4945 29.7773 64.5927 30.0617C65.976 33.9195 70.5008 35.0839 72.375 35.4039L72.2143 31.6795L64.432 29.324Z" fill="black"/>
<path d="M75.2221 14.7905C75.2221 14.7905 78.4171 24.4615 76.4626 29.537C74.5081 34.6125 69.8048 33.3503 67.0471 32.0703C64.2893 30.7903 63.1291 28.9236 63.1291 28.9236C63.1291 28.9236 60.3803 29.5725 58.8274 26.9414C57.2745 24.3015 58.64 21.5726 60.2286 21.0571C61.8172 20.5504 63.5218 21.8126 63.5218 21.8126L62.3527 18.9771C62.3527 18.9771 69.6174 5.82167 75.231 14.7727L75.2221 14.7905Z" fill="#FFBB87"/>
<path d="M62.9417 25.8558C63.031 25.8558 63.1292 25.8203 63.1916 25.7403C63.3076 25.6069 63.2898 25.4025 63.1559 25.2869L59.9698 22.6025C59.836 22.4869 59.6307 22.5047 59.5147 22.6381C59.3986 22.7714 59.4165 22.9758 59.5504 23.0914L62.7365 25.7758C62.7989 25.8291 62.8703 25.8558 62.9507 25.8558H62.9417Z" fill="black"/>
<path d="M59.8631 25.5726C59.8631 25.5726 59.8988 25.5726 59.9166 25.5726L62.1835 25.1726C62.362 25.1459 62.478 24.9771 62.4512 24.7993C62.4155 24.6215 62.2549 24.506 62.0764 24.5326L59.8095 24.9326C59.631 24.9593 59.515 25.1282 59.5418 25.3059C59.5686 25.4659 59.7113 25.5726 59.8631 25.5726Z" fill="black"/>
<path d="M68.6627 18.2662C68.7519 18.2662 68.8412 18.2307 68.9036 18.1596C69.9478 17.004 71.0634 17.7062 71.108 17.7329C71.2598 17.8307 71.4561 17.7862 71.5543 17.6351C71.6524 17.484 71.6078 17.2796 71.4561 17.1907C70.9028 16.8351 69.5462 16.4796 68.4128 17.724C68.2878 17.8573 68.3057 18.0618 68.4396 18.1862C68.502 18.2396 68.5823 18.2662 68.6537 18.2662H68.6627Z" fill="black"/>
<path d="M75.9633 18.4786C76.0525 18.4786 76.1329 18.443 76.1954 18.3808C76.3203 18.2563 76.3203 18.043 76.1954 17.9186C75.1333 16.8964 73.9017 17.483 73.8482 17.5097C73.6875 17.5897 73.6161 17.7852 73.6964 17.9452C73.7767 18.1052 73.9731 18.1674 74.1337 18.0963C74.1784 18.0786 75.0262 17.6963 75.7402 18.3897C75.8027 18.4519 75.883 18.4786 75.9633 18.4786Z" fill="black"/>
<path d="M73.9017 26.274C74.0356 26.274 74.1516 26.194 74.2051 26.0696C75.3653 23.083 73.4912 21.1719 73.4108 21.0919C73.2859 20.9674 73.0806 20.9674 72.9557 21.0919C72.8307 21.2163 72.8307 21.4207 72.9557 21.5541C73.0271 21.6252 74.5978 23.2518 73.5982 25.8385C73.5358 26.0074 73.6161 26.194 73.7857 26.2563C73.8214 26.274 73.866 26.274 73.9017 26.274Z" fill="black"/>
<path d="M75.641 22.0613C75.641 22.0613 75.6856 22.0613 75.7035 22.0613C75.882 22.0258 75.998 21.8569 75.9623 21.6791L75.6321 19.928C75.5964 19.7502 75.4268 19.6347 75.2483 19.6702C75.0698 19.7058 74.9538 19.8747 74.9895 20.0525L75.3197 21.8036C75.3465 21.9547 75.4893 22.0702 75.641 22.0702V22.0613Z" fill="black"/>
<path d="M70.8939 21.7864C70.8939 21.7864 70.9386 21.7864 70.9564 21.7864C71.1349 21.7509 71.2509 21.582 71.2152 21.4042L70.885 19.6531C70.8493 19.4753 70.6798 19.3598 70.5013 19.3953C70.3228 19.4309 70.2067 19.5998 70.2424 19.7776L70.5726 21.5287C70.5994 21.6798 70.7422 21.7953 70.8939 21.7953V21.7864Z" fill="black"/>
<path d="M75.8474 16.9593C75.8474 16.9593 75.1513 15.3949 73.286 15.2349C71.4207 15.0749 70.2248 16.3016 70.2248 16.3016C70.2248 16.3016 70.796 19.5015 68.1275 20.9682C65.4501 22.4348 63.5224 21.8126 63.5224 21.8126L61.7285 21.0126L60.5861 18.2215L66.3694 12.906L73.5627 9.81274L76.8291 13.2705L75.8474 16.9416V16.9593Z" fill="#0017BF"/>
<path d="M72.0187 28.3104C72.2329 28.3104 72.3757 28.1593 72.3668 27.9815C72.3668 27.8037 72.224 27.6882 72.0366 27.6615C71.9652 27.6793 70.5015 27.6615 69.9839 26.2926C69.9214 26.1237 69.734 26.0438 69.5645 26.106C69.3949 26.1682 69.3145 26.3549 69.377 26.5237C69.9125 27.946 71.3137 28.3104 72.0098 28.3104H72.0187Z" fill="black"/>
<path d="M159.551 88.6738L91.0988 88.6738C88.6096 88.6738 86.5918 86.6641 86.5918 84.185L86.5918 26.9234C86.5918 24.4443 88.6096 22.4345 91.0988 22.4345L159.551 22.4345C162.04 22.4345 164.058 24.4443 164.058 26.9234V84.185C164.058 86.6641 162.04 88.6738 159.551 88.6738Z" fill="#373178"/>
<path d="M79.6305 54.5047C79.6305 54.5047 89.0103 49.5537 91.8573 49.127C94.7043 48.7003 99.5683 51.8203 99.5683 51.8203L97.114 53.2336C97.114 53.2336 100.952 61.5891 100.238 62.8602C99.5236 64.1313 97.6762 62.8602 97.6762 62.8602C97.6762 62.8602 93.2674 67.3935 91.9912 67.5357C90.715 67.6779 83.8876 64.9846 83.8876 64.9846L79.6216 54.5047H79.6305Z" fill="#FFBB87"/>
<path d="M80.9071 52.5238L60.5767 59.7415L62.665 34.7551C62.665 34.7551 47.0736 39.4928 42.9593 55.4927C38.8361 71.4925 44.8067 84.2302 57.5958 85.3679C70.3849 86.4968 87.7256 68.6659 87.7256 68.6659L80.9071 52.5238Z" fill="#DC3C1E"/>
<path d="M117.784 16.3906C117.784 16.3906 115.508 12.5773 113.411 15.7684C111.314 18.9595 113.108 28.0616 114.812 28.4794C116.642 28.9327 117.784 25.4572 117.784 25.4572C117.784 25.4572 118.132 28.4261 120.06 28.4794C121.979 28.5327 122.853 25.4572 122.853 25.4572C122.853 25.4572 123.808 28.9238 125.477 28.4794C127.307 27.9816 128.271 16.3906 124.781 15.1817C123.103 14.604 122.157 16.3906 122.157 16.3906C122.157 16.3906 121.506 14.1862 119.587 14.4706C117.668 14.7551 117.793 16.3906 117.793 16.3906H117.784Z" fill="#FFBB87"/>
<path d="M97.1145 53.2346L103.906 49.0835L105.646 52.5412L98.6049 56.719L97.1145 53.2346Z" fill="white"/>
<path d="M107.815 53.6955C106.36 53.6955 104.638 53.2511 103.844 51.6689C102.639 49.2689 104.254 46.3356 104.45 46.0156L106.708 47.3045C106.414 47.82 105.682 49.5267 106.173 50.5045C106.521 51.1978 108.056 51.1445 108.708 51.0111L109.252 53.5533C108.85 53.6422 108.351 53.6955 107.824 53.6955H107.815Z" fill="white"/>
<path d="M97.1145 53.5537C97.1769 53.5537 97.2483 53.536 97.3019 53.4915C97.4447 53.3848 97.4804 53.1804 97.3733 53.0382L95.633 50.6204C95.5259 50.4782 95.3295 50.4427 95.1778 50.5493C95.035 50.656 94.9993 50.8604 95.1064 51.0027L96.8467 53.4204C96.9092 53.5093 97.0074 53.5537 97.1145 53.5537Z" fill="black"/>
<path d="M97.6867 63.1801C97.7492 63.1801 97.8206 63.1623 97.8741 63.1179C98.0169 63.0112 98.0526 62.8157 97.9455 62.6645L96.9549 61.2868C96.8478 61.1446 96.6425 61.109 96.4997 61.2068C96.357 61.3134 96.3213 61.509 96.4283 61.6601L97.419 63.0379C97.4815 63.1268 97.5796 63.1712 97.6867 63.1712V63.1801Z" fill="black"/>
<path d="M117.784 25.3759C117.963 25.3759 118.105 25.2337 118.105 25.0559V16.3893C118.105 16.2116 117.963 16.0693 117.784 16.0693C117.606 16.0693 117.463 16.2116 117.463 16.3893V25.0559C117.463 25.2337 117.606 25.3759 117.784 25.3759Z" fill="black"/>
<path d="M122.853 25.7852C123.058 25.7674 123.192 25.6163 123.174 25.4385L122.478 16.372C122.46 16.1942 122.3 16.0609 122.13 16.0698C121.951 16.0875 121.818 16.2386 121.827 16.4164L122.523 25.483C122.532 25.6519 122.674 25.7852 122.844 25.7852H122.853Z" fill="black"/>
<path d="M68.9215 39.6877C68.9661 39.6877 69.0196 39.6877 69.0643 39.6877C70.4654 39.6521 71.6881 39.0921 72.7056 38.0255C72.8305 37.8922 72.8216 37.6877 72.6966 37.5633C72.5717 37.4388 72.3575 37.4477 72.2326 37.5722C70.6797 39.2077 68.627 39.4744 66.1459 38.381C64.236 37.5366 62.7724 36.1677 62.7634 36.1588C62.6296 36.0344 62.4243 36.0433 62.2994 36.1677C62.1744 36.3011 62.1833 36.5055 62.3083 36.6299C62.4422 36.7544 65.5747 39.6877 68.9126 39.6877H68.9215Z" fill="white"/>
<path d="M55.6508 60.4163C55.6508 60.4163 55.74 60.4163 55.7757 60.3896C64.4059 56.7541 76.7755 54.043 76.9005 54.0163C77.079 53.9808 77.1861 53.803 77.1504 53.6341C77.1147 53.4563 76.9362 53.3497 76.7666 53.3852C76.6417 53.4119 64.2096 56.1319 55.5258 59.794C55.3563 59.8652 55.2849 60.0518 55.3563 60.2207C55.4098 60.3452 55.5258 60.4163 55.6597 60.4163H55.6508Z" fill="white"/>
<path d="M60.0587 57.6869C61.3528 57.6869 62.6022 57.6424 63.459 57.598C63.6107 57.598 63.7357 57.4824 63.7624 57.3313C63.7892 57.1802 63.7089 57.038 63.575 56.9758C63.2983 56.8513 56.8726 54.0247 54.6414 55.838C54.213 56.1935 54.213 56.5046 54.2844 56.7002C54.5878 57.5002 57.4259 57.6869 60.0498 57.6869H60.0587ZM61.9061 57.0113C58.5683 57.1002 55.275 56.9402 54.9091 56.478C54.927 56.478 54.9627 56.4158 55.0609 56.3446C56.3282 55.3135 59.7017 56.2113 61.9061 57.0113Z" fill="white"/>
<path d="M95.0795 22.7643C95.2312 22.7643 95.3473 22.6665 95.3919 22.5332C95.615 21.7954 96.6681 18.0621 95.8024 17.1021C95.6685 16.951 95.4097 16.791 95.0171 16.8621C94.7047 16.9244 94.4548 17.1021 94.2852 17.3866C93.5088 18.6932 94.6422 22.1599 94.7672 22.551C94.8118 22.6843 94.9367 22.7732 95.0795 22.7732V22.7643ZM95.2045 17.4844C95.2759 17.4844 95.3026 17.511 95.3205 17.5288C95.6864 17.9377 95.4365 19.6799 95.0706 21.2265C94.7582 20.0088 94.4637 18.3555 94.8475 17.7066C94.9189 17.5821 95.0171 17.511 95.142 17.4932C95.1688 17.4932 95.1866 17.4932 95.2134 17.4932L95.2045 17.4844Z" fill="white"/>
<path d="M71.2864 81.7576C71.3399 81.7576 71.3845 81.7487 71.4291 81.722C71.5184 81.6776 80.6573 77.0288 85.7443 71.0199C85.8604 70.8866 85.8425 70.6822 85.7087 70.5666C85.5748 70.4511 85.3695 70.4688 85.2535 70.6022C80.2557 76.5043 71.2328 81.091 71.1436 81.1443C70.9829 81.2243 70.9204 81.4198 71.0008 81.5798C71.0543 81.6954 71.1703 81.7576 71.2953 81.7576H71.2864Z" fill="white"/>
<path d="M119.043 110.327C119.124 110.327 119.195 110.3 119.258 110.247C119.392 110.131 119.4 109.918 119.284 109.794L116.241 106.443C116.116 106.309 115.911 106.3 115.777 106.416C115.643 106.531 115.634 106.745 115.75 106.869L118.794 110.22C118.856 110.291 118.945 110.327 119.035 110.327H119.043Z" fill="white"/>
<path d="M116 110.327C116.089 110.327 116.179 110.292 116.241 110.22L119.284 106.869C119.4 106.736 119.392 106.532 119.258 106.416C119.124 106.292 118.919 106.309 118.794 106.443L115.75 109.794C115.634 109.927 115.643 110.132 115.777 110.247C115.839 110.3 115.92 110.327 115.991 110.327H116Z" fill="white"/>
<path d="M138.248 155.811H187.602C189.476 155.811 191.002 154.291 191.002 152.424V112.549C191.002 110.682 189.476 109.162 187.602 109.162H138.248C136.374 109.162 134.848 110.682 134.848 112.549V152.424C134.848 154.291 136.374 155.811 138.248 155.811ZM187.602 109.802C189.119 109.802 190.35 111.029 190.35 112.54V152.415C190.35 153.926 189.119 155.153 187.602 155.153H138.248C136.731 155.153 135.499 153.926 135.499 152.415V112.54C135.499 111.029 136.731 109.802 138.248 109.802H187.602Z" fill="#E64218"/>
<path d="M135.169 118.379H190.681C190.859 118.379 191.002 118.237 191.002 118.05C191.002 117.863 190.859 117.721 190.681 117.721H135.169C134.991 117.721 134.848 117.863 134.848 118.05C134.848 118.237 134.991 118.379 135.169 118.379Z" fill="#E64218"/>
<path d="M184.166 115.943C184.256 115.943 184.354 115.908 184.416 115.828L187.37 112.361C187.486 112.228 187.469 112.023 187.335 111.908C187.201 111.792 186.995 111.81 186.879 111.943L183.925 115.41C183.809 115.543 183.827 115.748 183.961 115.863C184.024 115.917 184.095 115.943 184.175 115.943H184.166Z" fill="#E64218"/>
<path d="M187.129 115.943C187.201 115.943 187.281 115.917 187.343 115.863C187.477 115.748 187.495 115.543 187.379 115.41L184.425 111.943C184.309 111.81 184.104 111.792 183.97 111.908C183.836 112.023 183.818 112.228 183.934 112.361L186.888 115.828C186.951 115.908 187.04 115.943 187.138 115.943H187.129Z" fill="#E64218"/>
<path d="M312.057 206.148H264.506C260.12 206.148 256.563 202.606 256.563 198.237V140.78C256.563 136.411 260.12 132.869 264.506 132.869H312.057C316.444 132.869 320 136.411 320 140.78V198.237C320 202.606 316.444 206.148 312.057 206.148Z" fill="#1D4568"/>
<path d="M307.283 206.148H259.732C255.345 206.148 251.789 202.606 251.789 198.237V140.78C251.789 136.411 255.345 132.869 259.732 132.869H307.283C311.67 132.869 315.226 136.411 315.226 140.78V198.237C315.226 202.606 311.67 206.148 307.283 206.148Z" fill="#40398D"/>
<path d="M205.531 121.243C205.62 121.243 205.701 121.207 205.763 121.145C205.826 121.083 205.861 121.003 205.861 120.914V20.4081C205.861 20.2304 205.719 20.0881 205.54 20.0881C205.362 20.0881 205.219 20.2304 205.219 20.4081V120.594L125.673 120.54V62.8966C125.673 62.7188 125.53 62.5766 125.352 62.5766C125.173 62.5766 125.03 62.7188 125.03 62.8966V120.86C125.03 121.038 125.173 121.18 125.352 121.189L205.549 121.243H205.531Z" fill="#E64218"/>
<path d="M246.05 179.439L242.248 192.265L226.157 189.528L229.834 177.563L246.05 179.439Z" fill="#FFBB87"/>
<path d="M271.146 177.109L272.896 191.767L256.804 194.843L255.305 181.118L271.146 177.109Z" fill="#FFBB87"/>
<path d="M219.062 46.658C219.062 46.658 217.429 51.7868 220.249 52.8446C223.078 53.9023 223.087 50.9779 223.087 50.9779L221.338 47.3068L219.062 46.6668V46.658Z" fill="#FFBB87"/>
<path d="M232.092 56.8529C232.092 56.8529 228.397 47.3686 225.032 45.7153C221.668 44.062 215.269 44.2664 214.287 46.0086C213.314 47.7419 216.242 47.7775 217 47.5997C217.759 47.4219 220.043 47.9197 220.579 48.693C221.123 49.4663 221.338 52.7196 221.338 52.7196C221.338 52.7196 218.839 53.2263 217.759 52.3196C216.679 51.413 215.59 49.7775 214.831 50.9774C214.073 52.1685 217.107 58.444 219.285 60.1684C221.454 61.9018 226.987 64.0617 226.987 64.0617L232.092 56.8529Z" fill="#FFBB87"/>
<path d="M221.347 53.0395C221.552 53.0217 221.686 52.8617 221.668 52.6839C221.668 52.6395 221.561 51.5639 221.16 49.7862C220.713 47.8306 218.937 47.4573 218.857 47.4395C218.687 47.404 218.509 47.5195 218.473 47.6973C218.438 47.8751 218.554 48.044 218.723 48.0795C218.786 48.0884 220.169 48.3995 220.517 49.9373C220.91 51.6706 221.008 52.7373 221.017 52.7461C221.035 52.915 221.177 53.0395 221.338 53.0395H221.347Z" fill="black"/>
<path d="M199.667 39.199H211.394C212.035 39.199 212.555 39.7163 212.555 40.3545V52.0344C212.555 52.6726 212.035 53.1899 211.394 53.1899H199.667C199.027 53.1899 198.507 52.6726 198.507 52.0344V40.3545C198.507 39.7163 199.027 39.199 199.667 39.199Z" fill="#373178"/>
<path d="M199.667 57.0664H211.394C212.035 57.0664 212.555 57.5838 212.555 58.2219V69.9018C212.555 70.54 212.035 71.0574 211.394 71.0574H199.667C199.027 71.0574 198.507 70.54 198.507 69.9018V58.2219C198.507 57.5838 199.027 57.0664 199.667 57.0664Z" fill="#373178"/>
<path d="M199.667 74.9321H211.394C212.035 74.9321 212.555 75.4495 212.555 76.0877V87.7675C212.555 88.4057 212.035 88.9231 211.394 88.9231H199.667C199.027 88.9231 198.507 88.4057 198.507 87.7675V76.0877C198.507 75.4495 199.027 74.9321 199.667 74.9321Z" fill="#373178"/>
<path d="M211.279 54.1056L217.848 48.5856L216.161 46.6034L211.511 50.5234L207.727 46.4167L205.808 48.1767L211.279 54.1056Z" fill="#F6F6F6"/>
<path d="M205.684 69.2884L211.074 64.7195L209.387 62.7462L206.103 65.5284L201.873 59.9285L199.784 61.4929L205.684 69.2884Z" fill="white"/>
<path d="M205.684 87.163L211.074 82.5941L209.387 80.6208L206.103 83.403L201.873 77.7942L199.784 79.3586L205.684 87.163Z" fill="white"/>
<path d="M222.516 0H188.111C186.701 0 185.559 1.13777 185.559 2.5422V21.422C185.559 22.8264 186.701 23.9642 188.111 23.9642H222.516C223.926 23.9642 225.068 22.8264 225.068 21.422V2.5422C225.068 1.13777 223.926 0 222.516 0Z" fill="#5EF939"/>
<path d="M109.252 110.3V163.918C109.252 167.135 112.197 169.74 115.812 169.74H210.423C214.055 169.74 217 167.135 217 163.918V110.3C217 107.083 214.055 104.478 210.423 104.478H115.812C112.197 104.478 109.252 107.083 109.252 110.3Z" fill="#40398D"/>
<path d="M148.646 119.9H171.399C171.898 119.9 172.303 120.304 172.303 120.804C172.303 121.303 171.898 121.708 171.399 121.708H148.646C148.146 121.708 147.741 121.303 147.741 120.804C147.741 120.304 148.146 119.9 148.646 119.9Z" fill="#5EF939"/>
<path d="M125.697 129.208H165.961C166.46 129.208 166.865 129.613 166.865 130.112C166.865 130.612 166.46 131.017 165.961 131.017H125.697C125.198 131.017 124.793 130.612 124.793 130.112C124.793 129.613 125.198 129.208 125.697 129.208Z" fill="#FFB904"/>
<path d="M171.367 129.208H187.832C188.332 129.208 188.736 129.613 188.736 130.112C188.736 130.612 188.332 131.017 187.832 131.017H171.367C170.868 131.017 170.463 130.612 170.463 130.112C170.463 129.613 170.868 129.208 171.367 129.208Z" fill="#5EF939"/>
<path d="M125.697 155.414H165.961C166.46 155.414 166.865 155.818 166.865 156.318C166.865 156.817 166.46 157.222 165.961 157.222H125.697C125.198 157.222 124.793 156.817 124.793 156.318C124.793 155.818 125.198 155.414 125.697 155.414Z" fill="#FFB904"/>
<path d="M171.368 155.414H202.545C203.044 155.414 203.449 155.818 203.449 156.318C203.449 156.817 203.044 157.222 202.545 157.222H171.368C170.869 157.222 170.464 156.817 170.464 156.318C170.464 155.818 170.869 155.414 171.368 155.414Z" fill="#5EF939"/>
<path d="M125.697 142.091H165.961C166.46 142.091 166.865 142.496 166.865 142.995C166.865 143.495 166.46 143.9 165.961 143.9H125.697C125.198 143.9 124.793 143.495 124.793 142.995C124.793 142.496 125.198 142.091 125.697 142.091Z" fill="#5EF939"/>
<path d="M171.367 142.091H187.832C188.332 142.091 188.736 142.496 188.736 142.995C188.736 143.495 188.332 143.9 187.832 143.9H171.367C170.868 143.9 170.463 143.495 170.463 142.995C170.463 142.496 170.868 142.091 171.367 142.091Z" fill="#5EF939"/>
<path d="M175.098 137.458L147.568 137.458C147.069 137.458 146.664 137.053 146.664 136.554C146.664 136.055 147.069 135.65 147.568 135.65L175.098 135.65C175.598 135.65 176.002 136.055 176.002 136.554C176.002 137.053 175.598 137.458 175.098 137.458Z" fill="#FFB904"/>
<path d="M142.162 137.458L125.697 137.458C125.198 137.458 124.793 137.053 124.793 136.554C124.793 136.055 125.198 135.65 125.697 135.65L142.162 135.65C142.661 135.65 143.066 136.055 143.066 136.554C143.066 137.053 142.661 137.458 142.162 137.458Z" fill="#5EF939"/>
<path d="M175.098 150.341L147.568 150.341C147.069 150.341 146.664 149.936 146.664 149.437C146.664 148.937 147.069 148.532 147.568 148.532L175.098 148.532C175.598 148.532 176.002 148.937 176.002 149.437C176.002 149.936 175.598 150.341 175.098 150.341Z" fill="#FFB904"/>
<path d="M142.162 150.341L125.697 150.341C125.198 150.341 124.793 149.936 124.793 149.437C124.793 148.937 125.198 148.532 125.697 148.532L142.162 148.532C142.661 148.532 143.066 148.937 143.066 149.437C143.066 149.936 142.661 150.341 142.162 150.341Z" fill="#5EF939"/>
<path d="M125.241 122.615V121.423L130.085 119.275V120.652L126.794 121.985V122.043L130.085 123.376V124.753L125.241 122.615ZM136.548 117.439L134.263 125.906H133.022L135.298 117.439H136.548ZM144.329 122.615L139.485 124.753V123.376L142.776 122.043V121.985L139.485 120.652V119.275L144.329 121.423V122.615Z" fill="#3DF130"/>
<path d="M176.806 119.9H202.545C203.044 119.9 203.449 120.304 203.449 120.804C203.449 121.303 203.044 121.708 202.545 121.708H176.806C176.306 121.708 175.901 121.303 175.901 120.804C175.901 120.304 176.306 119.9 176.806 119.9Z" fill="#FFB904"/>
<path d="M240.731 204.407C241.91 204.479 242.954 203.554 243.088 202.301C243.641 197.359 245.497 186.337 244.596 186.239C243.445 186.114 231.485 187.972 231.485 187.972C231.485 187.972 231.923 181.083 226.996 181.777C223.221 182.31 218.473 186.194 216.465 187.972C215.832 188.541 215.064 188.896 214.243 189.003C210.727 189.474 200.999 191.225 200.303 196.239C199.446 202.372 202.007 201.945 203.159 202.07C204.149 202.176 232.672 203.91 240.731 204.399V204.407Z" fill="#FFB904"/>
<path d="M277.001 200.273C278.108 199.855 278.67 198.584 278.277 197.384C276.733 192.655 273.86 181.856 272.994 182.131C271.887 182.487 261.767 189.1 261.767 189.1C261.767 189.1 259.312 182.647 255.118 185.304C251.896 187.349 249.183 192.833 248.094 195.278C247.746 196.051 247.202 196.691 246.497 197.127C243.489 199.002 235.35 204.593 236.795 209.446C238.554 215.384 240.704 213.944 241.811 213.589C242.757 213.277 269.46 203.135 277.001 200.264V200.273Z" fill="#FFB904"/>
<path d="M284.838 36.8616C284.838 36.8616 294.468 34.2838 301.625 43.0215C308.792 51.7592 304.339 62.5146 292.986 62.2035C281.643 61.8924 279.001 50.3458 279.001 50.3458L284.829 36.8704L284.838 36.8616Z" fill="#0017BF"/>
<path d="M270.378 44.0536C270.378 44.0536 267.638 41.1558 268.325 36.5692C268.79 33.4581 270.155 32.427 270.155 32.427C270.155 32.427 267.96 28.2404 274.251 28.3737C280.534 28.5071 285.684 27.9737 288.486 33.3603C290.137 36.5336 289.477 43.4225 289.477 43.4225L270.378 44.0536Z" fill="#0017BF"/>
<path d="M284.266 48.9412L284.221 56.5766C284.221 56.5766 282.829 58.7633 278.34 59.1011C274.993 59.3499 273.949 57.6344 273.949 57.6344L274.797 50.9589L282.909 49.2345L284.266 48.9412Z" fill="#FFBB87"/>
<path d="M284.258 48.4802C284.24 48.6847 284.16 48.9336 284.035 49.218C282.294 53.0224 276.243 54.5779 274.316 54.7379L274.798 50.9691L284.258 48.4802Z" fill="black"/>
<path d="M273.181 33.5379C273.181 33.5379 269.102 43.0934 270.655 48.4177C272.208 53.751 277.09 52.8621 280.008 51.7955C282.927 50.7377 284.265 48.9333 284.265 48.9333C284.265 48.9333 287.005 49.8311 288.808 47.28C290.611 44.7289 289.459 41.84 287.889 41.1823C286.318 40.5334 284.479 41.6711 284.479 41.6711L285.907 38.8889C285.907 38.8889 279.651 24.898 273.181 33.5201V33.5379Z" fill="#FFBB87"/>
<path d="M284.48 41.6895C284.48 41.6895 280.393 42.5962 277.447 38.0984C274.502 33.6007 274.734 31.7252 274.734 31.7252L271.986 36.4807C271.986 36.4807 271.289 33.2363 272.557 31.1296C273.824 29.023 275.189 29.4319 275.189 29.4319L284.293 31.5119L286.818 38.694L284.489 41.6895H284.48Z" fill="#0017BF"/>
<path d="M274.171 45.6446C274.171 45.6446 274.243 45.6446 274.27 45.6268C274.439 45.5735 274.537 45.3868 274.475 45.218C273.895 43.4491 274.662 41.5202 274.671 41.5024C274.743 41.3336 274.662 41.1469 274.493 41.0758C274.323 41.0047 274.136 41.0847 274.064 41.2536C274.029 41.3424 273.199 43.4224 273.85 45.4135C273.895 45.5468 274.02 45.6357 274.162 45.6357L274.171 45.6446Z" fill="black"/>
<path d="M284.952 46.1591C285.041 46.1591 285.131 46.1235 285.193 46.0524L287.746 43.2702C287.871 43.1369 287.862 42.9325 287.728 42.808C287.594 42.6836 287.389 42.6925 287.264 42.8258L284.711 45.608C284.586 45.7413 284.595 45.9458 284.729 46.0702C284.792 46.1235 284.872 46.1591 284.952 46.1591Z" fill="black"/>
<path d="M287.693 45.387C287.853 45.387 287.996 45.2715 288.014 45.1026C288.041 44.9248 287.916 44.7648 287.737 44.7381L285.935 44.4981C285.756 44.4804 285.595 44.5959 285.569 44.7737C285.542 44.9515 285.667 45.1115 285.845 45.1381L287.648 45.3781C287.648 45.3781 287.675 45.3781 287.693 45.3781V45.387Z" fill="black"/>
<path d="M271.744 37.8925C271.744 37.8925 271.788 37.8925 271.806 37.8925L273.457 37.5725C273.636 37.537 273.752 37.3681 273.716 37.1903C273.681 37.0125 273.511 36.9059 273.332 36.9325L271.681 37.2525C271.503 37.2881 271.387 37.457 271.423 37.6347C271.449 37.7859 271.592 37.9014 271.744 37.9014V37.8925Z" fill="black"/>
<path d="M278.045 38.275C278.179 38.275 278.303 38.195 278.348 38.0616C278.411 37.8927 278.321 37.7061 278.161 37.6439L276.447 37.0039C276.278 36.9416 276.09 37.0305 276.028 37.1905C275.965 37.3594 276.054 37.5461 276.215 37.6083L277.929 38.2483C277.929 38.2483 278 38.2661 278.045 38.2661V38.275Z" fill="black"/>
<path d="M272.664 41.7947C272.807 41.7947 272.941 41.7058 272.976 41.5636L273.476 39.8392C273.503 39.7325 273.476 39.6259 273.414 39.537L272.869 38.9059C272.753 38.7725 272.548 38.7548 272.414 38.8703C272.28 38.9859 272.262 39.1903 272.378 39.3237L272.807 39.8303L272.36 41.3947C272.307 41.5636 272.414 41.7503 272.584 41.7947C272.61 41.7947 272.646 41.8036 272.673 41.8036L272.664 41.7947Z" fill="black"/>
<path d="M277.5 42.1692C277.643 42.1692 277.768 42.0803 277.812 41.9381L278.312 40.2137C278.339 40.107 278.312 39.9914 278.241 39.9114L277.491 39.0759C277.375 38.9426 277.161 38.9337 277.027 39.0492C276.893 39.1648 276.884 39.3692 277 39.5114L277.625 40.2137L277.179 41.7692C277.125 41.9381 277.232 42.1247 277.402 42.1692C277.429 42.1692 277.464 42.1781 277.491 42.1781L277.5 42.1692Z" fill="black"/>
<path d="M275.332 48.3995C275.412 48.3995 275.492 48.3995 275.573 48.3817C276.635 48.2039 277.224 46.924 277.251 46.8706C277.304 46.7551 277.286 46.6306 277.206 46.5328C277.126 46.4351 277.001 46.3906 276.885 46.4173L273.957 47.0573C273.841 47.0839 273.752 47.1639 273.716 47.2795C273.681 47.3951 273.716 47.5106 273.788 47.5995C274.288 48.1417 274.805 48.4084 275.323 48.4084L275.332 48.3995ZM276.26 47.2173C276.046 47.4662 275.778 47.6884 275.466 47.7417C275.234 47.7862 274.993 47.7151 274.734 47.5462L276.26 47.2173Z" fill="black"/>
<path d="M270.924 104.469C270.924 104.469 241.33 106.131 233.636 112.069C225.943 118.007 225.515 180.166 225.515 180.166L249.656 182.904L249.879 122.051L270.924 104.469Z" fill="#E64218"/>
<path d="M286.229 57.0128C286.229 57.0128 285.381 54.0439 284.952 54.0439C284.39 54.0439 281.284 55.5372 278.455 55.5195C275.635 55.5017 275.144 54.6217 274.305 54.7373C273.466 54.8528 273.154 57.0128 273.154 57.0128C273.154 57.0128 267.924 58.7461 261.846 60.1505C255.769 61.555 246.219 59.715 242.203 57.7683C238.187 55.8217 231.351 51.6084 231.351 51.6084L224.291 70.0882C224.291 70.0882 238.615 88.3547 251.752 88.4613C264.89 88.568 280.731 85.9725 280.731 85.9725L286.22 57.0039L286.229 57.0128Z" fill="#0017BF"/>
<path d="M306.39 105.422C306.39 105.422 308.559 128.657 305.096 130.844C297.01 135.955 274.868 134.666 274.761 135.617C274.654 136.568 277.242 178.923 277.242 178.923L248.067 184.345C248.067 184.345 237.349 122.524 243.417 112.551C249.477 102.577 285.23 103.52 285.23 103.52L306.381 105.422H306.39Z" fill="#E64218"/>
<path d="M249.594 99.99L265.801 98.3811L259.687 72.1592L243.48 73.768L249.594 99.99Z" fill="#FFB904"/>
<path d="M247.165 100.23L263.363 98.6298L257.25 72.3989L241.052 74.0078L247.165 100.23Z" fill="#F6F6F6"/>
<path d="M268.218 83.822L267.611 103.715C267.611 103.715 280.418 107.28 290.075 108.151C299.731 109.013 306.354 108.151 306.354 108.151V100.48L268.209 83.8309L268.218 83.822Z" fill="#0017BF"/>
<path d="M270.308 86.4079C270.308 86.4079 268.371 82.408 266.417 81.0036C264.462 79.5991 261.481 79.608 261.481 79.608L262.07 82.4613C262.07 82.4613 257.528 83.0569 256.76 82.4613C255.993 81.8658 252.735 79.2702 251.869 79.4925C251.004 79.7058 252.842 82.4613 252.842 82.4613C252.842 82.4613 250.888 80.6747 250.236 81.7591C249.585 82.8435 252.084 87.1635 252.084 87.1635C252.084 87.1635 249.808 84.8968 250.566 88.4613C251.325 92.0257 257.929 95.4834 260.214 95.8123C262.499 96.1323 271.646 96.1678 271.646 96.1678L270.299 86.4079H270.308Z" fill="#FFBB87"/>
<path d="M262.069 82.7906C262.069 82.7906 262.114 82.7906 262.132 82.7906L264.524 82.3017C264.702 82.2662 264.809 82.0973 264.773 81.9195C264.738 81.7417 264.568 81.6351 264.39 81.6706L261.998 82.1595C261.819 82.1951 261.712 82.364 261.748 82.5417C261.784 82.6928 261.918 82.7995 262.069 82.7995V82.7906Z" fill="black"/>
<path d="M259.687 86.5228C259.856 86.5228 259.999 86.3895 260.008 86.2117C260.008 86.0339 259.874 85.8828 259.695 85.8739C259.678 85.8739 257.464 85.7584 256.242 85.1539C255.01 84.5406 253.109 82.2828 253.091 82.2651C252.975 82.1228 252.77 82.114 252.636 82.2295C252.502 82.3451 252.484 82.5495 252.591 82.6828C252.672 82.7806 254.608 85.065 255.947 85.7406C257.295 86.4161 259.562 86.5228 259.66 86.5317C259.66 86.5317 259.669 86.5317 259.678 86.5317L259.687 86.5228Z" fill="black"/>
<path d="M259.142 90.6303C259.32 90.6303 259.463 90.488 259.463 90.3103C259.463 90.1325 259.329 89.9814 259.142 89.9814C259.124 89.9814 257.303 89.928 255.75 89.1814C253.733 88.2125 252.314 86.9414 252.296 86.9325C252.162 86.817 251.957 86.8259 251.832 86.9592C251.716 87.0925 251.725 87.297 251.859 87.4214C251.922 87.4747 253.358 88.7547 255.465 89.7769C257.142 90.5858 259.043 90.6391 259.124 90.648L259.142 90.6303Z" fill="black"/>
<path d="M209.379 6.56982H217.5V14.6586H209.379V6.56982Z" fill="#DC3C1E"/>
<path d="M198.607 3.67212L196.081 8.03651L193.555 12.4009H198.607H203.667L201.141 8.03651L198.607 3.67212Z" fill="#E64218"/>
<path d="M205.631 20.2762C202.516 20.2762 199.991 17.7611 199.991 14.6585C199.991 11.5559 202.516 9.04077 205.631 9.04077C208.746 9.04077 211.271 11.5559 211.271 14.6585C211.271 17.7611 208.746 20.2762 205.631 20.2762Z" fill="white"/>
<path d="M123.594 76.2833C123.594 77.2344 124.37 78.0077 125.325 78.0077C126.28 78.0077 127.057 77.2344 127.057 76.2833C127.057 75.3322 126.28 74.5588 125.325 74.5588C124.37 74.5588 123.594 75.3322 123.594 76.2833Z" fill="#E64218"/>
<path d="M125.325 100.23C124.369 100.23 123.594 99.4583 123.594 98.5059C123.594 97.5535 124.369 96.7815 125.325 96.7815C126.281 96.7815 127.057 97.5535 127.057 98.5059C127.057 99.4583 126.281 100.23 125.325 100.23Z" fill="#E64218"/>
<path d="M203.801 96.7015C203.801 97.6526 204.577 98.4259 205.532 98.4259C206.487 98.4259 207.264 97.6526 207.264 96.7015C207.264 95.7504 206.487 94.9771 205.532 94.9771C204.577 94.9771 203.801 95.7504 203.801 96.7015Z" fill="#E64218"/>
<path d="M109.253 110.3V111.847H217.01V110.3C217.01 107.083 214.065 104.478 210.432 104.478H115.822C112.207 104.478 109.262 107.083 109.262 110.3H109.253Z" fill="#EDEDED"/>
<path d="M247.247 177.838C247.247 177.838 247.282 177.838 247.309 177.838C247.487 177.802 247.603 177.633 247.568 177.456C247.479 176.967 238.411 128.327 242.267 118.159C246.086 108.105 269.781 107.848 270.022 107.839C270.183 107.839 270.326 107.714 270.344 107.554C270.361 107.394 270.263 107.243 270.103 107.199L264.543 105.759C264.373 105.714 264.194 105.821 264.15 105.99C264.105 106.159 264.212 106.336 264.382 106.39L267.773 107.27C261.624 107.59 244.962 109.252 241.669 117.927C237.742 128.265 246.559 175.571 246.934 177.58C246.961 177.731 247.104 177.847 247.255 177.847L247.247 177.838Z" fill="white"/>
<path d="M284.953 56.7913C284.953 56.7913 303.641 57.2268 314.387 78.3021C325.132 99.3864 313.842 110.195 295.609 107.813C277.376 105.431 268.21 99.7064 268.21 99.7064L270.299 81.831L284.953 56.7913Z" fill="#0017BF"/>
<path d="M296.35 84.6571C296.492 84.6571 296.626 84.5682 296.662 84.426C296.715 84.2571 296.608 84.0705 296.439 84.026C288.96 81.8927 273.547 81.9105 273.395 81.9016C273.217 81.9016 273.074 82.0438 273.074 82.2305C273.074 82.4083 273.217 82.5505 273.395 82.5505C274.056 82.5505 288.987 82.5772 296.26 84.6482C296.287 84.6482 296.323 84.6571 296.35 84.6571Z" fill="#FFB904"/>
<path d="M280.473 59.208C283.445 59.208 286.283 57.3592 286.408 57.2792C286.559 57.1814 286.595 56.977 286.497 56.8347C286.399 56.6836 286.193 56.6481 286.042 56.7458C286.015 56.7636 282.936 58.7547 280.026 58.5503C279.848 58.5236 279.687 58.6747 279.678 58.8525C279.669 59.0303 279.803 59.1903 279.982 59.1992C280.142 59.208 280.303 59.2169 280.464 59.2169L280.473 59.208Z" fill="#FFB904"/>
<path d="M252.485 67.1009C252.681 67.1009 252.869 67.0475 253.038 66.932C254.493 66.0164 254.921 61.1365 254.966 60.5854C254.975 60.4432 254.895 60.3098 254.761 60.2565C254.627 60.2032 254.475 60.2476 254.386 60.3543C254.038 60.7898 251.004 64.6831 251.459 66.3275C251.548 66.6564 251.771 66.8964 252.092 67.0209C252.226 67.0742 252.351 67.092 252.476 67.092L252.485 67.1009ZM254.199 61.6965C253.949 63.5987 253.431 65.9275 252.699 66.3809C252.583 66.4609 252.467 66.4698 252.333 66.4164C252.199 66.3631 252.128 66.2831 252.092 66.1498C251.869 65.332 253.074 63.2609 254.199 61.6876V61.6965Z" fill="#FFB904"/>
<path d="M295.297 83.9636C298.144 83.9636 301.588 83.7414 302.079 82.6836C302.186 82.4525 302.231 82.0703 301.794 81.6081C299.482 79.1192 292.191 83.1014 291.887 83.2703C291.762 83.3414 291.7 83.4836 291.727 83.6258C291.753 83.768 291.878 83.8658 292.03 83.8747C292.726 83.9103 293.949 83.9636 295.297 83.9636ZM299.482 81.4303C300.259 81.4303 300.91 81.6081 301.321 82.0525C301.401 82.1414 301.544 82.3103 301.49 82.4169C301.151 83.128 297.189 83.4036 293.289 83.288C295.011 82.4614 297.608 81.4392 299.482 81.4392V81.4303Z" fill="#FFB904"/>
<path d="M274.77 135.936C274.85 135.936 274.931 135.91 274.993 135.847C275.1 135.75 275.127 135.598 275.064 135.465C274.395 134.132 272.128 129.803 270.754 129.803C270.513 129.803 270.201 129.919 270.004 130.381C269.049 132.674 274.038 135.572 274.609 135.892C274.663 135.918 274.716 135.936 274.77 135.936ZM270.763 130.452C271.334 130.452 272.744 132.505 273.94 134.71C272.351 133.652 270.111 131.83 270.611 130.63C270.638 130.559 270.691 130.452 270.754 130.452H270.763Z" fill="white"/>
<path d="M286.791 104.799C286.943 104.799 287.086 104.693 287.113 104.533C287.148 104.355 287.032 104.186 286.854 104.15C286.765 104.133 277.447 102.364 270.191 98.1327C270.031 98.0438 269.834 98.0972 269.745 98.2483C269.656 98.3994 269.71 98.6038 269.861 98.6927C277.215 102.986 286.64 104.773 286.738 104.79C286.756 104.79 286.782 104.79 286.8 104.79L286.791 104.799Z" fill="#FFB904"/>
<path d="M136.178 69.2966H114.482C112.683 69.2966 111.225 67.8441 111.225 66.0522V44.4436C111.225 42.6517 112.683 41.1992 114.482 41.1992H136.178C137.977 41.1992 139.436 42.6517 139.436 44.4436V66.0522C139.436 67.8441 137.977 69.2966 136.178 69.2966Z" fill="#5EF939"/>
<path d="M135.205 57.857L134.205 60.2392L135.455 61.4214C134.527 62.9325 133.259 64.2214 131.769 65.1814L130.377 63.8659L128.003 64.8703L128.083 66.7547C127.199 66.9592 126.28 67.0747 125.334 67.0747C124.477 67.0747 123.638 66.9858 122.826 66.808V64.7814L120.461 63.7592L119.006 65.2525C117.507 64.3103 116.24 63.0481 115.294 61.5637L116.686 60.2481L115.687 57.8659L113.75 57.8481C113.562 57.0126 113.464 56.1415 113.464 55.2437C113.464 54.3015 113.571 53.386 113.786 52.506L115.687 52.4882L116.686 50.106L115.356 48.8438C116.311 47.3683 117.596 46.1149 119.096 45.1905L120.461 46.5949L122.826 45.5727V43.6883C123.638 43.5105 124.477 43.4216 125.334 43.4216C126.28 43.4216 127.199 43.5283 128.083 43.7416L128.012 45.4838L130.385 46.4883L131.689 45.2527C133.188 46.2038 134.464 47.4749 135.41 48.9771L134.214 50.106L135.214 52.4793L136.892 52.4971C137.097 53.3771 137.213 54.2926 137.213 55.2348C137.213 56.1237 137.115 56.9948 136.927 57.8304L135.223 57.8481L135.205 57.857ZM131.091 55.2437C131.091 52.0704 128.511 49.5016 125.325 49.5016C122.139 49.5016 119.56 52.0704 119.56 55.2437C119.56 58.417 122.139 60.9859 125.325 60.9859C128.511 60.9859 131.091 58.417 131.091 55.2437Z" fill="white"/>
</svg>
