<svg width="643" height="260" viewBox="0 0 643 260" fill="none" xmlns="http://www.w3.org/2000/svg">
<path d="M643 0H0V260H643V0Z" fill="black"/>
<mask id="mask0_1455_34576" style="mask-type:alpha" maskUnits="userSpaceOnUse" x="273" y="0" width="370" height="260">
<path d="M643 0H273V260H643V0Z" fill="black"/>
</mask>
<g mask="url(#mask0_1455_34576)">
<path d="M370.049 152.44C369.975 152.44 369.908 152.41 369.857 152.357C369.805 152.304 369.775 152.236 369.775 152.161V90.5545C369.775 90.4032 369.894 90.2822 370.041 90.2822C370.189 90.2822 370.308 90.4032 370.308 90.5545V151.888L436.183 151.843V102.798C436.183 102.647 436.301 102.526 436.449 102.526C436.597 102.526 436.715 102.647 436.715 102.798V152.115C436.715 152.267 436.597 152.388 436.449 152.395L370.034 152.44H370.049Z" fill="#E64218"/>
<path d="M438.183 115.272C438.183 116.061 437.541 116.702 436.751 116.702C435.962 116.702 435.319 116.061 435.319 115.272C435.319 114.484 435.962 113.843 436.751 113.843C437.541 113.843 438.183 114.484 438.183 115.272Z" fill="#E64218"/>
<path d="M436.751 135.126C437.542 135.126 438.183 134.486 438.183 133.696C438.183 132.906 437.542 132.266 436.751 132.266C435.96 132.266 435.319 132.906 435.319 133.696C435.319 134.486 435.96 135.126 436.751 135.126Z" fill="#E64218"/>
<path d="M371.843 132.2C371.843 132.988 371.2 133.629 370.411 133.629C369.621 133.629 368.979 132.988 368.979 132.2C368.979 131.411 369.621 130.77 370.411 130.77C371.2 130.77 371.843 131.411 371.843 132.2Z" fill="#E64218"/>
<path d="M358.62 151.442V195.892C358.62 198.56 361.056 200.719 364.045 200.719H442.3C445.304 200.719 447.74 198.56 447.74 195.892V151.442C447.74 148.774 445.304 146.615 442.3 146.615H364.045C361.056 146.615 358.62 148.774 358.62 151.442Z" fill="#40398D"/>
<path d="M391.205 159.4H410.021C410.435 159.4 410.771 159.736 410.771 160.15C410.771 160.564 410.435 160.899 410.021 160.899H391.205C390.791 160.899 390.455 160.564 390.455 160.15C390.455 159.736 390.791 159.4 391.205 159.4Z" fill="#5EF939"/>
<path d="M372.223 167.118H405.523C405.937 167.118 406.272 167.453 406.272 167.867C406.272 168.281 405.937 168.617 405.523 168.617H372.223C371.809 168.617 371.474 168.281 371.474 167.867C371.474 167.453 371.809 167.118 372.223 167.118Z" fill="#FFB904"/>
<path d="M409.998 167.118H423.613C424.027 167.118 424.362 167.453 424.362 167.867C424.362 168.281 424.027 168.617 423.613 168.617H409.998C409.584 168.617 409.248 168.281 409.248 167.867C409.248 167.453 409.584 167.118 409.998 167.118Z" fill="#5EF939"/>
<path d="M372.223 188.842H405.523C405.937 188.842 406.272 189.178 406.272 189.592C406.272 190.006 405.937 190.341 405.523 190.341H372.223C371.809 190.341 371.474 190.006 371.474 189.592C371.474 189.178 371.809 188.842 372.223 188.842Z" fill="#FFB904"/>
<path d="M409.998 188.842H435.782C436.196 188.842 436.531 189.178 436.531 189.592C436.531 190.006 436.196 190.341 435.782 190.341H409.998C409.584 190.341 409.248 190.006 409.248 189.592C409.248 189.178 409.584 188.842 409.998 188.842Z" fill="#5EF939"/>
<path d="M372.223 177.798H405.523C405.937 177.798 406.272 178.133 406.272 178.547C406.272 178.961 405.937 179.297 405.523 179.297H372.223C371.809 179.297 371.474 178.961 371.474 178.547C371.474 178.133 371.809 177.798 372.223 177.798Z" fill="#5EF939"/>
<path d="M409.998 177.798H423.613C424.027 177.798 424.362 178.133 424.362 178.547C424.362 178.961 424.027 179.297 423.613 179.297H409.998C409.584 179.297 409.248 178.961 409.248 178.547C409.248 178.133 409.584 177.798 409.998 177.798Z" fill="#5EF939"/>
<path d="M413.08 173.957L390.313 173.957C389.899 173.957 389.563 173.622 389.563 173.208C389.563 172.794 389.899 172.458 390.313 172.458L413.08 172.458C413.494 172.458 413.83 172.794 413.83 173.208C413.83 173.622 413.494 173.957 413.08 173.957Z" fill="#FFB904"/>
<path d="M385.838 173.957L372.223 173.957C371.809 173.957 371.474 173.622 371.474 173.208C371.474 172.794 371.809 172.458 372.223 172.458L385.838 172.458C386.252 172.458 386.588 172.794 386.588 173.208C386.588 173.622 386.252 173.957 385.838 173.957Z" fill="#5EF939"/>
<path d="M413.08 184.637L390.313 184.637C389.899 184.637 389.563 184.302 389.563 183.888C389.563 183.474 389.899 183.138 390.313 183.138L413.08 183.138C413.494 183.138 413.83 183.474 413.83 183.888C413.83 184.302 413.494 184.637 413.08 184.637Z" fill="#FFB904"/>
<path d="M385.838 184.637L372.223 184.637C371.809 184.637 371.474 184.302 371.474 183.888C371.474 183.474 371.809 183.138 372.223 183.138L385.838 183.138C386.252 183.138 386.588 183.474 386.588 183.888C386.588 184.302 386.252 184.637 385.838 184.637Z" fill="#5EF939"/>
<path d="M372.133 149.911V148.958L376.008 147.239V148.341L373.375 149.407V149.454L376.008 150.521V151.622L372.133 149.911ZM381.578 145.771L379.75 152.544H378.758L380.578 145.771H381.578ZM376.008 171.911L372.133 173.622V172.521L374.766 171.454V171.407L372.133 170.341V169.239L376.008 170.958V171.911Z" fill="#3DF130"/>
<path d="M414.495 159.4H435.782C436.196 159.4 436.531 159.736 436.531 160.15C436.531 160.564 436.196 160.899 435.782 160.899H414.495C414.081 160.899 413.746 160.564 413.746 160.15C413.746 159.736 414.081 159.4 414.495 159.4Z" fill="#FFB904"/>
<path d="M358.619 151.442V152.724H447.747V151.442C447.747 148.774 445.311 146.615 442.307 146.615H364.052C361.062 146.615 358.626 148.774 358.626 151.442H358.619Z" fill="#373178"/>
<path d="M383.769 75.938H355.312C354.145 75.938 353.201 76.8812 353.201 78.0455V93.6974C353.201 94.8618 354.145 95.805 355.312 95.805H383.769C384.935 95.805 385.88 94.8618 385.88 93.6974V78.0455C385.88 76.8812 384.935 75.938 383.769 75.938Z" fill="#5EF939"/>
<path d="M372.903 81.3859H379.62V88.0918H372.903V81.3859Z" fill="#DC3C1E"/>
<path d="M363.993 78.9831L361.904 82.6013L359.815 86.2195H363.993H368.179L366.09 82.6013L363.993 78.9831Z" fill="#E64218"/>
<path d="M369.802 92.7475C367.226 92.7475 365.137 90.6624 365.137 88.0903C365.137 85.5182 367.226 83.433 369.802 83.433C372.379 83.433 374.468 85.5182 374.468 88.0903C374.468 90.6624 372.379 92.7475 369.802 92.7475Z" fill="white"/>
<path d="M594.321 233.219L612.91 230.436L609.944 210.094L593.564 211.218L594.321 233.219Z" fill="#FFBB87"/>
<path d="M480.553 106.014C480.553 106.014 465.121 106.281 462.326 106.014C459.534 105.749 462.326 103.754 462.326 103.754C462.326 103.754 457.006 103.221 458.868 101.758C460.731 100.295 478.324 99.9725 482.283 100.532C486.239 101.093 491.992 101.892 491.992 101.892L480.553 106.014Z" fill="#FFBB87"/>
<path d="M540.412 95.5403C540.412 95.5403 531.104 95.9057 528.709 96.7027C526.314 97.5013 509.419 106.602 506.36 106.602C503.3 106.602 490.662 98.565 490.662 98.565L472.039 109.207C472.039 109.207 483.612 132.888 502.102 135.016C520.594 137.145 527.777 129.561 527.777 129.561L540.412 95.5403Z" fill="#3DF130"/>
<path d="M517.849 154.157C517.849 154.157 505.637 185.02 505.886 212.892C506.136 240.763 514.577 270.925 514.577 270.925L551.638 271.625C551.638 271.625 545.414 242.03 544.881 235.218C544.347 228.405 542.96 185.256 542.96 185.256L542.556 155.94L517.849 154.157Z" fill="#0002BB"/>
<path d="M563.241 145.021C563.241 145.021 567.099 167.651 568.643 180.761C569.68 189.584 576.903 198.79 585.2 201.504C593.5 204.22 601.375 205.489 601.375 205.489L602.438 237.695C602.438 237.695 574.413 245.208 554.721 232.884C535.03 220.56 536.308 194.878 536.308 194.878L534.844 153.463L563.241 145.021Z" fill="#0002BB"/>
<path d="M546.357 95.6049C532.544 94.2667 521.068 103.961 519.195 117.711L518.078 125.894C518.078 125.894 514.456 153.065 515.055 154.116C515.657 155.168 528.195 157.87 540.32 157.269C552.443 156.668 562.133 155.522 562.732 155.071C562.908 154.94 568.515 149.815 568.449 142.864C568.288 125.997 559.499 97.6784 559.499 97.3593C559.499 97.1435 553.764 96.3248 546.357 95.6049Z" fill="#3DF130"/>
<path d="M543.895 222.209C543.98 222.209 544.065 222.181 544.136 222.126C544.302 221.995 544.332 221.753 544.199 221.585C526.452 199.112 534.803 166.07 534.891 165.74C534.918 165.631 534.897 165.515 534.834 165.423C534.769 165.329 534.665 165.27 534.554 165.259L523.305 164.172C523.074 164.159 522.904 164.308 522.884 164.521C522.864 164.732 523.018 164.92 523.23 164.94L534.038 165.984C533.104 170.006 526.729 200.705 543.593 222.063C543.67 222.158 543.783 222.209 543.895 222.209Z" fill="#5E1DBB"/>
<path d="M561.285 165.828C561.417 165.828 561.552 165.825 561.687 165.822C561.901 165.816 562.068 165.639 562.063 165.425C562.057 165.213 561.877 165.034 561.667 165.051C561.536 165.055 561.407 165.058 561.282 165.058C554.992 165.058 554.401 160.434 554.378 160.234C554.357 160.021 554.189 159.864 553.954 159.892C553.743 159.915 553.59 160.104 553.612 160.316C553.618 160.373 554.281 165.828 561.285 165.828Z" fill="#5E1DBB"/>
<path d="M573.36 194.379C572.951 196.527 572.06 199.872 570.701 200.85C570.378 201.082 570.053 201.164 569.712 201.096C569.353 201.027 569.302 200.865 569.281 200.797C568.942 199.724 571.337 196.608 573.36 194.379ZM569.945 201.89C570.363 201.89 570.769 201.751 571.151 201.475C573.434 199.834 574.291 193.51 574.328 193.24C574.348 193.077 574.263 192.916 574.112 192.844C573.964 192.773 573.786 192.804 573.668 192.922C572.702 193.92 567.909 199.001 568.545 201.028C568.641 201.332 568.895 201.722 569.564 201.853C569.692 201.878 569.819 201.89 569.945 201.89Z" fill="#5E1DBB"/>
<path d="M544.724 76.0104C544.724 76.0104 536.736 76.3928 536.282 68.7324C535.801 60.5755 543.348 59.7939 546.553 63.0915C549.756 66.389 549.164 69.7436 549.164 69.7436C549.164 69.7436 551.398 67.7287 553.834 70.2015C555.622 72.0176 554.7 74.9837 554.7 74.9837C554.7 74.9837 558.82 74.8249 558.436 78.4231C558.052 82.0213 555.479 83.8481 555.479 83.8481L544.724 76.0104Z" fill="#0017BF"/>
<path d="M552.027 90.1164L551.198 98.6047C551.198 98.6047 549.428 100.896 544.422 100.814C540.693 100.752 539.477 99.7887 539.477 99.7887L540.413 95.5399L541.331 91.3975L550.49 90.303L552.027 90.1164Z" fill="#FFBB87"/>
<path d="M550.49 90.3032C550.446 90.5314 550.331 90.7965 550.163 91.0972C547.849 95.1517 542.568 95.5587 540.412 95.5402L541.331 91.3978L550.49 90.3032Z" fill="black"/>
<path d="M541.331 71.8638C541.331 71.8638 535.835 82.0711 537.013 88.1559C538.191 94.2423 543.687 93.7505 547.023 92.8672C550.359 91.9838 552.028 90.12 552.028 90.12C552.028 90.12 554.971 91.3949 557.23 88.7448C559.487 86.0963 558.505 82.7586 556.837 81.8753C555.169 80.9919 553.01 82.0711 553.01 82.0711L554.874 79.1265C554.874 79.1265 549.378 62.9331 541.331 71.8638Z" fill="#FFBB87"/>
<path d="M552.907 86.7323C552.973 86.7323 553.039 86.7153 553.101 86.6799L557.192 84.3042C557.379 84.1963 557.441 83.9619 557.333 83.7769C557.228 83.5919 556.99 83.5303 556.807 83.6367L552.712 86.0123C552.529 86.1202 552.467 86.3546 552.574 86.5396C552.645 86.6629 552.774 86.7323 552.907 86.7323Z" fill="black"/>
<path d="M556.4 87.0253C556.557 87.0253 556.705 86.9282 556.762 86.7709C556.834 86.572 556.731 86.3516 556.532 86.2776L554.076 85.3834C553.875 85.3094 553.654 85.4143 553.582 85.6147C553.509 85.8136 553.612 86.034 553.811 86.108L556.267 87.0022C556.31 87.0176 556.355 87.0253 556.4 87.0253Z" fill="black"/>
<path d="M548.036 77.0851C548.158 77.0851 548.278 77.0265 548.354 76.9186C548.474 76.7444 548.431 76.5039 548.257 76.3821C546.767 75.3523 545.289 75.2582 545.226 75.2551C545.001 75.2536 544.833 75.4124 544.82 75.6159C544.806 75.8286 544.97 76.0105 545.181 76.0244C545.195 76.0244 546.515 76.1154 547.816 77.0157C547.884 77.0635 547.961 77.0851 548.036 77.0851Z" fill="black"/>
<path d="M539.842 75.8792C539.89 75.8792 539.939 75.8715 539.987 75.8514C540.694 75.5631 541.431 75.8499 541.437 75.853C541.638 75.9316 541.86 75.8344 541.938 75.6387C542.019 75.4413 541.923 75.2178 541.727 75.1376C541.684 75.1207 540.697 74.7306 539.695 75.1376C539.498 75.2178 539.404 75.4429 539.484 75.6402C539.544 75.7897 539.689 75.8792 539.842 75.8792Z" fill="black"/>
<path d="M540.981 85.5442C541.049 85.5442 541.115 85.5273 541.177 85.4903C541.36 85.3823 541.42 85.1465 541.312 84.9615C539.973 82.6983 542.567 79.8802 542.595 79.8525C542.739 79.6967 542.732 79.4532 542.577 79.3067C542.424 79.1633 542.18 79.168 542.031 79.3252C541.908 79.4563 539.014 82.5919 540.65 85.3561C540.72 85.4764 540.85 85.5442 540.981 85.5442Z" fill="black"/>
<path d="M539.481 79.9629C539.637 79.9629 539.782 79.8674 539.842 79.7132L540.562 77.8185C540.639 77.6196 540.539 77.3976 540.34 77.3221C540.141 77.245 539.919 77.3468 539.843 77.5456L539.122 79.4388C539.045 79.6376 539.145 79.8612 539.344 79.9367C539.39 79.9537 539.436 79.9629 539.481 79.9629Z" fill="black"/>
<path d="M544.844 80.5944C544.998 80.5944 545.144 80.4988 545.203 80.3461L545.924 78.4499C546.001 78.251 545.9 78.0275 545.701 77.952C545.504 77.8764 545.282 77.9782 545.204 78.1755L544.483 80.0717C544.406 80.2706 544.508 80.4926 544.707 80.5682C544.751 80.5851 544.797 80.5944 544.844 80.5944Z" fill="black"/>
<path d="M540.203 74.1759C540.203 74.1759 541.291 72.5587 543.409 72.7514C545.529 72.9441 546.621 74.5567 546.621 74.5567C546.621 74.5567 545.341 78.0316 548.036 80.2084C550.731 82.3836 553.011 82.0707 553.011 82.0707L555.17 81.5311L557.002 78.6297L551.597 71.5274L544.18 66.6342L539.842 69.8624L540.203 74.1759Z" fill="#0017BF"/>
<path d="M544.321 100.902C546.72 100.902 549.51 100.293 552.219 98.306C552.388 98.1795 552.427 97.9375 552.3 97.7664C552.174 97.5937 551.932 97.5567 551.761 97.6831C545.216 102.492 538.153 98.7469 538.08 98.7068C537.901 98.6081 537.661 98.6744 537.558 98.861C537.457 99.0475 537.525 99.2818 537.712 99.3836C537.758 99.4082 540.562 100.902 544.321 100.902Z" fill="white"/>
<path d="M628.282 205.814C629.521 206.415 628.96 214.683 629.199 215.381C629.44 216.081 624.799 218.417 625.604 219.712C626.4 221.01 628.751 222.502 629.91 224.409C630.991 226.189 632.842 256.538 632.432 262.464C632.395 262.952 631.936 263.315 631.408 263.261C630.098 263.129 627.543 262.79 624.966 261.968C622.646 261.23 620.29 260.101 618.801 258.379C614.903 253.916 612.831 244.156 610.208 240.736C607.582 237.306 601.554 233.687 602.502 231.473C603.46 229.259 608.202 224.901 607.1 219.127C606.008 213.354 604.399 210.761 605.726 209.097C606.562 208.051 614.845 206.786 621.133 206.143C624.819 205.76 627.822 205.593 628.282 205.814Z" fill="#FFB904"/>
<path d="M609.472 252.019C609.628 252.019 609.811 251.98 610.022 251.878C612.868 250.498 613.917 242.154 614.028 241.207C614.052 240.996 613.901 240.803 613.69 240.778C613.485 240.76 613.286 240.906 613.263 241.118C612.976 243.573 611.775 250.172 609.685 251.183C609.549 251.249 609.45 251.263 609.403 251.221C608.65 250.609 609.429 245.351 610.581 240.831C610.63 240.644 610.531 240.453 610.354 240.381C610.183 240.304 609.973 240.374 609.874 240.541C608.832 242.315 605.697 247.007 603.719 247.406C603.417 247.465 603.178 247.42 602.966 247.259C602.794 247.13 602.707 246.957 602.697 246.714C602.601 244.686 607.346 239.91 609.181 238.241C609.34 238.099 609.35 237.854 609.207 237.697C609.064 237.538 608.82 237.529 608.663 237.67C607.96 238.31 601.796 243.994 601.926 246.751C601.949 247.221 602.149 247.611 602.502 247.876C602.894 248.169 603.361 248.263 603.871 248.16C605.667 247.799 607.93 244.881 609.306 242.861C608.598 246.055 607.762 250.879 608.914 251.82C609.04 251.923 609.224 252.019 609.472 252.019Z" fill="white"/>
<path d="M555.528 129.978C555.528 129.978 554.264 126.368 553.78 125.216C553.296 124.065 553.516 120.161 552.121 119.509C550.726 118.857 550.296 125.125 550.296 125.125C550.296 125.125 542.042 115.794 540.511 116.221C538.978 116.648 542.51 122.955 542.51 122.955C542.51 122.955 536.333 116.264 535.155 117.462C533.979 118.66 539.237 125.316 539.237 125.316C539.237 125.316 534.528 121.276 533.6 122.58C532.669 123.886 540.196 134.178 540.196 134.178C540.196 134.178 544.525 144.932 550.49 143.395C556.455 141.86 555.528 129.978 555.528 129.978Z" fill="#FFBB87"/>
<path d="M543.834 87.1892C543.555 87.6594 543.208 88.0695 542.944 88.0695C542.63 88.0695 542.321 87.8259 542.092 87.5731L543.834 87.1892ZM542.944 88.8403C544.016 88.8403 544.759 87.1291 544.898 86.7838C544.952 86.6512 544.927 86.5001 544.834 86.3906C544.742 86.2827 544.597 86.2319 544.458 86.2643L541.346 86.9487C541.225 86.9749 541.127 87.0566 541.076 87.1692C541.026 87.2802 541.033 87.4097 541.094 87.516C541.173 87.6517 541.887 88.8403 542.944 88.8403Z" fill="black"/>
<path d="M462.327 104.139C462.373 104.139 462.42 104.13 462.464 104.115C462.512 104.094 467.382 102.269 471.267 102.01C471.455 101.996 471.606 101.851 471.626 101.663C471.643 101.477 471.526 101.303 471.344 101.253L468.417 100.444C468.208 100.382 468.002 100.509 467.943 100.714C467.888 100.917 468.008 101.13 468.213 101.187L469.249 101.474C465.787 102.043 462.363 103.328 462.19 103.393C461.991 103.467 461.892 103.691 461.968 103.889C462.025 104.044 462.173 104.139 462.327 104.139Z" fill="black"/>
<path d="M447.959 98.4646H510.75L497.7 93.6717H434.907L447.959 98.4646Z" fill="#EDEDED"/>
<path d="M447.694 101.098H510.75V98.4645H447.694V101.098Z" fill="#40398D"/>
<path d="M434.907 93.6716V96.5853L447.693 101.098V98.4645L434.907 93.6716Z" fill="#40398D"/>
<path d="M497.7 93.6716L485.854 60.6866C485.706 60.275 485.316 60.0006 484.88 60.0006H426.333C425.641 60.0006 425.143 60.6666 425.34 61.331L434.907 93.6716H497.7Z" fill="#40398D"/>
<path d="M478.027 67.9692H455.714C455.054 67.9692 454.519 68.5044 454.519 69.1646C454.519 69.8248 455.054 70.3599 455.714 70.3599H478.027C478.687 70.3599 479.222 69.8248 479.222 69.1646C479.222 68.5044 478.687 67.9692 478.027 67.9692Z" fill="#FFB904"/>
<path d="M483.606 82.3134H473.246C472.586 82.3134 472.051 82.8486 472.051 83.5088C472.051 84.169 472.586 84.7041 473.246 84.7041H483.606C484.266 84.7041 484.801 84.169 484.801 83.5088C484.801 82.8486 484.266 82.3134 483.606 82.3134Z" fill="#5EF939"/>
<path d="M450.933 75.1411H474.84C475.5 75.1411 476.035 75.6763 476.035 76.3365C476.035 76.9966 475.5 77.5318 474.84 77.5318H450.933C450.273 77.5318 449.737 76.9966 449.737 76.3365C449.737 75.6763 450.273 75.1411 450.933 75.1411Z" fill="#E64218"/>
<path d="M450.933 67.9692H442.167C441.507 67.9692 440.972 68.5044 440.972 69.1646C440.972 69.8248 441.507 70.3599 442.167 70.3599H450.933C451.593 70.3599 452.128 69.8248 452.128 69.1646C452.128 68.5044 451.593 67.9692 450.933 67.9692Z" fill="#5EF939"/>
<path d="M468.465 82.3134H447.745C447.085 82.3134 446.55 82.8486 446.55 83.5088C446.55 84.169 447.085 84.7041 447.745 84.7041H468.465C469.125 84.7041 469.66 84.169 469.66 83.5088C469.66 82.8486 469.125 82.3134 468.465 82.3134Z" fill="#5EF939"/>
<path d="M559.5 97.3593C559.5 97.3593 577.932 104.818 589.061 122.821C599.327 139.426 599.526 154.039 582.144 158.296C564.762 162.552 547.361 145.702 547.361 145.702L556.398 127.432L560.504 129.029L559.5 97.3593Z" fill="#3DF130"/>
<path d="M551.059 128.498C551.083 128.498 551.111 128.495 551.137 128.487C551.311 128.444 551.416 128.267 551.373 128.092L550.61 125.048C550.567 124.875 550.385 124.766 550.217 124.81C550.043 124.855 549.936 125.031 549.981 125.205L550.744 128.251C550.78 128.399 550.912 128.498 551.059 128.498Z" fill="black"/>
<path d="M540.412 126.974C540.487 126.974 540.565 126.947 540.626 126.893C540.76 126.774 540.774 126.569 540.655 126.435L539.481 125.101C539.362 124.967 539.157 124.955 539.021 125.074C538.887 125.192 538.875 125.397 538.994 125.533L540.167 126.865C540.232 126.936 540.321 126.974 540.412 126.974Z" fill="black"/>
<path d="M543.742 124.567C543.824 124.567 543.904 124.536 543.966 124.476C544.097 124.351 544.1 124.146 543.976 124.016L542.745 122.732C542.618 122.603 542.413 122.598 542.285 122.721C542.156 122.846 542.153 123.053 542.276 123.182L543.506 124.467C543.571 124.533 543.656 124.567 543.742 124.567Z" fill="black"/>
<path d="M516.963 134.935C517.15 134.935 517.313 134.799 517.344 134.61L518.978 124.301C519.012 124.09 518.869 123.894 518.658 123.86C518.45 123.834 518.251 123.971 518.217 124.181L516.583 134.49C516.549 134.699 516.692 134.897 516.903 134.931C516.922 134.934 516.943 134.935 516.963 134.935Z" fill="white"/>
<path d="M580.718 134.935C580.846 134.935 580.971 134.872 581.044 134.755C581.158 134.576 581.104 134.337 580.925 134.224C572.731 129.052 560.635 127.057 560.515 127.039C560.287 127 560.107 127.148 560.073 127.358C560.039 127.568 560.182 127.765 560.392 127.799C560.512 127.819 572.455 129.789 580.512 134.875C580.577 134.915 580.647 134.935 580.718 134.935Z" fill="white"/>
<path d="M578.056 129.493C579.077 129.493 579.952 129.672 580.45 130.155C580.643 130.34 580.655 130.431 580.655 130.431C580.322 131.02 575.99 130.904 573.14 130.329C574.549 129.924 576.474 129.493 578.056 129.493ZM578.099 131.589C579.669 131.589 580.976 131.382 581.32 130.812C581.446 130.6 581.571 130.164 580.987 129.6C578.782 127.474 571.903 129.904 571.614 130.008C571.458 130.064 571.355 130.212 571.358 130.377C571.361 130.542 571.466 130.687 571.623 130.738C572.818 131.129 575.753 131.589 578.099 131.589Z" fill="white"/>
<path d="M506.069 108.145C506.122 109.878 506.028 112.227 505.331 113.061C505.194 113.225 505.052 113.306 504.885 113.32C504.747 113.326 504.72 113.289 504.706 113.266C504.349 112.742 505.072 110.423 506.069 108.145ZM504.845 114.091C504.879 114.091 504.912 114.091 504.947 114.088C505.323 114.057 505.651 113.878 505.923 113.555C507.239 111.977 506.798 107.114 506.745 106.563C506.726 106.394 506.598 106.253 506.43 106.222C506.254 106.193 506.091 106.278 506.014 106.432C505.531 107.413 503.166 112.375 504.067 113.699C504.241 113.955 504.514 114.091 504.845 114.091Z" fill="white"/>
<path d="M560.454 155.16C560.591 155.16 560.724 155.086 560.793 154.955C560.894 154.769 560.823 154.534 560.635 154.436C560.544 154.386 551.554 149.583 548.733 145.729C548.605 145.556 548.363 145.52 548.194 145.644C548.022 145.77 547.985 146.011 548.11 146.182C551.036 150.181 559.896 154.917 560.272 155.116C560.331 155.146 560.393 155.16 560.454 155.16Z" fill="white"/>
</g>
</svg>
