<svg width="214" height="28" viewBox="0 0 214 28" fill="none" xmlns="http://www.w3.org/2000/svg">
<path d="M11.4603 20.6986L7.66163 15.9226L13.1814 8.98138H10.1662C8.8158 8.98138 7.8894 9.40075 7.06856 10.3854L4.15997 14.038V7.8166V4.00017H1.24086C0.556701 4.00017 0 4.57062 0 5.27209V7.8166V20.6986V23.9995H2.91911C3.60327 23.9995 4.15997 23.4292 4.15997 22.7278V20.6986V17.7456L6.52442 20.7088L8.5345 23.2366C8.94025 23.7559 9.47367 23.9972 10.0221 23.9972H14.0942L11.4603 20.6986Z" fill="white"/>
<path d="M18.9476 23.9993C16.6961 23.9993 15.1445 22.4165 15.1445 20.1196V5.26962C15.1445 4.57012 15.7034 4 16.3905 4H19.3108V19.3221C19.3108 19.9525 19.8111 20.4649 20.4263 20.4649H23.3976V22.7281C23.3976 23.4293 22.8386 24 22.1514 24L18.9476 23.9993Z" fill="white"/>
<mask id="mask0_1265_10719" style="mask-type:luminance" maskUnits="userSpaceOnUse" x="15" y="11" width="5" height="3">
<path d="M15.1289 11.525H19.3252V13.7744H15.1289V11.525Z" fill="white"/>
</mask>
<g mask="url(#mask0_1265_10719)">
<path d="M15.1289 13.7744H19.3252V11.525H15.1289V13.7744Z" fill="url(#paint0_linear_1265_10719)"/>
</g>
<mask id="mask1_1265_10719" style="mask-type:luminance" maskUnits="userSpaceOnUse" x="7" y="9" width="6" height="7">
<path d="M7.10938 9.50657H12.2761V15.9355H7.10938V9.50657Z" fill="white"/>
</mask>
<g mask="url(#mask1_1265_10719)">
<g opacity="0.25">
<path d="M7.15798 15.9355C7.15798 15.9355 11.7652 10.1459 12.2761 9.50657H12.2094C12.0778 9.67178 7.10938 15.9162 7.10938 15.9162L7.15798 15.9355Z" fill="url(#paint1_radial_1265_10719)"/>
</g>
</g>
<mask id="mask2_1265_10719" style="mask-type:luminance" maskUnits="userSpaceOnUse" x="3" y="9" width="10" height="8">
<path d="M3.65527 9.43693H12.7685V16.0234H3.65527V9.43693Z" fill="white"/>
</mask>
<g mask="url(#mask2_1265_10719)">
<path d="M10.3808 9.43693C9.45916 9.43693 8.43384 9.91207 7.11896 10.3368L3.65527 14.6874L7.58147 16.0234C12.3534 10.0255 12.3048 10.0867 12.7685 9.50748C12.1475 9.50748 10.3808 9.43693 10.3808 9.43693Z" fill="url(#paint2_linear_1265_10719)"/>
</g>
<path d="M20.7046 9.47687C18.3494 9.47687 9.80818 9.48256 9.80818 9.48256C8.33055 9.48256 7.35705 10.0162 6.66957 10.871L4.57193 13.5114C5.33548 12.9233 6.38172 12.5735 7.45092 12.5735H20.7046C22.3849 12.5735 23.9999 12.0487 23.9999 10.6969C23.9999 9.34912 23.8482 8.60273 23.8482 8.60273C23.8482 8.60273 23.059 9.47687 20.7046 9.47687ZM4.55713 13.5229C4.5597 13.5207 4.56046 13.5259 4.56046 13.5259L4.57193 13.5114C4.567 13.5153 4.56206 13.5191 4.55713 13.5229Z" fill="url(#paint3_linear_1265_10719)"/>
<path d="M23.7396 8.15144C23.7316 8.15955 22.9496 8.97386 20.7046 8.97386H10.0927C8.41753 8.97386 7.6291 9.67041 7.02669 10.4234L4.58887 13.4902C4.58887 13.4902 5.74046 12.376 7.43266 12.376H20.7046C22.1574 12.376 23.1539 12.085 23.6657 11.5119C24.0312 11.1026 23.9991 10.6998 23.9983 10.6968L23.9972 7.87339L23.7396 8.15144Z" fill="url(#paint4_linear_1265_10719)"/>
<path d="M41.8433 10.9556C41.3528 9.32861 40.0488 8.33569 38.1587 8.32373C35.479 8.33569 33.6606 10.3813 33.6606 14.0181C33.6606 17.6787 35.4192 19.7483 38.1826 19.7603C40.6589 19.7483 42.1304 18.3486 42.1782 16.1714H38.4219V13.4678H45.6475V15.6211C45.6475 20.167 42.5251 22.9424 38.1587 22.9424C33.3018 22.9424 30 19.5449 30 14.0659C30 8.44336 33.5171 5.1416 38.0869 5.1416C41.9988 5.1416 45.0015 7.54614 45.48 10.9556H41.8433Z" fill="white"/>
<path d="M54.0933 22.9663C50.1096 22.9543 47.6692 20.3823 47.6812 16.2671C47.6692 12.2595 50.1455 9.54395 53.9497 9.54395C57.3591 9.54395 60.0508 11.6973 60.0508 16.1235V17.1284H51.1743C51.1743 19.0903 52.3347 20.2986 54.165 20.3105C55.3733 20.2986 56.2346 19.7722 56.5815 18.9946H59.9551C59.4526 21.3992 57.2993 22.9543 54.0933 22.9663ZM51.1743 14.9033H56.7012C56.6892 13.3242 55.6006 12.1877 54.0215 12.1997C52.3945 12.1877 51.2461 13.408 51.1743 14.9033Z" fill="white"/>
<path d="M65.8169 15.1904V22.7031H62.2759V9.71143H65.6494V11.9844H65.793C66.3792 10.489 67.7668 9.54395 69.6929 9.54395C72.4084 9.54395 74.179 11.3982 74.167 14.4248V22.7031H70.6499V15.0469C70.6379 13.4438 69.7766 12.4868 68.3052 12.4868C66.8337 12.4868 65.8169 13.4797 65.8169 15.1904Z" fill="white"/>
<path d="M76.9185 22.7031V9.71143H80.4595V22.7031H76.9185ZM76.751 6.21826C76.751 5.21338 77.6243 4.41187 78.689 4.3999C79.7417 4.41187 80.615 5.21338 80.603 6.21826C80.615 7.19922 79.7417 8.0127 78.689 8.0127C77.6243 8.0127 76.751 7.19922 76.751 6.21826Z" fill="white"/>
<path d="M89.0967 22.9663C85.113 22.9543 82.6726 20.3823 82.6846 16.2671C82.6726 12.2595 85.1489 9.54395 88.9531 9.54395C92.3625 9.54395 95.0542 11.6973 95.0542 16.1235V17.1284H86.1777C86.1777 19.0903 87.3381 20.2986 89.1685 20.3105C90.3767 20.2986 91.238 19.7722 91.585 18.9946H94.9585C94.4561 21.3992 92.3027 22.9543 89.0967 22.9663ZM86.1777 14.9033H91.7046C91.6926 13.3242 90.604 12.1877 89.0249 12.1997C87.3979 12.1877 86.2495 13.408 86.1777 14.9033Z" fill="white"/>
<path d="M103.452 22.7031H97.3511V5.38086H103.524C108.74 5.38086 111.934 8.6228 111.922 14.0181C111.934 19.4373 108.74 22.7031 103.452 22.7031ZM100.94 19.6167H103.309C106.61 19.6167 108.333 17.906 108.333 14.0181C108.333 10.166 106.61 8.46729 103.333 8.46729H100.94V19.6167Z" fill="white"/>
<path d="M120.344 22.9663C116.36 22.9543 113.92 20.3823 113.932 16.2671C113.92 12.2595 116.396 9.54395 120.2 9.54395C123.61 9.54395 126.301 11.6973 126.301 16.1235V17.1284H117.425C117.425 19.0903 118.585 20.2986 120.416 20.3105C121.624 20.2986 122.485 19.7722 122.832 18.9946H126.206C125.703 21.3992 123.55 22.9543 120.344 22.9663ZM117.425 14.9033H122.952C122.94 13.3242 121.851 12.1877 120.272 12.1997C118.645 12.1877 117.497 13.408 117.425 14.9033Z" fill="white"/>
<path d="M140.226 9.71143L135.656 22.7031H131.685L127.139 9.71143H130.871L133.599 19.0425H133.742L136.47 9.71143H140.226Z" fill="white"/>
<path d="M147.404 22.9663C143.42 22.9543 140.98 20.3823 140.992 16.2671C140.98 12.2595 143.456 9.54395 147.26 9.54395C150.67 9.54395 153.361 11.6973 153.361 16.1235V17.1284H144.485C144.485 19.0903 145.645 20.2986 147.476 20.3105C148.684 20.2986 149.545 19.7722 149.892 18.9946H153.266C152.763 21.3992 150.61 22.9543 147.404 22.9663ZM144.485 14.9033H150.012C150 13.3242 148.911 12.1877 147.332 12.1997C145.705 12.1877 144.557 13.408 144.485 14.9033Z" fill="white"/>
<path d="M159.127 5.38086V22.7031H155.586V5.38086H159.127Z" fill="white"/>
<path d="M167.717 22.9663C163.793 22.9543 161.341 20.2627 161.353 16.2432C161.341 12.2356 163.793 9.54395 167.717 9.54395C171.653 9.54395 174.093 12.2356 174.105 16.2432C174.093 20.2627 171.653 22.9543 167.717 22.9663ZM164.941 16.2432C164.941 18.5161 165.886 20.2029 167.741 20.2148C169.547 20.2029 170.504 18.5161 170.492 16.2432C170.504 13.9583 169.547 12.2476 167.741 12.2476C165.886 12.2476 164.941 13.9583 164.941 16.2432Z" fill="white"/>
<path d="M176.33 27.584V9.71143H179.823V11.8887H179.967C180.457 10.8359 181.486 9.54395 183.675 9.54395C186.546 9.54395 188.951 11.769 188.939 16.2192C188.951 20.5618 186.642 22.9185 183.675 22.9185C181.558 22.9185 180.469 21.6982 179.967 20.6216H179.871V27.584H176.33ZM179.799 16.1953C179.787 18.54 180.792 20.0833 182.551 20.0952C184.357 20.0833 185.338 18.4922 185.326 16.1953C185.338 13.9343 184.381 12.3672 182.551 12.3672C180.78 12.3672 179.787 13.8625 179.799 16.1953Z" fill="white"/>
<path d="M197.122 22.9663C193.138 22.9543 190.698 20.3823 190.709 16.2671C190.698 12.2595 193.174 9.54395 196.978 9.54395C200.387 9.54395 203.079 11.6973 203.079 16.1235V17.1284H194.203C194.203 19.0903 195.363 20.2986 197.193 20.3105C198.402 20.2986 199.263 19.7722 199.61 18.9946H202.983C202.481 21.3992 200.328 22.9543 197.122 22.9663ZM194.203 14.9033H199.729C199.718 13.3242 198.629 12.1877 197.05 12.1997C195.423 12.1877 194.274 13.408 194.203 14.9033Z" fill="white"/>
<path d="M205.304 22.7031V9.71143H208.726V11.9604H208.869C209.336 10.3694 210.544 9.52002 212.003 9.52002C212.362 9.52002 212.817 9.56787 213.128 9.63965V12.7979C212.793 12.6902 212.111 12.6064 211.621 12.6064C210.018 12.6064 208.833 13.719 208.845 15.3101V22.7031H205.304Z" fill="white"/>
<defs>
<linearGradient id="paint0_linear_1265_10719" x1="17.2272" y1="13.7666" x2="17.2272" y2="12.939" gradientUnits="userSpaceOnUse">
<stop stop-color="white"/>
<stop offset="1" stop-color="#BEC0C2"/>
</linearGradient>
<radialGradient id="paint1_radial_1265_10719" cx="0" cy="0" r="1" gradientUnits="userSpaceOnUse" gradientTransform="translate(8.36716 14.4184) scale(1.82984 1.86855)">
<stop stop-color="white"/>
<stop offset="1" stop-color="#292929"/>
</radialGradient>
<linearGradient id="paint2_linear_1265_10719" x1="8.21182" y1="13.9894" x2="8.21182" y2="11.9691" gradientUnits="userSpaceOnUse">
<stop stop-color="white"/>
<stop offset="0.533708" stop-color="#BEC0C2"/>
<stop offset="1" stop-color="white"/>
</linearGradient>
<linearGradient id="paint3_linear_1265_10719" x1="23.8863" y1="8.75095" x2="4.47462" y2="13.7267" gradientUnits="userSpaceOnUse">
<stop stop-color="#D0363A"/>
<stop offset="0.477528" stop-color="#A43436"/>
<stop offset="0.674534" stop-color="#A43436"/>
<stop offset="0.825843" stop-color="#D0363A"/>
<stop offset="0.926966" stop-color="#9D3335"/>
<stop offset="0.972356" stop-color="#9D3335"/>
<stop offset="1" stop-color="#422F2F"/>
</linearGradient>
<linearGradient id="paint4_linear_1265_10719" x1="9.87295" y1="6.89442" x2="20.2822" y2="15.4479" gradientUnits="userSpaceOnUse">
<stop stop-color="#BA3538"/>
<stop offset="0.0168539" stop-color="#D83539"/>
<stop offset="0.0847105" stop-color="#F3795E"/>
<stop offset="0.11236" stop-color="#F3795E"/>
<stop offset="0.140094" stop-color="#F3795E"/>
<stop offset="0.477528" stop-color="#EE363A"/>
<stop offset="0.625299" stop-color="#EE363A"/>
<stop offset="0.707865" stop-color="#EE363A"/>
<stop offset="1" stop-color="#D83539"/>
</linearGradient>
</defs>
</svg>
