<svg xmlns="http://www.w3.org/2000/svg" width="26" height="25" fill="none"><path fill="#787878" stroke="#787878" stroke-width=".3" d="M24.956 11.852c-1.287-4.396-7.22-7.349-11.955-7.349-4.736 0-10.67 2.953-11.957 7.349L1 12.003l.044.152C2.33 16.55 8.264 19.503 13 19.503s10.67-2.952 11.956-7.348l.044-.151-.044-.152ZM13 18.325c-4.11 0-9.442-2.588-10.655-6.322C3.558 8.27 8.889 5.682 13 5.682c4.11 0 9.442 2.588 10.655 6.321-1.213 3.733-6.544 6.322-10.655 6.322Zm.065-10.094c-2.361 0-4.282 1.745-4.282 3.89s1.92 3.89 4.282 3.89c2.361 0 4.282-1.745 4.282-3.89s-1.921-3.89-4.282-3.89Z"/></svg>