<svg xmlns="http://www.w3.org/2000/svg" width="18" height="23" fill="none"><path fill="#fff" d="M2.813 0C1.266 0 0 1.294 0 2.875V21.83c0 .917 1.067 1.492 1.808.975l6.737-4.706a.788.788 0 0 1 .91 0l6.737 4.706c.74.517 1.808-.058 1.808-.975V2.875C18 1.294 16.734 0 15.187 0H2.813Zm0 1.15h12.374c.938 0 1.688.765 1.688 1.725V21.83c0 .058-.001.058-.049.024L10.09 17.15a1.9 1.9 0 0 0-2.18 0l-6.737 4.705c-.047.034-.048.034-.048-.024V2.875c0-.96.749-1.725 1.687-1.725Z"/><path fill="#fff" d="M4.25 1.15H1.125v20.7l3.938-2.3 4.187-2.57 7.625 5.445.563-20.7L15.5 1.15H4.25Z"/></svg>