<svg xmlns="http://www.w3.org/2000/svg" width="17" height="16" fill="none"><path fill="#fff" stroke="#fff" stroke-width=".2" d="M4.623 4.911c0 1.474.745 2.767 1.87 3.522-2.48.94-4.253 3.38-4.253 6.234 0 .401.315.727.713.727a.717.717 0 0 0 .712-.727c0-2.867 2.28-5.196 5.075-5.196 2.795 0 5.074 2.33 5.074 5.196 0 .401.315.727.713.727a.717.717 0 0 0 .713-.727c0-2.855-1.774-5.293-4.253-6.234a4.233 4.233 0 0 0 1.87-3.522C12.857 2.594 11.01.7 8.74.7S4.623 2.594 4.623 4.911ZM8.74 2.154c1.481 0 2.691 1.236 2.691 2.757 0 1.522-1.21 2.757-2.691 2.757-1.481 0-2.692-1.235-2.692-2.757 0-1.521 1.21-2.757 2.692-2.757Z"/></svg>