<?xml version="1.0" encoding="utf-8"?>
<!-- Generator: Adobe Illustrator 27.0.0, SVG Export Plug-In . SVG Version: 6.00 Build 0)  -->
<svg version="1.1" id="Layer_1" xmlns="http://www.w3.org/2000/svg" xmlns:xlink="http://www.w3.org/1999/xlink" x="0px" y="0px"
	 viewBox="0 0 532 462" style="enable-background:new 0 0 532 462;" xml:space="preserve">
<style type="text/css">
	.st0{fill:#FFFFFF;}
	.st1{fill:none;stroke:#CCCCCC;stroke-width:2;stroke-miterlimit:10;}
	.st2{fill:none;stroke:#CCCCCC;stroke-width:2;stroke-miterlimit:10;stroke-dasharray:3.7876,3.7876;}
	.st3{fill:#CCCCCC;}
	.st4{fill:none;stroke:#CCCCCC;stroke-width:2;stroke-miterlimit:10;stroke-dasharray:4,4;}
	.st5{fill:none;stroke:#CCCCCC;stroke-width:2;stroke-miterlimit:10;stroke-dasharray:4.1704,4.1704;}
	.st6{fill:#666666;}
	.st7{fill:none;stroke:#5381DE;stroke-miterlimit:10;}
	.st8{fill:#5381DE;}
	.st9{fill:none;stroke:#2CB7B3;stroke-miterlimit:10;}
	.st10{fill:#2CB7B3;}
	.st11{fill:none;stroke:#9B74E3;stroke-miterlimit:10;}
	.st12{fill:#9B74E3;}
</style>
<rect y="0" class="st0" width="532" height="462"/>
<g>
	<g>
		<g>
			<line class="st1" x1="214.1" y1="33" x2="216.1" y2="33"/>
			<line class="st2" x1="219.9" y1="33" x2="278.6" y2="33"/>
			<line class="st1" x1="280.5" y1="33" x2="282.5" y2="33"/>
			<g>
				<polygon class="st3" points="280.7,39 291.1,33.1 280.7,27.1 				"/>
			</g>
		</g>
	</g>
	<g>
		<g>
			<polyline class="st4" points="375.7,146.3 375.7,122.3 129.4,122.3 129.4,137.7 			"/>
			<g>
				<polygon class="st3" points="123.4,135.9 129.4,146.3 135.4,135.9 				"/>
			</g>
		</g>
	</g>
	<g>
		<g>
			<polyline class="st4" points="400.4,53.7 400.4,81.2 106.4,81.2 106.4,137 			"/>
			<g>
				<polygon class="st3" points="100.4,135.3 106.4,145.7 112.4,135.3 				"/>
			</g>
		</g>
	</g>
	<g>
		<g>
			<polyline class="st4" points="400.4,185.7 400.4,247.7 106.4,247.7 106.4,269 			"/>
			<g>
				<polygon class="st3" points="100.4,267.3 106.4,277.7 112.4,267.3 				"/>
			</g>
		</g>
	</g>
	<g>
		<g>
			<polyline class="st4" points="400.4,317.7 400.4,364.7 106.4,364.7 106.4,402 			"/>
			<g>
				<polygon class="st3" points="100.4,400.3 106.4,410.7 112.4,400.3 				"/>
			</g>
		</g>
	</g>
	<g>
		<g>
			<line class="st1" x1="215.2" y1="165.6" x2="217.2" y2="165.6"/>
			<line class="st5" x1="221.4" y1="165.6" x2="277.7" y2="165.6"/>
			<line class="st1" x1="279.8" y1="165.6" x2="281.8" y2="165.6"/>
			<g>
				<polygon class="st3" points="280,171.6 290.4,165.7 280.1,159.7 				"/>
			</g>
		</g>
	</g>
	<g>
		<g>
			<line class="st1" x1="215.2" y1="431.6" x2="217.2" y2="431.6"/>
			<line class="st5" x1="221.4" y1="431.6" x2="277.7" y2="431.6"/>
			<line class="st1" x1="279.8" y1="431.6" x2="281.8" y2="431.6"/>
			<g>
				<polygon class="st3" points="280,437.6 290.4,431.7 280.1,425.7 				"/>
			</g>
		</g>
	</g>
	<g>
		<g>
			<line class="st1" x1="215.2" y1="297.6" x2="217.2" y2="297.6"/>
			<line class="st5" x1="221.4" y1="297.6" x2="277.7" y2="297.6"/>
			<line class="st1" x1="279.8" y1="297.6" x2="281.8" y2="297.6"/>
			<g>
				<polygon class="st3" points="280,303.6 290.4,297.7 280.1,291.7 				"/>
			</g>
		</g>
	</g>
	<g>
		<path class="st6" d="M186.5,113.2h-3.4l-0.7,2.7h-2.1l3.3-10.4h2.4l3.3,10.4h-2.2L186.5,113.2z M186.1,111.6l-0.3-1.1
			c-0.3-1.1-0.6-2.3-0.9-3.4h-0.1c-0.3,1.1-0.6,2.3-0.9,3.4l-0.3,1.1H186.1z"/>
		<path class="st6" d="M190.6,105.5h3.4c2.3,0,4.1,0.8,4.1,3.2c0,2.4-1.8,3.4-4,3.4h-1.4v3.7h-2.1V105.5z M193.9,110.5
			c1.4,0,2.1-0.6,2.1-1.8c0-1.2-0.8-1.6-2.2-1.6h-1.2v3.4H193.9z"/>
		<path class="st6" d="M200,105.5h2.1v10.4H200V105.5z"/>
		<path class="st6" d="M213.7,111h-6.1v-5.9h6.1v0.9h2.3v-1.9h1.8v7.6H216v-1.7h-2.3V111z M217.9,114.5c0,1.6-1.7,2.5-4.4,2.5
			c-2.7,0-4.4-0.9-4.4-2.5s1.7-2.5,4.4-2.5C216.2,112,217.9,113,217.9,114.5z M211.9,106.5h-2.5v3h2.5V106.5z M216.1,114.5
			c0-0.7-0.9-1.1-2.6-1.1c-1.7,0-2.6,0.4-2.6,1.1c0,0.7,0.9,1.1,2.6,1.1C215.2,115.6,216.1,115.3,216.1,114.5z M213.7,107.5v1.1h2.3
			v-1.1H213.7z"/>
		<path class="st6" d="M224.1,107.4c0,2.1,0.6,4.2,2.3,5.4l-1,1.4c-1.1-0.7-1.8-1.8-2.2-3.1c-0.4,1.4-1.2,2.7-2.4,3.4l-1.1-1.4
			c1.9-1.1,2.6-3.5,2.6-5.7v-2.2h1.8V107.4z M226.7,104.4h1.7v12.1h-1.7V110h-1.6v-1.5h1.6V104.4z M231,104.1V117h-1.8v-12.9H231z"
			/>
		<path class="st6" d="M248.4,112.7h-4.9v4.4h-1.8v-4.4h-4.9v-1.5h11.7V112.7z M247.3,110.2c-2.3-0.3-3.9-1.4-4.7-2.8
			c-0.8,1.4-2.5,2.4-4.7,2.8l-0.7-1.5c2.9-0.4,4.4-2.1,4.4-3.6v-0.6h2v0.6c0,1.5,1.5,3.2,4.4,3.6L247.3,110.2z"/>
		<path class="st6" d="M256.5,111.5c-1.4-0.5-2.4-1.4-2.9-2.5c-0.6,1.3-1.6,2.4-3.1,2.9l-0.9-1.5c2-0.7,3-2.4,3-4h-2.5v-1.5h6.9v1.5
			h-2.5c0.1,1.5,1,3,2.9,3.6L256.5,111.5z M260.5,114.6c0,1.6-1.7,2.5-4.4,2.5c-2.7,0-4.4-0.9-4.4-2.5c0-1.6,1.7-2.5,4.4-2.5
			C258.8,112.1,260.5,113,260.5,114.6z M258.6,114.6c0-0.7-0.9-1.1-2.6-1.1c-1.7,0-2.6,0.3-2.6,1.1s0.9,1.1,2.6,1.1
			C257.8,115.7,258.6,115.3,258.6,114.6z M258.6,107.3v-3.1h1.8v7.7h-1.8v-3.1h-1.9v-1.5H258.6z"/>
		<path class="st6" d="M274.5,110c-2.5,0.4-5.4,0.5-7.7,0.5l-0.2-1.5l1.3,0v-2.7h-1v-1.4h6.9v1.4h-1v2.5c0.5,0,1-0.1,1.5-0.1
			L274.5,110z M277.6,115.5v1.4h-9.1v-3.5h6.9v-0.7h-6.9v-1.4h8.7v3.5h-6.9v0.8H277.6z M269.8,109c0.4,0,0.9,0,1.4-0.1v-2.6h-1.4
			V109z M277.2,110.8h-1.8v-6.6h1.8V110.8z"/>
		<path class="st6" d="M291,114v1.5h-11.7V114h2.6v-3.2c-1-0.6-1.6-1.5-1.6-2.6c0-2.1,2-3.5,4.8-3.5c2.8,0,4.8,1.4,4.8,3.5
			c0,1.1-0.6,2-1.6,2.6v3.2H291z M282.2,108.2c0,1.3,1.2,2,3,2s3-0.7,3-2c0-1.3-1.2-2-3-2S282.2,107,282.2,108.2z M283.7,114h2.8
			v-2.5c-0.4,0.1-0.9,0.1-1.4,0.1c-0.5,0-1,0-1.4-0.1V114z"/>
		<path class="st6" d="M301.1,107c0,2.4,1,4.7,3.2,5.7l-1.1,1.5c-1.5-0.7-2.5-1.9-3.1-3.5c-0.6,1.7-1.6,3.1-3.2,3.8L296,113
			c2.3-1,3.3-3.5,3.3-6v-1.9h1.8V107z M306.8,104.1v12.9H305v-12.9H306.8z"/>
	</g>
	<g>
		<g>
			<polyline class="st4" points="493.7,430.3 520.9,430.3 520.9,166 502.4,166 			"/>
			<g>
				<polygon class="st3" points="504.1,160 493.7,166 504.1,171.9 				"/>
			</g>
		</g>
	</g>
	<g>
		<path class="st6" d="M173.6,237.7h-3.4l-0.7,2.7h-2.1l3.3-10.4h2.4l3.3,10.4h-2.2L173.6,237.7z M173.2,236.1l-0.3-1.1
			c-0.3-1.1-0.6-2.3-0.9-3.4h-0.1c-0.3,1.1-0.6,2.3-0.9,3.4l-0.3,1.1H173.2z"/>
		<path class="st6" d="M177.7,230h3.4c2.3,0,4.1,0.8,4.1,3.2c0,2.4-1.8,3.4-4,3.4h-1.4v3.7h-2.1V230z M181.1,235.1
			c1.4,0,2.1-0.6,2.1-1.8c0-1.2-0.8-1.6-2.2-1.6h-1.2v3.4H181.1z"/>
		<path class="st6" d="M187.1,230h2.1v10.4h-2.1V230z"/>
		<path class="st6" d="M200.1,233.7c-0.3,1.5-1.4,2.5-2.9,2.5c-1.7,0-3-1.3-3-3.3c0-1.9,1.2-3.2,3-3.2c1.5,0,2.6,1,2.9,2.5h0.8v-3.3
			h1.7v9h-1.7v-4.2H200.1z M197.2,234.5c0.8,0,1.3-0.6,1.3-1.7c0-1.1-0.5-1.7-1.3-1.7s-1.3,0.6-1.3,1.7
			C195.9,233.9,196.5,234.5,197.2,234.5z M205.5,239.9v1.5h-9v-4.3h1.8v2.8H205.5z M205.2,238.3h-1.8v-9.6h1.8V238.3z"/>
		<path class="st6" d="M214.2,236.4c-1.4-0.4-2.4-1.4-3-2.5c-0.6,1.3-1.6,2.3-3.1,2.7l-0.9-1.4c2.1-0.7,3.1-2.4,3.1-4v-0.2h-2.6
			v-1.5h7v1.5h-2.5v0.2c0,1.5,0.9,3.1,3,3.8L214.2,236.4z M218.1,239.9v1.5h-8.9v-4.2h1.8v2.7H218.1z M217.8,238h-1.9v-9.3h1.9V238z
			"/>
		<path class="st6" d="M234.7,228.7v6.9h-1.8V233h-2c-0.4,1.4-1.7,2.4-3.3,2.4c-1.9,0-3.4-1.3-3.4-3.1s1.5-3.1,3.4-3.1
			c1.6,0,3,0.9,3.3,2.3h2.1v-2.8H234.7z M229.1,232.3c0-1-0.7-1.5-1.6-1.5c-0.9,0-1.6,0.6-1.6,1.5s0.7,1.5,1.6,1.5
			C228.4,233.8,229.1,233.3,229.1,232.3z M232.8,236.2h1.8v5.3h-8.5v-5.3h1.8v1.2h4.9V236.2z M232.8,238.8H228v1.2h4.9V238.8z"/>
		<path class="st6" d="M239,237.2c1.3,0,2.4-0.1,3.5-0.3l0.2,1.5c-1.4,0.3-2.7,0.3-4.6,0.3h-0.9v-8.6h4.9v1.5H239V237.2z
			 M243.4,228.9h1.7V241h-1.7v-6.1h-2.2v-1.5h2.2V228.9z M247.8,228.7v12.9h-1.8v-12.9H247.8z"/>
		<path class="st6" d="M256.8,234.2c0,2.8-1.4,4.6-3.4,4.6c-1.9,0-3.4-1.8-3.4-4.6c0-2.8,1.4-4.6,3.4-4.6
			C255.3,229.6,256.8,231.3,256.8,234.2z M251.8,234.2c0,1.9,0.7,2.9,1.6,2.9s1.6-1,1.6-2.9c0-1.9-0.7-2.9-1.6-2.9
			S251.8,232.3,251.8,234.2z M260.3,228.7v12.9h-1.8v-12.9H260.3z"/>
		<path class="st6" d="M274.2,238.6v1.5h-11.7v-1.5H274.2z M273,236.8h-9.1v-7.2h9v1.5h-7.1v1.4h6.8v1.4h-6.8v1.4h7.2V236.8z"/>
		<path class="st6" d="M287.4,234.6c-2.5,0.4-5.4,0.5-7.7,0.5l-0.2-1.5l1.3,0v-2.7h-1v-1.4h6.9v1.4h-1v2.5c0.5,0,1-0.1,1.5-0.1
			L287.4,234.6z M290.4,240.1v1.4h-9.1V238h6.9v-0.7h-6.9v-1.4h8.7v3.5h-6.9v0.8H290.4z M282.7,233.6c0.4,0,0.9,0,1.4-0.1v-2.6h-1.4
			V233.6z M290.1,235.3h-1.8v-6.6h1.8V235.3z"/>
		<path class="st6" d="M303.9,238.6v1.5h-11.7v-1.5h2.6v-3.2c-1-0.6-1.6-1.5-1.6-2.6c0-2.1,2-3.5,4.8-3.5c2.8,0,4.8,1.4,4.8,3.5
			c0,1.1-0.6,2-1.6,2.6v3.2H303.9z M295.1,232.8c0,1.3,1.2,2,3,2s3-0.7,3-2c0-1.3-1.2-2-3-2S295.1,231.5,295.1,232.8z M296.6,238.6
			h2.8v-2.5c-0.4,0.1-0.9,0.1-1.4,0.1c-0.5,0-1,0-1.4-0.1V238.6z"/>
		<path class="st6" d="M314,231.6c0,2.4,1,4.7,3.2,5.7l-1.1,1.5c-1.5-0.7-2.5-1.9-3.1-3.5c-0.6,1.7-1.6,3.1-3.2,3.8l-1.1-1.5
			c2.3-1,3.3-3.5,3.3-6v-1.9h1.8V231.6z M319.7,228.7v12.9h-1.8v-12.9H319.7z"/>
	</g>
	<g>
		<path class="st7" d="M31.1,318.6c-11,0-20-9-20-20c0-11,9-20,20-20h163c11,0,20,9,20,20c0,11-9,20-20,20H31.1z"/>
		<circle class="st8" cx="32.6" cy="298.6" r="15"/>
		<g>
			<path class="st8" d="M90.8,291.1v7.4h-2v-2.8h-2.2c-0.4,1.5-1.8,2.5-3.6,2.5c-2.1,0-3.6-1.4-3.6-3.3s1.6-3.3,3.6-3.3
				c1.8,0,3.2,1,3.6,2.5h2.2v-3H90.8z M84.8,295c0-1-0.7-1.7-1.8-1.7c-1,0-1.7,0.6-1.7,1.7s0.7,1.6,1.7,1.6
				C84.1,296.6,84.8,296,84.8,295z M88.8,299.1h2v5.6h-9.1v-5.6h2v1.3h5.2V299.1z M88.8,302h-5.2v1.2h5.2V302z"/>
			<path class="st8" d="M95.4,300.2c1.4,0,2.5-0.1,3.8-0.4l0.2,1.6c-1.5,0.3-2.9,0.4-4.9,0.4h-0.9v-9.2h5.3v1.6h-3.3V300.2z
				 M100.2,291.4h1.8v12.9h-1.8v-6.6h-2.4v-1.6h2.4V291.4z M104.9,291.1v13.8H103v-13.8H104.9z"/>
			<path class="st8" d="M114.5,297c0,3-1.5,5-3.6,5c-2.1,0-3.6-1.9-3.6-5c0-3,1.5-4.9,3.6-4.9C112.9,292.1,114.5,294,114.5,297z
				 M109.1,297c0,2.1,0.7,3.2,1.7,3.2c1,0,1.7-1.1,1.7-3.2c0-2-0.7-3.1-1.7-3.1C109.8,293.9,109.1,294.9,109.1,297z M118.3,291.1
				V305h-2v-13.9H118.3z"/>
			<path class="st8" d="M133.1,301.7v1.6h-12.5v-1.6H133.1z M131.8,299.8h-9.7v-7.7h9.6v1.6h-7.6v1.5h7.3v1.5h-7.3v1.5h7.7V299.8z"
				/>
			<path class="st8" d="M146.1,299.1c-1.5-0.5-2.6-1.5-3.2-2.8c-0.6,1.4-1.7,2.5-3.3,3.1l-1-1.6c2.3-0.8,3.3-2.7,3.3-4.5v-1.3h2v1.3
				c0,1.8,1,3.6,3.2,4.3L146.1,299.1z M150.4,303.1v1.6h-9.5v-4.5h2v2.9H150.4z M150.1,301.2h-2v-10.1h2V301.2z"/>
			<path class="st8" d="M159.8,299c-1.5-0.4-2.6-1.3-3.3-2.4c-0.6,1.3-1.7,2.2-3.3,2.7l-0.9-1.5c2.2-0.6,3.1-2.2,3.2-3.7h-2.7v-1.6
				h2.7v-1.5h2v1.5h2.7v1.6h-2.7c0,1.4,1,2.8,3.2,3.4L159.8,299z M164,302.3c0,1.6-1.8,2.6-4.7,2.6c-2.9,0-4.7-1-4.7-2.6
				c0-1.7,1.8-2.6,4.7-2.6C162.2,299.7,164,300.6,164,302.3z M162.1,302.3c0-0.8-0.9-1.1-2.7-1.1c-1.8,0-2.8,0.4-2.8,1.1
				s0.9,1.1,2.8,1.1C161.1,303.4,162.1,303.1,162.1,302.3z M162,294.8v-3.7h2v8.3h-2v-3.1h-2.1v-1.6H162z"/>
		</g>
		<g>
			<path class="st0" d="M28.8,302.4l0.7-0.9c0.6,0.6,1.4,1.2,2.7,1.2c1.3,0,2.3-1,2.3-2.6c0-1.6-0.9-2.5-2.3-2.5
				c-0.7,0-1.2,0.2-1.8,0.6l-0.7-0.5l0.3-5.1h5.4v1.2h-4.2L31,297c0.5-0.3,1-0.4,1.6-0.4c1.8,0,3.3,1.1,3.3,3.5
				c0,2.4-1.7,3.8-3.6,3.8C30.6,303.8,29.6,303.1,28.8,302.4z"/>
		</g>
	</g>
	<g>
		<path class="st9" d="M310.7,318c-11,0-20-9-20-20s9-20,20-20h163c11,0,20,9,20,20s-9,20-20,20H310.7z"/>
		<circle class="st10" cx="312.2" cy="298" r="15"/>
		<g>
			<path class="st10" d="M366.8,300.1h-3.6l-0.8,2.8h-2.2l3.6-11.1h2.6l3.6,11.1h-2.3L366.8,300.1z M366.3,298.4l-0.3-1.2
				c-0.3-1.2-0.6-2.4-1-3.6h-0.1c-0.3,1.2-0.6,2.5-0.9,3.6l-0.3,1.2H366.3z"/>
			<path class="st10" d="M371.2,291.9h3.6c2.5,0,4.3,0.9,4.3,3.5c0,2.5-1.9,3.7-4.3,3.7h-1.5v3.9h-2.2V291.9z M374.7,297.3
				c1.5,0,2.3-0.6,2.3-1.9c0-1.3-0.8-1.7-2.3-1.7h-1.3v3.6H374.7z"/>
			<path class="st10" d="M381.2,291.9h2.2V303h-2.2V291.9z"/>
			<path class="st10" d="M400.4,290.4v7.4h-2v-2.8h-2.2c-0.4,1.5-1.8,2.5-3.6,2.5c-2.1,0-3.6-1.4-3.6-3.3s1.6-3.3,3.6-3.3
				c1.8,0,3.2,1,3.6,2.5h2.2v-3H400.4z M394.4,294.3c0-1-0.7-1.7-1.8-1.7c-1,0-1.7,0.6-1.7,1.7s0.7,1.7,1.7,1.7
				C393.6,296,394.4,295.3,394.4,294.3z M398.4,298.5h2v5.6h-9.1v-5.6h2v1.3h5.2V298.5z M398.4,301.3h-5.2v1.2h5.2V301.3z"/>
			<path class="st10" d="M405,299.6c1.4,0,2.5-0.1,3.8-0.4l0.2,1.6c-1.5,0.3-2.9,0.4-4.9,0.4H403V292h5.3v1.6H405V299.6z
				 M409.7,290.7h1.8v12.9h-1.8v-6.6h-2.4v-1.6h2.4V290.7z M414.5,290.4v13.8h-1.9v-13.8H414.5z"/>
			<path class="st10" d="M424.1,296.3c0,3-1.5,5-3.6,5c-2.1,0-3.6-1.9-3.6-5c0-3,1.5-4.9,3.6-4.9
				C422.5,291.4,424.1,293.3,424.1,296.3z M418.7,296.3c0,2.1,0.7,3.2,1.7,3.2c1,0,1.7-1.1,1.7-3.2c0-2-0.7-3.1-1.7-3.1
				C419.4,293.2,418.7,294.3,418.7,296.3z M427.9,290.4v13.9h-2v-13.9H427.9z"/>
			<path class="st10" d="M442.7,301.1v1.6h-12.5v-1.6H442.7z M441.4,299.1h-9.7v-7.7h9.6v1.6h-7.6v1.5h7.3v1.5h-7.3v1.5h7.7V299.1z"
				/>
		</g>
		<g>
			<path class="st0" d="M314.8,293.7c-0.4-0.5-1.1-0.8-1.8-0.8c-1.5,0-2.8,1.2-2.8,4.6c0.7-0.8,1.6-1.3,2.5-1.3c1.9,0,3,1.2,3,3.4
				c0,2.1-1.4,3.6-3.1,3.6c-2.1,0-3.7-1.8-3.7-5.4c0-4.3,1.9-6,4.1-6c1.1,0,2,0.5,2.6,1.1L314.8,293.7z M314.5,299.6
				c0-1.5-0.6-2.4-2-2.4c-0.7,0-1.5,0.4-2.2,1.4c0.2,2.3,1,3.5,2.4,3.5C313.7,302.1,314.5,301.1,314.5,299.6z"/>
		</g>
	</g>
	<g>
		<path class="st7" d="M31.1,451.3c-11,0-20-9-20-20c0-11,9-20,20-20h163c11,0,20,9,20,20c0,11-9,20-20,20H31.1z"/>
		<circle class="st8" cx="32.6" cy="431.3" r="15"/>
		<g>
			<path class="st8" d="M84.8,433.4h-3.6l-0.8,2.9h-2.2l3.6-11.1h2.6l3.6,11.1h-2.3L84.8,433.4z M84.3,431.7l-0.3-1.2
				c-0.3-1.2-0.6-2.4-1-3.6h-0.1c-0.3,1.2-0.6,2.5-0.9,3.6l-0.3,1.2H84.3z"/>
			<path class="st8" d="M89.2,425.2h3.6c2.5,0,4.3,0.9,4.3,3.5c0,2.5-1.9,3.7-4.3,3.7h-1.5v3.9h-2.2V425.2z M92.7,430.6
				c1.5,0,2.3-0.6,2.3-1.9c0-1.3-0.8-1.7-2.3-1.7h-1.3v3.6H92.7z"/>
			<path class="st8" d="M99.2,425.2h2.2v11.1h-2.2V425.2z"/>
			<path class="st8" d="M113.9,431.1h-6.5v-6.4h6.5v1h2.5v-2h2v8.1h-2v-1.8h-2.5V431.1z M118.4,434.9c0,1.7-1.8,2.7-4.7,2.7
				c-2.9,0-4.7-1-4.7-2.7c0-1.7,1.8-2.7,4.7-2.7C116.6,432.2,118.4,433.2,118.4,434.9z M112,426.3h-2.6v3.2h2.6V426.3z M116.5,434.9
				c0-0.8-0.9-1.2-2.8-1.2c-1.8,0-2.7,0.4-2.7,1.2s0.9,1.2,2.7,1.2C115.5,436.1,116.5,435.7,116.5,434.9z M113.9,427.3v1.2h2.5v-1.2
				H113.9z"/>
			<path class="st8" d="M125,427.2c0,2.2,0.6,4.5,2.5,5.8l-1.1,1.5c-1.2-0.7-1.9-1.9-2.3-3.3c-0.5,1.5-1.3,2.8-2.5,3.6l-1.2-1.5
				c2-1.2,2.8-3.7,2.8-6.1V425h1.9V427.2z M127.8,424h1.8v13h-1.8V430h-1.7v-1.6h1.7V424z M132.5,423.8v13.8h-1.9v-13.8H132.5z"/>
			<path class="st8" d="M151.1,432.9h-5.3v4.7h-2v-4.7h-5.2v-1.6h12.5V432.9z M149.9,430.3c-2.4-0.4-4.1-1.5-5-3
				c-0.9,1.5-2.6,2.6-5,3l-0.8-1.6c3.1-0.4,4.7-2.2,4.7-3.8v-0.7h2.1v0.7c0,1.6,1.6,3.4,4.7,3.8L149.9,430.3z"/>
			<path class="st8" d="M159.8,431.6c-1.5-0.5-2.5-1.5-3.1-2.7c-0.6,1.4-1.7,2.5-3.3,3.1l-1-1.6c2.2-0.8,3.2-2.5,3.3-4.2h-2.7v-1.6
				h7.4v1.6h-2.7c0.1,1.6,1,3.2,3.1,3.9L159.8,431.6z M164,434.9c0,1.7-1.8,2.7-4.7,2.7c-2.9,0-4.7-1-4.7-2.7c0-1.7,1.8-2.7,4.7-2.7
				C162.2,432.3,164,433.3,164,434.9z M162.1,434.9c0-0.8-0.9-1.2-2.7-1.2c-1.8,0-2.8,0.4-2.8,1.2c0,0.8,0.9,1.2,2.8,1.2
				C161.1,436.1,162.1,435.7,162.1,434.9z M162,427.1v-3.3h2v8.2h-2v-3.3h-2.1v-1.6H162z"/>
		</g>
		<g>
			<path class="st0" d="M34.5,426.5h-5.3v-1.2H36v0.8c-2.6,3.3-3.1,5.9-3.2,10.2h-1.4C31.6,432.1,32.3,429.5,34.5,426.5z"/>
		</g>
	</g>
	<g>
		<path class="st9" d="M310.7,450.3c-11,0-20-9-20-20c0-11,9-20,20-20h163c11,0,20,9,20,20c0,11-9,20-20,20H310.7z"/>
		<circle class="st10" cx="312.2" cy="430.3" r="15"/>
		<g>
			<path class="st10" d="M372.9,430.1h-6.5v-6.4h6.5v1h2.5v-2h2v8.1h-2v-1.8h-2.5V430.1z M377.4,433.9c0,1.7-1.8,2.7-4.7,2.7
				c-2.9,0-4.7-1-4.7-2.7c0-1.7,1.8-2.7,4.7-2.7C375.6,431.2,377.4,432.2,377.4,433.9z M370.9,425.3h-2.6v3.2h2.6V425.3z
				 M375.4,433.9c0-0.8-0.9-1.2-2.8-1.2c-1.8,0-2.7,0.4-2.7,1.2s0.9,1.2,2.7,1.2C374.5,435.1,375.4,434.7,375.4,433.9z M372.9,426.3
				v1.2h2.5v-1.2H372.9z"/>
			<path class="st10" d="M384,426.2c0,2.2,0.6,4.5,2.5,5.8l-1.1,1.5c-1.2-0.7-1.9-1.9-2.3-3.3c-0.5,1.5-1.3,2.8-2.5,3.6l-1.2-1.5
				c2-1.2,2.8-3.7,2.8-6.1V424h1.9V426.2z M386.8,423h1.8v13h-1.8V429H385v-1.6h1.7V423z M391.4,422.8v13.8h-1.9v-13.8H391.4z"/>
			<path class="st10" d="M398.6,425.8c0,2.6,1,5.1,3.3,6.2l-1.2,1.6c-1.5-0.7-2.5-2.1-3.1-3.7c-0.6,1.8-1.6,3.2-3.2,4l-1.2-1.6
				c2.3-1.1,3.4-3.8,3.4-6.4v-2h2V425.8z M405,422.8v13.9h-2v-7.9h-2.7v-1.6h2.7v-4.3H405z"/>
			<path class="st10" d="M419.9,431.4c-2.9,0.5-6,0.5-8.5,0.5l-0.2-1.5c1,0,2.1,0,3.3,0v-0.8c-1.5-0.2-2.4-0.9-2.4-2
				c0-1.3,1.3-2,3.4-2s3.4,0.8,3.4,2c0,1-0.9,1.8-2.4,2v0.7c1.1,0,2.2-0.1,3.3-0.3L419.9,431.4z M419.4,425.2h-7.8v-1.4h2.9v-1.1h2
				v1.1h2.9V425.2z M413,432.7h9.4v3.9h-2v-2.3H413V432.7z M415.5,428.4c0.9,0,1.5-0.3,1.5-0.8s-0.6-0.8-1.5-0.8
				c-0.9,0-1.5,0.3-1.5,0.8S414.6,428.4,415.5,428.4z M424.1,428.4h-1.7v3.8h-2v-9.4h2v4h1.7V428.4z"/>
			<path class="st10" d="M429.2,430.7c-2.1,0-3.8-1.5-3.8-3.5c0-2,1.6-3.5,3.8-3.5c2.1,0,3.7,1.5,3.7,3.5
				C432.9,429.2,431.3,430.7,429.2,430.7z M429.2,429c1,0,1.8-0.7,1.8-1.8c0-1.1-0.8-1.8-1.8-1.8c-1,0-1.8,0.7-1.8,1.8
				C427.3,428.3,428.1,429,429.2,429z M437,434.8v1.6h-9.5v-4.6h2v3H437z M436.7,432.7h-2v-9.9h2V432.7z"/>
		</g>
		<g>
			<path class="st0" d="M308.8,432.6c0-1.5,1-2.5,2-3v-0.1c-0.8-0.6-1.5-1.4-1.5-2.5c0-1.7,1.3-2.8,3-2.8c1.9,0,3,1.2,3,2.9
				c0,1.2-0.8,2.1-1.5,2.7v0.1c1,0.6,1.9,1.4,1.9,2.9c0,1.6-1.4,2.8-3.4,2.8C310.2,435.5,308.8,434.3,308.8,432.6z M314.4,432.6
				c0-1.5-1.3-2-2.9-2.7c-0.9,0.6-1.5,1.4-1.5,2.5c0,1.2,1,2,2.3,2C313.6,434.5,314.4,433.7,314.4,432.6z M314.2,427.1
				c0-1.1-0.7-2-1.9-2c-1,0-1.7,0.7-1.7,1.8c0,1.3,1.2,1.9,2.5,2.4C313.8,428.7,314.2,427.9,314.2,427.1z"/>
		</g>
	</g>
	<g>
		<path class="st7" d="M31.1,53.3c-11,0-20-9-20-20s9-20,20-20h163c11,0,20,9,20,20s-9,20-20,20H31.1z"/>
		<circle class="st8" cx="32.6" cy="33.3" r="15"/>
		<g>
			<path class="st8" d="M89.6,32.1v1.6H77.1v-1.6H89.6z M88.1,37.1c0,1.6-1.8,2.5-4.8,2.5s-4.8-0.9-4.8-2.5c0-1.6,1.8-2.5,4.8-2.5
				S88.1,35.4,88.1,37.1z M88.2,31.1h-9.6v-5h9.5v1.6h-7.5v1.8h7.6V31.1z M86.1,37.1c0-0.7-0.9-1-2.8-1c-1.8,0-2.8,0.3-2.8,1
				s0.9,1,2.8,1C85.2,38.1,86.1,37.8,86.1,37.1z"/>
			<path class="st8" d="M103.4,33.2v1.6H90.9v-1.6h5.3v-1h-3.7v-3.8h7.5v-0.8h-7.5V26h9.4v3.7h-7.5v0.9h7.8v1.5h-4v1H103.4z
				 M92.3,35.5h9.7v4h-2v-2.5h-7.7V35.5z"/>
			<path class="st8" d="M116.4,33.8c-1.5-0.5-2.6-1.5-3.2-2.8c-0.6,1.4-1.7,2.5-3.3,3.1l-1-1.6c2.3-0.8,3.3-2.7,3.3-4.5v-1.3h2v1.3
				c0,1.8,1,3.6,3.2,4.3L116.4,33.8z M120.7,37.8v1.6h-9.5v-4.5h2v2.9H120.7z M120.4,35.9h-2V25.8h2V35.9z"/>
			<path class="st8" d="M130.1,33.7c-1.5-0.4-2.6-1.3-3.3-2.4c-0.6,1.3-1.7,2.2-3.3,2.7l-0.9-1.5c2.2-0.6,3.1-2.2,3.2-3.7h-2.7v-1.6
				h2.7v-1.5h2v1.5h2.7v1.6h-2.7c0,1.4,1,2.8,3.2,3.4L130.1,33.7z M134.3,37c0,1.7-1.8,2.6-4.7,2.6c-2.9,0-4.7-1-4.7-2.6
				c0-1.7,1.8-2.6,4.7-2.6C132.5,34.4,134.3,35.3,134.3,37z M132.4,37c0-0.8-0.9-1.1-2.7-1.1c-1.8,0-2.8,0.4-2.8,1.1
				s0.9,1.1,2.8,1.1C131.4,38.1,132.4,37.7,132.4,37z M132.3,29.5v-3.7h2v8.3h-2v-3.1h-2.1v-1.6H132.3z"/>
			<path class="st8" d="M148,33.6c-1.5-0.5-2.5-1.5-3.1-2.7c-0.6,1.3-1.7,2.4-3.3,2.9l-1-1.5c2.2-0.7,3.2-2.5,3.3-4.2H141v-1.6h7.5
				v1.6h-2.7c0,1.6,1,3.2,3.2,3.9L148,33.6z M142.4,34.7h9.2v4.9h-2v-3.3h-7.2V34.7z M153.4,30.7h-1.8v3.4h-2v-8.3h2v3.3h1.8V30.7z"
				/>
			<path class="st8" d="M161.8,33.4c-1.5-0.5-2.4-1.4-3-2.7c-0.6,1.4-1.7,2.5-3.3,3.1l-1-1.6c2.4-0.8,3.3-2.6,3.3-4.5v-1.2h2v1.1
				c0,1.9,0.9,3.5,3.1,4.2L161.8,33.4z M166.1,36.9c0,1.7-1.8,2.7-4.7,2.7c-2.9,0-4.7-1-4.7-2.7c0-1.7,1.8-2.7,4.7-2.7
				C164.3,34.2,166.1,35.2,166.1,36.9z M164.2,36.9c0-0.8-0.9-1.2-2.7-1.2c-1.8,0-2.8,0.4-2.8,1.2c0,0.8,0.9,1.2,2.8,1.2
				C163.2,38.1,164.2,37.7,164.2,36.9z M164.1,29.9h-2.5v-1.6h2.5v-2.5h2v8.1h-2V29.9z"/>
		</g>
		<g>
			<path class="st0" d="M29.7,37.2h2.4V29h-1.9v-0.9c1-0.2,1.7-0.4,2.3-0.8h1.1v9.9h2.2v1.1h-6V37.2z"/>
		</g>
	</g>
	<g>
		<path class="st9" d="M310.7,53.3c-11,0-20-9-20-20s9-20,20-20h163c11,0,20,9,20,20s-9,20-20,20H310.7z"/>
		<circle class="st10" cx="312.2" cy="33.3" r="15"/>
		<g>
			<path class="st10" d="M348.2,35.4h-3.6l-0.8,2.9h-2.2l3.6-11.1h2.6l3.6,11.1H349L348.2,35.4z M347.7,33.7l-0.3-1.2
				c-0.3-1.2-0.6-2.4-1-3.6h-0.1c-0.3,1.2-0.6,2.5-0.9,3.6l-0.3,1.2H347.7z"/>
			<path class="st10" d="M352.6,27.2h3.6c2.5,0,4.3,0.9,4.3,3.5c0,2.5-1.9,3.7-4.3,3.7h-1.5v3.9h-2.2V27.2z M356.2,32.6
				c1.5,0,2.3-0.6,2.3-1.9c0-1.3-0.8-1.7-2.3-1.7h-1.3v3.6H356.2z"/>
			<path class="st10" d="M362.6,27.2h2.2v11.1h-2.2V27.2z"/>
			<path class="st10" d="M382.8,34h-5.3v5.5h-2V34h-5.2v-1.6h8.7c0.3-1.8,0.4-3.1,0.4-4.3h-7.6v-1.6h9.6v1.2c0,1.3,0,2.7-0.3,4.6
				h1.8V34z"/>
			<path class="st10" d="M391.3,34.1v1.2h3.8v4.3h-2v-2.7h-7.6v-1.6h3.9v-1.2h-5.2v-1.6h12.5v1.6H391.3z M384.6,30.6
				c3-0.2,4.4-1.1,4.6-2h-3.9V27h4v-1.2h2V27h4.1v1.5h-3.9c0.2,1,1.6,1.8,4.6,2l-0.6,1.5c-2.5-0.2-4.2-0.9-5.1-2
				c-0.9,1.1-2.6,1.8-5.1,2L384.6,30.6z"/>
			<path class="st10" d="M409.5,32.4h-6.7v-5.9h6.7V32.4z M409.9,35.8c0.2,0.9,1.6,2,4.3,2.2l-0.6,1.5c-2.3-0.2-3.9-1-4.7-2.1
				c-0.8,1.1-2.5,1.9-4.8,2.1l-0.6-1.5c2.8-0.2,4.2-1.3,4.4-2.2H404v-1.5h3.9v-1.1h2v1.1h3.9v1.5H409.9z M407.5,28.2h-2.8v2.7h2.8
				V28.2z M413.5,33.6h-2v-7.8h2V33.6z"/>
			<path class="st10" d="M419.4,32.8c0-3.7,2.4-5.8,5.3-5.8c1.6,0,2.7,0.7,3.4,1.4l-1.2,1.4c-0.5-0.5-1.2-0.9-2.2-0.9
				c-1.8,0-3.1,1.4-3.1,3.8c0,2.4,1.1,3.9,3.3,3.9c0.5,0,1.1-0.2,1.4-0.4V34h-2v-1.8h3.9v5c-0.7,0.7-2.1,1.3-3.6,1.3
				C421.7,38.5,419.4,36.5,419.4,32.8z"/>
			<path class="st10" d="M433.3,26.2h1.5L431.1,41h-1.5L433.3,26.2z"/>
			<path class="st10" d="M435.5,27.2h2.3l0.9,5.4c0.2,1.2,0.3,2.4,0.5,3.5h0.1c0.2-1.2,0.5-2.4,0.7-3.5l1.3-5.4h1.9l1.3,5.4
				c0.2,1.1,0.5,2.3,0.7,3.5h0.1c0.2-1.2,0.3-2.4,0.5-3.5l0.9-5.4h2.1l-2.1,11.1h-2.8l-1.2-5.5c-0.2-0.9-0.3-1.7-0.5-2.6H442
				c-0.1,0.8-0.3,1.7-0.5,2.6l-1.2,5.5h-2.7L435.5,27.2z"/>
			<path class="st10" d="M459.5,32.6c-0.7,0.7-1.6,1.1-2.7,1.1c-2,0-3.6-1.5-3.6-3.6c0-2.1,1.6-3.6,3.6-3.6c1.1,0,2,0.4,2.7,1.1h3.1
				v-1.9h2v10.1h-2v-3.3H459.5z M456.8,32c1,0,1.8-0.7,1.8-1.9c0-1.1-0.8-1.8-1.8-1.8c-1,0-1.8,0.7-1.8,1.8
				C455,31.3,455.8,32,456.8,32z M464.8,37.8v1.6h-9.4v-4.5h2v2.9H464.8z M460.3,29.3c0.1,0.3,0.1,0.6,0.1,0.9c0,0.3,0,0.6-0.1,0.9
				h2.2v-1.8H460.3z"/>
			<path class="st10" d="M479.3,32.3v1.6h-12.5v-1.6h5.2v-1.1h-3.7v-4.8h9.5v1.6h-7.5v1.6h7.6v1.6H474v1.1H479.3z M477.8,37.1
				c0,1.6-1.8,2.5-4.8,2.5s-4.8-0.9-4.8-2.5c0-1.6,1.8-2.5,4.8-2.5S477.8,35.4,477.8,37.1z M475.8,37.1c0-0.7-0.9-1-2.8-1
				c-1.8,0-2.8,0.3-2.8,1c0,0.7,0.9,1,2.8,1C474.8,38.1,475.8,37.8,475.8,37.1z"/>
		</g>
		<g>
			<path class="st0" d="M308.7,37.5c3.4-3,5-5.2,5-7.1c0-1.3-0.7-2.2-2-2.2c-0.9,0-1.7,0.6-2.3,1.3l-0.8-0.8c0.9-1,1.8-1.6,3.2-1.6
				c2,0,3.2,1.3,3.2,3.3c0,2.2-1.7,4.4-4.3,6.9c0.6,0,1.2-0.1,1.8-0.1h3v1.2h-6.9V37.5z"/>
		</g>
	</g>
	<g>
		<path class="st11" d="M310.7,185.6c-11,0-20-9-20-20c0-11,9-20,20-20h163c11,0,20,9,20,20c0,11-9,20-20,20H310.7z"/>
		<circle class="st12" cx="312.2" cy="165.6" r="15"/>
		<g>
			<path class="st12" d="M380.6,167.8H377l-0.8,2.8h-2.2l3.6-11.1h2.6l3.6,11.1h-2.3L380.6,167.8z M380.1,166.1l-0.3-1.2
				c-0.3-1.2-0.6-2.4-1-3.6h-0.1c-0.3,1.2-0.6,2.5-0.9,3.6l-0.3,1.2H380.1z"/>
			<path class="st12" d="M385,159.5h3.6c2.5,0,4.3,0.9,4.3,3.5c0,2.5-1.9,3.7-4.3,3.7h-1.5v3.9H385V159.5z M388.5,164.9
				c1.5,0,2.3-0.6,2.3-1.9c0-1.3-0.8-1.7-2.3-1.7h-1.3v3.6H388.5z"/>
			<path class="st12" d="M395,159.5h2.2v11.1H395V159.5z"/>
			<path class="st12" d="M406.6,159.3h1.8v9.3H403v-9.3h1.9v3.1h1.8V159.3z M406.6,164h-1.8v3.1h1.8V164z M414.5,158.1v13.8h-1.9
				V165h-1.2v6.3h-1.8v-13h1.8v5.1h1.2v-5.3H414.5z"/>
			<path class="st12" d="M428.9,168.8v1.6h-12.5v-1.6h5.2v-2.5h-4.2v-1.6h1.8v-3.9h-1.9v-1.6h10.5v1.6H426v3.9h1.8v1.6h-4.2v2.5
				H428.9z M421.2,164.7h2.8v-3.9h-2.8V164.7z"/>
		</g>
		<g>
			<path class="st0" d="M315.9,167.6h-1.5v3h-1.3v-3h-4.8v-0.9l4.6-7.1h1.5v6.9h1.5V167.6z M313.2,166.5v-3.4c0-0.5,0.1-1.4,0.1-2
				h-0.1c-0.3,0.5-0.6,1.1-0.9,1.6l-2.5,3.7H313.2z"/>
		</g>
	</g>
	<g>
		<circle class="st8" cx="32.6" cy="166" r="15"/>
		<g>
			<path class="st8" d="M85,168.1h-3.6l-0.8,2.8h-2.2l3.6-11.1h2.6l3.6,11.1h-2.3L85,168.1z M84.5,166.4l-0.3-1.2
				c-0.3-1.2-0.6-2.4-1-3.6h-0.1c-0.3,1.2-0.6,2.5-0.9,3.6l-0.3,1.2H84.5z"/>
			<path class="st8" d="M89.4,159.9h3.6c2.5,0,4.3,0.9,4.3,3.5c0,2.5-1.9,3.7-4.3,3.7h-1.5v3.9h-2.2V159.9z M93,165.3
				c1.5,0,2.3-0.6,2.3-1.9c0-1.3-0.8-1.7-2.3-1.7h-1.3v3.6H93z"/>
			<path class="st8" d="M99.4,159.9h2.2V171h-2.2V159.9z"/>
			<path class="st8" d="M114.1,165.8h-6.5v-6.4h6.5v1h2.5v-2h2v8.1h-2v-1.8h-2.5V165.8z M118.7,169.6c0,1.7-1.8,2.7-4.7,2.7
				c-2.9,0-4.7-1-4.7-2.7c0-1.7,1.8-2.7,4.7-2.7C116.9,166.9,118.7,167.9,118.7,169.6z M112.2,161h-2.6v3.2h2.6V161z M116.7,169.6
				c0-0.8-0.9-1.2-2.8-1.2c-1.8,0-2.7,0.4-2.7,1.2s0.9,1.2,2.7,1.2C115.7,170.7,116.7,170.4,116.7,169.6z M114.1,162v1.2h2.5V162
				H114.1z"/>
			<path class="st8" d="M125.3,161.9c0,2.2,0.6,4.5,2.5,5.8l-1.1,1.5c-1.2-0.7-1.9-1.9-2.3-3.3c-0.5,1.5-1.3,2.8-2.5,3.6l-1.2-1.5
				c2-1.2,2.8-3.7,2.8-6.1v-2.3h1.9V161.9z M128,158.7h1.8v13H128v-6.9h-1.7v-1.6h1.7V158.7z M132.7,158.4v13.8h-1.9v-13.8H132.7z"
				/>
			<path class="st8" d="M146.1,166.3c-1.5-0.5-2.5-1.5-3.1-2.7c-0.6,1.3-1.7,2.4-3.3,2.9l-1-1.5c2.2-0.7,3.2-2.5,3.3-4.2h-2.7v-1.6
				h7.5v1.6h-2.7c0,1.6,1,3.2,3.2,3.9L146.1,166.3z M140.5,167.4h9.2v4.9h-2V169h-7.2V167.4z M151.5,163.4h-1.8v3.4h-2v-8.3h2v3.3
				h1.8V163.4z"/>
			<path class="st8" d="M159.9,166.1c-1.5-0.5-2.4-1.4-3-2.7c-0.6,1.4-1.7,2.5-3.3,3.1l-1-1.6c2.4-0.8,3.3-2.6,3.3-4.5v-1.2h2v1.1
				c0,1.9,0.9,3.5,3.1,4.2L159.9,166.1z M164.3,169.6c0,1.7-1.8,2.7-4.7,2.7c-2.9,0-4.7-1-4.7-2.7c0-1.7,1.8-2.7,4.7-2.7
				C162.5,166.9,164.3,167.9,164.3,169.6z M162.3,169.6c0-0.8-0.9-1.2-2.7-1.2c-1.8,0-2.8,0.4-2.8,1.2c0,0.8,0.9,1.2,2.8,1.2
				C161.3,170.7,162.3,170.4,162.3,169.6z M162.2,162.6h-2.5V161h2.5v-2.5h2v8.1h-2V162.6z"/>
		</g>
		<g>
			<path class="st0" d="M28.9,169.7l0.7-0.9c0.6,0.7,1.5,1.3,2.7,1.3c1.3,0,2.2-0.8,2.2-2c0-1.3-0.9-2.2-3.4-2.2v-1
				c2.3,0,3-0.9,3-2.1c0-1.1-0.7-1.7-1.9-1.8c-0.9,0-1.7,0.5-2.3,1.1l-0.7-0.9c0.8-0.8,1.8-1.3,3.1-1.3c1.8,0,3.2,1,3.2,2.8
				c0,1.3-0.8,2.2-2,2.7v0.1c1.3,0.3,2.3,1.3,2.3,2.8c0,2-1.6,3.1-3.5,3.1C30.7,171.2,29.6,170.4,28.9,169.7z"/>
		</g>
		<path class="st7" d="M31.1,186c-11,0-20-9-20-20c0-11,9-20,20-20h163c11,0,20,9,20,20c0,11-9,20-20,20H31.1z"/>
	</g>
</g>
</svg>
