<?xml version="1.0" encoding="utf-8"?>
<!-- Generator: Adobe Illustrator 27.0.0, SVG Export Plug-In . SVG Version: 6.00 Build 0)  -->
<svg version="1.1" id="Layer_1" xmlns="http://www.w3.org/2000/svg" xmlns:xlink="http://www.w3.org/1999/xlink" x="0px" y="0px"
	 viewBox="0 0 1160.5 230" style="enable-background:new 0 0 1160.5 230;" xml:space="preserve">
<style type="text/css">
	.st0{fill:#FFFFFF;}
	.st1{fill:none;stroke:#CCCCCC;stroke-width:2;stroke-miterlimit:10;stroke-dasharray:4,4;}
	.st2{fill:#CCCCCC;}
	.st3{fill:none;stroke:#CCCCCC;stroke-width:2;stroke-miterlimit:10;}
	.st4{fill:none;stroke:#CCCCCC;stroke-width:2;stroke-miterlimit:10;stroke-dasharray:4.1784,4.1784;}
	.st5{fill:none;stroke:#5381DE;stroke-miterlimit:10;}
	.st6{fill:#5381DE;}
	.st7{fill:none;stroke:#2CB7B3;stroke-miterlimit:10;}
	.st8{fill:#2CB7B3;}
	.st9{fill:none;stroke:#9B74E3;stroke-miterlimit:10;}
	.st10{fill:#9B74E3;}
	.st11{fill:#666666;}
</style>
<rect y="0" class="st0" width="1160" height="230"/>
<g>
	<g>
		<g>
			<polyline class="st1" points="1032.8,59.6 1032.8,35.6 731.1,35.6 731.1,51 			"/>
			<g>
				<polygon class="st2" points="725.1,49.2 731.1,59.6 737.1,49.2 				"/>
			</g>
		</g>
	</g>
	<g>
		<g>
			<polyline class="st1" points="1032.8,99.8 1032.8,135.6 127.2,135.6 127.2,151 			"/>
			<g>
				<polygon class="st2" points="121.3,149.2 127.2,159.6 133.2,149.2 				"/>
			</g>
		</g>
	</g>
	<g>
		<g>
			<line class="st3" x1="232.8" y1="79.3" x2="234.8" y2="79.3"/>
			<line class="st4" x1="238.9" y1="79.3" x2="312" y2="79.3"/>
			<line class="st3" x1="314.1" y1="79.3" x2="316.1" y2="79.3"/>
			<g>
				<polygon class="st2" points="314.4,85.3 324.8,79.4 314.4,73.4 				"/>
			</g>
		</g>
	</g>
	<g>
		<g>
			<line class="st3" x1="534.2" y1="79.8" x2="536.2" y2="79.8"/>
			<line class="st4" x1="540.4" y1="79.8" x2="613.5" y2="79.8"/>
			<line class="st3" x1="615.6" y1="79.8" x2="617.6" y2="79.8"/>
			<g>
				<polygon class="st2" points="615.9,85.8 626.2,79.9 615.9,73.9 				"/>
			</g>
		</g>
	</g>
	<g>
		<g>
			<line class="st3" x1="837.2" y1="79.8" x2="839.2" y2="79.8"/>
			<line class="st4" x1="843.4" y1="79.8" x2="916.5" y2="79.8"/>
			<line class="st3" x1="918.6" y1="79.8" x2="920.6" y2="79.8"/>
			<g>
				<polygon class="st2" points="918.9,85.8 929.2,79.9 918.9,73.9 				"/>
			</g>
		</g>
	</g>
	<g>
		<g>
			<line class="st3" x1="232.8" y1="183" x2="234.8" y2="183"/>
			<line class="st4" x1="238.9" y1="183" x2="312" y2="183"/>
			<line class="st3" x1="314.1" y1="183" x2="316.1" y2="183"/>
			<g>
				<polygon class="st2" points="314.4,188.9 324.8,183 314.4,177 				"/>
			</g>
		</g>
	</g>
	<g>
		<g>
			<line class="st3" x1="534.2" y1="183" x2="536.2" y2="183"/>
			<line class="st4" x1="540.4" y1="183" x2="613.5" y2="183"/>
			<line class="st3" x1="615.6" y1="183" x2="617.6" y2="183"/>
			<g>
				<polygon class="st2" points="615.9,188.9 626.2,183 615.9,177 				"/>
			</g>
		</g>
	</g>
	<g>
		<g>
			<line class="st3" x1="837.2" y1="183" x2="839.2" y2="183"/>
			<line class="st4" x1="843.4" y1="183" x2="916.5" y2="183"/>
			<line class="st3" x1="918.6" y1="183" x2="920.6" y2="183"/>
			<g>
				<polygon class="st2" points="918.9,188.9 929.2,183 918.9,177 				"/>
			</g>
		</g>
	</g>
	<g>
		<path class="st5" d="M42.8,99.6c-11,0-20-9-20-20s9-20,20-20h170c11,0,20,9,20,20s-9,20-20,20H42.8z"/>
		<circle class="st6" cx="44.2" cy="79.6" r="15"/>
		<g>
			<path class="st6" d="M108.3,78.4V80H95.8v-1.6H108.3z M106.8,83.4c0,1.6-1.8,2.5-4.8,2.5s-4.8-0.9-4.8-2.5c0-1.6,1.8-2.5,4.8-2.5
				S106.8,81.7,106.8,83.4z M106.9,77.4h-9.6v-5h9.5V74h-7.5v1.8h7.6V77.4z M104.8,83.4c0-0.7-0.9-1-2.8-1c-1.8,0-2.8,0.3-2.8,1
				c0,0.7,0.9,1,2.8,1C103.8,84.4,104.8,84.1,104.8,83.4z"/>
			<path class="st6" d="M122.1,79.5V81h-12.5v-1.6h5.3v-1h-3.7v-3.8h7.5v-0.8h-7.5v-1.5h9.4v3.7h-7.5V77h7.8v1.5h-4v1H122.1z
				 M111,81.8h9.7v4h-2v-2.5H111V81.8z"/>
			<path class="st6" d="M135,80.1c-1.5-0.5-2.6-1.5-3.2-2.8c-0.6,1.4-1.7,2.5-3.3,3.1l-1-1.6c2.3-0.8,3.3-2.7,3.3-4.5v-1.3h2v1.3
				c0,1.8,1,3.6,3.2,4.3L135,80.1z M139.4,84.1v1.6h-9.5v-4.5h2v2.9H139.4z M139.1,82.2h-2V72.1h2V82.2z"/>
			<path class="st6" d="M148.8,80c-1.5-0.4-2.6-1.3-3.3-2.4c-0.6,1.3-1.7,2.2-3.3,2.7l-0.9-1.5c2.2-0.6,3.1-2.2,3.2-3.7h-2.7v-1.6
				h2.7V72h2v1.5h2.7v1.6h-2.7c0,1.4,1,2.8,3.2,3.4L148.8,80z M153,83.3c0,1.6-1.8,2.6-4.7,2.6c-2.9,0-4.7-1-4.7-2.6
				c0-1.7,1.8-2.6,4.7-2.6C151.2,80.7,153,81.6,153,83.3z M151,83.3c0-0.8-0.9-1.1-2.7-1.1c-1.8,0-2.8,0.4-2.8,1.1s0.9,1.1,2.8,1.1
				C150.1,84.4,151,84,151,83.3z M151,75.8v-3.7h2v8.3h-2v-3.1h-2.1v-1.6H151z"/>
			<path class="st6" d="M166.6,79.9c-1.5-0.5-2.5-1.5-3.1-2.7c-0.6,1.3-1.7,2.4-3.3,2.9l-1-1.5c2.2-0.7,3.2-2.5,3.3-4.2h-2.7v-1.6
				h7.5v1.6h-2.7c0,1.6,1,3.2,3.2,3.9L166.6,79.9z M161,81h9.2v4.9h-2v-3.3H161V81z M172.1,77h-1.8v3.4h-2v-8.3h2v3.3h1.8V77z"/>
			<path class="st6" d="M180.5,79.7c-1.5-0.5-2.4-1.4-3-2.7c-0.6,1.4-1.7,2.5-3.3,3.1l-1-1.6c2.4-0.8,3.3-2.6,3.3-4.5v-1.2h2v1.1
				c0,1.9,0.9,3.5,3.1,4.2L180.5,79.7z M184.8,83.2c0,1.7-1.8,2.7-4.7,2.7c-2.9,0-4.7-1-4.7-2.7c0-1.7,1.8-2.7,4.7-2.7
				C183,80.5,184.8,81.5,184.8,83.2z M182.8,83.2c0-0.8-0.9-1.2-2.7-1.2c-1.8,0-2.8,0.4-2.8,1.2c0,0.8,0.9,1.2,2.8,1.2
				C181.9,84.4,182.8,84,182.8,83.2z M182.8,76.2h-2.5v-1.6h2.5v-2.5h2v8.1h-2V76.2z"/>
		</g>
		<g>
			<path class="st0" d="M41.4,83.5h2.4v-8.2h-1.9v-0.9c1-0.2,1.7-0.4,2.3-0.8h1.1v9.9h2.2v1.1h-6V83.5z"/>
		</g>
	</g>
	<g>
		<path class="st7" d="M344.4,99.6c-11,0-20-9-20-20s9-20,20-20h170c11,0,20,9,20,20s-9,20-20,20H344.4z"/>
		<circle class="st8" cx="345.9" cy="79.6" r="15"/>
		<g>
			<path class="st8" d="M379.9,81.7h-3.6l-0.8,2.9h-2.2l3.6-11.1h2.6l3.6,11.1h-2.3L379.9,81.7z M379.4,80l-0.3-1.2
				c-0.3-1.2-0.6-2.4-1-3.6H378c-0.3,1.2-0.6,2.5-0.9,3.6l-0.3,1.2H379.4z"/>
			<path class="st8" d="M384.3,73.5h3.6c2.5,0,4.3,0.9,4.3,3.5c0,2.5-1.9,3.7-4.3,3.7h-1.5v3.9h-2.2V73.5z M387.8,78.9
				c1.5,0,2.3-0.6,2.3-1.9c0-1.3-0.8-1.7-2.3-1.7h-1.3v3.6H387.8z"/>
			<path class="st8" d="M394.3,73.5h2.2v11.1h-2.2V73.5z"/>
			<path class="st8" d="M414.4,80.3h-5.3v5.5h-2v-5.5h-5.2v-1.6h8.7c0.3-1.8,0.4-3.1,0.4-4.3h-7.6v-1.6h9.6v1.2c0,1.3,0,2.7-0.3,4.6
				h1.8V80.3z"/>
			<path class="st8" d="M422.9,80.4v1.2h3.8v4.3h-2v-2.7h-7.6v-1.6h3.9v-1.2h-5.2v-1.6h12.5v1.6H422.9z M416.2,76.9
				c3-0.2,4.4-1.1,4.6-2h-3.9v-1.5h4v-1.2h2v1.2h4.1v1.5h-3.9c0.2,1,1.6,1.8,4.6,2l-0.6,1.5c-2.5-0.2-4.2-0.9-5.1-2
				c-0.9,1.1-2.6,1.8-5.1,2L416.2,76.9z"/>
			<path class="st8" d="M441.1,78.7h-6.7v-5.9h6.7V78.7z M441.6,82.1c0.2,0.9,1.6,2,4.3,2.2l-0.6,1.5c-2.3-0.2-3.9-1-4.7-2.1
				c-0.8,1.1-2.5,1.9-4.8,2.1l-0.6-1.5c2.8-0.2,4.2-1.3,4.4-2.2h-3.8v-1.5h3.9v-1.1h2v1.1h3.9v1.5H441.6z M439.2,74.5h-2.8v2.7h2.8
				V74.5z M445.2,79.9h-2v-7.8h2V79.9z"/>
			<path class="st8" d="M451.1,79.1c0-3.7,2.4-5.8,5.3-5.8c1.6,0,2.7,0.7,3.4,1.4l-1.2,1.4c-0.5-0.5-1.2-0.9-2.2-0.9
				c-1.8,0-3.1,1.4-3.1,3.8c0,2.4,1.1,3.9,3.3,3.9c0.5,0,1.1-0.1,1.4-0.4v-2.2h-2v-1.8h3.9v5c-0.7,0.7-2.1,1.3-3.6,1.3
				C453.4,84.8,451.1,82.8,451.1,79.1z"/>
			<path class="st8" d="M465,72.5h1.5l-3.7,14.8h-1.5L465,72.5z"/>
			<path class="st8" d="M467.1,73.5h2.3l0.9,5.4c0.2,1.2,0.3,2.4,0.5,3.5h0.1c0.2-1.2,0.5-2.4,0.7-3.5l1.3-5.4h1.9l1.3,5.4
				c0.2,1.1,0.5,2.3,0.7,3.5h0.1c0.2-1.2,0.3-2.4,0.5-3.5l0.9-5.4h2.1l-2.1,11.1h-2.8l-1.2-5.5c-0.2-0.9-0.3-1.7-0.5-2.6h-0.1
				c-0.1,0.8-0.3,1.7-0.5,2.6l-1.2,5.5h-2.7L467.1,73.5z"/>
			<path class="st8" d="M491.2,78.9c-0.7,0.7-1.6,1.1-2.7,1.1c-2,0-3.6-1.5-3.6-3.6c0-2.1,1.6-3.6,3.6-3.6c1.1,0,2,0.4,2.7,1.1h3.1
				v-1.9h2v10.1h-2v-3.3H491.2z M488.4,78.3c1,0,1.8-0.7,1.8-1.9c0-1.1-0.8-1.8-1.8-1.8c-1,0-1.8,0.7-1.8,1.8
				C486.7,77.6,487.4,78.3,488.4,78.3z M496.5,84.1v1.6h-9.4v-4.5h2v2.9H496.5z M492,75.6c0.1,0.3,0.1,0.6,0.1,0.9
				c0,0.3,0,0.6-0.1,0.9h2.2v-1.8H492z"/>
			<path class="st8" d="M510.9,78.6v1.6h-12.5v-1.6h5.2v-1.1H500v-4.8h9.5v1.6h-7.5v1.6h7.6v1.6h-3.8v1.1H510.9z M509.4,83.4
				c0,1.6-1.8,2.5-4.8,2.5s-4.8-0.9-4.8-2.5c0-1.6,1.8-2.5,4.8-2.5S509.4,81.7,509.4,83.4z M507.4,83.4c0-0.7-0.9-1-2.8-1
				c-1.8,0-2.8,0.3-2.8,1c0,0.7,0.9,1,2.8,1C506.5,84.4,507.4,84.1,507.4,83.4z"/>
		</g>
		<g>
			<path class="st0" d="M342.4,83.8c3.4-3,5-5.2,5-7.1c0-1.3-0.7-2.2-2-2.2c-0.9,0-1.7,0.6-2.3,1.3l-0.8-0.8c0.9-1,1.8-1.6,3.2-1.6
				c2,0,3.2,1.3,3.2,3.3c0,2.2-1.7,4.4-4.3,6.9c0.6,0,1.2-0.1,1.8-0.1h3v1.2h-6.9V83.8z"/>
		</g>
	</g>
	<g>
		<path class="st9" d="M947.8,99.6c-11,0-20-9-20-20s9-20,20-20h170c11,0,20,9,20,20s-9,20-20,20H947.8z"/>
		<circle class="st10" cx="949.2" cy="79.6" r="15"/>
		<g>
			<path class="st10" d="M1024.6,81.7h-3.6l-0.8,2.9h-2.2l3.6-11.1h2.6l3.6,11.1h-2.3L1024.6,81.7z M1024.1,80l-0.3-1.2
				c-0.3-1.2-0.6-2.4-1-3.6h-0.1c-0.3,1.2-0.6,2.5-0.9,3.6l-0.3,1.2H1024.1z"/>
			<path class="st10" d="M1029,73.5h3.6c2.5,0,4.3,0.9,4.3,3.5c0,2.5-1.9,3.7-4.3,3.7h-1.5v3.9h-2.2V73.5z M1032.5,78.9
				c1.5,0,2.3-0.6,2.3-1.9c0-1.3-0.8-1.7-2.3-1.7h-1.3v3.6H1032.5z"/>
			<path class="st10" d="M1039,73.5h2.2v11.1h-2.2V73.5z"/>
			<path class="st10" d="M1050.6,73.3h1.8v9.3h-5.4v-9.3h1.9v3.1h1.8V73.3z M1050.6,78h-1.8V81h1.8V78z M1058.5,72.1v13.8h-1.9v-6.9
				h-1.2v6.3h-1.8v-13h1.8v5.1h1.2v-5.3H1058.5z"/>
			<path class="st10" d="M1072.9,82.7v1.6h-12.5v-1.6h5.2v-2.5h-4.2v-1.6h1.8v-3.9h-1.9v-1.6h10.5v1.6h-1.9v3.9h1.8v1.6h-4.2v2.5
				H1072.9z M1065.2,78.7h2.8v-3.9h-2.8V78.7z"/>
		</g>
		<g>
			<path class="st0" d="M952.9,81.6h-1.5v3h-1.3v-3h-4.8v-0.9l4.6-7.1h1.5v6.9h1.5V81.6z M950.2,80.5v-3.4c0-0.5,0.1-1.4,0.1-2h-0.1
				c-0.3,0.5-0.6,1.1-0.9,1.6l-2.5,3.7H950.2z"/>
		</g>
	</g>
	<g>
		<path class="st5" d="M42.8,202.6c-11,0-20-9-20-20s9-20,20-20h170c11,0,20,9,20,20s-9,20-20,20H42.8z"/>
		<circle class="st6" cx="44.2" cy="182.6" r="15"/>
		<g>
			<path class="st6" d="M109.4,175.1v7.4h-2v-2.8h-2.2c-0.4,1.5-1.8,2.5-3.6,2.5c-2.1,0-3.6-1.4-3.6-3.3s1.6-3.3,3.6-3.3
				c1.8,0,3.2,1,3.6,2.5h2.2v-3H109.4z M103.5,178.9c0-1-0.7-1.6-1.8-1.6c-1,0-1.7,0.6-1.7,1.6c0,1,0.7,1.6,1.7,1.6
				C102.7,180.6,103.5,180,103.5,178.9z M107.5,183.1h2v5.6h-9.1v-5.6h2v1.3h5.2V183.1z M107.5,185.9h-5.2v1.2h5.2V185.9z"/>
			<path class="st6" d="M114.1,184.2c1.4,0,2.5-0.1,3.8-0.4l0.2,1.6c-1.5,0.3-2.9,0.4-4.9,0.4h-0.9v-9.2h5.3v1.6h-3.3V184.2z
				 M118.8,175.3h1.8v12.9h-1.8v-6.6h-2.4v-1.6h2.4V175.3z M123.6,175.1v13.8h-1.9v-13.8H123.6z"/>
			<path class="st6" d="M133.1,181c0,3-1.5,4.9-3.6,4.9c-2.1,0-3.6-1.9-3.6-4.9c0-3,1.5-4.9,3.6-4.9
				C131.6,176,133.1,177.9,133.1,181z M127.8,181c0,2.1,0.7,3.1,1.7,3.1s1.7-1.1,1.7-3.1c0-2-0.7-3.1-1.7-3.1S127.8,178.9,127.8,181
				z M136.9,175.1v13.9h-2v-13.9H136.9z"/>
			<path class="st6" d="M151.8,185.7v1.6h-12.5v-1.6H151.8z M150.5,183.8h-9.7v-7.7h9.6v1.6h-7.6v1.5h7.3v1.5h-7.3v1.5h7.7V183.8z"
				/>
			<path class="st6" d="M164.7,183.1c-1.5-0.5-2.6-1.5-3.2-2.8c-0.6,1.4-1.7,2.5-3.3,3.1l-1-1.6c2.3-0.8,3.3-2.7,3.3-4.5v-1.3h2v1.3
				c0,1.8,1,3.6,3.2,4.3L164.7,183.1z M169.1,187.1v1.6h-9.5v-4.5h2v2.9H169.1z M168.8,185.2h-2v-10.1h2V185.2z"/>
			<path class="st6" d="M178.5,183c-1.5-0.4-2.6-1.3-3.3-2.4c-0.6,1.3-1.7,2.2-3.3,2.7l-0.9-1.5c2.2-0.6,3.1-2.2,3.2-3.7h-2.7v-1.6
				h2.7V175h2v1.5h2.7v1.6h-2.7c0,1.4,1,2.8,3.2,3.4L178.5,183z M182.7,186.3c0,1.6-1.8,2.6-4.7,2.6c-2.9,0-4.7-1-4.7-2.6
				c0-1.7,1.8-2.6,4.7-2.6C180.9,183.7,182.7,184.6,182.7,186.3z M180.7,186.3c0-0.8-0.9-1.1-2.7-1.1c-1.8,0-2.8,0.4-2.8,1.1
				s0.9,1.1,2.8,1.1C179.8,187.4,180.7,187,180.7,186.3z M180.7,178.8v-3.7h2v8.3h-2v-3.1h-2.1v-1.6H180.7z"/>
		</g>
		<g>
			<path class="st0" d="M40.5,186.3l0.7-0.9c0.6,0.6,1.4,1.2,2.7,1.2c1.3,0,2.3-1,2.3-2.6c0-1.6-0.9-2.5-2.3-2.5
				c-0.7,0-1.2,0.2-1.8,0.6l-0.7-0.4l0.3-5.1h5.4v1.2h-4.2l-0.3,3.2c0.5-0.3,1-0.4,1.6-0.4c1.8,0,3.3,1.1,3.3,3.5
				c0,2.4-1.7,3.8-3.6,3.8C42.3,187.8,41.2,187.1,40.5,186.3z"/>
		</g>
	</g>
	<g>
		<path class="st7" d="M344.4,202.6c-11,0-20-9-20-20s9-20,20-20h170c11,0,20,9,20,20s-9,20-20,20H344.4z"/>
		<circle class="st8" cx="345.9" cy="182.6" r="15"/>
		<g>
			<path class="st8" d="M407.4,184.7h-3.6l-0.8,2.9h-2.2l3.6-11.1h2.6l3.6,11.1h-2.3L407.4,184.7z M406.9,183l-0.3-1.2
				c-0.3-1.2-0.6-2.4-1-3.6h-0.1c-0.3,1.2-0.6,2.5-0.9,3.6l-0.3,1.2H406.9z"/>
			<path class="st8" d="M411.8,176.5h3.6c2.5,0,4.3,0.9,4.3,3.5c0,2.5-1.9,3.7-4.3,3.7h-1.5v3.9h-2.2V176.5z M415.4,181.9
				c1.5,0,2.3-0.6,2.3-1.9c0-1.3-0.8-1.7-2.3-1.7h-1.3v3.6H415.4z"/>
			<path class="st8" d="M421.8,176.5h2.2v11.1h-2.2V176.5z"/>
			<path class="st8" d="M441,175.1v7.4h-2v-2.8h-2.2c-0.4,1.5-1.8,2.5-3.6,2.5c-2.1,0-3.6-1.4-3.6-3.3s1.6-3.3,3.6-3.3
				c1.8,0,3.2,1,3.6,2.5h2.2v-3H441z M435,178.9c0-1-0.7-1.6-1.8-1.6c-1,0-1.7,0.6-1.7,1.6c0,1,0.7,1.6,1.7,1.6
				C434.3,180.6,435,180,435,178.9z M439.1,183.1h2v5.6h-9.1v-5.6h2v1.3h5.2V183.1z M439.1,185.9h-5.2v1.2h5.2V185.9z"/>
			<path class="st8" d="M445.6,184.2c1.4,0,2.5-0.1,3.8-0.4l0.2,1.6c-1.5,0.3-2.9,0.4-4.9,0.4h-0.9v-9.2h5.3v1.6h-3.3V184.2z
				 M450.4,175.3h1.8v12.9h-1.8v-6.6H448v-1.6h2.4V175.3z M455.1,175.1v13.8h-1.9v-13.8H455.1z"/>
			<path class="st8" d="M464.7,181c0,3-1.5,4.9-3.6,4.9c-2.1,0-3.6-1.9-3.6-4.9c0-3,1.5-4.9,3.6-4.9
				C463.2,176,464.7,177.9,464.7,181z M459.4,181c0,2.1,0.7,3.1,1.7,3.1c1,0,1.7-1.1,1.7-3.1c0-2-0.7-3.1-1.7-3.1
				C460.1,177.8,459.4,178.9,459.4,181z M468.5,175.1v13.9h-2v-13.9H468.5z"/>
			<path class="st8" d="M483.4,185.7v1.6h-12.5v-1.6H483.4z M482.1,183.8h-9.7v-7.7h9.6v1.6h-7.6v1.5h7.3v1.5h-7.3v1.5h7.7V183.8z"
				/>
		</g>
		<g>
			<path class="st0" d="M348.5,178.4c-0.4-0.5-1.1-0.8-1.8-0.8c-1.5,0-2.8,1.2-2.8,4.6c0.7-0.8,1.6-1.3,2.5-1.3c1.9,0,3,1.2,3,3.4
				c0,2.1-1.4,3.6-3.1,3.6c-2.1,0-3.7-1.8-3.7-5.4c0-4.3,1.9-6,4.1-6c1.1,0,2,0.5,2.6,1.1L348.5,178.4z M348.1,184.2
				c0-1.5-0.6-2.4-2-2.4c-0.7,0-1.5,0.4-2.2,1.4c0.2,2.3,1,3.5,2.4,3.5C347.3,186.7,348.1,185.7,348.1,184.2z"/>
		</g>
	</g>
	<g>
		<circle class="st6" cx="647.6" cy="79.6" r="15"/>
		<g>
			<path class="st6" d="M707,81.7h-3.6l-0.8,2.9h-2.2l3.6-11.1h2.6l3.6,11.1h-2.3L707,81.7z M706.5,80l-0.3-1.2
				c-0.3-1.2-0.6-2.4-1-3.6h-0.1c-0.3,1.2-0.6,2.5-0.9,3.6l-0.3,1.2H706.5z"/>
			<path class="st6" d="M711.4,73.5h3.6c2.5,0,4.3,0.9,4.3,3.5c0,2.5-1.9,3.7-4.3,3.7h-1.5v3.9h-2.2V73.5z M715,78.9
				c1.5,0,2.3-0.6,2.3-1.9c0-1.3-0.8-1.7-2.3-1.7h-1.3v3.6H715z"/>
			<path class="st6" d="M721.4,73.5h2.2v11.1h-2.2V73.5z"/>
			<path class="st6" d="M736.1,79.4h-6.5v-6.4h6.5v1h2.5v-2h2v8.1h-2v-1.8h-2.5V79.4z M740.7,83.2c0,1.7-1.8,2.7-4.7,2.7
				c-2.9,0-4.7-1-4.7-2.7s1.8-2.7,4.7-2.7C738.9,80.5,740.7,81.5,740.7,83.2z M734.2,74.6h-2.6v3.2h2.6V74.6z M738.7,83.2
				c0-0.8-0.9-1.2-2.8-1.2c-1.8,0-2.7,0.4-2.7,1.2s0.9,1.2,2.7,1.2C737.7,84.4,738.7,84,738.7,83.2z M736.1,75.6v1.2h2.5v-1.2H736.1
				z"/>
			<path class="st6" d="M747.3,75.5c0,2.2,0.6,4.5,2.5,5.8l-1.1,1.5c-1.2-0.7-1.9-1.9-2.3-3.3c-0.5,1.5-1.3,2.8-2.5,3.6l-1.2-1.5
				c2-1.2,2.8-3.7,2.8-6.1v-2.3h1.9V75.5z M750,72.3h1.8v13H750v-6.9h-1.7v-1.6h1.7V72.3z M754.7,72.1v13.8h-1.9V72.1H754.7z"/>
			<path class="st6" d="M768.1,79.9c-1.5-0.5-2.5-1.5-3.1-2.7c-0.6,1.3-1.7,2.4-3.3,2.9l-1-1.5c2.2-0.7,3.2-2.5,3.3-4.2h-2.7v-1.6
				h7.5v1.6h-2.7c0,1.6,1,3.2,3.2,3.9L768.1,79.9z M762.5,81h9.2v4.9h-2v-3.3h-7.2V81z M773.6,77h-1.8v3.4h-2v-8.3h2v3.3h1.8V77z"/>
			<path class="st6" d="M781.9,79.7c-1.5-0.5-2.4-1.4-3-2.7c-0.6,1.4-1.7,2.5-3.3,3.1l-1-1.6c2.4-0.8,3.3-2.6,3.3-4.5v-1.2h2v1.1
				c0,1.9,0.9,3.5,3.1,4.2L781.9,79.7z M786.3,83.2c0,1.7-1.8,2.7-4.7,2.7c-2.9,0-4.7-1-4.7-2.7c0-1.7,1.8-2.7,4.7-2.7
				C784.5,80.5,786.3,81.5,786.3,83.2z M784.3,83.2c0-0.8-0.9-1.2-2.7-1.2c-1.8,0-2.8,0.4-2.8,1.2c0,0.8,0.9,1.2,2.8,1.2
				C783.3,84.4,784.3,84,784.3,83.2z M784.2,76.2h-2.5v-1.6h2.5v-2.5h2v8.1h-2V76.2z"/>
		</g>
		<g>
			<path class="st0" d="M643.9,83.3l0.7-0.9c0.6,0.7,1.5,1.3,2.7,1.3c1.3,0,2.2-0.8,2.2-2c0-1.3-0.9-2.2-3.4-2.2v-1
				c2.3,0,3-0.9,3-2.1c0-1.1-0.7-1.7-1.9-1.8c-0.9,0-1.7,0.5-2.3,1.1l-0.7-0.9c0.8-0.8,1.8-1.3,3.1-1.3c1.8,0,3.2,1,3.2,2.8
				c0,1.3-0.8,2.2-2,2.7v0.1c1.3,0.3,2.3,1.3,2.3,2.8c0,2-1.6,3.1-3.5,3.1C645.7,84.8,644.6,84.1,643.9,83.3z"/>
		</g>
		<path class="st5" d="M646.1,99.6c-11,0-20-9-20-20s9-20,20-20h170c11,0,20,9,20,20s-9,20-20,20H646.1z"/>
	</g>
	<g>
		<path class="st5" d="M646.1,202.6c-11,0-20-9-20-20s9-20,20-20h170c11,0,20,9,20,20s-9,20-20,20H646.1z"/>
		<circle class="st6" cx="647.6" cy="182.6" r="15"/>
		<g>
			<path class="st6" d="M707,184.7h-3.6l-0.8,2.9h-2.2l3.6-11.1h2.6l3.6,11.1h-2.3L707,184.7z M706.5,183l-0.3-1.2
				c-0.3-1.2-0.6-2.4-1-3.6h-0.1c-0.3,1.2-0.6,2.5-0.9,3.6l-0.3,1.2H706.5z"/>
			<path class="st6" d="M711.4,176.5h3.6c2.5,0,4.3,0.9,4.3,3.5c0,2.5-1.9,3.7-4.3,3.7h-1.5v3.9h-2.2V176.5z M715,181.9
				c1.5,0,2.3-0.6,2.3-1.9c0-1.3-0.8-1.7-2.3-1.7h-1.3v3.6H715z"/>
			<path class="st6" d="M721.4,176.5h2.2v11.1h-2.2V176.5z"/>
			<path class="st6" d="M736.1,182.4h-6.5v-6.4h6.5v1h2.5v-2h2v8.1h-2v-1.8h-2.5V182.4z M740.7,186.2c0,1.7-1.8,2.7-4.7,2.7
				c-2.9,0-4.7-1-4.7-2.7s1.8-2.7,4.7-2.7C738.9,183.5,740.7,184.5,740.7,186.2z M734.2,177.6h-2.6v3.2h2.6V177.6z M738.7,186.2
				c0-0.8-0.9-1.2-2.8-1.2c-1.8,0-2.7,0.4-2.7,1.2s0.9,1.2,2.7,1.2C737.7,187.4,738.7,187,738.7,186.2z M736.1,178.6v1.2h2.5v-1.2
				H736.1z"/>
			<path class="st6" d="M747.3,178.5c0,2.2,0.6,4.5,2.5,5.8l-1.1,1.5c-1.2-0.7-1.9-1.9-2.3-3.3c-0.5,1.5-1.3,2.8-2.5,3.6l-1.2-1.5
				c2-1.2,2.8-3.7,2.8-6.1v-2.3h1.9V178.5z M750,175.3h1.8v13H750v-6.9h-1.7v-1.6h1.7V175.3z M754.7,175.1v13.8h-1.9v-13.8H754.7z"
				/>
			<path class="st6" d="M773.3,184.2H768v4.7h-2v-4.7h-5.2v-1.6h12.5V184.2z M772.1,181.6c-2.4-0.4-4.1-1.5-5-3
				c-0.9,1.5-2.6,2.6-5,3l-0.8-1.6c3.1-0.4,4.7-2.2,4.7-3.8v-0.7h2.1v0.7c0,1.6,1.6,3.4,4.7,3.8L772.1,181.6z"/>
			<path class="st6" d="M782,182.9c-1.5-0.5-2.5-1.5-3.1-2.7c-0.6,1.4-1.7,2.5-3.3,3.1l-1-1.6c2.2-0.8,3.2-2.5,3.3-4.2h-2.7v-1.6
				h7.4v1.6h-2.7c0.1,1.6,1,3.2,3.1,3.9L782,182.9z M786.3,186.2c0,1.7-1.8,2.7-4.7,2.7c-2.9,0-4.7-1-4.7-2.7c0-1.7,1.8-2.7,4.7-2.7
				C784.5,183.6,786.3,184.6,786.3,186.2z M784.3,186.2c0-0.8-0.9-1.2-2.7-1.2c-1.8,0-2.8,0.4-2.8,1.2c0,0.8,0.9,1.2,2.8,1.2
				C783.3,187.4,784.3,187,784.3,186.2z M784.2,178.4v-3.3h2v8.2h-2V180h-2.1v-1.6H784.2z"/>
		</g>
		<g>
			<path class="st0" d="M649.5,177.8h-5.3v-1.2h6.9v0.8c-2.6,3.3-3.1,5.9-3.2,10.2h-1.4C646.6,183.4,647.3,180.8,649.5,177.8z"/>
		</g>
	</g>
	<g>
		<path class="st7" d="M947.8,202.6c-11,0-20-9-20-20s9-20,20-20h170c11,0,20,9,20,20s-9,20-20,20H947.8z"/>
		<circle class="st8" cx="949.2" cy="182.6" r="15"/>
		<g>
			<path class="st8" d="M1016.9,182.4h-6.5v-6.4h6.5v1h2.5v-2h2v8.1h-2v-1.8h-2.5V182.4z M1021.4,186.2c0,1.7-1.8,2.7-4.7,2.7
				c-2.9,0-4.7-1-4.7-2.7s1.8-2.7,4.7-2.7C1019.6,183.5,1021.4,184.5,1021.4,186.2z M1014.9,177.6h-2.6v3.2h2.6V177.6z
				 M1019.4,186.2c0-0.8-0.9-1.2-2.8-1.2c-1.8,0-2.7,0.4-2.7,1.2s0.9,1.2,2.7,1.2C1018.5,187.4,1019.4,187,1019.4,186.2z
				 M1016.9,178.6v1.2h2.5v-1.2H1016.9z"/>
			<path class="st8" d="M1028,178.5c0,2.2,0.6,4.5,2.5,5.8l-1.1,1.5c-1.2-0.7-1.9-1.9-2.3-3.3c-0.5,1.5-1.3,2.8-2.5,3.6l-1.2-1.5
				c2-1.2,2.8-3.7,2.8-6.1v-2.3h1.9V178.5z M1030.8,175.3h1.8v13h-1.8v-6.9h-1.7v-1.6h1.7V175.3z M1035.4,175.1v13.8h-1.9v-13.8
				H1035.4z"/>
			<path class="st8" d="M1042.6,178.1c0,2.6,1,5.1,3.3,6.2l-1.2,1.6c-1.5-0.7-2.5-2.1-3.1-3.7c-0.6,1.8-1.6,3.2-3.2,4l-1.2-1.6
				c2.3-1.1,3.4-3.8,3.4-6.4v-2h2V178.1z M1049,175.1v13.9h-2V181h-2.7v-1.6h2.7v-4.3H1049z"/>
			<path class="st8" d="M1063.9,183.7c-2.9,0.5-6,0.5-8.5,0.5l-0.2-1.5c1,0,2.1,0,3.3,0v-0.8c-1.5-0.2-2.4-0.9-2.4-2
				c0-1.3,1.3-2,3.4-2s3.4,0.8,3.4,2c0,1-0.9,1.8-2.4,2v0.7c1.1,0,2.2-0.1,3.3-0.3L1063.9,183.7z M1063.4,177.5h-7.8v-1.4h2.9V175h2
				v1.1h2.9V177.5z M1057,185h9.4v3.9h-2v-2.3h-7.4V185z M1059.5,180.7c0.9,0,1.5-0.3,1.5-0.8c0-0.5-0.6-0.8-1.5-0.8
				c-0.9,0-1.5,0.3-1.5,0.8C1058,180.4,1058.6,180.7,1059.5,180.7z M1068.1,180.7h-1.7v3.8h-2v-9.4h2v4h1.7V180.7z"/>
			<path class="st8" d="M1073.2,183c-2.1,0-3.8-1.5-3.8-3.5c0-2,1.6-3.5,3.8-3.5s3.8,1.5,3.8,3.5
				C1076.9,181.5,1075.3,183,1073.2,183z M1073.2,181.3c1,0,1.8-0.7,1.8-1.8c0-1.1-0.8-1.8-1.8-1.8c-1,0-1.8,0.7-1.8,1.8
				C1071.3,180.6,1072.1,181.3,1073.2,181.3z M1081,187.1v1.6h-9.5V184h2v3H1081z M1080.7,185h-2v-9.9h2V185z"/>
		</g>
		<g>
			<path class="st0" d="M945.8,184.9c0-1.5,1-2.5,2-3v-0.1c-0.8-0.6-1.5-1.4-1.5-2.5c0-1.7,1.3-2.8,3-2.8c1.9,0,3,1.2,3,2.9
				c0,1.2-0.8,2.1-1.5,2.7v0.1c1,0.6,1.9,1.4,1.9,2.9c0,1.6-1.4,2.8-3.5,2.8C947.2,187.8,945.8,186.6,945.8,184.9z M951.4,184.9
				c0-1.5-1.3-2-2.9-2.7c-0.9,0.6-1.5,1.4-1.5,2.5c0,1.2,1,2,2.3,2C950.6,186.8,951.4,186,951.4,184.9z M951.2,179.4
				c0-1.1-0.7-2-1.9-2c-1,0-1.7,0.7-1.7,1.8c0,1.3,1.2,1.9,2.5,2.4C950.8,181,951.2,180.2,951.2,179.4z"/>
		</g>
	</g>
	<g>
		<path class="st11" d="M208.5,122.5h-3.4l-0.7,2.7h-2.1l3.3-10.4h2.4l3.3,10.4h-2.2L208.5,122.5z M208.1,120.9l-0.3-1.1
			c-0.3-1.1-0.6-2.3-0.9-3.4h-0.1c-0.3,1.1-0.6,2.3-0.9,3.4l-0.3,1.1H208.1z"/>
		<path class="st11" d="M212.6,114.8h3.4c2.3,0,4.1,0.8,4.1,3.2c0,2.4-1.8,3.4-4,3.4h-1.4v3.7h-2.1V114.8z M215.9,119.8
			c1.4,0,2.1-0.6,2.1-1.8c0-1.2-0.8-1.6-2.2-1.6h-1.2v3.4H215.9z"/>
		<path class="st11" d="M222,114.8h2.1v10.4H222V114.8z"/>
		<path class="st11" d="M235,118.4c-0.3,1.5-1.4,2.5-2.9,2.5c-1.7,0-3-1.3-3-3.3c0-1.9,1.2-3.2,3-3.2c1.5,0,2.6,1,2.9,2.5h0.8v-3.3
			h1.7v9h-1.7v-4.2H235z M232.1,119.3c0.8,0,1.3-0.6,1.3-1.7c0-1.1-0.5-1.7-1.3-1.7s-1.3,0.6-1.3,1.7
			C230.8,118.7,231.3,119.3,232.1,119.3z M240.4,124.6v1.5h-9v-4.3h1.8v2.8H240.4z M240.1,123h-1.8v-9.6h1.8V123z"/>
		<path class="st11" d="M249.1,121.2c-1.4-0.4-2.4-1.4-3-2.5c-0.6,1.3-1.6,2.3-3.1,2.7L242,120c2.1-0.7,3.1-2.4,3.1-4v-0.2h-2.6
			v-1.5h7v1.5H247v0.2c0,1.5,0.9,3.1,3,3.8L249.1,121.2z M253,124.6v1.5h-8.9v-4.2h1.8v2.7H253z M252.7,122.8h-1.9v-9.3h1.9V122.8z"
			/>
		<path class="st11" d="M269.6,113.4v6.9h-1.8v-2.6h-2c-0.4,1.4-1.7,2.4-3.3,2.4c-1.9,0-3.4-1.3-3.4-3.1s1.5-3.1,3.4-3.1
			c1.6,0,3,0.9,3.3,2.3h2.1v-2.8H269.6z M264,117.1c0-1-0.7-1.5-1.6-1.5c-0.9,0-1.6,0.6-1.6,1.5c0,1,0.7,1.5,1.6,1.5
			C263.3,118.6,264,118,264,117.1z M267.7,120.9h1.8v5.3H261v-5.3h1.8v1.2h4.9V120.9z M267.7,123.6h-4.9v1.2h4.9V123.6z"/>
		<path class="st11" d="M273.8,122c1.3,0,2.4-0.1,3.5-0.3l0.2,1.5c-1.4,0.3-2.7,0.3-4.6,0.3H272v-8.6h4.9v1.5h-3.1V122z
			 M278.3,113.7h1.7v12.1h-1.7v-6.1h-2.2v-1.5h2.2V113.7z M282.7,113.4v12.9H281v-12.9H282.7z"/>
		<path class="st11" d="M291.7,118.9c0,2.8-1.4,4.6-3.4,4.6c-1.9,0-3.4-1.8-3.4-4.6c0-2.8,1.4-4.6,3.4-4.6
			C290.2,114.3,291.7,116.1,291.7,118.9z M286.7,118.9c0,1.9,0.7,2.9,1.6,2.9s1.6-1,1.6-2.9c0-1.9-0.7-2.9-1.6-2.9
			S286.7,117,286.7,118.9z M295.2,113.4v12.9h-1.8v-12.9H295.2z"/>
		<path class="st11" d="M309.1,123.4v1.5h-11.7v-1.5H309.1z M307.8,121.6h-9.1v-7.2h9v1.5h-7.1v1.4h6.8v1.4h-6.8v1.4h7.2V121.6z"/>
		<path class="st11" d="M322.3,119.3c-2.5,0.4-5.4,0.5-7.7,0.5l-0.2-1.5l1.3,0v-2.7h-1v-1.4h6.9v1.4h-1v2.5c0.5,0,1-0.1,1.5-0.1
			L322.3,119.3z M325.3,124.8v1.4h-9.1v-3.5h6.9V122h-6.9v-1.4h8.7v3.5h-6.9v0.8H325.3z M317.6,118.3c0.4,0,0.9,0,1.4-0.1v-2.6h-1.4
			V118.3z M325,120.1h-1.8v-6.6h1.8V120.1z"/>
		<path class="st11" d="M338.8,123.3v1.5h-11.7v-1.5h2.6v-3.2c-1-0.6-1.6-1.5-1.6-2.6c0-2.1,2-3.5,4.8-3.5c2.8,0,4.8,1.4,4.8,3.5
			c0,1.1-0.6,2-1.6,2.6v3.2H338.8z M329.9,117.5c0,1.3,1.2,2,3,2s3-0.7,3-2c0-1.3-1.2-2-3-2S329.9,116.3,329.9,117.5z M331.5,123.3
			h2.8v-2.5c-0.4,0.1-0.9,0.1-1.4,0.1c-0.5,0-1,0-1.4-0.1V123.3z"/>
		<path class="st11" d="M348.9,116.3c0,2.4,1,4.7,3.2,5.7l-1.1,1.5c-1.5-0.7-2.5-1.9-3.1-3.5c-0.6,1.7-1.6,3.1-3.2,3.8l-1.1-1.5
			c2.3-1,3.3-3.5,3.3-6v-1.9h1.8V116.3z M354.6,113.4v12.9h-1.8v-12.9H354.6z"/>
	</g>
	<g>
		<path class="st11" d="M806.5,22.5h-3.4l-0.7,2.7h-2.1l3.3-10.4h2.4l3.3,10.4h-2.2L806.5,22.5z M806.1,20.9l-0.3-1.1
			c-0.3-1.1-0.6-2.3-0.9-3.4h-0.1c-0.3,1.1-0.6,2.3-0.9,3.4l-0.3,1.1H806.1z"/>
		<path class="st11" d="M810.6,14.8h3.4c2.3,0,4.1,0.8,4.1,3.2c0,2.4-1.8,3.4-4,3.4h-1.4v3.7h-2.1V14.8z M813.9,19.8
			c1.4,0,2.1-0.6,2.1-1.8c0-1.2-0.8-1.6-2.2-1.6h-1.2v3.4H813.9z"/>
		<path class="st11" d="M820,14.8h2.1v10.4H820V14.8z"/>
		<path class="st11" d="M833.7,20.3h-6.1v-5.9h6.1v0.9h2.3v-1.9h1.8V21H836v-1.7h-2.3V20.3z M837.9,23.8c0,1.6-1.7,2.5-4.4,2.5
			c-2.7,0-4.4-0.9-4.4-2.5s1.7-2.5,4.4-2.5C836.3,21.3,837.9,22.3,837.9,23.8z M831.9,15.8h-2.5v3h2.5V15.8z M836.1,23.8
			c0-0.7-0.9-1.1-2.6-1.1c-1.7,0-2.6,0.4-2.6,1.1c0,0.7,0.9,1.1,2.6,1.1C835.2,24.9,836.1,24.6,836.1,23.8z M833.7,16.8v1.1h2.3
			v-1.1H833.7z"/>
		<path class="st11" d="M844.1,16.7c0,2.1,0.6,4.2,2.3,5.4l-1,1.4c-1.1-0.7-1.8-1.8-2.2-3.1c-0.4,1.4-1.2,2.7-2.4,3.4l-1.1-1.4
			c1.9-1.1,2.6-3.5,2.6-5.7v-2.2h1.8V16.7z M846.7,13.7h1.7v12.1h-1.7v-6.5h-1.6v-1.5h1.6V13.7z M851,13.4v12.9h-1.8V13.4H851z"/>
		<path class="st11" d="M868.4,22h-4.9v4.4h-1.8V22h-4.9v-1.5h11.7V22z M867.3,19.5c-2.3-0.3-3.9-1.4-4.7-2.8
			c-0.8,1.4-2.5,2.4-4.7,2.8l-0.7-1.5c2.9-0.4,4.4-2.1,4.4-3.6v-0.6h2v0.6c0,1.5,1.5,3.2,4.4,3.6L867.3,19.5z"/>
		<path class="st11" d="M876.5,20.8c-1.4-0.5-2.4-1.4-2.9-2.5c-0.6,1.3-1.6,2.4-3.1,2.9l-0.9-1.5c2-0.7,3-2.4,3-4h-2.5v-1.5h6.9v1.5
			h-2.5c0.1,1.5,1,3,2.9,3.6L876.5,20.8z M880.5,23.9c0,1.6-1.7,2.5-4.4,2.5c-2.7,0-4.4-0.9-4.4-2.5s1.7-2.5,4.4-2.5
			C878.8,21.4,880.5,22.3,880.5,23.9z M878.6,23.9c0-0.7-0.9-1.1-2.6-1.1c-1.7,0-2.6,0.4-2.6,1.1s0.9,1.1,2.6,1.1
			C877.8,25,878.6,24.6,878.6,23.9z M878.6,16.6v-3.1h1.8v7.7h-1.8V18h-1.9v-1.5H878.6z"/>
		<path class="st11" d="M894.5,19.3c-2.5,0.4-5.4,0.5-7.7,0.5l-0.2-1.5l1.3,0v-2.7h-1v-1.4h6.9v1.4h-1v2.5c0.5,0,1-0.1,1.5-0.1
			L894.5,19.3z M897.6,24.8v1.4h-9.1v-3.5h6.9V22h-6.9v-1.4h8.7V24h-6.9v0.8H897.6z M889.8,18.3c0.4,0,0.9,0,1.4-0.1v-2.6h-1.4V18.3
			z M897.2,20.1h-1.8v-6.6h1.8V20.1z"/>
		<path class="st11" d="M911,23.3v1.5h-11.7v-1.5h2.6v-3.2c-1-0.6-1.6-1.5-1.6-2.6c0-2.1,2-3.5,4.8-3.5c2.8,0,4.8,1.4,4.8,3.5
			c0,1.1-0.6,2-1.6,2.6v3.2H911z M902.2,17.5c0,1.3,1.2,2,3,2s3-0.7,3-2c0-1.3-1.2-2-3-2S902.2,16.3,902.2,17.5z M903.7,23.3h2.8
			v-2.5c-0.4,0.1-0.9,0.1-1.4,0.1s-1,0-1.4-0.1V23.3z"/>
		<path class="st11" d="M921.1,16.3c0,2.4,1,4.7,3.2,5.7l-1.1,1.5c-1.5-0.7-2.5-1.9-3.1-3.5c-0.6,1.7-1.6,3.1-3.2,3.8l-1.1-1.5
			c2.3-1,3.3-3.5,3.3-6v-1.9h1.8V16.3z M926.8,13.4v12.9H925V13.4H926.8z"/>
	</g>
	<g>
		<g>
			<line class="st1" x1="1057.2" y1="162.8" x2="1057.2" y2="108.5"/>
			<g>
				<polygon class="st2" points="1063.2,110.2 1057.3,99.8 1051.3,110.2 				"/>
			</g>
		</g>
	</g>
</g>
</svg>
