<?xml version="1.0" encoding="utf-8"?>
<!-- Generator: Adobe Illustrator 27.0.0, SVG Export Plug-In . SVG Version: 6.00 Build 0)  -->
<svg version="1.1" id="Layer_1" xmlns="http://www.w3.org/2000/svg" xmlns:xlink="http://www.w3.org/1999/xlink" x="0px" y="0px"
	 viewBox="0 0 980 230.2" style="enable-background:new 0 0 980 230.2;" xml:space="preserve">
<style type="text/css">
	.st0{fill:#FFFFFF;}
	.st1{fill:none;stroke:#CCCCCC;stroke-width:2;stroke-miterlimit:10;stroke-dasharray:4,4;}
	.st2{fill:#CCCCCC;}
	.st3{fill:none;stroke:#CCCCCC;stroke-width:2;stroke-miterlimit:10;}
	.st4{fill:none;stroke:#CCCCCC;stroke-width:2;stroke-miterlimit:10;stroke-dasharray:4.0354,4.0354;}
	.st5{fill:none;stroke:#CCCCCC;stroke-width:2;stroke-miterlimit:10;stroke-dasharray:3.821,3.821;}
	.st6{fill:#666666;}
	.st7{fill:none;stroke:#5381DE;stroke-miterlimit:10;}
	.st8{fill:#5381DE;}
	.st9{fill:none;stroke:#2CB7B3;stroke-miterlimit:10;}
	.st10{fill:#2CB7B3;}
	.st11{fill:none;stroke:#9B74E3;stroke-miterlimit:10;}
	.st12{fill:#9B74E3;}
</style>
<rect x="0.2" y="0.2" class="st0" width="980" height="230"/>
<g>
	<g>
		<g>
			<polyline class="st1" points="863,58.8 863,34.8 613.3,34.8 613.3,50.2 			"/>
			<g>
				<polygon class="st2" points="607.4,48.4 613.3,58.8 619.3,48.4 				"/>
			</g>
		</g>
	</g>
	<g>
		<g>
			<polyline class="st1" points="863,99 863,134.8 106.5,134.8 106.5,150.2 			"/>
			<g>
				<polygon class="st2" points="100.5,148.4 106.5,158.8 112.5,148.4 				"/>
			</g>
		</g>
	</g>
	<g>
		<g>
			<line class="st3" x1="212" y1="78.5" x2="214" y2="78.5"/>
			<line class="st4" x1="218" y1="78.5" x2="256.4" y2="78.5"/>
			<line class="st3" x1="258.4" y1="78.5" x2="260.4" y2="78.5"/>
			<g>
				<polygon class="st2" points="258.6,84.5 269,78.6 258.6,72.6 				"/>
			</g>
		</g>
	</g>
	<g>
		<g>
			<line class="st3" x1="471.5" y1="79" x2="473.5" y2="79"/>
			<line class="st5" x1="477.3" y1="79" x2="506" y2="79"/>
			<line class="st3" x1="507.9" y1="79" x2="509.9" y2="79"/>
			<g>
				<polygon class="st2" points="508.1,85 518.5,79.1 508.1,73.1 				"/>
			</g>
		</g>
	</g>
	<g>
		<g>
			<line class="st3" x1="722.5" y1="79" x2="724.5" y2="79"/>
			<line class="st5" x1="728.3" y1="79" x2="757" y2="79"/>
			<line class="st3" x1="758.9" y1="79" x2="760.9" y2="79"/>
			<g>
				<polygon class="st2" points="759.1,85 769.5,79.1 759.1,73.1 				"/>
			</g>
		</g>
	</g>
	<g>
		<g>
			<line class="st3" x1="212" y1="182.2" x2="214" y2="182.2"/>
			<line class="st4" x1="218" y1="182.2" x2="256.4" y2="182.2"/>
			<line class="st3" x1="258.4" y1="182.2" x2="260.4" y2="182.2"/>
			<g>
				<polygon class="st2" points="258.6,188.1 269,182.2 258.6,176.2 				"/>
			</g>
		</g>
	</g>
	<g>
		<g>
			<line class="st3" x1="471.5" y1="182.2" x2="473.5" y2="182.2"/>
			<line class="st5" x1="477.3" y1="182.2" x2="506" y2="182.2"/>
			<line class="st3" x1="507.9" y1="182.2" x2="509.9" y2="182.2"/>
			<g>
				<polygon class="st2" points="508.1,188.1 518.5,182.2 508.1,176.2 				"/>
			</g>
		</g>
	</g>
	<g>
		<g>
			<line class="st3" x1="722.5" y1="182.2" x2="724.5" y2="182.2"/>
			<line class="st5" x1="728.3" y1="182.2" x2="757" y2="182.2"/>
			<line class="st3" x1="758.9" y1="182.2" x2="760.9" y2="182.2"/>
			<g>
				<polygon class="st2" points="759.1,188.1 769.5,182.2 759.1,176.2 				"/>
			</g>
		</g>
	</g>
	<g>
		<path class="st6" d="M152.8,121.7h-3.4l-0.7,2.7h-2.1l3.3-10.4h2.4l3.3,10.4h-2.2L152.8,121.7z M152.3,120.1l-0.3-1.1
			c-0.3-1.1-0.6-2.3-0.9-3.4H151c-0.3,1.1-0.6,2.3-0.9,3.4l-0.3,1.1H152.3z"/>
		<path class="st6" d="M156.9,114h3.4c2.3,0,4.1,0.8,4.1,3.2c0,2.4-1.8,3.4-4,3.4h-1.4v3.7h-2.1V114z M160.2,119
			c1.4,0,2.1-0.6,2.1-1.8c0-1.2-0.8-1.6-2.2-1.6h-1.2v3.4H160.2z"/>
		<path class="st6" d="M166.2,114h2.1v10.4h-2.1V114z"/>
		<path class="st6" d="M179.2,117.6c-0.3,1.5-1.4,2.5-2.9,2.5c-1.7,0-3-1.3-3-3.3c0-1.9,1.2-3.2,3-3.2c1.5,0,2.6,1,2.9,2.5h0.8v-3.3
			h1.7v9H180v-4.2H179.2z M176.3,118.5c0.8,0,1.3-0.6,1.3-1.7c0-1.1-0.5-1.7-1.3-1.7s-1.3,0.6-1.3,1.7
			C175,117.9,175.6,118.5,176.3,118.5z M184.7,123.8v1.5h-9V121h1.8v2.8H184.7z M184.3,122.2h-1.8v-9.6h1.8V122.2z"/>
		<path class="st6" d="M193.3,120.4c-1.4-0.4-2.4-1.4-3-2.5c-0.6,1.3-1.6,2.3-3.1,2.7l-0.9-1.4c2.1-0.7,3.1-2.4,3.1-4V115h-2.6v-1.5
			h7v1.5h-2.5v0.2c0,1.5,0.9,3.1,3,3.8L193.3,120.4z M197.3,123.8v1.5h-8.9v-4.2h1.8v2.7H197.3z M196.9,122h-1.9v-9.3h1.9V122z"/>
		<path class="st6" d="M213.8,112.6v6.9H212V117h-2c-0.4,1.4-1.7,2.4-3.3,2.4c-1.9,0-3.4-1.3-3.4-3.1s1.5-3.1,3.4-3.1
			c1.6,0,3,0.9,3.3,2.3h2.1v-2.8H213.8z M208.2,116.3c0-1-0.7-1.5-1.6-1.5c-0.9,0-1.6,0.6-1.6,1.5s0.7,1.5,1.6,1.5
			C207.5,117.8,208.2,117.2,208.2,116.3z M212,120.1h1.8v5.3h-8.5v-5.3h1.8v1.2h4.9V120.1z M212,122.8h-4.9v1.2h4.9V122.8z"/>
		<path class="st6" d="M218.1,121.2c1.3,0,2.4-0.1,3.5-0.3l0.2,1.5c-1.4,0.3-2.7,0.3-4.6,0.3h-0.9v-8.6h4.9v1.5h-3.1V121.2z
			 M222.6,112.9h1.7V125h-1.7v-6.1h-2.2v-1.5h2.2V112.9z M227,112.6v12.9h-1.8v-12.9H227z"/>
		<path class="st6" d="M235.9,118.1c0,2.8-1.4,4.6-3.4,4.6c-1.9,0-3.4-1.8-3.4-4.6c0-2.8,1.4-4.6,3.4-4.6
			C234.5,113.5,235.9,115.3,235.9,118.1z M230.9,118.1c0,1.9,0.7,2.9,1.6,2.9s1.6-1,1.6-2.9c0-1.9-0.7-2.9-1.6-2.9
			S230.9,116.2,230.9,118.1z M239.5,112.6v12.9h-1.8v-12.9H239.5z"/>
		<path class="st6" d="M253.3,122.6v1.5h-11.7v-1.5H253.3z M252.1,120.8H243v-7.2h9v1.5h-7.1v1.4h6.8v1.4h-6.8v1.4h7.2V120.8z"/>
		<path class="st6" d="M266.5,118.5c-2.5,0.4-5.4,0.5-7.7,0.5l-0.2-1.5l1.3,0v-2.7h-1v-1.4h6.9v1.4h-1v2.5c0.5,0,1-0.1,1.5-0.1
			L266.5,118.5z M269.6,124v1.4h-9.1v-3.5h6.9v-0.7h-6.9v-1.4h8.7v3.5h-6.9v0.8H269.6z M261.8,117.5c0.4,0,0.9,0,1.4-0.1v-2.6h-1.4
			V117.5z M269.2,119.3h-1.8v-6.6h1.8V119.3z"/>
		<path class="st6" d="M283,122.5v1.5h-11.7v-1.5h2.6v-3.2c-1-0.6-1.6-1.5-1.6-2.6c0-2.1,2-3.5,4.8-3.5c2.8,0,4.8,1.4,4.8,3.5
			c0,1.1-0.6,2-1.6,2.6v3.2H283z M274.2,116.7c0,1.3,1.2,2,3,2s3-0.7,3-2c0-1.3-1.2-2-3-2S274.2,115.5,274.2,116.7z M275.8,122.5
			h2.8v-2.5c-0.4,0.1-0.9,0.1-1.4,0.1c-0.5,0-1,0-1.4-0.1V122.5z"/>
		<path class="st6" d="M293.1,115.5c0,2.4,1,4.7,3.2,5.7l-1.1,1.5c-1.5-0.7-2.5-1.9-3.1-3.5c-0.6,1.7-1.6,3.1-3.2,3.8l-1.1-1.5
			c2.3-1,3.3-3.5,3.3-6v-1.9h1.8V115.5z M298.8,112.6v12.9H297v-12.9H298.8z"/>
	</g>
	<g>
		<path class="st6" d="M646.8,21.7h-3.4l-0.7,2.7h-2.1l3.3-10.4h2.4l3.3,10.4h-2.2L646.8,21.7z M646.3,20.1l-0.3-1.1
			c-0.3-1.1-0.6-2.3-0.9-3.4H645c-0.3,1.1-0.6,2.3-0.9,3.4l-0.3,1.1H646.3z"/>
		<path class="st6" d="M650.9,14h3.4c2.3,0,4.1,0.8,4.1,3.2c0,2.4-1.8,3.4-4,3.4h-1.4v3.7h-2.1V14z M654.2,19c1.4,0,2.1-0.6,2.1-1.8
			c0-1.2-0.8-1.6-2.2-1.6h-1.2V19H654.2z"/>
		<path class="st6" d="M660.2,14h2.1v10.4h-2.1V14z"/>
		<path class="st6" d="M674,19.5h-6.1v-5.9h6.1v0.9h2.3v-1.9h1.8v7.6h-1.8v-1.7H674V19.5z M678.2,23c0,1.6-1.7,2.5-4.4,2.5
			c-2.7,0-4.4-0.9-4.4-2.5s1.7-2.5,4.4-2.5C676.5,20.5,678.2,21.5,678.2,23z M672.1,15h-2.5v3h2.5V15z M676.3,23
			c0-0.7-0.9-1.1-2.6-1.1c-1.7,0-2.6,0.4-2.6,1.1c0,0.7,0.9,1.1,2.6,1.1C675.5,24.1,676.3,23.8,676.3,23z M674,16v1.1h2.3V16H674z"
			/>
		<path class="st6" d="M684.3,15.9c0,2.1,0.6,4.2,2.3,5.4l-1,1.4c-1.1-0.7-1.8-1.8-2.2-3.1c-0.4,1.4-1.2,2.7-2.4,3.4l-1.1-1.4
			c1.9-1.1,2.6-3.5,2.6-5.7v-2.2h1.8V15.9z M686.9,12.9h1.7V25h-1.7v-6.5h-1.6V17h1.6V12.9z M691.3,12.6v12.9h-1.8V12.6H691.3z"/>
		<path class="st6" d="M708.7,21.2h-4.9v4.4h-1.8v-4.4H697v-1.5h11.7V21.2z M707.6,18.7c-2.3-0.3-3.9-1.4-4.7-2.8
			c-0.8,1.4-2.5,2.4-4.7,2.8l-0.7-1.5c2.9-0.4,4.4-2.1,4.4-3.6V13h2v0.6c0,1.5,1.5,3.2,4.4,3.6L707.6,18.7z"/>
		<path class="st6" d="M716.8,20c-1.4-0.5-2.4-1.4-2.9-2.5c-0.6,1.3-1.6,2.4-3.1,2.9l-0.9-1.5c2-0.7,3-2.4,3-4h-2.5v-1.5h6.9v1.5
			h-2.5c0.1,1.5,1,3,2.9,3.6L716.8,20z M720.7,23.1c0,1.6-1.7,2.5-4.4,2.5c-2.7,0-4.4-0.9-4.4-2.5c0-1.6,1.7-2.5,4.4-2.5
			C719.1,20.6,720.7,21.5,720.7,23.1z M718.9,23.1c0-0.7-0.9-1.1-2.6-1.1c-1.7,0-2.6,0.3-2.6,1.1s0.9,1.1,2.6,1.1
			C718,24.2,718.9,23.8,718.9,23.1z M718.8,15.8v-3.1h1.8v7.7h-1.8v-3.1h-1.9v-1.5H718.8z"/>
		<path class="st6" d="M734.8,18.5c-2.5,0.4-5.4,0.5-7.7,0.5l-0.2-1.5l1.3,0v-2.7h-1v-1.4h6.9v1.4h-1v2.5c0.5,0,1-0.1,1.5-0.1
			L734.8,18.5z M737.8,24v1.4h-9.1v-3.5h6.9v-0.7h-6.9v-1.4h8.7v3.5h-6.9V24H737.8z M730,17.5c0.4,0,0.9,0,1.4-0.1v-2.6H730V17.5z
			 M737.4,19.3h-1.8v-6.6h1.8V19.3z"/>
		<path class="st6" d="M751.3,22.5V24h-11.7v-1.5h2.6v-3.2c-1-0.6-1.6-1.5-1.6-2.6c0-2.1,2-3.5,4.8-3.5c2.8,0,4.8,1.4,4.8,3.5
			c0,1.1-0.6,2-1.6,2.6v3.2H751.3z M742.4,16.7c0,1.3,1.2,2,3,2s3-0.7,3-2c0-1.3-1.2-2-3-2S742.4,15.5,742.4,16.7z M744,22.5h2.8
			v-2.5c-0.4,0.1-0.9,0.1-1.4,0.1s-1,0-1.4-0.1V22.5z"/>
		<path class="st6" d="M761.4,15.5c0,2.4,1,4.7,3.2,5.7l-1.1,1.5c-1.5-0.7-2.5-1.9-3.1-3.5c-0.6,1.7-1.6,3.1-3.2,3.8l-1.1-1.5
			c2.3-1,3.3-3.5,3.3-6v-1.9h1.8V15.5z M767.1,12.6v12.9h-1.8V12.6H767.1z"/>
	</g>
	<g>
		<g>
			<line class="st1" x1="890.5" y1="162" x2="890.5" y2="107.7"/>
			<g>
				<polygon class="st2" points="896.5,109.4 890.5,99 884.5,109.4 				"/>
			</g>
		</g>
	</g>
	<g>
		<path class="st7" d="M29,98.8c-11,0-20-9-20-20s9-20,20-20h163c11,0,20,9,20,20s-9,20-20,20H29z"/>
		<circle class="st8" cx="30.5" cy="78.8" r="15"/>
		<g>
			<path class="st8" d="M87.6,77.6v1.6H75.1v-1.6H87.6z M86.1,82.6c0,1.6-1.8,2.5-4.8,2.5s-4.8-0.9-4.8-2.5c0-1.6,1.8-2.5,4.8-2.5
				S86.1,80.9,86.1,82.6z M86.1,76.6h-9.6v-5h9.5v1.6h-7.5v1.8h7.6V76.6z M84,82.6c0-0.7-0.9-1-2.8-1c-1.8,0-2.8,0.3-2.8,1
				s0.9,1,2.8,1C83.1,83.6,84,83.3,84,82.6z"/>
			<path class="st8" d="M101.4,78.7v1.6H88.8v-1.6h5.3v-1h-3.7v-3.8h7.5V73h-7.5v-1.5h9.4v3.7h-7.5v0.9h7.8v1.5h-4v1H101.4z
				 M90.2,81h9.7v4h-2v-2.5h-7.7V81z"/>
			<path class="st8" d="M114.3,79.3c-1.5-0.5-2.6-1.5-3.2-2.8c-0.6,1.4-1.7,2.5-3.3,3.1l-1-1.6c2.3-0.8,3.3-2.7,3.3-4.5V72h2v1.3
				c0,1.8,1,3.6,3.2,4.3L114.3,79.3z M118.7,83.3v1.6h-9.5v-4.5h2v2.9H118.7z M118.3,81.4h-2V71.3h2V81.4z"/>
			<path class="st8" d="M128,79.2c-1.5-0.4-2.6-1.3-3.3-2.4c-0.6,1.3-1.7,2.2-3.3,2.7l-0.9-1.5c2.2-0.6,3.1-2.2,3.2-3.7H121v-1.6
				h2.7v-1.5h2v1.5h2.7v1.6h-2.7c0,1.4,1,2.8,3.2,3.4L128,79.2z M132.3,82.5c0,1.7-1.8,2.6-4.7,2.6c-2.9,0-4.7-1-4.7-2.6
				c0-1.7,1.8-2.6,4.7-2.6C130.5,79.9,132.3,80.8,132.3,82.5z M130.3,82.5c0-0.8-0.9-1.1-2.7-1.1c-1.8,0-2.8,0.4-2.8,1.1
				s0.9,1.1,2.8,1.1C129.3,83.6,130.3,83.2,130.3,82.5z M130.2,75v-3.7h2v8.3h-2v-3.1h-2.1V75H130.2z"/>
			<path class="st8" d="M145.9,79.1c-1.5-0.5-2.5-1.5-3.1-2.7c-0.6,1.3-1.7,2.4-3.3,2.9l-1-1.5c2.2-0.7,3.2-2.5,3.3-4.2H139v-1.6
				h7.5v1.6h-2.7c0,1.6,1,3.2,3.2,3.9L145.9,79.1z M140.3,80.2h9.2v4.9h-2v-3.3h-7.2V80.2z M151.3,76.2h-1.8v3.4h-2v-8.3h2v3.3h1.8
				V76.2z"/>
			<path class="st8" d="M159.7,78.9c-1.5-0.5-2.4-1.4-3-2.7c-0.6,1.4-1.7,2.5-3.3,3.1l-1-1.6c2.4-0.8,3.3-2.6,3.3-4.5V72h2v1.1
				c0,1.9,0.9,3.5,3.1,4.2L159.7,78.9z M164.1,82.4c0,1.7-1.8,2.7-4.7,2.7c-2.9,0-4.7-1-4.7-2.7c0-1.7,1.8-2.7,4.7-2.7
				C162.3,79.7,164.1,80.7,164.1,82.4z M162.1,82.4c0-0.8-0.9-1.2-2.7-1.2c-1.8,0-2.8,0.4-2.8,1.2c0,0.8,0.9,1.2,2.8,1.2
				C161.1,83.6,162.1,83.2,162.1,82.4z M162,75.4h-2.5v-1.6h2.5v-2.5h2v8.1h-2V75.4z"/>
		</g>
		<g>
			<path class="st0" d="M27.7,82.7h2.4v-8.2h-1.9v-0.9c1-0.2,1.7-0.4,2.3-0.8h1.1v9.9h2.2v1.1h-6V82.7z"/>
		</g>
	</g>
	<g>
		<path class="st9" d="M288.7,98.8c-11,0-20-9-20-20s9-20,20-20h163c11,0,20,9,20,20s-9,20-20,20H288.7z"/>
		<circle class="st10" cx="290.2" cy="78.8" r="15"/>
		<g>
			<path class="st10" d="M326.1,80.9h-3.6l-0.8,2.9h-2.2l3.6-11.1h2.6l3.6,11.1h-2.3L326.1,80.9z M325.6,79.2l-0.3-1.2
				c-0.3-1.2-0.6-2.4-1-3.6h-0.1c-0.3,1.2-0.6,2.5-0.9,3.6l-0.3,1.2H325.6z"/>
			<path class="st10" d="M330.5,72.7h3.6c2.5,0,4.3,0.9,4.3,3.5c0,2.5-1.9,3.7-4.3,3.7h-1.5v3.9h-2.2V72.7z M334.1,78.1
				c1.5,0,2.3-0.6,2.3-1.9c0-1.3-0.8-1.7-2.3-1.7h-1.3v3.6H334.1z"/>
			<path class="st10" d="M340.5,72.7h2.2v11.1h-2.2V72.7z"/>
			<path class="st10" d="M360.7,79.5h-5.3v5.5h-2v-5.5h-5.2v-1.6h8.7c0.3-1.8,0.4-3.1,0.4-4.3h-7.6v-1.6h9.6v1.2
				c0,1.3,0,2.7-0.3,4.6h1.8V79.5z"/>
			<path class="st10" d="M369.2,79.6v1.2h3.8v4.3h-2v-2.7h-7.6v-1.6h3.9v-1.2H362v-1.6h12.5v1.6H369.2z M362.5,76.1
				c3-0.2,4.4-1.1,4.6-2h-3.9v-1.5h4v-1.2h2v1.2h4.1v1.5h-3.9c0.2,1,1.6,1.8,4.6,2l-0.6,1.5c-2.5-0.2-4.2-0.9-5.1-2
				c-0.9,1.1-2.6,1.8-5.1,2L362.5,76.1z"/>
			<path class="st10" d="M387.4,77.9h-6.7v-5.9h6.7V77.9z M387.8,81.3c0.2,0.9,1.6,2,4.3,2.2l-0.6,1.5c-2.3-0.2-3.9-1-4.7-2.1
				c-0.8,1.1-2.5,1.9-4.8,2.1l-0.6-1.5c2.8-0.2,4.2-1.3,4.4-2.2h-3.8v-1.5h3.9v-1.1h2v1.1h3.9v1.5H387.8z M385.4,73.7h-2.8v2.7h2.8
				V73.7z M391.4,79.1h-2v-7.8h2V79.1z"/>
			<path class="st10" d="M397.3,78.3c0-3.7,2.4-5.8,5.3-5.8c1.6,0,2.7,0.7,3.4,1.4l-1.2,1.4c-0.5-0.5-1.2-0.9-2.2-0.9
				c-1.8,0-3.1,1.4-3.1,3.8c0,2.4,1.1,3.9,3.3,3.9c0.5,0,1.1-0.2,1.4-0.4v-2.2h-2v-1.8h3.9v5c-0.7,0.7-2.1,1.3-3.6,1.3
				C399.6,84,397.3,82,397.3,78.3z"/>
			<path class="st10" d="M411.2,71.7h1.5L409,86.5h-1.5L411.2,71.7z"/>
			<path class="st10" d="M413.4,72.7h2.3l0.9,5.4c0.2,1.2,0.3,2.4,0.5,3.5h0.1c0.2-1.2,0.5-2.4,0.7-3.5l1.3-5.4h1.9l1.3,5.4
				c0.2,1.1,0.5,2.3,0.7,3.5h0.1c0.2-1.2,0.3-2.4,0.5-3.5l0.9-5.4h2.1l-2.1,11.1h-2.8l-1.2-5.5c-0.2-0.9-0.3-1.7-0.5-2.6h-0.1
				c-0.1,0.8-0.3,1.7-0.5,2.6l-1.2,5.5h-2.7L413.4,72.7z"/>
			<path class="st10" d="M437.4,78.1c-0.7,0.7-1.6,1.1-2.7,1.1c-2,0-3.6-1.5-3.6-3.6c0-2.1,1.6-3.6,3.6-3.6c1.1,0,2,0.4,2.7,1.1h3.1
				v-1.9h2v10.1h-2v-3.3H437.4z M434.7,77.5c1,0,1.8-0.7,1.8-1.9c0-1.1-0.8-1.8-1.8-1.8c-1,0-1.8,0.7-1.8,1.8
				C432.9,76.8,433.7,77.5,434.7,77.5z M442.7,83.3v1.6h-9.4v-4.5h2v2.9H442.7z M438.2,74.8c0.1,0.3,0.1,0.6,0.1,0.9
				c0,0.3,0,0.6-0.1,0.9h2.2v-1.8H438.2z"/>
			<path class="st10" d="M457.2,77.8v1.6h-12.5v-1.6h5.2v-1.1h-3.7v-4.8h9.5v1.6h-7.5v1.6h7.6v1.6h-3.8v1.1H457.2z M455.7,82.6
				c0,1.6-1.8,2.5-4.8,2.5s-4.8-0.9-4.8-2.5c0-1.6,1.8-2.5,4.8-2.5S455.7,80.9,455.7,82.6z M453.7,82.6c0-0.7-0.9-1-2.8-1
				c-1.8,0-2.8,0.3-2.8,1c0,0.7,0.9,1,2.8,1C452.7,83.6,453.7,83.3,453.7,82.6z"/>
		</g>
		<g>
			<path class="st0" d="M286.7,83c3.4-3,5-5.2,5-7.1c0-1.3-0.7-2.2-2-2.2c-0.9,0-1.7,0.6-2.3,1.3l-0.8-0.8c0.9-1,1.8-1.6,3.2-1.6
				c2,0,3.2,1.3,3.2,3.3c0,2.2-1.7,4.4-4.3,6.9c0.6,0,1.2-0.1,1.8-0.1h3v1.2h-6.9V83z"/>
		</g>
	</g>
	<g>
		<path class="st11" d="M788,98.8c-11,0-20-9-20-20s9-20,20-20h163c11,0,20,9,20,20s-9,20-20,20H788z"/>
		<circle class="st12" cx="789.5" cy="78.8" r="15"/>
		<g>
			<path class="st12" d="M857.8,80.9h-3.6l-0.8,2.9h-2.2l3.6-11.1h2.6l3.6,11.1h-2.3L857.8,80.9z M857.3,79.2L857,78
				c-0.3-1.2-0.6-2.4-1-3.6H856c-0.3,1.2-0.6,2.5-0.9,3.6l-0.3,1.2H857.3z"/>
			<path class="st12" d="M862.2,72.7h3.6c2.5,0,4.3,0.9,4.3,3.5c0,2.5-1.9,3.7-4.3,3.7h-1.5v3.9h-2.2V72.7z M865.8,78.1
				c1.5,0,2.3-0.6,2.3-1.9c0-1.3-0.8-1.7-2.3-1.7h-1.3v3.6H865.8z"/>
			<path class="st12" d="M872.2,72.7h2.2v11.1h-2.2V72.7z"/>
			<path class="st12" d="M883.9,72.5h1.8v9.3h-5.4v-9.3h1.9v3.1h1.8V72.5z M883.9,77.2h-1.8v3.1h1.8V77.2z M891.7,71.3v13.8h-1.9
				v-6.9h-1.2v6.3h-1.8v-13h1.8v5.1h1.2v-5.3H891.7z"/>
			<path class="st12" d="M906.2,81.9v1.6h-12.5v-1.6h5.2v-2.5h-4.2v-1.6h1.8V74h-1.9v-1.6h10.5V74h-1.9v3.9h1.8v1.6h-4.2v2.5H906.2z
				 M898.5,77.9h2.8V74h-2.8V77.9z"/>
		</g>
		<g>
			<path class="st0" d="M793.2,80.8h-1.5v3h-1.3v-3h-4.8v-0.9l4.6-7.1h1.5v6.9h1.5V80.8z M790.4,79.7v-3.4c0-0.5,0.1-1.4,0.1-2h-0.1
				c-0.3,0.5-0.6,1.1-0.9,1.6l-2.5,3.8H790.4z"/>
		</g>
	</g>
	<g>
		<path class="st7" d="M29,201.8c-11,0-20-9-20-20s9-20,20-20h163c11,0,20,9,20,20s-9,20-20,20H29z"/>
		<circle class="st8" cx="30.5" cy="181.8" r="15"/>
		<g>
			<path class="st8" d="M88.7,174.3v7.4h-2v-2.8h-2.2c-0.4,1.5-1.8,2.5-3.6,2.5c-2.1,0-3.6-1.4-3.6-3.3s1.6-3.3,3.6-3.3
				c1.8,0,3.2,1,3.6,2.5h2.2v-3H88.7z M82.7,178.1c0-1-0.7-1.6-1.8-1.6c-1,0-1.7,0.6-1.7,1.6c0,1,0.7,1.7,1.7,1.7
				C82,179.8,82.7,179.2,82.7,178.1z M86.7,182.3h2v5.6h-9.1v-5.6h2v1.3h5.2V182.3z M86.7,185.1h-5.2v1.2h5.2V185.1z"/>
			<path class="st8" d="M93.3,183.4c1.4,0,2.5-0.1,3.8-0.4l0.2,1.6c-1.5,0.3-2.9,0.4-4.9,0.4h-0.9v-9.2h5.3v1.6h-3.3V183.4z
				 M98.1,174.5h1.8v12.9h-1.8v-6.6h-2.4v-1.6h2.4V174.5z M102.8,174.3v13.8h-1.9v-13.8H102.8z"/>
			<path class="st8" d="M112.4,180.2c0,3-1.5,4.9-3.6,4.9s-3.6-1.9-3.6-4.9c0-3,1.5-4.9,3.6-4.9S112.4,177.1,112.4,180.2z
				 M107,180.2c0,2.1,0.7,3.1,1.7,3.1s1.7-1.1,1.7-3.1c0-2-0.7-3.1-1.7-3.1S107,178.1,107,180.2z M116.2,174.3v13.9h-2v-13.9H116.2z
				"/>
			<path class="st8" d="M131.1,184.9v1.6h-12.5v-1.6H131.1z M129.7,183H120v-7.7h9.6v1.6H122v1.5h7.3v1.5H122v1.5h7.7V183z"/>
			<path class="st8" d="M144,182.3c-1.5-0.5-2.6-1.5-3.2-2.8c-0.6,1.4-1.7,2.5-3.3,3.1l-1-1.6c2.3-0.8,3.3-2.7,3.3-4.5V175h2v1.3
				c0,1.8,1,3.6,3.2,4.3L144,182.3z M148.4,186.3v1.6h-9.5v-4.5h2v2.9H148.4z M148,184.4h-2v-10.1h2V184.4z"/>
			<path class="st8" d="M157.7,182.2c-1.5-0.4-2.6-1.3-3.3-2.4c-0.6,1.3-1.7,2.2-3.3,2.7l-0.9-1.5c2.2-0.6,3.1-2.2,3.2-3.7h-2.7
				v-1.6h2.7v-1.5h2v1.5h2.7v1.6h-2.7c0,1.4,1,2.8,3.2,3.4L157.7,182.2z M162,185.5c0,1.7-1.8,2.6-4.7,2.6c-2.9,0-4.7-1-4.7-2.6
				c0-1.7,1.8-2.6,4.7-2.6C160.2,182.9,162,183.8,162,185.5z M160,185.5c0-0.8-0.9-1.1-2.7-1.1c-1.8,0-2.8,0.4-2.8,1.1
				s0.9,1.1,2.8,1.1C159,186.6,160,186.2,160,185.5z M159.9,178v-3.7h2v8.3h-2v-3.1h-2.1V178H159.9z"/>
		</g>
		<g>
			<path class="st0" d="M26.8,185.5l0.7-0.9c0.6,0.6,1.4,1.2,2.7,1.2c1.3,0,2.3-1,2.3-2.6c0-1.6-0.9-2.5-2.3-2.5
				c-0.7,0-1.2,0.2-1.8,0.6l-0.7-0.4l0.3-5.1h5.4v1.2h-4.2l-0.3,3.2c0.5-0.3,1-0.4,1.6-0.4c1.8,0,3.3,1.1,3.3,3.5s-1.7,3.8-3.6,3.8
				C28.5,187,27.5,186.3,26.8,185.5z"/>
		</g>
	</g>
	<g>
		<path class="st9" d="M288.7,201.8c-11,0-20-9-20-20s9-20,20-20h163c11,0,20,9,20,20s-9,20-20,20H288.7z"/>
		<circle class="st10" cx="290.2" cy="181.8" r="15"/>
		<g>
			<path class="st10" d="M344.7,183.9h-3.6l-0.8,2.9H338l3.6-11.1h2.6l3.6,11.1h-2.3L344.7,183.9z M344.2,182.2l-0.3-1.2
				c-0.3-1.2-0.6-2.4-1-3.6h-0.1c-0.3,1.2-0.6,2.5-0.9,3.6l-0.3,1.2H344.2z"/>
			<path class="st10" d="M349.1,175.7h3.6c2.5,0,4.3,0.9,4.3,3.5c0,2.5-1.9,3.7-4.3,3.7h-1.5v3.9h-2.2V175.7z M352.6,181.1
				c1.5,0,2.3-0.6,2.3-1.9c0-1.3-0.8-1.7-2.3-1.7h-1.3v3.6H352.6z"/>
			<path class="st10" d="M359.1,175.7h2.2v11.1h-2.2V175.7z"/>
			<path class="st10" d="M378.3,174.3v7.4h-2v-2.8h-2.2c-0.4,1.5-1.8,2.5-3.6,2.5c-2.1,0-3.6-1.4-3.6-3.3s1.6-3.3,3.6-3.3
				c1.8,0,3.2,1,3.6,2.5h2.2v-3H378.3z M372.3,178.1c0-1-0.7-1.6-1.8-1.6c-1,0-1.7,0.6-1.7,1.6c0,1,0.7,1.7,1.7,1.7
				C371.6,179.8,372.3,179.2,372.3,178.1z M376.3,182.3h2v5.6h-9.1v-5.6h2v1.3h5.2V182.3z M376.3,185.1h-5.2v1.2h5.2V185.1z"/>
			<path class="st10" d="M382.9,183.4c1.4,0,2.5-0.1,3.8-0.4l0.2,1.6c-1.5,0.3-2.9,0.4-4.9,0.4h-0.9v-9.2h5.3v1.6h-3.3V183.4z
				 M387.7,174.5h1.8v12.9h-1.8v-6.6h-2.4v-1.6h2.4V174.5z M392.4,174.3v13.8h-1.9v-13.8H392.4z"/>
			<path class="st10" d="M402,180.2c0,3-1.5,4.9-3.6,4.9c-2.1,0-3.6-1.9-3.6-4.9c0-3,1.5-4.9,3.6-4.9
				C400.4,175.2,402,177.1,402,180.2z M396.6,180.2c0,2.1,0.7,3.1,1.7,3.1c1,0,1.7-1.1,1.7-3.1c0-2-0.7-3.1-1.7-3.1
				C397.3,177,396.6,178.1,396.6,180.2z M405.8,174.3v13.9h-2v-13.9H405.8z"/>
			<path class="st10" d="M420.6,184.9v1.6h-12.5v-1.6H420.6z M419.3,183h-9.7v-7.7h9.6v1.6h-7.6v1.5h7.3v1.5h-7.3v1.5h7.7V183z"/>
		</g>
		<g>
			<path class="st0" d="M292.7,177.6c-0.4-0.5-1.1-0.8-1.8-0.8c-1.5,0-2.8,1.2-2.8,4.6c0.7-0.8,1.6-1.3,2.5-1.3c1.9,0,3,1.2,3,3.5
				c0,2.1-1.4,3.6-3.1,3.6c-2.1,0-3.7-1.8-3.7-5.4c0-4.3,1.9-6,4.1-6c1.1,0,2,0.5,2.6,1.1L292.7,177.6z M292.4,183.4
				c0-1.5-0.6-2.4-2-2.4c-0.7,0-1.5,0.4-2.2,1.4c0.2,2.3,1,3.5,2.4,3.5C291.6,185.9,292.4,184.9,292.4,183.4z"/>
		</g>
	</g>
	<g>
		<circle class="st8" cx="539.8" cy="78.8" r="15"/>
		<g>
			<path class="st8" d="M592.2,80.9h-3.6l-0.8,2.9h-2.2l3.6-11.1h2.6l3.6,11.1H593L592.2,80.9z M591.8,79.2l-0.3-1.2
				c-0.3-1.2-0.6-2.4-1-3.6h-0.1c-0.3,1.2-0.6,2.5-0.9,3.6l-0.3,1.2H591.8z"/>
			<path class="st8" d="M596.7,72.7h3.6c2.5,0,4.3,0.9,4.3,3.5c0,2.5-1.9,3.7-4.3,3.7h-1.5v3.9h-2.2V72.7z M600.2,78.1
				c1.5,0,2.3-0.6,2.3-1.9c0-1.3-0.8-1.7-2.3-1.7h-1.3v3.6H600.2z"/>
			<path class="st8" d="M606.7,72.7h2.2v11.1h-2.2V72.7z"/>
			<path class="st8" d="M621.4,78.6h-6.5v-6.4h6.5v1h2.5v-2h2v8.1h-2v-1.8h-2.5V78.6z M625.9,82.4c0,1.7-1.8,2.7-4.7,2.7
				c-2.9,0-4.7-1-4.7-2.7c0-1.7,1.8-2.7,4.7-2.7C624.1,79.7,625.9,80.7,625.9,82.4z M619.4,73.8h-2.6v3.2h2.6V73.8z M623.9,82.4
				c0-0.8-0.9-1.2-2.8-1.2c-1.8,0-2.7,0.4-2.7,1.2s0.9,1.2,2.7,1.2C623,83.6,623.9,83.2,623.9,82.4z M621.4,74.8V76h2.5v-1.2H621.4z
				"/>
			<path class="st8" d="M632.5,74.7c0,2.2,0.6,4.5,2.5,5.8l-1.1,1.5c-1.2-0.7-1.9-1.9-2.3-3.3c-0.5,1.5-1.3,2.8-2.5,3.6l-1.2-1.5
				c2-1.2,2.8-3.7,2.8-6.1v-2.3h1.9V74.7z M635.3,71.5h1.8v13h-1.8v-6.9h-1.7v-1.6h1.7V71.5z M639.9,71.3v13.8h-1.9V71.3H639.9z"/>
			<path class="st8" d="M653.3,79.1c-1.5-0.5-2.5-1.5-3.1-2.7c-0.6,1.3-1.7,2.4-3.3,2.9l-1-1.5c2.2-0.7,3.2-2.5,3.3-4.2h-2.7v-1.6
				h7.5v1.6h-2.7c0,1.6,1,3.2,3.2,3.9L653.3,79.1z M647.7,80.2h9.2v4.9h-2v-3.3h-7.2V80.2z M658.8,76.2H657v3.4h-2v-8.3h2v3.3h1.8
				V76.2z"/>
			<path class="st8" d="M667.2,78.9c-1.5-0.5-2.4-1.4-3-2.7c-0.6,1.4-1.7,2.5-3.3,3.1l-1-1.6c2.4-0.8,3.3-2.6,3.3-4.5V72h2v1.1
				c0,1.9,0.9,3.5,3.1,4.2L667.2,78.9z M671.5,82.4c0,1.7-1.8,2.7-4.7,2.7c-2.9,0-4.7-1-4.7-2.7c0-1.7,1.8-2.7,4.7-2.7
				C669.7,79.7,671.5,80.7,671.5,82.4z M669.5,82.4c0-0.8-0.9-1.2-2.7-1.2c-1.8,0-2.8,0.4-2.8,1.2c0,0.8,0.9,1.2,2.8,1.2
				C668.6,83.6,669.5,83.2,669.5,82.4z M669.5,75.4h-2.5v-1.6h2.5v-2.5h2v8.1h-2V75.4z"/>
		</g>
		<g>
			<path class="st0" d="M536.1,82.5l0.7-0.9c0.6,0.7,1.5,1.3,2.7,1.3c1.3,0,2.2-0.8,2.2-2c0-1.3-0.9-2.2-3.4-2.2v-1
				c2.3,0,3-0.9,3-2.1c0-1.1-0.7-1.7-1.9-1.8c-0.9,0-1.7,0.5-2.3,1.1l-0.7-0.9c0.8-0.8,1.8-1.3,3.1-1.3c1.8,0,3.2,1,3.2,2.8
				c0,1.3-0.8,2.2-2,2.7v0.1c1.3,0.3,2.3,1.3,2.3,2.8c0,2-1.6,3.1-3.5,3.1C537.9,84,536.8,83.3,536.1,82.5z"/>
		</g>
		<path class="st7" d="M538.3,98.8c-11,0-20-9-20-20s9-20,20-20h163c11,0,20,9,20,20s-9,20-20,20H538.3z"/>
	</g>
	<g>
		<path class="st7" d="M538.3,201.8c-11,0-20-9-20-20s9-20,20-20h163c11,0,20,9,20,20s-9,20-20,20H538.3z"/>
		<circle class="st8" cx="539.8" cy="181.8" r="15"/>
		<g>
			<path class="st8" d="M592.2,183.9h-3.6l-0.8,2.9h-2.2l3.6-11.1h2.6l3.6,11.1H593L592.2,183.9z M591.8,182.2l-0.3-1.2
				c-0.3-1.2-0.6-2.4-1-3.6h-0.1c-0.3,1.2-0.6,2.5-0.9,3.6l-0.3,1.2H591.8z"/>
			<path class="st8" d="M596.7,175.7h3.6c2.5,0,4.3,0.9,4.3,3.5c0,2.5-1.9,3.7-4.3,3.7h-1.5v3.9h-2.2V175.7z M600.2,181.1
				c1.5,0,2.3-0.6,2.3-1.9c0-1.3-0.8-1.7-2.3-1.7h-1.3v3.6H600.2z"/>
			<path class="st8" d="M606.7,175.7h2.2v11.1h-2.2V175.7z"/>
			<path class="st8" d="M621.4,181.6h-6.5v-6.4h6.5v1h2.5v-2h2v8.1h-2v-1.8h-2.5V181.6z M625.9,185.4c0,1.7-1.8,2.7-4.7,2.7
				c-2.9,0-4.7-1-4.7-2.7c0-1.7,1.8-2.7,4.7-2.7C624.1,182.7,625.9,183.7,625.9,185.4z M619.4,176.8h-2.6v3.2h2.6V176.8z
				 M623.9,185.4c0-0.8-0.9-1.2-2.8-1.2c-1.8,0-2.7,0.4-2.7,1.2s0.9,1.2,2.7,1.2C623,186.6,623.9,186.2,623.9,185.4z M621.4,177.8
				v1.2h2.5v-1.2H621.4z"/>
			<path class="st8" d="M632.5,177.7c0,2.2,0.6,4.5,2.5,5.8l-1.1,1.5c-1.2-0.7-1.9-1.9-2.3-3.3c-0.5,1.5-1.3,2.8-2.5,3.6l-1.2-1.5
				c2-1.2,2.8-3.7,2.8-6.1v-2.3h1.9V177.7z M635.3,174.5h1.8v13h-1.8v-6.9h-1.7v-1.6h1.7V174.5z M639.9,174.3v13.8h-1.9v-13.8H639.9
				z"/>
			<path class="st8" d="M658.6,183.4h-5.3v4.7h-2v-4.7h-5.2v-1.6h12.5V183.4z M657.4,180.8c-2.4-0.4-4.1-1.5-5-3
				c-0.9,1.5-2.6,2.6-5,3l-0.8-1.6c3.1-0.4,4.7-2.2,4.7-3.8v-0.7h2.1v0.7c0,1.6,1.6,3.4,4.7,3.8L657.4,180.8z"/>
			<path class="st8" d="M667.3,182.1c-1.5-0.5-2.5-1.5-3.1-2.7c-0.6,1.4-1.7,2.5-3.3,3.1l-1-1.6c2.2-0.8,3.2-2.5,3.3-4.2h-2.7v-1.6
				h7.4v1.6h-2.7c0.1,1.6,1,3.2,3.1,3.9L667.3,182.1z M671.5,185.4c0,1.7-1.8,2.7-4.7,2.7c-2.9,0-4.7-1-4.7-2.7
				c0-1.7,1.8-2.7,4.7-2.7C669.7,182.8,671.5,183.8,671.5,185.4z M669.5,185.4c0-0.8-0.9-1.2-2.7-1.2c-1.8,0-2.8,0.4-2.8,1.2
				c0,0.8,0.9,1.2,2.8,1.2C668.6,186.6,669.5,186.2,669.5,185.4z M669.5,177.6v-3.3h2v8.2h-2v-3.3h-2.1v-1.6H669.5z"/>
		</g>
		<g>
			<path class="st0" d="M541.7,177h-5.3v-1.2h6.9v0.8c-2.6,3.3-3.1,5.9-3.2,10.2h-1.4C538.8,182.6,539.6,180,541.7,177z"/>
		</g>
	</g>
	<g>
		<path class="st9" d="M788,201.8c-11,0-20-9-20-20s9-20,20-20h163c11,0,20,9,20,20s-9,20-20,20H788z"/>
		<circle class="st10" cx="789.5" cy="181.8" r="15"/>
		<g>
			<path class="st10" d="M850.1,181.6h-6.5v-6.4h6.5v1h2.5v-2h2v8.1h-2v-1.8h-2.5V181.6z M854.7,185.4c0,1.7-1.8,2.7-4.7,2.7
				c-2.9,0-4.7-1-4.7-2.7c0-1.7,1.8-2.7,4.7-2.7C852.9,182.7,854.7,183.7,854.7,185.4z M848.2,176.8h-2.6v3.2h2.6V176.8z
				 M852.7,185.4c0-0.8-0.9-1.2-2.8-1.2c-1.8,0-2.7,0.4-2.7,1.2s0.9,1.2,2.7,1.2C851.7,186.6,852.7,186.2,852.7,185.4z M850.1,177.8
				v1.2h2.5v-1.2H850.1z"/>
			<path class="st10" d="M861.3,177.7c0,2.2,0.6,4.5,2.5,5.8l-1.1,1.5c-1.2-0.7-1.9-1.9-2.3-3.3c-0.5,1.5-1.3,2.8-2.5,3.6l-1.2-1.5
				c2-1.2,2.8-3.7,2.8-6.1v-2.3h1.9V177.7z M864,174.5h1.8v13H864v-6.9h-1.7v-1.6h1.7V174.5z M868.7,174.3v13.8h-1.9v-13.8H868.7z"
				/>
			<path class="st10" d="M875.8,177.3c0,2.6,1,5.1,3.3,6.2l-1.2,1.6c-1.5-0.7-2.5-2.1-3.1-3.7c-0.6,1.8-1.6,3.2-3.2,4l-1.2-1.6
				c2.3-1.1,3.4-3.8,3.4-6.4v-2h2V177.3z M882.2,174.3v13.9h-2v-7.9h-2.7v-1.6h2.7v-4.3H882.2z"/>
			<path class="st10" d="M897.2,182.9c-2.9,0.5-6,0.5-8.5,0.5l-0.2-1.5c1,0,2.1,0,3.3,0v-0.8c-1.5-0.2-2.4-0.9-2.4-2
				c0-1.3,1.3-2,3.4-2s3.4,0.8,3.4,2c0,1-0.9,1.8-2.4,2v0.7c1.1,0,2.2-0.1,3.3-0.3L897.2,182.9z M896.7,176.7h-7.8v-1.4h2.9v-1.1h2
				v1.1h2.9V176.7z M890.2,184.2h9.4v3.9h-2v-2.3h-7.4V184.2z M892.8,179.9c0.9,0,1.5-0.3,1.5-0.8s-0.6-0.8-1.5-0.8
				c-0.9,0-1.5,0.3-1.5,0.8S891.8,179.9,892.8,179.9z M901.3,179.9h-1.7v3.8h-2v-9.4h2v4h1.7V179.9z"/>
			<path class="st10" d="M906.4,182.2c-2.1,0-3.8-1.5-3.8-3.5c0-2,1.6-3.5,3.8-3.5s3.8,1.5,3.8,3.5
				C910.2,180.7,908.5,182.2,906.4,182.2z M906.4,180.5c1,0,1.8-0.7,1.8-1.8c0-1.1-0.8-1.8-1.8-1.8c-1,0-1.8,0.7-1.8,1.8
				C904.6,179.8,905.4,180.5,906.4,180.5z M914.3,186.3v1.6h-9.5v-4.6h2v3H914.3z M913.9,184.2h-2v-9.9h2V184.2z"/>
		</g>
		<g>
			<path class="st0" d="M786,184.1c0-1.5,1-2.5,2-3V181c-0.8-0.6-1.5-1.4-1.5-2.5c0-1.7,1.3-2.8,3-2.8c1.9,0,3,1.2,3,2.9
				c0,1.2-0.8,2.1-1.5,2.7v0.1c1,0.6,1.9,1.4,1.9,2.9c0,1.6-1.4,2.8-3.5,2.8C787.5,187,786,185.8,786,184.1z M791.7,184.1
				c0-1.5-1.3-2-2.9-2.7c-0.9,0.6-1.5,1.4-1.5,2.5c0,1.2,1,2,2.3,2C790.8,186,791.7,185.2,791.7,184.1z M791.4,178.6
				c0-1.1-0.7-2-1.9-2c-1,0-1.7,0.7-1.7,1.8c0,1.3,1.2,1.9,2.5,2.4C791,180.2,791.4,179.4,791.4,178.6z"/>
		</g>
	</g>
</g>
</svg>
