<?xml version="1.0" encoding="utf-8"?>
<!-- Generator: Adobe Illustrator 26.2.1, SVG Export Plug-In . SVG Version: 6.00 Build 0)  -->
<svg version="1.1" id="Layer_1" xmlns="http://www.w3.org/2000/svg" xmlns:xlink="http://www.w3.org/1999/xlink" x="0px" y="0px"
	 viewBox="0 0 207.8 207.8" style="enable-background:new 0 0 207.8 207.8;" xml:space="preserve">
<style type="text/css">
	.st0{fill:none;stroke:#30B6B2;stroke-width:5;stroke-linecap:round;stroke-linejoin:round;stroke-miterlimit:10;}
	.st1{fill:none;stroke:#4D4A49;stroke-width:5;stroke-linecap:round;stroke-linejoin:round;stroke-miterlimit:10;}
	.st2{fill:none;stroke:#2EB5B0;stroke-width:6;stroke-linecap:round;stroke-linejoin:round;stroke-miterlimit:10;}
	.st3{fill:#2EB5B0;stroke:#2EB5B0;stroke-width:2;stroke-linecap:round;stroke-linejoin:round;stroke-miterlimit:10;}
	.st4{font-family:'ACaslonPro-Regular';}
	.st5{font-size:54.5875px;}
</style>
<g>
	<g>
		<line class="st0" x1="66.7" y1="80.4" x2="66.7" y2="31.9"/>
		<line class="st0" x1="45.9" y1="73.1" x2="45.9" y2="39.1"/>
		<line class="st0" x1="87.4" y1="73.1" x2="87.4" y2="39.1"/>
		<line class="st0" x1="56.3" y1="64.9" x2="56.3" y2="47.4"/>
		<line class="st0" x1="77.1" y1="64.9" x2="77.1" y2="47.4"/>
		<line class="st0" x1="35.4" y1="62.7" x2="35.4" y2="49.5"/>
		<line class="st0" x1="97.9" y1="62.7" x2="97.9" y2="49.5"/>
	</g>
	<g>
		<path class="st1" d="M116.7,67c1.2-3.5,1.8-7.1,1.8-10.8c0-22.6-23.2-40.8-51.8-40.8C38.3,15.3,15,33.6,15,56.2
			c0,16.4,12.3,30.5,29.9,37"/>
		<path class="st1" d="M63.1,96.9c1.2,0.1,2.5,0.1,3.7,0.1"/>
		<path class="st1" d="M63,96.7c-13.3,16.9-31.6,10.1-31.6,10.1s10.1-5.2,13.5-13.7"/>
	</g>
</g>
<path class="st2" d="M127.7,26.5H147c10.3,0,18.8,8.4,18.8,18.8v19.9"/>
<polyline class="st2" points="177,54.2 166,65.2 154.7,53.9 "/>
<g>
	<path class="st1" d="M102.9,85.7h78.4c6.7,0,12.1,5.3,12.1,12.1v92.1H115V97.7C115,91,109.7,85.6,102.9,85.7
		c-6.8-0.1-12.1,5.4-12.1,12v14h14.5"/>
</g>
<text transform="matrix(1 0 0 1 134.9581 151.5257)" class="st3 st4 st5">T</text>
<line class="st0" x1="136.6" y1="169.9" x2="171.2" y2="169.9"/>
</svg>
