<svg width="151" height="28" viewBox="0 0 151 28" fill="none" xmlns="http://www.w3.org/2000/svg">
<path d="M11.4603 20.6984L7.66163 15.9224L13.1814 8.98114H10.1662C8.8158 8.98114 7.8894 9.40051 7.06856 10.3852L4.15997 14.0377V7.81635V3.99992H1.24086C0.556701 3.99992 0 4.57037 0 5.27185V7.81635V20.6984V23.9993H2.91911C3.60327 23.9993 4.15997 23.4289 4.15997 22.7276V20.6984V17.7454L6.52442 20.7086L8.5345 23.2363C8.94025 23.7556 9.47367 23.997 10.0221 23.997H14.0942L11.4603 20.6984Z" fill="black"/>
<path d="M18.9475 23.9993C16.696 23.9993 15.1444 22.4165 15.1444 20.1196V5.26962C15.1444 4.57012 15.7033 4 16.3904 4H19.3107V19.3221C19.3107 19.9525 19.811 20.4649 20.4262 20.4649H23.3975V22.7281C23.3975 23.4293 22.8385 24 22.1513 24L18.9475 23.9993Z" fill="black"/>
<mask id="mask0_1019_12775" style="mask-type:luminance" maskUnits="userSpaceOnUse" x="15" y="11" width="5" height="3">
<path d="M15.1288 11.525H19.3251V13.7744H15.1288V11.525Z" fill="white"/>
</mask>
<g mask="url(#mask0_1019_12775)">
<path d="M15.1288 13.7744H19.3251V11.525H15.1288V13.7744Z" fill="url(#paint0_linear_1019_12775)"/>
</g>
<mask id="mask1_1019_12775" style="mask-type:luminance" maskUnits="userSpaceOnUse" x="7" y="9" width="6" height="7">
<path d="M7.10924 9.50681H12.276V15.9358H7.10924V9.50681Z" fill="white"/>
</mask>
<g mask="url(#mask1_1019_12775)">
<g opacity="0.25">
<path d="M7.15784 15.9358C7.15784 15.9358 11.7651 10.1462 12.276 9.50681H12.2092C12.0777 9.67202 7.10924 15.9164 7.10924 15.9164L7.15784 15.9358Z" fill="url(#paint1_radial_1019_12775)"/>
</g>
</g>
<mask id="mask2_1019_12775" style="mask-type:luminance" maskUnits="userSpaceOnUse" x="3" y="9" width="10" height="8">
<path d="M3.65521 9.43693H12.7684V16.0234H3.65521V9.43693Z" fill="white"/>
</mask>
<g mask="url(#mask2_1019_12775)">
<path d="M10.3808 9.43693C9.4591 9.43693 8.43378 9.91207 7.1189 10.3368L3.65521 14.6874L7.58141 16.0234C12.3533 10.0255 12.3047 10.0867 12.7684 9.50748C12.1474 9.50748 10.3808 9.43693 10.3808 9.43693Z" fill="url(#paint2_linear_1019_12775)"/>
</g>
<path d="M20.7046 9.47687C18.3495 9.47687 9.80826 9.48256 9.80826 9.48256C8.33063 9.48256 7.35712 10.0162 6.66964 10.871L4.57201 13.5114C5.33556 12.9233 6.3818 12.5735 7.451 12.5735H20.7046C22.3849 12.5735 24 12.0487 24 10.6969C24 9.34912 23.8483 8.60273 23.8483 8.60273C23.8483 8.60273 23.0591 9.47687 20.7046 9.47687ZM4.55721 13.5229C4.55978 13.5207 4.56053 13.5259 4.56053 13.5259L4.57201 13.5114C4.56708 13.5153 4.56214 13.5191 4.55721 13.5229Z" fill="url(#paint3_linear_1019_12775)"/>
<path d="M23.7396 8.15144C23.7316 8.15955 22.9496 8.97386 20.7047 8.97386H10.0927C8.41755 8.97386 7.62911 9.67041 7.02671 10.4234L4.58888 13.4902C4.58888 13.4902 5.74047 12.376 7.43267 12.376H20.7047C22.1574 12.376 23.1539 12.085 23.6657 11.5119C24.0312 11.1026 23.9992 10.6998 23.9983 10.6968L23.9972 7.87339L23.7396 8.15144Z" fill="url(#paint4_linear_1019_12775)"/>
<path d="M41.8433 10.9556C41.3528 9.32861 40.0488 8.33569 38.1587 8.32373C35.479 8.33569 33.6606 10.3813 33.6606 14.0181C33.6606 17.6787 35.4192 19.7483 38.1826 19.7603C40.6589 19.7483 42.1304 18.3486 42.1782 16.1714H38.4219V13.4678H45.6475V15.6211C45.6475 20.167 42.5251 22.9424 38.1587 22.9424C33.3018 22.9424 30 19.5449 30 14.0659C30 8.44336 33.5171 5.1416 38.0869 5.1416C41.9988 5.1416 45.0015 7.54614 45.48 10.9556H41.8433Z" fill="black"/>
<path d="M54.0933 22.9663C50.1096 22.9543 47.6692 20.3823 47.6812 16.2671C47.6692 12.2595 50.1455 9.54395 53.9497 9.54395C57.3591 9.54395 60.0508 11.6973 60.0508 16.1235V17.1284H51.1743C51.1743 19.0903 52.3347 20.2986 54.165 20.3105C55.3733 20.2986 56.2346 19.7722 56.5815 18.9946H59.9551C59.4526 21.3992 57.2993 22.9543 54.0933 22.9663ZM51.1743 14.9033H56.7012C56.6892 13.3242 55.6006 12.1877 54.0215 12.1997C52.3945 12.1877 51.2461 13.408 51.1743 14.9033Z" fill="black"/>
<path d="M65.8169 15.1904V22.7031H62.2759V9.71143H65.6494V11.9844H65.793C66.3792 10.489 67.7668 9.54395 69.6929 9.54395C72.4084 9.54395 74.179 11.3982 74.167 14.4248V22.7031H70.6499V15.0469C70.6379 13.4438 69.7766 12.4868 68.3052 12.4868C66.8337 12.4868 65.8169 13.4797 65.8169 15.1904Z" fill="black"/>
<path d="M76.9185 22.7031V9.71143H80.4595V22.7031H76.9185ZM76.751 6.21826C76.751 5.21338 77.6243 4.41187 78.689 4.3999C79.7417 4.41187 80.615 5.21338 80.603 6.21826C80.615 7.19922 79.7417 8.0127 78.689 8.0127C77.6243 8.0127 76.751 7.19922 76.751 6.21826Z" fill="black"/>
<path d="M89.0967 22.9663C85.113 22.9543 82.6726 20.3823 82.6846 16.2671C82.6726 12.2595 85.1489 9.54395 88.9531 9.54395C92.3625 9.54395 95.0542 11.6973 95.0542 16.1235V17.1284H86.1777C86.1777 19.0903 87.3381 20.2986 89.1685 20.3105C90.3767 20.2986 91.238 19.7722 91.585 18.9946H94.9585C94.4561 21.3992 92.3027 22.9543 89.0967 22.9663ZM86.1777 14.9033H91.7046C91.6926 13.3242 90.604 12.1877 89.0249 12.1997C87.3979 12.1877 86.2495 13.408 86.1777 14.9033Z" fill="black"/>
<path d="M97.3511 22.7031V5.38086H100.94V19.7363H108.405V22.7031H97.3511Z" fill="black"/>
<path d="M110.032 19.0664C110.044 16.1714 112.365 15.2263 114.865 15.0708C115.798 15.011 117.544 14.9272 118.095 14.9033V13.8506C118.083 12.762 117.341 12.1399 116.013 12.1279C114.805 12.1399 114.051 12.6782 113.86 13.5635H110.486C110.702 11.3145 112.664 9.54395 116.109 9.54395C118.944 9.54395 121.624 10.812 121.612 13.9463V22.7031H118.262V20.9087H118.167C117.532 22.105 116.288 22.9543 114.362 22.9424C111.874 22.9543 110.044 21.6384 110.032 19.0664ZM113.429 18.9707C113.429 19.9636 114.231 20.49 115.367 20.502C116.982 20.49 118.107 19.4373 118.095 18.0615V17.1165C117.556 17.1404 116.037 17.2241 115.439 17.272C114.207 17.3796 113.429 17.9658 113.429 18.9707Z" fill="black"/>
<path d="M124.387 22.7031V5.38086H127.928V11.8887H128.024C128.514 10.8359 129.543 9.54395 131.732 9.54395C134.604 9.54395 137.008 11.769 137.02 16.2192C137.008 20.5618 134.699 22.9185 131.732 22.9185C129.615 22.9185 128.538 21.6982 128.024 20.6216H127.88V22.7031H124.387ZM127.856 16.1953C127.844 18.54 128.861 20.0833 130.608 20.0952C132.414 20.0833 133.395 18.4922 133.383 16.1953C133.395 13.9343 132.438 12.3672 130.608 12.3672C128.849 12.3672 127.844 13.8625 127.856 16.1953Z" fill="black"/>
<path d="M146.71 13.5635C146.554 12.6543 145.765 12.0681 144.581 12.0562C143.432 12.0681 142.559 12.6064 142.571 13.396C142.559 13.9822 143.013 14.4368 144.246 14.688L146.566 15.1665C149.091 15.6929 150.311 16.8174 150.323 18.6836C150.311 21.2437 148.014 22.9543 144.557 22.9663C141.052 22.9543 138.994 21.3872 138.695 18.8511H142.26C142.427 19.8679 143.253 20.3943 144.557 20.4062C145.849 20.3943 146.71 19.8799 146.71 19.0425C146.71 18.3726 146.16 17.9539 144.939 17.7026L142.786 17.272C140.31 16.7815 139.042 15.5134 139.054 13.5874C139.042 11.0991 141.183 9.54395 144.533 9.54395C147.811 9.54395 149.844 11.0991 150.036 13.5635H146.71Z" fill="black"/>
<defs>
<linearGradient id="paint0_linear_1019_12775" x1="17.227" y1="13.7666" x2="17.227" y2="12.939" gradientUnits="userSpaceOnUse">
<stop/>
<stop offset="1" stop-color="#BEC0C2"/>
</linearGradient>
<radialGradient id="paint1_radial_1019_12775" cx="0" cy="0" r="1" gradientUnits="userSpaceOnUse" gradientTransform="translate(8.36702 14.4187) scale(1.82984 1.86855)">
<stop stop-color="white"/>
<stop offset="1" stop-color="#292929"/>
</radialGradient>
<linearGradient id="paint2_linear_1019_12775" x1="8.21176" y1="13.9894" x2="8.21176" y2="11.9691" gradientUnits="userSpaceOnUse">
<stop/>
<stop offset="0.533708" stop-color="#BEC0C2"/>
<stop offset="1" stop-color="white"/>
</linearGradient>
<linearGradient id="paint3_linear_1019_12775" x1="23.8864" y1="8.75095" x2="4.4747" y2="13.7267" gradientUnits="userSpaceOnUse">
<stop stop-color="#D0363A"/>
<stop offset="0.477528" stop-color="#A43436"/>
<stop offset="0.674534" stop-color="#A43436"/>
<stop offset="0.825843" stop-color="#D0363A"/>
<stop offset="0.926966" stop-color="#9D3335"/>
<stop offset="0.972356" stop-color="#9D3335"/>
<stop offset="1" stop-color="#422F2F"/>
</linearGradient>
<linearGradient id="paint4_linear_1019_12775" x1="9.87297" y1="6.89442" x2="20.2822" y2="15.4479" gradientUnits="userSpaceOnUse">
<stop stop-color="#BA3538"/>
<stop offset="0.0168539" stop-color="#D83539"/>
<stop offset="0.0847105" stop-color="#F3795E"/>
<stop offset="0.11236" stop-color="#F3795E"/>
<stop offset="0.140094" stop-color="#F3795E"/>
<stop offset="0.477528" stop-color="#EE363A"/>
<stop offset="0.625299" stop-color="#EE363A"/>
<stop offset="0.707865" stop-color="#EE363A"/>
<stop offset="1" stop-color="#D83539"/>
</linearGradient>
</defs>
</svg>
