<svg width="64" height="64" viewBox="0 0 64 64" fill="none" xmlns="http://www.w3.org/2000/svg">
<rect width="64" height="64" rx="32" fill="#F4F4F4"/>
<path d="M49.2671 31.8737C49.2672 31.8737 49.2666 31.8755 49.2651 31.8794C49.2662 31.8757 49.267 31.8738 49.2671 31.8737ZM49.0203 31.7139C49.1026 31.8312 49.1629 31.9266 49.2046 32C49.1629 32.0734 49.1026 32.1688 49.0203 32.2861C48.8054 32.5925 48.475 32.9994 48.035 33.475C47.1568 34.4241 45.8751 35.6104 44.2861 36.769C41.0966 39.0945 36.7505 41.25 32 41.25C27.2495 41.25 22.9034 39.0945 19.7139 36.769C18.1249 35.6104 16.8432 34.4241 15.965 33.475C15.525 32.9994 15.1946 32.5925 14.9797 32.2861C14.8974 32.1687 14.8371 32.0734 14.7954 32C14.8371 31.9266 14.8974 31.8313 14.9797 31.7139C15.1946 31.4075 15.525 31.0006 15.965 30.525C16.8432 29.5759 18.1249 28.3896 19.7139 27.231C22.9034 24.9055 27.2495 22.75 32 22.75C36.7505 22.75 41.0966 24.9055 44.2861 27.231C45.8751 28.3896 47.1568 29.5759 48.035 30.525C48.475 31.0006 48.8054 31.4075 49.0203 31.7139ZM14.7329 31.8737C14.733 31.8738 14.7338 31.8757 14.7349 31.8794C14.7334 31.8755 14.7328 31.8737 14.7329 31.8737ZM14.7329 32.1263C14.7328 32.1263 14.7334 32.1245 14.7349 32.1206C14.7338 32.1243 14.733 32.1262 14.7329 32.1263ZM49.2651 32.1206C49.2666 32.1244 49.2672 32.1263 49.2671 32.1263C49.267 32.1262 49.2663 32.1243 49.2651 32.1206Z" stroke="black" stroke-width="1.5"/>
<circle cx="32" cy="32" r="5.25" stroke="black" stroke-width="1.5"/>
<circle cx="32" cy="32" r="2.25" stroke="black" stroke-width="1.5"/>
<path d="M42 46.5L46.5 46.5L46.5 42" stroke="black" stroke-width="1.5"/>
<path d="M17.5 42L17.5 46.5L22 46.5" stroke="black" stroke-width="1.5"/>
<path d="M22 17.5H17.5V22" stroke="black" stroke-width="1.5"/>
<path d="M46.5 22L46.5 17.5L42 17.5" stroke="black" stroke-width="1.5"/>
</svg>
