<svg width="24" height="24" viewBox="0 0 24 24" fill="none" xmlns="http://www.w3.org/2000/svg">
<path d="M21.005 13.7086C20.4823 13.7086 20.0584 14.1304 20.0584 14.6506V19.8986C20.0584 20.0181 19.9601 20.116 19.84 20.116H4.11167C3.99152 20.116 3.89322 20.0181 3.89322 19.8986V4.24763C3.89322 4.12808 3.99152 4.03026 4.11167 4.03026H9.31282C9.83554 4.03026 10.2594 3.60845 10.2594 3.0883C10.2594 2.56816 9.83554 2.14635 9.31282 2.14635H4.11167C2.94713 2.14635 2 3.08882 2 4.24763V19.8986C2 21.0574 2.94713 21.9999 4.11167 21.9999H19.84C21.0045 21.9999 21.9516 21.0574 21.9516 19.8986V14.6506C21.9516 14.1304 21.5277 13.7086 21.005 13.7086ZM22 2.94132C22 2.87973 21.9938 2.81814 21.9818 2.75758C21.9756 2.72756 21.9641 2.70013 21.9558 2.67115C21.9469 2.64113 21.9402 2.61111 21.9277 2.58161C21.9131 2.54642 21.8934 2.51485 21.8747 2.48172C21.8627 2.46102 21.8544 2.43928 21.8408 2.41962C21.806 2.36786 21.7659 2.31973 21.7217 2.27574C21.7217 2.27574 21.7217 2.27522 21.7212 2.2747C21.715 2.26849 21.7077 2.26435 21.7009 2.25814C21.6619 2.22191 21.6219 2.18775 21.5771 2.15825C21.5537 2.14272 21.5277 2.13134 21.5028 2.11788C21.4731 2.10184 21.4456 2.08476 21.4143 2.07182C21.3826 2.05888 21.3493 2.05112 21.3166 2.0418C21.29 2.03455 21.2646 2.02369 21.2375 2.01851C21.185 2.00816 21.1314 2.00402 21.0778 2.00247C21.0695 2.00247 21.0617 1.99988 21.0539 1.99988H14.5005C13.9777 1.99988 13.5538 2.42169 13.5538 2.94183C13.5538 3.46198 13.9777 3.88379 14.5005 3.88379H18.78L8.85616 13.8452C8.4874 14.2142 8.49 14.8105 8.86084 15.1774C9.04548 15.3601 9.28682 15.4512 9.52763 15.4512C9.76844 15.4512 10.0145 15.3586 10.1991 15.1728L20.1068 5.22841V9.46462C20.1068 9.98476 20.5307 10.4066 21.0534 10.4066C21.5761 10.4066 22 9.98476 22 9.46462V2.94339C22 2.94339 22 2.94183 22 2.94132Z" fill="#00D9C3"/>
</svg>
