<?xml version="1.0" encoding="utf-8"?>
<!-- Generator: Adobe Illustrator 26.2.1, SVG Export Plug-In . SVG Version: 6.00 Build 0)  -->
<svg version="1.1" id="레이어_1" xmlns="http://www.w3.org/2000/svg" xmlns:xlink="http://www.w3.org/1999/xlink" x="0px"
	 y="0px" viewBox="0 0 200 200" style="enable-background:new 0 0 200 200;" xml:space="preserve">
<style type="text/css">
	.st0{fill:none;stroke:#2EB5B2;stroke-width:4;stroke-linecap:round;stroke-linejoin:round;stroke-miterlimit:10;}
	.st1{fill:none;stroke:#FFFFFF;stroke-width:4;stroke-linecap:round;stroke-linejoin:round;stroke-miterlimit:10;}
</style>
<g>
	<line class="st0" x1="100.1" y1="56.6" x2="100.1" y2="127.7"/>
	<line class="st0" x1="121.3" y1="71.7" x2="121.3" y2="112.6"/>
	<line class="st0" x1="78.8" y1="71.7" x2="78.8" y2="112.6"/>
	<line class="st0" x1="110.7" y1="81.6" x2="110.7" y2="102.7"/>
	<line class="st0" x1="89.4" y1="81.6" x2="89.4" y2="102.7"/>
	<line class="st0" x1="132" y1="84.2" x2="132" y2="100.1"/>
	<line class="st0" x1="142.6" y1="90.6" x2="142.6" y2="93.7"/>
	<line class="st0" x1="57.5" y1="90.6" x2="57.5" y2="93.7"/>
	<line class="st0" x1="68.2" y1="84.2" x2="68.2" y2="100.1"/>
	<path class="st1" d="M156,70.9V49c0-0.8-0.6-1.3-1.4-1.3h-21.9"/>
	<path class="st1" d="M142.5,137.6h12.2c0.8,0,1.4-0.6,1.4-1.4v-22.4"/>
	<polyline class="st1" points="75.3,137.6 85.8,137.6 107.2,158.3 107.2,137.6 127,137.6 	"/>
	<path class="st1" d="M44,113.9v22.4c0,0.8,0.6,1.4,1.3,1.4h16.1"/>
	<path class="st1" d="M67.4,47.6H45.3c-0.8,0-1.3,0.6-1.3,1.3v21.9"/>
</g>
</svg>
