<?xml version="1.0" encoding="utf-8"?>
<!-- Generator: Adobe Illustrator 26.2.1, SVG Export Plug-In . SVG Version: 6.00 Build 0)  -->
<svg version="1.1" id="레이어_1" xmlns="http://www.w3.org/2000/svg" xmlns:xlink="http://www.w3.org/1999/xlink" x="0px"
	 y="0px" viewBox="0 0 200 200" style="enable-background:new 0 0 200 200;" xml:space="preserve">
<style type="text/css">
	.st0{fill:none;stroke:#2EB5B2;stroke-width:4;stroke-linecap:round;stroke-linejoin:round;stroke-miterlimit:10;}
	.st1{fill:none;stroke:#FFFFFF;stroke-width:4;stroke-linecap:round;stroke-linejoin:round;stroke-miterlimit:10;}
	.st2{fill:#FFFFFF;}
	.st3{fill:#2EB5B2;}
</style>
<g>
	<path class="st0" d="M102.9,81.4c10.3,0,18.6,8.3,18.6,18.6s-8.3,18.6-18.6,18.6"/>
	<path class="st1" d="M71.9,143h22.6v13.3h14.7v-10.6c3.1-0.5,6.2-1.3,9.1-2.4l5.3,9.2l12.7-7.4l-5.3-9.2c2.4-2,4.7-4.2,6.6-6.6
		l9.2,5.3l7.4-12.8l-9.2-5.3c1.1-2.9,1.9-5.9,2.4-9.1h10.6V92.6h-10.6c-0.5-3.1-1.3-6.2-2.4-9.1l9.2-5.3l-7.4-12.8l-9.2,5.3
		c-2-2.4-4.2-4.7-6.6-6.6l5.3-9.2l-12.8-7.4l-5.3,9.2c-2.9-1.1-5.9-1.9-9.1-2.4V43.7H94.5V57H71.9"/>
	<polyline class="st0" points="102,69.5 88.1,69.5 88.1,81.4 55.4,81.4 	"/>
	<polyline class="st0" points="102,130.7 88.1,130.7 88.1,118.7 55.4,118.7 	"/>
	<line class="st0" x1="88.1" y1="100" x2="104.4" y2="100"/>
	<circle class="st2" cx="68.1" cy="57" r="5.4"/>
	<circle class="st3" cx="54.3" cy="81.4" r="5.4"/>
	<circle class="st3" cx="54.3" cy="118.9" r="5.4"/>
	<circle class="st3" cx="84.1" cy="100" r="5.4"/>
	<circle class="st2" cx="67.7" cy="143" r="5.4"/>
</g>
</svg>
