<?xml version="1.0" encoding="utf-8"?>
<!-- Generator: Adobe Illustrator 26.2.1, SVG Export Plug-In . SVG Version: 6.00 Build 0)  -->
<svg version="1.1" id="Layer_1" xmlns="http://www.w3.org/2000/svg" xmlns:xlink="http://www.w3.org/1999/xlink" x="0px" y="0px"
	 viewBox="0 0 20 40" style="enable-background:new 0 0 20 40;" xml:space="preserve">
<style type="text/css">
	.st0{fill:none;}
	.st1{fill:none;stroke:#666666;stroke-width:1.5;stroke-linecap:round;stroke-linejoin:round;stroke-miterlimit:10;}
	.st2{fill:none;stroke:#2EB5B2;stroke-width:1.5;stroke-linecap:round;stroke-linejoin:round;stroke-miterlimit:10;}
</style>
<rect class="st0" width="20" height="20"/>
<g>
	<polygon class="st1" points="8.8,3.6 4.5,7.6 1,7.6 1,12.4 4.5,12.4 8.8,16.4 	"/>
	<path class="st1" d="M12,7.5c1.4,0,2.5,1.1,2.5,2.5s-1.1,2.5-2.5,2.5"/>
	<path class="st1" d="M12,3.6c3.5,0,6.4,2.9,6.4,6.4s-2.9,6.4-6.4,6.4"/>
</g>
<rect y="20" class="st0" width="20" height="20"/>
<g>
	<polygon class="st2" points="8.8,23.6 4.5,27.6 1,27.6 1,32.4 4.5,32.4 8.8,36.4 	"/>
	<path class="st2" d="M12,27.5c1.4,0,2.5,1.1,2.5,2.5s-1.1,2.5-2.5,2.5"/>
	<path class="st2" d="M12,23.6c3.5,0,6.4,2.9,6.4,6.4s-2.9,6.4-6.4,6.4"/>
</g>
</svg>
