<?xml version="1.0" encoding="utf-8"?>
<!-- Generator: Adobe Illustrator 26.2.1, SVG Export Plug-In . SVG Version: 6.00 Build 0)  -->
<svg version="1.1" id="Layer_1" xmlns="http://www.w3.org/2000/svg" xmlns:xlink="http://www.w3.org/1999/xlink" x="0px" y="0px"
	 viewBox="0 0 20 60" style="enable-background:new 0 0 20 60;" xml:space="preserve">
<style type="text/css">
	.st0{fill:none;stroke:#2FB5B2;stroke-linecap:round;stroke-linejoin:round;stroke-miterlimit:10;}
	.st1{fill:#92D6D1;stroke:#2FB5B2;stroke-linecap:round;stroke-linejoin:round;stroke-miterlimit:10;}
	.st2{fill:none;}
	.st3{fill:none;stroke:#AAAAAA;stroke-linecap:round;stroke-linejoin:round;stroke-miterlimit:10;}
</style>
<path class="st0" d="M18.9,10l-6.8-7.7v4.9c-9.8,1-11,10.1-11,10.1c6.3-7,11-5,11-5v5.5L18.9,10z"/>
<path class="st1" d="M18.9,30l-6.8-7.7v4.9c-9.8,1-11,10.1-11,10.1c6.3-7,11-5,11-5v5.5L18.9,30z"/>
<rect y="0" class="st2" width="20" height="20"/>
<path class="st3" d="M18.9,50l-6.8-7.7v4.9c-9.8,1-11,10.1-11,10.1c6.3-7,11-5,11-5v5.5L18.9,50z"/>
<rect y="40" class="st2" width="20" height="20"/>
<rect y="20" class="st2" width="20" height="20"/>
</svg>
