<?xml version="1.0" encoding="utf-8"?>
<!-- Generator: Adobe Illustrator 26.2.1, SVG Export Plug-In . SVG Version: 6.00 Build 0)  -->
<svg version="1.1" id="레이어_1" xmlns="http://www.w3.org/2000/svg" xmlns:xlink="http://www.w3.org/1999/xlink" x="0px"
	 y="0px" viewBox="0 0 200 200" style="enable-background:new 0 0 200 200;" xml:space="preserve">
<style type="text/css">
	.st0{fill:none;stroke:#2EB4B0;stroke-width:4;stroke-linecap:round;stroke-linejoin:round;stroke-miterlimit:10;}
	.st1{fill:none;stroke:#FFFFFF;stroke-width:4;stroke-linecap:round;stroke-linejoin:round;stroke-miterlimit:10;}
</style>
<g>
	<polyline class="st0" points="80,36.9 67.3,50.9 79.7,64.6 	"/>
	<polyline class="st0" points="120,36.9 132.7,50.9 120.3,64.6 	"/>
	<line class="st0" x1="108" y1="36.9" x2="92" y2="64.6"/>
	<polyline class="st1" points="100,163.1 49.9,141.3 49.9,106.4 	"/>
	<polyline class="st1" points="100,163.1 150.1,141.3 150.1,117.5 	"/>
	<line class="st1" x1="100" y1="147.7" x2="100" y2="104.4"/>
	<polygon class="st1" points="100,104.4 115.2,121.3 164.6,100.2 150.1,84.5 	"/>
	<polygon class="st1" points="100,104.4 84.8,121.3 35.4,100.2 49.9,84.5 	"/>
	<line class="st1" x1="49.9" y1="84.5" x2="68.8" y2="78.7"/>
	<line class="st1" x1="150.1" y1="84.5" x2="132.3" y2="79"/>
	<line class="st1" x1="100.6" y1="78.3" x2="100.6" y2="78.3"/>
	<line class="st1" x1="100.6" y1="86.8" x2="100.6" y2="86.8"/>
</g>
</svg>
