<?xml version="1.0" encoding="utf-8"?>
<!-- Generator: Adobe Illustrator 26.0.3, SVG Export Plug-In . SVG Version: 6.00 Build 0)  -->
<svg version="1.1" id="Layer_1" xmlns="http://www.w3.org/2000/svg" xmlns:xlink="http://www.w3.org/1999/xlink" x="0px" y="0px"
	 viewBox="0 0 20 20" style="enable-background:new 0 0 20 20;" xml:space="preserve">
<style type="text/css">
	.st0{fill:none;stroke:#C6C6C6;stroke-linecap:round;stroke-linejoin:round;stroke-miterlimit:10;}
	.st1{fill:none;}
	.st2{fill:#2FB5B2;}
	.st3{fill:#FFFFFF;stroke:#FFFFFF;stroke-width:0.25;stroke-linejoin:round;stroke-miterlimit:10;}
</style>
<g>
	<line class="st0" x1="13.5" y1="2.1" x2="12.1" y2="3.6"/>
	<line class="st0" x1="15.7" y1="4.3" x2="14.2" y2="5.8"/>
	<line class="st0" x1="17.9" y1="6.5" x2="16.4" y2="7.9"/>
</g>
<g>
	<line class="st0" x1="2.2" y1="6.6" x2="3.7" y2="8.1"/>
	<line class="st0" x1="4.4" y1="4.4" x2="5.9" y2="5.9"/>
	<line class="st0" x1="6.6" y1="2.2" x2="8.1" y2="3.7"/>
</g>
<g>
	<line class="st0" x1="6.6" y1="17.8" x2="8.1" y2="16.3"/>
	<line class="st0" x1="4.4" y1="15.6" x2="5.9" y2="14.1"/>
	<line class="st0" x1="2.2" y1="13.4" x2="3.7" y2="11.9"/>
</g>
<g>
	<line class="st0" x1="17.8" y1="13.4" x2="16.3" y2="11.9"/>
	<line class="st0" x1="15.6" y1="15.6" x2="14.1" y2="14.1"/>
	<line class="st0" x1="13.4" y1="17.8" x2="11.9" y2="16.3"/>
</g>
<rect class="st1" width="20" height="20"/>
<path class="st2" d="M8.9,17.9l-6.8-6.8c-0.6-0.6-0.6-1.6,0-2.2l6.8-6.8c0.6-0.6,1.6-0.6,2.2,0l6.8,6.8c0.6,0.6,0.6,1.6,0,2.2
	l-6.8,6.8C10.5,18.5,9.5,18.5,8.9,17.9z"/>
<g>
	<path class="st3" d="M5.2,10c0-1.1,0.7-1.8,1.6-1.8c0.5,0,0.8,0.2,1.1,0.4L7.5,9.1C7.3,8.9,7.2,8.8,6.8,8.8c-0.6,0-1,0.4-1,1.2
		c0,0.7,0.3,1.2,1,1.2c0.2,0,0.3,0,0.4-0.1v-0.7H6.7V9.8h1.2v1.5c-0.2,0.2-0.6,0.4-1.1,0.4C5.9,11.8,5.2,11.1,5.2,10z"/>
	<path class="st3" d="M9,8.3h1.1c0.8,0,1.3,0.3,1.3,1.1c0,0.8-0.6,1.1-1.3,1.1H9.7v1.2H9V8.3z M10.1,10c0.5,0,0.7-0.2,0.7-0.6
		c0-0.4-0.2-0.5-0.7-0.5H9.7V10H10.1z"/>
	<path class="st3" d="M12.2,10.2V8.3h0.7v1.9c0,0.7,0.2,0.9,0.6,0.9c0.4,0,0.7-0.2,0.7-0.9V8.3h0.7v1.9c0,1.1-0.5,1.6-1.3,1.6
		C12.7,11.8,12.2,11.3,12.2,10.2z"/>
</g>
</svg>
