<?xml version="1.0" encoding="utf-8"?>
<!-- Generator: Adobe Illustrator 26.2.1, SVG Export Plug-In . SVG Version: 6.00 Build 0)  -->
<svg version="1.1" id="레이어_1" xmlns="http://www.w3.org/2000/svg" xmlns:xlink="http://www.w3.org/1999/xlink" x="0px"
	 y="0px" viewBox="0 0 200 200" style="enable-background:new 0 0 200 200;" xml:space="preserve">
<style type="text/css">
	.st0{fill:none;stroke:#FFFFFF;stroke-width:4;stroke-linecap:round;stroke-linejoin:round;stroke-miterlimit:10;}
	.st1{fill:none;stroke:#2EB5B2;stroke-width:4;stroke-linecap:round;stroke-linejoin:round;stroke-miterlimit:10;}
	.st2{fill:#2EB5B2;}
</style>
<g>
	<path class="st0" d="M127.9,85.9c0-10.1,3.1-15.5,18.2-15.5"/>
	<path class="st1" d="M108.7,78.2c-0.2,5.8-0.2,5.8,4.3,10c3.3,3.1,8.5,6.5,8.1,9.9v8.3v42.8"/>
	<path class="st1" d="M72.8,92.6c4.8,2,6,6.9,6,13.9v42.8"/>
	<path class="st0" d="M78.6,77.2c0.7-4.6,5.1-8.7,8.7-8.7"/>
	<path class="st0" d="M62.9,73.2c10.7,0,24.4,6.1,24.4,21.5"/>
	<path class="st0" d="M118.6,62.7c0,4.8-3.4,8.7-8.2,8.7c-3.8,0-7.5-2.4-8.7-5.8"/>
	<path class="st1" d="M146.9,88.9c-6.4,2.6-7.6,10-7.6,17.6v29h19.6"/>
	<line class="st1" x1="100" y1="113.7" x2="100" y2="128.7"/>
	<polyline class="st1" points="62.6,114.8 62.6,136.4 41.1,136.4 	"/>
	<circle class="st2" cx="121.1" cy="149.2" r="5.4"/>
	<circle class="st2" cx="158.9" cy="135.4" r="5.4"/>
	<circle class="st2" cx="100" cy="129.8" r="5.4"/>
	<circle class="st2" cx="41.1" cy="136.4" r="5.4"/>
	<circle class="st2" cx="78.8" cy="149.2" r="5.4"/>
	<line class="st0" x1="111.1" y1="106.5" x2="88.4" y2="106.5"/>
	<line class="st0" x1="131.6" y1="106.5" x2="129.2" y2="106.5"/>
	<path class="st0" d="M146.1,106.5c0.8,0,19.4,0.5,19.4-13.9c0-17.4-8.7-21.2-19.4-22.2c0-12.5-9.6-16.8-20.3-15.7
		c-4-8.2-22.7-19-35.1-1c-7.7-5.1-29.3,1.6-27.7,19.4c-25.2,0-26.3,33.3-5.5,33.3h13.9"/>
</g>
</svg>
