<svg width="64" height="64" viewBox="0 0 64 64" fill="none" xmlns="http://www.w3.org/2000/svg">
<rect width="64" height="64" rx="32" fill="#F4F4F4"/>
<path d="M30.0002 32C30.0002 37 33.8399 41.8 39.3998 41.8C44.9597 41.8 49.1998 37.5 49.1998 32C49.1998 26.5 44.9597 22.2 39.3998 22.2C35.4998 22.2 33.5002 24.5 32.0002 25.8" stroke="black" stroke-width="1.5" stroke-linecap="square"/>
<path d="M43.5002 34.8C43.5002 34.8 42.0002 36.6 39.5002 36.6C37.0002 36.6 35.5002 34.8 35.5002 34.8" stroke="black"/>
<path d="M37.0002 29.5L37.0002 30.5" stroke="black" stroke-width="1.5" stroke-linecap="square" stroke-linejoin="round"/>
<path d="M42.0002 29.5L42.0002 30.5" stroke="black" stroke-width="1.5" stroke-linecap="square" stroke-linejoin="round"/>
<path d="M34.0002 32C34.0002 27 30.1606 22.2 24.6007 22.2C19.0408 22.2 14.8007 26.5 14.8007 32C14.8007 37.5 19.0408 41.8 24.6007 41.8C28.5007 41.8 30.5002 39.5 32.0002 38.2" stroke="black" stroke-width="1.5" stroke-linecap="square"/>
<path d="M20.5002 36.2C20.5002 36.2 22.0002 34.4 24.5002 34.4C27.0002 34.4 28.5002 36.2 28.5002 36.2" stroke="black" stroke-linecap="square"/>
<path d="M22.0002 29.5L22.0002 30.5" stroke="black" stroke-width="1.5" stroke-linecap="square" stroke-linejoin="round"/>
<path d="M27.0002 29.5L27.0002 30.5" stroke="black" stroke-width="1.5" stroke-linecap="square" stroke-linejoin="round"/>
</svg>
