<?xml version="1.0" encoding="utf-8"?>
<!-- Generator: Adobe Illustrator 26.2.1, SVG Export Plug-In . SVG Version: 6.00 Build 0)  -->
<svg version="1.1" id="Layer_1" xmlns="http://www.w3.org/2000/svg" xmlns:xlink="http://www.w3.org/1999/xlink" x="0px" y="0px"
	 viewBox="0 0 20 40" style="enable-background:new 0 0 20 40;" xml:space="preserve">
<style type="text/css">
	.st0{fill:none;}
	.st1{fill:#2FB5B2;}
	.st2{fill:#22DDD3;}
	.st3{fill:none;stroke:#FFFFFF;stroke-width:0.75;stroke-linecap:round;stroke-linejoin:round;stroke-miterlimit:10;}
</style>
<rect y="0" class="st0" width="20" height="20"/>
<rect y="20" class="st0" width="20" height="20"/>
<g>
	<path class="st1" d="M13.3,14.8c2.7-1,4.5-3.1,4.5-5.6C17.9,5.7,14.3,3,10,3C5.7,3,2.1,5.7,2.1,9.2s3.5,6.2,7.9,6.2
		c0.2,0,0.4,0,0.6,0"/>
	<path class="st1" d="M13.3,14.8c0.5,1.3,2,2.1,2,2.1s-2.8,1-4.8-1.5"/>
</g>
<g>
	<path class="st2" d="M13.3,34.8c2.7-1,4.5-3.1,4.5-5.6c0-3.4-3.5-6.2-7.9-6.2c-4.3,0-7.9,2.8-7.9,6.2s3.5,6.2,7.9,6.2
		c0.2,0,0.4,0,0.6,0"/>
	<path class="st2" d="M13.3,34.8c0.5,1.3,2,2.1,2,2.1s-2.8,1-4.8-1.5"/>
</g>
<g>
	<line class="st3" x1="10.1" y1="6" x2="10.1" y2="12.2"/>
	<line class="st3" x1="14.3" y1="7" x2="14.3" y2="11.3"/>
	<line class="st3" x1="5.9" y1="7" x2="5.9" y2="11.3"/>
	<line class="st3" x1="12.2" y1="8" x2="12.2" y2="10.2"/>
	<line class="st3" x1="8" y1="8" x2="8" y2="10.2"/>
</g>
<g>
	<line class="st3" x1="10.1" y1="26" x2="10.1" y2="32.2"/>
	<line class="st3" x1="14.3" y1="27" x2="14.3" y2="31.3"/>
	<line class="st3" x1="5.9" y1="27" x2="5.9" y2="31.3"/>
	<line class="st3" x1="12.2" y1="28" x2="12.2" y2="30.2"/>
	<line class="st3" x1="8" y1="28" x2="8" y2="30.2"/>
</g>
</svg>
