<?xml version="1.0" encoding="utf-8"?>
<!-- Generator: Adobe Illustrator 26.2.1, SVG Export Plug-In . SVG Version: 6.00 Build 0)  -->
<svg version="1.1" id="레이어_1" xmlns="http://www.w3.org/2000/svg" xmlns:xlink="http://www.w3.org/1999/xlink" x="0px"
	 y="0px" viewBox="0 0 200 200" style="enable-background:new 0 0 200 200;" xml:space="preserve">
<style type="text/css">
	.st0{fill:none;stroke:#FFFFFF;stroke-width:4;stroke-linecap:round;stroke-linejoin:round;stroke-miterlimit:10;}
	.st1{fill:none;stroke:#2EB5B2;stroke-width:4;stroke-linecap:round;stroke-linejoin:round;stroke-miterlimit:10;}
</style>
<g>
	<path class="st0" d="M111.6,116.6V137c0,2.5-2.4,4.5-5.3,4.5H68l-17.8,17.9v-17.9H33c-2.9,0-5.3-2-5.3-4.5V79.8
		c0-2.5,2.4-4.5,5.3-4.5h27.9"/>
	<g>
		<path class="st0" d="M166.6,40.6H81.3c-3.1,0-5.6,2.1-5.6,4.8v52.3c0,2.6,2.5,4.8,5.6,4.8h48.4l19,17v-17h17.8
			c3.1,0,5.6-2.1,5.6-4.8V45.3C172.2,42.7,169.7,40.6,166.6,40.6z"/>
		<line class="st1" x1="95.4" y1="71.5" x2="149.3" y2="71.5"/>
		<line class="st1" x1="95.4" y1="85.7" x2="149.3" y2="85.7"/>
		<line class="st1" x1="95.4" y1="57.2" x2="149.3" y2="57.2"/>
	</g>
	<line class="st1" x1="60.6" y1="92.5" x2="60.6" y2="104.8"/>
	<line class="st1" x1="44.9" y1="113.6" x2="44.9" y2="126"/>
	<line class="st1" x1="76.2" y1="113.6" x2="76.2" y2="126"/>
	<circle class="st1" cx="44.9" cy="98.7" r="6.8"/>
	<circle class="st1" cx="91.9" cy="120" r="6.8"/>
	<circle class="st1" cx="60.6" cy="120" r="6.8"/>
</g>
</svg>
