<?xml version="1.0" encoding="utf-8"?>
<!-- Generator: Adobe Illustrator 26.2.1, SVG Export Plug-In . SVG Version: 6.00 Build 0)  -->
<svg version="1.1" id="Layer_1" xmlns="http://www.w3.org/2000/svg" xmlns:xlink="http://www.w3.org/1999/xlink" x="0px" y="0px"
	 viewBox="0 0 20 40" style="enable-background:new 0 0 20 40;" xml:space="preserve">
<style type="text/css">
	.st0{fill:none;}
	.st1{enable-background:new    ;}
	.st2{fill:#2EB5B0;stroke:#2EB5B0;stroke-linecap:round;stroke-linejoin:round;stroke-miterlimit:10;}
	.st3{fill:#22DDD3;stroke:#22DDD3;stroke-linecap:round;stroke-linejoin:round;stroke-miterlimit:10;}
</style>
<rect y="0" class="st0" width="20" height="20"/>
<rect y="20" class="st0" width="20" height="20"/>
<g class="st1">
	<path class="st2" d="M9.2,6H8.9C8.4,6,7,6,6.4,6.2C5.8,6.4,5.3,7.5,5.1,8c0,0.1-0.1,0.1-0.2,0.1L4.7,8c0,0-0.1,0-0.1-0.1
		c0.2-0.5,0.7-2.5,0.7-2.7c0-0.2,0.1-0.2,0.2-0.2c0.1,0,0.1,0,0.2,0.1l0.2,0.1c0.3,0.2,0.4,0.2,0.9,0.3c0.8,0,1.4,0.1,2.9,0.1h0.7
		c1.7,0,2.3-0.1,3.1-0.1c0.3,0,0.5-0.1,0.8-0.2L14.5,5c0.1,0,0.1-0.1,0.2-0.1c0.1,0,0.1,0,0.1,0.2c0,0.2,0.3,2.1,0.4,2.7
		c0,0.1,0,0.1-0.1,0.1l-0.2,0.1c-0.1,0-0.1,0-0.1-0.1c-0.1-0.3-0.6-1.5-1.1-1.7C13.2,6.1,11.8,6,11.1,6h-0.4v4.3c0,0.2,0,4.5,0,4.7
		c0,0.4,0.2,0.6,0.5,0.6h1c0.1,0,0.2,0,0.2,0.2v0.3c0,0.1,0,0.1-0.2,0.1c-0.2,0-0.6,0-2.1,0c-1.5,0-2.1,0-2.3,0
		c-0.1,0-0.1-0.1-0.1-0.2v-0.3c0-0.1,0-0.2,0.1-0.2h1c0.3,0,0.5-0.2,0.5-0.4c0-0.4,0-5.1,0-5.4V6z"/>
</g>
<g>
	<g>
		<path class="st3" d="M9.2,26H8.9c-0.5,0-1.8,0-2.4,0.2c-0.7,0.2-1.1,1.3-1.4,1.8c0,0.1-0.1,0.1-0.2,0.1L4.7,28c0,0-0.1,0-0.1-0.1
			c0.2-0.5,0.7-2.5,0.7-2.7c0-0.2,0.1-0.2,0.2-0.2c0.1,0,0.1,0,0.2,0.1l0.2,0.1c0.3,0.2,0.4,0.2,0.9,0.3c0.8,0,1.4,0.1,2.9,0.1h0.7
			c1.7,0,2.3-0.1,3.1-0.1c0.3,0,0.5-0.1,0.8-0.2l0.3-0.2c0.1,0,0.1-0.1,0.2-0.1c0.1,0,0.1,0,0.1,0.2c0,0.2,0.3,2.1,0.4,2.7
			c0,0.1,0,0.1-0.1,0.1l-0.2,0.1c-0.1,0-0.1,0-0.1-0.1c-0.1-0.3-0.6-1.5-1.1-1.7c-0.5-0.2-1.9-0.3-2.6-0.3h-0.4v4.3
			c0,0.2,0,4.5,0,4.7c0,0.4,0.2,0.6,0.5,0.6h1c0.1,0,0.2,0,0.2,0.2v0.3c0,0.1,0,0.1-0.2,0.1c-0.2,0-0.6,0-2.1,0c-1.5,0-2.1,0-2.3,0
			c-0.1,0-0.1-0.1-0.1-0.2v-0.3c0-0.1,0-0.2,0.1-0.2h1c0.3,0,0.5-0.2,0.5-0.4c0-0.4,0-5.1,0-5.4V26z"/>
	</g>
</g>
</svg>
