<?xml version="1.0" encoding="utf-8"?>
<!-- Generator: Adobe Illustrator 26.2.1, SVG Export Plug-In . SVG Version: 6.00 Build 0)  -->
<svg version="1.1" id="Layer_1" xmlns="http://www.w3.org/2000/svg" xmlns:xlink="http://www.w3.org/1999/xlink" x="0px" y="0px"
	 viewBox="0 0 20 60" style="enable-background:new 0 0 20 60;" xml:space="preserve">
<style type="text/css">
	.st0{fill:none;stroke:#2FB5B2;stroke-linecap:round;stroke-linejoin:round;stroke-miterlimit:10;}
	.st1{fill:#CEC1E0;stroke:#8D71B1;stroke-linecap:round;stroke-linejoin:round;stroke-miterlimit:10;}
	.st2{fill:none;}
	.st3{fill:none;stroke:#A9A9A9;stroke-linecap:round;stroke-linejoin:round;stroke-miterlimit:10;}
</style>
<path class="st0" d="M17.6,8.6L17.6,8.6c0.1-0.3,0.1-0.7,0.1-1c0-2.4-1.6-4.4-4.1-4.4c-1.3,0-2.9,1.5-3.7,2.5
	C9.2,4.7,7.7,3.2,6.3,3.2c-2.4,0-4.1,2-4.1,4.4c0,0.3,0,0.7,0.1,1h0c0,0,0,0.2,0.2,0.6c0.1,0.2,0.2,0.4,0.3,0.7
	c0.7,1.4,2.6,3.8,7.2,7c4.6-3.2,6.4-5.6,7.2-7c0.1-0.2,0.2-0.4,0.3-0.7C17.6,8.8,17.6,8.6,17.6,8.6z"/>
<path class="st1" d="M17.6,28.6L17.6,28.6c0.1-0.3,0.1-0.7,0.1-1c0-2.4-1.6-4.4-4.1-4.4c-1.3,0-2.9,1.5-3.7,2.5
	c-0.8-0.9-2.3-2.5-3.7-2.5c-2.4,0-4.1,2-4.1,4.4c0,0.3,0,0.7,0.1,1h0c0,0,0,0.2,0.2,0.6c0.1,0.2,0.2,0.4,0.3,0.7
	c0.7,1.4,2.6,3.8,7.2,7c4.6-3.2,6.4-5.6,7.2-7c0.1-0.2,0.2-0.4,0.3-0.7C17.6,28.8,17.6,28.6,17.6,28.6z"/>
<rect class="st2" width="20" height="20"/>
<path class="st3" d="M17.6,48.6L17.6,48.6c0.1-0.3,0.1-0.7,0.1-1c0-2.4-1.6-4.4-4.1-4.4c-1.3,0-2.9,1.5-3.7,2.5
	c-0.8-0.9-2.3-2.5-3.7-2.5c-2.4,0-4.1,2-4.1,4.4c0,0.3,0,0.7,0.1,1h0c0,0,0,0.2,0.2,0.6c0.1,0.2,0.2,0.4,0.3,0.7
	c0.7,1.4,2.6,3.8,7.2,7c4.6-3.2,6.4-5.6,7.2-7c0.1-0.2,0.2-0.4,0.3-0.7C17.6,48.8,17.6,48.6,17.6,48.6z"/>
<rect y="40" class="st2" width="20" height="20"/>
<rect y="20" class="st2" width="20" height="20"/>
</svg>
