<?xml version="1.0" encoding="utf-8"?>
<!-- Generator: Adobe Illustrator 26.2.1, SVG Export Plug-In . SVG Version: 6.00 Build 0)  -->
<svg version="1.1" id="레이어_1" xmlns="http://www.w3.org/2000/svg" xmlns:xlink="http://www.w3.org/1999/xlink" x="0px"
	 y="0px" viewBox="0 0 200 200" style="enable-background:new 0 0 200 200;" xml:space="preserve">
<style type="text/css">
	.st0{fill:none;stroke:#FFFFFF;stroke-width:4;stroke-linecap:round;stroke-linejoin:round;stroke-miterlimit:10;}
	.st1{fill:none;stroke:#2EB5B2;stroke-width:4;stroke-linecap:round;stroke-linejoin:round;stroke-miterlimit:10;}
</style>
<g>
	<g>
		<line class="st0" x1="53.2" y1="115.6" x2="30" y2="115.6"/>
		<path class="st1" d="M142.9,115.6c-0.2-4.5-3.5-6.3-17.6-14.4c-19.9-11.5-21.7-22.5-21.7-22.5l-11.4,1.2
			c-16.3,17.7-24.6,6.8-24.6,6.8l13.6-19.5c0,0,0.8-1.8,3.2-2.4l27.2-6.7c0,0,2.2-0.9,4.8,0.7L139,72.7h34.1"/>
		<path class="st0" d="M110.4,111.1l23.9,12.9c3.3-1.1,5.4-2.5,6.8-3.9"/>
		<path class="st0" d="M101.6,122l22.5,12.1c0,0,9.6,1,10.2-10.1"/>
		<path class="st0" d="M103.4,136l5.8,3.3c0,0,7.9,4.1,12.9-6.3"/>
		<path class="st0" d="M97.8,142.3c0,0,2.1,1.3,3.8,1.1s5.9,0.2,7.5-4.1"/>
		<path class="st1" d="M69.9,113.3c0,0,2.4-6.5-0.3-9.1c-2.7-2.6-4.9,0-4.9,0l-9,9.1c0,0-3.9,4.5-1.2,7.7c1.9,2.2,3.5,2.6,5.9,3
			c0,0-3.2,4.4,2.1,8.2c4.9,3.6,9.5-0.4,9.5-0.4l11.3-14.5c3.1-5.6-1.3-9.4-1.3-9.4s-3.6-3.5-7.4,0.3S60.3,124,60.3,124"/>
		<path class="st1" d="M71.9,131.9c-1.9,2.4-2.3,5.4,1.2,8.2s6.5,0,6.5,0s10.2-12.7,11.4-16.1s-1.2-5.6-1.2-5.6"/>
		<path class="st1" d="M82,137.2c-1.5,1.9-0.8,4.9,2,6.6c3.4,2.2,6.8-2.4,6.8-2.4s6.4-8.5,7.8-10.9"/>
		<line class="st1" x1="142.9" y1="115.6" x2="174" y2="115.6"/>
		<line class="st0" x1="65.2" y1="72.7" x2="31.3" y2="72.7"/>
	</g>
	<polyline class="st0" points="154.9,61.8 154.9,45.4 135.6,45.4 	"/>
	<path class="st0" d="M135.6,154.6h17.9c0.8,0,1.4-0.7,1.4-1.7v-23.5"/>
	<polyline class="st0" points="42.9,129.4 42.9,154.6 65.2,154.6 	"/>
	<path class="st0" d="M66.3,45.4H44.2c-0.8,0-1.3,0.5-1.3,1.2v15.2"/>
</g>
</svg>
