<?xml version="1.0" encoding="utf-8"?>
<!-- Generator: Adobe Illustrator 26.2.1, SVG Export Plug-In . SVG Version: 6.00 Build 0)  -->
<svg version="1.1" id="레이어_1" xmlns="http://www.w3.org/2000/svg" xmlns:xlink="http://www.w3.org/1999/xlink" x="0px"
	 y="0px" viewBox="0 0 200 200" style="enable-background:new 0 0 200 200;" xml:space="preserve">
<style type="text/css">
	.st0{fill:none;stroke:#2EB4B0;stroke-width:4;stroke-linecap:round;stroke-linejoin:round;stroke-miterlimit:10;}
	.st1{fill:none;stroke:#FFFFFF;stroke-width:4;stroke-linecap:round;stroke-linejoin:round;stroke-miterlimit:10;}
	.st2{fill:#FFFFFF;}
</style>
<g>
	<g>
		<path class="st0" d="M127.8,80.3c0,0,0,19.3,0,19.3c0,4.4-12.4,8.1-27.8,8.1s-27.8-3.6-27.8-8.1c0,0,0-8.4,0-8.4"/>
		<ellipse class="st0" cx="100" cy="80.3" rx="27.8" ry="8.1"/>
		<path class="st0" d="M127.8,99.6c0,0,0,20.1,0,20.1c0,4.4-12.4,8.1-27.8,8.1s-27.8-3.6-27.8-8.1c0,0,0-8.4,0-8.4"/>
		<g>
			<line class="st1" x1="96.3" y1="118.3" x2="96.3" y2="118.3"/>
			<line class="st1" x1="103.7" y1="118.3" x2="103.7" y2="118.3"/>
		</g>
	</g>
	<g>
		<g>
			<g>
				<path class="st1" d="M65.2,39.7l8.4,14.5c2.1,3.6-1.2,5.9-1.2,5.9c-5.7,4-10.7,9.2-14.4,15.6c-1.7,3-3.1,6.1-4.1,9.3"/>
			</g>
			<circle class="st2" cx="65.2" cy="39.7" r="5.4"/>
		</g>
		<g>
			<g>
				<path class="st1" d="M30.3,100h16.8c4.2,0,4.5,4,4.5,4c0.6,6.9,2.6,13.8,6.3,20.3c1.7,3,3.7,5.7,6,8.2"/>
			</g>
			<circle class="st2" cx="30.3" cy="100" r="5.4"/>
		</g>
		<g>
			<g>
				<path class="st1" d="M65.2,160.3l8.4-14.5c2.1-3.6,5.7-1.9,5.7-1.9c6.3,3,13.3,4.6,20.7,4.6c3.5,0,6.8-0.4,10.1-1.1"/>
			</g>
			<circle class="st2" cx="65.2" cy="160.3" r="5.4"/>
		</g>
		<g>
			<g>
				<path class="st1" d="M134.8,160.3l-8.4-14.5c-2.1-3.6,1.2-5.9,1.2-5.9c5.7-4,10.7-9.2,14.4-15.6c1.7-3,3.1-6.1,4.1-9.3"/>
			</g>
			<circle class="st2" cx="134.8" cy="160.3" r="5.4"/>
		</g>
		<g>
			<g>
				<path class="st1" d="M169.7,100h-16.8c-4.2,0-4.5-4-4.5-4c-0.6-6.9-2.6-13.8-6.3-20.3c-1.7-3-3.7-5.7-6-8.2"/>
			</g>
			<circle class="st2" cx="169.7" cy="100" r="5.4"/>
		</g>
		<g>
			<g>
				<path class="st1" d="M134.8,39.7l-8.4,14.5c-2.1,3.6-5.7,1.9-5.7,1.9c-6.3-3-13.3-4.6-20.7-4.6c-3.5,0-6.8,0.4-10.1,1.1"/>
			</g>
			<circle class="st2" cx="134.8" cy="39.7" r="5.4"/>
		</g>
	</g>
</g>
</svg>
