<svg width="64" height="64" viewBox="0 0 64 64" fill="none" xmlns="http://www.w3.org/2000/svg">
<rect width="64" height="64" rx="32" fill="#F4F4F4"/>
<path fill-rule="evenodd" clip-rule="evenodd" d="M37.9999 48H16.9999V15H34.5075L38.9999 20.8401V29.5H39.9999V20.5L34.9999 14H16.9999H15.9999V15V48V49H16.9999H37.9999V48Z" fill="black"/>
<line x1="34.4999" y1="15" x2="34.4999" y2="21" stroke="black"/>
<line x1="39.9999" y1="21" x2="33.9999" y2="21" stroke="black"/>
<path d="M21.4999 24.5H34.4999" stroke="black" stroke-width="1.5" stroke-linecap="square" stroke-linejoin="round"/>
<path d="M21.4999 29.5H34.4999" stroke="black" stroke-width="1.5" stroke-linecap="square" stroke-linejoin="round"/>
<path d="M21.4999 34.5H27.4999" stroke="black" stroke-width="1.5" stroke-linecap="square" stroke-linejoin="round"/>
<path d="M21.4999 39.5H27.4999" stroke="black" stroke-width="1.5" stroke-linecap="square" stroke-linejoin="round"/>
<path fill-rule="evenodd" clip-rule="evenodd" d="M39.9997 32.9372C39.84 32.9783 39.6725 33.0001 39.4999 33.0001C39.3272 33.0001 39.1596 32.9782 38.9997 32.937V37.5632C39.1596 37.522 39.3272 37.5001 39.4999 37.5001C39.6725 37.5001 39.84 37.522 39.9997 37.5631V32.9372ZM38.1224 32.45C37.8798 32.2195 37.695 31.9286 37.592 31.6016L33.6539 33.8752C33.843 34.1528 33.9641 34.4804 33.9931 34.834L38.1224 32.45ZM33.871 35.708C33.7496 36.0289 33.5479 36.3104 33.2905 36.5281L37.57 38.9734C37.6603 38.6419 37.8337 38.3446 38.0665 38.1054L33.871 35.708ZM37.57 40.0269L33.2906 42.4723C33.548 42.6899 33.7497 42.9714 33.8711 43.2923L38.0666 40.8949C37.8338 40.6557 37.6603 40.3585 37.57 40.0269ZM38.9997 41.437V46.0632C39.1596 46.022 39.3272 46.0001 39.4999 46.0001C39.6725 46.0001 39.84 46.022 39.9997 46.0631V41.4372C39.84 41.4783 39.6725 41.5001 39.4999 41.5001C39.3272 41.5001 39.1596 41.4782 38.9997 41.437ZM40.9331 40.8951L45.1287 43.2926C45.2501 42.9716 45.4517 42.6901 45.7091 42.4724L41.4298 40.0272C41.3394 40.3587 41.1659 40.656 40.9331 40.8951ZM41.4298 38.9731L45.7091 36.5278C45.4517 36.3101 45.2501 36.0286 45.1287 35.7077L40.9331 38.1051C41.166 38.3443 41.3395 38.6416 41.4298 38.9731ZM45.0067 34.8343C45.0357 34.4806 45.1568 34.153 45.3459 33.8754L41.4079 31.6018C41.3048 31.9288 41.12 32.2196 40.8774 32.4502L45.0067 34.8343ZM47.294 36.9786C47.198 36.9928 47.0998 37.0001 46.9999 37.0001C46.7514 37.0001 46.5135 36.9548 46.294 36.8719V42.1283C46.5135 42.0454 46.7514 42.0001 46.9999 42.0001C47.0998 42.0001 47.198 42.0074 47.294 42.0216V36.9786ZM45.3459 45.1248C45.1568 44.8473 45.0357 44.5196 45.0067 44.1659L40.8774 46.55C41.12 46.7806 41.3048 47.0714 41.4079 47.3985L45.3459 45.1248ZM37.592 47.3987C37.695 47.0716 37.8798 46.7807 38.1224 46.5502L33.9931 44.1662C33.9641 44.5199 33.843 44.8475 33.6539 45.125L37.592 47.3987ZM31.7055 42.0216C31.8016 42.0075 31.8999 42.0001 31.9999 42.0001C32.2483 42.0001 32.4861 42.0454 32.7055 42.1281V36.8721C32.4861 36.9548 32.2483 37.0001 31.9999 37.0001C31.8999 37.0001 31.8016 36.9928 31.7055 36.9786V42.0216Z" fill="black"/>
<circle cx="46.9999" cy="44" r="1.5" stroke="black"/>
<circle cx="46.9999" cy="35" r="1.5" stroke="black"/>
<circle cx="31.9999" cy="44" r="1.5" stroke="black"/>
<circle cx="31.9999" cy="35" r="1.5" stroke="black"/>
<circle cx="39.4999" cy="48" r="1.5" stroke="black"/>
<circle cx="39.4999" cy="39.5" r="1.5" stroke="black"/>
<circle cx="39.4999" cy="31" r="1.5" stroke="black"/>
</svg>
