<?xml version="1.0" encoding="utf-8"?>
<!-- Generator: Adobe Illustrator 26.2.1, SVG Export Plug-In . SVG Version: 6.00 Build 0)  -->
<svg version="1.1" id="Layer_2_00000018947831460372879360000003162428866661957308_"
	 xmlns="http://www.w3.org/2000/svg" xmlns:xlink="http://www.w3.org/1999/xlink" x="0px" y="0px" viewBox="0 0 200 200"
	 style="enable-background:new 0 0 200 200;" xml:space="preserve">
<style type="text/css">
	.st0{fill:#727272;}
	.st1{fill:none;stroke:#2EB4B0;stroke-width:4;stroke-linecap:round;stroke-linejoin:round;stroke-miterlimit:10;}
	.st2{fill:#2EB4B0;}
	.st3{fill:#605E5D;}
	.st4{fill:#FFFFFF;}
</style>
<g>
	<g>
		<polyline class="st0" points="100,65.7 100,98.9 50.6,80.2 		"/>
	</g>
	<polyline class="st1" points="78.8,27.1 65.3,41.9 78.5,56.5 	"/>
	<polyline class="st1" points="121.2,27.1 134.7,41.9 121.5,56.5 	"/>
	<line class="st1" x1="108.4" y1="27.1" x2="91.6" y2="56.5"/>
	<polygon class="st2" points="46.9,83.6 31.5,100.2 83.9,122.6 100,104.7 	"/>
	<g>
		<polygon class="st2" points="84,128.6 97.8,112.7 97.8,150.6 97.8,166.9 46.4,143.8 46.4,112 		"/>
	</g>
	<g>
		<polyline class="st0" points="149.4,80.2 100,98.9 100,65.7 		"/>
	</g>
	<polygon class="st3" points="100,104.7 116.1,122.6 168.5,100.2 153.1,83.6 	"/>
	<g>
		<polygon class="st3" points="116,128.6 102.2,112.7 102.2,150.6 102.2,166.9 153.6,143.8 153.6,112 		"/>
	</g>
	<circle class="st4" cx="100" cy="78" r="2.2"/>
	<circle class="st4" cx="100" cy="86.5" r="2.2"/>
</g>
</svg>
