<svg width="42" height="42" viewBox="0 0 42 42" fill="none" xmlns="http://www.w3.org/2000/svg">
<path d="M26.9138 31.0989C26.625 31.1131 26.3461 30.9934 26.1449 30.7724C25.944 30.5517 25.8388 30.2505 25.8513 29.9433C25.8638 29.6372 25.9926 29.3485 26.2092 29.1486L32.6444 22.0712H6.87084V22.0714L6.86493 22.0711C6.50989 22.05 6.19372 21.8304 6.02593 21.4968C5.85802 21.1639 5.85802 20.7606 6.02593 20.4277C6.19413 20.0942 6.50978 19.8745 6.86492 19.8534L6.86491 19.8532H6.87084H32.644L26.1961 12.7808L26.1961 12.7808L26.1945 12.779C26.0119 12.5689 25.9112 12.2909 25.9112 12.0039C25.9112 11.7169 26.0119 11.4389 26.1945 11.2288L26.1945 11.2288L26.196 11.2272C26.385 11.019 26.6439 10.9 26.9159 10.9C27.1878 10.9 27.4467 11.019 27.6357 11.2272L35.7977 20.1937C35.798 20.1939 35.7982 20.1941 35.7984 20.1944C35.9916 20.3992 36.1 20.6798 36.1 20.9719C36.1 21.2638 35.9922 21.5445 35.7983 21.7494C35.7981 21.7497 35.7979 21.7499 35.7977 21.7501L27.6487 30.7023C27.4671 30.9393 27.2014 31.0852 26.9138 31.0989ZM26.9138 31.0989C26.9138 31.0989 26.9138 31.0989 26.9139 31.0989L26.9089 30.999L26.9137 31.0989C26.9137 31.0989 26.9137 31.0989 26.9138 31.0989Z" fill="black" stroke="black" stroke-width="0.2"/>
</svg>
