<svg width="64" height="64" viewBox="0 0 64 64" fill="none" xmlns="http://www.w3.org/2000/svg">
<rect width="64" height="64" rx="32" fill="#F4F4F4"/>
<path fill-rule="evenodd" clip-rule="evenodd" d="M39.5 46.5H17.5V17.5H39.5V28H41V17.5V16H39.5H17.5H16V17.5V46.5V48H17.5H39.5H41V46.5V42H39.5V46.5Z" fill="black"/>
<path d="M22 22H35" stroke="black" stroke-width="1.5" stroke-linecap="square" stroke-linejoin="round"/>
<path d="M22 27H35" stroke="black" stroke-width="1.5" stroke-linecap="square" stroke-linejoin="round"/>
<path d="M22 32H29" stroke="black" stroke-width="1.5" stroke-linecap="square" stroke-linejoin="round"/>
<path d="M41 41L46.3033 46.3033C46.8891 46.8891 47.8388 46.8891 48.4246 46.3033V46.3033C49.0104 45.7175 49.0104 44.7678 48.4246 44.182L43.1213 38.8787" stroke="black" stroke-width="1.5"/>
<path d="M44.25 35C44.25 39.0041 41.0041 42.25 37 42.25C32.9959 42.25 29.75 39.0041 29.75 35C29.75 30.9959 32.9959 27.75 37 27.75C41.0041 27.75 44.25 30.9959 44.25 35Z" stroke="black" stroke-width="1.5"/>
<circle cx="37" cy="35" r="4.25" stroke="black" stroke-width="1.5"/>
</svg>
