<?xml version="1.0" encoding="utf-8"?>
<!-- Generator: Adobe Illustrator 26.2.1, SVG Export Plug-In . SVG Version: 6.00 Build 0)  -->
<svg version="1.1" id="Layer_1" xmlns="http://www.w3.org/2000/svg" xmlns:xlink="http://www.w3.org/1999/xlink" x="0px" y="0px"
	 viewBox="0 0 68 68" style="enable-background:new 0 0 68 68;" xml:space="preserve">
<style type="text/css">
	.st0{fill:none;stroke:#2EB5B0;stroke-width:3;stroke-linecap:round;stroke-linejoin:round;stroke-miterlimit:10;}
	.st1{fill:none;}
</style>
<polygon class="st0" points="27.5,9.9 34,4.3 40.5,9.9 49.1,10.5 49.7,19.1 55.3,25.6 49.7,32 49.1,40.6 40.5,41.2 34,46.9 
	27.5,41.2 18.9,40.6 18.4,32 12.7,25.6 18.4,19.1 18.9,10.5 "/>
<g>
	<polyline class="st0" points="46.1,41 55.1,55.2 45.2,54.7 41.2,63.7 38.8,50 	"/>
	<polyline class="st0" points="21.9,41 12.8,55.2 22.8,54.7 26.8,63.7 29.2,50 	"/>
</g>
<rect y="0" class="st1" width="68" height="68"/>
<circle class="st0" cx="34" cy="25.6" r="9"/>
</svg>
