<?xml version="1.0" encoding="utf-8"?>
<!-- Generator: Adobe Illustrator 26.2.1, SVG Export Plug-In . SVG Version: 6.00 Build 0)  -->
<svg version="1.1" id="레이어_1" xmlns="http://www.w3.org/2000/svg" xmlns:xlink="http://www.w3.org/1999/xlink" x="0px"
	 y="0px" viewBox="0 0 200 200" style="enable-background:new 0 0 200 200;" xml:space="preserve">
<style type="text/css">
	.st0{fill:none;stroke:#2EB5B2;stroke-width:4;stroke-linecap:round;stroke-linejoin:round;stroke-miterlimit:10;}
	.st1{fill:none;stroke:#FFFFFF;stroke-width:4;stroke-linecap:round;stroke-linejoin:round;stroke-miterlimit:10;}
	.st2{fill:none;stroke:#2EB5B2;stroke-width:3.9999;stroke-linecap:round;stroke-linejoin:round;stroke-miterlimit:9.9997;}
</style>
<g>
	<g>
		<circle class="st0" cx="100" cy="99.8" r="6.8"/>
		<g>
			<path class="st1" d="M156,71V49.1c0-0.8-0.6-1.3-1.4-1.3h-21.9"/>
			<path class="st1" d="M136.7,151.8h17.9c0.8,0,1.4-0.6,1.4-1.4V128"/>
			<path class="st1" d="M44,128v22.4c0,0.8,0.6,1.4,1.3,1.4h22.1"/>
			<path class="st1" d="M61.5,47.8H45.3c-0.8,0-1.3,0.6-1.3,1.3V71"/>
		</g>
		<g>
			<ellipse class="st2" cx="100" cy="99.8" rx="32.7" ry="32.7"/>
			<path class="st1" d="M80.7,99.8c0,10.7,8.7,19.3,19.3,19.3s19.3-8.7,19.3-19.3c0-10.7-8.7-19.3-19.3-19.3"/>
			<path class="st0" d="M162.6,99.8c0,0-22.3,26-51.8,31.6c-3.6,0.7-7.3,1.1-11.1,1.1c-34.8,0-62.5-32.7-62.5-32.7
				S65,67.1,99.8,67.1S162.6,99.8,162.6,99.8z"/>
		</g>
	</g>
</g>
</svg>
