<?xml version="1.0" encoding="utf-8"?>
<!-- Generator: Adobe Illustrator 26.2.1, SVG Export Plug-In . SVG Version: 6.00 Build 0)  -->
<svg version="1.1" id="Layer_1" xmlns="http://www.w3.org/2000/svg" xmlns:xlink="http://www.w3.org/1999/xlink" x="0px" y="0px"
	 viewBox="0 0 68 204.1" style="enable-background:new 0 0 68 204.1;" xml:space="preserve">
<style type="text/css">
	.st0{fill:none;stroke:#2EB5B0;stroke-width:3;stroke-linecap:round;stroke-linejoin:round;stroke-miterlimit:10;}
	.st1{fill:#2EB5B0;}
	.st2{font-family:'NotoSans-Regular';}
	.st3{font-size:28px;}
	.st4{fill:none;}
	.st5{fill:none;stroke:#50A3C7;stroke-width:3;stroke-linecap:round;stroke-linejoin:round;stroke-miterlimit:10;}
	.st6{fill:#50A3C7;}
	.st7{fill:none;stroke:#8085C0;stroke-width:3;stroke-linecap:round;stroke-linejoin:round;stroke-miterlimit:10;}
	.st8{fill:#8085C0;}
</style>
<polygon class="st0" points="27.5,9.9 34,4.3 40.5,9.9 49.1,10.5 49.7,19.1 55.3,25.6 49.7,32 49.1,40.6 40.5,41.2 34,46.9 
	27.5,41.2 18.9,40.6 18.4,32 12.7,25.6 18.4,19.1 18.9,10.5 "/>
<g>
	<polyline class="st0" points="46.1,41 55.1,55.2 45.2,54.7 41.2,63.7 38.8,50 	"/>
	<polyline class="st0" points="21.9,41 12.8,55.2 22.8,54.7 26.8,63.7 29.2,50 	"/>
</g>
<text transform="matrix(1 0 0 1 26.4688 35.6127)" class="st1 st2 st3">1</text>
<rect y="0" class="st4" width="68" height="68"/>
<polygon class="st5" points="27.5,78 34,72.3 40.5,78 49.1,78.5 49.7,87.1 55.3,93.6 49.7,100 49.1,108.6 40.5,109.3 34,114.9 
	27.5,109.3 18.9,108.6 18.4,100 12.7,93.6 18.4,87.1 18.9,78.5 "/>
<g>
	<polyline class="st5" points="46.1,109.1 55.1,123.2 45.2,122.7 41.2,131.7 38.8,118.1 	"/>
	<polyline class="st5" points="21.9,109.1 12.8,123.2 22.8,122.7 26.8,131.7 29.2,118.1 	"/>
</g>
<text transform="matrix(1 0 0 1 25.4688 103.6442)" class="st6 st2 st3">2</text>
<rect y="68" class="st4" width="68" height="68"/>
<polygon class="st7" points="27.5,146 34,140.4 40.5,146 49.1,146.6 49.7,155.1 55.3,161.6 49.7,168 49.1,176.6 40.5,177.3 
	34,182.9 27.5,177.3 18.9,176.6 18.4,168 12.7,161.6 18.4,155.1 18.9,146.6 "/>
<g>
	<polyline class="st7" points="46.1,177.1 55.1,191.2 45.2,190.7 41.2,199.8 38.8,186.1 	"/>
	<polyline class="st7" points="21.9,177.1 12.8,191.2 22.8,190.7 26.8,199.8 29.2,186.1 	"/>
</g>
<g>
	<text transform="matrix(1 0 0 1 25.4688 171.6757)" class="st8 st2 st3">3</text>
</g>
<rect y="136.1" class="st4" width="68" height="68"/>
</svg>
