<svg width="64" height="64" viewBox="0 0 64 64" fill="none" xmlns="http://www.w3.org/2000/svg">
<rect width="64" height="64" rx="32" fill="#F4F4F4"/>
<path d="M23.9999 47H39.9999" stroke="black" stroke-width="1.5" stroke-linecap="square" stroke-linejoin="round"/>
<path d="M27.9999 47L27.9999 41" stroke="black" stroke-width="1.5" stroke-linecap="square" stroke-linejoin="round"/>
<path d="M35.9999 47L35.9999 41" stroke="black" stroke-width="1.5" stroke-linecap="square" stroke-linejoin="round"/>
<rect x="14.7499" y="17.75" width="34.5" height="22.5" stroke="black" stroke-width="1.5"/>
<path d="M14.9999 36.5H48.9999" stroke="black" stroke-width="1.5" stroke-linecap="square" stroke-linejoin="round"/>
<path d="M25.6718 24.5781V30.2344H24.7656L22.0859 26.3672H22.039V30.2344H21.0234V24.5781H21.9453L24.6093 28.4453H24.664V24.5781H25.6718Z" fill="black"/>
<path d="M26.7187 30.2344V24.5781H30.3984V25.4297H27.7343V26.9766H30.2031V27.8281H27.7343V29.375H30.414V30.2344H26.7187Z" fill="black"/>
<path d="M32.5703 30.2344L30.9765 24.5781H32.0703L33.0937 28.7422H33.1484L34.2343 24.5781H35.2343L36.3281 28.75H36.3749L37.3984 24.5781H38.4921L36.8984 30.2344H35.8906L34.7578 26.2578H34.7187L33.5781 30.2344H32.5703Z" fill="black"/>
<path d="M42.1796 26.1328C42.1288 25.6445 41.7187 25.3633 41.1093 25.3672C40.4648 25.3633 40.082 25.6758 40.0781 26.1016C40.0742 26.5781 40.5781 26.7734 41.0468 26.8828L41.5781 27.0234C42.4218 27.2188 43.2343 27.6641 43.2343 28.6484C43.2343 29.6406 42.4492 30.3203 41.0937 30.3203C39.7773 30.3203 38.9413 29.6875 38.8984 28.5703H39.8984C39.9453 29.1602 40.4413 29.4492 41.0859 29.4531C41.7538 29.4492 42.2148 29.125 42.2187 28.6406C42.2148 28.1953 41.8085 28.0078 41.1953 27.8516L40.5546 27.6875C39.6249 27.4453 39.0468 26.9766 39.0468 26.1641C39.0468 25.1641 39.9335 24.5 41.1249 24.5C42.3242 24.5 43.1406 25.1758 43.1562 26.1328H42.1796Z" fill="black"/>
</svg>
