<svg width="64" height="64" viewBox="0 0 64 64" fill="none" xmlns="http://www.w3.org/2000/svg">
<rect width="64" height="64" rx="32" fill="#F4F4F4"/>
<rect x="16" y="27" width="10" height="22" stroke="black" stroke-width="1.5"/>
<path d="M34.8912 26.062L34.8911 26.0622L34.891 26.0623L34.8908 26.0625L34.8907 26.0627L34.0366 27.25H35.5H37.5L43.4991 27.25L43.4993 27.25H43.4996H43.4998H43.5L43.5003 27.25L43.5089 27.25L43.5494 27.2508C43.5862 27.2516 43.6418 27.2533 43.7125 27.2568C43.8545 27.2639 44.0542 27.2782 44.282 27.3067C44.754 27.3657 45.2787 27.4779 45.6646 27.6708C46.0155 27.8462 46.4317 28.2422 46.775 28.7C46.9405 28.9206 47.0715 29.1324 47.1573 29.3041C47.2334 29.4563 47.2476 29.5247 47.2499 29.5243C47.2499 29.5243 47.25 29.5242 47.25 29.5241V29.5246V29.5288V29.5332V29.5377V29.5424V29.5473V29.5523V29.5575V29.5628V29.5683V29.574V29.5798V29.5858V29.592V29.5983V29.6047V29.6114V29.6181V29.625V29.6321V29.6394V29.6468V29.6543V29.662V29.6698V29.6778V29.686V29.6943V29.7027V29.7113V29.72V29.7289V29.7379V29.7471V29.7564V29.7659V29.7755V29.7852V29.7951V29.8051V29.8153V29.8256V29.836V29.8466V29.8573V29.8682V29.8791V29.8903V29.9015V29.9129V29.9244V29.9361V29.9479V29.9598V29.9718V29.984V29.9963V30.0088V30.0213V30.034V30.0468V30.0598V30.0728V30.086V30.0993V30.1127V30.1263V30.14V30.1538V30.1677V30.1817V30.1959V30.2101V30.2245V30.239V30.2537V30.2684V30.2832V30.2982V30.3133V30.3285V30.3438V30.3592V30.3747V30.3903V30.406V30.4219V30.4378V30.4539V30.4701V30.4863V30.5027V30.5192V30.5358V30.5524V30.5692V30.5861V30.6031V30.6202V30.6374V30.6546V30.672V30.6895V30.7071V30.7247V30.7425V30.7604V30.7783V30.7964V30.8145V30.8327V30.851V30.8694V30.8879V30.9065V30.9252V30.944V30.9628V30.9817V31.0007V31.0198V31.039V31.0583V31.0776V31.0971V31.1166V31.1362V31.1559V31.1756V31.1954V31.2153V31.2353V31.2554V31.2755V31.2957V31.316V31.3364V31.3568V31.3773V31.3979V31.4185V31.4392V31.46V31.4809V31.5018V31.5228V31.5438V31.5649V31.5861V31.6073V31.6287V31.65V31.6715V31.693V31.7145V31.7361V31.7578V31.7795V31.8013V31.8232V31.8451V31.8671V31.8891V31.9111V31.9333V31.9555V31.9777V32V32.0223V32.0447V32.0671V32.0896V32.1121V32.1347V32.1574V32.18V32.2027V32.2255V32.2483V32.2712V32.2941V32.317V32.34V32.363V32.386V32.4091V32.4323V32.4555V32.4787V32.5019V32.5252V32.5485V32.5719V32.5953V32.6187V32.6421V32.6656V32.6891V32.7127V32.7363V32.7599V32.7835V32.8072V32.8308V32.8546V32.8783V32.9021V32.9258V32.9497V32.9735V32.9973V33.0212V33.0451V33.069V33.093V33.1169V33.1409V33.1649V33.1889V33.2129V33.237V33.261V33.2851V33.3091V33.3332V33.3573V33.3815V33.4056V33.4297V33.4538V33.478V33.5022V33.5263V33.5505V33.5747V33.5988V33.623V33.6472V33.6714V33.6956V33.7198V33.744V33.7682V33.7924V33.8166V33.8407V33.8649V33.8891V33.9133V33.9375V33.9616V33.9858V34.0099V34.0341V34.0582V34.0824V34.1065V34.1306V34.1547V34.1788V34.2028V34.2269V34.2509V34.275V34.299V34.323V34.347V34.3709V34.3949V34.4188V34.4427V34.4666V34.4905V34.5143V34.5381V34.5619V34.5857V34.6094V34.6332V34.6569V34.6805V34.7042V34.7278V34.7514V34.775V34.7985V34.822V34.8455V34.8689V34.8923V34.9157V34.939V34.9623V34.9856V35.0088V35.032V35.0551V35.0783V35.1013V35.1244V35.1474V35.1703V35.1932V35.2161V35.2389V35.2617V35.2845V35.3072V35.3298V35.3524V35.375V35.3975V35.4199V35.4424V35.4647V35.487V35.5093V35.5315V35.5536V35.5757V35.5978V35.6198V35.6417V35.6636V35.6854V35.7072V35.7289V35.7505V35.7721V35.7936V35.8151V35.8365V35.8578V35.8791V35.9003V35.9215V35.9426V35.9636V35.9845V36.0054V36.0262V36.047V36.0676V36.0882V36.1088V36.1292V36.1496V36.17V36.1902V36.2104V36.2305V36.2505V36.2704V36.2903V36.3101V36.3298V36.3494V36.369V36.3884V36.4078V36.4271V36.4464V36.4655V36.4846V36.5035V36.5224V36.5412V36.5599V36.5786V36.5971V36.6156V36.6339V36.6522V36.6704V36.6885V36.7064V36.7243V36.7422V36.7599V36.7775V36.795V36.8124V36.8298V36.847V36.8641V36.8812V36.8981V36.9149V36.9317V36.9483V36.9648V36.9812V36.9976V37.0138V37.0299V37.0459V37.0618V37.0776V37.0933V37.1088V37.1243V37.1396V37.1549V37.17V37.185V37.1999V37.2147V37.2294V37.2439V37.2584V37.2727V37.2869V37.301V37.315V37.3288V37.3426V37.3562V37.3697V37.3831V37.3963V37.4094V37.4224V37.4353V37.448V37.4607V37.4732V37.4855V37.4978V37.5099V37.5219V37.5337V37.5454V37.557V37.5685V37.5798V37.591V37.602V37.6129V37.6237V37.6344V37.6449V37.6552V37.6655V37.6756V37.6855V37.6953V37.705V37.7145V37.7239V37.7331V37.7422V37.7512V37.76V37.7686V37.7772V37.7855V37.7937V37.8018V37.8097V37.8175V37.8251V37.8301C47.247 37.8365 47.244 37.843 47.2409 37.8497C47.1902 37.9595 47.1222 38.1125 47.0536 38.2839C46.9857 38.4538 46.9133 38.6514 46.857 38.8486C46.8039 39.0344 46.75 39.2702 46.75 39.5V47.4409C46.7478 47.4466 46.7451 47.4533 46.7419 47.4611C46.7174 47.5195 46.6741 47.6047 46.6086 47.7128C46.4782 47.928 46.2873 48.1885 46.0644 48.4392C45.8402 48.6915 45.6028 48.9122 45.3847 49.0636C45.1481 49.228 45.0216 49.25 45 49.25H44.994H44.9877H44.9811H44.9742H44.967H44.9595H44.9518H44.9437H44.9354H44.9267H44.9178H44.9086H44.8991H44.8894H44.8793H44.869H44.8584H44.8475H44.8363H44.8249H44.8132H44.8012H44.7889H44.7764H44.7636H44.7506H44.7372H44.7236H44.7098H44.6957H44.6813H44.6666H44.6517H44.6366H44.6211H44.6055H44.5895H44.5734H44.5569H44.5402H44.5233H44.5061H44.4887H44.471H44.4531H44.4349H44.4165H44.3978H44.3789H44.3598H44.3404H44.3208H44.3009H44.2809H44.2605H44.24H44.2192H44.1982H44.177H44.1555H44.1338H44.1119H44.0897H44.0674H44.0448H44.022H43.999H43.9757H43.9523H43.9286H43.9047H43.8806H43.8563H43.8317H43.807H43.782H43.7569H43.7315H43.706H43.6802H43.6542H43.628H43.6017H43.5751H43.5483H43.5214H43.4942H43.4668H43.4393H43.4115H43.3836H43.3555H43.3272H43.2987H43.27H43.2411H43.212H43.1828H43.1534H43.1238H43.094H43.064H43.0339H43.0036H42.9731H42.9424H42.9116H42.8806H42.8494H42.8181H42.7866H42.7549H42.7231H42.6911H42.6589H42.6266H42.5941H42.5615H42.5287H42.4957H42.4626H42.4293H42.3959H42.3623H42.3286H42.2948H42.2607H42.2266H42.1922H42.1578H42.1232H42.0884H42.0536H42.0185H41.9834H41.9481H41.9126H41.8771H41.8414H41.8055H41.7695H41.7334H41.6972H41.6608H41.6244H41.5877H41.551H41.5141H41.4772H41.4401H41.4028H41.3655H41.328H41.2905H41.2528H41.215H41.177H41.139H41.1009H41.0626H41.0243H40.9858H40.9472H40.9086H40.8698H40.8309H40.7919H40.7528H40.7137H40.6744H40.635H40.5955H40.556H40.5163H40.4766H40.4368H40.3968H40.3568H40.3167H40.2765H40.2363H40.1959H40.1555H40.115H40.0744H40.0337H39.993H39.9521H39.9112H39.8703H39.8292H39.7881H39.7469H39.7056H39.6643H39.6229H39.5815H39.5399H39.4984H39.4567H39.415H39.3732H39.3314H39.2895H39.2476H39.2056H39.1636H39.1215H39.0793H39.0371H38.9949H38.9526H38.9102H38.8679H38.8254H38.783H38.7404H38.6979H38.6553H38.6127H38.57H38.5273H38.4845H38.4418H38.399H38.3561H38.3133H38.2704H38.2274H38.1845H38.1415H38.0985H38.0555H38.0125H37.9694H37.9263H37.8832H37.8401H37.797H37.7538H37.7107H37.6675H37.6243H37.5811H37.5379H37.4947H37.4515H37.4083H37.3651H37.3218H37.2786H37.2354H37.1922H37.1489H37.1057H37.0625H37.0193H36.9761H36.9329H36.8897H36.8465H36.8034H36.7602H36.7171H36.674H36.6309H36.5878H36.5447H36.5016H36.4586H36.4156H36.3726H36.3297H36.2867H36.2438H36.201H36.1581H36.1153H36.0725H36.0298H35.9871H35.9444H35.9017H35.8591H35.8165H35.774H35.7315H35.6891H35.6467H35.6043H35.562H35.5198H35.4775H35.4354H35.3933H35.3512H35.3092H35.2672H35.2253H35.1835H35.1417H35.1H35.0583H35.0167H34.9752H34.9337H34.8923H34.8509H34.8096H34.7684H34.7273H34.6862H34.6452H34.6043H34.5634H34.5227H34.482H34.4414H34.4008H34.3604H34.32H34.2797H34.2395H34.1993H34.1593H34.1193H34.0795H34.0397H34H33.9604H33.9209H33.8815H33.8422H33.803H33.7639H33.7249H33.686H33.6471H33.6084H33.5698H33.5313H33.4929H33.4546H33.4165H33.3784H33.3404H33.3026H33.2649H33.2273H33.1898H33.1524H33.1151H33.078H33.0409H33.004H32.9673H32.9306H32.8941H32.8577H32.8214H32.7853H32.7492H32.7133H32.6776H32.642H32.6065H32.5711H32.5359H32.5009H32.4659H32.4311H32.3965H32.362H32.3276H32.2934H32.2593H32.2254H32.1916H32.158H32.1245H32.0912H32.0581H32.025H31.9922H31.9595H31.927H31.8946H31.8624H31.8303H31.7984H31.7667H31.7351H31.7037H31.6725H31.6414H31.6105H31.5798H31.5493H31.5189H31.4887H31.4587H31.4289H31.3992H31.3697H31.3404H31.3113H31.2824H31.2536H31.225H31.1967H31.1685H31.1405H31.1127H31.0851H31.0576H31.0304H31.0034H30.9765H30.9499H30.9234H30.8972H30.8711H30.8453H30.8197H30.7942H30.769H30.744H30.7192H30.6946H30.6702H30.646H30.6221H30.5983H30.5748H30.5515H30.5283H30.5055H30.4828H30.4604H30.4381H30.4162H30.3944H30.3728H30.3515H30.3304H30.3096H30.2889H30.2686H30.2484H30.2285H30.2088H30.1893H30.1701H30.1511H30.1324H30.1139H30.0956H30.0776H30.0599H30.0423H30.0251H30.008H29.9913H29.9747H29.9585H29.9425H29.9267H29.9112H29.8959H29.8809H29.8662H29.8517H29.8375H29.8236H29.8099H29.7965H29.7833H29.7704H29.7578H29.7455H29.7334H29.7216H29.7101H29.6988H29.6878H29.6771H29.6667H29.6566H29.6467H29.6371H29.6278H29.6188H29.6101H29.6016H29.5935H29.5856H29.578H29.5708H29.5638H29.5571H29.5507H29.5445H29.5387H29.5332H29.528H29.5231H29.5225C29.5226 49.2499 29.5226 49.2499 29.5227 49.2499C29.5228 49.2486 29.4749 49.2418 29.3524 49.2098C29.2129 49.1734 29.0292 49.1191 28.8118 49.0504C28.3784 48.9135 27.8407 48.7293 27.3121 48.5427C26.7849 48.3566 26.2724 48.1703 25.8914 48.0303C25.842 48.0122 25.7947 47.9948 25.75 47.9783V28.0938C25.7513 28.0889 25.7526 28.0838 25.754 28.0785C25.7716 28.0108 25.7979 27.9114 25.8324 27.7869C25.9015 27.5376 26.0028 27.1895 26.1307 26.7963C26.3908 25.9969 26.7456 25.0604 27.1462 24.3807C27.4613 23.8459 27.905 23.285 28.3719 22.6947C28.3875 22.6749 28.4032 22.6551 28.4189 22.6353C28.8774 22.0553 29.3791 21.4189 29.6708 20.8354C30.081 20.015 30.2207 19.3025 30.3218 18.7114C30.3297 18.6653 30.3373 18.6205 30.3447 18.5769C30.4355 18.0416 30.496 17.685 30.6708 17.3354C30.9231 16.8309 31.1635 16.3506 31.4012 15.9346C31.6413 15.5144 31.8492 15.2136 32.0243 15.0364C32.0237 15.037 32.0235 15.0374 32.0236 15.0375C32.0248 15.0392 32.0909 14.9941 32.2843 14.9499C32.4896 14.903 32.7594 14.875 33.0625 14.875C33.6877 14.875 34.3082 14.9926 34.6646 15.1708C35.4029 15.54 35.805 16.2871 36.3292 17.3354C36.7185 18.114 36.7258 18.5551 36.7464 19.7909C36.7475 19.8622 36.7488 19.9363 36.7501 20.0131C36.7692 21.1005 36.4648 22.0713 36.1129 23.1938C36.0034 23.5432 35.8892 23.9073 35.7788 24.2941C35.6583 24.7164 35.4412 25.1566 35.2409 25.5065C35.1428 25.6778 35.0531 25.8199 34.9886 25.9182C34.9564 25.9672 34.9308 26.005 34.9138 26.0296L34.8951 26.0564L34.8912 26.062L34.8912 26.062ZM46.7589 47.4149C46.7589 47.4148 46.7587 47.4159 46.758 47.4181C46.7585 47.416 46.7588 47.4149 46.7589 47.4149Z" stroke="black" stroke-width="1.5"/>
<path d="M21 43L21 44" stroke="black" stroke-width="1.5" stroke-linecap="square" stroke-linejoin="round"/>
<path d="M46 44H41" stroke="black" stroke-width="1.5" stroke-linecap="square" stroke-linejoin="round"/>
<path d="M46 39H40" stroke="black" stroke-width="1.5" stroke-linecap="square" stroke-linejoin="round"/>
<path d="M46 33H40" stroke="black" stroke-width="1.5" stroke-linecap="square" stroke-linejoin="round"/>
</svg>
