<svg xmlns="http://www.w3.org/2000/svg" width="152" height="20" fill="none"><path fill="#000" d="M12.334 7.563h4.055c-.434-3.387-3.445-5.766-7.36-5.766-4.511 0-8.062 3.2-8.062 8.742 0 5.367 3.281 8.696 8.133 8.696 4.348 0 7.453-2.72 7.453-7.243V9.766H9.287v2.93h3.422c-.058 1.84-1.324 3.023-3.586 3.023-2.566 0-4.078-1.91-4.078-5.227 0-3.293 1.582-5.191 4.078-5.18 1.676-.011 2.825.833 3.211 2.25Zm12.54 11.672c3.292 0 5.472-1.594 5.953-4.079h-3.68c-.317.75-1.125 1.22-2.203 1.22-1.606 0-2.59-1.067-2.602-2.696v-.07h8.531v-1.008c0-4.22-2.566-6.493-6.14-6.493-3.82 0-6.282 2.637-6.282 6.586 0 4.055 2.438 6.54 6.422 6.54Zm-2.532-7.946c.059-1.312 1.09-2.32 2.485-2.32 1.359 0 2.343.96 2.367 2.32h-4.852Zm14.531.422c0-1.476.867-2.355 2.18-2.367 1.313.012 2.086.867 2.086 2.297V19h3.938v-8.11c.011-2.883-1.723-4.782-4.407-4.782-1.875 0-3.293.95-3.867 2.485h-.14v-2.32h-3.75V19h3.96v-7.289Zm10.688 7.29h3.96V6.273h-3.96V19Zm-.047-16.15c0 1.055.914 1.9 2.039 1.9 1.137 0 2.05-.845 2.063-1.9-.012-1.054-.926-1.91-2.063-1.898-1.125-.011-2.039.844-2.039 1.899Zm12.469 16.384c3.293 0 5.472-1.594 5.953-4.079h-3.68c-.316.75-1.125 1.22-2.203 1.22-1.605 0-2.59-1.067-2.601-2.696v-.07h8.53v-1.008c0-4.22-2.566-6.493-6.14-6.493-3.82 0-6.281 2.637-6.281 6.586 0 4.055 2.437 6.54 6.422 6.54Zm-2.531-7.946c.058-1.312 1.09-2.32 2.484-2.32 1.36 0 2.344.96 2.367 2.32h-4.851Zm21.75-3.726h4.054c-.433-3.387-3.445-5.766-7.36-5.766-4.51 0-8.062 3.2-8.062 8.742 0 5.367 3.281 8.696 8.133 8.696 4.348 0 7.453-2.72 7.453-7.243V9.766h-7.265v2.93h3.421c-.058 1.84-1.324 3.023-3.585 3.023-2.567 0-4.079-1.91-4.079-5.227 0-3.293 1.582-5.191 4.078-5.18 1.676-.011 2.825.833 3.212 2.25ZM85.81 19h3.96v-6.96c-.01-1.536 1.079-2.567 2.555-2.555.48-.012 1.196.07 1.57.187V6.227a6.866 6.866 0 0 0-1.124-.14c-1.407.01-2.532.82-3 2.483h-.117V6.274H85.81V19Zm15.187.235c3.984 0 6.398-2.637 6.398-6.563 0-3.926-2.414-6.563-6.398-6.563-3.972 0-6.398 2.637-6.398 6.563 0 3.926 2.426 6.563 6.398 6.563Zm-2.367-6.586c-.012-2.122.832-3.598 2.39-3.61 1.512.012 2.356 1.488 2.344 3.61.012 2.132-.832 3.597-2.344 3.609-1.558-.012-2.402-1.477-2.39-3.61Zm19.007.867c.012 1.535-.984 2.367-2.203 2.367-1.265 0-2.039-.856-2.039-2.25v-7.36h-3.961v8.11c.012 2.894 1.758 4.781 4.36 4.781 1.91 0 3.328-.973 3.89-2.508h.141V19h3.75V6.274h-3.938v7.242Zm10.454-1.805c0-1.476.867-2.355 2.179-2.367 1.313.012 2.086.867 2.086 2.297V19h3.938v-8.11c.011-2.883-1.723-4.782-4.407-4.782-1.875 0-3.293.95-3.867 2.485h-.14v-2.32h-3.75V19h3.961v-7.289Zm15.351 7.477c1.945 0 3.07-1.09 3.586-2.25h.117V19h3.914V2.031h-3.937v6.422h-.094c-.48-1.148-1.57-2.343-3.609-2.343-2.684 0-5.086 2.074-5.086 6.538 0 4.313 2.273 6.54 5.109 6.54Zm-1.055-6.563c0-2.074.844-3.422 2.391-3.422 1.535 0 2.426 1.313 2.414 3.422.012 2.11-.879 3.469-2.414 3.469-1.535 0-2.391-1.371-2.391-3.469Z"/></svg>