<svg xmlns="http://www.w3.org/2000/svg" width="152" height="20" fill="none"><path fill="#fff" d="M12.334 7.483h4.055c-.434-3.387-3.445-5.766-7.36-5.766-4.511 0-8.062 3.2-8.062 8.743 0 5.367 3.281 8.695 8.133 8.695 4.348 0 7.453-2.719 7.453-7.242V9.686H9.287v2.93h3.422c-.058 1.84-1.324 3.023-3.586 3.023-2.566 0-4.078-1.91-4.078-5.226 0-3.293 1.582-5.192 4.078-5.18 1.676-.012 2.825.832 3.211 2.25Zm12.54 11.672c3.292 0 5.472-1.594 5.953-4.078h-3.68c-.317.75-1.125 1.219-2.203 1.219-1.606 0-2.59-1.067-2.602-2.696v-.07h8.531v-1.008c0-4.219-2.566-6.492-6.14-6.492-3.82 0-6.282 2.637-6.282 6.586 0 4.055 2.438 6.539 6.422 6.539Zm-2.532-7.945c.059-1.313 1.09-2.32 2.485-2.32 1.359 0 2.343.96 2.367 2.32h-4.852Zm14.531.421c0-1.476.867-2.355 2.18-2.367 1.313.012 2.086.867 2.086 2.297v7.36h3.938v-8.11c.011-2.883-1.723-4.781-4.407-4.781-1.875 0-3.293.95-3.867 2.484h-.14v-2.32h-3.75V18.92h3.96v-7.289Zm10.688 7.29h3.96V6.194h-3.96v12.727Zm-.047-16.149c0 1.055.914 1.899 2.039 1.899 1.137 0 2.05-.844 2.063-1.899-.012-1.055-.926-1.91-2.063-1.898-1.125-.012-2.039.843-2.039 1.898Zm12.469 16.383c3.293 0 5.472-1.594 5.953-4.078h-3.68c-.316.75-1.125 1.219-2.203 1.219-1.605 0-2.59-1.067-2.601-2.696v-.07h8.53v-1.008c0-4.219-2.566-6.492-6.14-6.492-3.82 0-6.281 2.637-6.281 6.586 0 4.055 2.437 6.539 6.422 6.539Zm-2.531-7.945c.058-1.313 1.09-2.32 2.484-2.32 1.36 0 2.344.96 2.367 2.32h-4.851Zm21.75-3.727h4.054c-.433-3.387-3.445-5.766-7.36-5.766-4.51 0-8.062 3.2-8.062 8.743 0 5.367 3.281 8.695 8.133 8.695 4.348 0 7.453-2.719 7.453-7.242V9.686h-7.265v2.93h3.421c-.058 1.84-1.324 3.023-3.585 3.023-2.567 0-4.079-1.91-4.079-5.226 0-3.293 1.582-5.192 4.078-5.18 1.676-.012 2.825.832 3.212 2.25Zm6.609 11.438h3.96V11.96c-.01-1.536 1.079-2.567 2.555-2.555.48-.012 1.196.07 1.57.187V6.147a6.866 6.866 0 0 0-1.124-.14c-1.407.011-2.532.82-3 2.484h-.117V6.194H85.81V18.92Zm15.187.234c3.984 0 6.398-2.637 6.398-6.563 0-3.925-2.414-6.562-6.398-6.562-3.972 0-6.398 2.637-6.398 6.562 0 3.926 2.426 6.563 6.398 6.563Zm-2.367-6.586c-.012-2.121.832-3.598 2.39-3.61 1.512.012 2.356 1.489 2.344 3.61.012 2.133-.832 3.598-2.344 3.61-1.558-.012-2.402-1.477-2.39-3.61Zm19.007.867c.012 1.535-.984 2.367-2.203 2.367-1.265 0-2.039-.855-2.039-2.25V6.194h-3.961v8.11c.012 2.894 1.758 4.78 4.36 4.78 1.91 0 3.328-.972 3.89-2.507h.141v2.343h3.75V6.194h-3.938v7.242Zm10.454-1.805c0-1.476.867-2.355 2.179-2.367 1.313.012 2.086.867 2.086 2.297v7.36h3.938v-8.11c.011-2.883-1.723-4.781-4.407-4.781-1.875 0-3.293.95-3.867 2.484h-.14v-2.32h-3.75V18.92h3.961v-7.289Zm15.351 7.477c1.945 0 3.07-1.09 3.586-2.25h.117v2.063h3.914V1.95h-3.937v6.423h-.094c-.48-1.149-1.57-2.344-3.609-2.344-2.684 0-5.086 2.074-5.086 6.539 0 4.312 2.273 6.539 5.109 6.539Zm-1.055-6.563c0-2.074.844-3.421 2.391-3.421 1.535 0 2.426 1.312 2.414 3.421.012 2.11-.879 3.47-2.414 3.47-1.535 0-2.391-1.372-2.391-3.47Z"/></svg>