<svg width="151" height="28" viewBox="0 0 151 28" fill="none" xmlns="http://www.w3.org/2000/svg">
<path d="M11.4603 20.6985L7.66163 15.9225L13.1814 8.98124H10.1662C8.8158 8.98124 7.8894 9.40062 7.06856 10.3853L4.15997 14.0378V7.81646V4.00003H1.24086C0.556701 4.00003 0 4.57048 0 5.27196V7.81646V20.6985V23.9994H2.91911C3.60327 23.9994 4.15997 23.429 4.15997 22.7277V20.6985V17.7455L6.52442 20.7087L8.5345 23.2364C8.94025 23.7557 9.47367 23.9971 10.0221 23.9971H14.0942L11.4603 20.6985Z" fill="white"/>
<path d="M18.9476 23.9993C16.6961 23.9993 15.1445 22.4165 15.1445 20.1196V5.26962C15.1445 4.57012 15.7034 4 16.3905 4H19.3108V19.3221C19.3108 19.9525 19.8111 20.4649 20.4263 20.4649H23.3976V22.7281C23.3976 23.4293 22.8386 24 22.1514 24L18.9476 23.9993Z" fill="white"/>
<mask id="mask0_847_1786" style="mask-type:luminance" maskUnits="userSpaceOnUse" x="15" y="11" width="5" height="3">
<path d="M15.1289 11.5251H19.3252V13.7745H15.1289V11.5251Z" fill="white"/>
</mask>
<g mask="url(#mask0_847_1786)">
<path d="M15.1289 13.7745H19.3252V11.5251H15.1289V13.7745Z" fill="url(#paint0_linear_847_1786)"/>
</g>
<mask id="mask1_847_1786" style="mask-type:luminance" maskUnits="userSpaceOnUse" x="7" y="9" width="6" height="7">
<path d="M7.10938 9.5067H12.2761V15.9357H7.10938V9.5067Z" fill="white"/>
</mask>
<g mask="url(#mask1_847_1786)">
<g opacity="0.25">
<path d="M7.15798 15.9357C7.15798 15.9357 11.7652 10.1461 12.2761 9.5067H12.2094C12.0778 9.67191 7.10938 15.9163 7.10938 15.9163L7.15798 15.9357Z" fill="url(#paint1_radial_847_1786)"/>
</g>
</g>
<mask id="mask2_847_1786" style="mask-type:luminance" maskUnits="userSpaceOnUse" x="3" y="9" width="10" height="8">
<path d="M3.65527 9.43692H12.7685V16.0234H3.65527V9.43692Z" fill="white"/>
</mask>
<g mask="url(#mask2_847_1786)">
<path d="M10.3808 9.43692C9.45916 9.43692 8.43384 9.91205 7.11896 10.3368L3.65527 14.6874L7.58147 16.0234C12.3534 10.0254 12.3048 10.0867 12.7685 9.50747C12.1475 9.50747 10.3808 9.43692 10.3808 9.43692Z" fill="url(#paint2_linear_847_1786)"/>
</g>
<path d="M20.7046 9.47681C18.3494 9.47681 9.80818 9.4825 9.80818 9.4825C8.33055 9.4825 7.35705 10.0161 6.66957 10.871L4.57193 13.5114C5.33548 12.9233 6.38172 12.5735 7.45092 12.5735H20.7046C22.3849 12.5735 23.9999 12.0486 23.9999 10.6968C23.9999 9.34906 23.8482 8.60267 23.8482 8.60267C23.8482 8.60267 23.059 9.47681 20.7046 9.47681ZM4.55713 13.5229C4.5597 13.5207 4.56046 13.5258 4.56046 13.5258L4.57193 13.5114C4.567 13.5152 4.56206 13.519 4.55713 13.5229Z" fill="url(#paint3_linear_847_1786)"/>
<path d="M23.7396 8.15142C23.7316 8.15952 22.9496 8.97384 20.7046 8.97384H10.0927C8.41753 8.97384 7.6291 9.67038 7.02669 10.4233L4.58887 13.4902C4.58887 13.4902 5.74046 12.3759 7.43266 12.3759H20.7046C22.1574 12.3759 23.1539 12.085 23.6657 11.5119C24.0312 11.1026 23.9991 10.6998 23.9983 10.6968L23.9972 7.87336L23.7396 8.15142Z" fill="url(#paint4_linear_847_1786)"/>
<path d="M41.8433 10.9557C41.3528 9.32871 40.0488 8.33579 38.1587 8.32383C35.479 8.33579 33.6606 10.3814 33.6606 14.0182C33.6606 17.6788 35.4192 19.7484 38.1826 19.7604C40.6589 19.7484 42.1304 18.3487 42.1782 16.1715H38.4219V13.4679H45.6475V15.6212C45.6475 20.1671 42.5251 22.9425 38.1587 22.9425C33.3018 22.9425 30 19.545 30 14.066C30 8.44346 33.5171 5.1417 38.0869 5.1417C41.9988 5.1417 45.0015 7.54624 45.48 10.9557H41.8433Z" fill="white"/>
<path d="M54.0933 22.9664C50.1096 22.9544 47.6692 20.3824 47.6812 16.2672C47.6692 12.2596 50.1455 9.54404 53.9497 9.54404C57.3591 9.54404 60.0508 11.6974 60.0508 16.1236V17.1285H51.1743C51.1743 19.0904 52.3347 20.2987 54.165 20.3106C55.3733 20.2987 56.2346 19.7723 56.5815 18.9947H59.9551C59.4526 21.3993 57.2993 22.9544 54.0933 22.9664ZM51.1743 14.9034H56.7012C56.6892 13.3243 55.6006 12.1878 54.0215 12.1998C52.3945 12.1878 51.2461 13.4081 51.1743 14.9034Z" fill="white"/>
<path d="M65.8169 15.1905V22.7032H62.2759V9.71152H65.6494V11.9845H65.793C66.3792 10.4891 67.7668 9.54404 69.6929 9.54404C72.4084 9.54404 74.179 11.3983 74.167 14.4249V22.7032H70.6499V15.047C70.6379 13.4439 69.7766 12.4869 68.3052 12.4869C66.8337 12.4869 65.8169 13.4798 65.8169 15.1905Z" fill="white"/>
<path d="M76.9185 22.7032V9.71152H80.4595V22.7032H76.9185ZM76.751 6.21836C76.751 5.21348 77.6243 4.41196 78.689 4.4C79.7417 4.41196 80.615 5.21348 80.603 6.21836C80.615 7.19932 79.7417 8.01279 78.689 8.01279C77.6243 8.01279 76.751 7.19932 76.751 6.21836Z" fill="white"/>
<path d="M89.0967 22.9664C85.113 22.9544 82.6726 20.3824 82.6846 16.2672C82.6726 12.2596 85.1489 9.54404 88.9531 9.54404C92.3625 9.54404 95.0542 11.6974 95.0542 16.1236V17.1285H86.1777C86.1777 19.0904 87.3381 20.2987 89.1685 20.3106C90.3767 20.2987 91.238 19.7723 91.585 18.9947H94.9585C94.4561 21.3993 92.3027 22.9544 89.0967 22.9664ZM86.1777 14.9034H91.7046C91.6926 13.3243 90.604 12.1878 89.0249 12.1998C87.3979 12.1878 86.2495 13.4081 86.1777 14.9034Z" fill="white"/>
<path d="M97.3511 22.7032V5.38096H100.94V19.7364H108.405V22.7032H97.3511Z" fill="white"/>
<path d="M110.032 19.0665C110.044 16.1715 112.365 15.2264 114.865 15.0709C115.798 15.0111 117.544 14.9273 118.095 14.9034V13.8507C118.083 12.7621 117.341 12.14 116.013 12.128C114.805 12.14 114.051 12.6783 113.86 13.5636H110.486C110.702 11.3146 112.664 9.54404 116.109 9.54404C118.944 9.54404 121.624 10.8121 121.612 13.9464V22.7032H118.262V20.9088H118.167C117.532 22.1051 116.288 22.9544 114.362 22.9425C111.874 22.9544 110.044 21.6385 110.032 19.0665ZM113.429 18.9708C113.429 19.9637 114.231 20.4901 115.367 20.5021C116.982 20.4901 118.107 19.4374 118.095 18.0616V17.1166C117.556 17.1405 116.037 17.2242 115.439 17.2721C114.207 17.3797 113.429 17.9659 113.429 18.9708Z" fill="white"/>
<path d="M124.387 22.7032V5.38096H127.928V11.8888H128.024C128.514 10.836 129.543 9.54404 131.732 9.54404C134.604 9.54404 137.008 11.7691 137.02 16.2193C137.008 20.5619 134.699 22.9186 131.732 22.9186C129.615 22.9186 128.538 21.6983 128.024 20.6217H127.88V22.7032H124.387ZM127.856 16.1954C127.844 18.5401 128.861 20.0834 130.608 20.0953C132.414 20.0834 133.395 18.4923 133.383 16.1954C133.395 13.9344 132.438 12.3673 130.608 12.3673C128.849 12.3673 127.844 13.8626 127.856 16.1954Z" fill="white"/>
<path d="M146.71 13.5636C146.554 12.6544 145.765 12.0682 144.581 12.0563C143.432 12.0682 142.559 12.6065 142.571 13.3961C142.559 13.9823 143.013 14.4369 144.246 14.6881L146.566 15.1666C149.091 15.693 150.311 16.8175 150.323 18.6837C150.311 21.2438 148.014 22.9544 144.557 22.9664C141.052 22.9544 138.994 21.3873 138.695 18.8512H142.26C142.427 19.868 143.253 20.3944 144.557 20.4063C145.849 20.3944 146.71 19.88 146.71 19.0426C146.71 18.3727 146.16 17.954 144.939 17.7027L142.786 17.2721C140.31 16.7816 139.042 15.5135 139.054 13.5875C139.042 11.0992 141.183 9.54404 144.533 9.54404C147.811 9.54404 149.844 11.0992 150.036 13.5636H146.71Z" fill="white"/>
<defs>
<linearGradient id="paint0_linear_847_1786" x1="17.2272" y1="13.7667" x2="17.2272" y2="12.9391" gradientUnits="userSpaceOnUse">
<stop stop-color="white"/>
<stop offset="1" stop-color="#BEC0C2"/>
</linearGradient>
<radialGradient id="paint1_radial_847_1786" cx="0" cy="0" r="1" gradientUnits="userSpaceOnUse" gradientTransform="translate(8.36716 14.4185) scale(1.82984 1.86855)">
<stop stop-color="white"/>
<stop offset="1" stop-color="#292929"/>
</radialGradient>
<linearGradient id="paint2_linear_847_1786" x1="8.21182" y1="13.9894" x2="8.21182" y2="11.9691" gradientUnits="userSpaceOnUse">
<stop stop-color="white"/>
<stop offset="0.533708" stop-color="#BEC0C2"/>
<stop offset="1" stop-color="white"/>
</linearGradient>
<linearGradient id="paint3_linear_847_1786" x1="23.8863" y1="8.75089" x2="4.47462" y2="13.7267" gradientUnits="userSpaceOnUse">
<stop stop-color="#D0363A"/>
<stop offset="0.477528" stop-color="#A43436"/>
<stop offset="0.674534" stop-color="#A43436"/>
<stop offset="0.825843" stop-color="#D0363A"/>
<stop offset="0.926966" stop-color="#9D3335"/>
<stop offset="0.972356" stop-color="#9D3335"/>
<stop offset="1" stop-color="#422F2F"/>
</linearGradient>
<linearGradient id="paint4_linear_847_1786" x1="9.87295" y1="6.8944" x2="20.2822" y2="15.4479" gradientUnits="userSpaceOnUse">
<stop stop-color="#BA3538"/>
<stop offset="0.0168539" stop-color="#D83539"/>
<stop offset="0.0847105" stop-color="#F3795E"/>
<stop offset="0.11236" stop-color="#F3795E"/>
<stop offset="0.140094" stop-color="#F3795E"/>
<stop offset="0.477528" stop-color="#EE363A"/>
<stop offset="0.625299" stop-color="#EE363A"/>
<stop offset="0.707865" stop-color="#EE363A"/>
<stop offset="1" stop-color="#D83539"/>
</linearGradient>
</defs>
</svg>
