<svg width="122" height="28" viewBox="0 0 122 28" fill="none" xmlns="http://www.w3.org/2000/svg">
<rect x="0.5" y="0.5" width="121" height="27" rx="9.5" fill="black"/>
<path d="M14.3966 18.4828H10V6H14.4483C18.2069 6 20.5086 8.33621 20.5 12.2241C20.5086 16.1293 18.2069 18.4828 14.3966 18.4828ZM12.5862 16.2586H14.2931C16.6724 16.2586 17.9138 15.0259 17.9138 12.2241C17.9138 9.44828 16.6724 8.22414 14.3103 8.22414H12.5862V16.2586Z" fill="white"/>
<path d="M26.569 18.6724C23.6983 18.6638 21.9397 16.8103 21.9483 13.8448C21.9397 10.9569 23.7241 9 26.4655 9C28.9224 9 30.8621 10.5517 30.8621 13.7414V14.4655H24.4655C24.4655 15.8793 25.3017 16.75 26.6207 16.7586C27.4914 16.75 28.1121 16.3707 28.3621 15.8103H30.7931C30.431 17.5431 28.8793 18.6638 26.569 18.6724ZM24.4655 12.8621H28.4483C28.4397 11.7241 27.6552 10.9052 26.5172 10.9138C25.3448 10.9052 24.5172 11.7845 24.4655 12.8621Z" fill="white"/>
<path d="M40.8966 9.12069L37.6034 18.4828H34.7414L31.4655 9.12069H34.1552L36.1207 15.8448H36.2241L38.1897 9.12069H40.8966Z" fill="white"/>
<path d="M46.069 18.6724C43.1983 18.6638 41.4397 16.8103 41.4483 13.8448C41.4397 10.9569 43.2241 9 45.9655 9C48.4224 9 50.3621 10.5517 50.3621 13.7414V14.4655H43.9655C43.9655 15.8793 44.8017 16.75 46.1207 16.7586C46.9914 16.75 47.6121 16.3707 47.8621 15.8103H50.2931C49.931 17.5431 48.3793 18.6638 46.069 18.6724ZM43.9655 12.8621H47.9483C47.9397 11.7241 47.1552 10.9052 46.0172 10.9138C44.8448 10.9052 44.0172 11.7845 43.9655 12.8621Z" fill="white"/>
<path d="M54.5172 6V18.4828H51.9655V6H54.5172Z" fill="white"/>
<path d="M60.7069 18.6724C57.8793 18.6638 56.1121 16.7241 56.1207 13.8276C56.1121 10.9397 57.8793 9 60.7069 9C63.5431 9 65.3017 10.9397 65.3103 13.8276C65.3017 16.7241 63.5431 18.6638 60.7069 18.6724ZM58.7069 13.8276C58.7069 15.4655 59.3879 16.681 60.7241 16.6897C62.0259 16.681 62.7155 15.4655 62.7069 13.8276C62.7155 12.181 62.0259 10.9483 60.7241 10.9483C59.3879 10.9483 58.7069 12.181 58.7069 13.8276Z" fill="white"/>
<path d="M66.9138 22V9.12069H69.431V10.6897H69.5345C69.8879 9.93103 70.6293 9 72.2069 9C74.2759 9 76.0086 10.6034 76 13.8103C76.0086 16.9397 74.3448 18.6379 72.2069 18.6379C70.681 18.6379 69.8966 17.7586 69.5345 16.9828H69.4655V22H66.9138ZM69.4138 13.7931C69.4052 15.4828 70.1293 16.5948 71.3966 16.6034C72.6983 16.5948 73.4052 15.4483 73.3966 13.7931C73.4052 12.1638 72.7155 11.0345 71.3966 11.0345C70.1207 11.0345 69.4052 12.1121 69.4138 13.7931Z" fill="white"/>
<path d="M81.8966 18.6724C79.0259 18.6638 77.2672 16.8103 77.2759 13.8448C77.2672 10.9569 79.0517 9 81.7931 9C84.25 9 86.1897 10.5517 86.1897 13.7414V14.4655H79.7931C79.7931 15.8793 80.6293 16.75 81.9483 16.7586C82.819 16.75 83.4397 16.3707 83.6897 15.8103H86.1207C85.7586 17.5431 84.2069 18.6638 81.8966 18.6724ZM79.7931 12.8621H83.7759C83.7672 11.7241 82.9828 10.9052 81.8448 10.9138C80.6724 10.9052 79.8448 11.7845 79.7931 12.8621Z" fill="white"/>
<path d="M87.7931 18.4828V9.12069H90.2586V10.7414H90.3621C90.6983 9.59483 91.569 8.98276 92.6207 8.98276C92.8793 8.98276 93.2069 9.01724 93.431 9.06897V11.3448C93.1897 11.2672 92.6983 11.2069 92.3448 11.2069C91.1897 11.2069 90.3362 12.0086 90.3448 13.1552V18.4828H87.7931Z" fill="white"/>
<path d="M112.5 15.7333V18.1786C112.5 18.7943 112.255 19.3847 111.82 19.82C111.385 20.2554 110.794 20.5 110.179 20.5H101.821C101.206 20.5 100.615 20.2554 100.18 19.82C99.7446 19.3847 99.5 18.7943 99.5 18.1786V9.82144C99.5 9.20566 99.7446 8.61536 100.18 8.17999C100.615 7.74462 101.206 7.50001 101.821 7.50001H104.267C104.432 7.50001 104.586 7.58862 104.669 7.73215C104.752 7.87568 104.752 8.05291 104.669 8.19644C104.586 8.33997 104.433 8.42858 104.267 8.42858H101.821C101.452 8.42858 101.098 8.57529 100.837 8.83662C100.576 9.09795 100.429 9.45213 100.429 9.82144V18.1786C100.429 18.5481 100.575 18.9023 100.837 19.1634C101.098 19.4244 101.452 19.5714 101.821 19.5714H110.179C110.548 19.5714 110.902 19.4247 111.164 19.1634C111.425 18.9021 111.572 18.5479 111.572 18.1786V15.7333C111.572 15.5675 111.66 15.4142 111.804 15.3311C111.947 15.2481 112.125 15.2484 112.268 15.3311C112.412 15.4139 112.5 15.5673 112.5 15.7333ZM107.919 8.42858H110.917L105.67 13.6702C105.582 13.7575 105.533 13.8761 105.533 14C105.533 14.1239 105.582 14.2425 105.67 14.3298C105.758 14.4176 105.876 14.4672 106 14.4672C106.124 14.4672 106.242 14.4179 106.33 14.3298L111.571 9.08787V12.081C111.571 12.2041 111.62 12.3221 111.707 12.4094C111.794 12.4967 111.912 12.5452 112.036 12.5452C112.159 12.5452 112.277 12.4964 112.364 12.4094C112.451 12.3224 112.5 12.2043 112.5 12.081V7.96429C112.501 7.84093 112.452 7.72234 112.365 7.63452C112.278 7.54776 112.159 7.49921 112.036 7.50001H107.919C107.753 7.50001 107.6 7.58862 107.517 7.73215C107.434 7.87568 107.434 8.05291 107.517 8.19644C107.6 8.33997 107.753 8.42858 107.919 8.42858Z" fill="white" stroke="white" stroke-width="0.2"/>
<rect x="0.5" y="0.5" width="121" height="27" rx="9.5" stroke="white"/>
</svg>
