<svg width="18" height="17" viewBox="0 0 18 17" fill="none" xmlns="http://www.w3.org/2000/svg">
<path d="M16.9796 1.86944C16.7636 1.63954 16.4704 1.50998 16.165 1.50998C14.0319 1.50479 11.9342 2.09251 10.0794 3.21472L9.31686 3.69788L8.55433 3.21472C6.69891 2.09251 4.6015 1.50479 2.46843 1.50998C2.16275 1.50998 1.86986 1.63954 1.65378 1.86944C1.4377 2.09966 1.31641 2.4117 1.31641 2.73739V12.4592C1.31641 12.7849 1.4377 13.097 1.65378 13.3272C1.86986 13.5574 2.16275 13.6866 2.46843 13.6866C4.41559 13.6866 6.32923 14.227 8.02069 15.255L8.67655 15.6528C8.87129 15.7719 9.09194 15.8346 9.31656 15.8346C9.53873 15.8353 9.75756 15.7749 9.95109 15.6586L10.6069 15.2608C12.2993 14.2299 14.2151 13.687 16.1644 13.6866C16.4701 13.6866 16.7629 13.5574 16.979 13.3272C17.1951 13.097 17.3164 12.7849 17.3164 12.4592V2.73739C17.3164 2.4117 17.1951 2.09966 16.979 1.86944H16.9796ZM8.55403 14.2549C6.69891 13.1327 4.6015 12.545 2.46843 12.5502C2.44588 12.5502 2.42393 12.5404 2.40808 12.5235C2.39224 12.5066 2.38309 12.4833 2.38309 12.4592V2.73739C2.38309 2.71336 2.39224 2.68998 2.40808 2.6731C2.42393 2.65621 2.44588 2.64647 2.46843 2.64647C4.41803 2.6468 6.33349 3.18939 8.02587 4.22067L8.78322 4.68078V14.3939L8.55403 14.2549ZM16.2555 12.4592C16.2555 12.4833 16.2464 12.5066 16.2305 12.5235C16.2144 12.5404 16.1927 12.5502 16.1702 12.5502C14.0368 12.545 11.9394 13.1327 10.0846 14.2549L9.8499 14.3971V4.68078L10.6076 4.22067C12.2999 3.18971 14.2157 2.6468 16.165 2.64647C16.1885 2.64485 16.2116 2.65394 16.2287 2.67082C16.2461 2.68803 16.2555 2.71206 16.2555 2.73739V12.4592Z" fill="black" stroke="black" stroke-width="0.5" stroke-linejoin="round"/>
</svg>
