<svg xmlns="http://www.w3.org/2000/svg" width="24" height="25" fill="none"><path fill="#787878" stroke="#787878" stroke-width=".5" d="m19.087 8.08-4.33-4.387a1.396 1.396 0 0 0-.994-.417h-6.45c-.746 0-1.462.3-1.99.833a2.86 2.86 0 0 0-.823 2.01v12.315c0 .754.297 1.477.824 2.01a2.797 2.797 0 0 0 1.988.832h9.376a2.8 2.8 0 0 0 1.988-.832 2.857 2.857 0 0 0 .824-2.01v-9.35c0-.377-.149-.738-.413-1.004ZM13.875 4.81l4.102 4.15H15.28c-.373 0-.73-.15-.994-.417a1.429 1.429 0 0 1-.412-1.005V4.811Zm2.813 15.044H7.312a1.4 1.4 0 0 1-.994-.416 1.427 1.427 0 0 1-.412-1.005V6.118c0-.376.148-.738.412-1.004.264-.267.621-.417.994-.417h5.157V7.54c0 .754.296 1.477.824 2.01a2.799 2.799 0 0 0 1.988.833h2.813v8.052c0 .377-.149.738-.412 1.005a1.397 1.397 0 0 1-.994.416Z"/></svg>