<svg xmlns="http://www.w3.org/2000/svg" width="21" height="21" fill="none"><path fill="#787878" d="M18.601 11.84a.85.85 0 0 0-.852.848v4.723a.197.197 0 0 1-.196.196H3.397a.197.197 0 0 1-.196-.195V3.325c0-.107.088-.195.196-.195h4.681a.85.85 0 0 0 .852-.848.85.85 0 0 0-.852-.848h-4.68c-1.049 0-1.901.848-1.901 1.891v14.087c0 1.043.852 1.89 1.9 1.89h14.156c1.048 0 1.9-.848 1.9-1.89v-4.724a.85.85 0 0 0-.852-.848Zm.896-9.69a.851.851 0 0 0-.017-.166c-.005-.027-.015-.052-.023-.078-.008-.027-.014-.054-.025-.08-.013-.032-.031-.06-.048-.09-.01-.019-.018-.038-.03-.056a.864.864 0 0 0-.108-.13l-.018-.015a.864.864 0 0 0-.112-.09c-.02-.014-.044-.024-.067-.037-.026-.014-.051-.03-.08-.041-.028-.012-.058-.019-.087-.027-.024-.007-.047-.016-.071-.021a.873.873 0 0 0-.144-.014c-.008 0-.015-.003-.022-.003h-5.898a.85.85 0 0 0-.852.848.85.85 0 0 0 .852.848H16.6l-8.932 8.965a.845.845 0 0 0 .005 1.2.85.85 0 0 0 1.204-.005l8.917-8.95v3.813a.85.85 0 0 0 .852.847.85.85 0 0 0 .852-.847V2.15Z"/></svg>