<svg xmlns="http://www.w3.org/2000/svg" width="24" height="24" fill="none"><path fill="#000" d="m19.967 19.452-3.444-3.45a8.17 8.17 0 0 0 2.082-5.436c0-4.502-3.658-8.166-8.153-8.166C5.958 2.4 2.3 6.064 2.3 10.565c0 4.502 3.658 8.166 8.152 8.166a8.119 8.119 0 0 0 4.32-1.248l3.58 3.586c.214.215.506.331.797.331.292 0 .584-.116.798-.33.467-.45.467-1.17.02-1.618Zm-15.39-8.887c0-3.234 2.626-5.885 5.875-5.885 3.25 0 5.857 2.65 5.857 5.886 0 3.234-2.627 5.885-5.857 5.885-3.23 0-5.876-2.631-5.876-5.886Z"/></svg>