<svg width="20" height="20" viewBox="0 0 20 20" fill="none" xmlns="http://www.w3.org/2000/svg">
<path d="M4.95989 17.7141H13.2522C13.6392 17.7141 14.0104 17.558 14.2842 17.281C14.5579 17.004 14.7118 16.6285 14.7125 16.2368V15.0366H15.0412C15.4279 15.0363 15.799 14.8806 16.0724 14.604C16.3458 14.3273 16.4996 13.9522 16.5 13.5605V6.06077H16.497C16.4982 5.97454 16.465 5.89129 16.4056 5.83006L12.9984 2.3817C12.9375 2.32122 12.8553 2.288 12.7704 2.28912V2.28613H7.65874C7.2721 2.28688 6.90131 2.44218 6.62793 2.71918C6.35454 2.99581 6.2007 3.371 6.20033 3.76224V4.09524H4.95989C4.57287 4.09524 4.20172 4.25129 3.92797 4.52829C3.65422 4.8053 3.50037 5.18086 3.5 5.57284V16.2372C3.50037 16.6288 3.65422 17.0044 3.92797 17.2814C4.20172 17.5584 4.57287 17.7137 4.95989 17.7141ZM13.0928 3.40124L15.398 5.73375H13.3363C13.2013 5.73375 13.0917 5.6225 13.0914 5.48586L13.0928 3.40124ZM6.84597 3.76224C6.84597 3.54422 6.93193 3.33516 7.08431 3.18061C7.23668 3.02643 7.44328 2.93944 7.65874 2.93944H12.4472V5.48735C12.4479 5.72591 12.5417 5.95438 12.7084 6.12275C12.8752 6.29149 13.101 6.38631 13.3363 6.38706H15.8544V13.5605C15.8544 13.7786 15.7684 13.988 15.616 14.1422C15.4637 14.2964 15.257 14.3833 15.0412 14.3833H7.65911C7.44365 14.383 7.23705 14.296 7.08468 14.1418C6.9323 13.9876 6.84671 13.7786 6.84634 13.5605L6.84597 3.76224ZM4.14601 5.57284C4.14601 5.35445 4.23198 5.14502 4.38472 4.99046C4.53746 4.83591 4.74443 4.74893 4.96026 4.74855H6.2007V13.5594C6.20107 13.9507 6.35491 14.3258 6.6283 14.6028C6.90168 14.8795 7.27247 15.0352 7.65911 15.0359H14.0672V16.2361C14.0672 16.4549 13.9816 16.6643 13.8289 16.8192C13.6761 16.9741 13.4692 17.0611 13.253 17.0611H4.96026C4.74443 17.0611 4.53746 16.9738 4.38472 16.8196C4.23198 16.665 4.14638 16.4556 4.14601 16.2376V5.57284Z" fill="white" stroke="white" stroke-width="0.5"/>
</svg>
