<svg xmlns="http://www.w3.org/2000/svg" width="24" height="25" fill="none"><path fill="#000" d="M18.697 3.303H5.317c-.747 0-1.463.3-1.992.832a2.856 2.856 0 0 0-.825 2.01v7.88c0 .753.297 1.477.825 2.01a2.805 2.805 0 0 0 1.992.832h4.812v3.015a1.414 1.414 0 0 0 .815 1.288c.186.088.388.133.594.133a1.4 1.4 0 0 0 .9-.336l4.836-4.098h1.409c.747 0 1.463-.3 1.992-.832a2.854 2.854 0 0 0 .825-2.01V6.145c0-.751-.295-1.472-.82-2.005a2.805 2.805 0 0 0-1.983-.837Zm.94 10.72a.952.952 0 0 1-.276.67.935.935 0 0 1-.664.277h-1.76c-.221 0-.435.08-.604.223l-4.326 3.668V15.92a.952.952 0 0 0-.275-.67.935.935 0 0 0-.664-.277h-5.75a.935.935 0 0 1-.665-.278.952.952 0 0 1-.275-.67v-7.88c0-.251.1-.492.275-.67a.935.935 0 0 1 .664-.277h13.38c.25 0 .488.1.664.277a.952.952 0 0 1 .275.67v7.878Z"/></svg>