<svg width="24" height="24" viewBox="0 0 24 24" fill="none" xmlns="http://www.w3.org/2000/svg">
<path fill-rule="evenodd" clip-rule="evenodd" d="M11.2857 5.48676L11.2857 3.90335C11.2857 3.1875 11.9936 2.88883 12.5 3.03698L17.8854 5.90513C18.3456 6.25121 18.3444 6.84025 17.7044 7.27995L12.5 10.1481C11.8686 10.2963 11.2857 9.99878 11.2857 9.28174L11.2857 7.88084C8.32771 8.40114 6.42857 10.8142 6.42857 13.7037C6.42857 16.9712 9.15221 19.6296 12.5 19.6296C15.8478 19.6296 18.5714 17.2592 18.5714 13.7037L21 13.7037C21 18.4444 17.1871 22 12.5 22C7.81286 22 4 18.2773 4 13.7037C4 9.51996 7.04786 6.04854 11.2857 5.48676Z" fill="#787878"/>
</svg>
