<svg width="24" height="24" viewBox="0 0 24 24" fill="none" xmlns="http://www.w3.org/2000/svg">
<path d="M6.14234 9.89237C6.48666 9.54747 7.04553 9.54747 7.38986 9.89237C7.73339 10.2365 7.73338 10.7937 7.38986 11.1378L5.90613 12.624C5.16478 13.3666 4.77928 14.3171 4.77928 15.3567C4.77928 16.3963 5.19443 17.3468 5.90613 18.0894C6.64748 18.8319 7.59641 19.2181 8.6343 19.2181C9.67219 19.2181 10.6211 18.8022 11.3625 18.0894L12.8441 16.6052C13.1885 16.2603 13.7473 16.2603 14.0917 16.6052C14.4352 16.9493 14.4352 17.5066 14.0917 17.8507L12.6079 19.3369C11.5404 20.4062 10.117 21.0003 8.6343 21.0003C7.1516 21.0003 5.72821 20.4062 4.66066 19.3369C3.59312 18.2676 3.00003 16.8418 3.00003 15.3567C3.00003 13.8715 3.59312 12.4458 4.66066 11.3765L6.14234 9.89237Z" fill="#787878"/>
<path d="M15.3657 4.78218C14.3278 4.78218 13.3789 5.19802 12.6376 5.91089L11.1559 7.39501C10.8116 7.73991 10.2527 7.73991 9.90836 7.39501C9.56484 7.05092 9.56484 6.49364 9.90836 6.14954L11.3921 4.66337C12.4596 3.59406 13.883 3 15.3657 3C16.8484 3 18.2718 3.59406 19.3394 4.66337C20.4069 5.73267 21 7.15842 21 8.64356C21 10.1287 20.4069 11.5545 19.3394 12.6238L17.8577 14.1079C17.5134 14.4528 16.9545 14.4528 16.6102 14.1079C16.2667 13.7638 16.2667 13.2065 16.6102 12.8624L18.0939 11.3762C18.8353 10.6337 19.2208 9.68317 19.2208 8.64356C19.2208 7.60396 18.8056 6.65347 18.0939 5.91089C17.3822 5.16832 16.4036 4.78218 15.3657 4.78218Z" fill="#787878"/>
<path d="M14.5321 10.739C14.8791 10.3913 14.8791 9.82838 14.5321 9.48078C14.1843 9.13236 13.6197 9.13236 13.2719 9.48078L9.49732 13.2615C9.15029 13.6091 9.15029 14.1721 9.49732 14.5197C9.84516 14.8681 10.4097 14.8681 10.7576 14.5197L14.5321 10.739Z" fill="#787878"/>
</svg>
