<svg width="23" height="23" viewBox="0 0 23 23" fill="none" xmlns="http://www.w3.org/2000/svg">
<path d="M5.70978 19.3934C5.376 19.3934 5.04221 19.266 4.78783 19.0116C4.27873 18.5022 4.27873 17.6768 4.78783 17.1677L17.1798 4.77546C17.6889 4.26635 18.5146 4.26635 19.0237 4.77546C19.5328 5.28456 19.5328 6.11031 19.0237 6.61941L6.63206 19.0116C6.37735 19.2664 6.04389 19.3934 5.7101 19.3934H5.70978ZM18.1021 19.3934C17.7683 19.3934 17.4345 19.266 17.1801 19.0116L4.78783 6.61941C4.27873 6.11031 4.27873 5.28456 4.78783 4.77514C5.29692 4.26603 6.12265 4.26603 6.63174 4.77514L19.0243 17.1674C19.5334 17.6768 19.5334 18.5022 19.0243 19.0113C18.7696 19.266 18.4362 19.3934 18.1024 19.3934H18.1021Z" fill="black"/>
</svg>
