<svg width="26" height="25" viewBox="0 0 26 25" fill="none" xmlns="http://www.w3.org/2000/svg">
<path d="M24.956 11.8516C23.6695 7.45611 17.736 4.50317 13.0005 4.50317C8.26488 4.50317 2.33045 7.45611 1.04449 11.8516L1 12.0032L1.04449 12.1547C2.33045 16.5502 8.26441 19.5032 13 19.5032C17.7356 19.5032 23.6695 16.5507 24.9555 12.1547L25 12.0036L24.956 11.8516ZM13 18.3245C8.88955 18.3245 3.55802 15.7365 2.34482 12.0032C3.55802 8.2698 8.88909 5.68182 13 5.68182C17.1109 5.68182 22.442 8.2698 23.6552 12.0032C22.442 15.7365 17.1109 18.3245 13 18.3245ZM13.0649 8.23149C10.7038 8.23149 8.78297 9.97632 8.78297 12.121C8.78297 14.2658 10.7038 16.0106 13.0649 16.0106C15.426 16.0106 17.3468 14.2658 17.3468 12.121C17.3468 9.97632 15.426 8.23149 13.0649 8.23149Z" fill="#787878" stroke="#787878" stroke-width="0.3"/>
</svg>
