<svg xmlns="http://www.w3.org/2000/svg" width="27" height="25" fill="none"><path fill="#838383" stroke="#838383" stroke-width=".3" d="M11.671 21.212a8.919 8.919 0 0 0 6.72-3.068.778.778 0 0 0-.081-1.084.769.769 0 0 0-1.084.081 7.42 7.42 0 0 1-9.01 1.698 7.419 7.419 0 0 1-3.775-8.355 7.415 7.415 0 0 1 7.23-5.638 7.356 7.356 0 0 1 5.554 2.516.766.766 0 0 0 1.346-.443.777.777 0 0 0-.18-.56A8.949 8.949 0 0 0 3.51 8.573a8.95 8.95 0 0 0 8.162 12.64Z"/><path fill="#838383" stroke="#838383" stroke-width=".3" d="M13.546 13.048h9.4a.768.768 0 0 0 0-1.534h-9.4l1.76-1.76a.768.768 0 0 0-.543-1.309.767.767 0 0 0-.542.225l-3.069 3.068a.796.796 0 0 0-.163.246.747.747 0 0 0 0 .593c.039.091.094.175.163.245l3.069 3.07a.767.767 0 0 0 1.084-1.085l-1.76-1.76h.001Z"/></svg>