<svg xmlns="http://www.w3.org/2000/svg" width="15" height="14" fill="none"><path fill="#fff" stroke="#fff" stroke-width=".2" d="M13.998 8.733v2.446a2.32 2.32 0 0 1-2.32 2.321H3.32a2.321 2.321 0 0 1-2.321-2.321V2.82A2.321 2.321 0 0 1 3.32.5h2.445a.465.465 0 0 1 0 .929H3.32A1.392 1.392 0 0 0 1.927 2.82v8.358A1.392 1.392 0 0 0 3.32 12.57h8.357a1.393 1.393 0 0 0 1.393-1.392V8.733a.465.465 0 0 1 .928 0ZM9.418 1.43h2.997L7.17 6.67a.465.465 0 0 0 .33.797c.123 0 .242-.05.33-.137l5.241-5.242V5.08a.465.465 0 0 0 .928 0V.964a.465.465 0 0 0-.134-.33.465.465 0 0 0-.33-.134H9.418a.465.465 0 0 0 0 .929Z"/></svg>