<svg width="20" height="20" viewBox="0 0 20 20" fill="none" xmlns="http://www.w3.org/2000/svg">
<path d="M4.36689 16.8182C4.06345 16.8182 3.76001 16.7024 3.52875 16.4712C3.06594 16.008 3.06594 15.2577 3.52875 14.7948L14.7942 3.52917C15.257 3.06635 16.0076 3.06635 16.4705 3.52917C16.9333 3.99199 16.9333 4.74267 16.4705 5.20549L5.20533 16.4712C4.97378 16.7027 4.67062 16.8182 4.36718 16.8182H4.36689ZM15.6326 16.8182C15.3292 16.8182 15.0257 16.7024 14.7945 16.4712L3.52875 5.20549C3.06594 4.74267 3.06594 3.99199 3.52875 3.52888C3.99156 3.06606 4.74222 3.06606 5.20504 3.52888L16.471 14.7945C16.9339 15.2577 16.9339 16.008 16.471 16.4709C16.2395 16.7024 15.9363 16.8182 15.6329 16.8182H15.6326Z" fill="#787878"/>
</svg>
