<svg width="26" height="19" viewBox="0 0 26 19" fill="none" xmlns="http://www.w3.org/2000/svg">
<path d="M10.101 18.4813C11.3754 18.4799 12.6349 18.2055 13.7944 17.6764C14.9539 17.1473 15.9858 16.3753 16.8214 15.4126C16.952 15.257 17.0169 15.0567 17.0016 14.8537C16.9862 14.6512 16.8924 14.4622 16.7394 14.3285C16.5851 14.1952 16.3839 14.129 16.1805 14.1439C15.9771 14.1593 15.7881 14.2553 15.6553 14.41C14.5611 15.6621 13.0781 16.5103 11.4442 16.8185C9.8104 17.1262 8.12002 16.8764 6.64531 16.1083C5.17061 15.3403 3.99663 14.0988 3.31189 12.5838C2.62758 11.0687 2.47195 9.36694 2.87044 7.75284C3.26893 6.13873 4.19873 4.70523 5.50991 3.68294C6.8211 2.66064 8.43784 2.10828 10.1006 2.11486C11.1527 2.11267 12.1925 2.33624 13.1508 2.77023C14.1091 3.20423 14.9627 3.839 15.6549 4.63115C15.7872 4.78633 15.9766 4.8819 16.18 4.89724C16.3834 4.91259 16.5847 4.84639 16.739 4.71312C16.8915 4.57898 16.9858 4.39048 17.0011 4.18751C17.0165 3.98498 16.952 3.7842 16.8209 3.62858C15.5001 2.12231 13.7111 1.10264 11.741 0.733529C9.77139 0.364415 7.73468 0.667334 5.95706 1.59319C4.17987 2.51948 2.76479 4.01523 1.93889 5.84107C1.11254 7.66691 0.923165 9.71765 1.40056 11.6636C1.87795 13.6096 2.99494 15.3398 4.57266 16.5756C6.15038 17.8119 8.09678 18.4826 10.101 18.4808V18.4813Z" fill="#838383" stroke="#838383" stroke-width="0.3"/>
<path d="M22.5242 8.76373H13.124C12.85 8.76373 12.5966 8.91014 12.4594 9.14731C12.3222 9.38447 12.3227 9.67731 12.4594 9.91447C12.5962 10.1516 12.8496 10.298 13.124 10.298H22.5242L20.7649 12.0573C20.6216 12.201 20.5405 12.3961 20.5405 12.5995C20.5405 12.8029 20.6212 12.998 20.7649 13.1418C20.9087 13.2856 21.1038 13.3663 21.3072 13.3663C21.5106 13.3663 21.7057 13.2856 21.8495 13.1418L24.9181 10.0732C24.9874 10.0021 25.0431 9.91885 25.0817 9.82767C25.1636 9.63829 25.1636 9.42392 25.0817 9.23454C25.0426 9.14336 24.9874 9.06007 24.9181 8.98905L21.8495 5.92041C21.654 5.73804 21.3769 5.67053 21.1192 5.74286C20.8614 5.8152 20.6602 6.01685 20.5878 6.27418C20.5155 6.53194 20.5826 6.80856 20.7649 7.00451L22.5246 8.76373H22.5242Z" fill="#838383" stroke="#838383" stroke-width="0.3"/>
</svg>
