<svg width="19" height="18" viewBox="0 0 19 18" fill="none" xmlns="http://www.w3.org/2000/svg">
<path d="M17.6013 10.5371C17.1309 10.5371 16.7494 10.9168 16.7494 11.3849V16.1083C16.7494 16.2159 16.6609 16.3039 16.5528 16.3039H2.39733C2.2892 16.3039 2.20072 16.2159 2.20072 16.1083V2.02206C2.20072 1.91445 2.2892 1.82641 2.39733 1.82641H7.07837C7.54881 1.82641 7.93032 1.44677 7.93032 0.978631C7.93032 0.510488 7.54881 0.130849 7.07837 0.130849H2.39733C1.34924 0.130849 0.496826 0.979097 0.496826 2.02206V16.1083C0.496826 17.1512 1.34924 17.9995 2.39733 17.9995H16.5528C17.6009 17.9995 18.4533 17.1512 18.4533 16.1083V11.3849C18.4533 10.9168 18.0718 10.5371 17.6013 10.5371ZM18.4968 0.84634C18.4968 0.790908 18.4912 0.735476 18.4804 0.680976C18.4748 0.653958 18.4645 0.62927 18.457 0.603185C18.4491 0.576167 18.443 0.54915 18.4318 0.522599C18.4187 0.490923 18.4009 0.462509 18.384 0.432697C18.3732 0.414064 18.3658 0.3945 18.3536 0.376799C18.3222 0.330218 18.2862 0.286897 18.2464 0.247303C18.2464 0.247303 18.2464 0.246837 18.2459 0.246371C18.2403 0.240781 18.2338 0.237055 18.2277 0.231465C18.1926 0.198858 18.1565 0.168114 18.1163 0.141563C18.0952 0.127588 18.0718 0.11734 18.0493 0.105229C18.0226 0.0907889 17.9978 0.075417 17.9697 0.0637716C17.9412 0.0521263 17.9112 0.0451391 17.8817 0.0367544C17.8579 0.030233 17.8349 0.0204509 17.8106 0.0157928C17.7633 0.00647647 17.7151 0.00274995 17.6669 0.00135251C17.6594 0.00135251 17.6524 -0.000976562 17.6453 -0.000976562H11.7472C11.2768 -0.000976562 10.8953 0.378662 10.8953 0.846806C10.8953 1.31495 11.2768 1.69459 11.7472 1.69459H15.5988L6.66737 10.6601C6.33549 10.9922 6.33783 11.5289 6.67159 11.8591C6.83776 12.0236 7.05496 12.1055 7.27169 12.1055C7.48843 12.1055 7.70984 12.0222 7.87602 11.8549L16.7929 2.90477V6.71746C16.7929 7.18561 17.1744 7.56525 17.6449 7.56525C18.1153 7.56525 18.4968 7.18561 18.4968 6.71746V0.848203C18.4968 0.848203 18.4968 0.846806 18.4968 0.84634Z" fill="#787878"/>
</svg>
