<svg width="24" height="24" viewBox="0 0 24 24" fill="none" xmlns="http://www.w3.org/2000/svg">
<path fill-rule="evenodd" clip-rule="evenodd" d="M12.2867 4.6419C13.3322 3.60315 14.7825 3 16.3002 3C17.8179 3 19.2344 3.56964 20.3474 4.6419C21.3929 5.68065 22 7.1215 22 8.62937C22 10.1372 21.4266 11.5446 20.3474 12.6168L12.4216 20.4913C12.2867 20.6253 12.118 20.6923 11.9494 20.6923C11.7808 20.6923 11.6121 20.6253 11.4772 20.4913C11.4331 20.4474 9.96939 18.974 8.31953 17.3133C6.18884 15.1686 3.74766 12.7113 3.65261 12.6168C2.60708 11.5781 2 10.1372 2 8.62937C2 7.1215 2.57336 5.71416 3.65261 4.6419C4.69815 3.60315 6.1484 3 7.6661 3C9.18381 3 10.6003 3.56964 11.6796 4.6419L11.9831 4.94347L12.2867 4.6419Z" fill="black"/>
</svg>
