<svg xmlns="http://www.w3.org/2000/svg" width="24" height="24" fill="none"><path fill="#4FF3FF" stroke="#4FF3FF" stroke-width=".2" d="M6.879 8.08c0 1.852.945 3.474 2.366 4.41C6.132 13.647 3.9 16.7 3.9 20.274c0 .489.383.884.866.884a.872.872 0 0 0 .866-.884c0-3.597 2.86-6.52 6.368-6.52 3.509 0 6.368 2.923 6.368 6.52 0 .489.383.884.866.884a.872.872 0 0 0 .866-.884c0-3.575-2.232-6.627-5.345-7.786A5.266 5.266 0 0 0 17.12 8.08c0-2.883-2.298-5.239-5.121-5.239-2.823 0-5.121 2.356-5.121 5.24ZM12 4.61c1.866 0 3.39 1.555 3.39 3.47 0 1.916-1.524 3.472-3.39 3.472S8.61 9.996 8.61 8.08c0-1.915 1.524-3.47 3.39-3.47Z"/></svg>