<svg width="42" height="43" viewBox="0 0 42 43" fill="none" xmlns="http://www.w3.org/2000/svg">
<path d="M26.9138 31.4018C26.625 31.416 26.3461 31.2964 26.1449 31.0753C25.944 30.8547 25.8388 30.5535 25.8513 30.2463C25.8638 29.9402 25.9926 29.6514 26.2092 29.4516L32.6444 22.3742H6.87084V22.3744L6.86493 22.374C6.50989 22.353 6.19372 22.1334 6.02593 21.7998C5.85802 21.4669 5.85802 21.0635 6.02593 20.7306C6.19413 20.3972 6.50978 20.1774 6.86492 20.1564L6.86491 20.1562H6.87084H32.644L26.1961 13.0838L26.1961 13.0838L26.1945 13.082C26.0119 12.8719 25.9112 12.5939 25.9112 12.3069C25.9112 12.0199 26.0119 11.7419 26.1945 11.5318L26.1945 11.5318L26.196 11.5302C26.385 11.322 26.6439 11.203 26.9159 11.203C27.1878 11.203 27.4467 11.322 27.6357 11.5302L35.7977 20.4967C35.798 20.4969 35.7982 20.4971 35.7984 20.4974C35.9916 20.7022 36.1 20.9828 36.1 21.2749C36.1 21.5668 35.9922 21.8474 35.7983 22.0524C35.7981 22.0527 35.7979 22.0529 35.7977 22.0531L27.6487 31.0052C27.4671 31.2423 27.2014 31.3882 26.9138 31.4018ZM26.9138 31.4018C26.9138 31.4018 26.9138 31.4018 26.9139 31.4018L26.9089 31.302L26.9137 31.4019C26.9137 31.4019 26.9137 31.4018 26.9138 31.4018Z" fill="black" stroke="black" stroke-width="0.2"/>
</svg>
