<svg xmlns="http://www.w3.org/2000/svg" width="24" height="25" fill="none"><path fill="#000" d="M10.885 16.774h6.07l-3.439 3.194a.712.712 0 0 0-.208.722c.074.258.291.46.568.529a.844.844 0 0 0 .776-.194l4.799-4.467a.72.72 0 0 0 .236-.529.72.72 0 0 0-.236-.528l-4.799-4.468a.83.83 0 0 0-.568-.22.83.83 0 0 0-.568.22.72.72 0 0 0-.236.529.72.72 0 0 0 .236.529l3.439 3.194h-6.07c-1.485 0-2.909-.55-3.959-1.527-1.05-.977-1.64-2.303-1.64-3.685V3.99a.737.737 0 0 0-.4-.645.852.852 0 0 0-.8 0 .736.736 0 0 0-.399.645v6.084c0 1.777.758 3.481 2.108 4.738 1.35 1.256 3.181 1.963 5.09 1.963Z"/></svg>