<svg width="27" height="25" viewBox="0 0 27 25" fill="none" xmlns="http://www.w3.org/2000/svg">
<path d="M11.6714 21.2123C12.9457 21.211 14.2052 20.9366 15.3647 20.4075C16.5242 19.8784 17.5561 19.1064 18.3917 18.1437C18.5223 17.9881 18.5872 17.7877 18.5719 17.5848C18.5565 17.3822 18.4627 17.1933 18.3097 17.0596C18.1554 16.9263 17.9542 16.8601 17.7508 16.875C17.5474 16.8904 17.3584 16.9864 17.2256 17.1411C16.1314 18.3931 14.6484 19.2414 13.0145 19.5496C11.3807 19.8573 9.69033 19.6074 8.21562 18.8394C6.74092 18.0714 5.56695 16.8299 4.8822 15.3148C4.19789 13.7998 4.04227 12.098 4.44075 10.4839C4.83924 8.86981 5.76904 7.43631 7.08023 6.41401C8.39141 5.39172 10.0082 4.83936 11.6709 4.84594C12.723 4.84374 13.7629 5.06732 14.7212 5.50131C15.6794 5.93531 16.533 6.57008 17.2252 7.36223C17.3576 7.51741 17.5469 7.61298 17.7503 7.62832C17.9538 7.64366 18.155 7.57747 18.3093 7.4442C18.4618 7.31006 18.5561 7.12156 18.5714 6.91859C18.5868 6.71606 18.5223 6.51528 18.3913 6.35966C17.0704 4.85339 15.2814 3.83372 13.3113 3.46461C11.3417 3.09549 9.30499 3.39841 7.52737 4.32427C5.75019 5.25056 4.3351 6.7463 3.5092 8.57215C2.68286 10.398 2.49348 12.4487 2.97087 14.3947C3.44826 16.3406 4.56525 18.0709 6.14297 19.3067C7.7207 20.5429 9.66709 21.2137 11.6714 21.2119V21.2123Z" fill="#838383" stroke="#838383" stroke-width="0.3"/>
<path d="M13.546 13.0478L22.9462 13.0478C23.2202 13.0478 23.4735 12.9014 23.6108 12.6642C23.748 12.4271 23.7475 12.1342 23.6108 11.8971C23.474 11.6599 23.2206 11.5135 22.9462 11.5135L13.546 11.5135L15.3052 9.75426C15.4486 9.61048 15.5297 9.4154 15.5297 9.21199C15.5297 9.00858 15.449 8.8135 15.3052 8.66972C15.1615 8.52593 14.9664 8.44527 14.763 8.44527C14.5596 8.44527 14.3645 8.52593 14.2207 8.66972L11.1521 11.7384C11.0828 11.8094 11.0271 11.8927 10.9885 11.9839C10.9066 12.1732 10.9066 12.3876 10.9885 12.577C11.0276 12.6682 11.0828 12.7515 11.1521 12.8225L14.2207 15.8911C14.4162 16.0735 14.6933 16.141 14.951 16.0687C15.2088 15.9963 15.41 15.7947 15.4824 15.5373C15.5547 15.2796 15.4876 15.003 15.3052 14.807L13.5456 13.0478L13.546 13.0478Z" fill="#838383" stroke="#838383" stroke-width="0.3"/>
</svg>
