<svg xmlns="http://www.w3.org/2000/svg" width="26" height="19" fill="none"><path fill="#838383" stroke="#838383" stroke-width=".3" d="M10.101 18.481a8.92 8.92 0 0 0 6.72-3.068.778.778 0 0 0-.082-1.085.769.769 0 0 0-1.084.082 7.419 7.419 0 0 1-9.01 1.698A7.42 7.42 0 0 1 2.87 7.753a7.415 7.415 0 0 1 7.23-5.638 7.356 7.356 0 0 1 5.555 2.516A.766.766 0 0 0 17 4.188a.776.776 0 0 0-.18-.56A8.948 8.948 0 0 0 1.939 5.842a8.95 8.95 0 0 0 8.162 12.64Z"/><path fill="#838383" stroke="#838383" stroke-width=".3" d="M22.524 8.764h-9.4a.768.768 0 0 0 0 1.534h9.4l-1.76 1.76a.768.768 0 0 0 .543 1.308c.204 0 .399-.08.543-.224l3.068-3.069a.798.798 0 0 0 .164-.245.747.747 0 0 0 0-.593.806.806 0 0 0-.164-.246L21.85 5.92a.767.767 0 0 0-1.084 1.085l1.76 1.759Z"/></svg>