<svg xmlns="http://www.w3.org/2000/svg" width="25" height="24" fill="none"><path fill="#787878" d="M10.132 21.5h5.727a4.166 4.166 0 0 0 2.891-1.16 3.9 3.9 0 0 0 1.2-2.798V6.854h1.227c.293 0 .563-.15.709-.395a.77.77 0 0 0 0-.792.823.823 0 0 0-.709-.396h-4.909V4.48c0-.524-.216-1.027-.6-1.399a2.084 2.084 0 0 0-1.445-.58h-2.455c-.542 0-1.062.21-1.446.58a1.95 1.95 0 0 0-.6 1.4v.791H4.814a.823.823 0 0 0-.709.396.77.77 0 0 0 0 .792.823.823 0 0 0 .709.395H6.04v10.688a3.9 3.9 0 0 0 1.2 2.797 4.167 4.167 0 0 0 2.89 1.161Zm1.227-17.02c0-.22.183-.396.409-.396h2.455c.108 0 .212.041.289.116a.39.39 0 0 1 .12.28v.792h-3.273V4.48Zm6.955 2.374v10.688c-.001.63-.26 1.233-.72 1.678a2.5 2.5 0 0 1-1.735.697h-5.727a2.5 2.5 0 0 1-1.735-.697 2.34 2.34 0 0 1-.72-1.678V6.854h10.637Z"/><path fill="#787878" d="M10.6 15.04a.76.76 0 0 0 .527.212.76.76 0 0 0 .529-.211l1.34-1.296 1.339 1.296c.19.177.461.244.716.177a.736.736 0 0 0 .523-.506c.07-.246 0-.51-.183-.693l-1.34-1.297 1.34-1.296a.706.706 0 0 0 .183-.693.736.736 0 0 0-.523-.506.766.766 0 0 0-.716.177l-1.34 1.296-1.34-1.296c-.19-.177-.461-.245-.716-.177a.736.736 0 0 0-.523.506c-.07.246 0 .51.183.693l1.34 1.296-1.34 1.297a.71.71 0 0 0 0 1.021Z"/></svg>