<svg width="24" height="25" viewBox="0 0 24 25" fill="none" xmlns="http://www.w3.org/2000/svg">
<path d="M12 0.787109C5.37276 0.787109 0 6.15986 0 12.7871C0 19.4144 5.37276 24.7871 12 24.7871C18.6272 24.7871 24 19.4144 24 12.7871C24 6.15986 18.6272 0.787109 12 0.787109ZM12.0205 19.3652C11.1073 19.3652 10.362 18.62 10.362 17.7067C10.362 16.7935 11.1073 16.0483 12.0205 16.0483C12.9337 16.0483 13.6789 16.7935 13.6789 17.7067C13.6789 18.62 12.9337 19.3652 12.0205 19.3652ZM13.751 8.11657L13.2705 13.5967C13.2463 13.933 13.0783 14.2456 12.8137 14.4619C12.5973 14.6541 12.3089 14.7504 11.9963 14.7504H11.8763C11.2752 14.7024 10.7705 14.2215 10.7226 13.5967L10.242 8.11657C10.1941 7.65976 10.3379 7.20336 10.6505 6.84283C10.9631 6.4823 11.3715 6.26598 11.8283 6.21804C12.3089 6.17011 12.7415 6.31391 13.1021 6.62651C13.4626 6.91493 13.6789 7.34757 13.7269 7.80438C13.7748 7.92443 13.7748 8.0207 13.751 8.11657Z" fill="#ff6b00"/>
</svg>
