<svg xmlns="http://www.w3.org/2000/svg" width="15" height="16" fill="none"><path fill="#fff" stroke="#fff" stroke-width=".5" d="M2.46 15.713h8.292c.387 0 .758-.156 1.032-.433a1.49 1.49 0 0 0 .428-1.044v-1.2h.33c.386 0 .757-.156 1.03-.433.274-.277.428-.652.428-1.043v-7.5h-.003a.325.325 0 0 0-.091-.23L10.498.38a.318.318 0 0 0-.228-.092V.285H5.16c-.387 0-.758.156-1.031.433A1.486 1.486 0 0 0 3.7 1.761v.333H2.46c-.387 0-.758.156-1.032.433A1.488 1.488 0 0 0 1 3.572v10.664c0 .392.154.767.428 1.044s.645.433 1.032.433ZM10.593 1.4l2.305 2.333h-2.062a.247.247 0 0 1-.245-.248l.002-2.085Zm-6.247.361c0-.218.086-.427.238-.581A.808.808 0 0 1 5.16.938h4.788v2.548c0 .239.095.467.261.636a.887.887 0 0 0 .628.264h2.518v7.174a.828.828 0 0 1-.238.581.808.808 0 0 1-.575.241H5.16a.81.81 0 0 1-.574-.241.829.829 0 0 1-.239-.581V1.76Zm-2.7 1.81c0-.218.086-.427.239-.582a.811.811 0 0 1 .575-.241H3.7v8.81c.001.392.155.767.428 1.044.274.277.644.432 1.031.433h6.408v1.2a.83.83 0 0 1-.238.583.808.808 0 0 1-.576.242H2.46a.81.81 0 0 1-.575-.241.83.83 0 0 1-.239-.582V3.572Z"/></svg>