<svg xmlns="http://www.w3.org/2000/svg" width="27" height="27" fill="none"><path fill="#fff" d="M21.034 3.375H5.982c-.84 0-1.647.337-2.241.936a3.213 3.213 0 0 0-.928 2.261v8.865c0 .848.334 1.662.928 2.261.594.6 1.4.936 2.24.936h5.414v3.392c-.002.305.084.605.247.861.162.258.395.462.67.589.209.098.437.149.668.149.371-.002.73-.136 1.014-.378l5.44-4.61h1.584c.84 0 1.647-.337 2.241-.936a3.21 3.21 0 0 0 .928-2.261V6.572c0-.845-.332-1.656-.922-2.255a3.155 3.155 0 0 0-2.23-.942Zm1.057 12.06c0 .282-.112.553-.31.753-.198.2-.466.312-.747.312h-1.98c-.249 0-.489.09-.679.251l-4.867 4.127V17.57a1.07 1.07 0 0 0-.31-.754 1.052 1.052 0 0 0-.746-.312h-6.47c-.28 0-.55-.112-.747-.312a1.07 1.07 0 0 1-.31-.753V6.572c0-.282.112-.553.31-.753.198-.2.467-.312.747-.312h15.052c.28 0 .55.112.747.312.198.2.31.47.31.753v8.863Z"/></svg>