<svg width="31" height="19" viewBox="0 0 31 19" fill="none" xmlns="http://www.w3.org/2000/svg">
<path d="M27.3422 10.8284L20.9986 17.0809C20.7832 17.2591 20.6529 17.5187 20.6403 17.7965C20.6275 18.0753 20.7344 18.3468 20.9347 18.5441C21.135 18.7413 21.41 18.8458 21.692 18.8334M27.3422 10.8284L21.0555 1.26108C21.2249 1.09392 21.4549 1 21.6946 1C21.9342 1 22.1642 1.09392 22.3336 1.26108L22.4037 1.18982M27.3422 10.8284H1.86163V10.8285L1.85632 10.8283C1.50966 10.8099 1.19542 10.6173 1.02678 10.3167C0.857718 10.0162 0.857739 9.65106 1.02685 9.35057C1.19589 9.0502 1.50958 8.85757 1.85632 8.83915L1.85632 8.83901H1.86163H27.3418M27.3422 10.8284L27.3418 8.83901M21.692 18.8334C21.9729 18.8215 22.2355 18.6937 22.4169 18.4817L30.4793 10.544C30.4795 10.5438 30.4798 10.5435 30.4801 10.5433C30.6733 10.3601 30.7826 10.1073 30.7826 9.84225C30.7826 9.57702 30.6727 9.32425 30.48 9.14121C30.4798 9.141 30.4796 9.14078 30.4794 9.14057L22.4038 1.18992L22.4037 1.18982M21.692 18.8334C21.6921 18.8334 21.6921 18.8334 21.6921 18.8334L21.6877 18.7335L21.6919 18.8334C21.692 18.8334 21.692 18.8334 21.692 18.8334ZM22.4037 1.18982C22.2155 1.00407 21.9602 0.9 21.6946 0.9C21.4289 0.9 21.1735 1.00411 20.9853 1.18992L20.9838 1.19146C20.8015 1.37939 20.6995 1.62989 20.6995 1.8902C20.6995 2.15052 20.8015 2.40102 20.9838 2.58894L20.9854 2.59065L20.9854 2.59063L27.3418 8.83901M22.4037 1.18982L27.3418 8.83901" fill="black" stroke="black" stroke-width="0.2"/>
</svg>
