<svg xmlns="http://www.w3.org/2000/svg" width="1392" height="260" fill="none"><mask id="a" width="1392" height="260" x="0" y="0" maskUnits="userSpaceOnUse" style="mask-type:alpha"><path fill="#000" d="M1392 0H0v260h1392V0Z"/></mask><g mask="url(#a)"><path fill="#0017BF" d="M1288.51 32h51.84c1.39 0 2.51 1.108 2.51 2.475v59.539c0 1.367-1.12 2.475-2.51 2.475h-51.84c-1.39 0-2.51-1.108-2.51-2.475v-59.54c0-1.366 1.12-2.474 2.51-2.474Z"/><path fill="#FFB904" d="M1311.07 43.467h21.59v25.056h-21.59V43.467Z"/><path fill="#3DF130" d="M1296.2 61.445h23.91v23.563h-23.91V61.445Z"/><path fill="#40398D" d="M972 50.187v112.218c0 3.408 2.37 6.188 5.287 6.188h168.373c2.9 0 5.27-2.78 5.27-6.188V50.187c0-3.408-2.37-6.187-5.27-6.187H977.287c-2.934 0-5.287 2.78-5.287 6.187Z"/><path fill="#2E2C6E" d="M972 50.187v6.568h178.95v-6.568c0-3.408-2.37-6.187-5.27-6.187H977.303c-2.933 0-5.286 2.78-5.286 6.187H972Z"/><path fill="#FFB904" d="M1118.55 50.386a3.032 3.032 0 0 0 3.03 3.027c1.68 0 3.04-1.356 3.04-3.027s-1.36-3.028-3.04-3.028a3.032 3.032 0 0 0-3.03 3.028Z"/><path fill="#3DF130" d="M1128.3 50.386a3.025 3.025 0 0 0 3.03 3.027c1.67 0 3.03-1.356 3.03-3.027s-1.36-3.028-3.03-3.028a3.025 3.025 0 0 0-3.03 3.028Z"/><path fill="#5EF939" d="M1138.02 50.386a3.034 3.034 0 0 0 3.04 3.027c1.67 0 3.03-1.356 3.03-3.027s-1.36-3.028-3.03-3.028a3.034 3.034 0 0 0-3.04 3.028Z"/><path fill="#3DF130" d="M1001.64 78.6h13.25v3.365h-13.25V78.6ZM1001.64 140.173h13.25v3.366h-13.25v-3.366ZM1010.15 88.62h24.67v3.366h-24.67V88.62Z"/><path fill="#FFB904" d="M1038.32 88.62h24.67v3.366h-24.67V88.62Z"/><path fill="#3DF130" d="M1010.15 129.315h24.67v3.366h-24.67v-3.366Z"/><path fill="#FFB904" d="M1038.32 129.315h24.67v3.366h-24.67v-3.366Z"/><path fill="#3DF130" d="M1024.23 99.124h43.81v3.366h-43.81v-3.366ZM1024.23 120.051h43.81v3.366h-43.81v-3.366ZM1048.42 108.888h43.81v3.365h-43.81v-3.365Z"/><path fill="#FFB904" d="M1072.87 99.124h50.09v3.366h-50.09v-3.366ZM1072.87 120.051h50.09v3.366h-50.09v-3.366ZM1001.64 67.838h13.25v3.366h-13.25v-3.366ZM1001.64 150.436h13.25v3.366h-13.25v-3.366Z"/><circle cx="990.804" cy="70.02" r="2.182" fill="#2E2C6E"/><circle cx="990.804" cy="80.282" r="2.182" fill="#2E2C6E"/><circle cx="990.804" cy="90.545" r="2.182" fill="#2E2C6E"/><circle cx="990.804" cy="100.807" r="2.182" fill="#2E2C6E"/><circle cx="990.804" cy="111.069" r="2.182" fill="#2E2C6E"/><circle cx="990.804" cy="121.331" r="2.182" fill="#2E2C6E"/><circle cx="990.804" cy="131.594" r="2.182" fill="#2E2C6E"/><circle cx="990.804" cy="141.856" r="2.182" fill="#2E2C6E"/><circle cx="990.804" cy="152.118" r="2.182" fill="#2E2C6E"/><path fill="#0017BF" d="M1211.7 192.927s-38.33 38.217-53.62 98.09c-15.3 59.872-14.27 103.929-14.27 103.929h57.8s1.53-36.579 7.87-66.523c6.35-29.945 15.62-51.965 15.62-51.965l6.23 118.488h57.69s-10.59-171.975-20.85-197.651c-8.36-20.895-56.45-4.368-56.45-4.368h-.02Z"/><path fill="#fff" d="M1225.09 277.056c.35 0 .62-.281.62-.612l-.5-40.98a.611.611 0 0 0-.38-.562l-15.08-5.791a.602.602 0 0 0-.78.348c-.12.314.03.662.35.777l14.7 5.658.49 40.566c0 .331.29.596.62.596h-.04Z"/><path fill="#FFBB87" d="M1147.6 139.59c-.81-4.434-2.53-8.669-5.12-12.375-3.65-5.195-9.21-11.829-14.24-12.507-8.36-1.125-21.11 2.581-21.85 8.404-.75 5.824 2.38 7.131 2.38 7.131s-.69 3.689.81 5.31l1.5 1.622s-.95 4.682 4.49 5.244c5.43.563 8.43-.529 9.36-1.29.94-.761 1.44-1.522 1.44-1.522s-2.93 5.575 3.43 8.023c6.37 2.465 17.8-8.023 17.8-8.023v-.017Z"/><path fill="#000" d="M1111.14 130.973c2.55 0 6.7-.331 10.49-2.118 3.6-1.687 5.4-3.408 5.22-4.963-.08-.745-.66-1.737-2.91-2.217-1.48-.314-2.71-.248-3.78-.182-1.79.099-3.2.182-5.37-1.323a.633.633 0 0 0-.85.148c-.2.282-.13.646.15.844 2.52 1.754 4.28 1.655 6.13 1.539 1.05-.066 2.14-.133 3.47.165 1.17.248 1.9.695 1.95 1.175.09.711-1.06 2.101-4.52 3.739-5.59 2.63-12.22 1.902-12.28 1.886a.573.573 0 0 0-.66.529c-.04.331.19.629.53.662.1 0 1.02.116 2.45.116h-.02Z"/><path fill="#FFBB87" d="M1133.55 120.649s-11.62 3.425-10.49 6.039c1.12 2.63 8.05 2.515 8.05 2.515s-6.36 9.827.75 14.889l1.69-23.443Z"/><path fill="#000" d="M1131.86 144.705c.18 0 .38-.083.5-.248a.605.605 0 0 0-.15-.844c-6.57-4.649-.85-13.682-.6-14.062.12-.182.13-.43.02-.629a.601.601 0 0 0-.53-.314h-.25c-2.56 0-6.58-.563-7.26-2.151-.03-.083-.05-.182.03-.364.76-1.605 6.58-3.838 10.08-4.864.31-.099.49-.43.41-.744a.617.617 0 0 0-.74-.414c-.98.281-9.6 2.895-10.83 5.509-.21.464-.23.927-.05 1.34 1 2.333 5.47 2.796 7.59 2.863-1.4 2.647-4.75 10.389 1.43 14.79.1.083.23.116.35.116v.016Z"/><path fill="#000" d="M1111.06 137.77c.35 0 8.68-.066 13.52-1.886 5.21-1.952 4.29-6.75 4.28-6.799a.603.603 0 0 0-.71-.463c-.34.066-.53.38-.49.711.04.149.72 3.838-3.51 5.426-4.62 1.738-13.01 1.804-13.09 1.804a.6.6 0 0 0-.6.612c0 .331.27.595.62.595h-.02ZM1122.96 122.122h-4.79v-18.629h4.79v18.629Z"/><path fill="#fff" d="M1128.99 85.243c0 10.191-2.9 18.463-6.46 18.463-3.57 0-6.47-8.272-6.47-18.463s2.9-18.463 6.47-18.463c3.56 0 6.46 8.272 6.46 18.463ZM1187.44 395.545c.32 0 .58-.249.6-.563.08-1.092 8.7-109.008 37.01-141.054a.613.613 0 0 0-.05-.844.608.608 0 0 0-.85.05c-28.59 32.343-37.22 140.673-37.3 141.765-.02.331.23.629.56.646h.05-.02ZM1266.15 223.238c.41 0 .82-.017 1.25-.067a.607.607 0 1 0-.11-1.207c-7.74.761-12.94-6.717-12.99-6.8a.618.618 0 0 0-.85-.165.612.612 0 0 0-.17.843c.22.315 5.11 7.379 12.87 7.379v.017Z"/><path fill="#fff" d="M1278.84 395.543c.38-.033.63-.315.6-.646l-13.68-172.322c-.03-.331-.28-.579-.64-.546a.601.601 0 0 0-.55.646l13.67 172.322c.04.314.29.562.6.562v-.016Z"/><path fill="#FFB904" d="m1146.99 123.179-23.37 28.439s16.62 20.449 35.32 27.182c18.69 6.734 39.46 0 39.46 0v30.176h73.73s-3.28-83.001-5.72-83.811c-17.42-5.84-41.33-8.074-52.45-5.493-4.56 1.059-32.2 15.469-36.35 15.965-4.16.496-30.64-12.474-30.64-12.474l.02.016Z"/><path fill="#0017BF" d="M1245.36 99.19s-4.52-1.422-6.49-4.202c-1.99-2.779-1.93-9.314-1.93-9.314s-8.58 3.789-10.73 3.177c-2.16-.612-5.82-10.655-2.67-14.691 3.15-4.037 8.65 1.555 8.65 1.555s1.57-5.956 7.87-4.136c7.37 2.117 8.83 9.843 8.83 9.843s1.03-8.205 6-4.251c4.97 3.954 2.51 13.268 2.51 13.268s4.06 2.068 2.96 5.94c-1.08 3.87-6.94 7.278-6.94 7.278l-8.07-4.45.01-.016Z"/><path fill="#FFBB87" d="m1245.35 111.052.3 12.49s-2.26 3.64-9.82 4.368c-5.63.546-7.64-.645-7.64-.645l.63-6.336.63-6.188 13.61-3.16 2.29-.529Z"/><path fill="#000" d="M1243.06 111.58c-.02.347-.15.744-.35 1.208-2.75 6.286-10.64 7.775-13.89 8.123l.63-6.188 13.61-3.16v.017Z"/><path fill="#FFBB87" d="M1225.87 86.318s-6.41 15.783-3.53 24.435c2.89 8.653 11.09 6.998 15.96 5.145 4.88-1.853 7.05-4.847 7.05-4.847s4.67 1.357 7.59-2.879c2.91-4.235.83-8.933-1.86-9.926-2.68-1.01-5.73.943-5.73.943l2.27-4.6s-11.26-22.615-21.75-8.255v-.016Z"/><path fill="#000" d="M1245.99 106.023c.12 0 .25-.033.35-.115l5.73-4.153a.603.603 0 0 0 .14-.844.615.615 0 0 0-.85-.132l-5.73 4.153a.6.6 0 0 0-.13.843c.11.166.29.248.48.248h.01ZM1237.84 94.143c.13 0 .28-.05.38-.132a.58.58 0 0 0 .08-.844c-2.25-2.697-4.97-1.754-5.08-1.72a.603.603 0 0 0-.37.777c.12.314.45.48.76.364.09-.033 2.04-.678 3.75 1.357.11.149.3.215.46.215l.02-.017ZM1224.3 92.457c.13 0 .26-.05.38-.133 1.29-1.075 2.7-.347 2.77-.314.3.149.66.05.81-.248.15-.298.05-.662-.25-.81-.08-.05-2.17-1.159-4.11.446a.588.588 0 0 0-.08.844c.12.149.3.215.46.215h.02ZM1224.61 98.478c.27 0 .52-.182.58-.447l.75-2.879a.602.602 0 0 0-.43-.727.603.603 0 0 0-.73.43l-.75 2.878a.6.6 0 0 0 .44.728c.05 0 .09.017.14.017ZM1233.94 99.056c.27 0 .52-.181.58-.446l.75-2.879a.598.598 0 0 0-1.16-.298l-.75 2.879a.6.6 0 0 0 .44.728c.05 0 .1.016.14.016ZM1231.18 110.174c.15 0 .31 0 .48-.05 1.21-.264 2.17-1.489 2.86-3.639.09-.232 0-.497-.19-.662a.576.576 0 0 0-.68-.05l-4.41 2.515a.595.595 0 0 0-.15.926c.03.05.89.96 2.07.96h.02Zm1.52-2.482c-.4.712-.84 1.142-1.29 1.241-.27.05-.51 0-.73-.083l2.04-1.158h-.02Z"/><path fill="#0017BF" d="M1245.36 99.191s-4.87-1.158-6.43-5.294c-1.55-4.136-1.06-7.726-1.06-7.726s-2.65 2.564-6.94 1.837c-4.28-.728-5.19-5.228-5.19-5.228l4.24-4.368s16.01 4.45 16.44 3.97c.43-.48 5.67 10.407 5.67 10.407l-6.74 6.419.01-.017Z"/><path fill="#000" d="M1251.28 106.254c.2 0 .4-.099.51-.281a.581.581 0 0 0-.2-.827l-3.01-1.869a.6.6 0 0 0-.83.198.598.598 0 0 0 .2.827l3.01 1.87c.1.066.22.082.32.082Z"/><path fill="#E64218" d="M1237.38 102.68c.84 0 1.64-.298 2.28-.86a3.372 3.372 0 0 0 1.16-2.366l.18-2.878c.04-.447-.11-.86-.41-1.208-.3-.331-.7-.53-1.14-.563l-6.37-.397c-.99-.05-1.7.645-1.75 1.555l-.19 2.88a3.48 3.48 0 0 0 3.24 3.672l2.78.182h.22v-.017Zm-4.4-7.064 6.4.397c.12 0 .23.066.32.149.08.083.11.198.11.33l-.18 2.88c-.03.595-.3 1.141-.76 1.538-.45.397-1.01.596-1.63.563l-2.78-.182c-1.24-.083-2.19-1.142-2.11-2.383l.19-2.878c0-.232.21-.414.44-.414Z"/><path fill="#E64218" d="M1240.52 98.794h.14c.05 0 5.02-1.108 9.43-.165.31.066.64-.133.71-.464a.588.588 0 0 0-.47-.71c-4.65-.994-9.72.115-9.94.165a.605.605 0 0 0-.46.727c.06.282.31.464.59.464v-.017Z"/><path fill="#000" d="M1229.32 104.469s.13 0 .2-.033a.6.6 0 0 0 .38-.761c-1.44-4.334.32-6.055.4-6.121a.585.585 0 0 0 .03-.844.596.596 0 0 0-.84-.05c-.1.083-2.46 2.267-.73 7.412a.6.6 0 0 0 .58.414l-.02-.017Z"/><path fill="#E64218" d="M1225.23 102.053c.76 0 1.47-.265 2.05-.778.63-.546 1-1.307 1.05-2.134l.21-3.342c.03-.413-.11-.81-.38-1.108a1.449 1.449 0 0 0-1.06-.513l-4.71-.298c-.86-.05-1.57.596-1.62 1.423l-.22 3.342a3.124 3.124 0 0 0 2.92 3.309l1.54.099h.22Zm-2.92-6.982 4.72.298c.09 0 .17.05.24.116a.39.39 0 0 1 .08.231l-.22 3.342c-.03.513-.26.976-.64 1.307-.38.331-.87.513-1.38.464l-1.54-.1c-1.04-.066-1.86-.976-1.79-2.018l.22-3.342c0-.165.14-.298.33-.298h-.02Z"/><path fill="#0017BF" d="M1230.25 153.537v21.574c0 1.141-.95 2.084-2.09 2.084h-21.61c-1.18 0-2.09-.943-2.09-2.084v-21.574a2.09 2.09 0 0 1 2.09-2.084h21.61c1.14 0 2.09.943 2.09 2.084Z"/><path fill="#fff" d="M1228.36 153.537v21.574c0 1.141-.94 2.084-2.09 2.084h-21.61c-1.18 0-2.09-.943-2.09-2.084v-21.574a2.09 2.09 0 0 1 2.09-2.084h21.61c1.15 0 2.09.943 2.09 2.084Z"/><path fill="#DC3C1E" d="M1220.94 161.314a3.574 3.574 0 1 1 0-7.147 3.58 3.58 0 0 1 3.58 3.573 3.582 3.582 0 0 1-3.58 3.574Z"/><path fill="#E64218" d="M1228.36 168.378v6.733c0 1.142-.94 2.085-2.09 2.085h-21.61c-1.18 0-2.09-.943-2.09-2.085v-6.617c3.35-1.704 9.18-4.269 12.9-3.64 5.48.943 5.48 5.013 7.17 5.327.96.182 3.65-.877 5.74-1.803h-.02ZM1232.15 98.99c.2 0 .4-.098.52-.28.16-.282.08-.662-.2-.828-.13-.082-3.18-1.919-5.04-.463-.26.199-.3.58-.1.844.2.265.58.314.85.1.98-.778 2.96.132 3.64.545.1.066.2.083.32.083h.01Z"/><path fill="#FFBB87" d="M1244.63 173.44s-8.5-4.385-14.08-5.013c-5.59-.629-8.22 5.013-8.22 5.013s-4.99 1.571-10.58 2.183c-5.58.629-9.99 1.258-9.99 3.127 0 1.87 4.41 3.127 4.41 3.127s-7.04.943-4.41 3.756c2.64 2.812 7.34 3.755 7.34 3.755s-5.88 1.572 2.06 4.384c7.94 2.813 25.35 3.441 34.12-3.127 8.77-6.568-.65-17.222-.65-17.222v.017Z"/><path fill="#FFB904" d="M1266.41 125.164s49.85 22.946 44.13 50.889c-5.71 27.943-71.66 23.939-71.66 23.939v-35.669l23.75-1.654 3.76-37.505h.02Z"/><path fill="#0017BF" d="M1238.9 164.936h.13c.15-.033 14.42-3.226 28.31-2.846.35 0 .61-.265.61-.579 0-.331-.25-.612-.58-.612-14.04-.364-28.45 2.845-28.6 2.879a.591.591 0 0 0-.45.727c.07.282.31.464.6.464l-.02-.033Z"/><path fill="#0017BF" d="M1272.94 162.752c2.57 0 5.07-.315 6.33-1.373.6-.497.91-1.158.91-1.903 0-.744-.3-1.34-.89-1.704-2.94-1.903-13.21 2.597-14.37 3.11a.604.604 0 0 0-.35.629c.03.265.23.48.5.513.66.116 4.32.728 7.87.728Zm4.28-4.285c.61 0 1.11.099 1.42.298.17.099.33.281.33.695 0 .397-.15.711-.48.976-1.77 1.489-7.47 1.158-11.1.694 3.31-1.323 7.47-2.663 9.83-2.663ZM1234.48 128.704c3.74 0 8.5-.959 12.28-4.847a.623.623 0 0 0 0-.861.633.633 0 0 0-.87 0c-6.86 7.048-17.2 3.706-17.3 3.673a.606.606 0 0 0-.76.381c-.1.314.07.662.38.761.05.016 2.7.877 6.28.877l-.01.016ZM1179.65 145.995c.4 0 .73-.166.96-.463 1.23-1.622-1.55-8.157-2.43-10.125a.62.62 0 0 0-.67-.348.59.59 0 0 0-.49.546c-.18 2.333-.55 9.96 2.42 10.373h.21v.017Zm-1.52-7.561c1.22 3.193 1.9 5.906 1.52 6.37-1.06-.166-1.49-3.259-1.52-6.37Z"/><path fill="#000" d="M1222.33 174.054h.13l6.73-1.506a.605.605 0 0 0 .46-.728c-.06-.331-.4-.529-.73-.463l-6.73 1.505a.606.606 0 0 0-.46.728c.07.282.32.48.6.48v-.016ZM1211.01 182.869c2.73 0 6.43-.281 10.75-1.357a.606.606 0 0 0 .45-.728.6.6 0 0 0-.73-.446c-8.8 2.183-15.13.976-15.19.976a.605.605 0 0 0-.72.479.61.61 0 0 0 .48.712c.14.033 1.96.38 4.98.38l-.02-.016ZM1214.85 190.597c2.56 0 5.46-.364 7.78-1.671a.611.611 0 0 0 .23-.827.605.605 0 0 0-.83-.232c-4.77 2.68-12.75.96-12.81.943a.62.62 0 0 0-.73.464c-.07.33.13.645.46.727.2.05 2.75.596 5.89.596h.01Z"/><path fill="#5EF939" d="M1119.68 104.302c3.96 0 7.07-8.37 7.07-19.058s-3.1-19.059-7.07-19.059c-3.98 0-7.08 8.371-7.08 19.059 0 10.687 3.1 19.058 7.08 19.058Zm0-36.926c2.83 0 5.86 7.18 5.86 17.851s-3.03 17.851-5.86 17.851c-2.84 0-5.87-7.18-5.87-17.85 0-10.672 3.03-17.852 5.87-17.852Z"/><path fill="#0017BF" d="M1121.73 98.743c.15 0 .3-.066.42-.182.16-.165 1.67-1.82 2.3-7.593a.6.6 0 0 0-.53-.662.594.594 0 0 0-.66.53c-.58 5.36-1.94 6.865-1.96 6.882a.602.602 0 0 0 .02.843c.11.116.26.166.41.166v.016Z"/><path fill="#fff" d="M957.026 201.697h52.464c2.22 0 4.03-1.778 4.03-3.967v-75.763c0-2.189-1.81-3.967-4.03-3.967h-52.464c-2.221 0-4.026 1.778-4.026 3.967v75.763c0 2.189 1.805 3.967 4.026 3.967Zm52.464-82.918c1.79 0 3.25 1.431 3.25 3.199v75.763c0 1.768-1.46 3.199-3.25 3.199h-52.464c-1.794 0-3.246-1.431-3.246-3.199v-75.763c0-1.768 1.452-3.199 3.246-3.199h52.464Z"/><path fill="#0017BF" d="M1016.41 207.464h-52.455c-2.011 0-3.641-1.607-3.641-3.588v-75.753c0-1.982 1.63-3.588 3.641-3.588h52.455c2.01 0 3.64 1.606 3.64 3.588v75.753c0 1.981-1.63 3.588-3.64 3.588Z"/><path fill="#fff" d="M975.904 161.605a16.526 16.526 0 0 1-.406-3.662c0-1.326.16-2.62.459-3.862l2.392-.021 1.421-3.357-1.698-1.599a16.77 16.77 0 0 1 5.307-5.262l1.858 1.737 3.385-1.421-.107-2.452a17.244 17.244 0 0 1 3.919-.452c1.228 0 2.424.126 3.578.379v2.662l3.374 1.442 1.944-1.979a16.745 16.745 0 0 1 5.33 5.156l-1.9 1.779 1.42 3.356 2.71.032c.3 1.242.46 2.536.46 3.862 0 1.263-.14 2.483-.42 3.672l-2.76.032-1.42 3.357 1.97 1.862a16.959 16.959 0 0 1-5.28 5.209l-2.075-2.105-3.375 1.442v2.862a17.11 17.11 0 0 1-7.496-.074l.117-2.651-3.385-1.421-1.986 1.863a16.848 16.848 0 0 1-5.254-5.304l1.784-1.673-1.421-3.357-2.434-.021-.011-.031Zm16.52 4.44c4.538 0 8.226-3.619 8.226-8.102 0-4.483-3.677-8.092-8.226-8.092-4.549 0-8.212 3.62-8.212 8.092s3.684 8.102 8.212 8.102Z"/><path fill="#5EF939" d="M972.755 185.681a9.264 9.264 0 0 1-.843-1.999 9.7 9.7 0 0 1-.395-2.252l1.345-.41.235-2.126-1.228-.621a9.872 9.872 0 0 1 2.114-3.84l1.346.684 1.676-1.358-.469-1.368a10.374 10.374 0 0 1 2.135-.894 9.666 9.666 0 0 1 2.083-.369l.448 1.505 2.146.263.769-1.441a10.038 10.038 0 0 1 3.887 2.041l-.769 1.315 1.367 1.663 1.538-.431c.374.652.683 1.357.908 2.115.213.715.341 1.431.384 2.146l-1.559.463-.235 2.126 1.431.726a9.752 9.752 0 0 1-2.114 3.809l-1.527-.852-1.666 1.368.48 1.62c-.608.326-1.27.6-1.954.8-.769.221-1.538.347-2.296.389l-.384-1.515-2.157-.253-.812 1.379a10.086 10.086 0 0 1-3.865-2.136l.726-1.231-1.367-1.663-1.378.389v-.042Zm10.092-.189c2.562-.747 4.036-3.399 3.278-5.924-.758-2.526-3.449-3.978-6.012-3.231-2.563.747-4.037 3.399-3.278 5.924.758 2.526 3.449 3.978 6.012 3.231Z"/></g></svg>