<svg xmlns="http://www.w3.org/2000/svg" width="980" height="260" fill="none"><mask id="a" width="980" height="260" x="0" y="0" maskUnits="userSpaceOnUse" style="mask-type:alpha"><path fill="#000" d="M980 0H0v260h980V0Z"/></mask><g mask="url(#a)"><path fill="#40398D" d="M813.784 36.924v89.234c0 2.708-2.278 4.923-5.085 4.923H646.854c-2.792 0-5.07-2.215-5.07-4.923V36.924c0-2.708 2.278-4.924 5.07-4.924h161.845c2.807 0 5.085 2.216 5.085 4.924Z"/><path fill="#fff" d="M813.784 37.88v6.226h-172V37.88c0-3.243 2.278-5.879 5.07-5.879h161.845c2.807 0 5.085 2.636 5.085 5.88Z"/><path fill="#FFB904" d="M669.997 40.93c1.616 0 2.925-1.29 2.925-2.881 0-1.592-1.309-2.882-2.925-2.882-1.615 0-2.924 1.29-2.924 2.882 0 1.591 1.309 2.882 2.924 2.882Z"/><path fill="#E64218" d="M660.639 40.93c1.615 0 2.924-1.29 2.924-2.881 0-1.592-1.309-2.882-2.924-2.882-1.616 0-2.925 1.29-2.925 2.882 0 1.591 1.309 2.882 2.925 2.882Z"/><path fill="#0017BF" d="M651.294 40.93c1.615 0 2.924-1.29 2.924-2.881 0-1.592-1.309-2.882-2.924-2.882s-2.924 1.29-2.924 2.882c0 1.591 1.309 2.882 2.924 2.882Z"/><path fill="#FFB904" d="M800.359 78.53h-36.726a1.703 1.703 0 0 0 0 3.404h36.726a1.703 1.703 0 1 0 0-3.405Z"/><path fill="#3DF130" d="M756.006 78.53H719.28a1.703 1.703 0 0 0 0 3.404h36.726a1.703 1.703 0 1 0 0-3.405ZM800.359 67.951h-18.555a1.703 1.703 0 0 0 0 3.406h18.555a1.703 1.703 0 0 0 0-3.406Z"/><path fill="#FFB904" d="M738.981 98.682h-18.555a1.703 1.703 0 0 0 0 3.406h18.555a1.703 1.703 0 0 0 0-3.406Z"/><path fill="#E64218" d="M775.226 67.951h-47.295a1.702 1.702 0 0 0 0 3.406h47.295a1.703 1.703 0 1 0 0-3.406Z"/><path fill="#3DF130" d="M800.359 88.606h-91.041a1.703 1.703 0 1 0 0 3.405h91.041a1.703 1.703 0 0 0 0-3.405ZM800.359 98.682h-54.416a1.703 1.703 0 1 0 0 3.406h54.416a1.704 1.704 0 0 0 0-3.406Z"/><path fill="#2E2C6E" d="M698.326 64.405h-43.392v42.758h43.392V64.405Z"/><path fill="#FFB904" d="m688.419 85.869-7.547 3.5v-1.954l5.313-2.289v-.093l-5.313-2.29V80.79l7.547 3.5v1.579Zm-14.484-8.141h1.734l3.656 13.547h-1.75l-3.64-13.547Zm-9.11 8.14V84.29l7.547-3.5v1.954l-5.312 2.289v.093l5.312 2.29v1.953l-7.547-3.5Z"/><path fill="#0017BF" d="M848.832 153.71s-15.262-3.046-26.027 6.005c-10.766 9.051-16.807 78.204-16.807 78.204s36.055 19.227 66.788 19.227c30.734 0 28.029-1.384 28.029-1.384l7.165-28.053-59.131-73.982-.017-.017Z"/><path fill="#FFBB87" d="M760.846 117.643s-4.408-11.058-6.761-7.908c-2.354 3.149 1.896 19.763 1.896 19.763s10.063 1.557 4.865-11.855Z"/><path fill="#fff" d="M826.845 113.868h-45.047c-1.629 0-2.95 1.302-2.95 2.908v44.389c0 1.605 1.321 2.907 2.95 2.907h45.047c1.63 0 2.95-1.302 2.95-2.907v-44.389c0-1.606-1.32-2.908-2.95-2.908Z"/><path fill="#5EF939" d="M810.51 145.622a12.982 12.982 0 0 0 0-18.551c-5.198-5.123-13.627-5.123-18.826 0a12.984 12.984 0 0 0 0 18.551c5.199 5.123 13.628 5.123 18.826 0Z"/><path fill="#E64218" d="m810.199 136.502 5.339 9.103 5.321 9.086h-21.32l5.338-9.086 5.322-9.103Z"/><path fill="#FFBB87" d="M771.42 160.041s10.766-9.95 10.256-15.229c-.509-5.278-3.02-17.132-3.02-17.132s10.59-10.851 10.08-13.17c-.509-2.319-8.658 1.333-8.658 1.333s8.693-8.446 8.676-11.768c0-3.306-4.549-1.662-4.549-1.662s.668-3.807-2.019-3.478c-2.687.329-19.512 11.768-24.377 17.894-4.882 6.126.334 21.805 0 23.986-.333 2.18-3.705 6.662-3.705 6.662l17.316 12.547v.017Z"/><path fill="#0017BF" d="m751.906 140.848 32.279 15.886s-4.373 12.46 5.725 16.112c10.081 3.651 21.865-12.633 35.3-16.752 13.452-4.119 24.253-1.454 24.253-1.454l-6.41 55.153s-60.431 31.653-89.69 10.765c-29.258-20.871-1.475-79.728-1.475-79.728l.018.018Z"/><path fill="#000" d="M755.84 122.918c-.439-.052-.685-.381-.632-.727.017-.19.667-4.603 3.372-7.217a.665.665 0 0 1 .913 0 .641.641 0 0 1 0 .9c-2.389 2.302-2.986 6.438-3.003 6.473a.654.654 0 0 1-.632.553l-.018.018ZM770.067 114.49a.658.658 0 0 1-.492-.225c-.228-.277-.193-.675.088-.883l14.12-11.439a.63.63 0 0 1 .895.087c.229.277.193.675-.088.882l-14.119 11.439a.605.605 0 0 1-.404.139ZM775.439 119.492a.62.62 0 0 1-.527-.294.626.626 0 0 1 .176-.865l4.636-3.012a.648.648 0 0 1 .878.174.626.626 0 0 1-.175.865l-4.637 3.011a.64.64 0 0 1-.351.104v.017Z"/><path fill="#3DF130" d="M823.42 222.635s-49.314-43.593-77.624-36.636c-28.31 6.957-30.47 36.1-35.511 68.894-5.04 32.812-6.621 56.78-6.621 56.78l67.772 1.333 4.022-57.317 72.426-22.203-24.446-10.851h-.018Z"/><path fill="#4EFD62" d="M900.796 255.742s-4.373 35.701-19.37 46.31c-14.998 10.608-40.78 7.303-65.823-6.178-24.64-13.256-31.91-18.171-34.72-18.171-2.81 0-51.65 66.661-51.65 66.661l-57.006-29.333s43.448-103.453 79.45-111.102c34.843-7.407 113.065 41.153 113.065 41.153l36.054 10.66Z"/><path fill="#fff" d="M872.77 112.537s20.425-5.399 27.836 8.237c7.393 13.637 1.018 68.964 1.018 68.964l-31.365-20.335.667-27.429 1.862-29.437h-.018Z"/><path fill="#0017BF" d="m831.552 184.216-23.902 20.94s34 52.626 82.419 44.233c48.418-8.393 27.115-52.592 19.054-64.498-12.556-18.552-27.923-29.16-41.727-30.095-13.786-.951-35.844 29.437-35.844 29.437v-.017Z"/><path fill="#FFBB87" d="m867.393 144.047-.368 14.658s-2.793 4.153-11.504 4.637c-6.498.364-8.464-2.976-8.464-2.976l1.896-12.789 15.806-3.011 2.652-.502-.018-.017Z"/><path fill="#000" d="M864.742 144.55c-.053.398-.211.865-.474 1.402-3.513 7.234-12.662 8.601-16.403 8.826l1.071-7.217 15.806-3.011Z"/><path fill="#FFBB87" d="M846.478 114.081s-8.272 18.188-5.462 28.468c2.81 10.279 12.311 8.756 18.018 6.836 5.691-1.939 8.36-5.331 8.36-5.331s5.286 1.817 8.869-3.011c3.6-4.828 1.457-10.418-1.546-11.733-3.02-1.315-6.638.813-6.638.813l2.88-5.278s-11.608-27.083-24.481-10.764Z"/><path fill="#000" d="M857.526 123.873a.651.651 0 0 1-.562-.329c-.474-.813-1.071-1.332-1.774-1.505-1.211-.312-2.441.415-2.458.432a.636.636 0 0 1-.878-.207c-.194-.295-.088-.675.21-.866.071-.034 1.686-1.021 3.443-.588 1.071.26 1.931.986 2.581 2.111a.625.625 0 0 1-.246.866.731.731 0 0 1-.316.086ZM843.843 122.142a.708.708 0 0 1-.263-.052.63.63 0 0 1-.316-.831c.246-.536.65-.882 1.176-1.021 1.265-.346 2.793.658 2.968.779.281.19.369.588.158.883a.633.633 0 0 1-.895.155c-.387-.259-1.352-.744-1.897-.588-.105.035-.246.086-.351.329a.639.639 0 0 1-.58.363v-.017ZM856.911 127.73a.65.65 0 0 1-.544-.294c-.246-.381-.527-.589-.878-.641-.79-.121-1.792.537-2.073.779a.644.644 0 0 1-.895-.069.624.624 0 0 1 .07-.883c.158-.138 1.598-1.298 3.091-1.073.72.104 1.335.52 1.774 1.212a.613.613 0 0 1-.193.865.646.646 0 0 1-.352.104ZM846.319 127.267a.66.66 0 0 1-.579-.347c-.088-.173-.878-1.609-2.424-.969a.64.64 0 0 1-.843-.328.619.619 0 0 1 .334-.831c2.143-.9 3.6.64 4.074 1.575a.619.619 0 0 1-.298.848.562.562 0 0 1-.281.069l.017-.017ZM847.041 136.176c-.334 0-.615-.242-.633-.571-.333-3.721 1.757-8.012 1.844-8.185a.653.653 0 0 1 .861-.295.634.634 0 0 1 .299.848c-.018.035-2.02 4.171-1.721 7.528a.64.64 0 0 1-.58.692h-.053l-.017-.017ZM851.59 141.469a.657.657 0 0 1-.632-.485.649.649 0 0 1 .474-.761c.036 0 3.337-.779 4.268-3.098a.622.622 0 0 1 .825-.346.608.608 0 0 1 .352.813c-1.195 2.942-5.023 3.825-5.181 3.859h-.141l.035.018ZM868.643 137.992a.656.656 0 0 1-.492-.225.621.621 0 0 1 .088-.882l5.989-4.811a.642.642 0 0 1 .895.086.622.622 0 0 1-.087.883l-5.989 4.811a.713.713 0 0 1-.404.138Z"/><path fill="#000" d="M874.649 137.993a.56.56 0 0 1-.281-.069l-3.724-1.817a.648.648 0 0 1-.298-.848.668.668 0 0 1 .86-.294l3.724 1.817a.649.649 0 0 1 .298.848.621.621 0 0 1-.579.346v.017Z"/><path fill="#fff" d="M868.08 130.12s-6.498-.692-10.572-6.005c-4.057-5.313-5.936-10.713-5.936-10.713s-2.757.433-4.531 2.579c-1.317 1.575-2.845 3.876-2.845 3.876s-.088-7.389 3.723-10.989c3.811-3.599 7.043-2.319 7.043-2.319s8.324-4.568 16.683 2.856c8.36 7.424 4.286 20.732 4.286 20.732s-4.25-1.713-7.851 0v-.017Z"/><path fill="#FFBB87" d="M829.514 148.826s.228-6.213-1.791-8.342c-2.02-2.128-3.565 1.073-3.565 1.073s-1.792-6.057-3.811-4.222c-2.02 1.834-2.705 6.039-2.705 6.039s-3.565-2.63-4.917 2.579c-1.352 5.209-1.581 12.806-6.727 17.617-5.163 4.811-9.641 16.025-5.83 25.422 3.811 9.397 10.976 9.76 10.976 9.76l13.453-13.983s-2.582-8.912 1.457-12.114c4.04-3.201 8.465-5.278 9.256-12.633.298-2.786-5.796-11.231-5.796-11.231v.035Zm-2.459 14.536 1.3-6.628c4.039 5.296-1.3 6.628-1.3 6.628Z"/><path fill="#000" d="M827.074 163.985s-.14 0-.21-.034a.633.633 0 0 1-.387-.814c1.967-5.52 2.406-14.26 2.424-14.363 0-.346.334-.571.667-.606.351 0 .633.311.615.658 0 .363-.457 9.016-2.494 14.709a.622.622 0 0 1-.597.416l-.018.034ZM820.681 162.707a.72.72 0 0 1-.316-.087.623.623 0 0 1-.246-.865c3.723-6.542 2.458-20.732 2.441-20.871a.64.64 0 0 1 .579-.692c.352-.017.668.225.703.571.052.606 1.317 14.71-2.599 21.598a.652.652 0 0 1-.562.328v.018ZM814.463 162.703a.673.673 0 0 1-.456-.19.64.64 0 0 1 0-.9c2.739-2.7 3.091-14.087 3.003-18.24a.64.64 0 0 1 .632-.64c.281 0 .65.277.65.623 0 .64.298 15.54-3.372 19.157a.643.643 0 0 1-.457.19Z"/><path fill="#fff" d="M712.567 240.34a.794.794 0 0 1-.333-.087.637.637 0 0 1-.229-.865c.141-.225 13.927-22.809 32.911-33.694 20.917-11.993 70.301 12.46 72.391 13.515a.627.627 0 0 1 .281.848.644.644 0 0 1-.86.277c-.51-.259-50.86-25.197-71.162-13.55-18.686 10.729-32.314 33.019-32.454 33.244a.628.628 0 0 1-.545.312Z"/><path fill="#FFB904" d="M789.915 187.905c-.615 0-1.142-.26-1.511-.744-2.125-2.717.58-13.274.896-14.468.141-.554 1.089-.554 1.247 0 .316 1.194 3.021 11.751.896 14.468-.387.484-.914.744-1.511.744h-.017Zm0-12.287c-.896 4.188-1.581 9.397-.51 10.781.281.364.721.364 1.002 0 1.071-1.367.403-6.576-.51-10.781h.018ZM855.576 164.193c-6.076 0-10.379-3.617-10.449-3.669a.605.605 0 0 1-.053-.882.628.628 0 0 1 .896-.052c.404.346 9.905 8.307 20.618-1.333a.664.664 0 0 1 .913.035c.246.26.211.658-.035.9-4.25 3.824-8.36 5.036-11.89 5.036v-.035ZM876.93 199.39s-.14 0-.193-.034c-12.908-4.171-41.341-14.399-41.622-14.503a.632.632 0 0 1-.386-.813c.123-.329.491-.485.825-.381.281.104 28.696 10.332 41.587 14.502a.632.632 0 0 1 .404.797.644.644 0 0 1-.615.432Z"/><path fill="#FFB904" d="M888.716 202.995c-4.654 0-13.259-3.894-14.348-4.396a.624.624 0 0 1-.351-.709.633.633 0 0 1 .614-.502c2.476-.052 14.946-.156 16.895 2.579.334.467.404 1.021.193 1.557-.211.537-.632.935-1.247 1.194-.474.19-1.071.277-1.756.277Zm-11.029-4.344c4.092 1.662 10.151 3.756 12.293 2.908.369-.139.475-.329.527-.468.071-.173.035-.276-.035-.38-1.001-1.402-7.481-1.956-12.785-2.042v-.018Z"/><path fill="#fff" d="M887.223 268.701c-11.591-.224-15.015-11.3-15.05-11.404a.612.612 0 0 1 .439-.779.63.63 0 0 1 .79.433c.123.415 3.214 10.297 13.839 10.504a.64.64 0 0 1 .632.641c0 .346-.298.623-.65.623v-.018Z"/></g></svg>