<svg xmlns="http://www.w3.org/2000/svg" width="488" height="260" fill="none"><mask id="a" width="488" height="260" x="0" y="0" maskUnits="userSpaceOnUse" style="mask-type:alpha"><path fill="#000" d="M488 0H0v260h488V0Z"/></mask><g mask="url(#a)"><path fill="#0017BF" d="M384.512 32h51.837c1.387 0 2.512 1.108 2.512 2.475v59.539c0 1.367-1.125 2.475-2.512 2.475h-51.837c-1.388 0-2.512-1.108-2.512-2.475v-59.54c0-1.366 1.124-2.474 2.512-2.474Z"/><path fill="#FFB904" d="M407.066 43.467h21.594v25.056h-21.594V43.467Z"/><path fill="#3DF130" d="M392.201 61.445h23.912v23.563h-23.912V61.445Z"/><path fill="#40398D" d="M68 50.187v112.218c0 3.408 2.37 6.188 5.287 6.188h168.377c2.9 0 5.27-2.78 5.27-6.188V50.187c0-3.408-2.37-6.187-5.27-6.187H73.287C70.353 44 68 46.78 68 50.187Z"/><path fill="#2E2C6E" d="M68 50.187v6.568h178.951v-6.568c0-3.408-2.37-6.187-5.27-6.187H73.303c-2.933 0-5.286 2.78-5.286 6.187H68Z"/><path fill="#FFB904" d="M214.552 50.386a3.031 3.031 0 0 0 3.032 3.027 3.032 3.032 0 0 0 3.033-3.027 3.032 3.032 0 0 0-3.033-3.028 3.031 3.031 0 0 0-3.032 3.028Z"/><path fill="#3DF130" d="M224.296 50.386a3.032 3.032 0 0 0 3.033 3.027 3.032 3.032 0 0 0 3.033-3.027 3.032 3.032 0 0 0-3.033-3.028 3.032 3.032 0 0 0-3.033 3.028Z"/><path fill="#5EF939" d="M234.025 50.386a3.031 3.031 0 0 0 3.032 3.027 3.032 3.032 0 0 0 3.033-3.027 3.032 3.032 0 0 0-3.033-3.028 3.031 3.031 0 0 0-3.032 3.028Z"/><path fill="#3DF130" d="M97.644 78.6h13.245v3.365H97.644V78.6ZM97.644 140.173h13.245v3.366H97.644v-3.366ZM106.149 88.62h24.672v3.366h-24.672V88.62Z"/><path fill="#FFB904" d="M134.32 88.62h24.672v3.366H134.32V88.62Z"/><path fill="#3DF130" d="M106.149 129.315h24.672v3.366h-24.672v-3.366Z"/><path fill="#FFB904" d="M134.32 129.315h24.672v3.366H134.32v-3.366Z"/><path fill="#3DF130" d="M120.234 99.124h43.807v3.366h-43.807v-3.366ZM120.234 120.051h43.807v3.366h-43.807v-3.366ZM144.418 108.888h43.808v3.365h-43.808v-3.365Z"/><path fill="#FFB904" d="M168.869 99.124h50.089v3.366h-50.089v-3.366ZM168.869 120.051h50.089v3.366h-50.089v-3.366ZM97.644 67.838h13.245v3.366H97.644v-3.366ZM97.644 150.436h13.245v3.366H97.644v-3.366Z"/><circle cx="86.804" cy="70.02" r="2.182" fill="#2E2C6E"/><circle cx="86.804" cy="80.282" r="2.182" fill="#2E2C6E"/><circle cx="86.804" cy="90.545" r="2.182" fill="#2E2C6E"/><circle cx="86.804" cy="100.807" r="2.182" fill="#2E2C6E"/><circle cx="86.804" cy="111.069" r="2.182" fill="#2E2C6E"/><circle cx="86.804" cy="121.331" r="2.182" fill="#2E2C6E"/><circle cx="86.804" cy="131.594" r="2.182" fill="#2E2C6E"/><circle cx="86.804" cy="141.856" r="2.182" fill="#2E2C6E"/><circle cx="86.804" cy="152.118" r="2.182" fill="#2E2C6E"/><path fill="#0017BF" d="M307.704 192.927s-38.332 38.217-53.629 98.09c-15.296 59.872-14.269 103.929-14.269 103.929h57.806s1.524-36.579 7.872-66.523c6.347-29.945 15.611-51.965 15.611-51.965l6.231 118.488h57.69s-10.59-171.975-20.849-197.651c-8.352-20.895-56.446-4.368-56.446-4.368h-.017Z"/><path fill="#fff" d="M321.095 277.056a.61.61 0 0 0 .613-.612l-.497-40.98a.61.61 0 0 0-.381-.562l-15.081-5.791a.601.601 0 0 0-.779.348.598.598 0 0 0 .348.777l14.7 5.658.497 40.566c0 .331.282.596.613.596h-.033Z"/><path fill="#FFBB87" d="M243.601 139.59c-.812-4.434-2.535-8.669-5.121-12.375-3.646-5.195-9.214-11.829-14.236-12.507-8.369-1.125-21.113 2.581-21.859 8.404-.746 5.824 2.387 7.131 2.387 7.131s-.696 3.689.812 5.31l1.491 1.622s-.944 4.682 4.491 5.244c5.436.563 8.436-.529 9.364-1.29.945-.761 1.442-1.522 1.442-1.522s-2.934 5.575 3.43 8.023c6.364 2.465 17.799-8.023 17.799-8.023v-.017Z"/><path fill="#000" d="M207.142 130.973c2.552 0 6.695-.331 10.49-2.118 3.597-1.687 5.403-3.408 5.221-4.963-.083-.745-.663-1.737-2.917-2.217-1.475-.314-2.701-.248-3.779-.182-1.789.099-3.198.182-5.369-1.323a.626.626 0 0 0-.845.148.593.593 0 0 0 .149.844c2.519 1.754 4.276 1.655 6.132 1.539 1.044-.066 2.138-.133 3.463.165 1.177.248 1.906.695 1.956 1.175.083.711-1.061 2.101-4.524 3.739-5.585 2.63-12.214 1.902-12.281 1.886a.578.578 0 0 0-.663.529.598.598 0 0 0 .531.662c.099 0 1.027.116 2.453.116h-.017Z"/><path fill="#FFBB87" d="M229.548 120.649s-11.617 3.425-10.49 6.039c1.127 2.63 8.054 2.515 8.054 2.515s-6.364 9.827.746 14.889l1.69-23.443Z"/><path fill="#000" d="M227.858 144.705a.614.614 0 0 0 .497-.248.596.596 0 0 0-.149-.844c-6.563-4.649-.845-13.682-.597-14.062a.611.611 0 0 0 .017-.629.595.595 0 0 0-.53-.314h-.249c-2.552 0-6.579-.563-7.259-2.151-.033-.083-.05-.182.033-.364.763-1.605 6.58-3.838 10.076-4.864a.62.62 0 0 0 .415-.744.621.621 0 0 0-.746-.414c-.978.281-9.596 2.895-10.822 5.509-.215.464-.232.927-.05 1.34.995 2.333 5.469 2.796 7.591 2.863-1.409 2.647-4.757 10.389 1.425 14.79a.549.549 0 0 0 .348.116v.016Z"/><path fill="#000" d="M207.059 137.77c.348 0 8.684-.066 13.523-1.886 5.204-1.952 4.293-6.75 4.276-6.799a.6.6 0 0 0-.712-.463.616.616 0 0 0-.481.711c.033.149.713 3.838-3.513 5.426-4.624 1.738-13.01 1.804-13.093 1.804a.597.597 0 0 0-.596.612c0 .331.265.595.613.595h-.017ZM218.958 122.122h-4.79v-18.629h4.79v18.629Z"/><path fill="#fff" d="M224.99 85.243c0 10.191-2.9 18.463-6.463 18.463s-6.464-8.272-6.464-18.463 2.901-18.463 6.464-18.463c3.563 0 6.463 8.272 6.463 18.463ZM283.442 395.545a.6.6 0 0 0 .597-.563c.082-1.092 8.7-109.008 37.006-141.054a.599.599 0 0 0-.895-.794c-28.587 32.343-37.222 140.673-37.305 141.765a.61.61 0 0 0 .564.646h.05-.017ZM362.145 223.238c.415 0 .829-.017 1.26-.067a.61.61 0 0 0 .547-.661.61.61 0 0 0-.663-.546c-7.74.761-12.943-6.717-12.993-6.8a.61.61 0 0 0-.845-.165.608.608 0 0 0-.166.843c.215.315 5.104 7.379 12.86 7.379v.017Z"/><path fill="#fff" d="M374.84 395.543c.381-.033.63-.315.597-.646l-13.673-172.322c-.033-.331-.281-.579-.646-.546a.596.596 0 0 0-.547.646l13.673 172.322a.61.61 0 0 0 .596.562v-.016Z"/><path fill="#FFB904" d="m242.988 123.179-23.367 28.439s16.622 20.449 35.316 27.182c18.694 6.734 39.459 0 39.459 0v30.176h73.732s-3.282-83.001-5.718-83.811c-17.418-5.84-41.332-8.074-52.452-5.493-4.558 1.059-32.201 15.469-36.344 15.965-4.159.496-30.643-12.474-30.643-12.474l.017.016Z"/><path fill="#0017BF" d="M341.363 99.19s-4.524-1.422-6.496-4.202c-1.989-2.779-1.923-9.314-1.923-9.314s-8.584 3.789-10.739 3.177c-2.154-.612-5.817-10.655-2.668-14.691 3.149-4.037 8.651 1.555 8.651 1.555s1.575-5.956 7.872-4.136c7.375 2.117 8.833 9.843 8.833 9.843s1.028-8.205 6-4.251c4.971 3.954 2.502 13.268 2.502 13.268s4.06 2.068 2.967 5.94c-1.078 3.87-6.944 7.278-6.944 7.278l-8.071-4.45.016-.016Z"/><path fill="#FFBB87" d="m341.347 111.052.298 12.49s-2.254 3.64-9.811 4.368c-5.635.546-7.64-.645-7.64-.645l.63-6.336.63-6.188 13.606-3.16 2.287-.529Z"/><path fill="#000" d="M339.06 111.58c-.017.347-.149.744-.348 1.208-2.751 6.286-10.64 7.775-13.888 8.123l.63-6.188 13.606-3.16v.017Z"/><path fill="#FFBB87" d="M321.874 86.318s-6.414 15.783-3.53 24.435c2.883 8.653 11.087 6.998 15.959 5.145 4.873-1.853 7.044-4.847 7.044-4.847s4.673 1.357 7.59-2.879c2.917-4.235.828-8.933-1.856-9.926-2.685-1.01-5.734.943-5.734.943l2.27-4.6s-11.253-22.615-21.743-8.255v-.016Z"/><path fill="#000" d="M341.993 106.023a.556.556 0 0 0 .348-.115l5.734-4.153a.607.607 0 0 0 .132-.844.609.609 0 0 0-.845-.132l-5.734 4.153a.607.607 0 0 0-.133.843.582.582 0 0 0 .481.248h.017ZM333.839 94.143c.133 0 .282-.05.381-.132a.588.588 0 0 0 .083-.844c-2.254-2.697-4.972-1.754-5.088-1.72a.607.607 0 0 0-.364.777.59.59 0 0 0 .762.364c.083-.033 2.038-.678 3.745 1.357a.589.589 0 0 0 .464.215l.017-.017ZM320.3 92.457c.132 0 .265-.05.381-.133 1.293-1.075 2.701-.347 2.768-.314.298.149.663.05.812-.248.149-.298.049-.662-.249-.81-.083-.05-2.171-1.159-4.11.446a.588.588 0 0 0-.083.844.589.589 0 0 0 .464.215h.017ZM320.615 98.478a.602.602 0 0 0 .58-.447l.745-2.879a.597.597 0 0 0-.431-.727.606.606 0 0 0-.729.43l-.746 2.878a.597.597 0 0 0 .431.728c.05 0 .1.017.15.017ZM329.945 99.056a.602.602 0 0 0 .58-.446l.746-2.879a.598.598 0 0 0-1.16-.298l-.746 2.879a.597.597 0 0 0 .431.728c.05 0 .099.016.149.016ZM327.177 110.174c.149 0 .315 0 .48-.05 1.21-.264 2.172-1.489 2.868-3.639a.606.606 0 0 0-.199-.662.575.575 0 0 0-.68-.05l-4.408 2.515a.612.612 0 0 0-.298.43.595.595 0 0 0 .149.496c.033.05.895.96 2.071.96h.017Zm1.525-2.482c-.398.712-.846 1.142-1.293 1.241-.265.05-.514 0-.729-.083l2.038-1.158h-.016Z"/><path fill="#0017BF" d="M341.363 99.191s-4.872-1.158-6.43-5.294c-1.558-4.136-1.06-7.726-1.06-7.726s-2.652 2.564-6.944 1.837c-4.276-.728-5.188-5.228-5.188-5.228l4.243-4.368s16.009 4.45 16.44 3.97c.431-.48 5.668 10.407 5.668 10.407l-6.745 6.419.016-.017Z"/><path fill="#000" d="M347.28 106.254a.612.612 0 0 0 .514-.281.595.595 0 0 0-.199-.827l-3.017-1.869a.596.596 0 0 0-.828.198.593.593 0 0 0 .199.827l3.016 1.87a.562.562 0 0 0 .315.082Z"/><path fill="#E64218" d="M333.375 102.68a3.45 3.45 0 0 0 2.287-.86 3.388 3.388 0 0 0 1.16-2.366l.182-2.878a1.634 1.634 0 0 0-.414-1.208 1.687 1.687 0 0 0-1.143-.563l-6.364-.397c-.995-.05-1.707.645-1.757 1.555l-.182 2.88a3.473 3.473 0 0 0 3.231 3.672l2.785.182h.215v-.017Zm-4.392-7.064 6.397.397c.116 0 .232.066.315.149a.45.45 0 0 1 .116.33l-.182 2.88a2.16 2.16 0 0 1-.762 1.538 2.226 2.226 0 0 1-1.625.563l-2.784-.182a2.243 2.243 0 0 1-2.104-2.383l.182-2.878c0-.232.215-.414.447-.414Z"/><path fill="#E64218" d="M336.524 98.794h.132c.05 0 5.022-1.108 9.43-.165a.602.602 0 0 0 .713-.464.593.593 0 0 0-.464-.71c-4.657-.994-9.728.115-9.944.165a.61.61 0 0 0-.464.727.604.604 0 0 0 .597.464v-.017Z"/><path fill="#000" d="M325.321 104.469s.133 0 .199-.033a.604.604 0 0 0 .381-.761c-1.441-4.334.315-6.055.398-6.121a.584.584 0 0 0 .033-.844.602.602 0 0 0-.845-.05c-.099.083-2.453 2.267-.729 7.412a.608.608 0 0 0 .58.414l-.017-.017Z"/><path fill="#E64218" d="M321.227 102.053a3.06 3.06 0 0 0 2.055-.778 3.04 3.04 0 0 0 1.044-2.134l.216-3.342a1.49 1.49 0 0 0-.382-1.108 1.45 1.45 0 0 0-1.06-.513l-4.707-.298a1.525 1.525 0 0 0-1.624 1.423l-.215 3.342c-.116 1.72 1.193 3.193 2.916 3.309l1.542.099H321.227Zm-2.917-6.982 4.724.298c.082 0 .165.05.232.116a.399.399 0 0 1 .082.231l-.215 3.342a1.877 1.877 0 0 1-.646 1.307c-.382.331-.862.513-1.376.464l-1.541-.1a1.918 1.918 0 0 1-1.79-2.018l.215-3.342c0-.165.15-.298.332-.298h-.017Z"/><path fill="#0017BF" d="M326.249 153.537v21.574a2.099 2.099 0 0 1-2.088 2.084H302.55a2.077 2.077 0 0 1-2.088-2.084v-21.574c0-1.141.928-2.084 2.088-2.084h21.611c1.143 0 2.088.943 2.088 2.084Z"/><path fill="#fff" d="M324.36 153.537v21.574a2.099 2.099 0 0 1-2.088 2.084h-21.611a2.077 2.077 0 0 1-2.088-2.084v-21.574c0-1.141.928-2.084 2.088-2.084h21.611c1.143 0 2.088.943 2.088 2.084Z"/><path fill="#DC3C1E" d="M316.936 161.314c-1.977 0-3.58-1.6-3.58-3.574a3.576 3.576 0 0 1 3.58-3.573 3.575 3.575 0 0 1 3.579 3.573 3.576 3.576 0 0 1-3.579 3.574Z"/><path fill="#E64218" d="M324.36 168.378v6.733a2.1 2.1 0 0 1-2.088 2.085h-21.611a2.078 2.078 0 0 1-2.088-2.085v-6.617c3.348-1.704 9.181-4.269 12.894-3.64 5.485.943 5.485 5.013 7.175 5.327.962.182 3.646-.877 5.735-1.803h-.017ZM328.155 98.99a.61.61 0 0 0 .514-.28c.165-.282.082-.662-.199-.828-.133-.082-3.182-1.919-5.038-.463-.266.199-.299.58-.1.844a.59.59 0 0 0 .845.1c.978-.778 2.967.132 3.646.545.1.066.199.083.315.083h.017Z"/><path fill="#FFBB87" d="M340.634 173.44s-8.502-4.385-14.087-5.013c-5.585-.629-8.22 5.013-8.22 5.013s-4.988 1.571-10.573 2.183c-5.585.629-9.993 1.258-9.993 3.127 0 1.87 4.408 3.127 4.408 3.127s-7.043.943-4.408 3.756c2.635 2.812 7.341 3.755 7.341 3.755s-5.883 1.572 2.055 4.384c7.939 2.813 25.357 3.441 34.123-3.127 8.767-6.568-.646-17.222-.646-17.222v.017Z"/><path fill="#FFB904" d="M362.41 125.164s49.851 22.946 44.133 50.889c-5.717 27.943-71.66 23.939-71.66 23.939v-35.669l23.749-1.654 3.762-37.505h.016Z"/><path fill="#0017BF" d="M334.9 164.936h.132c.149-.033 14.418-3.226 28.306-2.846.348 0 .613-.265.613-.579 0-.331-.248-.612-.58-.612-14.037-.364-28.455 2.845-28.604 2.879a.587.587 0 0 0-.447.727.602.602 0 0 0 .596.464l-.016-.033Z"/><path fill="#0017BF" d="M368.94 162.752c2.569 0 5.071-.315 6.331-1.373.596-.497.911-1.158.911-1.903 0-.744-.298-1.34-.895-1.704-2.933-1.903-13.208 2.597-14.368 3.11a.6.6 0 0 0-.348.629.58.58 0 0 0 .497.513c.663.116 4.325.728 7.872.728Zm4.276-4.285c.613 0 1.11.099 1.425.298.166.099.331.281.331.695 0 .397-.149.711-.48.976-1.773 1.489-7.474 1.158-11.104.694 3.315-1.323 7.474-2.663 9.828-2.663ZM330.475 128.704c3.746 0 8.502-.959 12.28-4.847a.62.62 0 0 0 0-.861.621.621 0 0 0-.861 0c-6.861 7.048-17.203 3.706-17.302 3.673a.606.606 0 0 0-.762.381c-.1.314.066.662.381.761.049.016 2.701.877 6.281.877l-.017.016ZM275.653 145.995c.398 0 .729-.166.961-.463 1.226-1.622-1.558-8.157-2.436-10.125a.613.613 0 0 0-.663-.348.599.599 0 0 0-.497.546c-.182 2.333-.547 9.96 2.419 10.373h.216v.017Zm-1.525-7.561c1.227 3.193 1.906 5.906 1.525 6.37-1.061-.166-1.492-3.259-1.525-6.37Z"/><path fill="#000" d="M318.327 174.054h.133l6.728-1.506a.609.609 0 0 0 .464-.728c-.066-.331-.397-.529-.729-.463l-6.728 1.505a.609.609 0 0 0-.464.728c.066.282.315.48.596.48v-.016ZM307.008 182.869c2.735 0 6.431-.281 10.756-1.357a.615.615 0 0 0 .448-.728.603.603 0 0 0-.73-.446c-8.8 2.183-15.13.976-15.197.976a.596.596 0 0 0-.712.479.604.604 0 0 0 .48.712c.133.033 1.956.38 4.972.38l-.017-.016ZM310.853 190.597c2.552 0 5.452-.364 7.773-1.671a.6.6 0 0 0 .232-.827.603.603 0 0 0-.829-.232c-4.773 2.68-12.744.96-12.811.943a.62.62 0 0 0-.729.464.617.617 0 0 0 .464.727c.199.05 2.751.596 5.883.596h.017Z"/><path fill="#5EF939" d="M215.677 104.302c3.96 0 7.076-8.37 7.076-19.058s-3.099-19.059-7.076-19.059c-3.978 0-7.077 8.371-7.077 19.059 0 10.687 3.099 19.058 7.077 19.058Zm0-36.926c2.833 0 5.866 7.18 5.866 17.851s-3.033 17.851-5.866 17.851c-2.834 0-5.867-7.18-5.867-17.85 0-10.672 3.033-17.852 5.867-17.852Z"/><path fill="#0017BF" d="M217.732 98.743a.593.593 0 0 0 .414-.182c.166-.165 1.674-1.82 2.304-7.593a.598.598 0 0 0-.531-.662.597.597 0 0 0-.662.53c-.581 5.36-1.939 6.865-1.956 6.882a.598.598 0 0 0 .431 1.009v.016Z"/><path fill="#fff" d="M53.026 201.697h52.464c2.221 0 4.025-1.778 4.025-3.967v-75.763c0-2.189-1.804-3.967-4.025-3.967H53.026c-2.221 0-4.026 1.778-4.026 3.967v75.763c0 2.189 1.805 3.967 4.026 3.967Zm52.464-82.918c1.794 0 3.246 1.431 3.246 3.199v75.763c0 1.768-1.452 3.199-3.246 3.199H53.026c-1.794 0-3.247-1.431-3.247-3.199v-75.763c0-1.768 1.453-3.199 3.247-3.199h52.464Z"/><path fill="#0017BF" d="M112.408 207.464H59.955c-2.01 0-3.641-1.607-3.641-3.588v-75.753c0-1.982 1.63-3.588 3.641-3.588h52.453c2.011 0 3.642 1.606 3.642 3.588v75.753c0 1.981-1.631 3.588-3.642 3.588Z"/><path fill="#fff" d="M71.904 161.605a16.532 16.532 0 0 1-.406-3.662c0-1.326.16-2.62.46-3.862l2.391-.021 1.42-3.357-1.698-1.599a16.772 16.772 0 0 1 5.308-5.262l1.858 1.737 3.385-1.421-.107-2.452a17.24 17.24 0 0 1 3.92-.452c1.227 0 2.423.126 3.576.379v2.662l3.375 1.442 1.943-1.979a16.737 16.737 0 0 1 5.329 5.156l-1.901 1.779 1.42 3.356 2.713.032c.299 1.242.459 2.536.459 3.862a16.05 16.05 0 0 1-.417 3.672l-2.765.032-1.421 3.357 1.976 1.862a16.977 16.977 0 0 1-5.286 5.209l-2.072-2.105-3.374 1.442v2.862a17.116 17.116 0 0 1-7.496-.074l.117-2.651-3.385-1.421-1.986 1.863a16.85 16.85 0 0 1-5.254-5.304l1.783-1.673-1.42-3.357-2.435-.021-.01-.031Zm16.52 4.44c4.538 0 8.222-3.619 8.222-8.102 0-4.483-3.674-8.092-8.223-8.092-4.549 0-8.211 3.62-8.211 8.092s3.684 8.102 8.211 8.102Z"/><path fill="#5EF939" d="M68.755 185.681a9.24 9.24 0 0 1-.843-1.999 9.775 9.775 0 0 1-.395-2.252l1.345-.41.235-2.126-1.228-.621a9.865 9.865 0 0 1 2.114-3.84l1.346.684 1.676-1.358-.47-1.368a10.377 10.377 0 0 1 2.136-.894 9.671 9.671 0 0 1 2.082-.369l.449 1.505 2.146.263.77-1.441a10.04 10.04 0 0 1 3.886 2.041l-.769 1.315 1.367 1.663 1.538-.431a9.891 9.891 0 0 1 1.292 4.261l-1.559.463-.235 2.126 1.431.726a9.745 9.745 0 0 1-2.114 3.809l-1.527-.852-1.666 1.368.48 1.62c-.608.326-1.27.6-1.954.8-.769.221-1.538.347-2.296.389l-.384-1.515-2.157-.253-.812 1.379a10.094 10.094 0 0 1-3.865-2.136l.726-1.231-1.367-1.663-1.378.389v-.042Zm10.092-.189c2.562-.747 4.036-3.399 3.278-5.924-.758-2.526-3.45-3.978-6.012-3.231-2.563.747-4.037 3.399-3.278 5.924.758 2.526 3.449 3.978 6.012 3.231Z"/></g></svg>