<svg xmlns="http://www.w3.org/2000/svg" width="1080" height="260" fill="none"><mask id="a" width="1080" height="260" x="0" y="0" maskUnits="userSpaceOnUse" style="mask-type:alpha"><path fill="#000" d="M1080 0H0v260h1080V0Z"/></mask><g mask="url(#a)"><g clip-path="url(#b)"><path fill="#FD842B" d="M224.508 66.209s6.527-1.503 8.943 0c2.415 1.502 2.415 15.242 0 15.384-2.416.141-8.943-15.384-8.943-15.384Z"/><path fill="#0002BB" d="M264.468 76.966s-13.98 4.257-14.241 18.367c-.261 14.11 25.926 15.493 25.926 15.493s15.199 1.502 19.333-8.449c4.123-9.95-9.422-16.07-9.422-16.07s-16.471-12.956-21.585-9.341h-.011Z"/><path fill="#1C34ED" d="m237.193 74.755-15.916 15.82s1.251 20.839 14.763 30.245c13.512 9.407 32.323 3.55 32.323 3.55V96.356s-11.075 1.165-17.157.36c-6.082-.817-14.002-21.95-14.002-21.95l-.011-.01Z"/><path fill="#0002BB" d="M223.18 95.79a.388.388 0 0 1-.293-.13.395.395 0 0 1 .032-.555l15.961-14.198a.394.394 0 0 1 .555.033.396.396 0 0 1-.033.555l-15.96 14.197a.415.415 0 0 1-.262.098Z"/><path fill="#FD842B" d="M339.026 87.93s-5.788 12.356-10.368 11.18c-4.581-1.175-7.072-3.429-7.072-3.429s-4.82-11.998-.49-13.37c6.767-2.145 17.93 5.607 17.93 5.607v.011Z"/><path fill="#1C34ED" d="M284.476 99.056s12.228 2.243 18.277 1.002c6.05-1.241 15.645-9.842 15.645-9.842l17.484 9.276s-8.41 28.939-39.613 27.85c-20.41-.707-18.114-23.876-18.114-23.876l6.321-4.431v.022Z"/><path fill="#0002BB" d="M305.626 107.647c-.131 0-.261-.011-.425-.044-.75-.141-1.327-.533-1.719-1.176-1.283-2.079-.141-6.129-.087-6.303a.398.398 0 0 1 .327-.283.38.38 0 0 1 .391.185c.599.936 3.515 5.661 2.514 7.142-.153.228-.446.479-1.001.479Zm-1.687-6.38c-.25 1.263-.544 3.506.218 4.747.272.446.664.707 1.186.805.228.044.522.055.62-.098.413-.62-.664-3.157-2.024-5.454ZM333.205 105.262a.366.366 0 0 1-.185-.043l-19.811-10.605a.399.399 0 0 1-.163-.533.386.386 0 0 1 .533-.163l19.811 10.604a.4.4 0 0 1 .164.533.404.404 0 0 1-.349.207Z"/><path fill="#E24E1B" d="M295.203 146.047s6.136 35.221 7.463 68.363c1.328 33.141 2.198 57.083 2.198 57.083l-37.154 1.241-1.566-65.815.848-59.979 28.2-.893h.011Z"/><path fill="#E24E1B" d="M252.12 146.951s-3.808 12.706-6.016 23.582c-2.209 10.877-5.527 25.444-5.527 25.444s-12.338 33.044 10.161 37.769c27.906 5.869 29.168-26.065 29.168-26.065l-2.828-67.252-24.958 6.511v.011Z"/><path fill="#1C34ED" d="M276.556 97.837s-.055-2.57-8.193-1.48c-10.988 1.458-14.959 22.221-14.959 22.221s-3.416 30.038-2.938 30.67c.479.62 13.622 3.44 28.363 2.656 14.753-.783 17.963-2.809 18.768-3.277.805-.468-6.115-44.791-6.115-44.791s-3.362-5.847-14.948-5.999h.022Z"/><path fill="#FD842B" d="m270.974 89.955.316 8.503s1.621 2.384 6.604 2.602c3.71.163 4.983-.719 4.983-.719l-.675-4.29-.664-4.18-9.051-1.644-1.524-.272h.011Z"/><path fill="#000" d="M270.974 89.552c.033.228.131.5.283.816 2.056 4.181 8.813 5.586 10.956 5.695l-.664-4.181-10.564-2.32-.011-.01Z"/><path fill="#FD842B" d="M282.713 72.415s4.853 10.495 3.319 16.483c-1.534 5.989-6.974 5.172-10.249 4.094-3.264-1.078-4.82-3.037-4.82-3.037s-3.002 1.088-5.091-1.677c-2.089-2.776-.914-6.043.805-6.816 1.708-.784 3.797.425 3.797.425l-1.676-3.049s6.441-15.797 13.915-6.423ZM240.055 182.683l-7.681-8.067-18.974 10.582 4.221 6.489 7.822 6.446 14.612-15.45Z"/><path fill="#0002BB" d="M217.327 161.616c1.164-.991 2.959-.849 4.091.349 4.439 4.703 14.981 14.709 14.122 15.514-1.099 1.035-14.916 8.416-14.916 8.416s5.842 6.816.206 9.93c-4.33 2.395-12.272 2.058-15.731 1.764-1.099-.088-2.176.13-3.101.664-4.004 2.253-15.438 8.013-20.084 3.353-5.679-5.705-2.698-7.251-1.61-8.285.936-.893 29.081-24.922 37.034-31.705h-.011Z"/><path fill="#000" d="M284.28 76.77h-.054l-2.078-.305a.394.394 0 0 1-.338-.447.402.402 0 0 1 .446-.337l2.078.305a.394.394 0 0 1-.054.784ZM276.556 77.63a.398.398 0 0 1-.381-.272.403.403 0 0 1 .261-.501l2.709-.86a.399.399 0 1 1 .239.762l-2.709.86s-.076.022-.119.022v-.011ZM283.246 85.284s-.065 0-.108-.011a.404.404 0 0 1-.283-.49c.935-3.419-1.425-4.638-1.523-4.692a.411.411 0 0 1-.185-.534.4.4 0 0 1 .533-.185c.032.01 3.046 1.535 1.936 5.607a.394.394 0 0 1-.38.294l.01.01ZM279.352 88.931c-.164 0-.327-.022-.501-.065-1.338-.381-1.479-1.916-1.49-1.982a.402.402 0 0 1 .141-.337.386.386 0 0 1 .359-.076l3.144.816c.131.033.229.13.272.25a.406.406 0 0 1-.054.37c-.033.044-.794 1.024-1.871 1.024Zm-1.034-1.524c.131.283.359.577.751.697.391.109.761-.044 1.033-.229l-1.784-.457v-.011ZM270.496 86.253a.44.44 0 0 1-.164-.033l-4.264-1.938a.4.4 0 0 1-.196-.523.39.39 0 0 1 .522-.196l4.265 1.938c.196.087.283.327.196.523a.396.396 0 0 1-.359.229Z"/><path fill="#000" d="M266.699 87.243a.414.414 0 0 1-.283-.12.407.407 0 0 1 0-.565l1.882-1.862a.407.407 0 0 1 .566 0 .408.408 0 0 1 0 .566l-1.882 1.862a.398.398 0 0 1-.283.12Z"/><path fill="#0002BB" d="M276.556 73.035s2.426-.37 4.971 1.165c2.535 1.535 3.058 3.027 3.058 3.027s1.566-3.963-1.872-7.458-9.585-4.693-14.644-.664C263.674 72.6 263.903 78 263.903 78l6.593 3.887s8.007-1.546 6.07-8.84l-.01-.012Z"/><path fill="#1C34ED" d="M271.159 95.78s4.341 7.479 12.087 4.137c7.747-3.343-21.922 45.128-21.922 45.128l3.96-42.428 5.864-6.848.011.01Z"/><path fill="#E24E1B" d="m216.772 195.977 24.98-17.365 6.169 9.864-1.817 43.735s-10.053-2.079-29.321-36.234h-.011Z"/><path fill="#fff" d="M267.09 232.353a.382.382 0 0 1-.315-.164.397.397 0 0 1 .076-.555c.087-.065 8.943-6.826 13.665-24.051 4.732-17.3 1.827-43.778 1.795-44.05a.386.386 0 0 1 .228-.403l9.716-4.41a.399.399 0 0 1 .522.196.4.4 0 0 1-.196.523l-9.454 4.29c.304 2.939 2.654 27.589-1.85 44.061-4.798 17.508-13.86 24.41-13.958 24.486a.37.37 0 0 1-.24.077h.011ZM250.597 193.016c-.098 0-.218 0-.337-.033-3.95-.664-5.756-10.332-5.832-10.735a.405.405 0 0 1 .218-.436.386.386 0 0 1 .468.109c1.729 2.08 7.311 8.972 6.353 10.648-.119.218-.37.447-.881.447h.011Zm-5.037-9.309c.772 3.157 2.469 8.1 4.83 8.503.261.044.381 0 .392-.022.424-.74-2.241-4.736-5.233-8.47l.011-.011ZM253.404 165.405a.393.393 0 0 1-.392-.37.387.387 0 0 1 .37-.425c.283-.021 6.963-.653 8.856-9.929a.395.395 0 0 1 .468-.305c.217.044.359.25.305.468-2.013 9.886-9.498 10.561-9.574 10.561h-.033Z"/><path fill="#0002BB" d="M293.506 127.756h-.087a.401.401 0 0 1-.305-.479c2.133-9.614-1.838-15.134-1.871-15.188a.4.4 0 0 1 .087-.555.39.39 0 0 1 .555.087c.174.228 4.221 5.846 2.013 15.841a.407.407 0 0 1-.392.316v-.022ZM279.265 101.168c-5.56 0-8.41-5.139-8.454-5.204a.384.384 0 0 1 .163-.533.383.383 0 0 1 .533.163c.164.294 3.971 7.12 11.587 3.963a.4.4 0 0 1 .522.218.396.396 0 0 1-.217.522c-1.512.632-2.894.882-4.134.882v-.011Z"/><path fill="#000" d="M278.862 81.996a.407.407 0 0 1-.392-.316l-.402-1.862c-.022-.12 0-.25.087-.337l.805-.948a.395.395 0 0 1 .555-.043.396.396 0 0 1 .043.555l-.685.806.359 1.677a.39.39 0 0 1-.305.468h-.087.022ZM284.683 81.223a.406.406 0 0 1-.392-.316l-.403-1.862c-.021-.12 0-.25.087-.337l.805-.948a.395.395 0 0 1 .555-.043.396.396 0 0 1 .044.555l-.686.806.359 1.676a.39.39 0 0 1-.304.469h-.087.022Z"/><path fill="#0002BB" d="M250.39 104.163a.724.724 0 0 1-.261-.044c-2.002-.566-.718-5.966-.272-7.61a.371.371 0 0 1 .392-.294c.185 0 .337.13.381.305.348 1.48 1.392 6.402.337 7.414a.777.777 0 0 1-.566.229h-.011Zm-.174-5.705c-.479 2.45-.555 4.714.131 4.899.402-.163.37-2.177-.131-4.9Z"/><path fill="#E24E1B" d="m302.743 57.455 33.628-6.227L370 45l-11.424 32.26-11.423 32.249-22.205-26.032-22.205-26.022Z"/><path fill="#000" d="M329.191 90.858a.386.386 0 0 1-.392-.403c.055-3.135-2.785-5.563-2.818-5.596a.395.395 0 0 1-.043-.555.407.407 0 0 1 .555-.055c.13.11 3.166 2.7 3.1 6.217a.397.397 0 0 1-.391.392h-.011Z"/><path fill="#FD842B" d="M326.232 84.565s1.055-10.898-1.698-10.343c-2.752.545-5.657 10.866-5.026 12.38.631 1.513 4.254 1.763 4.254 1.763l2.47-3.789v-.01ZM177.475 111.065c-.598 1.046-6.44 8.438-16.112 9.658-9.672 1.219-9.476-10.42-9.476-10.42l14.056-8.525 11.543 9.287h-.011Z"/><path fill="#FFB700" d="M198.125 127.963c21.096 0 38.198-17.114 38.198-38.226S219.221 51.51 198.125 51.51s-38.198 17.114-38.198 38.226 17.102 38.226 38.198 38.226Z"/><path fill="#FD842B" d="M152.692 104.696s7.768-8.318 11.499-8.35c3.732-.033 8.943 2.253 10.249 6.151 1.316 3.909-6.93.98-6.93.98s-5.788 8.459-10.978 8.394c-5.189-.065-3.84-7.186-3.84-7.186v.011Z"/><path fill="#E24E1B" d="M158.98 125.96s-38.296 12.498-54.06-4.072c-15.765-16.56-4.058-28.635-4.058-28.635s23.456 6.163 28.635 6.457l22.15 1.731 7.333 24.508v.011Z"/><path fill="#fff" d="M54.428 212.864a1.045 1.045 0 1 1-2.09 0 1.045 1.045 0 0 1 2.09 0Z"/><path fill="#FD842B" d="m42.939 228.422-17.843-.784.795-19.532 15.59-.566 1.458 20.882Z"/><path fill="#1C34ED" d="M121.065 151.121s12.566 31.78 12.316 60.48c-.261 28.699-8.943 59.762-8.943 59.762l-38.133.718s6.408-30.474 6.952-37.496c.544-7.012 1.98-51.444 1.98-51.444l.413-30.191 25.426-1.84-.011.011Z"/><path fill="#1C34ED" d="M72.912 151.121s1.044 15.515-1.545 26.925c-2.578 11.355-10.858 21.405-19.398 24.203-8.54 2.798-16.863 1.731-16.863 1.731l-1.1 33.163s28.843 7.741 49.1-4.954c20.258-12.694 18.952-39.14 18.952-39.14l1.502-42.647-30.659.719h.011Z"/><path fill="#E24E1B" d="M88.122 91.479c14.752-1.394 27.003 8.666 29.005 22.94l1.185 8.492s3.874 28.199 3.232 29.288c-.642 1.088-14.035 3.897-26.982 3.277-12.946-.621-21.128-2.809-21.77-3.277-.642-.468 1.284-58.434 1.284-58.902 0-.228 6.125-1.078 14.035-1.818h.01Z"/><path fill="#0002BB" d="M94.258 221.204a.433.433 0 0 1-.25-.088.387.387 0 0 1-.066-.555c18.267-23.136 9.672-57.159 9.585-57.508a.432.432 0 0 1 .054-.326.388.388 0 0 1 .283-.164l11.576-1.121a.4.4 0 0 1 .076.795l-11.119 1.078c.958 4.148 7.518 35.754-9.835 57.747a.401.401 0 0 1-.315.152l.01-.01ZM76.372 163.141h-.414a.387.387 0 0 1-.38-.414c0-.218.184-.381.391-.381 6.843.174 7.485-4.747 7.507-4.965a.392.392 0 0 1 .435-.348c.218.022.37.218.348.435 0 .055-.685 5.673-7.898 5.673h.01ZM70.073 200.278c-.436 0-.85-.142-1.24-.425-2.35-1.687-3.232-8.209-3.265-8.481a.397.397 0 0 1 .675-.338c.99 1.024 5.93 6.261 5.276 8.351-.097.316-.359.719-1.044.849-.13.022-.261.044-.392.044h-.01Zm-3.515-7.73c.425 2.21 1.339 5.65 2.731 6.663.327.239.664.326 1.023.25.37-.076.424-.239.446-.305.348-1.099-2.122-4.311-4.2-6.608Z"/><path fill="#FFB700" d="M7.57 203.305c-1.273.609-.74 9.113-.99 9.82-.25.719 4.504 3.136 3.666 4.464-.827 1.328-3.242 2.853-4.44 4.801-1.12 1.83-3.154 33.001-2.762 39.087.032.501.5.882 1.044.827 1.349-.131 3.971-.468 6.615-1.295 2.382-.752 4.809-1.895 6.343-3.659 4.025-4.562 6.19-14.589 8.899-18.084 2.709-3.517 8.91-7.207 7.953-9.483-.968-2.275-5.82-6.783-4.667-12.706 1.153-5.922 2.817-8.579 1.457-10.299-.848-1.078-9.356-2.417-15.807-3.103-3.787-.414-6.866-.599-7.333-.37h.021Z"/><path fill="#0002BB" d="M91.897 72.6s7.452.36 7.877-6.805c.446-7.621-6.593-8.35-9.585-5.27-2.992 3.082-2.437 6.217-2.437 6.217s-2.09-1.883-4.363.425c-1.664 1.698-.805 4.464-.805 4.464s-3.84-.153-3.492 3.212c.359 3.364 2.763 5.063 2.763 5.063l10.042-7.317v.01Z"/><path fill="#FD842B" d="m85.075 85.774.773 7.926s1.653 2.144 6.32 2.057c3.482-.054 4.614-.958 4.614-.958l-.87-3.974-.86-3.865-8.551-1.023-1.437-.174.011.01Z"/><path fill="#000" d="M86.511 85.948c.044.218.153.457.305.74 2.165 3.789 7.094 4.17 9.106 4.148l-.86-3.865-8.55-1.023Z"/><path fill="#FD842B" d="M95.063 68.724s5.135 9.537 4.025 15.22c-1.099 5.684-6.234 5.227-9.345 4.4-3.112-.828-4.668-2.57-4.668-2.57s-2.752 1.186-4.852-1.285c-2.11-2.471-1.186-5.596.37-6.413 1.556-.827 3.569.185 3.569.185l-1.741-2.754s5.135-15.123 12.642-6.783Z"/><path fill="#000" d="M84.26 82.649a.444.444 0 0 1-.196-.054l-3.82-2.221a.402.402 0 0 1-.14-.545.404.404 0 0 1 .543-.141l3.82 2.22c.184.11.25.35.14.545a.392.392 0 0 1-.348.196Z"/><path fill="#000" d="M80.996 82.921a.385.385 0 0 1-.37-.26.4.4 0 0 1 .239-.513l2.296-.838a.4.4 0 0 1 .272.751l-2.296.839s-.087.021-.13.021h-.011ZM88.807 73.634a.357.357 0 0 1-.207-.065.404.404 0 0 1-.13-.545c.968-1.546 2.47-1.426 3.133-1.143a.391.391 0 0 1 .207.523.405.405 0 0 1-.522.217c-.131-.054-1.328-.49-2.155.839a.4.4 0 0 1-.337.185l.011-.011ZM96.455 72.513a.392.392 0 0 1-.217-.066c-.87-.588-1.665-.01-1.676 0a.4.4 0 0 1-.555-.087.4.4 0 0 1 .087-.555c.055-.033 1.263-.904 2.579 0 .185.12.228.37.109.555a.385.385 0 0 1-.327.174v-.021ZM95.39 81.539h-.077a.397.397 0 0 1-.316-.469c.566-2.917-1.077-4.78-1.153-4.855a.409.409 0 0 1 .033-.567.404.404 0 0 1 .555.022c.076.087 1.98 2.221 1.338 5.542a.397.397 0 0 1-.392.316l.011.01ZM96.793 76.323a.39.39 0 0 1-.37-.25l-.675-1.775a.394.394 0 0 1 .229-.511.394.394 0 0 1 .511.228l.675 1.775a.394.394 0 0 1-.229.511c-.043.022-.098.022-.141.022ZM91.788 76.911a.39.39 0 0 1-.37-.25l-.674-1.775a.394.394 0 0 1 .228-.512.394.394 0 0 1 .511.229l.675 1.775a.394.394 0 0 1-.228.511c-.044.022-.098.022-.142.022Z"/><path fill="#0002BB" d="M96.118 70.88s-1.012-1.514-2.992-1.329c-1.98.185-2.992 1.688-2.992 1.688s1.197 3.244-1.327 5.28-4.645 1.742-4.645 1.742l-2.013-.5-1.708-2.712 5.048-6.63 6.92-4.573 4.046 3.016-.337 4.028v-.01Z"/><path fill="#000" d="M93.746 83.575c-.696 0-1.893-.196-2.632-1.449a.395.395 0 0 1 .141-.544.394.394 0 0 1 .544.142c.772 1.306 2.274 1.045 2.339 1.034a.397.397 0 0 1 .468.316.397.397 0 0 1-.316.468c-.021 0-.228.043-.533.043l-.01-.01Z"/><path fill="#07CBF5" d="M98.849 80.047c-1.719 0-3.123-1.59-3.123-3.528s1.404-3.527 3.123-3.527c1.719 0 3.122 1.59 3.122 3.527 0 1.938-1.403 3.528-3.122 3.528Zm0-6.271c-1.284 0-2.328 1.23-2.328 2.732 0 1.503 1.044 2.733 2.328 2.733 1.284 0 2.328-1.23 2.328-2.733 0-1.502-1.044-2.732-2.328-2.732ZM91.211 80.82a3.532 3.532 0 0 1-3.525-3.528 3.54 3.54 0 0 1 3.525-3.527 3.54 3.54 0 0 1 3.525 3.527 3.54 3.54 0 0 1-3.525 3.528Zm0-6.271a2.733 2.733 0 0 0-2.73 2.732 2.74 2.74 0 0 0 2.73 2.733 2.74 2.74 0 0 0 2.731-2.733 2.74 2.74 0 0 0-2.73-2.733Z"/><path fill="#07CBF5" d="M96.118 76.911h-1.915a.39.39 0 0 1-.391-.392.39.39 0 0 1 .391-.392h1.915a.39.39 0 0 1 .392.392.39.39 0 0 1-.392.392ZM82.138 78.153a.413.413 0 0 1-.37-.25.39.39 0 0 1 .218-.513c2.339-.936 5.983-.5 6.136-.49.217.022.37.23.348.447a.403.403 0 0 1-.446.348c-.033 0-3.601-.424-5.745.436a.348.348 0 0 1-.152.032l.01-.01Z"/><path fill="#fff" d="M127.234 108.921c-.076 0-.153 0-.229-.011-.653-.087-.957-.457-1.099-.762-.957-2.069 2.818-7.992 3.242-8.656a.404.404 0 0 1 .436-.163.394.394 0 0 1 .293.36c.044.707.403 6.989-1.457 8.753-.338.326-.751.49-1.186.49v-.011Zm1.904-7.905c-1.437 2.417-3.014 5.705-2.514 6.794.055.12.164.272.479.305a.91.91 0 0 0 .773-.261c1.109-1.046 1.294-4.584 1.262-6.838Z"/><path fill="#000" d="M158.306 111.947c-.882 0-1.828-.195-2.807-.685a.412.412 0 0 1-.185-.534.41.41 0 0 1 .533-.185c4.7 2.319 8.453-2.907 8.497-2.961a.41.41 0 0 1 .555-.098c.174.13.217.37.098.555-.033.043-2.796 3.898-6.691 3.898v.01Z"/><path fill="#fff" d="M86.653 100.113h-.174a1.448 1.448 0 0 1-1.11-.643c-1.066-1.535-.022-5.433.098-5.868a.394.394 0 0 1 .25-.272.41.41 0 0 1 .37.054c.044.033 4.7 3.365 10.564 1.056a.42.42 0 0 1 .305 0 .37.37 0 0 1 .207.218c.446 1.165 1.338 3.941.108 4.464-1.033.436-3.688-1.633-5.059-2.798-.837.958-3.481 3.789-5.56 3.789Zm-.555-5.77c-.316 1.338-.707 3.766-.087 4.67.13.185.294.283.522.305 1.502.12 3.732-2.003 4.885-3.288a12.601 12.601 0 0 1-5.33-1.688h.01Zm7.017 1.698c1.763 1.448 3.47 2.515 3.852 2.362.283-.12.152-1.48-.403-3.08a12.37 12.37 0 0 1-3.438.718h-.01Z"/><path fill="#0002BB" d="m166.079 132.016-55.773-24.13L86.194 163.7l55.773 24.13 24.112-55.814Z"/><path fill="#FD842B" d="M98.392 124.044c1.621.228 4.722 2.917 4.722 2.917s5.799 1.242 6.103 3.016c.305 1.775-2.502 3.495-2.502 3.495s1.392 3.669 1.033 5.019-1.294 7.818-4.743 9.189c-3.449 1.361-17.57-5.236-17.57-5.236l-.425-14.405s11.772-4.224 13.393-3.995h-.011Z"/><path fill="#000" d="M103.114 127.353h-6.996a.39.39 0 0 1-.391-.392.39.39 0 0 1 .391-.392h6.996a.39.39 0 0 1 .391.392.39.39 0 0 1-.391.392Z"/><path fill="#E24E1B" d="M74.087 93.297s-31.91 8.982-31.268 34.372c.642 25.389 43.78 21.209 43.78 21.209v-23.463L74.087 93.297Z"/><path fill="#fff" d="M86.13 124.871s-.065 0-.108-.011c-.142-.033-14.002-3.789-25.709-5.324a.394.394 0 0 1-.337-.447.393.393 0 0 1 .446-.337c11.761 1.546 25.676 5.313 25.818 5.346a.404.404 0 0 1 .282.49.395.395 0 0 1-.38.294l-.011-.011Z"/><path fill="#fff" d="M70.388 121.234s-.076 0-.12-.021c-.87-.273-8.518-2.733-9.106-5.096-.076-.326-.076-.827.403-1.306.391-.392.892-.577 1.48-.534 2.915.196 7.452 6.065 7.648 6.315a.376.376 0 0 1 0 .468.397.397 0 0 1-.327.174h.022Zm-7.485-6.173c-.316 0-.566.098-.773.305-.239.24-.228.425-.195.555.315 1.263 4.22 3.027 7.289 4.105-1.632-1.927-4.46-4.845-6.223-4.965h-.098ZM86.13 149.063H72.239a.393.393 0 0 1-.392-.403c0-.229.174-.392.391-.392h13.894a.39.39 0 0 1 .391.392.4.4 0 0 1-.391.403Z"/><path fill="#FD842B" d="M230.861 65.545s-10.455-.327-8.04 2.493c2.416 2.82 8.628 3.016 8.628 3.016s3.438-3.941-.598-5.51h.01Z"/></g><g clip-path="url(#c)"><path fill="#FD842B" d="M889.32 147.925s7.256 3.792 8.264 10.758c1.008 6.967-5.11 8.201-5.11 8.201l-15.158-7.412 12.004-11.547ZM784.777 93.415s-8.95-3.388-13.283-7.372c-4.334-3.984-4.485-4.894-4.173-7.25.131-.99-1.108-2.912.222-4.66 1.33-1.75 6.339 1.253 6.339 1.253s-2.167-3.428-.413-4.156c1.764-.728 7.166 4.297 7.166 4.297s-1.905-5.045-.555-5.632c1.351-.576 7.519 2.67 8.476 5.107.958 2.437 1.109 10.99 1.109 10.99l-4.888 7.433v-.01Z"/><path fill="#E24E1B" d="M909.013 259.706a.763.763 0 0 1 .06 1.062l-31.364 36.553a.764.764 0 0 1-1.078.08l-3.326-2.851-.04-.04a.759.759 0 0 1-.081-1.001.77.77 0 0 0 .111-.718.691.691 0 0 0-.242-.334c-.997-.809-3.023-2.72-3.588-5.46-.755-3.701 4.475-13.802 6.36-18.706 1.229-3.185-.232-6.916-1.411-9.131-.645-1.223-.474-2.72.453-3.731 3.709-3.994 12.457-13.408 13.163-13.883.877-.596 8.445 5.42 10.824 8.362 2.388 2.943 4.918 6.623 4.918 6.623l.726-1.041 4.515 4.196v.02Z"/><path fill="#E24E1B" d="M909.013 259.706a.763.763 0 0 1 .06 1.062l-31.364 36.552a.763.763 0 0 1-1.078.081l-3.326-2.851-.04-.041a.759.759 0 0 1-.081-1.001.768.768 0 0 0 .111-.718c8.95-10.141 30.487-36.239 30.487-36.239l.726-1.041 4.515 4.196h-.01Z"/><path fill="#FFB700" d="M810.527 157.157s-11.761 33.388-14.583 56.088c-2.822 22.71 10.088 59.101 10.088 59.101l36.595-1.497s-7.892-36.209-9.444-47.24c-1.27-12.164 3.84-65.097 3.84-65.097l-26.496-1.355Z"/><path fill="#FFB700" d="M853.068 155.327s7.7 29.313 22.142 53.63c14.442 24.318 21.215 31.184 21.215 31.184l-28.068 25.632s-33.904-35.784-38.671-60.688c-4.757-24.905-5.059-47.362-5.059-47.362l28.431-2.396h.01Z"/><path fill="#0002BB" d="M851.848 174.73c-5.533 0-8.244-5.581-8.274-5.652-.091-.182 0-.405.171-.496.182-.091.404 0 .494.172.131.283 3.377 6.916 10.139 4.823a.37.37 0 0 1 .464.243.377.377 0 0 1-.242.465 9.361 9.361 0 0 1-2.752.435v.01ZM867.057 207.713c-.252 0-.484-.08-.696-.222-.695-.495-.786-1.031-.746-1.395.242-1.841 4.707-3.56 5.221-3.752a.378.378 0 0 1 .403.101.375.375 0 0 1 .061.405c-.212.445-2.157 4.378-3.891 4.823-.11.03-.231.04-.342.04h-.01Zm3.114-4.307c-1.683.738-3.709 1.891-3.82 2.781-.01.091-.05.364.434.697a.495.495 0 0 0 .433.071c.947-.243 2.207-2.194 2.953-3.549ZM867.359 256.804a.357.357 0 0 1-.272-.121.368.368 0 0 1 .03-.516l24.37-21.386a.365.365 0 0 1 .483.546l-24.369 21.386a.379.379 0 0 1-.242.091ZM832.488 215.661a.38.38 0 0 1-.333-.202c-4.606-9.313-7.377-34.217-7.689-37.17l-10.613-2.912a.362.362 0 0 1-.252-.455.36.36 0 0 1 .454-.252l10.854 2.982a.381.381 0 0 1 .272.314c.03.273 2.903 27.594 7.639 37.169a.364.364 0 0 1-.171.496.32.32 0 0 1-.161.04v-.01Z"/><path fill="#fff" d="M873.295 293.165a.369.369 0 0 1-.282-.607l30.487-36.239a.356.356 0 0 1 .514-.04.368.368 0 0 1 .04.515l-30.487 36.239a.343.343 0 0 1-.282.132h.01Z"/><path fill="#0002BB" d="M790.905 78.976s7.075 16.603 14.744 22.518c7.67 5.915 16.881 7.28 19.341 7.027 2.459-.263 10.128.455 15.026.718 19.351 1.041 16.62 32.528 16.348 37.503a967.842 967.842 0 0 1-.666 10.769 2.082 2.082 0 0 1-1.844 1.941c-4.031.455-14.462 1.517-24.369 1.648-9.686.122-16.831-.435-19.633-.697a1.49 1.49 0 0 1-1.351-1.426c-.06-1.517-.766-5.197-.957-9.606-.292-6.947-1.119-15.329-1.119-15.329s-13.545.718-24.41-15.349c-9.12-13.488-6.833-28.575-6.833-28.575l15.723-11.142Z"/><path fill="#fff" d="M798.887 105.599c-.252 0-.585-.091-.847-.496-.212-.334-.252-.708-.141-1.122.554-2.002 5.09-4.358 5.614-4.621a.382.382 0 0 1 .433.07.367.367 0 0 1 .05.435c-.554.951-3.386 5.693-5.089 5.723h-.02v.011Zm3.749-4.915c-1.583.931-3.729 2.397-4.032 3.499-.06.202-.04.374.061.526.091.141.181.151.222.151.786-.01 2.469-2.174 3.749-4.176Z"/><path fill="#0002BB" d="M827.197 88.774s-5.826-5.41-2.721-9.313c3.114-3.903 8.848.708 8.848.708s2.52-2.194 5.715-.04c3.185 2.153 3.235 6.835 3.235 6.835s3.396.171 3.286 4.317c-.101 4.146-4.808 7.513-4.808 7.513l-13.555-10.02Z"/><path fill="#FD842B" d="m837.336 100.149-.474 9.12s-1.623 2.518-6.44 2.599c-3.598.061-4.808-.93-4.808-.93l.756-4.035.706-5.025 8.778-1.487 1.472-.252.01.01Z"/><path fill="#000" d="M835.894 101.494c-.03.222-.141.485-.292.778-2.086 3.994-7.166 4.571-9.242 4.631l.675-4.651 8.859-.758Z"/><path fill="#FD842B" d="M826.773 84.284s-4.736 9.636-3.456 15.228c1.28 5.591 6.339 4.964 9.393 4.034 3.053-.93 4.525-2.71 4.525-2.71s2.761 1.082 4.757-1.446c1.995-2.528.977-5.581-.585-6.35-1.572-.758-3.527.304-3.527.304l1.622-2.791s-5.603-14.813-12.739-6.28l.01.011Z"/><path fill="#000" d="M837.93 97.682a.37.37 0 0 1-.312-.172.36.36 0 0 1 .111-.506l3.698-2.336a.359.359 0 0 1 .504.112.36.36 0 0 1-.111.505l-3.698 2.336a.357.357 0 0 1-.192.06Z"/><path fill="#000" d="M841.165 97.843s-.08 0-.111-.02l-2.297-.748a.361.361 0 0 1-.232-.466.36.36 0 0 1 .463-.232l2.298.748c.192.06.303.273.232.465a.369.369 0 0 1-.353.253ZM833.123 88.915a.389.389 0 0 1-.202-.061c-1.219-.778-2.449-.83-2.459-.83a.365.365 0 0 1-.353-.383c0-.203.172-.374.383-.354.061 0 1.442.06 2.832.95a.37.37 0 0 1-.201.677ZM825.524 88.066a.356.356 0 0 1-.353-.283.364.364 0 0 1 .272-.445c.917-.223 1.693-.071 1.724-.06.201.04.322.232.282.434a.355.355 0 0 1-.434.283s-.655-.131-1.401.05c-.03 0-.06.01-.08.01l-.01.01ZM826.37 96.519a.368.368 0 0 1-.363-.284c-.765-3.316 1.613-5.055 1.714-5.126a.363.363 0 0 1 .514.091.372.372 0 0 1-.081.516c-.08.06-2.076 1.537-1.421 4.358a.38.38 0 0 1-.272.445h-.091ZM825.322 91.857s-.08 0-.121-.02a.371.371 0 0 1-.232-.465l.605-1.78a.369.369 0 0 1 .464-.232c.191.06.292.273.232.465l-.605 1.78a.37.37 0 0 1-.353.252h.01ZM830.291 92.262s-.081 0-.121-.02a.37.37 0 0 1-.232-.466l.605-1.78a.372.372 0 0 1 .463-.232.37.37 0 0 1 .232.465l-.605 1.78a.368.368 0 0 1-.352.253h.01Z"/><path fill="#0002BB" d="M825.806 86.458s.947-1.537 2.913-1.426c1.965.111 3.023 1.568 3.023 1.568s-1.068 3.255 1.492 5.187c2.56 1.93 4.656 1.567 4.656 1.567l1.975-.566 1.593-2.75-5.221-6.401-7.004-4.287-3.901 3.134.474 3.984v-.01Z"/><path fill="#000" d="M827.983 99.936h-.071c-1.139-.07-1.834-1.193-1.854-1.244a.373.373 0 0 1-.02-.343.382.382 0 0 1 .282-.213l3.034-.445c.131-.02.251.03.332.122a.377.377 0 0 1 .071.354c-.021.07-.585 1.77-1.764 1.77h-.01Zm-.917-1.173c.221.203.524.405.887.435.342.03.624-.334.826-.688l-1.713.253Z"/><path fill="#fff" d="M830.523 112.262c-2.762 0-5.029-.971-5.07-.991a.375.375 0 0 1-.191-.485.372.372 0 0 1 .483-.192c.071.03 6.763 2.902 10.825-1.578a.357.357 0 0 1 .514-.02.37.37 0 0 1 .02.526c-1.945 2.144-4.425 2.75-6.602 2.75l.021-.01ZM806.435 134.406a.371.371 0 0 1-.373-.364v-5.187c0-.202.162-.364.373-.364.212 0 .373.162.373.364v5.187a.364.364 0 0 1-.373.364Z"/><path fill="#0002BB" d="M843.907 109.937s14.986 4.317 29.126 15.106 18.111 22.892 18.111 22.892l-15.732 13.934s-14.947-14.025-22.677-17.756-8.828-34.166-8.828-34.166v-.01Z"/><path fill="#fff" d="M856.394 146.61h-.061a.353.353 0 0 1-.302-.313c-.141-1.021-.756-6.178.514-7.23.181-.151.504-.313.957-.161.353.121.625.374.776.738.766 1.799-1.31 6.259-1.552 6.764a.363.363 0 0 1-.332.212v-.01Zm.756-7.037a.174.174 0 0 0-.131.05c-.575.476-.595 2.993-.404 5.198.645-1.618 1.401-3.934.988-4.894a.57.57 0 0 0-.332-.334c-.051-.02-.091-.02-.121-.02Z"/><path fill="#07CBF5" d="m786.534 66.886-45.762-32.882-32.774 45.912 45.762 32.881 32.774-45.911Z"/><path fill="#FD842B" d="M788.012 72.959s-6.601-8.14-9.282-6.795c-2.681 1.345 5.18 13.458 5.18 13.458s6.541-1.304 4.092-6.663h.01ZM1046.2 147.925s6.81 3.134 8.83 5.278c2.01 2.144 1.68 3.933 1.68 3.933l-4.47 1.911-6.04-11.112v-.01Z"/><path fill="#FFB700" d="M1098.12 190.36c4.23-18.271-7.1-36.526-25.31-40.774-18.21-4.249-36.4 7.119-40.64 25.389-4.23 18.271 7.1 36.526 25.31 40.774 18.21 4.248 36.4-7.119 40.64-25.389Z"/><path fill="#1C34ED" d="m945.809 159.745-27.655 11.851-27.665 11.85 3.598-29.96 3.608-29.96 24.057 18.11 24.057 18.109Z"/><path fill="#FD842B" d="M1002.97 108.349s23.97 23.974 30.54 29.212l6.57 5.238s8.14 6.441 9.81 9.555-7.07 1.102-7.07 1.102l-8.03 2.841s-36.795-13.64-41.139-37.189c-4.344-23.55 9.309-10.759 9.309-10.759h.01Z"/><path fill="#FD842B" d="M1045.17 147.267s4.45 4.176 6.15 6.836c1.7 2.659 5.72 11.335 3.51 13.418-1.09 1.021-3.5-3.388-3.5-3.388s2.92 4.844 1.48 7.078c-.98 1.517-3.61-3.337-3.61-3.337s1.89 5.916-2.07 3.246c-3.96-2.669-6.83-7.533-11.24-9.656-4.41-2.124-3.9-6.562-3.9-6.562l13.18-7.645v.01Z"/><path fill="#000" d="M1052.4 166.206a.383.383 0 0 1-.37-.303c-.88-5.026-5.24-7.998-5.28-8.029a.374.374 0 0 1-.1-.515.377.377 0 0 1 .52-.101c.19.131 4.66 3.185 5.6 8.513a.36.36 0 0 1-.3.425h-.06l-.01.01ZM1049.51 168.896a.367.367 0 0 1-.34-.212c-.02-.051-2.33-5.076-4.94-6.573a.378.378 0 0 1-.14-.505c.1-.182.34-.243.51-.142 2.82 1.618 5.15 6.694 5.25 6.906.08.182 0 .405-.18.486-.05.02-.1.03-.15.03l-.01.01Z"/><path fill="#FD842B" d="M995.173 262.881v17.108h21.677v-22.467l-21.677 5.359ZM938.754 256.491l-4.545 16.481 20.912 5.804 5.967-21.648-22.334-.637Z"/><path fill="#0002BB" d="M1004.74 84.041s15.54-3.104 21.39 12.306c5.22 13.741-1.17 33.792-12.91 33.357-11.74-.425-18.118-5.703-18.118-5.703v-36.42l9.638-3.54Z"/><path fill="#0002BB" d="M986.828 91.736s-6.864-6.188 3.809-12.285 18.453 2.265 18.543 6.744c.09 4.49-2.46 6.562-2.46 6.562s1 9.727-8.312 9.05c-9.313-.667-11.58-10.091-11.58-10.091v.02Z"/><path fill="#FD842B" d="m999.295 100.26.191 7.857s-1.35 2.295-5.926 2.78c-3.406.364-4.626-.384-4.626-.384l.373-3.994.373-3.893 8.224-2.032 1.381-.344.01.01Z"/><path fill="#000" d="M999.275 99.886c-.01.212-.091.475-.212.768-1.653 3.964-7.78 5.652-9.746 5.875l.373-3.893 9.585-2.75Z"/><path fill="#FD842B" d="M987.503 84.78s-3.86 9.949-2.106 15.379c1.753 5.43 6.712 4.368 9.655 3.175 2.943-1.183 4.253-3.074 4.253-3.074s2.825.839 4.585-1.84c1.76-2.68.49-5.622-1.13-6.24-1.62-.616-3.465.608-3.465.608l1.375-2.902s-6.828-14.187-13.167-5.117v.01Z"/><path fill="#000" d="M986.878 97.61a.37.37 0 0 1-.363-.313c-.544-3.337.756-5.106.807-5.177a.367.367 0 1 1 .584.445c-.01.02-1.169 1.618-.675 4.62a.368.368 0 0 1-.302.425h-.061.01ZM999.506 96.822a.366.366 0 0 1-.171-.688l3.805-2.032c.19-.091.41-.03.5.151.09.183.03.405-.15.496l-3.812 2.032a.333.333 0 0 1-.172.04Z"/><path fill="#000" d="M1003.06 97.51c-.08 0-.17-.03-.24-.092l-1.83-1.607a.37.37 0 0 1-.04-.516.372.372 0 0 1 .52-.04l1.84 1.607a.37.37 0 0 1 .04.516.383.383 0 0 1-.29.121v.01Z"/><path fill="#0002BB" d="M985.971 89.704s.182-2.427 2.026-4.5c1.965-2.204 3.628-1.84 3.628-1.84s-2.902 6.37 1.976 8.615c3.467 1.597 5.694.819 5.694.819l4.965-4.945-9.873-8.048s-9.01-1.264-8.406 9.909l-.01-.01Z"/><path fill="#000" d="M989.327 99.633a.353.353 0 0 1-.342-.253.357.357 0 0 1 .221-.465s.978-.354 1.603-1.405a.373.373 0 0 1 .504-.132.376.376 0 0 1 .131.506c-.766 1.294-1.945 1.709-1.996 1.729-.04.01-.08.02-.121.02ZM990.335 93.465h-.08a.373.373 0 0 1-.283-.445l.363-1.597-.474-.759a.363.363 0 0 1 .111-.505.36.36 0 0 1 .504.11l.555.89c.05.082.07.183.05.284l-.393 1.75a.367.367 0 0 1-.363.282l.01-.01ZM985.457 93.425h-.08a.358.358 0 0 1-.272-.445l.362-1.598-.473-.758a.36.36 0 0 1 .111-.506.358.358 0 0 1 .503.111l.555.89c.05.081.07.182.05.283l-.393 1.75a.367.367 0 0 1-.363.283v-.01ZM986.284 88.884a.376.376 0 0 1-.363-.293.362.362 0 0 1 .282-.435l1.078-.232c.212-.04.393.08.434.283a.363.363 0 0 1-.282.435l-1.079.232h-.08l.01.01ZM991.857 89.33s-.081 0-.121-.02l-2.268-.8a.36.36 0 0 1-.221-.465.358.358 0 0 1 .463-.222l2.268.799c.191.07.292.273.222.465a.358.358 0 0 1-.343.242Z"/><path fill="#FD842B" d="M937.807 142.445s-5.009-4.54-8.617-4.469c-3.618.07-6.884 2.315-8.254 3.053l3.134 2.356c.504.03 1.209.101 1.209.101.555.92-.574 3.297-4.182 5.743-3.608 2.458-8.023 3.641-6.481 4.429 1.542.789 2.601.89 2.601.89s-2.107-.465.806 1.679c1.461 1.071 3.406.566 3.406.566s.474 1.881 4.657 1.719c4.182-.152 10.904-4.237 10.904-4.237s20.953 4.045 32.997-3.62c12.044-7.664 12.285-19.11 12.285-19.11l-16.77-8.019s-8.456 10.506-27.685 18.919h-.01Z"/><path fill="#000" d="M916.481 154.76a.361.361 0 0 1-.363-.323.365.365 0 0 1 .313-.415c.05 0 5.079-.698 7.387-2.781a.377.377 0 0 1 .524.031.38.38 0 0 1-.03.526c-2.479 2.234-7.569 2.932-7.781 2.962h-.05ZM921.419 157.146a.361.361 0 0 1-.362-.364c0-.202.151-.374.352-.374.02 0 2.429-.101 4.929-2.538a.377.377 0 0 1 .524 0 .38.38 0 0 1 0 .526c-2.722 2.649-5.312 2.74-5.423 2.75h-.02Z"/><path fill="#0002BB" d="M983.905 156.439s-17.647 23.863-32.15 50.365c-14.503 26.502-22.555 59.647-22.555 59.647l37.129 2.305 26.999-65.481-7.941 64.612 35.903-1.264s7.77-59.981 3.62-88.273c-4.14-28.291-9-34.247-9-34.247l-32.005 12.336Z"/><path fill="#E24E1B" d="M963.557 124.436s14.13-15.864 31.192-16.896c17.061-1.031 22.811 7.21 23.631 11.123.82 3.913 2.26 31.931 1.23 33.782-1.03 1.85-8.03 5.147-19.41 5.976-11.387.829-17.343-.617-18.159-1.234-.817-.617-1.845-9.272-1.845-9.272l-8.022 3.589-8.607-27.078-.01.01Z"/><path fill="#fff" d="M980.196 148.299h-.06a.367.367 0 0 1-.303-.344c-.11-1.688-.362-7.25.837-7.947.151-.081.454-.193.826.06 1.804 1.204-.483 6.876-.957 8.008a.362.362 0 0 1-.343.223Zm.887-7.614c-.443.172-.675 2.568-.605 5.47.817-2.335 1.371-4.954.605-5.47ZM993.157 203.649a.372.372 0 0 1-.312-.556c.05-.091 5.341-9.01 18.995-14.217.19-.071.41.02.48.212a.365.365 0 0 1-.22.476c-13.4 5.116-18.57 13.812-18.62 13.903a.365.365 0 0 1-.323.182Z"/><path fill="#0002BB" d="M999.305 100.26s-11.137 26.249 7.645 30.253c18.8 4.004 21.44-16.33 19.96-25.076-1.48-8.757-17.72-11.942-17.72-11.942s.09 7.776-9.885 6.775v-.01ZM1002.45 79.754s2.3-11.638 9.52-8.403c7.23 3.236 0 15.016 0 15.016h-6.82l-2.7-6.613Z"/><path fill="#fff" d="M983.19 172.273a.358.358 0 0 1-.333-.222c-3.044-6.906 2.187-10.465 2.237-10.496a.368.368 0 0 1 .504.101.385.385 0 0 1-.1.516c-.192.131-4.757 3.256-1.976 9.586a.367.367 0 0 1-.342.515h.01Z"/><path fill="#000" d="M784.031 83.323a.31.31 0 0 1-.181-.05c-4.687-2.63-2.782-8.342-2.762-8.403a.373.373 0 0 1 .464-.232c.191.07.292.273.232.465-.071.212-1.724 5.187 2.418 7.513a.374.374 0 0 1-.181.698l.01.01Z"/><path fill="#FD842B" d="M883.192 158.946s7.69 7.553 8.718 7.816c1.028.263 7.367 3.185 8.173 1.942 1.27-1.942-4.112-5.996-4.112-5.996s-1.773-8.898-6.722-7.948c-4.948.961-6.067 4.176-6.067 4.176l.01.01Z"/><path fill="#000" d="M893.049 155.832a.347.347 0 0 1-.252-.101c-.03-.031-3.195-2.993-5.291-1.921a.37.37 0 0 1-.494-.162.37.37 0 0 1 .161-.496c2.56-1.314 5.987 1.901 6.128 2.043a.37.37 0 0 1 .01.526.344.344 0 0 1-.262.111Z"/></g></g><defs><clipPath id="b"><path fill="#fff" d="M3 45h367v257H3z"/></clipPath><clipPath id="c"><path fill="#fff" d="M708 34h391v266H708z"/></clipPath></defs></svg>