<svg xmlns="http://www.w3.org/2000/svg" width="530" height="260" fill="none"><mask id="a" width="530" height="260" x="0" y="0" maskUnits="userSpaceOnUse" style="mask-type:alpha"><path fill="#000" d="M530 0H0v260h530V0Z"/></mask><g mask="url(#a)"><path fill="#fff" d="M135.499 90.13h60.057c2.59 0 4.702-2.08 4.702-4.633v-26.94c0-2.552-2.112-4.633-4.702-4.633h-60.057c-2.59 0-4.702 2.08-4.702 4.633v26.94c0 2.553 2.112 4.634 4.702 4.634Z"/><path fill="#fff" d="m169.339 56.574 21.977-15.462-5.379 15.462h-16.598Z"/><path fill="#3DF130" d="M151.025 83.078h-7.623v-22.08h7.623v22.08Z"/><path fill="#FFB904" d="M163.252 83.078h-7.623V64.966h7.623v18.112Z"/><path fill="#5EF939" d="M187.669 83.078h-7.622V64.966h7.622v18.112Z"/><path fill="#373178" d="M175.444 83.06h-7.623V72.02h7.623v11.04Z"/><path fill="#FFBB87" d="m85.1 200.708 15.386 15.322 15.463-24.305-8.698-8.958L85.1 200.708Z"/><path fill="#E64218" d="M93.245 159.839c-1.581-.551-8.32 7.041-9.136 7.442-.816.401 1.104 6.377-.716 6.803-1.82.426-5.12-.3-7.768.351-2.485.601-30.548 25.12-35.367 30.57-.402.464-.327 1.178.175 1.579a40.467 40.467 0 0 0 5.811 3.984c2.799 1.553 6.112 2.831 9.162 2.618 7.216-.513 17.495-7.116 22.704-7.818 5.22-.701 13.516 1.341 14.633-1.378 1.117-2.706.891-10.536 6.865-14.558s9.601-4.874 9.94-7.442c.226-1.729-6.601-11.013-11.534-16.989-2.359-2.869-4.28-4.986-4.781-5.162h.012Z"/><path fill="#fff" d="M93.245 159.839c-1.581-.551-8.32 7.041-9.136 7.442-.816.401 1.104 6.377-.716 6.803-1.82.426-5.12-.3-7.769.351-2.484.601-30.547 25.12-35.366 30.57-.402.464-.327 1.178.175 1.579a40.467 40.467 0 0 0 5.811 3.984l51.783-45.567c-2.36-2.869-4.28-4.986-4.782-5.162Z"/><path fill="#FFB904" d="M122.035 142.489s-3.275 16.375-4.819 30.294-4.041 32.612-4.041 32.612-11.446 42.836 16.052 46.62c34.099 4.698 32.367-35.67 32.367-35.67l-10.253-84.481-29.306 10.625Z"/><path fill="#FFB904" d="m84.585 207.699 28.226-24.306 8.409 11.827 2.272 55.302s-12.287-1.654-38.907-42.823ZM176.567 138.654s11.383 45.291 7.782 78.68c-3.602 33.402-20.194 74.358-20.194 74.358l-44.278-8.231 14.797-49.501 10.693-93.089 31.2-2.217Z"/><path fill="#E64218" d="M131.737 252.601c5.058 0 16.529-1.34 24.888-12.353 14.433-19.019 5.911-70.136 4.857-76.125l14.533-1.177a.45.45 0 0 0 .414-.489c-.025-.251-.238-.451-.489-.413l-15.036 1.215a.43.43 0 0 0-.326.175.473.473 0 0 0-.088.364c.101.563 10.179 56.441-4.593 75.899-10.656 14.032-26.444 11.889-26.594 11.864a.455.455 0 1 0-.126.902c.038 0 .991.138 2.573.138h-.013ZM124.432 203.125a1.75 1.75 0 0 0 1.055-.351c.489-.363.753-.877.803-1.529.263-4.184-9.94-13.856-10.367-14.27a.455.455 0 0 0-.565-.05.464.464 0 0 0-.188.526c.502 1.466 4.995 14.421 8.698 15.586.188.063.389.088.577.088h-.013Zm-7.731-14.108c3.351 3.371 8.836 9.485 8.673 12.166-.025.376-.163.651-.427.839-.251.188-.502.226-.803.125-2.385-.751-5.736-8.544-7.443-13.142v.012ZM124.495 161.03a.405.405 0 0 0 .201-.05c6.137-2.995 10.078-10.437 10.241-10.75a.457.457 0 0 0-.201-.614.466.466 0 0 0-.615.188c-.037.075-3.965 7.492-9.839 10.349a.461.461 0 0 0-.213.614.454.454 0 0 0 .414.263h.012Z"/><path fill="#DC3C1E" d="M130.607 81.26S110 85.683 103.109 107.834c-6.89 22.15 20.922 45.491 20.922 45.491l52.536-14.671s-6.301-56.867-12.588-62.555c-6.301-5.689-33.372 5.149-33.372 5.149v.012Z"/><path fill="#DC3C1E" d="M146.371 68.994s2.811-21.223 30.196-26.41c27.385-5.187 43.776 28.753 43.776 28.753l-80.649 14.746 6.677-17.089Z"/><path fill="#0017BF" d="M144.375 59.71s8.761-6.063 5.347-11.814c-3.401-5.75-11.885-.714-11.885-.714s-2.937-3.37-7.581-1.128c-4.643 2.243-5.572 8.432-5.572 8.432s-4.543-.413-5.183 5.1c-.64 5.512 4.982 10.837 4.982 10.837l19.892-10.725v.013Z"/><path fill="#FFBB87" d="m128.775 73.78-.828 10.524s1.669 3.17 7.794 4.16c4.568.726 6.175-2.18 6.175-2.18l-.138-3.383-.226-5.25-10.944-3.32-1.833-.563v.012Z"/><path fill="#000" d="M130.607 74.332c0 .288.088.639.226 1.04 1.946 5.437 8.309 7.079 10.944 7.53l-.226-5.25-10.944-3.32Z"/><path fill="#FFBB87" d="M145.781 53.847s4.493 13.631 1.744 20.785c-2.748 7.154-9.362 5.375-13.24 3.571-3.878-1.804-5.51-4.435-5.51-4.435s-3.865.915-6.049-2.794c-2.184-3.721-.264-7.567 1.97-8.294 2.234-.714 4.631 1.065 4.631 1.065l-1.644-3.997s10.216-18.542 18.11-5.926l-.012.025Z"/><path fill="#000" d="M128.512 69.444c.125 0 .263-.05.351-.163a.455.455 0 0 0-.05-.639l-4.481-3.783a.457.457 0 0 0-.64.05.455.455 0 0 0 .05.639l4.481 3.783a.45.45 0 0 0 .301.113h-.012Z"/><path fill="#000" d="M124.182 69.044h.075l3.188-.563a.456.456 0 0 0 .376-.526.463.463 0 0 0-.527-.376l-3.188.563a.456.456 0 0 0-.376.527.456.456 0 0 0 .452.376ZM136.557 58.746a.45.45 0 0 0 .339-.15c1.468-1.629 3.037-.639 3.099-.601.214.137.49.075.628-.138a.447.447 0 0 0-.138-.627c-.778-.5-2.686-1.002-4.28.752a.459.459 0 0 0 .339.764h.013ZM146.823 59.046c.125 0 .238-.05.326-.138a.468.468 0 0 0 0-.651c-1.494-1.441-3.226-.614-3.301-.577a.461.461 0 0 0-.213.614.474.474 0 0 0 .615.213c.062-.025 1.255-.564 2.259.413a.437.437 0 0 0 .314.126ZM143.923 70.033a.462.462 0 0 0 .427-.288c1.632-4.21-1.004-6.904-1.117-7.016a.455.455 0 0 0-.64 0 .468.468 0 0 0 0 .651c.1.1 2.309 2.393.904 6.039a.454.454 0 0 0 .263.589c.05.025.113.025.163.025ZM146.371 64.096h.088a.457.457 0 0 0 .364-.54l-.465-2.467a.457.457 0 0 0-.539-.364.457.457 0 0 0-.364.54l.464 2.467a.47.47 0 0 0 .452.376v-.012ZM139.694 63.707h.088a.457.457 0 0 0 .364-.538l-.465-2.468a.457.457 0 0 0-.539-.364.457.457 0 0 0-.364.539l.464 2.468a.47.47 0 0 0 .452.376v-.013Z"/><path fill="#0017BF" d="M146.659 56.905s-.979-2.205-3.602-2.43c-2.623-.227-4.304 1.502-4.304 1.502s.803 4.51-2.95 6.578c-3.765 2.067-6.476 1.19-6.476 1.19l-2.522-1.127-1.607-3.934 8.133-7.492 10.115-4.36 4.594 4.873-1.381 5.175v.025Z"/><path fill="#000" d="M141.275 72.903c.301 0 .502-.213.49-.463 0-.25-.201-.414-.465-.451-.1.025-2.158 0-2.886-1.93a.455.455 0 0 0-.59-.263.453.453 0 0 0-.264.59c.753 2.004 2.724 2.517 3.703 2.517h.012Z"/><path fill="#373178" d="M264.369 157.985h-96.261c-3.5 0-6.338-2.832-6.338-6.327v-80.71c0-3.494 2.838-6.327 6.338-6.327h96.261c3.501 0 6.338 2.833 6.338 6.327v80.71a6.332 6.332 0 0 1-6.338 6.327Z"/><path fill="#FFBB87" d="M151.981 109.824s13.19-6.979 17.194-7.58 10.843 3.796 10.843 3.796l-3.451 1.992s5.397 11.777 4.393 13.569c-1.004 1.791-3.602 0-3.602 0s-6.2 6.389-7.995 6.59c-1.794.2-11.396-3.596-11.396-3.596l-5.999-14.771h.013Z"/><path fill="#DC3C1E" d="m153.776 107.032-28.59 10.173 2.937-35.218s-21.926 6.678-27.712 29.23c-5.798 22.551 2.598 40.505 20.583 42.109 17.985 1.591 42.37-23.542 42.37-23.542l-9.588-22.752Z"/><path fill="#FFBB87" d="M205.633 56.103s-3.2-5.375-6.149-.877c-2.95 4.498-.427 17.327 1.97 17.916 2.573.639 4.179-4.26 4.179-4.26s.49 4.185 3.201 4.26c2.698.075 3.928-4.26 3.928-4.26s1.343 4.886 3.69 4.26c2.573-.702 3.928-17.04-.979-18.743-2.36-.815-3.69 1.704-3.69 1.704s-.916-3.107-3.614-2.706c-2.699.4-2.523 2.706-2.523 2.706h-.013Z"/><path fill="#fff" d="m176.567 108.033 9.551-5.851 2.447 4.874-9.902 5.888-2.096-4.911Z"/><path fill="#fff" d="M191.615 108.684c-2.046 0-4.468-.627-5.585-2.857-1.694-3.383.577-7.517.853-7.968l3.176 1.817c-.415.726-1.444 3.132-.753 4.51.489.977 2.648.902 3.564.714l.765 3.583a9.485 9.485 0 0 1-2.008.201h-.012Z"/><path fill="#000" d="M176.567 108.484a.459.459 0 0 0 .364-.726l-2.447-3.408a.458.458 0 0 0-.741.538l2.448 3.408a.446.446 0 0 0 .376.188ZM177.37 122.052a.416.416 0 0 0 .264-.088.457.457 0 0 0 .1-.639l-1.393-1.942a.476.476 0 0 0-.64-.112.457.457 0 0 0-.1.639l1.393 1.942a.447.447 0 0 0 .376.187v.013ZM205.634 68.767a.45.45 0 0 0 .452-.451V56.1a.45.45 0 0 0-.452-.45.45.45 0 0 0-.452.45v12.216c0 .25.201.451.452.451ZM212.763 69.344c.288-.025.476-.238.451-.489l-.979-12.779a.478.478 0 0 0-.489-.426.47.47 0 0 0-.427.489l.979 12.779a.454.454 0 0 0 .452.426h.013Z"/><path fill="#fff" d="M136.921 88.94h.201c1.97-.05 3.689-.84 5.12-2.343a.469.469 0 0 0-.012-.652c-.176-.175-.477-.162-.653.013-2.184 2.305-5.07 2.681-8.559 1.14-2.686-1.19-4.744-3.12-4.757-3.132a.47.47 0 0 0-.653.012.469.469 0 0 0 .013.652c.188.175 4.593 4.31 9.287 4.31h.013ZM118.258 118.156s.125 0 .175-.037c12.137-5.125 29.531-8.946 29.707-8.984a.455.455 0 1 0-.188-.889c-.176.038-17.658 3.871-29.87 9.033a.45.45 0 0 0-.238.601.45.45 0 0 0 .426.276h-.012Z"/><path fill="#fff" d="M124.458 114.31c1.82 0 3.577-.063 4.782-.126a.44.44 0 0 0 .426-.375.463.463 0 0 0-.263-.502c-.389-.175-9.425-4.159-12.563-1.603-.602.501-.602.939-.502 1.215.427 1.128 4.418 1.391 8.108 1.391h.012Zm2.598-.952c-4.694.125-9.325-.101-9.839-.752.025 0 .075-.088.213-.188 1.782-1.453 6.526-.188 9.626.94ZM173.706 65.087a.46.46 0 0 0 .439-.326c.314-1.04 1.795-6.302.577-7.655-.188-.213-.552-.439-1.104-.338a1.51 1.51 0 0 0-1.029.739c-1.092 1.842.502 6.728.677 7.28a.46.46 0 0 0 .44.312v-.012Zm.175-7.442c.101 0 .138.037.164.062.514.577.163 3.032-.352 5.212-.439-1.716-.853-4.046-.314-4.961a.559.559 0 0 1 .414-.3h.101l-.013-.013ZM140.246 148.237a.367.367 0 0 0 .201-.05c.126-.063 12.977-6.615 20.131-15.085a.455.455 0 0 0-.05-.639.457.457 0 0 0-.64.051c-7.029 8.319-19.717 14.783-19.843 14.859a.456.456 0 0 0-.2.614c.075.162.238.25.414.25h-.013ZM207.404 188.506a.45.45 0 0 0 .338-.752l-4.279-4.723a.472.472 0 0 0-.653-.038.455.455 0 0 0-.038.639l4.28 4.724c.088.1.214.15.339.15h.013Z"/><path fill="#fff" d="M203.124 188.506a.45.45 0 0 0 .339-.15l4.279-4.724a.453.453 0 0 0-.037-.639.46.46 0 0 0-.653.038l-4.28 4.723a.454.454 0 0 0 .038.639.47.47 0 0 0 .301.113h.013Z"/><path fill="#E64218" d="M234.412 252.614h69.403a4.784 4.784 0 0 0 4.782-4.774v-56.203a4.785 4.785 0 0 0-4.782-4.774h-69.403a4.785 4.785 0 0 0-4.782 4.774v56.203a4.784 4.784 0 0 0 4.782 4.774Zm69.403-64.849a3.864 3.864 0 0 1 3.866 3.859v56.204a3.864 3.864 0 0 1-3.866 3.859h-69.403a3.864 3.864 0 0 1-3.866-3.859v-56.204a3.864 3.864 0 0 1 3.866-3.859h69.403Z"/><path fill="#E64218" d="M230.082 199.855h78.063c.251 0 .452-.2.452-.463a.453.453 0 0 0-.452-.464h-78.063a.453.453 0 0 0-.452.464c0 .263.201.463.452.463ZM298.983 196.422c.126 0 .264-.05.352-.163l4.154-4.886a.455.455 0 0 0-.05-.639.456.456 0 0 0-.64.05l-4.155 4.886a.454.454 0 0 0 .051.639.45.45 0 0 0 .301.113h-.013Z"/><path fill="#E64218" d="M303.15 196.422c.1 0 .213-.038.301-.113a.454.454 0 0 0 .05-.639l-4.154-4.886a.456.456 0 0 0-.64-.05.455.455 0 0 0-.05.639l4.154 4.886a.428.428 0 0 0 .352.163h-.013Z"/><path fill="#1D4568" d="M478.83 323.565h-66.868c-6.169 0-11.17-4.992-11.17-11.151v-80.985c0-6.158 5.001-11.151 11.17-11.151h66.868c6.169 0 11.17 4.993 11.17 11.151v80.985c0 6.159-5.001 11.151-11.17 11.151Z"/><path fill="#40398D" d="M472.116 323.565h-66.869c-6.169 0-11.17-4.992-11.17-11.151v-80.985c0-6.158 5.001-11.151 11.17-11.151h66.869c6.168 0 11.169 4.993 11.169 11.151v80.985c0 6.159-5.001 11.151-11.169 11.151Z"/><path fill="#E64218" d="M329.029 203.891c.126 0 .239-.05.327-.138a.456.456 0 0 0 .138-.325V61.766a.45.45 0 0 0-.452-.451.45.45 0 0 0-.452.45v141.212l-111.861-.076v-81.248a.45.45 0 0 0-.452-.451.45.45 0 0 0-.452.451v81.699a.47.47 0 0 0 .452.464l112.777.075h-.025Z"/><path fill="#FFBB87" d="M348.055 98.764s-2.296 7.229 1.67 8.72c3.978 1.491 3.991-2.631 3.991-2.631l-2.46-5.174-3.201-.902v-.013Z"/><path fill="#FFBB87" d="M366.379 113.134s-5.196-13.368-9.927-15.698c-4.732-2.33-13.73-2.042-15.111.413-1.368 2.444 2.749 2.494 3.815 2.243 1.067-.25 4.28.451 5.033 1.541.766 1.09 1.067 5.676 1.067 5.676s-3.514.714-5.033-.564c-1.519-1.278-3.05-3.583-4.116-1.892-1.067 1.679 3.2 10.524 6.262 12.955 3.05 2.443 10.831 5.487 10.831 5.487l7.179-10.161Z"/><path fill="#000" d="M351.268 107.76c.289-.025.477-.251.452-.502 0-.062-.15-1.578-.715-4.084-.628-2.756-3.125-3.283-3.238-3.308a.464.464 0 0 0-.54.364.46.46 0 0 0 .352.539c.088.012 2.033.451 2.522 2.618.553 2.443.691 3.947.703 3.959a.46.46 0 0 0 .452.414h.012Z"/><path fill="#373178" d="M320.783 88.251h16.491c.901 0 1.632.73 1.632 1.63v16.462c0 .899-.731 1.629-1.632 1.629h-16.491a1.63 1.63 0 0 1-1.631-1.629V89.88c0-.9.73-1.629 1.631-1.629ZM320.783 113.435h16.491a1.63 1.63 0 0 1 1.632 1.629v16.463a1.63 1.63 0 0 1-1.632 1.628h-16.491a1.63 1.63 0 0 1-1.631-1.628v-16.463c0-.9.73-1.629 1.631-1.629ZM320.783 138.616h16.491a1.63 1.63 0 0 1 1.632 1.628v16.463c0 .9-.731 1.629-1.632 1.629h-16.491a1.63 1.63 0 0 1-1.631-1.629v-16.463c0-.899.73-1.628 1.631-1.628Z"/><path fill="#fff" d="m337.111 109.261 9.237-7.78-2.372-2.794-6.538 5.525-5.322-5.788-2.698 2.481 7.693 8.356ZM329.242 130.661l7.581-6.439-2.372-2.782-4.619 3.922-5.949-7.893-2.937 2.205 8.296 10.987ZM329.242 155.856l7.581-6.44-2.372-2.781-4.619 3.921-5.949-7.906-2.937 2.205 8.296 11.001Z"/><path fill="#5EF939" d="M352.913 33h-48.382a3.585 3.585 0 0 0-3.589 3.583v26.611a3.585 3.585 0 0 0 3.589 3.583h48.382a3.585 3.585 0 0 0 3.589-3.583v-26.61A3.585 3.585 0 0 0 352.913 33Z"/><path fill="#40398D" d="M193.636 188.468v75.573c0 4.536 4.141 8.206 9.224 8.206h133.047c5.108 0 9.249-3.67 9.249-8.206v-75.573c0-4.535-4.141-8.206-9.249-8.206H202.86c-5.083 0-9.224 3.671-9.224 8.206Z"/><path fill="#5EF939" d="M249.036 201.998h31.99a1.274 1.274 0 1 1 0 2.548h-31.99a1.274 1.274 0 1 1 0-2.548Z"/><path fill="#FFB904" d="M216.765 215.119h56.615a1.274 1.274 0 1 1 0 2.548h-56.615a1.274 1.274 0 1 1 0-2.548Z"/><path fill="#5EF939" d="M280.989 215.119h23.147a1.274 1.274 0 1 1 0 2.548h-23.147a1.274 1.274 0 1 1 0-2.548Z"/><path fill="#FFB904" d="M216.765 252.055h56.615a1.274 1.274 0 1 1 0 2.549h-56.615a1.275 1.275 0 0 1 0-2.549Z"/><path fill="#5EF939" d="M280.989 252.055h43.836a1.274 1.274 0 1 1 0 2.549h-43.836a1.275 1.275 0 0 1 0-2.549ZM216.765 233.277h56.615a1.274 1.274 0 1 1 0 2.549h-56.615a1.275 1.275 0 0 1 0-2.549ZM280.989 233.277h23.147a1.274 1.274 0 1 1 0 2.549h-23.147a1.275 1.275 0 0 1 0-2.549Z"/><path fill="#FFB904" d="M286.229 226.747h-38.708a1.274 1.274 0 0 1 0-2.549h38.708a1.275 1.275 0 0 1 0 2.549Z"/><path fill="#5EF939" d="M239.913 226.747h-23.148a1.275 1.275 0 1 1 0-2.549h23.148a1.275 1.275 0 0 1 0 2.549Z"/><path fill="#FFB904" d="M286.229 244.905h-38.708a1.274 1.274 0 0 1 0-2.549h38.708a1.275 1.275 0 1 1 0 2.549Z"/><path fill="#5EF939" d="M239.913 244.905h-23.148a1.275 1.275 0 0 1 0-2.549h23.148a1.275 1.275 0 0 1 0 2.549Z"/><path fill="#3DF130" d="m216.165 198.924 4.843-2.148v1.377l-3.291 1.333v.058l3.291 1.333v1.377l-4.843-2.138v-1.192Zm9.021 4.483h-1.24l2.275-8.467h1.25l-2.285 8.467Zm5.223-1.153v-1.377l3.291-1.333v-.058l-3.291-1.333v-1.377l4.843 2.148v1.192l-4.843 2.138Z"/><path fill="#FFB904" d="M288.635 201.998h36.19a1.274 1.274 0 1 1 0 2.548h-36.19a1.274 1.274 0 1 1 0-2.548Z"/><path fill="#fff" d="M440.552 84.956s13.542-3.633 23.607 8.682c10.078 12.316 3.815 27.476-12.149 27.037-15.951-.438-19.666-16.713-19.666-16.713l8.195-18.994.013-.012Z"/><path fill="#0017BF" d="M420.22 95.093s-3.853-4.084-2.886-10.549c.652-4.385 2.572-5.838 2.572-5.838s-3.087-5.901 5.761-5.713c8.835.188 16.077-.564 20.018 7.028 2.322 4.473 1.393 14.183 1.393 14.183l-26.858.89Z"/><path fill="#FFBB87" d="m439.748 101.982-.062 10.762s-1.958 3.082-8.271 3.558c-4.706.351-6.175-2.067-6.175-2.067l1.193-9.409 11.408-2.431 1.907-.413Z"/><path fill="#000" d="M439.736 101.333c-.025.288-.138.638-.314 1.039-2.447 5.363-10.956 7.555-13.667 7.781l.677-5.312 13.304-3.508Z"/><path fill="#FFBB87" d="M424.161 80.271s-5.736 13.469-3.552 20.973c2.184 7.518 9.049 6.265 13.153 4.761 4.104-1.491 5.986-4.034 5.986-4.034s3.853 1.266 6.388-2.33c2.536-3.596.917-7.668-1.292-8.595-2.209-.915-4.794.69-4.794.69l2.008-3.922s-8.798-19.72-17.897-7.568v.025Z"/><path fill="#0017BF" d="M440.05 91.76s-5.748 1.279-9.89-5.061c-4.141-6.34-3.815-8.983-3.815-8.983l-3.866 6.703s-.979-4.573.804-7.543c1.782-2.969 3.702-2.392 3.702-2.392l12.801 2.931 3.552 10.123-3.276 4.223h-.012Z"/><path fill="#000" d="M425.554 97.336s.1 0 .138-.025a.45.45 0 0 0 .289-.577c-.816-2.493.263-5.212.276-5.237a.456.456 0 0 0-.251-.601.458.458 0 0 0-.603.25c-.05.126-1.217 3.058-.301 5.864a.46.46 0 0 0 .439.313l.013.013ZM440.715 98.062c.125 0 .251-.05.338-.15l3.59-3.922a.457.457 0 0 0-.025-.652.46.46 0 0 0-.653.026l-3.589 3.921a.457.457 0 0 0 .025.651.497.497 0 0 0 .314.126Z"/><path fill="#000" d="M444.568 96.973a.448.448 0 0 0 .451-.401.453.453 0 0 0-.389-.514l-2.535-.338a.462.462 0 0 0-.514.388.453.453 0 0 0 .389.514l2.535.338h.063v.013ZM422.14 86.41h.088l2.322-.452a.457.457 0 0 0 .364-.539.468.468 0 0 0-.54-.363l-2.322.451a.457.457 0 0 0-.364.539.47.47 0 0 0 .452.376v-.013ZM431.001 86.948a.444.444 0 0 0 .426-.3.464.464 0 0 0-.263-.59l-2.41-.901a.466.466 0 0 0-.59.263.464.464 0 0 0 .264.588l2.409.903s.101.025.164.025v.012ZM423.433 91.91a.444.444 0 0 0 .439-.327l.703-2.43c.038-.15 0-.3-.088-.426l-.765-.89a.454.454 0 0 0-.691.589l.603.714-.628 2.205a.454.454 0 0 0 .314.564c.038 0 .088.013.126.013l-.013-.013ZM430.235 92.437a.455.455 0 0 0 .439-.325l.703-2.431a.473.473 0 0 0-.1-.426l-1.055-1.178a.47.47 0 0 0-.652-.037.469.469 0 0 0-.038.651l.879.99-.628 2.193a.453.453 0 0 0 .314.563c.038 0 .088.013.125.013l.013-.013ZM427.186 101.219c.113 0 .226 0 .338-.025 1.494-.251 2.322-2.055 2.36-2.13a.44.44 0 0 0-.063-.476.456.456 0 0 0-.452-.163l-4.116.902a.452.452 0 0 0-.339.313c-.05.163 0 .326.1.451.703.764 1.431 1.14 2.159 1.14l.013-.012Zm1.305-1.667c-.301.351-.678.664-1.117.74-.326.062-.665-.038-1.029-.276l2.146-.464Z"/><path fill="#E64218" d="M420.986 180.25s-41.617 2.342-52.436 10.712c-10.818 8.369-11.421 95.982-11.421 95.982l33.949 3.859.314-85.772 29.594-24.781Z"/><path fill="#0017BF" d="M442.51 113.359s-1.193-4.184-1.795-4.184c-.791 0-5.158 2.104-9.137 2.079-3.966-.025-4.656-1.265-5.836-1.102-1.18.163-1.619 3.207-1.619 3.207s-7.354 2.443-15.901 4.423c-8.547 1.979-21.976-.614-27.623-3.358-5.648-2.744-15.262-8.682-15.262-8.682l-9.927 26.047s20.143 25.746 38.617 25.897c18.475.15 40.751-3.508 40.751-3.508l7.719-40.831.013.012Z"/><path fill="#E64218" d="M470.861 181.592s3.05 32.75-1.82 35.832c-11.371 7.204-42.508 5.387-42.659 6.728-.15 1.34 3.489 61.039 3.489 61.039l-41.027 7.643s-15.073-87.137-6.539-101.194c8.522-14.058 58.799-12.73 58.799-12.73l29.744 2.682h.013Z"/><path fill="#FFB904" d="m390.99 173.935 22.792-2.267-8.597-36.96-22.792 2.268 8.597 36.959Z"/><path fill="#fff" d="m387.576 174.273 22.779-2.255-8.597-36.972-22.779 2.268 8.597 36.959Z"/><path fill="#0017BF" d="m417.183 151.146-.854 28.04s18.01 5.024 31.59 6.252c13.579 1.215 22.892 0 22.892 0v-10.813l-53.641-23.466.013-.013Z"/><path fill="#FFBB87" d="M420.12 154.791s-2.724-5.638-5.472-7.617c-2.749-1.98-6.941-1.967-6.941-1.967l.829 4.021s-6.388.84-7.468 0c-1.079-.839-5.66-4.497-6.877-4.184-1.218.301 1.368 4.184 1.368 4.184s-2.749-2.518-3.665-.989c-.916 1.528 2.598 7.617 2.598 7.617s-3.2-3.195-2.134 1.829c1.067 5.024 10.354 9.898 13.567 10.362 3.213.451 16.077.501 16.077.501l-1.895-13.757h.013Z"/><path fill="#000" d="M408.535 149.693h.088l3.364-.689a.45.45 0 0 0 .351-.539.45.45 0 0 0-.54-.351l-3.363.689a.448.448 0 0 0-.351.539c.05.213.238.363.451.363v-.012ZM405.184 154.954c.239 0 .44-.188.452-.439a.47.47 0 0 0-.439-.476c-.025 0-3.138-.163-4.857-1.015-1.732-.864-4.405-4.047-4.43-4.072a.446.446 0 0 0-.64-.05.467.467 0 0 0-.063.639c.113.138 2.836 3.358 4.719 4.31 1.895.952 5.083 1.103 5.221 1.115h.025l.012-.012ZM404.419 160.743a.45.45 0 0 0 .452-.451.452.452 0 0 0-.452-.464c-.025 0-2.585-.075-4.769-1.127-2.837-1.366-4.832-3.158-4.857-3.17a.473.473 0 0 0-.653.037.47.47 0 0 0 .038.652c.088.075 2.108 1.879 5.07 3.32 2.36 1.14 5.033 1.215 5.146 1.228l.025-.025Z"/><path fill="#DC3C1E" d="M334.438 42.261h11.421v11.401h-11.421v-11.4Z"/><path fill="#E64218" d="m319.29 38.176-3.552 6.151-3.552 6.152H326.406l-3.552-6.152-3.564-6.151Z"/><path fill="#fff" d="M329.167 61.579c-4.38 0-7.931-3.545-7.931-7.918s3.551-7.918 7.931-7.918c4.381 0 7.932 3.545 7.932 7.918s-3.551 7.918-7.932 7.918Z"/><path fill="#E64218" d="M213.804 140.521a2.435 2.435 0 0 0 4.87 0 2.435 2.435 0 0 0-4.87 0ZM216.239 174.275a2.432 2.432 0 0 1-2.435-2.43 2.433 2.433 0 0 1 2.435-2.431 2.433 2.433 0 0 1 2.435 2.431 2.433 2.433 0 0 1-2.435 2.43ZM326.595 169.301a2.434 2.434 0 0 0 4.869 0 2.435 2.435 0 0 0-4.869 0Z"/><path fill="#373178" d="M193.635 188.468v2.18h151.533v-2.18c0-4.535-4.141-8.206-9.249-8.206H202.872c-5.083 0-9.224 3.671-9.224 8.206h-.013Z"/><path fill="#fff" d="M387.69 283.662h.088a.456.456 0 0 0 .363-.539c-.125-.689-12.876-69.246-7.454-83.579 5.371-14.17 38.692-14.533 39.031-14.546a.46.46 0 0 0 .452-.401.464.464 0 0 0-.339-.501l-7.819-2.03a.46.46 0 0 0-.552.326.478.478 0 0 0 .326.564l4.77 1.24c-8.648.451-32.079 2.794-36.71 15.022-5.522 14.571 6.877 81.249 7.404 84.08a.47.47 0 0 0 .452.376l-.012-.012Z"/><path fill="#0017BF" d="M440.715 113.047s26.28.614 41.391 30.319c15.111 29.718-.765 44.953-26.406 41.596-25.64-3.358-38.529-11.427-38.529-11.427l2.936-25.195 20.608-35.293Z"/><path fill="#FFB904" d="M456.742 152.324c.2 0 .389-.125.439-.326a.454.454 0 0 0-.314-.564c-10.517-3.007-32.192-2.982-32.405-2.994-.251 0-.452.2-.452.464 0 .25.201.451.452.451.929 0 21.926.037 32.154 2.956.038 0 .088.013.126.013ZM434.415 116.454c4.179 0 8.17-2.606 8.346-2.718a.449.449 0 0 0 .125-.627.462.462 0 0 0-.64-.125c-.037.025-4.367 2.831-8.459 2.543-.251-.037-.477.176-.489.426a.461.461 0 0 0 .426.489c.226.012.452.025.678.025l.013-.013ZM395.057 127.578c.276 0 .539-.075.778-.238 2.045-1.29 2.648-8.168 2.711-8.945a.466.466 0 0 0-.289-.464.467.467 0 0 0-.527.138c-.49.614-4.757 6.102-4.117 8.419.126.464.44.802.891.978.189.075.364.1.54.1l.013.012Zm2.409-7.617c-.351 2.681-1.079 5.964-2.108 6.603a.509.509 0 0 1-.515.05.516.516 0 0 1-.339-.376c-.313-1.153 1.381-4.072 2.962-6.29v.013Z"/><path fill="#FFB904" d="M455.261 151.347c4.003 0 8.848-.313 9.538-1.804.151-.326.213-.865-.402-1.516-3.25-3.508-13.504 2.105-13.93 2.343a.47.47 0 0 0-.226.501c.037.2.213.338.426.351.979.05 2.699.125 4.594.125Zm5.886-3.571c1.092 0 2.008.251 2.585.877.113.125.314.363.239.514-.477 1.002-6.05 1.391-11.534 1.228 2.422-1.166 6.074-2.606 8.71-2.606v-.013Z"/><path fill="#fff" d="M426.395 224.601a.433.433 0 0 0 .313-.125.456.456 0 0 0 .101-.539c-.942-1.879-4.129-7.98-6.062-7.98-.339 0-.778.162-1.054.814-1.343 3.232 5.672 7.317 6.476 7.768.075.037.15.062.226.062Zm-5.636-7.73c.804 0 2.787 2.894 4.468 6.001-2.234-1.491-5.384-4.059-4.681-5.75.038-.101.113-.251.201-.251h.012Z"/><path fill="#FFB904" d="M443.3 180.714c.214 0 .414-.15.452-.376a.457.457 0 0 0-.364-.538c-.125-.026-13.228-2.519-23.432-8.482a.463.463 0 0 0-.627.162.465.465 0 0 0 .163.627c10.342 6.051 23.595 8.57 23.733 8.595h.088l-.013.012Z"/><path fill="#5EF939" d="M231.5 130.673h-30.51a4.577 4.577 0 0 1-4.581-4.573V95.643a4.577 4.577 0 0 1 4.581-4.573h30.51a4.577 4.577 0 0 1 4.581 4.573V126.1a4.577 4.577 0 0 1-4.581 4.573Z"/><path fill="#fff" d="m230.132 114.549-1.406 3.358 1.757 1.666a16.729 16.729 0 0 1-5.183 5.3l-1.958-1.854-3.338 1.415.113 2.656a17.042 17.042 0 0 1-3.866.452c-1.205 0-2.384-.126-3.526-.376v-2.857l-3.326-1.441-2.046 2.105a16.801 16.801 0 0 1-5.221-5.199l1.958-1.855-1.406-3.357-2.723-.025a16.768 16.768 0 0 1-.402-3.671c0-1.328.151-2.619.452-3.859l2.673-.025 1.406-3.358-1.87-1.779a16.766 16.766 0 0 1 5.258-5.15l1.921 1.98 3.326-1.44v-2.656a16.428 16.428 0 0 1 3.526-.376c1.331 0 2.623.15 3.866.45l-.101 2.456 3.339 1.416 1.832-1.742a16.868 16.868 0 0 1 5.234 5.25l-1.682 1.591 1.405 3.345 2.36.025a16.74 16.74 0 0 1 .05 7.518l-2.397.025-.025.012Zm-5.786-3.683c0-4.473-3.627-8.094-8.107-8.094-4.481 0-8.108 3.621-8.108 8.094 0 4.473 3.627 8.093 8.108 8.093 4.48 0 8.107-3.62 8.107-8.093Z"/></g></svg>