<svg width="320" height="215" viewBox="0 0 320 215" fill="none" xmlns="http://www.w3.org/2000/svg">
<path d="M32.0709 119.143L43.0126 130.014L54.0078 112.77L47.823 106.414L32.0709 119.143Z" fill="#FFBB87"/>
<path d="M37.8634 90.1482C36.7389 89.7571 31.9463 95.1437 31.3662 95.4282C30.7861 95.7126 32.1516 99.9526 30.8575 100.255C29.5634 100.557 27.2162 100.041 25.3331 100.504C23.566 100.93 3.61039 118.326 0.183311 122.192C-0.10228 122.521 -0.0487175 123.028 0.30827 123.312C1.09364 123.961 2.61977 125.126 4.44041 126.139C6.43062 127.241 8.78673 128.148 10.9554 127.997C16.0871 127.632 23.3965 122.948 27.1002 122.45C30.8129 121.952 36.7121 123.401 37.5064 121.472C38.3007 119.552 38.1401 113.997 42.3882 111.144C46.6364 108.29 49.2156 107.686 49.4566 105.864C49.6172 104.637 44.7622 98.0504 41.2548 93.8104C39.5769 91.7749 38.2114 90.2727 37.8545 90.1482H37.8634Z" fill="#E64218"/>
<path d="M37.8639 90.1482C36.7393 89.7571 31.9468 95.1437 31.3667 95.4282C30.7866 95.7126 32.152 99.9526 30.858 100.255C29.5639 100.557 27.2167 100.041 25.3336 100.504C23.5665 100.93 3.61086 118.326 0.183777 122.192C-0.10181 122.521 -0.0482521 123.028 0.308739 123.312C1.09411 123.961 2.62024 125.126 4.44088 126.139L41.2642 93.8104C39.5863 91.7749 38.2208 90.2727 37.8639 90.1482Z" fill="white"/>
<path d="M81.6123 180.254L79.3276 186.734L66.3689 190.867L60.1395 188.103L63.4594 173.25L81.6123 180.254Z" fill="#FFBB87"/>
<path d="M58.3364 77.8383C58.3364 77.8383 56.0071 89.4559 54.9093 99.3314C53.8116 109.207 52.0356 122.469 52.0356 122.469C52.0356 122.469 43.8963 152.86 63.4503 155.544C87.6987 158.877 86.4671 130.238 86.4671 130.238L79.1756 70.3006L58.3364 77.8383Z" fill="#FFB904"/>
<path d="M31.705 124.103L51.7767 106.859L57.7562 115.25L59.3716 154.485C59.3716 154.485 50.6343 153.312 31.705 124.103Z" fill="#FFB904"/>
<path d="M97.1152 75.1169C97.1152 75.1169 105.21 107.25 102.648 130.939C100.087 154.636 88.2886 183.694 88.2886 183.694L56.8023 177.854L67.3245 142.734L74.9284 76.6902L97.1152 75.1169Z" fill="#FFB904"/>
<path d="M56.9979 206.84C57.569 207.872 64.7534 207.072 65.3782 207.249C66.0029 207.427 67.8414 203.365 69.0016 203.996C70.1707 204.636 71.563 206.583 73.2765 207.498C74.874 208.36 101.398 208.734 106.539 208.147C106.976 208.094 107.271 207.685 107.199 207.232C107.048 206.227 106.7 204.343 106.021 202.378C105.289 200.236 104.138 197.996 102.425 196.654C98.3728 193.507 89.7872 192.121 86.6993 190.014C83.6024 187.907 80.1932 182.894 78.3101 183.801C76.4269 184.698 72.8214 188.93 67.7432 188.218C62.674 187.507 60.3446 186.236 58.9434 187.436C57.9974 188.245 57.1853 196.369 56.9443 201.854C56.8194 204.485 56.8194 206.512 57.0068 206.84H56.9979Z" fill="#E64218"/>
<path d="M65.2361 155.96C68.8328 155.96 76.9899 155.009 82.9338 147.196C93.1972 133.703 87.1373 97.4363 86.3876 93.1874L96.7225 92.3519C96.9009 92.3341 97.0348 92.183 97.017 92.0052C96.9991 91.8275 96.8474 91.6852 96.6689 91.7119L85.9771 92.5741C85.8879 92.5741 85.7986 92.6275 85.7451 92.6986C85.6915 92.7697 85.6648 92.8675 85.6826 92.9563C85.754 93.3563 92.9205 133 82.4162 146.805C74.8391 156.76 63.6118 155.24 63.5047 155.222C63.3262 155.196 63.1656 155.32 63.1388 155.498C63.112 155.676 63.237 155.836 63.4155 155.862C63.4422 155.862 64.1205 155.96 65.245 155.96H65.2361Z" fill="#E64218"/>
<path d="M60.0413 120.859C60.309 120.859 60.5589 120.779 60.791 120.61C61.139 120.352 61.3265 119.987 61.3622 119.525C61.5496 116.556 54.2938 109.694 53.9903 109.401C53.8832 109.294 53.7137 109.285 53.5887 109.365C53.4638 109.445 53.4102 109.605 53.4549 109.739C53.8118 110.779 57.0069 119.97 59.6397 120.796C59.7735 120.841 59.9164 120.859 60.0502 120.859H60.0413ZM54.5437 110.85C56.9266 113.241 60.8267 117.579 60.7106 119.481C60.6928 119.747 60.5946 119.943 60.4072 120.076C60.2287 120.21 60.0502 120.236 59.836 120.165C58.1403 119.632 55.7574 114.103 54.5437 110.841V110.85Z" fill="#E64218"/>
<path d="M60.0861 90.9928C60.1307 90.9928 60.1843 90.984 60.2289 90.9573C64.5931 88.8329 67.3954 83.5529 67.5114 83.3307C67.5918 83.1707 67.5293 82.9751 67.3686 82.8951C67.208 82.8152 67.0117 82.8774 66.9313 83.0285C66.9046 83.0818 64.1111 88.344 59.9344 90.3706C59.7737 90.4506 59.7023 90.6462 59.7826 90.8062C59.8362 90.9217 59.9522 90.9928 60.0772 90.9928H60.0861Z" fill="#E64218"/>
<path d="M56.9979 206.841C57.569 207.872 64.7534 207.072 65.3782 207.25C66.0029 207.428 67.8414 203.365 69.0016 203.996C70.1707 204.636 71.563 206.583 73.2765 207.499C74.874 208.361 101.398 208.734 106.539 208.148C106.976 208.094 107.271 207.685 107.199 207.232C107.048 206.228 106.7 204.343 106.021 202.379L56.9443 201.854C56.8194 204.485 56.8194 206.512 57.0068 206.841H56.9979Z" fill="white"/>
<path d="M64.4325 34.3984C64.4325 34.3984 49.7782 37.5362 44.8785 53.2516C39.9788 68.967 59.756 85.5268 59.756 85.5268L97.1147 75.118C97.1147 75.118 92.6346 34.7718 88.1633 30.7363C83.6831 26.7007 64.4325 34.3896 64.4325 34.3896V34.3984Z" fill="#DC3C1E"/>
<path d="M75.642 25.6958C75.642 25.6958 77.6411 10.6382 97.1148 6.9582C116.588 3.27824 128.244 27.358 128.244 27.358L70.894 37.8201L75.642 25.6958Z" fill="#DC3C1E"/>
<path d="M74.2225 19.1098C74.2225 19.1098 80.452 14.8076 78.0244 10.7277C75.6058 6.64773 69.5727 10.221 69.5727 10.221C69.5727 10.221 67.4844 7.82995 64.1822 9.42104C60.8801 11.0121 60.2197 15.4032 60.2197 15.4032C60.2197 15.4032 56.9889 15.1099 56.5338 19.0209C56.0786 22.932 60.0769 26.7097 60.0769 26.7097L74.2225 19.1009V19.1098Z" fill="#0017BF"/>
<path d="M63.1295 29.0913L62.5404 36.5579C62.5404 36.5579 63.7274 38.8067 68.0827 39.509C71.3313 40.0245 72.4736 37.9623 72.4736 37.9623L72.3755 35.5623L72.2148 31.8379L64.4325 29.4824L63.1295 29.0824V29.0913Z" fill="#FFBB87"/>
<path d="M64.432 29.4829C64.432 29.6874 64.4945 29.9362 64.5927 30.2207C65.976 34.0784 70.5008 35.2428 72.375 35.5628L72.2143 31.8384L64.432 29.4829Z" fill="black"/>
<path d="M75.2221 14.9495C75.2221 14.9495 78.4171 24.6205 76.4626 29.696C74.5081 34.7715 69.8048 33.5093 67.0471 32.2293C64.2893 30.9494 63.1291 29.0827 63.1291 29.0827C63.1291 29.0827 60.3803 29.7316 58.8274 27.1005C57.2745 24.4605 58.64 21.7317 60.2286 21.2161C61.8172 20.7095 63.5218 21.9717 63.5218 21.9717L62.3527 19.1361C62.3527 19.1361 69.6174 5.98073 75.231 14.9317L75.2221 14.9495Z" fill="#FFBB87"/>
<path d="M62.9417 26.0149C63.031 26.0149 63.1292 25.9793 63.1916 25.8993C63.3076 25.766 63.2898 25.5615 63.1559 25.446L59.9698 22.7616C59.836 22.646 59.6307 22.6638 59.5147 22.7971C59.3986 22.9304 59.4165 23.1349 59.5504 23.2504L62.7365 25.9349C62.7989 25.9882 62.8703 26.0149 62.9507 26.0149H62.9417Z" fill="black"/>
<path d="M59.8631 25.7316C59.8631 25.7316 59.8988 25.7316 59.9166 25.7316L62.1835 25.3316C62.362 25.3049 62.478 25.1361 62.4512 24.9583C62.4155 24.7805 62.2549 24.665 62.0764 24.6916L59.8095 25.0916C59.631 25.1183 59.515 25.2872 59.5418 25.4649C59.5686 25.6249 59.7113 25.7316 59.8631 25.7316Z" fill="black"/>
<path d="M68.6627 18.4251C68.7519 18.4251 68.8412 18.3895 68.9036 18.3184C69.9478 17.1629 71.0634 17.8651 71.108 17.8918C71.2598 17.9896 71.4561 17.9451 71.5543 17.794C71.6524 17.6429 71.6078 17.4384 71.4561 17.3496C70.9028 16.994 69.5462 16.6385 68.4128 17.8829C68.2878 18.0162 68.3057 18.2207 68.4396 18.3451C68.502 18.3984 68.5823 18.4251 68.6537 18.4251H68.6627Z" fill="black"/>
<path d="M75.9633 18.6376C76.0525 18.6376 76.1329 18.602 76.1954 18.5398C76.3203 18.4153 76.3203 18.202 76.1954 18.0776C75.1333 17.0553 73.9017 17.642 73.8482 17.6687C73.6875 17.7487 73.6161 17.9442 73.6964 18.1042C73.7767 18.2642 73.9731 18.3264 74.1337 18.2553C74.1784 18.2376 75.0262 17.8553 75.7402 18.5487C75.8027 18.6109 75.883 18.6376 75.9633 18.6376Z" fill="black"/>
<path d="M73.9017 26.433C74.0356 26.433 74.1516 26.353 74.2051 26.2285C75.3653 23.2419 73.4912 21.3308 73.4108 21.2508C73.2859 21.1264 73.0806 21.1264 72.9557 21.2508C72.8307 21.3752 72.8307 21.5797 72.9557 21.713C73.0271 21.7841 74.5978 23.4108 73.5982 25.9974C73.5358 26.1663 73.6161 26.353 73.7857 26.4152C73.8214 26.433 73.866 26.433 73.9017 26.433Z" fill="black"/>
<path d="M75.6415 22.2201C75.6415 22.2201 75.6861 22.2201 75.704 22.2201C75.8825 22.1846 75.9985 22.0157 75.9628 21.8379L75.6326 20.0868C75.5969 19.9091 75.4273 19.7935 75.2488 19.8291C75.0703 19.8646 74.9543 20.0335 74.99 20.2113L75.3202 21.9624C75.347 22.1135 75.4898 22.229 75.6415 22.229V22.2201Z" fill="black"/>
<path d="M70.8939 21.9454C70.8939 21.9454 70.9386 21.9454 70.9564 21.9454C71.1349 21.9098 71.2509 21.7409 71.2152 21.5631L70.885 19.8121C70.8493 19.6343 70.6798 19.5187 70.5013 19.5543C70.3228 19.5898 70.2067 19.7587 70.2424 19.9365L70.5726 21.6876C70.5994 21.8387 70.7422 21.9543 70.8939 21.9543V21.9454Z" fill="black"/>
<path d="M75.8474 17.1183C75.8474 17.1183 75.1513 15.5538 73.286 15.3938C71.4207 15.2338 70.2248 16.4605 70.2248 16.4605C70.2248 16.4605 70.796 19.6605 68.1275 21.1271C65.4501 22.5938 63.5224 21.9716 63.5224 21.9716L61.7285 21.1716L60.5861 18.3805L66.3694 13.065L73.5627 9.97168L76.8291 13.4294L75.8474 17.1005V17.1183Z" fill="#0017BF"/>
<path d="M72.0183 28.4694C72.2324 28.4694 72.3752 28.3183 72.3663 28.1405C72.3663 27.9627 72.2235 27.8472 72.0361 27.8205C71.9647 27.8383 70.501 27.8205 69.9834 26.4516C69.9209 26.2827 69.7335 26.2027 69.564 26.265C69.3944 26.3272 69.3141 26.5139 69.3765 26.6827C69.912 28.105 71.3132 28.4694 72.0093 28.4694H72.0183Z" fill="black"/>
<path d="M159.551 88.8328L91.0988 88.8328C88.6096 88.8328 86.5918 86.823 86.5918 84.3439L86.5918 27.0823C86.5918 24.6032 88.6096 22.5935 91.0988 22.5935L159.551 22.5935C162.04 22.5935 164.058 24.6032 164.058 27.0823V84.3439C164.058 86.823 162.04 88.8328 159.551 88.8328Z" fill="#373178"/>
<path d="M79.631 54.6637C79.631 54.6637 89.0108 49.7126 91.8578 49.2859C94.7048 48.8593 99.5687 51.9792 99.5687 51.9792L97.1145 53.3926C97.1145 53.3926 100.952 61.748 100.238 63.0191C99.5241 64.2902 97.6767 63.0191 97.6767 63.0191C97.6767 63.0191 93.2679 67.5524 91.9917 67.6946C90.7155 67.8368 83.8881 65.1435 83.8881 65.1435L79.6221 54.6637H79.631Z" fill="#FFBB87"/>
<path d="M80.9071 52.6827L60.5767 59.9004L62.665 34.914C62.665 34.914 47.0736 39.6517 42.9593 55.6516C38.8361 71.6514 44.8067 84.389 57.5958 85.5268C70.3849 86.6557 87.7256 68.8247 87.7256 68.8247L80.9071 52.6827Z" fill="#DC3C1E"/>
<path d="M117.784 16.5494C117.784 16.5494 115.508 12.7361 113.411 15.9272C111.314 19.1183 113.108 28.2204 114.812 28.6382C116.642 29.0915 117.784 25.616 117.784 25.616C117.784 25.616 118.132 28.5849 120.06 28.6382C121.979 28.6915 122.853 25.616 122.853 25.616C122.853 25.616 123.808 29.0826 125.477 28.6382C127.307 28.1404 128.271 16.5494 124.781 15.3406C123.103 14.7628 122.157 16.5494 122.157 16.5494C122.157 16.5494 121.506 14.345 119.587 14.6295C117.668 14.9139 117.793 16.5494 117.793 16.5494H117.784Z" fill="#FFBB87"/>
<path d="M97.1149 53.3935L103.907 49.2424L105.647 52.7002L98.6054 56.8779L97.1149 53.3935Z" fill="white"/>
<path d="M107.816 53.8546C106.361 53.8546 104.638 53.4102 103.844 51.828C102.639 49.428 104.255 46.4947 104.451 46.1747L106.709 47.4636C106.414 47.9791 105.683 49.6858 106.173 50.6635C106.521 51.3568 108.057 51.3035 108.708 51.1702L109.252 53.7124C108.851 53.8013 108.351 53.8546 107.824 53.8546H107.816Z" fill="white"/>
<path d="M97.1145 53.7128C97.1769 53.7128 97.2483 53.695 97.3019 53.6506C97.4447 53.5439 97.4804 53.3395 97.3733 53.1972L95.633 50.7795C95.5259 50.6373 95.3295 50.6017 95.1778 50.7084C95.035 50.815 94.9993 51.0195 95.1064 51.1617L96.8467 53.5795C96.9092 53.6684 97.0074 53.7128 97.1145 53.7128Z" fill="black"/>
<path d="M97.6862 63.339C97.7487 63.339 97.8201 63.3212 97.8737 63.2768C98.0165 63.1701 98.0522 62.9745 97.9451 62.8234L96.9544 61.4457C96.8473 61.3034 96.6421 61.2679 96.4993 61.3657C96.3565 61.4723 96.3208 61.6679 96.4279 61.819L97.4185 63.1967C97.481 63.2856 97.5791 63.3301 97.6862 63.3301V63.339Z" fill="black"/>
<path d="M117.785 25.535C117.963 25.535 118.106 25.3927 118.106 25.215V16.5484C118.106 16.3706 117.963 16.2284 117.785 16.2284C117.606 16.2284 117.463 16.3706 117.463 16.5484V25.215C117.463 25.3927 117.606 25.535 117.785 25.535Z" fill="black"/>
<path d="M122.853 25.9443C123.059 25.9265 123.193 25.7754 123.175 25.5976L122.479 16.531C122.461 16.3533 122.3 16.2199 122.13 16.2288C121.952 16.2466 121.818 16.3977 121.827 16.5755L122.523 25.642C122.532 25.8109 122.675 25.9443 122.844 25.9443H122.853Z" fill="black"/>
<path d="M68.922 39.8465C68.9666 39.8465 69.0201 39.8465 69.0648 39.8465C70.4659 39.8109 71.6886 39.251 72.706 38.1843C72.831 38.051 72.8221 37.8465 72.6971 37.7221C72.5722 37.5976 72.358 37.6065 72.233 37.731C70.6801 39.3665 68.6275 39.6332 66.1464 38.5398C64.2365 37.6954 62.7728 36.3265 62.7639 36.3176C62.63 36.1932 62.4248 36.2021 62.2998 36.3265C62.1749 36.4599 62.1838 36.6643 62.3088 36.7888C62.4426 36.9132 65.5752 39.8465 68.9131 39.8465H68.922Z" fill="white"/>
<path d="M55.6508 60.5752C55.6508 60.5752 55.74 60.5752 55.7757 60.5485C64.4059 56.913 76.7755 54.2019 76.9005 54.1753C77.079 54.1397 77.1861 53.9619 77.1504 53.7931C77.1147 53.6153 76.9362 53.5086 76.7666 53.5442C76.6417 53.5708 64.2096 56.2908 55.5258 59.953C55.3563 60.0241 55.2849 60.2108 55.3563 60.3796C55.4098 60.5041 55.5258 60.5752 55.6597 60.5752H55.6508Z" fill="white"/>
<path d="M60.0592 57.8458C61.3532 57.8458 62.6027 57.8014 63.4595 57.7569C63.6112 57.7569 63.7362 57.6413 63.7629 57.4902C63.7897 57.3391 63.7094 57.1969 63.5755 57.1347C63.2988 57.0103 56.8731 54.1836 54.6419 55.9969C54.2135 56.3525 54.2135 56.6636 54.2849 56.8591C54.5883 57.6591 57.4264 57.8458 60.0503 57.8458H60.0592ZM61.9066 57.1702C58.5687 57.2591 55.2755 57.0991 54.9096 56.6369C54.9275 56.6369 54.9632 56.5747 55.0614 56.5036C56.3287 55.4725 59.7022 56.3703 61.9066 57.1702Z" fill="white"/>
<path d="M95.08 22.9232C95.2317 22.9232 95.3478 22.8255 95.3924 22.6921C95.6155 21.9544 96.6686 18.2211 95.8029 17.2611C95.669 17.11 95.4102 16.95 95.0175 17.0211C94.7052 17.0833 94.4553 17.2611 94.2857 17.5455C93.5093 18.8522 94.6427 22.3188 94.7677 22.7099C94.8123 22.8432 94.9372 22.9321 95.08 22.9321V22.9232ZM95.205 17.6433C95.2764 17.6433 95.3031 17.67 95.321 17.6877C95.6869 18.0966 95.437 19.8388 95.0711 21.3855C94.7587 20.1677 94.4642 18.5144 94.848 17.8655C94.9194 17.7411 95.0175 17.67 95.1425 17.6522C95.1693 17.6522 95.1871 17.6522 95.2139 17.6522L95.205 17.6433Z" fill="white"/>
<path d="M71.2864 81.9164C71.3399 81.9164 71.3845 81.9075 71.4291 81.8809C71.5184 81.8364 80.6573 77.1876 85.7443 71.1788C85.8604 71.0454 85.8425 70.841 85.7087 70.7254C85.5748 70.6099 85.3695 70.6277 85.2535 70.761C80.2557 76.6631 71.2328 81.2498 71.1436 81.3031C70.9829 81.3831 70.9204 81.5786 71.0008 81.7386C71.0543 81.8542 71.1703 81.9164 71.2953 81.9164H71.2864Z" fill="white"/>
<path d="M119.043 110.486C119.123 110.486 119.195 110.459 119.257 110.406C119.391 110.29 119.4 110.077 119.284 109.953L116.241 106.601C116.116 106.468 115.91 106.459 115.777 106.575C115.643 106.69 115.634 106.904 115.75 107.028L118.793 110.379C118.856 110.45 118.945 110.486 119.034 110.486H119.043Z" fill="white"/>
<path d="M116 110.486C116.089 110.486 116.178 110.45 116.241 110.379L119.284 107.028C119.4 106.895 119.391 106.691 119.257 106.575C119.123 106.451 118.918 106.468 118.793 106.602L115.75 109.953C115.634 110.086 115.643 110.29 115.777 110.406C115.839 110.459 115.919 110.486 115.991 110.486H116Z" fill="white"/>
<path d="M138.249 155.97H187.602C189.476 155.97 191.002 154.45 191.002 152.583V112.708C191.002 110.841 189.476 109.321 187.602 109.321H138.249C136.374 109.321 134.848 110.841 134.848 112.708V152.583C134.848 154.45 136.374 155.97 138.249 155.97ZM187.602 109.961C189.119 109.961 190.351 111.188 190.351 112.699V152.574C190.351 154.085 189.119 155.312 187.602 155.312H138.249C136.731 155.312 135.5 154.085 135.5 152.574V112.699C135.5 111.188 136.731 109.961 138.249 109.961H187.602Z" fill="#E64218"/>
<path d="M135.17 118.538H190.681C190.86 118.538 191.002 118.396 191.002 118.209C191.002 118.023 190.86 117.88 190.681 117.88H135.17C134.991 117.88 134.848 118.023 134.848 118.209C134.848 118.396 134.991 118.538 135.17 118.538Z" fill="#E64218"/>
<path d="M184.166 116.102C184.256 116.102 184.354 116.067 184.416 115.987L187.37 112.52C187.486 112.387 187.469 112.183 187.335 112.067C187.201 111.951 186.995 111.969 186.879 112.103L183.925 115.569C183.809 115.702 183.827 115.907 183.961 116.022C184.024 116.076 184.095 116.102 184.175 116.102H184.166Z" fill="#E64218"/>
<path d="M187.13 116.102C187.201 116.102 187.281 116.076 187.344 116.022C187.478 115.907 187.496 115.702 187.38 115.569L184.426 112.103C184.31 111.969 184.104 111.951 183.97 112.067C183.837 112.183 183.819 112.387 183.935 112.52L186.889 115.987C186.951 116.067 187.04 116.102 187.139 116.102H187.13Z" fill="#E64218"/>
<path d="M312.057 206.307H264.506C260.12 206.307 256.563 202.765 256.563 198.396V140.939C256.563 136.57 260.12 133.028 264.506 133.028H312.057C316.444 133.028 320 136.57 320 140.939V198.396C320 202.765 316.444 206.307 312.057 206.307Z" fill="#1D4568"/>
<path d="M307.282 206.307H259.732C255.345 206.307 251.789 202.765 251.789 198.396V140.939C251.789 136.57 255.345 133.028 259.732 133.028H307.282C311.669 133.028 315.225 136.57 315.225 140.939V198.396C315.225 202.765 311.669 206.307 307.282 206.307Z" fill="#40398D"/>
<path d="M205.532 121.401C205.621 121.401 205.701 121.366 205.764 121.304C205.826 121.241 205.862 121.161 205.862 121.073V20.567C205.862 20.3892 205.719 20.247 205.541 20.247C205.362 20.247 205.219 20.3892 205.219 20.567V120.753L125.673 120.699V63.0554C125.673 62.8777 125.531 62.7354 125.352 62.7354C125.174 62.7354 125.031 62.8777 125.031 63.0554V121.019C125.031 121.197 125.174 121.339 125.352 121.348L205.549 121.401H205.532Z" fill="#E64218"/>
<path d="M246.05 179.598L242.248 192.424L226.157 189.687L229.834 177.722L246.05 179.598Z" fill="#FFBB87"/>
<path d="M271.146 177.268L272.896 191.926L256.804 195.001L255.305 181.277L271.146 177.268Z" fill="#FFBB87"/>
<path d="M219.062 46.8169C219.062 46.8169 217.429 51.9457 220.249 53.0035C223.078 54.0613 223.087 51.1368 223.087 51.1368L221.338 47.4658L219.062 46.8258V46.8169Z" fill="#FFBB87"/>
<path d="M232.092 57.0117C232.092 57.0117 228.397 47.5274 225.032 45.8741C221.668 44.2208 215.269 44.4252 214.287 46.1674C213.314 47.9007 216.242 47.9363 217 47.7585C217.759 47.5807 220.043 48.0785 220.579 48.8518C221.123 49.6252 221.338 52.8785 221.338 52.8785C221.338 52.8785 218.839 53.3851 217.759 52.4785C216.679 51.5718 215.59 49.9363 214.831 51.1363C214.073 52.3273 217.107 58.6028 219.285 60.3273C221.454 62.0606 226.987 64.2206 226.987 64.2206L232.092 57.0117Z" fill="#FFBB87"/>
<path d="M221.347 53.1984C221.552 53.1806 221.686 53.0206 221.668 52.8428C221.668 52.7984 221.561 51.7228 221.159 49.945C220.713 47.9895 218.937 47.6162 218.857 47.5984C218.687 47.5629 218.508 47.6784 218.473 47.8562C218.437 48.034 218.553 48.2028 218.723 48.2384C218.785 48.2473 220.168 48.5584 220.517 50.0962C220.909 51.8295 221.007 52.8961 221.016 52.905C221.034 53.0739 221.177 53.1984 221.338 53.1984H221.347Z" fill="black"/>
<path d="M199.668 39.358H211.395C212.036 39.358 212.555 39.8753 212.555 40.5135V52.1934C212.555 52.8316 212.036 53.3489 211.395 53.3489H199.668C199.027 53.3489 198.508 52.8316 198.508 52.1934V40.5135C198.508 39.8753 199.027 39.358 199.668 39.358Z" fill="#373178"/>
<path d="M199.668 57.2252H211.395C212.036 57.2252 212.555 57.7426 212.555 58.3808V70.0606C212.555 70.6988 212.036 71.2162 211.395 71.2162H199.668C199.027 71.2162 198.508 70.6988 198.508 70.0606V58.3808C198.508 57.7426 199.027 57.2252 199.668 57.2252Z" fill="#373178"/>
<path d="M199.668 75.0911H211.395C212.036 75.0911 212.555 75.6084 212.555 76.2466V87.9265C212.555 88.5647 212.036 89.082 211.395 89.082H199.668C199.027 89.082 198.508 88.5647 198.508 87.9265V76.2466C198.508 75.6084 199.027 75.0911 199.668 75.0911Z" fill="#373178"/>
<path d="M211.279 54.2645L217.848 48.7446L216.161 46.7623L211.511 50.6823L207.727 46.5757L205.808 48.3357L211.279 54.2645Z" fill="white"/>
<path d="M205.683 69.4472L211.074 64.8783L209.387 62.905L206.103 65.6872L201.872 60.0873L199.784 61.6517L205.683 69.4472Z" fill="white"/>
<path d="M205.683 87.3219L211.074 82.7531L209.387 80.7798L206.103 83.562L201.872 77.9531L199.784 79.5175L205.683 87.3219Z" fill="white"/>
<path d="M222.515 0.158936H188.111C186.701 0.158936 185.558 1.2967 185.558 2.70113V21.5809C185.558 22.9854 186.701 24.1231 188.111 24.1231H222.515C223.926 24.1231 225.068 22.9854 225.068 21.5809V2.70113C225.068 1.2967 223.926 0.158936 222.515 0.158936Z" fill="#5EF939"/>
<path d="M109.252 110.459V164.076C109.252 167.294 112.197 169.899 115.812 169.899H210.423C214.055 169.899 217 167.294 217 164.076V110.459C217 107.241 214.055 104.637 210.423 104.637H115.812C112.197 104.637 109.252 107.241 109.252 110.459Z" fill="#40398D"/>
<path d="M148.646 120.059H171.399C171.898 120.059 172.303 120.464 172.303 120.963C172.303 121.462 171.898 121.867 171.399 121.867H148.646C148.146 121.867 147.741 121.462 147.741 120.963C147.741 120.464 148.146 120.059 148.646 120.059Z" fill="#5EF939"/>
<path d="M125.698 129.367H165.962C166.461 129.367 166.866 129.772 166.866 130.271C166.866 130.771 166.461 131.175 165.962 131.175H125.698C125.198 131.175 124.794 130.771 124.794 130.271C124.794 129.772 125.198 129.367 125.698 129.367Z" fill="#FFB904"/>
<path d="M171.367 129.367H187.832C188.332 129.367 188.736 129.772 188.736 130.271C188.736 130.771 188.332 131.175 187.832 131.175H171.367C170.868 131.175 170.463 130.771 170.463 130.271C170.463 129.772 170.868 129.367 171.367 129.367Z" fill="#5EF939"/>
<path d="M125.698 155.573H165.962C166.461 155.573 166.866 155.977 166.866 156.477C166.866 156.976 166.461 157.381 165.962 157.381H125.698C125.198 157.381 124.794 156.976 124.794 156.477C124.794 155.977 125.198 155.573 125.698 155.573Z" fill="#FFB904"/>
<path d="M171.368 155.573H202.545C203.044 155.573 203.449 155.977 203.449 156.477C203.449 156.976 203.044 157.381 202.545 157.381H171.368C170.868 157.381 170.463 156.976 170.463 156.477C170.463 155.977 170.868 155.573 171.368 155.573Z" fill="#5EF939"/>
<path d="M125.698 142.25H165.962C166.461 142.25 166.866 142.655 166.866 143.154C166.866 143.654 166.461 144.059 165.962 144.059H125.698C125.198 144.059 124.794 143.654 124.794 143.154C124.794 142.655 125.198 142.25 125.698 142.25Z" fill="#5EF939"/>
<path d="M171.367 142.25H187.832C188.332 142.25 188.736 142.655 188.736 143.154C188.736 143.654 188.332 144.059 187.832 144.059H171.367C170.868 144.059 170.463 143.654 170.463 143.154C170.463 142.655 170.868 142.25 171.367 142.25Z" fill="#5EF939"/>
<path d="M175.099 137.617L147.569 137.617C147.069 137.617 146.665 137.212 146.665 136.713C146.665 136.214 147.069 135.809 147.569 135.809L175.099 135.809C175.598 135.809 176.003 136.214 176.003 136.713C176.003 137.212 175.598 137.617 175.099 137.617Z" fill="#FFB904"/>
<path d="M142.162 137.617L125.698 137.617C125.198 137.617 124.793 137.212 124.793 136.713C124.793 136.214 125.198 135.809 125.698 135.809L142.162 135.809C142.662 135.809 143.066 136.214 143.066 136.713C143.066 137.212 142.662 137.617 142.162 137.617Z" fill="#5EF939"/>
<path d="M175.099 150.5L147.569 150.5C147.069 150.5 146.665 150.095 146.665 149.596C146.665 149.096 147.069 148.692 147.569 148.692L175.099 148.692C175.598 148.692 176.003 149.096 176.003 149.596C176.003 150.095 175.598 150.5 175.099 150.5Z" fill="#FFB904"/>
<path d="M142.162 150.5L125.698 150.5C125.198 150.5 124.793 150.095 124.793 149.596C124.793 149.096 125.198 148.692 125.698 148.692L142.162 148.692C142.662 148.692 143.066 149.096 143.066 149.596C143.066 150.095 142.662 150.5 142.162 150.5Z" fill="#5EF939"/>
<path d="M125.518 122.434L130.362 124.573V123.196L127.071 121.863V121.804L130.362 120.471V119.094L125.518 121.243V122.434ZM136.825 117.258H135.575L133.299 125.725H134.54L136.825 117.258ZM130.362 144.434V143.243L125.518 141.094V142.471L128.809 143.804V143.863L125.518 145.196V146.573L130.362 144.434Z" fill="#3DF130"/>
<path d="M176.805 120.059H202.545C203.044 120.059 203.449 120.464 203.449 120.963C203.449 121.462 203.044 121.867 202.545 121.867H176.805C176.306 121.867 175.901 121.462 175.901 120.963C175.901 120.464 176.306 120.059 176.805 120.059Z" fill="#FFB904"/>
<path d="M240.731 204.566C241.91 204.638 242.954 203.713 243.088 202.46C243.641 197.518 245.497 186.496 244.596 186.398C243.445 186.273 231.485 188.131 231.485 188.131C231.485 188.131 231.923 181.242 226.996 181.936C223.221 182.469 218.473 186.353 216.465 188.131C215.832 188.7 215.064 189.056 214.243 189.162C210.727 189.633 200.999 191.384 200.303 196.398C199.446 202.531 202.007 202.104 203.159 202.229C204.149 202.335 232.672 204.069 240.731 204.558V204.566Z" fill="#FFB904"/>
<path d="M277.001 200.432C278.107 200.014 278.67 198.743 278.277 197.543C276.733 192.814 273.859 182.015 272.993 182.29C271.887 182.646 261.766 189.259 261.766 189.259C261.766 189.259 259.312 182.806 255.117 185.463C251.896 187.508 249.182 192.992 248.094 195.437C247.746 196.21 247.201 196.85 246.496 197.285C243.488 199.161 235.349 204.752 236.795 209.605C238.553 215.543 240.704 214.103 241.811 213.748C242.757 213.436 269.459 203.294 277.001 200.423V200.432Z" fill="#FFB904"/>
<path d="M284.838 37.0206C284.838 37.0206 294.467 34.4429 301.625 43.1805C308.791 51.9182 304.338 62.6737 292.986 62.3626C281.643 62.0514 279.001 50.5049 279.001 50.5049L284.829 37.0295L284.838 37.0206Z" fill="white"/>
<path d="M270.379 44.2126C270.379 44.2126 267.639 41.3149 268.326 36.7282C268.79 33.6172 270.155 32.5861 270.155 32.5861C270.155 32.5861 267.96 28.3994 274.252 28.5328C280.535 28.6661 285.684 28.1328 288.487 33.5194C290.138 36.6927 289.477 43.5815 289.477 43.5815L270.379 44.2126Z" fill="#0017BF"/>
<path d="M284.266 49.1002L284.221 56.7356C284.221 56.7356 282.829 58.9223 278.34 59.2601C274.993 59.5089 273.949 57.7934 273.949 57.7934L274.797 51.1179L282.909 49.3935L284.266 49.1002Z" fill="#FFBB87"/>
<path d="M284.257 48.6391C284.239 48.8435 284.159 49.0924 284.034 49.3769C282.294 53.1813 276.243 54.7368 274.315 54.8968L274.797 51.128L284.257 48.6391Z" fill="black"/>
<path d="M273.181 33.6968C273.181 33.6968 269.103 43.2522 270.656 48.5766C272.208 53.9099 277.09 53.021 280.009 51.9544C282.927 50.8966 284.266 49.0922 284.266 49.0922C284.266 49.0922 287.006 49.9899 288.808 47.4388C290.611 44.8878 289.46 41.9989 287.889 41.3411C286.318 40.6923 284.48 41.83 284.48 41.83L285.908 39.0478C285.908 39.0478 279.652 25.0569 273.181 33.679V33.6968Z" fill="#FFBB87"/>
<path d="M284.48 41.8484C284.48 41.8484 280.393 42.7551 277.447 38.2573C274.502 33.7596 274.734 31.8841 274.734 31.8841L271.986 36.6396C271.986 36.6396 271.289 33.3952 272.557 31.2885C273.824 29.1819 275.189 29.5907 275.189 29.5907L284.293 31.6707L286.818 38.8529L284.489 41.8484H284.48Z" fill="#0017BF"/>
<path d="M274.171 45.8036C274.171 45.8036 274.243 45.8036 274.27 45.7858C274.439 45.7325 274.537 45.5458 274.475 45.377C273.895 43.6081 274.662 41.6792 274.671 41.6614C274.743 41.4925 274.662 41.3059 274.493 41.2348C274.323 41.1637 274.136 41.2437 274.064 41.4125C274.029 41.5014 273.199 43.5814 273.85 45.5725C273.895 45.7058 274.02 45.7947 274.162 45.7947L274.171 45.8036Z" fill="black"/>
<path d="M284.953 46.3181C285.042 46.3181 285.131 46.2826 285.194 46.2115L287.746 43.4293C287.871 43.2959 287.862 43.0915 287.728 42.9671C287.594 42.8426 287.389 42.8515 287.264 42.9848L284.712 45.767C284.587 45.9004 284.596 46.1048 284.73 46.2293C284.792 46.2826 284.872 46.3181 284.953 46.3181Z" fill="black"/>
<path d="M287.693 45.546C287.853 45.546 287.996 45.4304 288.014 45.2615C288.041 45.0837 287.916 44.9237 287.737 44.8971L285.935 44.6571C285.756 44.6393 285.595 44.7548 285.569 44.9326C285.542 45.1104 285.667 45.2704 285.845 45.2971L287.648 45.5371C287.648 45.5371 287.675 45.5371 287.693 45.5371V45.546Z" fill="black"/>
<path d="M271.744 38.0514C271.744 38.0514 271.789 38.0514 271.807 38.0514L273.458 37.7314C273.636 37.6958 273.752 37.527 273.717 37.3492C273.681 37.1714 273.511 37.0647 273.333 37.0914L271.682 37.4114C271.503 37.447 271.387 37.6158 271.423 37.7936C271.45 37.9447 271.593 38.0603 271.744 38.0603V38.0514Z" fill="black"/>
<path d="M278.045 38.4338C278.179 38.4338 278.303 38.3538 278.348 38.2205C278.411 38.0516 278.321 37.865 278.161 37.8027L276.447 37.1627C276.278 37.1005 276.09 37.1894 276.028 37.3494C275.965 37.5183 276.054 37.705 276.215 37.7672L277.929 38.4072C277.929 38.4072 278 38.4249 278.045 38.4249V38.4338Z" fill="black"/>
<path d="M272.663 41.9536C272.806 41.9536 272.94 41.8647 272.976 41.7225L273.476 39.9981C273.502 39.8914 273.476 39.7847 273.413 39.6959L272.869 39.0648C272.753 38.9314 272.547 38.9136 272.413 39.0292C272.28 39.1448 272.262 39.3492 272.378 39.4825L272.806 39.9892L272.36 41.5536C272.306 41.7225 272.413 41.9092 272.583 41.9536C272.61 41.9536 272.646 41.9625 272.672 41.9625L272.663 41.9536Z" fill="black"/>
<path d="M277.5 42.3281C277.643 42.3281 277.768 42.2392 277.813 42.097L278.313 40.3725C278.339 40.2659 278.313 40.1503 278.241 40.0703L277.491 39.2348C277.375 39.1014 277.161 39.0925 277.027 39.2081C276.894 39.3237 276.885 39.5281 277.001 39.6703L277.625 40.3725L277.179 41.9281C277.126 42.097 277.233 42.2836 277.402 42.3281C277.429 42.3281 277.465 42.337 277.491 42.337L277.5 42.3281Z" fill="black"/>
<path d="M275.332 48.5584C275.412 48.5584 275.492 48.5584 275.573 48.5406C276.635 48.3629 277.224 47.0829 277.251 47.0296C277.304 46.914 277.286 46.7896 277.206 46.6918C277.126 46.594 277.001 46.5496 276.885 46.5762L273.957 47.2162C273.841 47.2429 273.752 47.3229 273.716 47.4384C273.681 47.554 273.716 47.6695 273.788 47.7584C274.288 48.3007 274.805 48.5673 275.323 48.5673L275.332 48.5584ZM276.26 47.3762C276.046 47.6251 275.778 47.8473 275.466 47.9007C275.234 47.9451 274.993 47.874 274.734 47.7051L276.26 47.3762Z" fill="black"/>
<path d="M270.923 104.628C270.923 104.628 241.329 106.29 233.636 112.228C225.943 118.166 225.514 180.325 225.514 180.325L249.656 183.063L249.879 122.21L270.923 104.628Z" fill="#E64218"/>
<path d="M286.229 57.1718C286.229 57.1718 285.381 54.203 284.953 54.203C284.391 54.203 281.285 55.6963 278.456 55.6785C275.635 55.6607 275.145 54.7808 274.306 54.8963C273.467 55.0119 273.154 57.1718 273.154 57.1718C273.154 57.1718 267.924 58.9052 261.847 60.3096C255.769 61.714 246.22 59.874 242.203 57.9274C238.187 55.9807 231.351 51.7675 231.351 51.7675L224.292 70.2473C224.292 70.2473 238.616 88.5137 251.753 88.6204C264.89 88.7271 280.731 86.1315 280.731 86.1315L286.22 57.163L286.229 57.1718Z" fill="#0017BF"/>
<path d="M306.39 105.581C306.39 105.581 308.559 128.816 305.096 131.003C297.01 136.114 274.868 134.825 274.761 135.776C274.654 136.727 277.242 179.082 277.242 179.082L248.067 184.505C248.067 184.505 237.349 122.683 243.417 112.71C249.477 102.736 285.23 103.679 285.23 103.679L306.381 105.581H306.39Z" fill="#E64218"/>
<path d="M249.594 100.149L265.801 98.54L259.687 72.3181L243.48 73.9269L249.594 100.149Z" fill="#FFB904"/>
<path d="M247.165 100.389L263.364 98.7886L257.25 72.5578L241.052 74.1667L247.165 100.389Z" fill="white"/>
<path d="M268.219 83.981L267.612 103.874C267.612 103.874 280.419 107.438 290.075 108.31C299.732 109.172 306.354 108.31 306.354 108.31V100.639L268.21 83.9898L268.219 83.981Z" fill="#0017BF"/>
<path d="M270.307 86.5669C270.307 86.5669 268.371 82.5669 266.416 81.1625C264.462 79.7581 261.481 79.7669 261.481 79.7669L262.07 82.6202C262.07 82.6202 257.527 83.2158 256.76 82.6202C255.992 82.0247 252.735 79.4292 251.869 79.6514C251.003 79.8647 252.842 82.6202 252.842 82.6202C252.842 82.6202 250.887 80.8336 250.236 81.918C249.584 83.0025 252.083 87.3224 252.083 87.3224C252.083 87.3224 249.807 85.0558 250.566 88.6202C251.324 92.1846 257.929 95.6423 260.213 95.9712C262.498 96.2912 271.646 96.3268 271.646 96.3268L270.298 86.5669H270.307Z" fill="#FFBB87"/>
<path d="M262.069 82.9495C262.069 82.9495 262.114 82.9495 262.132 82.9495L264.524 82.4606C264.702 82.425 264.809 82.2562 264.773 82.0784C264.738 81.9006 264.568 81.794 264.39 81.8295L261.998 82.3184C261.819 82.3539 261.712 82.5228 261.748 82.7006C261.784 82.8517 261.918 82.9584 262.069 82.9584V82.9495Z" fill="black"/>
<path d="M259.687 86.6817C259.856 86.6817 259.999 86.5484 260.008 86.3706C260.008 86.1928 259.874 86.0417 259.695 86.0328C259.678 86.0328 257.464 85.9173 256.242 85.3129C255.01 84.6995 253.109 82.4418 253.091 82.424C252.975 82.2818 252.77 82.2729 252.636 82.3884C252.502 82.504 252.484 82.7084 252.591 82.8418C252.672 82.9395 254.608 85.224 255.947 85.8995C257.295 86.5751 259.562 86.6817 259.66 86.6906C259.66 86.6906 259.669 86.6906 259.678 86.6906L259.687 86.6817Z" fill="black"/>
<path d="M259.142 90.7893C259.321 90.7893 259.463 90.647 259.463 90.4693C259.463 90.2915 259.33 90.1404 259.142 90.1404C259.124 90.1404 257.304 90.087 255.751 89.3404C253.734 88.3715 252.315 87.1004 252.297 87.0915C252.163 86.976 251.958 86.9849 251.833 87.1182C251.717 87.2515 251.726 87.456 251.86 87.5804C251.922 87.6337 253.359 88.9137 255.465 89.9359C257.143 90.7448 259.044 90.7981 259.124 90.807L259.142 90.7893Z" fill="black"/>
<path d="M209.379 6.72882H217.5V14.8176H209.379V6.72882Z" fill="#DC3C1E"/>
<path d="M198.606 3.83105L196.081 8.19545L193.555 12.5598H198.606H203.667L201.141 8.19545L198.606 3.83105Z" fill="#E64218"/>
<path d="M205.631 20.435C202.515 20.435 199.99 17.9199 199.99 14.8173C199.99 11.7147 202.515 9.19958 205.631 9.19958C208.746 9.19958 211.271 11.7147 211.271 14.8173C211.271 17.9199 208.746 20.435 205.631 20.435Z" fill="white"/>
<path d="M123.594 76.4422C123.594 77.3933 124.371 78.1666 125.326 78.1666C126.281 78.1666 127.057 77.3933 127.057 76.4422C127.057 75.4911 126.281 74.7178 125.326 74.7178C124.371 74.7178 123.594 75.4911 123.594 76.4422Z" fill="#E64218"/>
<path d="M125.326 100.389C124.37 100.389 123.594 99.6174 123.594 98.665C123.594 97.7126 124.37 96.9406 125.326 96.9406C126.282 96.9406 127.057 97.7126 127.057 98.665C127.057 99.6174 126.282 100.389 125.326 100.389Z" fill="#E64218"/>
<path d="M203.801 96.8605C203.801 97.8116 204.577 98.585 205.532 98.585C206.487 98.585 207.264 97.8116 207.264 96.8605C207.264 95.9094 206.487 95.1361 205.532 95.1361C204.577 95.1361 203.801 95.9094 203.801 96.8605Z" fill="#E64218"/>
<path d="M109.252 110.459V112.006H217.009V110.459C217.009 107.241 214.064 104.637 210.432 104.637H115.821C112.207 104.637 109.261 107.241 109.261 110.459H109.252Z" fill="#373178"/>
<path d="M247.246 177.997C247.246 177.997 247.282 177.997 247.308 177.997C247.487 177.961 247.603 177.792 247.567 177.615C247.478 177.126 238.411 128.486 242.266 118.317C246.086 108.264 269.781 108.006 270.022 107.998C270.182 107.998 270.325 107.873 270.343 107.713C270.361 107.553 270.263 107.402 270.102 107.358L264.542 105.918C264.373 105.873 264.194 105.98 264.149 106.149C264.105 106.318 264.212 106.495 264.381 106.549L267.773 107.429C261.624 107.749 244.961 109.411 241.668 118.086C237.741 128.424 246.559 175.73 246.934 177.739C246.96 177.89 247.103 178.006 247.255 178.006L247.246 177.997Z" fill="white"/>
<path d="M284.953 56.9502C284.953 56.9502 303.641 57.3857 314.387 78.4611C325.132 99.5453 313.842 110.354 295.609 107.972C277.376 105.59 268.21 99.8653 268.21 99.8653L270.299 81.9899L284.953 56.9502Z" fill="#0017BF"/>
<path d="M296.35 84.8161C296.492 84.8161 296.626 84.7272 296.662 84.585C296.715 84.4161 296.608 84.2294 296.439 84.185C288.96 82.0517 273.547 82.0694 273.395 82.0605C273.217 82.0605 273.074 82.2028 273.074 82.3894C273.074 82.5672 273.217 82.7094 273.395 82.7094C274.056 82.7094 288.987 82.7361 296.26 84.8072C296.287 84.8072 296.323 84.8161 296.35 84.8161Z" fill="#FFB904"/>
<path d="M280.473 59.3669C283.445 59.3669 286.283 57.518 286.408 57.4381C286.559 57.3403 286.595 57.1358 286.497 56.9936C286.399 56.8425 286.193 56.8069 286.042 56.9047C286.015 56.9225 282.936 58.9136 280.026 58.7091C279.848 58.6825 279.687 58.8336 279.678 59.0114C279.669 59.1891 279.803 59.3491 279.982 59.358C280.142 59.3669 280.303 59.3758 280.464 59.3758L280.473 59.3669Z" fill="#FFB904"/>
<path d="M252.485 67.2597C252.681 67.2597 252.868 67.2063 253.038 67.0908C254.493 66.1752 254.921 61.2953 254.966 60.7442C254.975 60.602 254.894 60.4686 254.76 60.4153C254.626 60.362 254.475 60.4064 254.386 60.5131C254.037 60.9486 251.003 64.8419 251.458 66.4864C251.547 66.8152 251.771 67.0552 252.092 67.1797C252.226 67.233 252.351 67.2508 252.476 67.2508L252.485 67.2597ZM254.198 61.8553C253.948 63.7575 253.431 66.0864 252.699 66.5397C252.583 66.6197 252.467 66.6286 252.333 66.5752C252.199 66.5219 252.128 66.4419 252.092 66.3086C251.869 65.4908 253.074 63.4197 254.198 61.8464V61.8553Z" fill="#FFB904"/>
<path d="M295.297 84.1225C298.144 84.1225 301.588 83.9003 302.079 82.8425C302.186 82.6114 302.231 82.2292 301.794 81.7669C299.482 79.2781 292.191 83.2603 291.887 83.4292C291.762 83.5003 291.7 83.6425 291.727 83.7847C291.753 83.9269 291.878 84.0247 292.03 84.0336C292.726 84.0691 293.949 84.1225 295.297 84.1225ZM299.482 81.5892C300.259 81.5892 300.91 81.7669 301.321 82.2114C301.401 82.3003 301.544 82.4692 301.49 82.5758C301.151 83.2869 297.189 83.5625 293.289 83.4469C295.011 82.6203 297.608 81.5981 299.482 81.5981V81.5892Z" fill="#FFB904"/>
<path d="M274.769 136.095C274.85 136.095 274.93 136.069 274.993 136.006C275.1 135.909 275.126 135.757 275.064 135.624C274.395 134.291 272.128 129.962 270.753 129.962C270.512 129.962 270.2 130.077 270.004 130.54C269.049 132.833 274.038 135.731 274.609 136.051C274.662 136.077 274.716 136.095 274.769 136.095ZM270.762 130.611C271.333 130.611 272.744 132.664 273.939 134.869C272.351 133.811 270.111 131.989 270.611 130.789C270.637 130.717 270.691 130.611 270.753 130.611H270.762Z" fill="white"/>
<path d="M286.791 104.958C286.943 104.958 287.086 104.852 287.113 104.692C287.148 104.514 287.032 104.345 286.854 104.309C286.765 104.292 277.447 102.523 270.191 98.2918C270.031 98.2029 269.834 98.2562 269.745 98.4073C269.656 98.5584 269.71 98.7629 269.861 98.8518C277.215 103.145 286.64 104.932 286.738 104.949C286.756 104.949 286.782 104.949 286.8 104.949L286.791 104.958Z" fill="#FFB904"/>
<path d="M136.179 69.4555H114.483C112.684 69.4555 111.225 68.0029 111.225 66.2111V44.6024C111.225 42.8106 112.684 41.358 114.483 41.358H136.179C137.978 41.358 139.436 42.8106 139.436 44.6024V66.2111C139.436 68.0029 137.978 69.4555 136.179 69.4555Z" fill="#5EF939"/>
<path d="M135.205 58.016L134.205 60.3982L135.455 61.5804C134.527 63.0915 133.259 64.3804 131.769 65.3404L130.377 64.0249L128.003 65.0293L128.083 66.9137C127.199 67.1182 126.28 67.2337 125.334 67.2337C124.477 67.2337 123.638 67.1448 122.826 66.967V64.9404L120.461 63.9182L119.006 65.4115C117.507 64.4693 116.24 63.2071 115.294 61.7227L116.686 60.4071L115.687 58.0249L113.75 58.0071C113.562 57.1716 113.464 56.3005 113.464 55.4027C113.464 54.4605 113.571 53.545 113.786 52.665L115.687 52.6472L116.686 50.265L115.356 49.0028C116.311 47.5273 117.596 46.2739 119.096 45.3495L120.461 46.7539L122.826 45.7317V43.8473C123.638 43.6695 124.477 43.5806 125.334 43.5806C126.28 43.5806 127.199 43.6873 128.083 43.9006L128.012 45.6428L130.385 46.6473L131.689 45.4117C133.188 46.3628 134.464 47.6339 135.41 49.1361L134.214 50.265L135.214 52.6383L136.892 52.6561C137.097 53.5361 137.213 54.4516 137.213 55.3938C137.213 56.2827 137.115 57.1538 136.927 57.9894L135.223 58.0071L135.205 58.016ZM131.091 55.4027C131.091 52.2294 128.511 49.6606 125.325 49.6606C122.139 49.6606 119.56 52.2294 119.56 55.4027C119.56 58.576 122.139 61.1449 125.325 61.1449C128.511 61.1449 131.091 58.576 131.091 55.4027Z" fill="white"/>
</svg>
