<svg xmlns="http://www.w3.org/2000/svg" width="980" height="260" fill="none"><mask id="a" width="980" height="260" x="0" y="0" maskUnits="userSpaceOnUse" style="mask-type:alpha"><path fill="#000" d="M980 0H0v260h980V0Z"/></mask><g mask="url(#a)"><path fill="#40398D" d="M582.664 108.537v87.701c0 2.662 2.239 4.839 4.998 4.839h159.065c2.744 0 4.983-2.177 4.983-4.839v-87.701c0-2.662-2.239-4.839-4.983-4.839H587.662c-2.759 0-4.998 2.177-4.998 4.839Z"/><path fill="#fff" d="M582.664 109.476v6.12H751.71v-6.12c0-3.188-2.239-5.778-4.983-5.778H587.662c-2.759 0-4.998 2.59-4.998 5.778Z"/><path fill="#FFB904" d="M723.981 112.476c-1.587 0-2.874-1.268-2.874-2.833 0-1.564 1.287-2.832 2.874-2.832 1.588 0 2.875 1.268 2.875 2.832 0 1.565-1.287 2.833-2.875 2.833Z"/><path fill="#E64218" d="M733.18 112.476c-1.588 0-2.875-1.268-2.875-2.833 0-1.564 1.287-2.832 2.875-2.832 1.587 0 2.874 1.268 2.874 2.832 0 1.565-1.287 2.833-2.874 2.833Z"/><path fill="#0017BF" d="M742.364 112.476c-1.588 0-2.875-1.268-2.875-2.833 0-1.564 1.287-2.832 2.875-2.832 1.587 0 2.874 1.268 2.874 2.832 0 1.565-1.287 2.833-2.874 2.833Z"/><path fill="#FFB904" d="M595.858 149.428h36.096a1.673 1.673 0 0 1 0 3.347h-36.096a1.673 1.673 0 1 1 0-3.347Z"/><path fill="#3DF130" d="M639.45 149.428h36.095a1.673 1.673 0 1 1 0 3.347H639.45a1.673 1.673 0 1 1 0-3.347ZM595.859 139.031h18.236a1.674 1.674 0 0 1 0 3.347h-18.236a1.673 1.673 0 1 1 0-3.347Z"/><path fill="#FFB904" d="M656.182 169.234h18.237a1.674 1.674 0 0 1 0 3.347h-18.237a1.673 1.673 0 1 1 0-3.347Z"/><path fill="#E64218" d="M620.56 139.031h46.482a1.673 1.673 0 1 1 0 3.347H620.56a1.673 1.673 0 1 1 0-3.347Z"/><path fill="#3DF130" d="M595.859 159.331h89.478a1.673 1.673 0 1 1 0 3.346h-89.478a1.674 1.674 0 1 1 0-3.346ZM595.859 169.234h53.482a1.674 1.674 0 0 1 0 3.347h-53.482a1.674 1.674 0 1 1 0-3.347Z"/><path fill="#2E2C6E" d="M696.14 135.546h42.646v42.024H696.14v-42.024Z"/><path fill="#FFB904" d="m705.674 156.972 7.547 3.5v-1.953l-5.313-2.289v-.094l5.313-2.289v-1.953l-7.547 3.5v1.578Zm14.484-8.14h-1.734l-3.656 13.546h1.75l3.64-13.546Zm9.11 8.14v-1.578l-7.547-3.5v1.953l5.312 2.289v.094l-5.312 2.289v1.953l7.547-3.5Z"/><path fill="#0017BF" d="M870.701 64.541s7.973-13.208 20.697-6.775c12.725 6.434 11.339 19.727 21.001 22.787 9.663 3.046 17.578 11.258 11.959 21.847-4.694 8.853-17.418 6.049-17.418 6.049s-7.915 13.279-21.897 8.739c-13.981-4.541-20.365-11.7-18.892-23.114 1.459-11.415 4.564-29.519 4.564-29.519l-.014-.014Z"/><path fill="#0017BF" d="M847.969 83.728s-7.554-10.874 7.741-19.456c15.296-8.568 26.446 3.188 26.576 9.493.13 6.32-3.524 9.237-3.524 9.237s1.43 13.692-11.916 12.738c-13.345-.94-18.877-12.04-18.877-12.04v.028Z"/><path fill="#FFBB87" d="m868.129 93.578.275 11.059s-1.936 3.231-8.493 3.914c-4.882.512-6.63-.541-6.63-.541l.535-5.622.534-5.48 11.786-2.86 1.979-.484.014.014Z"/><path fill="#000" d="M868.085 93.048c-.014.299-.13.669-.303 1.081-2.369 5.58-11.15 7.957-13.967 8.27l.534-5.48 13.736-3.871Z"/><path fill="#FFBB87" d="M851.217 71.77s-5.532 14.005-3.019 21.648c2.513 7.642 9.619 6.148 13.837 4.468 4.217-1.665 6.095-4.326 6.095-4.326s4.044 1.181 6.572-2.59c2.527-3.772.707-7.914-1.618-8.782-2.325-.868-4.968.854-4.968.854l1.964-4.085s-9.778-19.968-18.863-7.201v.014Z"/><path fill="#000" d="M850.335 89.849h.087a.518.518 0 0 0 .433-.598c-.707-4.227.939-6.476.968-6.504a.515.515 0 0 0-.101-.726.533.533 0 0 0-.737.1c-.072.1-1.95 2.59-1.155 7.287.043.256.26.44.52.44h-.015ZM868.42 88.738a.48.48 0 0 0 .245-.057l5.46-2.86a.501.501 0 0 0 .216-.698c-.13-.256-.462-.342-.707-.214l-5.46 2.861a.502.502 0 0 0-.217.698c.101.17.275.27.463.27Z"/><path fill="#000" d="M873.518 89.702a.574.574 0 0 0 .404-.17.5.5 0 0 0-.057-.727l-2.629-2.263a.535.535 0 0 0-.751.057.5.5 0 0 0 .058.726l2.628 2.263a.55.55 0 0 0 .347.128v-.014Z"/><path fill="#0017BF" d="M849.02 78.717s.26-3.416 2.903-6.334c2.817-3.102 5.2-2.59 5.2-2.59s-4.16 8.967 2.831 12.126c4.969 2.249 8.161 1.153 8.161 1.153l7.12-6.96-14.154-11.329s-12.913-1.779-12.046 13.948l-.015-.014Z"/><path fill="#000" d="M853.845 92.692s.116 0 .173-.028c.073-.029 1.762-.612 2.86-2.434a.523.523 0 0 0-.188-.712.54.54 0 0 0-.722.185c-.895 1.495-2.282 1.979-2.296 1.979a.525.525 0 0 0-.333.654.526.526 0 0 0 .492.356h.014ZM855.275 83.997a.524.524 0 0 0 .52-.398l.563-2.463a.568.568 0 0 0-.072-.398l-.794-1.253a.526.526 0 0 0-.723-.156.506.506 0 0 0-.158.711l.678 1.068-.52 2.249a.535.535 0 0 0 .39.626h.116v.014ZM848.298 83.939a.524.524 0 0 0 .52-.398l.564-2.463a.569.569 0 0 0-.073-.398l-.794-1.253a.523.523 0 0 0-.722-.156.506.506 0 0 0-.159.711l.679 1.068-.52 2.249a.533.533 0 0 0 .39.626h.115v.014ZM849.484 77.549h.116l1.545-.327a.516.516 0 1 0-.217-1.01l-1.545.326a.518.518 0 0 0-.405.612.538.538 0 0 0 .52.413l-.014-.014Z"/><path fill="#3DF130" d="m794.641 99.952-25.247 15.258-28.309-37.318 25.262-15.272 28.294 37.332Z"/><path fill="#fff" d="m797.906 98.171-25.247 15.258-28.309-37.318 25.262-15.272 28.294 37.332Z"/><path fill="#0017BF" d="M751.441 79.141a.605.605 0 0 0 .275-.071l18.531-11.201c.245-.157.332-.47.173-.712a.523.523 0 0 0-.722-.17l-18.531 11.2c-.245.157-.332.47-.173.712a.533.533 0 0 0 .447.242ZM754.446 83a.608.608 0 0 0 .275-.071l18.531-11.201c.245-.157.332-.47.173-.712a.523.523 0 0 0-.722-.17l-18.531 11.2c-.246.157-.332.47-.173.712a.533.533 0 0 0 .447.242ZM757.379 86.899a.6.6 0 0 0 .274-.071l18.531-11.201c.246-.157.333-.47.174-.712a.524.524 0 0 0-.722-.17l-18.531 11.2c-.246.157-.333.47-.174.712a.535.535 0 0 0 .448.242ZM760.323 90.786a.608.608 0 0 0 .275-.071l18.531-11.201c.245-.157.332-.47.173-.712a.523.523 0 0 0-.722-.17l-18.531 11.2c-.246.157-.332.47-.173.712a.533.533 0 0 0 .447.242Z"/><path fill="#FFBB87" d="m824.858 80.568 27.385 35.938-26.287 15.129-17.015-44.406 15.917-6.66Z"/><path fill="#000" d="M857.456 78.177a.51.51 0 0 0 .491-.342.5.5 0 0 0-.318-.654l-3.25-1.11c-.274-.086-.577.042-.664.313a.5.5 0 0 0 .318.654l3.25 1.11s.115.03.173.03Z"/><path fill="#FFBB87" d="M785.223 116.206s-.592-10.247-3.726-14.304c-3.134-4.056-8.637-7.216-9.807-4.867-1.17 2.348 2.556 5.75 1.964 7.145-.592 1.394-4.506.697-10.399-1.381-5.893-2.064-9.807-8.781-9.807-8.781s-1.17 2.661-.78 5.08c.39 2.42 1.17 3.701 1.17 3.701s-1.257-2.789-1.257 2.306c0 2.562 2.239 4.355 2.239 4.355s-1.762 2.106 1.964 6.746c3.727 4.64 14.126 8.896 14.126 8.896s11.569 27.839 30.606 35.183c19.036 7.344 33.942-2.52 33.942-2.52l-5.879-30.543s-20.408 7.159-44.341-11.016h-.015Z"/><path fill="#000" d="M763.128 108.624a.536.536 0 0 0 .519-.413.51.51 0 0 0-.404-.612c-4.347-.897-9.417-6.049-9.46-6.106a.547.547 0 0 0-.751-.014.502.502 0 0 0 0 .74c.216.228 5.344 5.437 10.009 6.405h.115-.028ZM762.245 113.672a.537.537 0 0 0 .52-.427.518.518 0 0 0-.433-.597c-4.94-.826-7.077-3.473-7.106-3.502a.519.519 0 0 0-.737-.085.515.515 0 0 0-.101.726c.101.128 2.398 3.003 7.756 3.885H762.245Z"/><path fill="#FFB904" d="M846.062 172.653s-25.29 33.589-46.074 70.893-32.325 83.958-32.325 83.958l53.21 3.245 38.694-92.17-11.381 90.946 51.462-1.779s11.136-84.428 5.199-124.251c-5.936-39.822-12.898-48.205-12.898-48.205l-45.872 17.363h-.015Z"/><path fill="#fff" d="M876.696 84.81a.558.558 0 0 0 .419-.199c8.969-11.13-3.105-21.078-3.221-21.178a.528.528 0 0 0-.736.072.51.51 0 0 0 .072.725c.476.385 11.396 9.394 3.062 19.727a.512.512 0 0 0 .087.726.582.582 0 0 0 .332.113l-.015.015Z"/><path fill="#3DF130" d="M816.901 127.606s20.25-22.331 44.702-23.783c24.453-1.452 32.686 10.148 33.87 15.656 1.17 5.508 3.236 44.946 1.762 47.565-1.473 2.605-11.511 7.245-27.818 8.412-16.321 1.167-24.857-.869-26.027-1.737-1.17-.868-2.643-13.051-2.643-13.051l-13.837 3.487-10.009-36.535v-.014Z"/><path fill="#0017BF" d="M868.129 93.578s-6.89 15.272.274 21.321c7.164 6.048 17.824 2.134 17.824 2.134s3.596 2.263 10.471-.028 10.24-8.568 10.24-8.568l-38.809-14.859Z"/><path fill="#FFBB87" d="M824.857 80.57s-6.875-10.632-10.327-12.966c-3.452-2.335-22.72-9.807-24.627-7.985-1.906 1.822 9.36 9.436 9.36 9.436s-1.936.413-2.412 1.95c-.477 1.537.375 2.79.375 2.79s-2.397-.085-3.076 1.523c-.679 1.608.433 3.373.433 3.373s4.42 7.97 6.947 8.127c2.514.17 2.181-4.242 2.181-4.242s.91 4.014 3.106 6.234c2.195 2.206 6.702 2.448 11.352.029 4.651-2.42 6.688-8.284 6.688-8.284v.015Z"/><path fill="#000" d="M819.483 87.529c.26 0 .491-.2.52-.47a.517.517 0 0 0-.476-.57c-5.301-.554-6.601-7.287-6.615-7.358a.513.513 0 0 0-.232-.341c-.115-.071-.274-.1-.404-.071-2.513.54-5.532.74-6.023.114-.101-.129 0-.37.087-.556 1.386-2.718 7.785-5.493 7.843-5.522a.526.526 0 0 0 .274-.683.539.539 0 0 0-.693-.27c-.275.113-6.818 2.946-8.363 6.006-.419.811-.217 1.352.029 1.665 1.011 1.28 4.795.712 6.557.37.433 1.736 2.196 7.145 7.424 7.686H819.483Z"/><path fill="#000" d="M806.485 77.68a.543.543 0 0 0 .506-.356.519.519 0 0 0-.332-.655c-3.033-.982-6.89-7.8-6.933-7.87a.528.528 0 0 0-.722-.2.513.513 0 0 0-.202.712c.173.299 4.101 7.244 7.525 8.354a.746.746 0 0 0 .158.029v-.014ZM805.229 83.5h.101c1.026-.056 1.805-.412 2.311-1.067.881-1.153.534-2.76.52-2.832a.525.525 0 0 0-1.026.213s.26 1.225-.332 1.979c-.303.398-.823.612-1.516.654-1.95.086-5.691-5.408-7.569-8.91a.512.512 0 0 0-.707-.213.499.499 0 0 0-.217.698c.52.982 5.185 9.465 8.464 9.465l-.029.014Z"/><path fill="#fff" d="M840.746 161.197a.56.56 0 0 0 .491-.313c.679-1.58 3.957-9.564 1.372-11.272-.534-.356-.968-.214-1.184-.085-1.719.982-1.358 8.81-1.199 11.186a.532.532 0 0 0 .433.484h.087Zm1.199-10.774c1.155.769.375 4.455-.795 7.743-.101-4.071.217-7.458.795-7.743ZM862.685 182.102c10.92 0 25.58-1.807 34.39-10.275a.514.514 0 0 0 0-.741.533.533 0 0 0-.751 0c-14.689 14.105-47.36 9.038-47.678 8.981a.519.519 0 1 0-.173 1.025c.563.085 6.442 1.01 14.198 1.01h.014ZM859.318 239.107c.173 0 .361-.1.462-.256.072-.128 7.482-12.369 26.692-19.57a.514.514 0 0 0 .303-.669.514.514 0 0 0-.679-.299c-19.585 7.344-27.154 19.897-27.226 20.011a.525.525 0 0 0 .188.712.605.605 0 0 0 .26.071ZM904.21 210.891c.492 0 .983-.015 1.488-.043a.526.526 0 0 0 .491-.555c-.014-.285-.245-.484-.563-.484-4.55.299-8.204-.811-10.876-3.316-4.304-4.028-4.766-10.561-4.824-12.112l12.638-4.953a.501.501 0 0 0 .289-.669c-.116-.256-.419-.399-.679-.285l-12.985 5.081a.507.507 0 0 0-.332.47c0 .342-.087 8.326 5.142 13.222 2.585 2.42 6.008 3.644 10.183 3.644h.028ZM850.264 215.651c11.121 0 14.92-17.507 14.949-17.692a.51.51 0 0 0-.361-.597l-19.643-6.006c-.26-.072-.549.056-.65.298-.232.555-5.446 13.55-1.633 20.196 1.156 2.022 3.019 3.246 5.547 3.644.606.1 1.199.142 1.776.142l.015.015Zm13.808-17.435c-.708 2.846-4.969 17.947-15.426 16.268-2.195-.356-3.813-1.395-4.795-3.132-3.192-5.565.635-16.509 1.516-18.858l18.705 5.707v.015ZM732.231 194.725h52.574c2.268 0 4.117-1.822 4.117-4.057v-23.583c0-2.235-1.849-4.056-4.117-4.056h-52.574c-2.267 0-4.116 1.821-4.116 4.056v23.583c0 2.235 1.849 4.057 4.116 4.057Z"/><path fill="#fff" d="m761.855 165.348 19.239-13.535-4.709 13.535h-14.53Z"/><path fill="#3DF130" d="M745.822 188.549h-6.672v-19.328h6.672v19.328Z"/><path fill="#FFB904" d="M756.526 188.549h-6.673v-15.855h6.673v15.855Z"/><path fill="#5EF939" d="M777.901 188.549h-6.673v-15.855h6.673v15.855Z"/><path fill="#373178" d="M767.199 188.533h-6.673v-9.664h6.673v9.664Z"/><path fill="#E64218" d="M552.669 124.324h75.438c2.022 0 3.668-1.622 3.668-3.615V84.615c0-1.992-1.646-3.615-3.668-3.615h-75.438c-2.022 0-3.669 1.623-3.669 3.615v36.094c0 1.993 1.647 3.615 3.669 3.615Zm75.438-42.27c1.444 0 2.6 1.152 2.6 2.575v36.094c0 1.424-1.17 2.576-2.6 2.576h-75.438a2.581 2.581 0 0 1-2.6-2.576V84.629c0-1.423 1.17-2.576 2.6-2.576h75.438Z"/><path fill="#E64218" d="M549.534 90.038h81.707a.526.526 0 0 0 .534-.512.517.517 0 0 0-.534-.512h-81.707a.527.527 0 0 0-.534.512c0 .285.231.512.534.512ZM555.283 88.089c1.401 0 2.557-1.125 2.557-2.52 0-1.394-1.141-2.519-2.557-2.519-1.415 0-2.556 1.125-2.556 2.52 0 1.394 1.141 2.519 2.556 2.519Zm0-3.986a1.49 1.49 0 0 1 1.502 1.48 1.48 1.48 0 0 1-1.502 1.48 1.48 1.48 0 0 1-1.502-1.48c0-.825.664-1.48 1.502-1.48ZM562.058 88.089c1.401 0 2.556-1.125 2.556-2.52 0-1.394-1.141-2.519-2.556-2.519-1.416 0-2.557 1.125-2.557 2.52 0 1.394 1.141 2.519 2.557 2.519Zm0-3.986a1.49 1.49 0 0 1 1.502 1.48c0 .826-.665 1.48-1.502 1.48a1.48 1.48 0 0 1-1.502-1.48c0-.825.664-1.48 1.502-1.48ZM568.831 88.089c1.401 0 2.556-1.125 2.556-2.52 0-1.394-1.141-2.519-2.556-2.519s-2.556 1.125-2.556 2.52c0 1.394 1.141 2.519 2.556 2.519Zm0-3.986a1.49 1.49 0 0 1 1.502 1.48 1.48 1.48 0 0 1-1.502 1.48 1.48 1.48 0 0 1-1.502-1.48c0-.825.664-1.48 1.502-1.48Z"/></g></svg>