<svg xmlns="http://www.w3.org/2000/svg" width="404" height="260" fill="none"><mask id="a" width="404" height="260" x="0" y="0" maskUnits="userSpaceOnUse" style="mask-type:alpha"><path fill="#000" d="M404 0H0v260h404V0Z"/></mask><g clip-path="url(#b)" mask="url(#a)"><path fill="#FD842B" d="M240.008 94.941s6.527-1.502 8.943 0c2.415 1.503 2.415 15.243 0 15.384-2.416.142-8.943-15.384-8.943-15.384Z"/><path fill="#0002BB" d="M279.968 105.698s-13.98 4.257-14.241 18.367c-.261 14.111 25.926 15.493 25.926 15.493s15.199 1.503 19.333-8.448c4.123-9.952-9.422-16.07-9.422-16.07s-16.471-12.956-21.585-9.342h-.011Z"/><path fill="#1C34ED" d="m252.693 103.488-15.916 15.819s1.251 20.839 14.763 30.246 32.323 3.549 32.323 3.549v-28.013s-11.075 1.165-17.157.359c-6.082-.817-14.002-21.949-14.002-21.949l-.011-.011Z"/><path fill="#0002BB" d="M238.68 124.523a.394.394 0 0 1-.261-.686l15.961-14.197a.393.393 0 1 1 .522.588l-15.96 14.197a.417.417 0 0 1-.262.098Z"/><path fill="#FD842B" d="M354.526 116.662s-5.788 12.357-10.368 11.181c-4.581-1.176-7.072-3.43-7.072-3.43s-4.82-11.998-.49-13.369c6.767-2.145 17.93 5.607 17.93 5.607v.011Z"/><path fill="#1C34ED" d="M299.976 127.789s12.228 2.243 18.277 1.002c6.05-1.242 15.645-9.843 15.645-9.843l17.484 9.276s-8.41 28.939-39.613 27.851c-20.41-.708-18.114-23.877-18.114-23.877l6.321-4.431v.022Z"/><path fill="#0002BB" d="M321.126 136.379a2.13 2.13 0 0 1-.425-.043c-.75-.142-1.327-.534-1.719-1.176-1.283-2.08-.141-6.13-.087-6.304a.4.4 0 0 1 .327-.283.38.38 0 0 1 .391.185c.599.936 3.515 5.662 2.514 7.142-.153.229-.446.479-1.001.479Zm-1.687-6.38c-.25 1.263-.544 3.506.218 4.747.272.447.664.708 1.186.806.228.043.522.054.62-.098.413-.621-.664-3.158-2.024-5.455ZM348.705 133.995a.357.357 0 0 1-.185-.044l-19.811-10.604a.4.4 0 0 1-.163-.534.386.386 0 0 1 .533-.163l19.811 10.604a.4.4 0 0 1 .163.534.4.4 0 0 1-.348.207Z"/><path fill="#E24E1B" d="M310.703 174.779s6.136 35.221 7.463 68.363c1.328 33.142 2.198 57.083 2.198 57.083l-37.154 1.242-1.566-65.816.848-59.979 28.2-.893h.011Z"/><path fill="#E24E1B" d="M267.62 175.683s-3.808 12.706-6.016 23.583c-2.209 10.876-5.527 25.444-5.527 25.444s-12.338 33.043 10.161 37.769c27.906 5.868 29.168-26.065 29.168-26.065l-2.828-67.252-24.958 6.51v.011Z"/><path fill="#1C34ED" d="M292.056 126.569s-.055-2.569-8.193-1.48c-10.988 1.459-14.959 22.221-14.959 22.221s-3.416 30.039-2.938 30.67c.479.621 13.622 3.441 28.363 2.657 14.753-.784 17.963-2.809 18.768-3.277.805-.468-6.115-44.792-6.115-44.792s-3.362-5.846-14.948-5.999h.022Z"/><path fill="#FD842B" d="m286.474 118.687.316 8.503s1.621 2.385 6.604 2.602c3.71.164 4.983-.718 4.983-.718l-.675-4.29-.664-4.181-9.051-1.644-1.524-.272h.011Z"/><path fill="#000" d="M286.474 118.284c.033.229.131.501.283.817 2.056 4.181 8.813 5.585 10.956 5.694l-.664-4.181-10.564-2.319-.011-.011Z"/><path fill="#FD842B" d="M298.213 101.147s4.853 10.496 3.319 16.484c-1.534 5.988-6.974 5.172-10.249 4.094-3.264-1.078-4.82-3.038-4.82-3.038s-3.002 1.089-5.091-1.677c-2.089-2.776-.914-6.042.805-6.815 1.708-.784 3.797.424 3.797.424l-1.676-3.048s6.441-15.798 13.915-6.424ZM255.555 211.416l-7.681-8.068-18.974 10.583 4.221 6.489 7.822 6.445 14.612-15.449Z"/><path fill="#0002BB" d="M232.827 190.349c1.164-.991 2.959-.85 4.091.348 4.439 4.703 14.981 14.709 14.122 15.515-1.099 1.034-14.916 8.416-14.916 8.416s5.842 6.815.206 9.929c-4.33 2.395-12.272 2.058-15.731 1.764-1.099-.087-2.176.131-3.101.664-4.004 2.254-15.438 8.013-20.084 3.353-5.679-5.705-2.698-7.251-1.61-8.285.936-.893 29.081-24.921 37.034-31.704h-.011Z"/><path fill="#000" d="M299.78 105.502h-.054l-2.078-.305a.393.393 0 0 1-.338-.446.403.403 0 0 1 .446-.338l2.078.305c.218.033.37.229.338.447a.397.397 0 0 1-.392.337ZM292.056 106.362a.397.397 0 0 1-.381-.272.404.404 0 0 1 .261-.501l2.709-.86a.4.4 0 0 1 .239.762l-2.709.861s-.076.021-.119.021v-.011ZM298.746 114.016s-.065 0-.108-.011a.403.403 0 0 1-.283-.489c.935-3.419-1.425-4.639-1.523-4.693a.41.41 0 0 1-.185-.533.4.4 0 0 1 .533-.186c.032.011 3.046 1.536 1.936 5.607a.393.393 0 0 1-.38.294l.01.011ZM294.852 117.663c-.164 0-.327-.021-.501-.065-1.338-.381-1.48-1.916-1.49-1.981a.402.402 0 0 1 .141-.338.385.385 0 0 1 .359-.076l3.144.816a.393.393 0 0 1 .272.251.405.405 0 0 1-.054.37c-.033.044-.794 1.023-1.871 1.023Zm-1.034-1.524c.131.283.359.577.751.697.391.109.761-.044 1.033-.229l-1.784-.457v-.011ZM285.996 114.985a.436.436 0 0 1-.164-.033l-4.264-1.938a.399.399 0 0 1-.196-.522.39.39 0 0 1 .522-.196l4.265 1.938a.399.399 0 0 1 .196.522.395.395 0 0 1-.359.229Z"/><path fill="#000" d="M282.199 115.976a.415.415 0 0 1-.283-.12.406.406 0 0 1 0-.566l1.882-1.862a.408.408 0 0 1 .566 0 .408.408 0 0 1 0 .566l-1.882 1.862a.4.4 0 0 1-.283.12Z"/><path fill="#0002BB" d="M292.056 101.768s2.426-.37 4.971 1.165c2.535 1.535 3.058 3.026 3.058 3.026s1.566-3.963-1.872-7.458c-3.438-3.494-9.585-4.692-14.644-.664-4.395 3.495-4.166 8.895-4.166 8.895l6.593 3.887s8.007-1.546 6.07-8.84l-.01-.011Z"/><path fill="#1C34ED" d="M286.659 124.512s4.341 7.48 12.087 4.137c7.747-3.342-21.922 45.129-21.922 45.129l3.96-42.429 5.864-6.848.011.011Z"/><path fill="#E24E1B" d="m232.272 224.71 24.98-17.366 6.169 9.864-1.817 43.736s-10.053-2.08-29.321-36.234h-.011Z"/><path fill="#fff" d="M282.59 261.085a.381.381 0 0 1-.315-.163.399.399 0 0 1 .076-.556c.087-.065 8.943-6.826 13.665-24.05 4.732-17.3 1.827-43.779 1.795-44.051a.387.387 0 0 1 .228-.403l9.716-4.409a.399.399 0 0 1 .522.196.399.399 0 0 1-.196.522l-9.454 4.29c.304 2.94 2.654 27.589-1.85 44.062-4.798 17.507-13.86 24.41-13.958 24.486a.376.376 0 0 1-.24.076h.011ZM266.097 221.748c-.098 0-.218 0-.337-.032-3.95-.665-5.756-10.333-5.832-10.736a.403.403 0 0 1 .218-.435.385.385 0 0 1 .468.109c1.729 2.079 7.311 8.971 6.353 10.648-.119.218-.37.446-.881.446h.011Zm-5.037-9.309c.772 3.158 2.469 8.101 4.83 8.504.261.043.381 0 .392-.022.424-.741-2.241-4.736-5.233-8.471l.011-.011ZM268.904 194.137a.393.393 0 0 1-.392-.37.387.387 0 0 1 .37-.424c.283-.022 6.963-.654 8.856-9.93a.397.397 0 0 1 .468-.305.383.383 0 0 1 .304.469c-2.012 9.885-9.497 10.56-9.574 10.56h-.032Z"/><path fill="#0002BB" d="M309.006 156.489h-.087a.403.403 0 0 1-.305-.48c2.133-9.613-1.838-15.133-1.871-15.188a.4.4 0 0 1 .087-.555.39.39 0 0 1 .555.087c.174.229 4.221 5.847 2.013 15.842a.406.406 0 0 1-.392.315v-.021ZM294.765 129.901c-5.56 0-8.41-5.139-8.454-5.204a.384.384 0 0 1 .163-.534.383.383 0 0 1 .533.163c.164.294 3.971 7.121 11.587 3.963a.4.4 0 0 1 .522.218.397.397 0 0 1-.217.523c-1.512.631-2.894.882-4.134.882v-.011Z"/><path fill="#000" d="M294.362 110.728a.407.407 0 0 1-.392-.316l-.402-1.861c-.022-.12 0-.251.087-.338l.805-.947a.396.396 0 0 1 .555-.044.396.396 0 0 1 .043.556l-.685.805.359 1.677a.39.39 0 0 1-.305.468h-.087.022ZM300.183 109.955a.406.406 0 0 1-.392-.316l-.403-1.861c-.021-.12 0-.251.087-.338l.805-.947a.396.396 0 0 1 .555-.044.396.396 0 0 1 .044.556l-.686.805.359 1.677a.39.39 0 0 1-.304.468h-.087.022Z"/><path fill="#0002BB" d="M265.89 132.895a.744.744 0 0 1-.261-.043c-2.002-.566-.718-5.967-.272-7.611a.372.372 0 0 1 .392-.294c.185 0 .337.131.381.305.348 1.481 1.392 6.402.337 7.415a.78.78 0 0 1-.566.228h-.011Zm-.174-5.705c-.479 2.45-.555 4.715.131 4.9.402-.164.37-2.178-.131-4.9Z"/><path fill="#E24E1B" d="m318.243 86.188 33.628-6.228 33.629-6.228-11.424 32.26-11.423 32.249-22.205-26.032-22.205-26.021Z"/><path fill="#000" d="M344.691 119.591a.386.386 0 0 1-.392-.403c.055-3.136-2.785-5.564-2.818-5.596a.396.396 0 0 1-.043-.556.407.407 0 0 1 .555-.054c.13.109 3.166 2.7 3.1 6.217a.398.398 0 0 1-.391.392h-.011Z"/><path fill="#FD842B" d="M341.732 113.298s1.055-10.899-1.698-10.343c-2.752.544-5.657 10.865-5.026 12.379.631 1.513 4.254 1.763 4.254 1.763l2.47-3.788v-.011ZM192.975 139.798c-.598 1.045-6.44 8.438-16.112 9.657-9.672 1.219-9.476-10.419-9.476-10.419l14.056-8.525 11.543 9.287h-.011Z"/><path fill="#FFB700" d="M213.625 156.695c21.096 0 38.198-17.114 38.198-38.226 0-21.111-17.102-38.226-38.198-38.226s-38.198 17.115-38.198 38.226c0 21.112 17.102 38.226 38.198 38.226Z"/><path fill="#FD842B" d="M168.192 133.429s7.768-8.318 11.499-8.351c3.732-.033 8.943 2.254 10.249 6.151 1.316 3.909-6.93.98-6.93.98s-5.788 8.46-10.978 8.395c-5.189-.066-3.84-7.186-3.84-7.186v.011Z"/><path fill="#E24E1B" d="M174.48 154.692s-38.296 12.499-54.06-4.072c-15.765-16.56-4.058-28.634-4.058-28.634s23.456 6.162 28.635 6.456l22.15 1.731 7.333 24.508v.011Z"/><path fill="#fff" d="M69.928 241.596a1.045 1.045 0 1 1-2.09.002 1.045 1.045 0 0 1 2.09-.002Z"/><path fill="#FD842B" d="m58.439 257.155-17.843-.784.795-19.532 15.59-.567 1.458 20.883Z"/><path fill="#1C34ED" d="M136.565 179.853s12.566 31.781 12.316 60.48c-.262 28.7-8.943 59.762-8.943 59.762l-38.133.719s6.408-30.475 6.952-37.497c.544-7.012 1.98-51.444 1.98-51.444l.413-30.191 25.426-1.84-.011.011Z"/><path fill="#1C34ED" d="M88.412 179.853s1.044 15.515-1.545 26.925c-2.578 11.356-10.858 21.405-19.398 24.203-8.54 2.798-16.863 1.731-16.863 1.731l-1.1 33.164s28.842 7.741 49.1-4.954c20.258-12.695 18.952-39.141 18.952-39.141l1.502-42.646-30.659.718h.011Z"/><path fill="#E24E1B" d="M103.622 120.211c14.752-1.393 27.003 8.667 29.005 22.94l1.185 8.493s3.874 28.198 3.232 29.287c-.642 1.089-14.035 3.898-26.982 3.277-12.946-.62-21.128-2.809-21.77-3.277-.642-.468 1.284-58.433 1.284-58.901 0-.229 6.125-1.078 14.035-1.819h.011Z"/><path fill="#0002BB" d="M109.758 249.936a.443.443 0 0 1-.251-.087.387.387 0 0 1-.065-.555c18.267-23.136 9.672-57.16 9.585-57.508a.434.434 0 0 1 .054-.327.387.387 0 0 1 .283-.163l11.576-1.122a.401.401 0 0 1 .435.36.4.4 0 0 1-.359.435l-11.119 1.078c.958 4.148 7.518 35.755-9.835 57.747a.4.4 0 0 1-.315.153l.011-.011ZM91.872 191.873h-.414a.387.387 0 0 1-.38-.414c0-.217.184-.381.391-.381 6.843.175 7.485-4.747 7.507-4.964a.393.393 0 0 1 .435-.349c.218.022.37.218.348.436 0 .054-.685 5.672-7.898 5.672h.01ZM85.573 229.01c-.436 0-.85-.141-1.24-.424-2.35-1.688-3.232-8.21-3.265-8.482a.403.403 0 0 1 .218-.414.398.398 0 0 1 .457.077c.99 1.023 5.93 6.26 5.276 8.35-.098.316-.359.719-1.044.85-.13.021-.261.043-.392.043h-.01Zm-3.515-7.73c.425 2.21 1.338 5.651 2.731 6.663.326.24.664.327 1.023.251.37-.077.424-.24.446-.305.348-1.1-2.122-4.312-4.2-6.609Z"/><path fill="#FFB700" d="M23.07 232.037c-1.273.61-.74 9.113-.99 9.821-.25.718 4.504 3.135 3.666 4.464-.827 1.328-3.242 2.852-4.44 4.801-1.12 1.829-3.154 33-2.762 39.086.032.501.5.882 1.044.828 1.349-.131 3.971-.469 6.615-1.296 2.382-.751 4.809-1.894 6.342-3.658 4.026-4.562 6.191-14.59 8.9-18.084 2.709-3.517 8.91-7.208 7.953-9.483-.968-2.276-5.82-6.783-4.667-12.706 1.153-5.923 2.817-8.58 1.457-10.3-.848-1.078-9.356-2.417-15.808-3.103-3.786-.413-6.864-.599-7.332-.37h.021Z"/><path fill="#0002BB" d="M107.397 101.332s7.452.36 7.877-6.804c.446-7.622-6.593-8.351-9.585-5.27-2.992 3.081-2.437 6.217-2.437 6.217s-2.089-1.884-4.363.425c-1.664 1.698-.805 4.463-.805 4.463s-3.84-.152-3.492 3.212c.359 3.364 2.763 5.063 2.763 5.063l10.042-7.317v.011Z"/><path fill="#FD842B" d="m100.575 114.506.773 7.926s1.654 2.145 6.321 2.058c3.481-.055 4.613-.958 4.613-.958l-.871-3.974-.859-3.865-8.551-1.024-1.437-.174.011.011Z"/><path fill="#000" d="M102.011 114.68c.044.218.153.457.305.741 2.165 3.788 7.094 4.169 9.106 4.148l-.859-3.865-8.552-1.024Z"/><path fill="#FD842B" d="M110.563 97.456s5.135 9.538 4.025 15.221c-1.099 5.683-6.234 5.226-9.345 4.399-3.112-.828-4.668-2.57-4.668-2.57s-2.752 1.187-4.852-1.285c-2.11-2.471-1.186-5.596.37-6.412 1.556-.828 3.569.185 3.569.185l-1.741-2.755s5.135-15.123 12.642-6.783Z"/><path fill="#000" d="M99.76 111.381a.437.437 0 0 1-.196-.054l-3.82-2.221a.401.401 0 0 1-.14-.544.403.403 0 0 1 .543-.142l3.82 2.221c.184.109.249.348.141.544a.393.393 0 0 1-.349.196Z"/><path fill="#000" d="M96.496 111.654a.385.385 0 0 1-.37-.262.4.4 0 0 1 .239-.511l2.296-.839a.4.4 0 0 1 .272.752l-2.296.838s-.087.022-.13.022h-.011ZM104.307 102.366a.357.357 0 0 1-.207-.065.403.403 0 0 1-.13-.544c.968-1.546 2.469-1.427 3.133-1.144.207.088.294.316.207.523a.405.405 0 0 1-.522.218c-.131-.055-1.328-.49-2.155.838a.399.399 0 0 1-.337.185l.011-.011ZM111.955 101.245a.394.394 0 0 1-.217-.065c-.871-.588-1.665-.011-1.676 0a.4.4 0 0 1-.555-.087.4.4 0 0 1 .088-.556c.054-.032 1.262-.903 2.578 0 .185.12.228.371.109.556a.387.387 0 0 1-.327.174v-.022ZM110.889 110.271h-.076a.396.396 0 0 1-.315-.468c.565-2.918-1.078-4.78-1.154-4.856a.41.41 0 0 1 .033-.566.403.403 0 0 1 .555.022c.076.087 1.98 2.221 1.338 5.541a.397.397 0 0 1-.392.316l.011.011ZM112.293 105.056a.389.389 0 0 1-.37-.251l-.675-1.774a.395.395 0 0 1 .229-.512.394.394 0 0 1 .511.229l.675 1.774a.395.395 0 0 1-.229.512c-.043.022-.098.022-.141.022ZM107.288 105.644a.391.391 0 0 1-.37-.251l-.674-1.774a.393.393 0 0 1 .228-.512.394.394 0 0 1 .511.228l.675 1.775a.395.395 0 0 1-.229.512c-.043.022-.097.022-.141.022Z"/><path fill="#0002BB" d="M111.618 99.612s-1.012-1.513-2.992-1.328c-1.98.185-2.992 1.687-2.992 1.687s1.197 3.245-1.327 5.281c-2.524 2.036-4.645 1.742-4.645 1.742l-2.013-.501-1.708-2.711 5.048-6.63 6.919-4.573 4.047 3.016-.337 4.028v-.011Z"/><path fill="#000" d="M109.246 112.307c-.696 0-1.893-.196-2.632-1.448a.394.394 0 0 1 .141-.544.394.394 0 0 1 .544.141c.772 1.307 2.274 1.045 2.339 1.034a.398.398 0 0 1 .468.316.397.397 0 0 1-.316.468c-.021 0-.228.044-.533.044l-.011-.011Z"/><path fill="#07CBF5" d="M114.349 108.779c-1.719 0-3.123-1.589-3.123-3.527 0-1.938 1.404-3.528 3.123-3.528 1.719 0 3.122 1.59 3.122 3.528s-1.403 3.527-3.122 3.527Zm0-6.271c-1.284 0-2.328 1.23-2.328 2.733 0 1.502 1.044 2.733 2.328 2.733 1.284 0 2.328-1.231 2.328-2.733 0-1.503-1.044-2.733-2.328-2.733ZM106.711 109.552a3.532 3.532 0 0 1-3.525-3.527 3.54 3.54 0 0 1 3.525-3.528 3.54 3.54 0 0 1 3.525 3.528 3.539 3.539 0 0 1-3.525 3.527Zm0-6.271a2.733 2.733 0 0 0-2.73 2.733 2.74 2.74 0 0 0 2.73 2.733 2.74 2.74 0 0 0 2.731-2.733 2.74 2.74 0 0 0-2.731-2.733Z"/><path fill="#07CBF5" d="M111.618 105.644h-1.915a.39.39 0 0 1-.391-.392.39.39 0 0 1 .391-.392h1.915a.39.39 0 0 1 .392.392.39.39 0 0 1-.392.392ZM97.638 106.885a.413.413 0 0 1-.37-.25.39.39 0 0 1 .218-.512c2.339-.936 5.983-.501 6.136-.49.217.022.37.229.348.446a.404.404 0 0 1-.446.349c-.033 0-3.601-.425-5.745.435a.344.344 0 0 1-.152.033l.01-.011Z"/><path fill="#fff" d="M142.734 137.653c-.077 0-.153 0-.229-.011-.653-.087-.957-.457-1.099-.762-.957-2.069 2.818-7.991 3.242-8.655a.405.405 0 0 1 .436-.164.395.395 0 0 1 .293.359c.044.708.403 6.99-1.457 8.754a1.68 1.68 0 0 1-1.186.49v-.011Zm1.904-7.904c-1.437 2.417-3.014 5.705-2.514 6.794.055.119.164.272.479.304a.906.906 0 0 0 .773-.261c1.109-1.045 1.294-4.584 1.262-6.837Z"/><path fill="#000" d="M173.806 140.68c-.882 0-1.828-.196-2.807-.686a.412.412 0 0 1-.185-.534.411.411 0 0 1 .533-.185c4.7 2.319 8.453-2.907 8.497-2.961a.41.41 0 0 1 .555-.098c.174.131.217.37.098.555-.033.044-2.796 3.898-6.691 3.898v.011Z"/><path fill="#fff" d="M102.153 128.845h-.174a1.447 1.447 0 0 1-1.11-.642c-1.066-1.535-.022-5.433.098-5.869a.397.397 0 0 1 .62-.217c.044.032 4.7 3.364 10.564 1.056a.417.417 0 0 1 .305 0 .37.37 0 0 1 .207.218c.446 1.164 1.338 3.941.108 4.463-1.033.436-3.688-1.633-5.059-2.798-.837.958-3.481 3.789-5.559 3.789Zm-.555-5.77c-.315 1.339-.707 3.767-.087 4.671a.674.674 0 0 0 .522.304c1.502.12 3.732-2.003 4.885-3.288a12.616 12.616 0 0 1-5.331-1.687h.011Zm7.017 1.698c1.763 1.448 3.471 2.515 3.852 2.363.283-.12.152-1.481-.403-3.081a12.371 12.371 0 0 1-3.438.718h-.011Z"/><path fill="#0002BB" d="m181.579 160.748-55.773-24.13-24.112 55.814 55.773 24.13 24.112-55.814Z"/><path fill="#FD842B" d="M113.892 152.776c1.621.229 4.722 2.918 4.722 2.918s5.798 1.241 6.103 3.016c.305 1.774-2.502 3.495-2.502 3.495s1.392 3.669 1.033 5.019-1.294 7.817-4.743 9.189c-3.449 1.361-17.571-5.237-17.571-5.237l-.424-14.404s11.772-4.225 13.393-3.996h-.011Z"/><path fill="#000" d="M118.614 156.086h-6.996a.391.391 0 1 1 0-.784h6.996a.39.39 0 0 1 .391.392.39.39 0 0 1-.391.392Z"/><path fill="#E24E1B" d="M89.587 122.029s-31.91 8.983-31.268 34.372c.642 25.39 43.779 21.209 43.779 21.209v-23.463l-12.511-32.118Z"/><path fill="#fff" d="M101.631 153.603s-.066 0-.109-.011c-.142-.032-14.002-3.789-25.709-5.324a.393.393 0 0 1-.337-.446.394.394 0 0 1 .446-.338c11.761 1.546 25.676 5.314 25.817 5.346a.404.404 0 0 1 .283.49.394.394 0 0 1-.38.294l-.011-.011Z"/><path fill="#fff" d="M85.888 149.967s-.076 0-.12-.022c-.87-.272-8.518-2.733-9.106-5.095-.076-.327-.076-.828.403-1.307.391-.392.892-.577 1.48-.533 2.915.196 7.452 6.064 7.648 6.314a.378.378 0 0 1 0 .469.4.4 0 0 1-.327.174h.022Zm-7.485-6.173c-.316 0-.566.098-.773.304-.239.24-.228.425-.195.556.315 1.263 4.22 3.026 7.289 4.104-1.632-1.927-4.46-4.845-6.223-4.964h-.098ZM101.631 177.795H87.737a.393.393 0 0 1-.391-.403c0-.228.174-.392.391-.392h13.894a.39.39 0 0 1 .391.392.4.4 0 0 1-.391.403Z"/><path fill="#FD842B" d="M246.361 94.277s-10.455-.326-8.04 2.493c2.416 2.82 8.628 3.016 8.628 3.016s3.438-3.941-.598-5.509h.01Z"/></g><defs><clipPath id="b"><path fill="#fff" d="M18.5 73.732h367v257h-367z"/></clipPath></defs></svg>