<svg xmlns="http://www.w3.org/2000/svg" width="25" height="25" fill="none"><path fill="#fff" stroke="#fff" stroke-width=".2" d="M7.022 8.58c0 1.851.945 3.473 2.366 4.409-3.113 1.16-5.345 4.21-5.345 7.786 0 .488.383.884.866.884a.872.872 0 0 0 .866-.884c0-3.597 2.86-6.52 6.368-6.52 3.509 0 6.368 2.923 6.368 6.52 0 .488.383.884.866.884a.872.872 0 0 0 .866-.884c0-3.575-2.232-6.627-5.345-7.786a5.266 5.266 0 0 0 2.367-4.409c0-2.884-2.298-5.239-5.122-5.239-2.823 0-5.121 2.355-5.121 5.24Zm5.121-3.47c1.866 0 3.39 1.555 3.39 3.47 0 1.916-1.524 3.472-3.39 3.472s-3.39-1.556-3.39-3.472c0-1.915 1.524-3.47 3.39-3.47Z"/></svg>