<svg width="43" height="42" viewBox="0 0 43 42" fill="none" xmlns="http://www.w3.org/2000/svg">
<path d="M27.8713 31.0989C27.5825 31.1131 27.3036 30.9934 27.1024 30.7724C26.9015 30.5517 26.7963 30.2505 26.8089 29.9433C26.8213 29.6372 26.9501 29.3485 27.1667 29.1486L33.6019 22.0712H7.82836V22.0714L7.82244 22.0711C7.46741 22.05 7.15124 21.8304 6.98345 21.4968C6.81554 21.1639 6.81554 20.7606 6.98345 20.4277C7.15165 20.0942 7.46729 19.8745 7.82244 19.8534L7.82243 19.8532H7.82836H33.6015L27.1536 12.7808L27.1536 12.7808L27.1521 12.779C26.9694 12.5689 26.8687 12.2909 26.8687 12.0039C26.8687 11.7169 26.9694 11.4389 27.1521 11.2288L27.1521 11.2288L27.1535 11.2272C27.3425 11.019 27.6014 10.9 27.8734 10.9C28.1453 10.9 28.4042 11.019 28.5933 11.2272L36.7553 20.1937C36.7555 20.1939 36.7557 20.1941 36.7559 20.1944C36.9492 20.3992 37.0575 20.6798 37.0575 20.9719C37.0575 21.2638 36.9497 21.5445 36.7558 21.7494C36.7556 21.7497 36.7554 21.7499 36.7552 21.7501L28.6062 30.7023C28.4246 30.9393 28.1589 31.0852 27.8713 31.0989ZM27.8713 31.0989C27.8713 31.0989 27.8713 31.0989 27.8714 31.0989L27.8665 30.999L27.8712 31.0989C27.8712 31.0989 27.8712 31.0989 27.8713 31.0989Z" fill="#fff" stroke="#fff" stroke-width="0.2"/>
</svg>
