<svg xmlns="http://www.w3.org/2000/svg" width="24" height="25" fill="none"><path fill="#787878" stroke="#787878" stroke-width=".5" d="M16.3 3.303a5.71 5.71 0 0 0-4.013 1.642l-.304.301-.303-.301a5.628 5.628 0 0 0-4.014-1.642 5.71 5.71 0 0 0-4.013 1.642A5.554 5.554 0 0 0 2 8.932c0 1.508.607 2.95 1.653 3.988.168.167 7.723 7.774 7.824 7.874a.668.668 0 0 0 .472.201.668.668 0 0 0 .473-.2l7.925-7.875A5.555 5.555 0 0 0 22 8.932a5.636 5.636 0 0 0-1.653-3.987A5.764 5.764 0 0 0 16.3 3.303Zm3.07 8.712-7.454 7.405a3951.676 3951.676 0 0 0-7.353-7.405 4.327 4.327 0 0 1-1.281-3.05c0-1.138.438-2.244 1.281-3.048.843-.805 1.923-1.274 3.07-1.274 1.146 0 2.26.436 3.068 1.274l.776.77c.27.268.675.268.945 0l.775-.77a4.384 4.384 0 0 1 3.07-1.274c1.146 0 2.26.436 3.069 1.274a4.327 4.327 0 0 1 1.281 3.049c.034 1.14-.439 2.211-1.248 3.05Z"/></svg>