<svg xmlns="http://www.w3.org/2000/svg" width="72" height="72" fill="none"><circle cx="36" cy="36" r="35.25" stroke="#fff" stroke-width="1.5"/><path fill="#fff" d="m14.133 29.273 3.533 8.631h.14l3.534-8.63h3.27V42h-2.567v-8.332h-.105l-3.323 8.28h-1.758l-3.322-8.315h-.105V42h-2.567V29.273h3.27ZM26.7 32.455h2.602V42H26.7v-9.545Zm1.301-1.248c-.258 0-.495-.059-.712-.176a1.47 1.47 0 0 1-.518-.483 1.232 1.232 0 0 1 0-1.327c.128-.205.301-.366.518-.484.217-.123.454-.184.712-.184.252 0 .486.061.703.184.217.118.387.279.51.484a1.23 1.23 0 0 1 0 1.327c-.123.2-.293.36-.51.483a1.455 1.455 0 0 1-.703.176Zm4.851 10.951c-.269 0-.518-.064-.747-.193a1.54 1.54 0 0 1-.545-.536 1.43 1.43 0 0 1-.184-.747 1.368 1.368 0 0 1 .184-.73 1.45 1.45 0 0 1 .545-.536 1.495 1.495 0 0 1 1.468 0c.223.129.402.308.536.536.135.223.203.466.203.73 0 .27-.068.518-.203.747a1.564 1.564 0 0 1-.536.536 1.413 1.413 0 0 1-.72.193Zm0-6.697c-.269 0-.518-.064-.747-.193a1.542 1.542 0 0 1-.545-.537 1.429 1.429 0 0 1-.184-.747 1.367 1.367 0 0 1 .184-.73 1.45 1.45 0 0 1 .545-.535 1.494 1.494 0 0 1 1.468 0c.223.129.402.307.536.536.135.222.203.466.203.73 0 .269-.068.518-.203.746a1.565 1.565 0 0 1-.536.537 1.414 1.414 0 0 1-.72.193Zm7.067 6.697c-.738 0-1.4-.19-1.986-.571-.586-.387-1.05-.95-1.39-1.688-.339-.744-.509-1.631-.509-2.663 0-1.054.173-1.948.519-2.68.345-.739.811-1.292 1.397-1.661a3.603 3.603 0 0 1 1.969-.563c.72 0 1.298.167 1.731.501.44.334.765.741.976 1.222h.088v-4.782h2.601V42H42.75v-1.53h-.123a3.091 3.091 0 0 1-.984 1.205c-.44.322-1.014.483-1.723.483Zm-1.213-4.966c0 .873.173 1.574.519 2.101.351.522.852.785 1.502.791.428 0 .794-.117 1.1-.352.304-.24.535-.574.694-1.002.163-.433.246-.937.246-1.511 0-.867-.18-1.553-.537-2.057-.357-.504-.858-.756-1.503-.756-.644 0-1.142.255-1.494.765-.351.504-.527 1.178-.527 2.021Zm8.701-4.737h2.479v1.67h.105a2.646 2.646 0 0 1 1.002-1.318c.463-.317 1.014-.475 1.653-.475.65 0 1.206.161 1.67.483.462.323.773.76.931 1.31h.088c.2-.545.557-.978 1.072-1.3.516-.329 1.12-.493 1.81-.493.592 0 1.114.129 1.565.387a2.58 2.58 0 0 1 1.064 1.116c.252.486.378 1.07.378 1.749V42h-2.602v-5.906c.006-.528-.132-.929-.413-1.204-.275-.276-.636-.413-1.081-.413-.48 0-.861.155-1.143.465-.275.305-.41.712-.404 1.222V42h-2.531v-5.977c.006-.468-.13-.843-.404-1.125-.27-.28-.627-.421-1.073-.421-.293 0-.56.076-.8.228-.24.147-.427.358-.562.633-.135.27-.202.58-.202.931V42h-2.602v-9.545Z"/></svg>