<svg width="18" height="17" viewBox="0 0 18 17" fill="none" xmlns="http://www.w3.org/2000/svg">
<path d="M16.9799 1.83166C16.7638 1.60176 16.4706 1.4722 16.1652 1.4722C14.0322 1.46701 11.9345 2.05473 10.0796 3.17693L9.31711 3.6601L8.55458 3.17693C6.69915 2.05473 4.60174 1.46701 2.46867 1.4722C2.16299 1.4722 1.87011 1.60176 1.65403 1.83166C1.43795 2.06188 1.31665 2.37392 1.31665 2.69961V12.4215C1.31665 12.7471 1.43795 13.0592 1.65403 13.2894C1.87011 13.5196 2.16299 13.6489 2.46867 13.6489C4.41583 13.6489 6.32947 14.1892 8.02093 15.2172L8.67679 15.615C8.87154 15.7342 9.09219 15.7968 9.3168 15.7968C9.53898 15.7975 9.7578 15.7371 9.95133 15.6208L10.6072 15.2231C12.2996 14.1921 14.2153 13.6492 16.1646 13.6489C16.4703 13.6489 16.7632 13.5196 16.9793 13.2894C17.1954 13.0592 17.3167 12.7471 17.3167 12.4215V2.69961C17.3167 2.37392 17.1954 2.06188 16.9793 1.83166H16.9799ZM8.55427 14.2171C6.69915 13.0949 4.60174 12.5072 2.46867 12.5124C2.44612 12.5124 2.42418 12.5026 2.40833 12.4857C2.39248 12.4689 2.38334 12.4455 2.38334 12.4215V2.69961C2.38334 2.67558 2.39248 2.6522 2.40833 2.63532C2.42418 2.61843 2.44612 2.60869 2.46867 2.60869C4.41827 2.60901 6.33374 3.15161 8.02611 4.18289L8.78346 4.643V14.3561L8.55427 14.2171ZM16.2558 12.4215C16.2558 12.4455 16.2466 12.4689 16.2308 12.4857C16.2146 12.5026 16.193 12.5124 16.1704 12.5124C14.037 12.5072 11.9396 13.0949 10.0848 14.2171L9.85015 14.3593V4.643L10.6078 4.18289C12.3002 3.15193 14.2159 2.60901 16.1652 2.60869C16.1887 2.60707 16.2119 2.61616 16.2289 2.63304C16.2463 2.65025 16.2558 2.67428 16.2558 2.69961V12.4215Z" fill="#000" stroke="#000" stroke-width="0.5" stroke-linejoin="round"/>
</svg>
