<svg width="26" height="24" viewBox="0 0 26 24" fill="none" xmlns="http://www.w3.org/2000/svg">
<path d="M10.0608 20.9301C11.3351 20.9288 12.5946 20.6544 13.7541 20.1253C14.9136 19.5961 15.9455 18.8241 16.7811 17.8615C16.9117 17.7058 16.9766 17.5055 16.9613 17.3025C16.9459 17.1 16.8521 16.9111 16.6991 16.7774C16.5448 16.6441 16.3436 16.5779 16.1402 16.5928C15.9368 16.6081 15.7478 16.7041 15.615 16.8589C14.5208 18.1109 13.0378 18.9592 11.404 19.2673C9.77012 19.5751 8.07973 19.3252 6.60503 18.5572C5.13033 17.7891 3.95635 16.5476 3.2716 15.0326C2.5873 13.5176 2.43167 11.8158 2.83016 10.2017C3.22864 8.58758 4.15844 7.15409 5.46963 6.13179C6.78082 5.10949 8.39756 4.55713 10.0603 4.56371C11.1124 4.56152 12.1523 4.78509 13.1106 5.21909C14.0689 5.65308 14.9224 6.28785 15.6146 7.08C15.747 7.23519 15.9363 7.33075 16.1398 7.3461C16.3432 7.36144 16.5444 7.29524 16.6987 7.16198C16.8512 7.02783 16.9455 6.83933 16.9608 6.63636C16.9762 6.43383 16.9117 6.23305 16.7807 6.07743C15.4598 4.57116 13.6708 3.5515 11.7007 3.18238C9.7311 2.81327 7.6944 3.11619 5.91678 4.04204C4.13959 4.96833 2.72451 6.46408 1.8986 8.28992C1.07226 10.1158 0.882882 12.1665 1.36028 14.1125C1.83767 16.0584 2.95466 17.7887 4.53238 19.0245C6.1101 20.2607 8.0565 20.9314 10.0608 20.9297V20.9301Z" fill="white" stroke="white" stroke-width="0.3"/>
<path d="M22.4839 11.2125H13.0837C12.8097 11.2125 12.5564 11.3589 12.4192 11.596C12.2819 11.8332 12.2824 12.126 12.4192 12.3632C12.5559 12.6004 12.8093 12.7468 13.0837 12.7468H22.4839L20.7247 14.506C20.5813 14.6498 20.5002 14.8449 20.5002 15.0483C20.5002 15.2517 20.5809 15.4467 20.7247 15.5905C20.8684 15.7343 21.0635 15.815 21.2669 15.815C21.4703 15.815 21.6654 15.7343 21.8092 15.5905L24.8779 12.5219C24.9471 12.4509 25.0028 12.3676 25.0414 12.2764C25.1233 12.087 25.1233 11.8727 25.0414 11.6833C25.0024 11.5921 24.9471 11.5088 24.8779 11.4378L21.8092 8.36914C21.6137 8.18677 21.3366 8.11926 21.0789 8.19159C20.8211 8.26393 20.6199 8.46558 20.5476 8.72291C20.4752 8.98067 20.5423 9.25729 20.7247 9.45325L22.4843 11.2125H22.4839Z" fill="white" stroke="white" stroke-width="0.3"/>
</svg>
