<svg width="26" height="24" viewBox="0 0 26 24" fill="none" xmlns="http://www.w3.org/2000/svg">
<path d="M10.9582 20.9506C12.2326 20.9493 13.492 20.6749 14.6516 20.1458C15.8111 19.6166 16.843 18.8447 17.6786 17.882C17.8092 17.7263 17.8741 17.526 17.8587 17.323C17.8434 17.1205 17.7496 16.9316 17.5966 16.7979C17.4423 16.6646 17.2411 16.5984 17.0377 16.6133C16.8342 16.6287 16.6453 16.7247 16.5125 16.8794C15.4183 18.1314 13.9352 18.9797 12.3014 19.2879C10.6676 19.5956 8.97719 19.3457 7.50249 18.5777C6.02779 17.8096 4.85381 16.5682 4.16906 15.0531C3.48476 13.5381 3.32913 11.8363 3.72762 10.2222C4.1261 8.60809 5.0559 7.17459 6.36709 6.1523C7.67828 5.13 9.29502 4.57764 10.9578 4.58422C12.0099 4.58203 13.0497 4.8056 14.008 5.23959C14.9663 5.67359 15.8198 6.30836 16.512 7.10051C16.6444 7.25569 16.8338 7.35126 17.0372 7.3666C17.2406 7.38195 17.4418 7.31575 17.5961 7.18248C17.7487 7.04834 17.843 6.85984 17.8583 6.65687C17.8736 6.45434 17.8092 6.25356 17.6781 6.09794C16.3573 4.59167 14.5683 3.572 12.5982 3.20289C10.6286 2.83377 8.59186 3.13669 6.81424 4.06255C5.03705 4.98884 3.62197 6.48459 2.79606 8.31043C1.96972 10.1363 1.78034 12.187 2.25774 14.133C2.73513 16.0789 3.85212 17.8092 5.42984 19.045C7.00756 20.2812 8.95396 20.9519 10.9582 20.9502V20.9506Z" fill="white" stroke="white" stroke-width="0.3"/>
<path d="M12.833 12.7861L22.2332 12.7861C22.5071 12.7861 22.7605 12.6397 22.8977 12.4025C23.035 12.1653 23.0345 11.8725 22.8977 11.6353C22.761 11.3982 22.5076 11.2518 22.2332 11.2518L12.833 11.2518L14.5922 9.49254C14.7356 9.34876 14.8167 9.15368 14.8167 8.95027C14.8167 8.74686 14.736 8.55178 14.5922 8.408C14.4484 8.26421 14.2534 8.18355 14.05 8.18355C13.8466 8.18355 13.6515 8.26421 13.5077 8.408L10.439 11.4766C10.3698 11.5477 10.3141 11.631 10.2755 11.7221C10.1935 11.9115 10.1935 12.1259 10.2755 12.3153C10.3145 12.4064 10.3698 12.4897 10.439 12.5608L13.5077 15.6294C13.7032 15.8118 13.9803 15.8793 14.238 15.8069C14.4958 15.7346 14.697 15.533 14.7693 15.2756C14.8417 15.0179 14.7746 14.7412 14.5922 14.5453L12.8326 12.7861L12.833 12.7861Z" fill="white" stroke="white" stroke-width="0.3"/>
</svg>
