<svg xmlns="http://www.w3.org/2000/svg" width="27" height="25" fill="none"><path fill="#838383" stroke="#838383" stroke-width=".3" d="M10.204 21.43a8.919 8.919 0 0 0 6.72-3.068.778.778 0 0 0-.082-1.084.769.769 0 0 0-1.084.081 7.42 7.42 0 0 1-9.01 1.698 7.419 7.419 0 0 1-3.775-8.355 7.415 7.415 0 0 1 7.23-5.638 7.356 7.356 0 0 1 5.555 2.516.766.766 0 0 0 1.346-.444.777.777 0 0 0-.18-.558 8.949 8.949 0 0 0-15.42 8.035 8.948 8.948 0 0 0 8.7 6.817Z"/><path fill="#838383" stroke="#838383" stroke-width=".3" d="M22.627 11.713h-9.4a.768.768 0 0 0 0 1.534h9.4l-1.759 1.76a.769.769 0 0 0 .542 1.308c.204 0 .399-.08.543-.224l3.068-3.069a.798.798 0 0 0 .164-.245.746.746 0 0 0 0-.593.805.805 0 0 0-.164-.246l-3.069-3.069a.767.767 0 0 0-1.084 1.084l1.76 1.76Z"/></svg>