<svg width="18" height="20" viewBox="0 0 18 20" fill="none" xmlns="http://www.w3.org/2000/svg">
<path d="M16.2464 20H12.1756C11.6354 20 11.1971 19.5626 11.1971 19.0226V14.5055C11.1971 14.1223 10.8862 13.8116 10.5025 13.8116H7.49663C7.11301 13.8116 6.80202 14.1223 6.80202 14.5055V19.0226C6.80202 19.5622 6.36414 20 5.82357 20H1.75321C0.794787 20 0 19.2061 0 18.2487V8.39463C0 7.78751 0.257137 7.20374 0.677906 6.76007L0.701282 6.73672L7.69115 0.525394C8.41581 -0.175131 9.60799 -0.175131 10.3326 0.525394L17.3221 6.76007C17.7662 7.18038 18 7.78751 18 8.39463V18.2487C18 19.2294 17.2286 20 16.2468 20H16.2464Z" fill="#9E9E9E"/>
</svg>
