<svg xmlns="http://www.w3.org/2000/svg" width="17" height="17" fill="none"><path fill="#000" stroke="#060606" stroke-width=".5" d="M14.52 9.676c-.208 0-.378.175-.378.393v3.044c0 .65-.51 1.178-1.138 1.178H3.996c-.627 0-1.137-.528-1.137-1.178v-3.044a.386.386 0 0 0-.38-.393c-.209 0-.379.175-.379.393v3.044c0 1.083.85 1.964 1.896 1.964h9.008c1.046 0 1.896-.881 1.896-1.964v-3.044a.386.386 0 0 0-.38-.393Z"/><path fill="#000" stroke="#060606" stroke-width=".3" d="M8.83 1.622a.446.446 0 0 0-.032-.032l-.002-.001-.011-.01a.464.464 0 0 0-.037-.027l-.003-.001a.49.49 0 0 0-.037-.022l-.003-.002a.477.477 0 0 0-.038-.017l-.003-.001a.412.412 0 0 0-.083-.024h-.002a.418.418 0 0 0-.042-.006h-.002a.388.388 0 0 0-.035-.002l-.035.002h-.002a.418.418 0 0 0-.042.006h-.002a.405.405 0 0 0-.085.024h-.001a.417.417 0 0 0-.04.02h-.001a.467.467 0 0 0-.125.095L5.525 4.453a.49.49 0 0 0 .01.675.45.45 0 0 0 .652-.011L8.04 3.134v7.5a.47.47 0 0 0 .46.477c.256 0 .462-.213.462-.477v-7.5l1.851 1.982a.45.45 0 0 0 .652.011.49.49 0 0 0 .01-.675l-2.643-2.83Z"/></svg>