<svg width="24" height="24" viewBox="0 0 24 24" fill="none" xmlns="http://www.w3.org/2000/svg">
<path d="M18.4866 0.294922H6.18662C4.28662 0.294922 2.78662 1.79492 2.78662 3.59492V21.6949C2.78662 22.2949 3.08662 22.7949 3.68662 23.0949C4.28662 23.3949 4.88662 23.3949 5.38662 22.9949L12.0866 18.4949C12.1866 18.3949 12.2866 18.3949 12.4866 18.4949L19.1866 22.9949C19.4866 23.1949 19.7866 23.2949 20.0866 23.2949C20.3866 23.2949 20.6866 23.1949 20.8866 23.0949C21.3866 22.7949 21.7866 22.2949 21.7866 21.6949V3.59492C21.7866 1.79492 20.3866 0.294922 18.4866 0.294922ZM19.6866 3.59492V20.8949L13.6866 16.8949C13.2866 16.5949 12.7866 16.4949 12.2866 16.4949C11.7866 16.4949 11.2866 16.5949 10.8866 16.8949L4.88662 20.8949V3.59492C4.88662 2.99492 5.38662 2.39492 6.08662 2.39492H18.4866C19.1866 2.39492 19.6866 2.89492 19.6866 3.59492Z" fill="black"/>
</svg>
