<svg xmlns="http://www.w3.org/2000/svg" width="30" height="31" fill="none"><path fill="#000" d="M23.372 4.027H6.647c-.934 0-1.83.375-2.49 1.04A3.57 3.57 0 0 0 3.125 7.58v9.85a3.57 3.57 0 0 0 1.032 2.512 3.506 3.506 0 0 0 2.49 1.04h6.015v3.769a1.77 1.77 0 0 0 .273.957c.181.286.44.513.745.653.232.11.486.166.742.166a1.75 1.75 0 0 0 1.127-.42l6.044-5.122h1.76c.935 0 1.83-.374 2.49-1.04a3.567 3.567 0 0 0 1.032-2.512V7.58c0-.939-.369-1.84-1.025-2.506a3.506 3.506 0 0 0-2.478-1.047Zm1.173 13.4c0 .314-.123.615-.343.837-.22.222-.52.347-.83.347H21.17c-.276 0-.543.1-.754.279l-5.408 4.585v-3.677a1.19 1.19 0 0 0-.344-.837 1.168 1.168 0 0 0-.83-.347H6.647c-.312 0-.61-.125-.83-.347a1.19 1.19 0 0 1-.344-.837V7.58c0-.314.124-.615.344-.837.22-.222.518-.347.83-.347h16.725c.31 0 .61.125.83.347.22.222.343.523.343.837v9.847Z"/></svg>