<svg width="60" height="60" viewBox="0 0 60 60" fill="none" xmlns="http://www.w3.org/2000/svg">
<path d="M46.7429 7.5H13.2926C11.4252 7.5 9.63429 8.24859 8.31284 9.58083C6.99243 10.9141 6.25049 12.7211 6.25049 14.6053V34.3044C6.25049 36.1886 6.99243 37.9966 8.31284 39.3288C9.63324 40.6611 11.4252 41.4097 13.2926 41.4097H25.323V48.9474C25.3188 49.6251 25.5085 50.2902 25.87 50.8611C26.2316 51.4332 26.7482 51.8867 27.3592 52.168C27.8244 52.3869 28.3306 52.5 28.8441 52.5C29.6699 52.4947 30.4673 52.1976 31.0972 51.6594L43.1862 41.416H46.7073C48.5747 41.416 50.3656 40.6674 51.6871 39.3352C53.0085 38.0029 53.7494 36.1949 53.7494 34.3107V14.6053C53.7494 12.7274 53.0117 10.9247 51.6997 9.59351C50.3866 8.26234 48.6051 7.50952 46.7429 7.5ZM49.0903 34.2991C49.0903 34.9272 48.843 35.5298 48.4028 35.9739C47.9627 36.418 47.3654 36.6675 46.7429 36.6675H42.3416C41.7893 36.6675 41.2559 36.8663 40.8336 37.2247L30.0178 46.396V39.0423C30.0178 38.4142 29.7705 37.8116 29.3303 37.3675C28.8902 36.9234 28.2929 36.6739 27.6704 36.6739H13.2926C12.6702 36.6739 12.0728 36.4243 11.6327 35.9803C11.1926 35.5362 10.9453 34.9335 10.9453 34.3055V14.6053C10.9453 13.9772 11.1926 13.3745 11.6327 12.9305C12.0728 12.4864 12.6702 12.2368 13.2926 12.2368H46.7429C47.3654 12.2368 47.9627 12.4864 48.4028 12.9305C48.843 13.3745 49.0903 13.9772 49.0903 14.6053V34.2991Z" fill="#787878"/>
</svg>
