<svg width="20" height="20" viewBox="0 0 20 20" fill="none" xmlns="http://www.w3.org/2000/svg">
<path d="M16.5 11.7333V14.1786C16.5 14.7943 16.2554 15.3847 15.82 15.82C15.3846 16.2554 14.7943 16.5 14.1786 16.5H5.82143C5.20565 16.5 4.61535 16.2554 4.17998 15.82C3.74461 15.3847 3.5 14.7943 3.5 14.1786V5.82144C3.5 5.20566 3.74461 4.61536 4.17998 4.17999C4.61535 3.74462 5.20565 3.50001 5.82143 3.50001H8.26666C8.43248 3.50001 8.58583 3.58862 8.66887 3.73215C8.75191 3.87568 8.75164 4.05291 8.66887 4.19644C8.58609 4.33997 8.43274 4.42858 8.26666 4.42858H5.82143C5.45186 4.42858 5.09767 4.57529 4.83661 4.83662C4.57555 5.09795 4.42857 5.45213 4.42857 5.82144V14.1786C4.42857 14.5481 4.57528 14.9023 4.83661 15.1634C5.09794 15.4244 5.45212 15.5714 5.82143 15.5714H14.1786C14.5481 15.5714 14.9023 15.4247 15.1636 15.1634C15.4247 14.9021 15.5717 14.5479 15.5717 14.1786V11.7333C15.5717 11.5675 15.6603 11.4142 15.8038 11.3311C15.9474 11.2481 16.1246 11.2484 16.2681 11.3311C16.4116 11.4139 16.5 11.5673 16.5 11.7333ZM11.919 4.42858H14.9166L9.67022 9.67023C9.5824 9.75752 9.53279 9.87611 9.53279 10C9.53279 10.1239 9.58214 10.2425 9.67022 10.3298C9.75751 10.4176 9.8761 10.4672 10 10.4672C10.1239 10.4672 10.2425 10.4179 10.3298 10.3298L15.5714 5.08787V8.08096C15.5714 8.20406 15.6202 8.32212 15.7073 8.40941C15.7943 8.49669 15.9123 8.54524 16.0357 8.54524C16.1591 8.54524 16.2769 8.49643 16.3642 8.40941C16.4514 8.32239 16.5 8.20433 16.5 8.08096V3.96429C16.5008 3.84093 16.4522 3.72234 16.3655 3.63452C16.2777 3.54776 16.1591 3.49921 16.0357 3.50001H11.919C11.7532 3.50001 11.5999 3.58862 11.5168 3.73215C11.4338 3.87568 11.4341 4.05291 11.5168 4.19644C11.5996 4.33997 11.753 4.42858 11.919 4.42858Z" fill="white" stroke="white" stroke-width="0.2"/>
</svg>
