<svg width="24" height="24" viewBox="0 0 24 24" fill="none" xmlns="http://www.w3.org/2000/svg">
<path d="M21.005 13.7087C20.4823 13.7087 20.0584 14.1305 20.0584 14.6507V19.8987C20.0584 20.0183 19.9601 20.1161 19.84 20.1161H4.11167C3.99152 20.1161 3.89322 20.0183 3.89322 19.8987V4.24775C3.89322 4.1282 3.99152 4.03038 4.11167 4.03038H9.31282C9.83554 4.03038 10.2594 3.60857 10.2594 3.08842C10.2594 2.56828 9.83554 2.14647 9.31282 2.14647H4.11167C2.94713 2.14647 2 3.08894 2 4.24775V19.8987C2 21.0575 2.94713 22 4.11167 22H19.84C21.0045 22 21.9516 21.0575 21.9516 19.8987V14.6507C21.9516 14.1305 21.5277 13.7087 21.005 13.7087ZM22 2.94144C22 2.87985 21.9938 2.81826 21.9818 2.75771C21.9756 2.72769 21.9641 2.70026 21.9558 2.67127C21.9469 2.64125 21.9402 2.61124 21.9277 2.58174C21.9131 2.54654 21.8934 2.51497 21.8747 2.48185C21.8627 2.46114 21.8544 2.43941 21.8408 2.41974C21.806 2.36798 21.7659 2.31985 21.7217 2.27586C21.7217 2.27586 21.7217 2.27534 21.7212 2.27482C21.715 2.26861 21.7077 2.26447 21.7009 2.25826C21.6619 2.22203 21.6219 2.18787 21.5771 2.15837C21.5537 2.14285 21.5277 2.13146 21.5028 2.118C21.4731 2.10196 21.4456 2.08488 21.4143 2.07194C21.3826 2.059 21.3493 2.05124 21.3166 2.04192C21.29 2.03468 21.2646 2.02381 21.2375 2.01863C21.185 2.00828 21.1314 2.00414 21.0778 2.00259C21.0695 2.00259 21.0617 2 21.0539 2H14.5005C13.9777 2 13.5538 2.42181 13.5538 2.94196C13.5538 3.4621 13.9777 3.88391 14.5005 3.88391H18.78L8.85616 13.8454C8.4874 14.2144 8.49 14.8106 8.86084 15.1775C9.04548 15.3602 9.28682 15.4513 9.52763 15.4513C9.76844 15.4513 10.0145 15.3587 10.1991 15.1729L20.1068 5.22853V9.46474C20.1068 9.98489 20.5307 10.4067 21.0534 10.4067C21.5761 10.4067 22 9.98489 22 9.46474V2.94351C22 2.94351 22 2.94196 22 2.94144Z" fill="white"/>
</svg>
