<svg xmlns="http://www.w3.org/2000/svg" width="28" height="27" fill="none"><path fill="#000" d="M21.722 3.374H6.67c-.84 0-1.647.337-2.241.936A3.213 3.213 0 0 0 3.5 6.571v8.865c0 .848.334 1.662.928 2.261.594.6 1.4.936 2.24.936h5.414v3.392c-.002.305.084.605.246.862.163.257.396.461.67.588.21.098.438.149.669.149.372-.002.73-.136 1.014-.378l5.44-4.61h1.584c.84 0 1.647-.337 2.241-.936a3.21 3.21 0 0 0 .928-2.261V6.57c0-.845-.332-1.656-.922-2.255a3.155 3.155 0 0 0-2.23-.942Zm1.057 12.06c0 .282-.112.554-.31.753-.198.2-.467.312-.747.312h-1.98c-.249 0-.489.09-.679.251l-4.867 4.127v-3.309c0-.283-.111-.554-.31-.754a1.052 1.052 0 0 0-.746-.312H6.67c-.28 0-.55-.112-.747-.312a1.07 1.07 0 0 1-.31-.754V6.572c0-.282.112-.553.31-.753.198-.2.467-.312.747-.312h15.052c.28 0 .55.112.747.312.198.2.31.47.31.753v8.863Z"/></svg>