<svg xmlns="http://www.w3.org/2000/svg" width="60" height="60" fill="none"><path fill="#787878" d="M47.718 19.508 36.89 8.542A3.49 3.49 0 0 0 34.408 7.5H18.28a6.995 6.995 0 0 0-4.972 2.08 7.148 7.148 0 0 0-2.059 5.025v30.79c0 1.884.741 3.691 2.06 5.024A6.991 6.991 0 0 0 18.28 52.5H41.72a7 7 0 0 0 4.972-2.08 7.142 7.142 0 0 0 2.059-5.025V22.019c0-.942-.372-1.845-1.032-2.51v-.001Zm-13.03-8.171L44.94 21.71h-6.738a3.497 3.497 0 0 1-2.486-1.04 3.571 3.571 0 0 1-1.03-2.512v-6.821Zm7.03 37.61H18.282a3.5 3.5 0 0 1-2.486-1.04 3.567 3.567 0 0 1-1.03-2.512v-30.79c0-.942.371-1.845 1.03-2.512a3.493 3.493 0 0 1 2.486-1.04h12.891v7.105c0 1.885.741 3.691 2.06 5.024a6.997 6.997 0 0 0 4.971 2.08h7.031v20.133c0 .942-.37 1.845-1.03 2.512a3.493 3.493 0 0 1-2.485 1.04Z"/><path fill="#787878" d="M24.503 40.832a1.716 1.716 0 0 0 2.428 0l3.079-3.08 3.08 3.08c.436.42 1.06.58 1.647.42a1.72 1.72 0 0 0 .78-2.85l-3.078-3.078 3.079-3.08a1.72 1.72 0 0 0-2.428-2.429l-3.08 3.08-3.08-3.08a1.72 1.72 0 0 0-2.849.782c-.16.585 0 1.21.421 1.648l3.08 3.079-3.08 3.079a1.716 1.716 0 0 0 .001 2.429Z"/></svg>