<svg xmlns="http://www.w3.org/2000/svg" width="25" height="24" fill="none"><path fill="#000" stroke="#000" stroke-width=".2" d="m3.964 18.2.054-.001 4.095-.313a.71.71 0 0 0 .45-.206L21.104 7.308l.01-.01a.725.725 0 0 0 .21-.514.721.721 0 0 0-.206-.51L17.63 2.22l-.007-.007a.71.71 0 0 0-1.01-.006L3.776 12.817l-.011.01a.726.726 0 0 0-.208.459l-.31 4.135a.724.724 0 0 0 .716.78h.001Zm.778-1.513.227-3.016L17.096 3.75l2.495 3.015-11.844 9.692-3.005.23ZM21.246 20.549H3.682a.723.723 0 0 0-.719.725c0 .4.323.726.719.726h17.564a.723.723 0 0 0 .718-.726c0-.4-.322-.725-.718-.725Z"/></svg>