<svg xmlns="http://www.w3.org/2000/svg" width="24" height="25" fill="none"><path fill="#000" stroke="#000" stroke-width=".2" d="M6.879 8.358c0 1.851.945 3.473 2.366 4.408-3.113 1.16-5.345 4.211-5.345 7.786 0 .489.383.884.866.884a.872.872 0 0 0 .866-.884c0-3.596 2.86-6.52 6.368-6.52 3.509 0 6.368 2.924 6.368 6.52 0 .489.383.884.866.884a.872.872 0 0 0 .866-.884c0-3.575-2.232-6.626-5.345-7.786a5.266 5.266 0 0 0 2.366-4.408c0-2.884-2.298-5.24-5.121-5.24-2.823 0-5.121 2.356-5.121 5.24ZM12 4.887c1.866 0 3.39 1.555 3.39 3.47 0 1.916-1.524 3.472-3.39 3.472s-3.39-1.556-3.39-3.471c0-1.916 1.524-3.471 3.39-3.471Z"/></svg>