<svg width="61" height="61" viewBox="0 0 61 61" fill="none" xmlns="http://www.w3.org/2000/svg">
<circle opacity="0.15" cx="30.6667" cy="30.7236" r="21.375" fill="#00D1FF"/>
<path d="M30.6667 20.9736C26.1196 20.9736 22.4167 24.7245 22.4167 29.3305C22.4173 31.8621 23.6658 34.1444 25.587 35.722C25.337 36.3552 25.0544 37.0054 24.6076 37.6476C24.4512 37.8725 24.4204 38.1633 24.5263 38.416C24.6323 38.6692 24.8599 38.8487 25.1284 38.8913C27.1467 39.2087 28.6071 38.5778 29.6122 37.5948C29.9621 37.6414 30.3141 37.6868 30.6667 37.688C35.2139 37.688 38.9167 33.9371 38.9167 29.3311C38.9167 24.725 35.2139 20.9736 30.6667 20.9736ZM34.5972 31.644C34.4492 31.794 34.2485 31.8774 34.0394 31.8769H27.2958C27.0878 31.8769 26.8876 31.7923 26.7408 31.6423C26.5939 31.4924 26.5115 31.2897 26.5126 31.0784C26.5143 30.6412 26.8641 30.2874 27.2958 30.2862H34.0394C34.2474 30.2857 34.4475 30.3686 34.595 30.5168C34.743 30.6656 34.8259 30.8672 34.8271 31.0779C34.8282 31.2897 34.7452 31.4936 34.5972 31.6435V31.644ZM34.595 28.1431C34.447 28.2919 34.2474 28.3748 34.0394 28.3736H27.2958C26.8641 28.3725 26.5143 28.0193 26.5126 27.5815C26.512 27.3708 26.5939 27.1675 26.7408 27.0175C26.8876 26.8682 27.0872 26.7836 27.2958 26.783H34.0394C34.2485 26.7824 34.4492 26.8659 34.5972 27.0158C34.7452 27.1658 34.8276 27.3691 34.8271 27.5809C34.8265 27.7916 34.743 27.9937 34.595 28.1419V28.1431Z" fill="#00D1FF"/>
</svg>
