<svg width="643" height="260" viewBox="0 0 643 260" fill="none" xmlns="http://www.w3.org/2000/svg">
<path d="M643 0H0V260H643V0Z" fill="black"/>
<mask id="mask0_1455_33823" style="mask-type:alpha" maskUnits="userSpaceOnUse" x="273" y="0" width="370" height="260">
<path d="M643 0H273V260H643V0Z" fill="black"/>
</mask>
<g mask="url(#mask0_1455_33823)">
<path d="M516.759 64.3997V144.137C516.759 146.557 514.724 148.537 512.216 148.537H367.594C365.099 148.537 363.063 146.557 363.063 144.137V64.3997C363.063 61.9799 365.099 60 367.594 60H512.216C514.724 60 516.759 61.9799 516.759 64.3997Z" fill="#40398D"/>
<path d="M516.759 65.2537V70.818H363.063V65.2537C363.063 62.3551 365.099 60 367.594 60H512.216C514.724 60 516.759 62.3551 516.759 65.2537Z" fill="#EDEDED"/>
<path d="M388.274 67.9803C389.718 67.9803 390.888 66.8274 390.888 65.4052C390.888 63.983 389.718 62.8301 388.274 62.8301C386.831 62.8301 385.661 63.983 385.661 65.4052C385.661 66.8274 386.831 67.9803 388.274 67.9803Z" fill="#FFB904"/>
<path d="M379.911 67.9803C381.354 67.9803 382.524 66.8274 382.524 65.4052C382.524 63.983 381.354 62.8301 379.911 62.8301C378.468 62.8301 377.298 63.983 377.298 65.4052C377.298 66.8274 378.468 67.9803 379.911 67.9803Z" fill="#E64218"/>
<path d="M371.562 67.9803C373.005 67.9803 374.175 66.8274 374.175 65.4052C374.175 63.983 373.005 62.8301 371.562 62.8301C370.118 62.8301 368.948 63.983 368.948 65.4052C368.948 66.8274 370.118 67.9803 371.562 67.9803Z" fill="#0017BF"/>
<path d="M504.763 101.578H471.945C471.105 101.578 470.424 102.259 470.424 103.099C470.424 103.939 471.105 104.621 471.945 104.621H504.763C505.604 104.621 506.285 103.939 506.285 103.099C506.285 102.259 505.604 101.578 504.763 101.578Z" fill="#FFB904"/>
<path d="M465.131 101.578H432.313C431.472 101.578 430.791 102.259 430.791 103.099C430.791 103.939 431.472 104.621 432.313 104.621H465.131C465.971 104.621 466.652 103.939 466.652 103.099C466.652 102.259 465.971 101.578 465.131 101.578Z" fill="#3DF130"/>
<path d="M504.763 92.1254H488.183C487.342 92.1254 486.661 92.8066 486.661 93.6469C486.661 94.4872 487.342 95.1684 488.183 95.1684H504.763C505.603 95.1684 506.285 94.4872 506.285 93.6469C506.285 92.8066 505.603 92.1254 504.763 92.1254Z" fill="#3DF130"/>
<path d="M449.917 119.586H433.337C432.497 119.586 431.815 120.267 431.815 121.107C431.815 121.948 432.497 122.629 433.337 122.629H449.917C450.758 122.629 451.439 121.948 451.439 121.107C451.439 120.267 450.758 119.586 449.917 119.586Z" fill="#FFB904"/>
<path d="M482.305 92.1254H440.043C439.203 92.1254 438.521 92.8066 438.521 93.6469C438.521 94.4872 439.203 95.1684 440.043 95.1684H482.305C483.145 95.1684 483.826 94.4872 483.826 93.6469C483.826 92.8066 483.145 92.1254 482.305 92.1254Z" fill="#E64218"/>
<path d="M504.763 110.582H423.41C422.57 110.582 421.889 111.263 421.889 112.104C421.889 112.944 422.57 113.625 423.41 113.625H504.763C505.603 113.625 506.284 112.944 506.284 112.104C506.284 111.263 505.603 110.582 504.763 110.582Z" fill="#3DF130"/>
<path d="M504.763 119.586H456.138C455.297 119.586 454.616 120.267 454.616 121.107C454.616 121.948 455.297 122.629 456.138 122.629H504.763C505.603 122.629 506.285 121.948 506.285 121.107C506.285 120.267 505.603 119.586 504.763 119.586Z" fill="#3DF130"/>
<path d="M413.774 89H375V127.208H413.774V89Z" fill="#2E2C6E"/>
<path d="M405.789 109.297V107.719L398.242 104.219V106.172L403.555 108.461V108.555L398.242 110.844V112.797L405.789 109.297ZM391.305 101.156L394.945 114.703H396.695L393.039 101.156H391.305ZM382.195 109.297L389.742 112.797V110.844L384.43 108.555V108.461L389.742 106.172V104.219L382.195 107.719V109.297Z" fill="#FFB904"/>
<path d="M548.076 168.758C548.076 168.758 534.439 166.037 524.819 174.124C515.199 182.212 509.801 244.006 509.801 244.006C509.801 244.006 542.019 261.187 569.482 261.187C596.945 261.187 594.528 259.95 594.528 259.95L600.931 234.882L548.092 168.774L548.076 168.758Z" fill="#0017BF"/>
<path d="M469.455 136.529C469.455 136.529 465.516 126.648 463.413 129.462C461.31 132.277 465.108 147.122 465.108 147.122C465.108 147.122 474.1 148.514 469.455 136.529Z" fill="#FFBB87"/>
<path d="M528.429 133.156H488.176C486.72 133.156 485.54 134.319 485.54 135.754V175.419C485.54 176.854 486.72 178.017 488.176 178.017H528.429C529.885 178.017 531.066 176.854 531.066 175.419V135.754C531.066 134.319 529.885 133.156 528.429 133.156Z" fill="#F6F6F6"/>
<path d="M513.834 161.531C518.479 156.953 518.479 149.532 513.834 144.954C509.188 140.376 501.656 140.376 497.011 144.954C492.365 149.532 492.365 156.953 497.011 161.531C501.656 166.109 509.188 166.109 513.834 161.531Z" fill="#5EF939"/>
<path d="M513.555 153.382L518.326 161.516L523.081 169.634H513.555H504.029L508.8 161.516L513.555 153.382Z" fill="#E64218"/>
<path d="M478.903 174.415C478.903 174.415 488.523 165.523 488.068 160.807C487.613 156.09 485.369 145.497 485.369 145.497C485.369 145.497 494.832 135.802 494.376 133.729C493.921 131.657 486.64 134.92 486.64 134.92C486.64 134.92 494.408 127.374 494.392 124.405C494.392 121.451 490.328 122.92 490.328 122.92C490.328 122.92 490.924 119.518 488.523 119.812C486.122 120.106 471.088 130.327 466.741 135.802C462.378 141.276 467.039 155.286 466.741 157.235C466.443 159.183 463.43 163.188 463.43 163.188L478.903 174.4V174.415Z" fill="#FFBB87"/>
<path d="M461.465 157.264L490.309 171.46C490.309 171.46 486.402 182.594 495.425 185.857C504.433 189.12 514.963 174.568 526.968 170.888C538.989 167.208 548.64 169.589 548.64 169.589L542.912 218.873C542.912 218.873 488.912 247.157 462.768 228.492C436.623 209.842 461.449 157.249 461.449 157.249L461.465 157.264Z" fill="#0017BF"/>
<path d="M464.98 141.243C464.588 141.196 464.368 140.902 464.415 140.593C464.431 140.423 465.012 136.48 467.429 134.145C467.648 133.928 468.009 133.928 468.245 134.145C468.464 134.361 468.464 134.732 468.245 134.949C466.11 137.005 465.577 140.701 465.561 140.732C465.514 141.011 465.279 141.227 464.996 141.227L464.98 141.243Z" fill="black"/>
<path d="M477.693 133.712C477.521 133.712 477.364 133.634 477.254 133.511C477.05 133.263 477.081 132.907 477.332 132.722L489.95 122.5C490.185 122.299 490.546 122.33 490.75 122.577C490.954 122.825 490.923 123.181 490.672 123.366L478.054 133.588C477.945 133.681 477.819 133.712 477.693 133.712Z" fill="black"/>
<path d="M482.494 138.181C482.306 138.181 482.133 138.088 482.023 137.918C481.851 137.655 481.929 137.315 482.18 137.145L486.323 134.454C486.59 134.284 486.935 134.362 487.108 134.609C487.28 134.872 487.202 135.212 486.951 135.382L482.808 138.073C482.714 138.135 482.604 138.166 482.494 138.166V138.181Z" fill="black"/>
<path d="M525.369 230.348C525.369 230.348 481.302 191.394 456.005 197.611C430.708 203.827 428.778 229.869 424.274 259.173C419.77 288.493 418.357 309.911 418.357 309.911L478.917 311.101L482.511 259.884L547.229 240.044L525.384 230.348H525.369Z" fill="#3DF130"/>
<path d="M594.511 259.932C594.511 259.932 590.604 291.834 577.202 301.313C563.8 310.793 540.762 307.839 518.384 295.793C496.367 283.947 489.87 279.556 487.359 279.556C484.848 279.556 441.205 339.123 441.205 339.123L390.266 312.911C390.266 312.911 429.09 220.467 461.261 213.632C492.396 207.014 562.293 250.406 562.293 250.406L594.511 259.932Z" fill="#4EFD62"/>
<path d="M569.468 131.967C569.468 131.967 587.719 127.142 594.341 139.327C600.948 151.513 595.251 200.952 595.251 200.952L567.224 182.781L567.82 158.271L569.483 131.967H569.468Z" fill="#0017BF"/>
<path d="M532.636 196.017L511.277 214.729C511.277 214.729 541.659 261.755 584.925 254.255C628.191 246.755 609.155 207.26 601.952 196.62C590.732 180.043 577 170.563 564.665 169.728C552.346 168.878 532.636 196.033 532.636 196.033V196.017Z" fill="#0017BF"/>
<path d="M564.663 160.123L564.333 173.221C564.333 173.221 561.838 176.932 554.054 177.365C548.248 177.69 546.49 174.706 546.49 174.706L548.185 163.278L562.309 160.587L564.679 160.139L564.663 160.123Z" fill="#FFBB87"/>
<path d="M562.294 160.573C562.247 160.929 562.106 161.346 561.87 161.825C558.732 168.289 550.556 169.511 547.213 169.712L548.17 163.264L562.294 160.573Z" fill="black"/>
<path d="M545.972 133.346C545.972 133.346 538.581 149.599 541.092 158.784C543.603 167.97 552.093 166.609 557.193 164.893C562.277 163.161 564.663 160.13 564.663 160.13C564.663 160.13 569.386 161.754 572.588 157.439C575.805 153.125 573.89 148.13 571.207 146.954C568.508 145.779 565.275 147.681 565.275 147.681L567.848 142.965C567.848 142.965 557.475 118.764 545.972 133.346Z" fill="#FFBB87"/>
<path d="M555.846 142.096C555.642 142.096 555.453 141.988 555.343 141.802C554.92 141.076 554.386 140.612 553.758 140.457C552.676 140.179 551.577 140.828 551.561 140.844C551.295 141.014 550.934 140.921 550.777 140.658C550.604 140.395 550.698 140.055 550.965 139.885C551.028 139.854 552.472 138.972 554.041 139.359C554.998 139.591 555.767 140.241 556.348 141.246C556.505 141.524 556.411 141.864 556.128 142.019C556.034 142.065 555.94 142.096 555.846 142.096Z" fill="black"/>
<path d="M543.619 140.549C543.541 140.549 543.462 140.534 543.384 140.503C543.101 140.379 542.976 140.039 543.101 139.761C543.321 139.281 543.682 138.972 544.153 138.848C545.283 138.539 546.648 139.436 546.805 139.544C547.056 139.714 547.135 140.07 546.946 140.333C546.774 140.596 546.413 140.658 546.146 140.472C545.801 140.24 544.938 139.807 544.451 139.946C544.357 139.977 544.231 140.023 544.137 140.24C544.043 140.441 543.839 140.565 543.619 140.565V140.549Z" fill="black"/>
<path d="M555.297 145.543C555.109 145.543 554.92 145.45 554.81 145.28C554.591 144.94 554.34 144.754 554.026 144.708C553.32 144.599 552.425 145.187 552.174 145.403C551.938 145.604 551.578 145.574 551.374 145.342C551.17 145.11 551.201 144.754 551.436 144.553C551.578 144.429 552.864 143.393 554.198 143.594C554.842 143.687 555.391 144.058 555.783 144.677C555.956 144.94 555.877 145.295 555.611 145.45C555.517 145.512 555.407 145.543 555.297 145.543Z" fill="black"/>
<path d="M545.832 145.129C545.628 145.129 545.424 145.021 545.314 144.82C545.235 144.665 544.529 143.381 543.148 143.954C542.866 144.077 542.521 143.954 542.395 143.66C542.27 143.366 542.395 143.041 542.693 142.917C544.608 142.113 545.91 143.49 546.334 144.325C546.475 144.603 546.365 144.943 546.067 145.082C545.989 145.129 545.895 145.144 545.816 145.144L545.832 145.129Z" fill="black"/>
<path d="M546.476 153.09C546.178 153.09 545.927 152.874 545.911 152.58C545.613 149.255 547.48 145.42 547.559 145.265C547.7 144.987 548.045 144.863 548.328 145.002C548.61 145.142 548.736 145.482 548.595 145.76C548.579 145.791 546.79 149.487 547.057 152.487C547.088 152.796 546.853 153.075 546.539 153.106C546.523 153.106 546.507 153.106 546.492 153.106L546.476 153.09Z" fill="black"/>
<path d="M550.542 157.82C550.275 157.82 550.04 157.634 549.977 157.387C549.914 157.077 550.102 156.783 550.401 156.706C550.432 156.706 553.382 156.01 554.214 153.938C554.324 153.644 554.669 153.505 554.952 153.629C555.25 153.737 555.391 154.077 555.265 154.356C554.198 156.985 550.777 157.773 550.636 157.804C550.589 157.804 550.558 157.804 550.51 157.804L550.542 157.82Z" fill="black"/>
<path d="M565.779 154.713C565.607 154.713 565.45 154.635 565.34 154.512C565.136 154.264 565.183 153.909 565.418 153.723L570.77 149.424C571.021 149.223 571.382 149.269 571.57 149.501C571.774 149.749 571.727 150.105 571.491 150.29L566.14 154.589C566.03 154.666 565.905 154.713 565.779 154.713Z" fill="black"/>
<path d="M571.145 154.714C571.067 154.714 570.973 154.699 570.894 154.652L567.567 153.029C567.285 152.889 567.175 152.549 567.301 152.271C567.442 151.992 567.787 151.884 568.069 152.008L571.396 153.632C571.679 153.771 571.789 154.111 571.663 154.389C571.569 154.59 571.365 154.699 571.145 154.699V154.714Z" fill="black"/>
<path d="M565.276 147.678C565.276 147.678 559.47 147.06 555.829 142.312C552.204 137.565 550.525 132.74 550.525 132.74C550.525 132.74 548.061 133.126 546.476 135.044C545.299 136.451 543.934 138.508 543.934 138.508C543.934 138.508 543.855 131.905 547.261 128.688C550.666 125.472 553.554 126.616 553.554 126.616C553.554 126.616 560.992 122.534 568.462 129.168C575.932 135.802 572.291 147.694 572.291 147.694C572.291 147.694 568.493 146.163 565.276 147.694V147.678Z" fill="#0017BF"/>
<path d="M530.815 164.394C530.815 164.394 531.019 158.842 529.214 156.94C527.41 155.038 526.029 157.899 526.029 157.899C526.029 157.899 524.428 152.486 522.623 154.125C520.819 155.765 520.206 159.522 520.206 159.522C520.206 159.522 517.021 157.172 515.812 161.827C514.604 166.481 514.4 173.27 509.802 177.569C505.188 181.868 501.186 191.889 504.592 200.286C507.997 208.683 514.4 209.007 514.4 209.007L526.421 196.512C526.421 196.512 524.114 188.548 527.723 185.688C531.333 182.827 535.288 180.971 535.994 174.399C536.261 171.909 530.815 164.363 530.815 164.363V164.394ZM528.618 177.383L529.779 171.461C533.389 176.193 528.618 177.383 528.618 177.383Z" fill="#FFBB87"/>
<path d="M528.634 177.94C528.634 177.94 528.509 177.94 528.446 177.909C528.148 177.801 527.991 177.476 528.101 177.182C529.858 172.249 530.251 164.44 530.266 164.347C530.266 164.038 530.564 163.837 530.863 163.806C531.176 163.806 531.428 164.084 531.412 164.393C531.412 164.718 531.004 172.45 529.183 177.538C529.105 177.77 528.885 177.909 528.65 177.909L528.634 177.94Z" fill="black"/>
<path d="M522.922 176.797C522.827 176.797 522.733 176.766 522.639 176.72C522.357 176.565 522.262 176.225 522.419 175.946C525.746 170.101 524.616 157.42 524.601 157.297C524.569 156.987 524.805 156.709 525.119 156.678C525.432 156.663 525.715 156.879 525.746 157.188C525.793 157.73 526.923 170.333 523.424 176.488C523.314 176.673 523.126 176.781 522.922 176.781V176.797Z" fill="black"/>
<path d="M517.366 176.794C517.225 176.794 517.068 176.732 516.958 176.624C516.738 176.408 516.738 176.052 516.958 175.82C519.406 173.408 519.72 163.232 519.641 159.521C519.641 159.212 519.892 158.949 520.206 158.949C520.457 158.949 520.787 159.196 520.787 159.505C520.787 160.078 521.054 173.392 517.774 176.624C517.664 176.732 517.523 176.794 517.366 176.794Z" fill="black"/>
<path d="M426.313 246.168C426.219 246.168 426.109 246.138 426.015 246.091C425.748 245.937 425.654 245.581 425.811 245.318C425.936 245.117 438.255 224.936 455.219 215.209C473.91 204.493 518.039 226.344 519.906 227.287C520.189 227.426 520.299 227.766 520.157 228.045C520.016 228.323 519.671 228.431 519.389 228.292C518.933 228.06 473.941 205.776 455.8 216.184C439.103 225.771 426.925 245.689 426.799 245.89C426.689 246.076 426.501 246.168 426.313 246.168Z" fill="white"/>
<path d="M495.43 199.314C494.88 199.314 494.41 199.082 494.08 198.649C492.181 196.221 494.598 186.788 494.88 185.721C495.006 185.226 495.853 185.226 495.995 185.721C496.277 186.788 498.694 196.221 496.795 198.649C496.45 199.082 495.979 199.314 495.445 199.314H495.43ZM495.43 188.335C494.629 192.077 494.017 196.732 494.975 197.969C495.226 198.293 495.618 198.293 495.869 197.969C496.826 196.747 496.23 192.092 495.414 188.335H495.43Z" fill="#FFB904"/>
<path d="M554.103 178.125C548.673 178.125 544.829 174.894 544.766 174.847C544.53 174.646 544.499 174.29 544.719 174.058C544.923 173.826 545.284 173.796 545.519 174.012C545.88 174.321 554.37 181.435 563.943 172.821C564.178 172.62 564.539 172.62 564.759 172.852C564.979 173.084 564.947 173.44 564.727 173.656C560.93 177.074 557.258 178.156 554.103 178.156V178.125Z" fill="#FFB904"/>
<path d="M573.185 209.577C573.185 209.577 573.06 209.577 573.012 209.546C561.478 205.819 536.071 196.68 535.82 196.587C535.522 196.479 535.365 196.154 535.475 195.86C535.584 195.567 535.914 195.427 536.212 195.52C536.463 195.613 561.855 204.752 573.373 208.479C573.672 208.572 573.829 208.897 573.734 209.19C573.656 209.422 573.436 209.577 573.185 209.577Z" fill="#FFB904"/>
<path d="M583.716 212.798C579.558 212.798 571.868 209.318 570.895 208.87C570.66 208.762 570.519 208.499 570.581 208.236C570.644 207.973 570.864 207.788 571.131 207.788C573.343 207.741 584.485 207.648 586.227 210.092C586.526 210.509 586.588 211.004 586.4 211.483C586.212 211.963 585.835 212.318 585.286 212.55C584.862 212.721 584.328 212.798 583.716 212.798ZM573.861 208.916C577.518 210.401 582.932 212.272 584.846 211.514C585.176 211.391 585.27 211.221 585.317 211.097C585.38 210.942 585.349 210.849 585.286 210.757C584.391 209.504 578.6 209.009 573.861 208.932V208.916Z" fill="#FFB904"/>
</g>
</svg>
