<svg width="980" height="260" viewBox="0 0 980 260" fill="none" xmlns="http://www.w3.org/2000/svg">
<path d="M980 0H0V260H980V0Z" fill="black"/>
<mask id="mask0_1455_34659" style="mask-type:alpha" maskUnits="userSpaceOnUse" x="480" y="0" width="500" height="260">
<path d="M980 0H480V260H980V0Z" fill="black"/>
</mask>
<g mask="url(#mask0_1455_34659)">
<path d="M589.465 153.254C589.367 153.254 589.278 153.214 589.209 153.143C589.14 153.072 589.101 152.982 589.101 152.881V70.7393C589.101 70.5376 589.258 70.3763 589.455 70.3763C589.652 70.3763 589.81 70.5376 589.81 70.7393V152.518L677.644 152.457V87.0639C677.644 86.8622 677.802 86.7008 677.999 86.7008C678.196 86.7008 678.353 86.8622 678.353 87.0639V152.82C678.353 153.022 678.196 153.183 677.999 153.193L589.446 153.254H589.465Z" fill="#E64218"/>
<path d="M680.311 103.696C680.311 104.747 679.455 105.602 678.402 105.602C677.348 105.602 676.492 104.747 676.492 103.696C676.492 102.645 677.348 101.79 678.402 101.79C679.455 101.79 680.311 102.645 680.311 103.696Z" fill="#E64218"/>
<path d="M678.402 130.167C679.456 130.167 680.311 129.314 680.311 128.261C680.311 127.208 679.456 126.355 678.402 126.355C677.347 126.355 676.492 127.208 676.492 128.261C676.492 129.314 677.347 130.167 678.402 130.167Z" fill="#E64218"/>
<path d="M591.857 126.266C591.857 127.318 591.001 128.172 589.948 128.172C588.894 128.172 588.038 127.318 588.038 126.266C588.038 125.215 588.894 124.36 589.948 124.36C591.001 124.36 591.857 125.215 591.857 126.266Z" fill="#E64218"/>
<path d="M574.225 151.922V211.189C574.225 214.746 577.473 217.625 581.459 217.625H685.799C689.805 217.625 693.053 214.746 693.053 211.189V151.922C693.053 148.366 689.805 145.487 685.799 145.487H581.459C577.473 145.487 574.225 148.366 574.225 151.922Z" fill="#40398D"/>
<path d="M617.672 162.533H642.76C643.312 162.533 643.76 162.981 643.76 163.533C643.76 164.085 643.312 164.532 642.76 164.532H617.672C617.12 164.532 616.673 164.085 616.673 163.533C616.673 162.981 617.12 162.533 617.672 162.533Z" fill="#5EF939"/>
<path d="M592.364 172.824H636.763C637.315 172.824 637.763 173.271 637.763 173.823C637.763 174.375 637.315 174.822 636.763 174.822H592.364C591.812 174.822 591.364 174.375 591.364 173.823C591.364 173.271 591.812 172.824 592.364 172.824Z" fill="#FFB904"/>
<path d="M642.73 172.824H660.883C661.435 172.824 661.883 173.271 661.883 173.823C661.883 174.375 661.435 174.822 660.883 174.822H642.73C642.178 174.822 641.731 174.375 641.731 173.823C641.731 173.271 642.178 172.824 642.73 172.824Z" fill="#5EF939"/>
<path d="M592.364 201.79H636.763C637.315 201.79 637.763 202.237 637.763 202.789C637.763 203.341 637.315 203.788 636.763 203.788H592.364C591.812 203.788 591.364 203.341 591.364 202.789C591.364 202.237 591.812 201.79 592.364 201.79Z" fill="#FFB904"/>
<path d="M642.731 201.79H677.109C677.661 201.79 678.108 202.237 678.108 202.789C678.108 203.341 677.661 203.788 677.109 203.788H642.731C642.179 203.788 641.731 203.341 641.731 202.789C641.731 202.237 642.179 201.79 642.731 201.79Z" fill="#5EF939"/>
<path d="M592.364 187.064H636.763C637.315 187.064 637.763 187.511 637.763 188.063C637.763 188.615 637.315 189.062 636.763 189.062H592.364C591.812 189.062 591.364 188.615 591.364 188.063C591.364 187.511 591.812 187.064 592.364 187.064Z" fill="#5EF939"/>
<path d="M642.73 187.064H660.883C661.435 187.064 661.883 187.511 661.883 188.063C661.883 188.615 661.435 189.062 660.883 189.062H642.73C642.178 189.062 641.731 188.615 641.731 188.063C641.731 187.511 642.178 187.064 642.73 187.064Z" fill="#5EF939"/>
<path d="M646.84 181.943L616.484 181.943C615.932 181.943 615.484 181.495 615.484 180.943C615.484 180.391 615.932 179.944 616.484 179.944L646.84 179.944C647.392 179.944 647.84 180.391 647.84 180.943C647.84 181.495 647.392 181.943 646.84 181.943Z" fill="#FFB904"/>
<path d="M610.517 181.943L592.364 181.943C591.812 181.943 591.364 181.495 591.364 180.943C591.364 180.391 591.812 179.944 592.364 179.944L610.517 179.944C611.069 179.944 611.516 180.391 611.516 180.943C611.516 181.495 611.069 181.943 610.517 181.943Z" fill="#5EF939"/>
<path d="M646.84 196.183L616.484 196.183C615.932 196.183 615.484 195.736 615.484 195.184C615.484 194.632 615.932 194.184 616.484 194.184L646.84 194.184C647.392 194.184 647.84 194.632 647.84 195.184C647.84 195.736 647.392 196.183 646.84 196.183Z" fill="#FFB904"/>
<path d="M610.517 196.183L592.364 196.183C591.812 196.183 591.364 195.736 591.364 195.184C591.364 194.632 591.812 194.184 592.364 194.184L610.517 194.184C611.069 194.184 611.516 194.632 611.516 195.184C611.516 195.736 611.069 196.183 610.517 196.183Z" fill="#5EF939"/>
<path d="M593.08 163.374V162.42L596.955 160.702V161.803L594.322 162.87V162.917L596.955 163.983V165.084L593.08 163.374ZM602.525 159.233L600.697 166.006H599.705L601.525 159.233H602.525ZM609.15 163.374L605.275 165.084V163.983L607.908 162.917V162.87L605.275 161.803V160.702L609.15 162.42V163.374Z" fill="#3DF130"/>
<path d="M648.727 162.533H677.109C677.661 162.533 678.108 162.981 678.108 163.533C678.108 164.085 677.661 164.532 677.109 164.532H648.727C648.175 164.532 647.728 164.085 647.728 163.533C647.728 162.981 648.175 162.533 648.727 162.533Z" fill="#FFB904"/>
<path d="M574.225 151.922V153.632H693.062V151.922C693.062 148.366 689.815 145.487 685.809 145.487H581.469C577.483 145.487 574.235 148.366 574.235 151.922H574.225Z" fill="#373178"/>
<path d="M607.758 51.2506H569.816C568.261 51.2506 567.001 52.5083 567.001 54.0607V74.9299C567.001 76.4823 568.261 77.74 569.816 77.74H607.758C609.313 77.74 610.573 76.4823 610.573 74.9299V54.0607C610.573 52.5083 609.313 51.2506 607.758 51.2506Z" fill="#5EF939"/>
<path d="M593.27 58.5139H602.227V67.455H593.27V58.5139Z" fill="#DC3C1E"/>
<path d="M581.39 55.3104L578.605 60.1347L575.819 64.959H581.39H586.971L584.185 60.1347L581.39 55.3104Z" fill="#E64218"/>
<path d="M589.136 73.6636C585.701 73.6636 582.916 70.8834 582.916 67.4539C582.916 64.0244 585.701 61.2443 589.136 61.2443C592.571 61.2443 595.356 64.0244 595.356 67.4539C595.356 70.8834 592.571 73.6636 589.136 73.6636Z" fill="white"/>
<path d="M888.494 260.958L913.279 257.248L909.324 230.125L887.485 231.623L888.494 260.958Z" fill="#FFBB87"/>
<path d="M736.805 91.3521C736.805 91.3521 716.229 91.7078 712.502 91.3521C708.78 90.9986 712.502 88.3388 712.502 88.3388C712.502 88.3388 705.409 87.6276 707.892 85.6769C710.375 83.7262 733.832 83.2966 739.111 84.0427C744.385 84.7909 752.057 85.8557 752.057 85.8557L736.805 91.3521Z" fill="#FFBB87"/>
<path d="M816.617 77.3867C816.617 77.3867 804.206 77.8739 801.014 78.9366C797.819 80.0014 775.293 92.1351 771.215 92.1351C767.135 92.1351 750.283 81.4197 750.283 81.4197L725.453 95.6089C725.453 95.6089 740.883 127.184 765.537 130.021C790.193 132.859 799.77 122.748 799.77 122.748L816.617 77.3867Z" fill="#3DF130"/>
<path d="M786.532 155.542C786.532 155.542 770.248 196.694 770.581 233.856C770.914 271.018 782.168 311.234 782.168 311.234L831.583 312.167C831.583 312.167 823.285 272.707 822.574 263.624C821.862 254.54 820.012 197.008 820.012 197.008L819.474 157.92L786.532 155.542Z" fill="#0002BB"/>
<path d="M847.055 143.361C847.055 143.361 852.2 173.534 854.257 191.014C855.64 202.778 865.271 215.054 876.333 218.671C887.4 222.293 897.9 223.985 897.9 223.985L899.318 266.927C899.318 266.927 861.951 276.944 835.696 260.512C809.44 244.08 811.145 209.837 811.145 209.837L809.192 154.617L847.055 143.361Z" fill="#0002BB"/>
<path d="M824.543 77.4731C806.125 75.6889 790.824 88.6141 788.326 106.947L786.838 117.858C786.838 117.858 782.008 154.087 782.807 155.489C783.609 156.89 800.326 160.494 816.493 159.692C832.658 158.89 845.577 157.363 846.376 156.761C846.611 156.586 854.087 149.754 853.998 140.485C853.784 117.996 842.066 80.2378 842.066 79.8123C842.066 79.5246 834.419 78.433 824.543 77.4731Z" fill="#3DF130"/>
<path d="M821.26 246.279C821.374 246.279 821.487 246.242 821.581 246.168C821.803 245.993 821.842 245.67 821.665 245.446C798.002 215.483 809.137 171.427 809.254 170.987C809.291 170.841 809.262 170.687 809.178 170.564C809.092 170.438 808.954 170.36 808.806 170.346L793.807 168.896C793.499 168.878 793.272 169.077 793.246 169.361C793.219 169.643 793.425 169.893 793.706 169.92L808.117 171.312C806.872 176.675 798.372 217.606 820.858 246.084C820.96 246.211 821.11 246.279 821.26 246.279Z" fill="#5E1DBB"/>
<path d="M844.446 171.104C844.623 171.104 844.802 171.1 844.983 171.096C845.268 171.088 845.49 170.851 845.484 170.565C845.476 170.284 845.236 170.045 844.956 170.068C844.781 170.072 844.609 170.076 844.442 170.076C836.056 170.076 835.268 163.912 835.237 163.644C835.209 163.361 834.985 163.151 834.672 163.188C834.391 163.219 834.187 163.472 834.216 163.753C834.224 163.829 835.108 171.104 844.446 171.104Z" fill="#5E1DBB"/>
<path d="M860.547 209.173C860.002 212.036 858.814 216.496 857.001 217.8C856.572 218.11 856.138 218.219 855.684 218.128C855.205 218.036 855.137 217.82 855.108 217.73C854.656 216.299 857.85 212.145 860.547 209.173ZM855.994 219.187C856.551 219.187 857.092 219.002 857.602 218.634C860.646 216.445 861.789 208.013 861.838 207.653C861.865 207.436 861.752 207.222 861.55 207.125C861.353 207.031 861.114 207.072 860.958 207.23C859.669 208.56 853.279 215.335 854.128 218.038C854.255 218.443 854.594 218.963 855.486 219.138C855.657 219.171 855.826 219.187 855.994 219.187Z" fill="#5E1DBB"/>
<path d="M822.366 51.347C822.366 51.347 811.714 51.8568 811.11 41.6429C810.469 30.7671 820.531 29.7249 824.804 34.1217C829.075 38.5184 828.286 42.9912 828.286 42.9912C828.286 42.9912 831.264 40.3047 834.512 43.6017C836.897 46.0231 835.667 49.978 835.667 49.978C835.667 49.978 841.16 49.7663 840.648 54.5639C840.136 59.3615 836.705 61.7972 836.705 61.7972L822.366 51.347Z" fill="#0017BF"/>
<path d="M832.103 70.1552L830.997 81.4729C830.997 81.4729 828.637 84.5274 821.963 84.4185C816.99 84.3363 815.369 83.0516 815.369 83.0516L816.616 77.3865L817.841 71.8634L830.053 70.4039L832.103 70.1552Z" fill="#FFBB87"/>
<path d="M830.054 70.4042C829.994 70.7084 829.842 71.0619 829.618 71.4627C826.533 76.8688 819.49 77.4114 816.617 77.3868L817.842 71.8636L830.054 70.4042Z" fill="black"/>
<path d="M817.842 45.8179C817.842 45.8179 810.514 59.4276 812.084 67.5408C813.655 75.656 820.983 75.0002 825.431 73.8224C829.879 72.6446 832.105 70.1595 832.105 70.1595C832.105 70.1595 836.029 71.8594 839.04 68.3259C842.05 64.7945 840.74 60.3444 838.516 59.1665C836.292 57.9887 833.414 59.4276 833.414 59.4276L835.899 55.5015C835.899 55.5015 828.572 33.9103 817.842 45.8179Z" fill="#FFBB87"/>
<path d="M833.276 65.6433C833.364 65.6433 833.453 65.6207 833.535 65.5734L838.99 62.4059C839.239 62.262 839.321 61.9495 839.177 61.7028C839.038 61.4562 838.721 61.374 838.476 61.5158L833.017 64.6833C832.772 64.8272 832.69 65.1397 832.832 65.3864C832.926 65.5508 833.099 65.6433 833.276 65.6433Z" fill="black"/>
<path d="M837.932 66.0339C838.142 66.0339 838.339 65.9044 838.415 65.6947C838.512 65.4296 838.374 65.1356 838.109 65.0369L834.835 63.8448C834.565 63.7461 834.271 63.8859 834.175 64.1531C834.078 64.4183 834.216 64.7122 834.481 64.8108L837.756 66.0031C837.813 66.0236 837.873 66.0339 837.932 66.0339Z" fill="black"/>
<path d="M826.782 52.78C826.944 52.78 827.104 52.7018 827.205 52.558C827.365 52.3257 827.308 52.005 827.076 51.8426C825.09 50.4695 823.119 50.3441 823.035 50.34C822.734 50.338 822.51 50.5497 822.494 50.821C822.475 51.1047 822.693 51.3472 822.975 51.3657C822.993 51.3657 824.753 51.4871 826.488 52.6875C826.578 52.7512 826.681 52.78 826.782 52.78Z" fill="black"/>
<path d="M815.856 51.1722C815.92 51.1722 815.986 51.1619 816.049 51.1352C816.993 50.7508 817.975 51.1332 817.984 51.1373C818.251 51.2421 818.547 51.1126 818.652 50.8515C818.758 50.5884 818.631 50.2904 818.37 50.1835C818.312 50.1609 816.997 49.6408 815.661 50.1835C815.398 50.2904 815.272 50.5905 815.379 50.8536C815.459 51.053 815.653 51.1722 815.856 51.1722Z" fill="black"/>
<path d="M817.375 64.0586C817.466 64.0586 817.554 64.036 817.637 63.9866C817.881 63.8428 817.961 63.5283 817.817 63.2816C816.031 60.2641 819.491 56.5066 819.528 56.4696C819.719 56.262 819.711 55.9372 819.503 55.7419C819.299 55.5508 818.975 55.5569 818.775 55.7666C818.611 55.9413 814.753 60.1222 816.933 63.8078C817.028 63.9681 817.201 64.0586 817.375 64.0586Z" fill="black"/>
<path d="M815.375 56.6174C815.583 56.6174 815.776 56.49 815.856 56.2844L816.816 53.7582C816.919 53.493 816.785 53.197 816.52 53.0963C816.255 52.9935 815.959 53.1292 815.858 53.3944L814.896 55.9185C814.793 56.1837 814.927 56.4818 815.192 56.5825C815.254 56.6051 815.315 56.6174 815.375 56.6174Z" fill="black"/>
<path d="M822.525 57.4586C822.73 57.4586 822.926 57.3312 823.004 57.1277L823.966 54.5993C824.068 54.3342 823.933 54.0361 823.668 53.9354C823.404 53.8347 823.108 53.9704 823.006 54.2335L822.044 56.7618C821.941 57.0269 822.077 57.323 822.342 57.4237C822.401 57.4463 822.463 57.4586 822.525 57.4586Z" fill="black"/>
<path d="M816.336 48.9013C816.336 48.9013 817.788 46.7451 820.612 47.002C823.438 47.259 824.893 49.409 824.893 49.409C824.893 49.409 823.187 54.0422 826.78 56.9446C830.373 59.845 833.414 59.4277 833.414 59.4277L836.293 58.7083L838.735 54.8398L831.529 45.3699L821.64 38.8457L815.855 43.15L816.336 48.9013Z" fill="#0017BF"/>
<path d="M821.827 84.5357C825.026 84.5357 828.746 83.7238 832.358 81.0742C832.584 80.9056 832.635 80.5829 832.467 80.3547C832.298 80.1245 831.976 80.0752 831.747 80.2437C823.022 86.6549 813.603 81.6621 813.507 81.6086C813.268 81.4771 812.948 81.5655 812.81 81.8142C812.676 82.0629 812.767 82.3753 813.015 82.511C813.077 82.5439 816.816 84.5357 821.827 84.5357Z" fill="white"/>
<path d="M933.776 224.418C935.428 225.22 934.68 236.244 934.999 237.175C935.319 238.108 929.132 241.222 930.205 242.949C931.266 244.679 934.4 246.669 935.946 249.212C937.387 251.586 939.856 292.051 939.309 299.952C939.26 300.602 938.647 301.087 937.944 301.015C936.197 300.838 932.791 300.386 929.354 299.291C926.261 298.306 923.12 296.801 921.134 294.505C915.938 288.555 913.175 275.541 909.677 270.982C906.176 266.408 898.139 261.582 899.403 258.63C900.68 255.679 907.002 249.868 905.533 242.17C904.077 234.472 901.931 231.014 903.701 228.796C904.815 227.401 915.86 225.715 924.244 224.858C929.159 224.346 933.163 224.124 933.776 224.418Z" fill="#FFB904"/>
<path d="M836.771 123.305C836.771 123.305 835.086 118.491 834.44 116.955C833.795 115.42 834.089 110.215 832.229 109.346C830.368 108.476 829.795 116.834 829.795 116.834C829.795 116.834 818.79 104.392 816.749 104.961C814.705 105.53 819.415 113.94 819.415 113.94C819.415 113.94 811.178 105.019 809.608 106.616C808.039 108.213 815.051 117.089 815.051 117.089C815.051 117.089 808.771 111.701 807.534 113.44C806.292 115.181 816.329 128.904 816.329 128.904C816.329 128.904 822.101 143.243 830.054 141.194C838.007 139.147 836.771 123.305 836.771 123.305Z" fill="#FFBB87"/>
<path d="M821.178 66.2519C820.806 66.8788 820.343 67.4256 819.992 67.4256C819.572 67.4256 819.161 67.1008 818.855 66.7637L821.178 66.2519ZM819.992 68.4534C821.42 68.4534 822.411 66.1717 822.596 65.7113C822.668 65.5345 822.635 65.3331 822.512 65.1871C822.389 65.0432 822.195 64.9754 822.01 65.0186L817.86 65.9312C817.7 65.9662 817.568 66.0751 817.5 66.2252C817.435 66.3732 817.443 66.5458 817.525 66.6877C817.63 66.8685 818.582 68.4534 819.992 68.4534Z" fill="black"/>
<path d="M712.502 88.8522C712.564 88.8522 712.626 88.8399 712.685 88.8194C712.749 88.7926 719.242 86.3589 724.422 86.0135C724.673 85.995 724.874 85.8018 724.901 85.551C724.924 85.3023 724.768 85.0701 724.525 85.0043L720.622 83.9251C720.344 83.8429 720.069 84.0115 719.991 84.2849C719.917 84.5562 720.077 84.8399 720.35 84.9159L721.732 85.2982C717.115 86.0567 712.55 87.771 712.319 87.8573C712.054 87.956 711.923 88.2541 712.023 88.5192C712.099 88.7248 712.297 88.8522 712.502 88.8522Z" fill="black"/>
<path d="M693.345 81.2859H777.066L759.666 74.8953H675.943L693.345 81.2859Z" fill="#EDEDED"/>
<path d="M692.991 84.7968H777.066V81.286H692.991V84.7968Z" fill="#40398D"/>
<path d="M675.943 74.8954V78.7803L692.991 84.7968V81.286L675.943 74.8954Z" fill="#40398D"/>
<path d="M759.666 74.8953L743.871 30.9152C743.674 30.3664 743.154 30.0005 742.572 30.0005H664.51C663.587 30.0005 662.923 30.8885 663.186 31.7744L675.942 74.8953H759.666Z" fill="#40398D"/>
<path d="M733.437 40.6253H703.686C702.805 40.6253 702.092 41.3389 702.092 42.2191C702.092 43.0993 702.805 43.8129 703.686 43.8129H733.437C734.317 43.8129 735.03 43.0993 735.03 42.2191C735.03 41.3389 734.317 40.6253 733.437 40.6253Z" fill="#FFB904"/>
<path d="M740.875 59.7509H727.062C726.181 59.7509 725.468 60.4645 725.468 61.3447C725.468 62.225 726.181 62.9385 727.062 62.9385H740.875C741.755 62.9385 742.468 62.225 742.468 61.3447C742.468 60.4645 741.755 59.7509 740.875 59.7509Z" fill="#5EF939"/>
<path d="M697.31 50.1881H729.186C730.067 50.1881 730.78 50.9017 730.78 51.7819C730.78 52.6621 730.067 53.3757 729.186 53.3757H697.31C696.43 53.3757 695.717 52.6621 695.717 51.7819C695.717 50.9017 696.43 50.1881 697.31 50.1881Z" fill="#E64218"/>
<path d="M697.311 40.6253H685.623C684.743 40.6253 684.029 41.3389 684.029 42.2191C684.029 43.0993 684.743 43.8129 685.623 43.8129H697.311C698.191 43.8129 698.905 43.0993 698.905 42.2191C698.905 41.3389 698.191 40.6253 697.311 40.6253Z" fill="#5EF939"/>
<path d="M720.686 59.7509H693.061C692.18 59.7509 691.467 60.4645 691.467 61.3447C691.467 62.225 692.18 62.9385 693.061 62.9385H720.686C721.567 62.9385 722.28 62.225 722.28 61.3447C722.28 60.4645 721.567 59.7509 720.686 59.7509Z" fill="#5EF939"/>
<path d="M842.066 79.8122C842.066 79.8122 866.642 89.7568 881.481 113.761C895.168 135.901 895.434 155.386 872.258 161.061C849.081 166.736 825.881 144.269 825.881 144.269L837.93 119.909L843.404 122.039L842.066 79.8122Z" fill="#3DF130"/>
<path d="M830.812 121.33C830.845 121.33 830.882 121.326 830.917 121.316C831.149 121.258 831.289 121.022 831.231 120.789L830.214 116.73C830.156 116.499 829.914 116.354 829.69 116.413C829.457 116.473 829.315 116.707 829.375 116.939L830.393 121.001C830.44 121.198 830.617 121.33 830.812 121.33Z" fill="black"/>
<path d="M816.616 119.299C816.717 119.299 816.82 119.262 816.902 119.19C817.081 119.032 817.099 118.758 816.941 118.58L815.375 116.802C815.216 116.623 814.943 116.606 814.762 116.765C814.583 116.923 814.567 117.196 814.725 117.377L816.289 119.153C816.376 119.248 816.495 119.299 816.616 119.299Z" fill="black"/>
<path d="M821.056 116.089C821.165 116.089 821.272 116.047 821.354 115.967C821.529 115.801 821.533 115.527 821.368 115.355L819.726 113.643C819.557 113.47 819.284 113.464 819.113 113.628C818.941 113.795 818.937 114.07 819.101 114.243L820.741 115.955C820.828 116.043 820.941 116.089 821.056 116.089Z" fill="black"/>
<path d="M785.352 129.913C785.6 129.913 785.818 129.732 785.859 129.48L788.038 115.734C788.084 115.453 787.892 115.192 787.611 115.146C787.333 115.112 787.068 115.294 787.023 115.574L784.844 129.319C784.799 129.599 784.99 129.862 785.272 129.907C785.296 129.911 785.325 129.913 785.352 129.913Z" fill="white"/>
<path d="M870.359 129.913C870.529 129.913 870.696 129.829 870.792 129.673C870.944 129.434 870.872 129.116 870.634 128.966C859.709 122.069 843.581 119.41 843.421 119.385C843.117 119.334 842.876 119.531 842.831 119.81C842.786 120.09 842.977 120.353 843.256 120.398C843.417 120.425 859.341 123.052 870.083 129.833C870.169 129.887 870.264 129.913 870.359 129.913Z" fill="white"/>
<path d="M866.809 122.658C868.17 122.658 869.337 122.896 870.001 123.54C870.258 123.786 870.274 123.908 870.274 123.908C869.83 124.693 864.054 124.539 860.254 123.772C862.132 123.231 864.7 122.658 866.809 122.658ZM866.866 125.451C868.959 125.451 870.702 125.176 871.16 124.415C871.329 124.134 871.495 123.552 870.716 122.8C867.777 119.965 858.605 123.205 858.219 123.344C858.011 123.418 857.873 123.616 857.878 123.836C857.882 124.055 858.021 124.249 858.231 124.317C859.824 124.839 863.738 125.451 866.866 125.451Z" fill="white"/>
<path d="M770.826 94.1926C770.896 96.503 770.77 99.6356 769.841 100.748C769.658 100.965 769.469 101.074 769.247 101.093C769.062 101.101 769.027 101.052 769.009 101.021C768.532 100.322 769.496 97.2306 770.826 94.1926ZM769.194 102.121C769.239 102.121 769.282 102.121 769.329 102.117C769.831 102.076 770.269 101.837 770.63 101.405C772.386 99.3026 771.798 92.8174 771.726 92.0836C771.701 91.8575 771.531 91.6704 771.307 91.6293C771.072 91.5903 770.855 91.7033 770.752 91.9088C770.108 93.2162 766.955 99.8329 768.156 101.599C768.388 101.94 768.752 102.121 769.194 102.121Z" fill="white"/>
<path d="M843.339 156.88C843.522 156.88 843.698 156.782 843.791 156.607C843.925 156.358 843.83 156.046 843.579 155.914C843.458 155.849 831.472 149.444 827.711 144.305C827.54 144.075 827.217 144.027 826.991 144.192C826.763 144.36 826.714 144.681 826.88 144.909C830.782 150.241 842.595 156.556 843.096 156.821C843.174 156.862 843.256 156.88 843.339 156.88Z" fill="white"/>
</g>
</svg>
