<svg width="385" height="400" viewBox="0 0 385 400" fill="none" xmlns="http://www.w3.org/2000/svg">
<path d="M385 0H0V400H385V0Z" fill="black"/>
<mask id="mask0_1455_33587" style="mask-type:alpha" maskUnits="userSpaceOnUse" x="0" y="220" width="385" height="180">
<path d="M385 220H0V400H385V220Z" fill="black"/>
</mask>
<g mask="url(#mask0_1455_33587)">
<path d="M228.763 377.829H277.347C279.404 377.829 281.075 376.182 281.075 374.155V303.994C281.075 301.967 279.404 300.32 277.347 300.32H228.763C226.706 300.32 225.034 301.967 225.034 303.994V374.155C225.034 376.182 226.706 377.829 228.763 377.829ZM277.347 301.041C279.008 301.041 280.353 302.366 280.353 304.003V374.165C280.353 375.802 279.008 377.127 277.347 377.127H228.763C227.101 377.127 225.756 375.802 225.756 374.165V304.003C225.756 302.366 227.101 301.041 228.763 301.041H277.347Z" fill="white"/>
<path d="M283.754 383.168H235.18C233.317 383.168 231.808 381.68 231.808 379.845V309.694C231.808 307.858 233.317 306.371 235.18 306.371H283.754C285.617 306.371 287.127 307.858 287.127 309.694V379.845C287.127 381.68 285.617 383.168 283.754 383.168Z" fill="#0017BF"/>
<path d="M246.246 340.701C245.999 339.61 245.871 338.48 245.871 337.31C245.871 336.082 246.019 334.884 246.296 333.734L248.511 333.714L249.826 330.606L248.254 329.125C249.5 327.156 251.181 325.49 253.169 324.252L254.889 325.86L258.024 324.545L257.925 322.274C259.092 322.001 260.309 321.855 261.555 321.855C262.692 321.855 263.799 321.972 264.867 322.206V324.671L267.992 326.006L269.792 324.174C271.78 325.383 273.471 327.02 274.727 328.949L272.966 330.596L274.282 333.705L276.794 333.734C277.07 334.884 277.219 336.082 277.219 337.31C277.219 338.48 277.09 339.61 276.833 340.711L274.272 340.74L272.957 343.849L274.786 345.574C273.54 347.513 271.859 349.169 269.891 350.397L267.973 348.448L264.848 349.783V352.434C263.78 352.658 262.672 352.785 261.535 352.785C260.289 352.785 259.063 352.638 257.906 352.366L258.014 349.91L254.88 348.594L253.04 350.319C251.072 349.062 249.401 347.386 248.175 345.408L249.826 343.859L248.511 340.75L246.256 340.731L246.246 340.701ZM261.545 344.814C265.748 344.814 269.159 341.461 269.159 337.31C269.159 333.159 265.757 329.817 261.545 329.817C257.332 329.817 253.94 333.169 253.94 337.31C253.94 341.452 257.352 344.814 261.545 344.814Z" fill="white"/>
<path d="M243.329 362.998C243.003 362.423 242.736 361.799 242.548 361.146C242.34 360.454 242.222 359.753 242.182 359.061L243.428 358.681L243.646 356.712L242.508 356.137C242.884 354.822 243.557 353.604 244.466 352.581L245.712 353.214L247.265 351.957L246.83 350.69C247.443 350.349 248.106 350.066 248.808 349.862C249.45 349.677 250.093 349.56 250.736 349.521L251.151 350.914L253.139 351.158L253.851 349.823C255.176 350.183 256.412 350.827 257.451 351.713L256.739 352.931L258.004 354.471L259.428 354.071C259.775 354.676 260.061 355.329 260.269 356.03C260.467 356.693 260.585 357.355 260.625 358.018L259.181 358.447L258.964 360.415L260.289 361.088C259.913 362.393 259.241 363.602 258.331 364.615L256.917 363.826L255.374 365.093L255.819 366.593C255.255 366.895 254.642 367.149 254.009 367.334C253.297 367.539 252.585 367.655 251.883 367.694L251.527 366.291L249.53 366.057L248.778 367.334C247.453 366.944 246.227 366.272 245.198 365.356L245.871 364.216L244.605 362.676L243.329 363.037V362.998ZM252.674 362.822C255.048 362.13 256.412 359.675 255.71 357.336C255.008 354.997 252.516 353.652 250.143 354.344C247.769 355.036 246.405 357.492 247.107 359.831C247.809 362.169 250.301 363.514 252.674 362.822Z" fill="#5EF939"/>
<path d="M258.225 220H309.996C311.382 220 312.505 221.107 312.505 222.472V281.935C312.505 283.3 311.382 284.407 309.996 284.407H258.225C256.84 284.407 255.716 283.3 255.716 281.935V222.472C255.716 221.107 256.84 220 258.225 220Z" fill="#0017BF"/>
<path d="M280.749 231.455H302.316V256.479H280.749V231.455Z" fill="#FFB904"/>
<path d="M265.905 249.407H289.787V272.94H265.905V249.407Z" fill="#3DF130"/>
<path d="M291.945 242.019L296.682 242.324L292.994 245.122C292.994 245.122 290.222 244.472 291.945 242.019Z" fill="white"/>
<path d="M104.066 324.249C104.066 324.249 128.033 313.15 140.36 316.067C152.701 318.985 157.949 293.816 157.949 293.816C157.949 293.816 122.691 269.76 94.1478 311.705C73.5041 342.032 102.491 322.3 102.491 322.3L104.066 324.249Z" fill="#FFBB87"/>
<path d="M138.651 362.786L91.7254 468.29L119.744 496.761C119.744 496.761 133.874 485.277 147.991 446.714C162.121 408.138 157.088 370.716 157.088 370.716L138.651 362.786Z" fill="#3DF130"/>
<path d="M177.072 261.564C177.072 261.564 157.438 251.234 164.005 244.418C170.572 237.602 179.387 253.356 179.387 253.356L177.059 261.564H177.072Z" fill="#0017BF"/>
<path d="M192.359 247.799C192.359 247.799 180.396 242.216 174.205 251.021C168.203 259.575 175.713 267.889 175.713 267.889L189.883 256.14L192.359 247.799Z" fill="#0017BF"/>
<path d="M180.101 272.93L180.02 282.836C180.02 282.836 181.81 285.7 187.677 286.218C192.051 286.602 193.599 285.647 193.599 285.647L193.033 280.622L192.468 275.728L181.877 273.341L180.101 272.943V272.93Z" fill="#FFBB87"/>
<path d="M181.876 273.339C181.903 273.604 181.997 273.936 182.159 274.294C184.366 279.253 190.502 280.381 193.032 280.619L192.467 275.726L181.876 273.339Z" fill="black"/>
<path d="M193.558 252.374C193.558 252.374 199.856 264.786 198.2 272.013C196.545 279.24 189.897 278.471 185.873 277.291C181.85 276.111 179.898 273.83 179.898 273.83C179.898 273.83 176.278 275.249 173.641 272C171.003 268.751 172.308 264.799 174.367 263.791C176.426 262.797 179.01 264.163 179.01 264.163L176.857 260.569C176.857 260.569 184.124 241.394 193.558 252.374Z" fill="#FFBB87"/>
<path d="M195.886 268.909C196.142 268.909 196.357 268.711 196.371 268.459C196.68 264.069 194.756 261.934 194.675 261.855C194.487 261.656 194.177 261.642 193.989 261.828C193.787 262.001 193.773 262.319 193.948 262.504C193.962 262.518 195.684 264.454 195.388 268.392C195.375 268.658 195.577 268.896 195.846 268.909C195.846 268.909 195.873 268.909 195.886 268.909Z" fill="black"/>
<path d="M179.171 269.402C179.36 269.402 179.548 269.296 179.629 269.11C179.736 268.858 179.629 268.58 179.36 268.474L174.084 266.299C173.829 266.193 173.546 266.299 173.438 266.564C173.331 266.816 173.438 267.095 173.707 267.201L178.983 269.375C178.983 269.375 179.104 269.415 179.171 269.415V269.402Z" fill="black"/>
<path d="M174.569 270.727C174.704 270.727 174.825 270.674 174.919 270.582L177.14 268.287C177.328 268.089 177.315 267.784 177.126 267.598C176.924 267.412 176.615 267.425 176.426 267.611L174.206 269.905C174.018 270.104 174.031 270.409 174.219 270.595C174.314 270.688 174.435 270.727 174.556 270.727H174.569Z" fill="black"/>
<path d="M192.885 272.811C194.272 272.811 194.904 271.803 195.039 271.272C195.079 271.14 195.039 270.994 194.971 270.888C194.891 270.769 194.769 270.702 194.635 270.676C194.621 270.676 192.885 270.397 191.957 269.124C191.836 268.952 191.62 268.886 191.419 268.952C191.217 269.018 191.082 269.191 191.069 269.403C191.069 269.615 191.042 271.551 191.89 272.4C192.159 272.678 192.509 272.824 192.885 272.824H192.899L192.885 272.811ZM193.827 271.471C193.652 271.67 193.316 271.882 192.872 271.843C192.764 271.843 192.67 271.803 192.576 271.71C192.361 271.485 192.226 271.074 192.145 270.649C192.737 271.074 193.37 271.326 193.827 271.458V271.471Z" fill="black"/>
<path d="M190.839 263.952C190.839 263.952 190.947 263.952 190.987 263.925C191.243 263.845 191.391 263.567 191.297 263.315L190.624 261.286L191.162 260.252C191.283 260.013 191.189 259.721 190.947 259.602C190.705 259.483 190.408 259.575 190.287 259.814L189.655 261.021C189.601 261.14 189.588 261.273 189.628 261.392L190.355 263.607C190.422 263.806 190.61 263.938 190.826 263.938L190.839 263.952Z" fill="black"/>
<path d="M197.245 263.316C197.245 263.316 197.353 263.316 197.393 263.289C197.649 263.209 197.797 262.931 197.703 262.679L197.03 260.65L197.568 259.616C197.689 259.377 197.595 259.085 197.353 258.966C197.111 258.847 196.815 258.939 196.694 259.178L196.061 260.385C196.007 260.504 195.994 260.637 196.034 260.756L196.761 262.971C196.828 263.17 197.017 263.302 197.232 263.302L197.245 263.316Z" fill="black"/>
<path d="M195.603 257.546C195.845 257.546 196.06 257.36 196.087 257.122C196.114 256.857 195.926 256.618 195.657 256.591L194.203 256.419C193.934 256.379 193.692 256.578 193.651 256.843C193.625 257.108 193.813 257.347 194.082 257.374L195.536 257.546C195.536 257.546 195.576 257.546 195.589 257.546H195.603Z" fill="black"/>
<path d="M255.73 269.694C255.73 269.694 242.973 286.986 230.726 290.248C218.48 293.51 226.097 318.083 226.097 318.083C226.097 318.083 268.73 322.565 273.427 272.266C276.818 235.892 259.431 269.681 259.431 269.681H255.744L255.73 269.694Z" fill="#FFBB87"/>
<path d="M188.322 258.781C188.389 258.781 188.457 258.768 188.524 258.741L191.417 257.441C191.659 257.335 191.767 257.044 191.659 256.805C191.552 256.566 191.256 256.46 191.013 256.566L188.12 257.866C187.878 257.972 187.77 258.264 187.878 258.502C187.959 258.675 188.134 258.781 188.322 258.781Z" fill="black"/>
<path d="M145.838 330.906C145.838 330.906 135.772 362.918 136.498 365.902C137.212 368.886 144.156 385.422 144.64 386.801C145.125 388.18 132.192 500.222 132.192 500.222L174.246 510.552C174.246 510.552 202.466 390.992 199.035 356.328C195.603 321.664 145.838 330.92 145.838 330.92V330.906Z" fill="#3DF130"/>
<path d="M245.504 260.784L244.447 257.678L291.939 241.992L292.995 245.098L245.504 260.784Z" fill="white"/>
<path d="M180.207 266.365C180.207 266.365 185.294 264.773 189.237 258.992C193.18 253.223 193.032 251.791 193.032 251.791L195.723 257.347C195.723 257.347 197.405 252.799 195.791 250.054C194.162 247.309 192.372 247.799 192.372 247.799L180.409 250.332L176.022 259.655L180.22 266.365H180.207Z" fill="#0017BF"/>
<path d="M238.976 284.862C238.976 284.862 216.691 287.289 210.123 285.671C203.556 284.054 186.869 282.091 174.569 281.401C162.269 280.712 143.631 281.521 135.179 282.9C126.742 284.292 123.095 285.327 123.095 285.327C123.095 285.327 123.794 298.495 125.678 307.167C127.549 315.84 127.912 317.458 127.912 317.458L146.322 316.065L139.782 343.595C139.782 343.595 149.014 349.576 169.778 354.774C190.53 359.972 201.726 355.928 201.726 355.928L208.361 323.691C208.361 323.691 223.958 323.465 231.817 321.728C239.676 319.991 240.847 319.765 240.847 319.765L238.976 284.862Z" fill="#E64218"/>
<path d="M256.929 272.28C256.929 272.28 252.178 262.414 252.461 260.16C252.743 257.905 257.723 256.34 257.723 256.34C257.723 256.34 258.745 247.243 260.67 246.554C262.594 245.864 263.617 248.649 263.617 248.649C263.617 248.649 264.747 242.96 267.129 243.636C269.511 244.299 269.955 247.721 269.955 247.721C269.955 247.721 270.413 243.225 273.239 244.326C276.065 245.427 278.541 256.393 277.182 265.795C275.823 275.197 267.358 278.937 267.358 278.937L256.942 272.307L256.929 272.28Z" fill="#FFBB87"/>
<path d="M257.05 263.156C257.292 263.156 257.508 262.97 257.535 262.718L258.207 256.38C258.234 256.114 258.046 255.876 257.763 255.849C257.494 255.823 257.252 256.008 257.225 256.274L256.552 262.612C256.525 262.877 256.714 263.116 256.996 263.143C257.01 263.143 257.037 263.143 257.05 263.143V263.156Z" fill="black"/>
<path d="M105.923 320.842C105.923 320.842 105.29 329.395 103.945 332.418C102.612 335.442 100.19 338.996 98.3194 338.479C96.4623 337.962 99.4095 329.925 99.4095 329.925C99.4095 329.925 94.0131 333.28 89.9893 336.728C85.9656 340.163 84.6064 342.961 82.5608 342.908C80.5153 342.855 80.8652 339.022 80.8652 339.022C80.8652 339.022 79.2234 341.171 77.5816 340.415C75.9264 339.659 77.1644 335.522 77.1644 335.522C77.1644 335.522 74.2845 336.437 74.0423 333.546C73.8001 330.655 80.9998 321.783 87.4459 317.447C93.892 313.111 100.082 313.827 100.082 313.827L105.896 320.855L105.923 320.842Z" fill="#FFBB87"/>
<path d="M95.5476 330.23C95.7225 330.23 95.8975 330.137 95.9782 329.964C96.0993 329.726 96.0051 329.434 95.7763 329.315L84.7413 323.626C84.4991 323.506 84.203 323.586 84.0819 323.825C83.9608 324.063 84.055 324.355 84.2837 324.474L95.3188 330.163C95.3861 330.203 95.4668 330.216 95.5476 330.216V330.23Z" fill="black"/>
<path d="M77.1907 335.984C77.3522 335.984 77.5137 335.904 77.6079 335.758C77.6483 335.692 81.8335 329.141 85.8169 324.858C86.0053 324.659 85.9919 324.354 85.79 324.168C85.5881 323.983 85.2786 323.996 85.1037 324.195C81.053 328.544 76.8274 335.162 76.787 335.228C76.639 335.453 76.7063 335.758 76.935 335.891C77.0158 335.944 77.11 335.97 77.1907 335.97V335.984Z" fill="black"/>
<path d="M80.8917 339.488C81.0398 339.488 81.1878 339.421 81.282 339.302L90.4599 327.699C90.6214 327.486 90.581 327.181 90.3792 327.022C90.1639 326.863 89.8543 326.89 89.6929 327.102L80.5149 338.705C80.3534 338.917 80.3938 339.222 80.5957 339.381C80.6899 339.448 80.7975 339.488 80.8917 339.488Z" fill="black"/>
<path d="M95.789 326.411C95.789 326.411 95.8429 326.411 95.8698 326.411C96.1389 326.371 96.3139 326.119 96.2735 325.854C95.4661 321.239 100.607 317.367 100.661 317.327C100.876 317.168 100.916 316.863 100.755 316.651C100.593 316.439 100.284 316.399 100.069 316.558C99.8397 316.73 94.3895 320.828 95.3046 326.013C95.345 326.252 95.5468 326.411 95.789 326.411Z" fill="black"/>
<path d="M134.992 476.232C135.234 476.232 135.449 476.047 135.476 475.808C136.607 466.22 146.565 382.146 146.323 380.528C146.081 378.884 138.692 368.686 137.212 366.657C137.051 366.445 136.741 366.392 136.526 366.551C136.311 366.71 136.257 367.002 136.418 367.227C139.783 371.855 145.192 379.587 145.354 380.674C145.475 382.464 138.316 443.624 134.507 475.702C134.48 475.967 134.669 476.206 134.938 476.232C134.951 476.232 134.978 476.232 134.992 476.232Z" fill="#0017BF"/>
<path d="M185.578 381.537C185.578 381.537 185.658 381.537 185.699 381.524C194.607 379.389 194.217 369.881 194.217 369.774C194.204 369.509 194.002 369.324 193.706 369.31C193.437 369.31 193.221 369.549 193.235 369.814C193.248 370.172 193.585 378.619 185.47 380.569C185.201 380.635 185.039 380.9 185.107 381.152C185.16 381.378 185.362 381.524 185.578 381.524V381.537Z" fill="#0017BF"/>
<path d="M208.374 324.182C208.563 324.182 208.738 324.076 208.818 323.903L211.873 317.525C211.994 317.286 211.873 316.994 211.644 316.875C211.402 316.769 211.106 316.875 210.985 317.101L207.93 323.479C207.809 323.718 207.93 324.009 208.159 324.129C208.226 324.155 208.293 324.169 208.374 324.169V324.182Z" fill="white"/>
<path d="M146.335 316.558C146.604 316.558 146.833 316.346 146.833 316.081V309.928C146.833 309.662 146.618 309.45 146.335 309.45C146.052 309.45 145.837 309.662 145.837 309.928V316.081C145.837 316.346 146.052 316.558 146.335 316.558Z" fill="white"/>
</g>
</svg>
