<svg width="60" height="61" viewBox="0 0 60 61" fill="none" xmlns="http://www.w3.org/2000/svg">
<circle cx="30" cy="30.7236" r="21.375" fill="#00D1FF"/>
<path d="M30 20.9736C25.4529 20.9736 21.75 24.7245 21.75 29.3305C21.7506 31.8621 22.999 34.1444 24.9203 35.722C24.6702 36.3552 24.3877 37.0054 23.9409 37.6476C23.7845 37.8725 23.7536 38.1633 23.8596 38.416C23.9655 38.6692 24.1932 38.8487 24.4617 38.8913C26.4799 39.2087 27.9403 38.5778 28.9455 37.5948C29.2953 37.6414 29.6474 37.6868 30 37.688C34.5471 37.688 38.25 33.9371 38.25 29.3311C38.25 24.725 34.5471 20.9736 30 20.9736ZM33.9305 31.644C33.7825 31.794 33.5818 31.8774 33.3727 31.8769H26.629C26.421 31.8769 26.2209 31.7923 26.074 31.6423C25.9271 31.4924 25.8447 31.2897 25.8458 31.0784C25.8475 30.6412 26.1974 30.2874 26.629 30.2862H33.3727C33.5806 30.2857 33.7808 30.3686 33.9282 30.5168C34.0762 30.6656 34.1592 30.8672 34.1603 31.0779C34.1614 31.2897 34.0785 31.4936 33.9305 31.6435V31.644ZM33.9282 28.1431C33.7802 28.2919 33.5806 28.3748 33.3727 28.3736H26.629C26.1974 28.3725 25.8475 28.0193 25.8458 27.5815C25.8453 27.3708 25.9271 27.1675 26.074 27.0175C26.2209 26.8682 26.4205 26.7836 26.629 26.783H33.3727C33.5818 26.7824 33.7825 26.8659 33.9305 27.0158C34.0785 27.1658 34.1609 27.3691 34.1603 27.5809C34.1598 27.7916 34.0762 27.9937 33.9282 28.1419V28.1431Z" fill="white"/>
</svg>
