<svg width="385" height="400" viewBox="0 0 385 400" fill="none" xmlns="http://www.w3.org/2000/svg">
<path d="M385 0H0V400H385V0Z" fill="black"/>
<mask id="mask0_1455_34493" style="mask-type:alpha" maskUnits="userSpaceOnUse" x="0" y="220" width="385" height="180">
<path d="M385 220H0V400H385V220Z" fill="black"/>
</mask>
<g mask="url(#mask0_1455_34493)">
<path d="M64.5515 316.292C64.4745 316.292 64.4052 316.261 64.3513 316.205C64.2974 316.15 64.2666 316.079 64.2666 316.001V251.828C64.2666 251.67 64.3898 251.544 64.5438 251.544C64.6977 251.544 64.8209 251.67 64.8209 251.828V315.717L133.441 315.67V264.581C133.441 264.424 133.564 264.297 133.718 264.297C133.872 264.297 133.995 264.424 133.995 264.581V315.953C133.995 316.111 133.872 316.237 133.718 316.245L64.5361 316.292H64.5515Z" fill="#E64218"/>
<path d="M135.525 277.575C135.525 278.397 134.856 279.064 134.033 279.064C133.21 279.064 132.541 278.397 132.541 277.575C132.541 276.754 133.21 276.086 134.033 276.086C134.856 276.086 135.525 276.754 135.525 277.575Z" fill="#E64218"/>
<path d="M134.033 298.256C134.857 298.256 135.525 297.589 135.525 296.767C135.525 295.944 134.857 295.277 134.033 295.277C133.209 295.277 132.541 295.944 132.541 296.767C132.541 297.589 133.209 298.256 134.033 298.256Z" fill="#E64218"/>
<path d="M66.42 295.208C66.42 296.029 65.751 296.697 64.9283 296.697C64.1055 296.697 63.4365 296.029 63.4365 295.208C63.4365 294.387 64.1055 293.719 64.9283 293.719C65.751 293.719 66.42 294.387 66.42 295.208Z" fill="#E64218"/>
<path d="M52.6446 315.252V361.554C52.6446 364.333 55.1821 366.582 58.2963 366.582H139.811C142.941 366.582 145.479 364.333 145.479 361.554V315.252C145.479 312.473 142.941 310.224 139.811 310.224H58.2963C55.1821 310.224 52.6446 312.473 52.6446 315.252Z" fill="#40398D"/>
<path d="M86.5879 323.542H106.188C106.619 323.542 106.969 323.891 106.969 324.323C106.969 324.754 106.619 325.104 106.188 325.104H86.5879C86.1566 325.104 85.807 324.754 85.807 324.323C85.807 323.891 86.1566 323.542 86.5879 323.542Z" fill="#5EF939"/>
<path d="M66.8153 331.581H101.502C101.934 331.581 102.283 331.931 102.283 332.362C102.283 332.793 101.934 333.143 101.502 333.143H66.8153C66.3841 333.143 66.0345 332.793 66.0345 332.362C66.0345 331.931 66.3841 331.581 66.8153 331.581Z" fill="#FFB904"/>
<path d="M106.164 331.581H120.346C120.777 331.581 121.127 331.931 121.127 332.362C121.127 332.793 120.777 333.143 120.346 333.143H106.164C105.733 333.143 105.383 332.793 105.383 332.362C105.383 331.931 105.733 331.581 106.164 331.581Z" fill="#5EF939"/>
<path d="M66.8153 354.211H101.502C101.934 354.211 102.283 354.56 102.283 354.991C102.283 355.423 101.934 355.772 101.502 355.772H66.8153C66.3841 355.772 66.0345 355.423 66.0345 354.991C66.0345 354.56 66.3841 354.211 66.8153 354.211Z" fill="#FFB904"/>
<path d="M106.165 354.211H133.023C133.454 354.211 133.804 354.56 133.804 354.991C133.804 355.423 133.454 355.772 133.023 355.772H106.165C105.734 355.772 105.384 355.423 105.384 354.991C105.384 354.56 105.734 354.211 106.165 354.211Z" fill="#5EF939"/>
<path d="M66.8153 342.706H101.502C101.934 342.706 102.283 343.056 102.283 343.487C102.283 343.918 101.934 344.268 101.502 344.268H66.8153C66.3841 344.268 66.0345 343.918 66.0345 343.487C66.0345 343.056 66.3841 342.706 66.8153 342.706Z" fill="#5EF939"/>
<path d="M106.164 342.706H120.346C120.777 342.706 121.127 343.056 121.127 343.487C121.127 343.918 120.777 344.268 120.346 344.268H106.164C105.733 344.268 105.383 343.918 105.383 343.487C105.383 343.056 105.733 342.706 106.164 342.706Z" fill="#5EF939"/>
<path d="M109.376 338.705L85.6597 338.705C85.2285 338.705 84.8789 338.356 84.8789 337.925C84.8789 337.493 85.2285 337.144 85.6597 337.144L109.376 337.144C109.807 337.144 110.156 337.493 110.156 337.925C110.156 338.356 109.807 338.705 109.376 338.705Z" fill="#FFB904"/>
<path d="M80.9981 338.705L66.816 338.705C66.3847 338.705 66.0352 338.356 66.0352 337.925C66.0352 337.493 66.3847 337.144 66.816 337.144L80.9981 337.144C81.4294 337.144 81.7789 337.493 81.7789 337.925C81.7789 338.356 81.4294 338.705 80.9981 338.705Z" fill="#5EF939"/>
<path d="M109.376 349.831L85.6597 349.831C85.2285 349.831 84.8789 349.481 84.8789 349.05C84.8789 348.619 85.2285 348.269 85.6597 348.269L109.376 348.269C109.807 348.269 110.156 348.619 110.156 349.05C110.156 349.481 109.807 349.831 109.376 349.831Z" fill="#FFB904"/>
<path d="M80.9981 349.831L66.816 349.831C66.3847 349.831 66.0352 349.481 66.0352 349.05C66.0352 348.619 66.3847 348.269 66.816 348.269L80.9981 348.269C81.4294 348.269 81.7789 348.619 81.7789 349.05C81.7789 349.481 81.4294 349.831 80.9981 349.831Z" fill="#5EF939"/>
<path d="M66.6934 325.219V324.266L70.5684 322.547V323.648L67.9355 324.715V324.762L70.5684 325.828V326.93L66.6934 325.219ZM76.1387 321.078L74.3105 327.852H73.3184L75.1387 321.078H76.1387ZM82.7637 325.219L78.8887 326.93V325.828L81.5215 324.762V324.715L78.8887 323.648V322.547L82.7637 324.266V325.219Z" fill="#3DF130"/>
<path d="M110.85 323.542H133.023C133.454 323.542 133.804 323.891 133.804 324.323C133.804 324.754 133.454 325.104 133.023 325.104H110.85C110.419 325.104 110.069 324.754 110.069 324.323C110.069 323.891 110.419 323.542 110.85 323.542Z" fill="#FFB904"/>
<path d="M52.6447 315.252V316.588H145.486V315.252C145.486 312.473 142.949 310.224 139.819 310.224H58.3041C55.1899 310.224 52.6524 312.473 52.6524 315.252H52.6447Z" fill="#373178"/>
<path d="M78.8419 236.602H49.1993C47.9844 236.602 47.0001 237.585 47.0001 238.797V255.101C47.0001 256.314 47.9844 257.297 49.1993 257.297H78.8419C80.0568 257.297 81.041 256.314 81.041 255.101V238.797C81.041 237.585 80.0568 236.602 78.8419 236.602Z" fill="#5EF939"/>
<path d="M67.5232 242.277H74.5205V249.262H67.5232V242.277Z" fill="#DC3C1E"/>
<path d="M58.2417 239.774L56.0656 243.543L53.8895 247.312H58.2417H62.6016L60.4255 243.543L58.2417 239.774Z" fill="#E64218"/>
<path d="M64.2936 254.112C61.6097 254.112 59.4339 251.94 59.4339 249.261C59.4339 246.581 61.6097 244.409 64.2936 244.409C66.9776 244.409 69.1533 246.581 69.1533 249.261C69.1533 251.94 66.9776 254.112 64.2936 254.112Z" fill="white"/>
<path d="M298.167 400.436L317.53 397.537L314.441 376.348L297.378 377.518L298.167 400.436Z" fill="#FFBB87"/>
<path d="M179.66 267.931C179.66 267.931 163.585 268.209 160.673 267.931C157.765 267.655 160.673 265.577 160.673 265.577C160.673 265.577 155.131 265.022 157.071 263.498C159.011 261.974 177.337 261.638 181.461 262.221C185.582 262.805 191.575 263.637 191.575 263.637L179.66 267.931Z" fill="#FFBB87"/>
<path d="M242.013 257.021C242.013 257.021 232.316 257.402 229.822 258.232C227.327 259.064 209.728 268.543 206.542 268.543C203.354 268.543 190.189 260.172 190.189 260.172L170.79 271.257C170.79 271.257 182.846 295.925 202.107 298.141C221.369 300.359 228.851 292.46 228.851 292.46L242.013 257.021Z" fill="#3DF130"/>
<path d="M218.509 318.08C218.509 318.08 205.787 350.23 206.047 379.262C206.308 408.295 215.1 439.714 215.1 439.714L253.705 440.443C253.705 440.443 247.222 409.615 246.666 402.519C246.111 395.422 244.666 350.475 244.666 350.475L244.245 319.938L218.509 318.08Z" fill="#0002BB"/>
<path d="M265.792 308.563C265.792 308.563 269.811 332.136 271.419 345.792C272.5 354.983 280.023 364.573 288.666 367.4C297.312 370.229 305.515 371.551 305.515 371.551L306.623 405.099C306.623 405.099 277.43 412.925 256.918 400.087C236.406 387.25 237.737 360.497 237.737 360.497L236.212 317.357L265.792 308.563Z" fill="#0002BB"/>
<path d="M248.205 257.088C233.816 255.694 221.862 265.792 219.911 280.115L218.748 288.639C218.748 288.639 214.974 316.943 215.599 318.038C216.225 319.133 229.286 321.948 241.916 321.322C254.545 320.696 264.638 319.503 265.263 319.032C265.446 318.895 271.286 313.558 271.217 306.317C271.05 288.747 261.895 259.248 261.895 258.916C261.895 258.691 255.921 257.838 248.205 257.088Z" fill="#3DF130"/>
<path d="M245.641 388.968C245.729 388.968 245.818 388.939 245.891 388.881C246.065 388.745 246.095 388.493 245.957 388.318C227.47 364.909 236.169 330.49 236.261 330.146C236.29 330.032 236.267 329.912 236.202 329.815C236.134 329.717 236.026 329.656 235.911 329.645L224.193 328.513C223.952 328.498 223.775 328.654 223.754 328.876C223.733 329.096 223.894 329.292 224.114 329.313L235.373 330.4C234.4 334.59 227.759 366.567 245.326 388.815C245.406 388.915 245.524 388.968 245.641 388.968Z" fill="#5E1DBB"/>
<path d="M263.754 330.238C263.892 330.238 264.032 330.235 264.173 330.232C264.397 330.225 264.57 330.04 264.565 329.817C264.559 329.597 264.371 329.411 264.153 329.429C264.016 329.432 263.881 329.435 263.751 329.435C257.199 329.435 256.584 324.619 256.56 324.41C256.538 324.189 256.362 324.025 256.118 324.054C255.898 324.078 255.739 324.275 255.762 324.495C255.768 324.555 256.459 330.238 263.754 330.238Z" fill="#5E1DBB"/>
<path d="M276.333 359.978C275.908 362.215 274.979 365.7 273.563 366.718C273.227 366.961 272.889 367.046 272.534 366.975C272.16 366.903 272.107 366.734 272.084 366.664C271.731 365.546 274.226 362.301 276.333 359.978ZM272.776 367.802C273.211 367.802 273.634 367.658 274.032 367.37C276.41 365.66 277.303 359.073 277.342 358.792C277.363 358.621 277.274 358.454 277.117 358.379C276.963 358.305 276.776 358.337 276.654 358.461C275.648 359.5 270.655 364.793 271.318 366.905C271.418 367.221 271.683 367.627 272.38 367.764C272.513 367.789 272.645 367.802 272.776 367.802Z" fill="#5E1DBB"/>
<path d="M246.504 236.678C246.504 236.678 238.183 237.076 237.711 229.096C237.21 220.599 245.07 219.785 248.409 223.22C251.746 226.655 251.129 230.15 251.129 230.15C251.129 230.15 253.456 228.051 255.994 230.627C257.856 232.518 256.896 235.608 256.896 235.608C256.896 235.608 261.187 235.443 260.787 239.191C260.387 242.939 257.707 244.842 257.707 244.842L246.504 236.678Z" fill="#0017BF"/>
<path d="M254.111 251.371L253.247 260.213C253.247 260.213 251.404 262.6 246.19 262.514C242.305 262.45 241.038 261.447 241.038 261.447L242.013 257.021L242.97 252.706L252.51 251.566L254.111 251.371Z" fill="#FFBB87"/>
<path d="M252.51 251.566C252.463 251.804 252.344 252.08 252.169 252.393C249.759 256.616 244.257 257.04 242.012 257.021L242.969 252.706L252.51 251.566Z" fill="black"/>
<path d="M242.97 232.358C242.97 232.358 237.245 242.991 238.472 249.329C239.699 255.669 245.424 255.157 248.899 254.237C252.374 253.316 254.113 251.375 254.113 251.375C254.113 251.375 257.179 252.703 259.531 249.942C261.882 247.184 260.859 243.707 259.122 242.787C257.384 241.867 255.136 242.991 255.136 242.991L257.078 239.923C257.078 239.923 251.353 223.055 242.97 232.358Z" fill="#FFBB87"/>
<path d="M255.028 247.846C255.097 247.846 255.166 247.828 255.23 247.792L259.492 245.317C259.686 245.204 259.751 244.96 259.638 244.768C259.529 244.575 259.282 244.511 259.091 244.622L254.825 247.096C254.634 247.209 254.57 247.453 254.681 247.645C254.755 247.774 254.89 247.846 255.028 247.846Z" fill="black"/>
<path d="M258.665 248.151C258.829 248.151 258.983 248.05 259.042 247.886C259.118 247.679 259.01 247.45 258.803 247.372L256.245 246.441C256.034 246.364 255.805 246.473 255.729 246.682C255.654 246.889 255.761 247.119 255.969 247.196L258.527 248.127C258.572 248.143 258.618 248.151 258.665 248.151Z" fill="black"/>
<path d="M249.954 237.797C250.081 237.797 250.206 237.736 250.285 237.623C250.41 237.442 250.365 237.192 250.183 237.065C248.632 235.992 247.092 235.894 247.026 235.891C246.792 235.889 246.617 236.055 246.604 236.267C246.589 236.488 246.76 236.678 246.98 236.692C246.994 236.692 248.369 236.787 249.724 237.725C249.795 237.774 249.875 237.797 249.954 237.797Z" fill="black"/>
<path d="M241.418 236.541C241.468 236.541 241.519 236.533 241.569 236.512C242.306 236.212 243.074 236.51 243.08 236.514C243.289 236.595 243.52 236.494 243.602 236.29C243.686 236.085 243.586 235.852 243.382 235.768C243.337 235.751 242.31 235.344 241.266 235.768C241.06 235.852 240.962 236.086 241.046 236.292C241.108 236.448 241.259 236.541 241.418 236.541Z" fill="black"/>
<path d="M242.605 246.609C242.675 246.609 242.745 246.591 242.809 246.552C243 246.44 243.062 246.194 242.95 246.002C241.555 243.644 244.257 240.709 244.286 240.68C244.436 240.517 244.429 240.264 244.267 240.111C244.108 239.962 243.854 239.967 243.698 240.13C243.57 240.267 240.556 243.533 242.26 246.413C242.333 246.538 242.468 246.609 242.605 246.609Z" fill="black"/>
<path d="M241.043 240.795C241.205 240.795 241.356 240.695 241.418 240.535L242.168 238.561C242.249 238.354 242.144 238.123 241.937 238.044C241.73 237.964 241.499 238.07 241.42 238.277L240.668 240.249C240.588 240.456 240.692 240.689 240.9 240.767C240.948 240.785 240.996 240.795 241.043 240.795Z" fill="black"/>
<path d="M246.629 241.452C246.789 241.452 246.942 241.353 247.003 241.194L247.754 239.219C247.835 239.012 247.729 238.779 247.522 238.7C247.316 238.621 247.085 238.727 247.004 238.933L246.253 240.908C246.173 241.115 246.279 241.346 246.486 241.425C246.532 241.443 246.58 241.452 246.629 241.452Z" fill="black"/>
<path d="M241.794 234.766C241.794 234.766 242.927 233.082 245.134 233.283C247.342 233.483 248.479 235.163 248.479 235.163C248.479 235.163 247.146 238.783 249.953 241.05C252.76 243.316 255.135 242.99 255.135 242.99L257.385 242.428L259.293 239.406L253.663 232.008L245.937 226.911L241.418 230.273L241.794 234.766Z" fill="#0017BF"/>
<path d="M246.084 262.606C248.583 262.606 251.489 261.972 254.311 259.902C254.487 259.77 254.528 259.518 254.396 259.34C254.264 259.16 254.012 259.122 253.834 259.253C247.017 264.262 239.659 260.361 239.583 260.32C239.397 260.217 239.146 260.286 239.039 260.48C238.934 260.674 239.005 260.919 239.199 261.025C239.248 261.05 242.169 262.606 246.084 262.606Z" fill="white"/>
<path d="M333.543 371.889C334.834 372.515 334.25 381.128 334.499 381.855C334.749 382.584 329.915 385.017 330.754 386.366C331.582 387.718 334.031 389.273 335.239 391.259C336.365 393.114 338.293 424.727 337.866 430.9C337.828 431.408 337.349 431.787 336.8 431.731C335.435 431.593 332.774 431.239 330.089 430.383C327.672 429.614 325.218 428.439 323.667 426.645C319.607 421.996 317.449 411.829 314.716 408.267C311.981 404.694 305.702 400.923 306.69 398.617C307.687 396.311 312.626 391.772 311.478 385.757C310.341 379.743 308.665 377.042 310.047 375.31C310.918 374.219 319.546 372.902 326.097 372.233C329.936 371.833 333.065 371.66 333.543 371.889Z" fill="#FFB904"/>
<path d="M257.758 292.894C257.758 292.894 256.441 289.133 255.937 287.934C255.433 286.734 255.663 282.668 254.209 281.989C252.756 281.309 252.308 287.839 252.308 287.839C252.308 287.839 243.71 278.118 242.115 278.563C240.519 279.008 244.198 285.578 244.198 285.578C244.198 285.578 237.763 278.608 236.537 279.856C235.311 281.104 240.789 288.038 240.789 288.038C240.789 288.038 235.883 283.829 234.916 285.188C233.946 286.548 241.788 297.269 241.788 297.269C241.788 297.269 246.297 308.471 252.51 306.87C258.723 305.271 257.758 292.894 257.758 292.894Z" fill="#FFBB87"/>
<path d="M245.575 248.322C245.285 248.812 244.923 249.239 244.649 249.239C244.321 249.239 244 248.985 243.761 248.722L245.575 248.322ZM244.649 250.042C245.765 250.042 246.539 248.259 246.683 247.9C246.74 247.762 246.714 247.604 246.618 247.49C246.521 247.378 246.37 247.325 246.226 247.359L242.984 248.072C242.858 248.099 242.755 248.184 242.703 248.301C242.651 248.417 242.658 248.552 242.722 248.663C242.804 248.804 243.547 250.042 244.649 250.042Z" fill="black"/>
<path d="M160.673 265.978C160.721 265.978 160.769 265.969 160.816 265.953C160.866 265.932 165.939 264.03 169.985 263.761C170.181 263.746 170.339 263.595 170.36 263.399C170.377 263.205 170.255 263.023 170.066 262.972L167.016 262.129C166.799 262.065 166.584 262.196 166.523 262.41C166.465 262.622 166.591 262.844 166.804 262.903L167.883 263.202C164.277 263.794 160.71 265.134 160.53 265.201C160.323 265.278 160.22 265.511 160.299 265.718C160.358 265.879 160.512 265.978 160.673 265.978Z" fill="black"/>
<path d="M145.707 260.067H211.114L197.521 255.075H132.111L145.707 260.067Z" fill="#EDEDED"/>
<path d="M145.431 262.81H211.114V260.067H145.431V262.81Z" fill="#40398D"/>
<path d="M132.111 255.075V258.11L145.43 262.81V260.067L132.111 255.075Z" fill="#40398D"/>
<path d="M197.521 255.075L185.181 220.715C185.027 220.286 184.62 220.001 184.166 220.001H123.179C122.458 220.001 121.94 220.694 122.145 221.386L132.111 255.075H197.521Z" fill="#40398D"/>
<path d="M177.028 228.301H153.785C153.098 228.301 152.54 228.859 152.54 229.546C152.54 230.234 153.098 230.792 153.785 230.792H177.028C177.716 230.792 178.273 230.234 178.273 229.546C178.273 228.859 177.716 228.301 177.028 228.301Z" fill="#FFB904"/>
<path d="M182.839 243.243H172.048C171.36 243.243 170.803 243.801 170.803 244.488C170.803 245.176 171.36 245.733 172.048 245.733H182.839C183.527 245.733 184.084 245.176 184.084 244.488C184.084 243.801 183.527 243.243 182.839 243.243Z" fill="#5EF939"/>
<path d="M148.805 235.772H173.708C174.396 235.772 174.953 236.329 174.953 237.017C174.953 237.705 174.396 238.262 173.708 238.262H148.805C148.117 238.262 147.56 237.705 147.56 237.017C147.56 236.329 148.117 235.772 148.805 235.772Z" fill="#E64218"/>
<path d="M148.805 228.301H139.674C138.986 228.301 138.429 228.859 138.429 229.546C138.429 230.234 138.986 230.792 139.674 230.792H148.805C149.493 230.792 150.05 230.234 150.05 229.546C150.05 228.859 149.493 228.301 148.805 228.301Z" fill="#5EF939"/>
<path d="M167.067 243.243H145.484C144.797 243.243 144.239 243.801 144.239 244.488C144.239 245.176 144.797 245.733 145.484 245.733H167.067C167.755 245.733 168.312 245.176 168.312 244.488C168.312 243.801 167.755 243.243 167.067 243.243Z" fill="#5EF939"/>
<path d="M261.895 258.916C261.895 258.916 281.095 266.685 292.688 285.439C303.381 302.736 303.588 317.958 285.482 322.392C267.376 326.825 249.25 309.273 249.25 309.273L258.664 290.242L262.94 291.906L261.895 258.916Z" fill="#3DF130"/>
<path d="M253.103 291.352C253.128 291.352 253.157 291.349 253.185 291.341C253.366 291.296 253.475 291.111 253.43 290.93L252.635 287.758C252.59 287.578 252.401 287.464 252.226 287.511C252.044 287.557 251.934 287.74 251.98 287.922L252.775 291.095C252.812 291.249 252.95 291.352 253.103 291.352Z" fill="black"/>
<path d="M242.013 289.765C242.091 289.765 242.172 289.736 242.236 289.68C242.376 289.556 242.39 289.343 242.266 289.203L241.043 287.814C240.919 287.674 240.705 287.661 240.564 287.785C240.424 287.909 240.412 288.122 240.535 288.264L241.757 289.651C241.825 289.725 241.918 289.765 242.013 289.765Z" fill="black"/>
<path d="M245.48 287.257C245.566 287.257 245.649 287.225 245.713 287.162C245.85 287.032 245.853 286.819 245.725 286.684L244.441 285.346C244.31 285.211 244.096 285.206 243.963 285.335C243.828 285.465 243.825 285.68 243.953 285.815L245.235 287.153C245.302 287.222 245.391 287.257 245.48 287.257Z" fill="black"/>
<path d="M217.587 298.057C217.782 298.057 217.952 297.916 217.984 297.719L219.686 286.98C219.722 286.76 219.572 286.556 219.352 286.521C219.135 286.493 218.928 286.636 218.893 286.855L217.191 297.593C217.155 297.812 217.305 298.017 217.525 298.053C217.544 298.056 217.566 298.057 217.587 298.057Z" fill="white"/>
<path d="M283.998 298.057C284.131 298.057 284.262 297.992 284.337 297.87C284.456 297.683 284.4 297.434 284.213 297.317C275.678 291.929 263.078 289.851 262.953 289.832C262.715 289.792 262.528 289.946 262.492 290.164C262.457 290.383 262.606 290.588 262.825 290.624C262.95 290.645 275.391 292.697 283.783 297.995C283.85 298.037 283.924 298.057 283.998 298.057Z" fill="white"/>
<path d="M281.225 292.389C282.288 292.389 283.2 292.575 283.719 293.078C283.92 293.271 283.933 293.365 283.933 293.365C283.586 293.979 279.073 293.858 276.104 293.259C277.572 292.837 279.578 292.389 281.225 292.389ZM281.27 294.571C282.905 294.571 284.267 294.356 284.625 293.762C284.757 293.542 284.887 293.088 284.278 292.5C281.982 290.285 274.816 292.816 274.514 292.925C274.352 292.983 274.244 293.137 274.248 293.309C274.251 293.481 274.36 293.632 274.524 293.685C275.768 294.093 278.826 294.571 281.27 294.571Z" fill="white"/>
<path d="M206.239 270.151C206.293 271.956 206.195 274.403 205.469 275.272C205.326 275.442 205.179 275.527 205.005 275.542C204.861 275.548 204.833 275.51 204.819 275.486C204.446 274.94 205.2 272.524 206.239 270.151ZM204.963 276.345C204.999 276.345 205.033 276.345 205.069 276.342C205.461 276.31 205.803 276.123 206.086 275.786C207.457 274.143 206.998 269.077 206.942 268.503C206.923 268.327 206.789 268.181 206.614 268.148C206.431 268.118 206.261 268.206 206.181 268.367C205.678 269.388 203.215 274.558 204.152 275.937C204.334 276.204 204.618 276.345 204.963 276.345Z" fill="white"/>
<path d="M262.889 319.125C263.032 319.125 263.17 319.048 263.243 318.912C263.347 318.717 263.273 318.473 263.077 318.371C262.983 318.319 253.619 313.315 250.68 309.301C250.547 309.121 250.294 309.084 250.118 309.212C249.94 309.344 249.901 309.594 250.031 309.773C253.079 313.938 262.308 318.872 262.7 319.079C262.761 319.111 262.825 319.125 262.889 319.125Z" fill="white"/>
</g>
</svg>
