<svg width="385" height="400" viewBox="0 0 385 400" fill="none" xmlns="http://www.w3.org/2000/svg">
<path d="M385 0H0V400H385V0Z" fill="black"/>
<mask id="mask0_1455_33757" style="mask-type:alpha" maskUnits="userSpaceOnUse" x="0" y="220" width="385" height="180">
<path d="M385 220H0V400H385V220Z" fill="black"/>
</mask>
<g mask="url(#mask0_1455_33757)">
<path d="M227.343 223.862V293.85C227.343 295.974 225.556 297.711 223.355 297.711H96.416C94.226 297.711 92.4395 295.974 92.4395 293.85V223.862C92.4395 221.738 94.226 220 96.416 220H223.355C225.556 220 227.343 221.738 227.343 223.862Z" fill="#40398D"/>
<path d="M227.343 224.611V229.495H92.4395V224.611C92.4395 222.067 94.226 220 96.416 220H223.355C225.556 220 227.343 222.067 227.343 224.611Z" fill="#EDEDED"/>
<path d="M114.568 227.004C115.835 227.004 116.862 225.993 116.862 224.744C116.862 223.496 115.835 222.484 114.568 222.484C113.301 222.484 112.274 223.496 112.274 224.744C112.274 225.993 113.301 227.004 114.568 227.004Z" fill="#FFB904"/>
<path d="M107.227 227.004C108.494 227.004 109.521 225.993 109.521 224.744C109.521 223.496 108.494 222.484 107.227 222.484C105.961 222.484 104.934 223.496 104.934 224.744C104.934 225.993 105.961 227.004 107.227 227.004Z" fill="#E64218"/>
<path d="M99.8982 227.004C101.165 227.004 102.192 225.993 102.192 224.744C102.192 223.496 101.165 222.484 99.8982 222.484C98.6315 222.484 97.6045 223.496 97.6045 224.744C97.6045 225.993 98.6315 227.004 99.8982 227.004Z" fill="#0017BF"/>
<path d="M216.814 256.494H188.008C187.271 256.494 186.673 257.092 186.673 257.829C186.673 258.567 187.271 259.165 188.008 259.165H216.814C217.551 259.165 218.149 258.567 218.149 257.829C218.149 257.092 217.551 256.494 216.814 256.494Z" fill="#FFB904"/>
<path d="M182.026 256.494H153.221C152.484 256.494 151.886 257.092 151.886 257.829C151.886 258.567 152.484 259.165 153.221 259.165H182.026C182.764 259.165 183.362 258.567 183.362 257.829C183.362 257.092 182.764 256.494 182.026 256.494Z" fill="#3DF130"/>
<path d="M216.813 248.197H202.26C201.523 248.197 200.925 248.795 200.925 249.533C200.925 250.27 201.523 250.868 202.26 250.868H216.813C217.551 250.868 218.149 250.27 218.149 249.533C218.149 248.795 217.551 248.197 216.813 248.197Z" fill="#3DF130"/>
<path d="M168.673 272.3H154.12C153.382 272.3 152.784 272.898 152.784 273.636C152.784 274.373 153.382 274.971 154.12 274.971H168.673C169.41 274.971 170.008 274.373 170.008 273.636C170.008 272.898 169.41 272.3 168.673 272.3Z" fill="#FFB904"/>
<path d="M197.101 248.197H160.006C159.269 248.197 158.671 248.795 158.671 249.533C158.671 250.27 159.269 250.868 160.006 250.868H197.101C197.838 250.868 198.436 250.27 198.436 249.533C198.436 248.795 197.838 248.197 197.101 248.197Z" fill="#E64218"/>
<path d="M216.813 264.397H145.408C144.67 264.397 144.072 264.995 144.072 265.733C144.072 266.47 144.67 267.068 145.408 267.068H216.813C217.551 267.068 218.149 266.47 218.149 265.733C218.149 264.995 217.551 264.397 216.813 264.397Z" fill="#3DF130"/>
<path d="M216.813 272.3H174.133C173.396 272.3 172.798 272.898 172.798 273.636C172.798 274.373 173.396 274.971 174.133 274.971H216.813C217.551 274.971 218.149 274.373 218.149 273.636C218.149 272.898 217.551 272.3 216.813 272.3Z" fill="#3DF130"/>
<path d="M137.165 245H103.133V278.536H137.165V245Z" fill="#2E2C6E"/>
<path d="M108.344 260.703V262.281L115.891 265.781V263.828L110.578 261.539V261.445L115.891 259.156V257.203L108.344 260.703ZM122.828 268.844L119.188 255.297H117.438L121.094 268.844H122.828ZM131.938 260.703L124.391 257.203V259.156L129.703 261.445V261.539L124.391 263.828V265.781L131.938 262.281V260.703Z" fill="#FFB904"/>
<path d="M254.83 315.46C254.83 315.46 242.86 313.072 234.416 320.17C225.973 327.269 221.234 381.508 221.234 381.508C221.234 381.508 249.513 396.588 273.618 396.588C297.723 396.588 295.602 395.502 295.602 395.502L301.222 373.5L254.844 315.474L254.83 315.46Z" fill="#0017BF"/>
<path d="M185.822 287.172C185.822 287.172 182.365 278.499 180.519 280.969C178.673 283.44 182.006 296.47 182.006 296.47C182.006 296.47 189.899 297.691 185.822 287.172Z" fill="#FFBB87"/>
<path d="M237.586 284.211H202.254C200.976 284.211 199.94 285.232 199.94 286.491V321.307C199.94 322.566 200.976 323.587 202.254 323.587H237.586C238.864 323.587 239.9 322.566 239.9 321.307V286.491C239.9 285.232 238.864 284.211 237.586 284.211Z" fill="#F6F6F6"/>
<path d="M224.774 309.117C228.852 305.099 228.852 298.585 224.774 294.567C220.697 290.549 214.086 290.549 210.009 294.567C205.931 298.585 205.931 305.099 210.009 309.117C214.086 313.135 220.697 313.135 224.774 309.117Z" fill="#5EF939"/>
<path d="M224.53 301.964L228.717 309.103L232.891 316.229H224.53H216.169L220.356 309.103L224.53 301.964Z" fill="#E64218"/>
<path d="M194.115 320.426C194.115 320.426 202.558 312.621 202.159 308.481C201.759 304.341 199.79 295.044 199.79 295.044C199.79 295.044 208.096 286.533 207.696 284.714C207.297 282.896 200.905 285.76 200.905 285.76C200.905 285.76 207.724 279.136 207.71 276.53C207.71 273.937 204.142 275.227 204.142 275.227C204.142 275.227 204.666 272.241 202.558 272.499C200.451 272.756 187.255 281.728 183.44 286.533C179.61 291.338 183.701 303.636 183.44 305.346C183.178 307.056 180.533 310.571 180.533 310.571L194.115 320.412V320.426Z" fill="#FFBB87"/>
<path d="M178.809 305.372L204.126 317.832C204.126 317.832 200.696 327.605 208.617 330.468C216.523 333.332 225.766 320.56 236.303 317.33C246.854 314.099 255.325 316.189 255.325 316.189L250.298 359.447C250.298 359.447 202.9 384.273 179.952 367.89C157.004 351.521 178.795 305.358 178.795 305.358L178.809 305.372Z" fill="#0017BF"/>
<path d="M181.895 291.309C181.551 291.268 181.358 291.01 181.399 290.739C181.413 290.589 181.922 287.128 184.044 285.079C184.237 284.889 184.553 284.889 184.76 285.079C184.953 285.269 184.953 285.594 184.76 285.784C182.887 287.59 182.418 290.834 182.405 290.861C182.363 291.105 182.157 291.295 181.909 291.295L181.895 291.309Z" fill="black"/>
<path d="M193.053 284.699C192.902 284.699 192.764 284.631 192.667 284.522C192.488 284.305 192.516 283.993 192.736 283.83L203.811 274.858C204.017 274.682 204.334 274.709 204.513 274.926C204.692 275.143 204.665 275.455 204.444 275.618L193.37 284.59C193.273 284.672 193.163 284.699 193.053 284.699Z" fill="black"/>
<path d="M197.267 288.622C197.102 288.622 196.95 288.541 196.854 288.391C196.702 288.161 196.771 287.862 196.991 287.713L200.628 285.351C200.862 285.202 201.165 285.269 201.316 285.487C201.468 285.717 201.399 286.016 201.179 286.165L197.542 288.527C197.46 288.581 197.363 288.608 197.267 288.608V288.622Z" fill="black"/>
<path d="M234.899 369.519C234.899 369.519 196.221 335.328 174.017 340.785C151.813 346.241 150.119 369.099 146.166 394.82C142.212 420.555 140.973 439.354 140.973 439.354L194.128 440.399L197.282 395.444L254.087 378.03L234.913 369.519H234.899Z" fill="#3DF130"/>
<path d="M295.588 395.486C295.588 395.486 292.158 423.487 280.395 431.808C268.631 440.128 248.411 437.536 228.769 426.962C209.443 416.565 203.741 412.71 201.537 412.71C199.333 412.71 161.027 464.994 161.027 464.994L116.315 441.988C116.315 441.988 150.393 360.847 178.63 354.848C205.958 349.038 267.309 387.125 267.309 387.125L295.588 395.486Z" fill="#4EFD62"/>
<path d="M273.605 283.167C273.605 283.167 289.625 278.932 295.438 289.628C301.237 300.324 296.237 343.717 296.237 343.717L271.636 327.769L272.159 306.255L273.619 283.167H273.605Z" fill="#0017BF"/>
<path d="M241.278 339.386L222.531 355.81C222.531 355.81 249.198 397.086 287.174 390.503C325.15 383.92 308.441 349.254 302.119 339.916C292.27 325.365 280.218 317.045 269.391 316.312C258.579 315.565 241.278 339.4 241.278 339.4V339.386Z" fill="#0017BF"/>
<path d="M269.389 307.881L269.1 319.377C269.1 319.377 266.91 322.635 260.078 323.015C254.981 323.3 253.438 320.681 253.438 320.681L254.926 310.65L267.323 308.288L269.403 307.895L269.389 307.881Z" fill="#FFBB87"/>
<path d="M267.309 308.276C267.268 308.588 267.144 308.955 266.937 309.375C264.183 315.049 257.006 316.121 254.072 316.298L254.912 310.638L267.309 308.276Z" fill="black"/>
<path d="M252.984 284.378C252.984 284.378 246.496 298.644 248.7 306.706C250.904 314.769 258.356 313.574 262.832 312.067C267.295 310.547 269.389 307.887 269.389 307.887C269.389 307.887 273.535 309.312 276.345 305.525C279.169 301.738 277.488 297.354 275.133 296.322C272.764 295.291 269.926 296.96 269.926 296.96L272.185 292.821C272.185 292.821 263.08 271.579 252.984 284.378Z" fill="#FFBB87"/>
<path d="M261.65 292.058C261.471 292.058 261.305 291.963 261.209 291.8C260.837 291.162 260.369 290.755 259.818 290.619C258.867 290.375 257.903 290.945 257.889 290.959C257.655 291.108 257.338 291.027 257.201 290.796C257.049 290.565 257.132 290.267 257.366 290.117C257.421 290.09 258.688 289.316 260.066 289.656C260.906 289.859 261.581 290.429 262.09 291.312C262.228 291.556 262.146 291.855 261.898 291.99C261.815 292.031 261.732 292.058 261.65 292.058Z" fill="black"/>
<path d="M250.918 290.701C250.849 290.701 250.78 290.687 250.712 290.66C250.464 290.552 250.353 290.253 250.464 290.009C250.656 289.588 250.973 289.316 251.387 289.208C252.378 288.936 253.577 289.724 253.714 289.819C253.935 289.968 254.004 290.28 253.838 290.511C253.687 290.742 253.37 290.796 253.136 290.633C252.833 290.429 252.075 290.049 251.648 290.171C251.566 290.199 251.455 290.239 251.373 290.429C251.29 290.606 251.111 290.714 250.918 290.714V290.701Z" fill="black"/>
<path d="M261.168 295.083C261.002 295.083 260.837 295.002 260.741 294.853C260.548 294.554 260.328 294.391 260.052 294.35C259.432 294.255 258.647 294.771 258.427 294.961C258.22 295.138 257.903 295.11 257.724 294.907C257.545 294.703 257.573 294.391 257.779 294.215C257.903 294.106 259.033 293.197 260.204 293.373C260.768 293.455 261.25 293.78 261.595 294.323C261.746 294.554 261.677 294.866 261.443 295.002C261.361 295.056 261.264 295.083 261.168 295.083Z" fill="black"/>
<path d="M252.86 294.72C252.681 294.72 252.502 294.625 252.405 294.449C252.336 294.313 251.717 293.186 250.504 293.689C250.256 293.797 249.953 293.689 249.843 293.431C249.733 293.173 249.843 292.888 250.105 292.779C251.785 292.073 252.929 293.281 253.301 294.014C253.425 294.259 253.328 294.557 253.066 294.679C252.998 294.72 252.915 294.734 252.846 294.734L252.86 294.72Z" fill="black"/>
<path d="M253.426 301.708C253.164 301.708 252.943 301.518 252.93 301.26C252.668 298.342 254.307 294.975 254.376 294.84C254.5 294.595 254.803 294.487 255.051 294.609C255.299 294.731 255.409 295.03 255.285 295.274C255.271 295.301 253.701 298.545 253.935 301.178C253.963 301.45 253.756 301.694 253.481 301.721C253.467 301.721 253.453 301.721 253.439 301.721L253.426 301.708Z" fill="black"/>
<path d="M256.995 305.859C256.761 305.859 256.554 305.696 256.499 305.479C256.444 305.207 256.609 304.95 256.871 304.882C256.898 304.882 259.488 304.271 260.218 302.452C260.314 302.194 260.617 302.072 260.865 302.181C261.127 302.276 261.251 302.574 261.141 302.819C260.204 305.126 257.201 305.818 257.077 305.845C257.036 305.845 257.009 305.845 256.967 305.845L256.995 305.859Z" fill="black"/>
<path d="M270.369 303.133C270.217 303.133 270.08 303.065 269.983 302.956C269.804 302.739 269.845 302.427 270.052 302.264L274.749 298.491C274.97 298.314 275.286 298.355 275.452 298.558C275.631 298.776 275.589 299.088 275.383 299.251L270.686 303.024C270.589 303.092 270.479 303.133 270.369 303.133Z" fill="black"/>
<path d="M275.079 303.133C275.01 303.133 274.928 303.12 274.859 303.079L271.939 301.654C271.691 301.532 271.594 301.233 271.704 300.989C271.828 300.744 272.131 300.649 272.379 300.758L275.299 302.183C275.547 302.305 275.644 302.604 275.534 302.848C275.451 303.025 275.272 303.12 275.079 303.12V303.133Z" fill="black"/>
<path d="M269.927 296.958C269.927 296.958 264.831 296.415 261.635 292.248C258.454 288.081 256.98 283.846 256.98 283.846C256.98 283.846 254.817 284.185 253.426 285.868C252.393 287.104 251.194 288.909 251.194 288.909C251.194 288.909 251.126 283.113 254.115 280.29C257.104 277.467 259.638 278.471 259.638 278.471C259.638 278.471 266.167 274.888 272.724 280.711C279.28 286.533 276.085 296.971 276.085 296.971C276.085 296.971 272.751 295.628 269.927 296.971V296.958Z" fill="#0017BF"/>
<path d="M239.68 311.63C239.68 311.63 239.859 306.757 238.275 305.087C236.691 303.418 235.478 305.929 235.478 305.929C235.478 305.929 234.073 301.178 232.489 302.617C230.905 304.056 230.368 307.354 230.368 307.354C230.368 307.354 227.572 305.291 226.511 309.376C225.451 313.462 225.272 319.421 221.236 323.194C217.186 326.967 213.674 335.763 216.663 343.133C219.652 350.503 225.272 350.788 225.272 350.788L235.823 339.821C235.823 339.821 233.798 332.831 236.966 330.32C240.134 327.809 243.605 326.18 244.225 320.411C244.459 318.226 239.68 311.602 239.68 311.602V311.63ZM237.751 323.031L238.77 317.833C241.938 321.986 237.751 323.031 237.751 323.031Z" fill="#FFBB87"/>
<path d="M237.766 323.519C237.766 323.519 237.656 323.519 237.6 323.492C237.339 323.397 237.201 323.112 237.297 322.854C238.84 318.524 239.184 311.67 239.198 311.589C239.198 311.317 239.46 311.141 239.722 311.114C239.997 311.114 240.218 311.358 240.204 311.629C240.204 311.914 239.846 318.701 238.248 323.167C238.179 323.37 237.986 323.492 237.78 323.492L237.766 323.519Z" fill="black"/>
<path d="M232.751 322.516C232.669 322.516 232.586 322.489 232.503 322.448C232.255 322.312 232.173 322.014 232.31 321.769C235.231 316.639 234.239 305.509 234.225 305.4C234.198 305.129 234.404 304.884 234.68 304.857C234.955 304.844 235.203 305.034 235.231 305.305C235.272 305.78 236.264 316.842 233.192 322.244C233.096 322.407 232.93 322.502 232.751 322.502V322.516Z" fill="black"/>
<path d="M227.875 322.514C227.751 322.514 227.613 322.46 227.517 322.365C227.324 322.174 227.324 321.862 227.517 321.659C229.665 319.541 229.941 310.61 229.872 307.353C229.872 307.081 230.093 306.85 230.368 306.85C230.588 306.85 230.878 307.067 230.878 307.339C230.878 307.841 231.112 319.528 228.233 322.365C228.137 322.46 228.013 322.514 227.875 322.514Z" fill="black"/>
<path d="M147.956 383.406C147.873 383.406 147.777 383.379 147.694 383.338C147.46 383.202 147.377 382.89 147.515 382.659C147.625 382.483 158.438 364.77 173.328 356.232C189.733 346.826 228.466 366.005 230.106 366.833C230.354 366.955 230.45 367.254 230.326 367.498C230.202 367.742 229.899 367.837 229.651 367.715C229.252 367.511 189.761 347.952 173.838 357.087C159.182 365.503 148.493 382.985 148.383 383.161C148.286 383.324 148.121 383.406 147.956 383.406Z" fill="white"/>
<path d="M208.621 342.28C208.139 342.28 207.725 342.076 207.436 341.696C205.769 339.565 207.891 331.286 208.139 330.349C208.249 329.915 208.993 329.915 209.117 330.349C209.365 331.286 211.486 339.565 209.819 341.696C209.516 342.076 209.103 342.28 208.634 342.28H208.621ZM208.621 332.643C207.918 335.928 207.381 340.013 208.221 341.099C208.442 341.384 208.786 341.384 209.006 341.099C209.847 340.027 209.323 335.941 208.607 332.643H208.621Z" fill="#FFB904"/>
<path d="M260.12 323.682C255.354 323.682 251.98 320.845 251.924 320.805C251.718 320.628 251.69 320.316 251.883 320.112C252.062 319.909 252.379 319.882 252.586 320.072C252.902 320.343 260.354 326.587 268.757 319.027C268.963 318.85 269.28 318.85 269.473 319.054C269.666 319.257 269.638 319.57 269.445 319.76C266.112 322.759 262.889 323.709 260.12 323.709V323.682Z" fill="#FFB904"/>
<path d="M276.869 351.288C276.869 351.288 276.758 351.288 276.717 351.261C266.593 347.99 244.293 339.968 244.072 339.886C243.81 339.791 243.673 339.506 243.769 339.248C243.866 338.991 244.155 338.868 244.416 338.95C244.637 339.031 266.924 347.053 277.034 350.324C277.296 350.406 277.433 350.691 277.351 350.949C277.282 351.152 277.089 351.288 276.869 351.288Z" fill="#FFB904"/>
<path d="M286.112 354.115C282.462 354.115 275.713 351.061 274.859 350.668C274.652 350.573 274.528 350.342 274.583 350.111C274.638 349.88 274.831 349.717 275.066 349.717C277.008 349.677 286.787 349.595 288.316 351.74C288.578 352.106 288.633 352.541 288.468 352.961C288.303 353.382 287.972 353.694 287.49 353.898C287.118 354.047 286.65 354.115 286.112 354.115ZM277.462 350.708C280.672 352.011 285.424 353.654 287.104 352.989C287.393 352.88 287.476 352.731 287.517 352.622C287.573 352.486 287.545 352.405 287.49 352.323C286.705 351.224 281.622 350.79 277.462 350.722V350.708Z" fill="#FFB904"/>
<path d="M284.942 405.65C275.851 405.474 273.165 396.787 273.138 396.705C273.055 396.448 273.207 396.163 273.482 396.095C273.744 396.013 274.019 396.163 274.102 396.434C274.198 396.76 276.623 404.51 284.956 404.673C285.232 404.673 285.452 404.904 285.452 405.175C285.452 405.447 285.218 405.664 284.942 405.664V405.65Z" fill="white"/>
</g>
</svg>
