<svg width="280" height="400" viewBox="0 0 280 400" fill="none" xmlns="http://www.w3.org/2000/svg">
<path d="M280 0H0V400H280V0Z" fill="black"/>
<mask id="mask0_1455_33197" style="mask-type:alpha" maskUnits="userSpaceOnUse" x="0" y="220" width="280" height="180">
<path d="M280 220H0V400H280V220Z" fill="black"/>
</mask>
<g mask="url(#mask0_1455_33197)">
<path d="M-1.28053 343.782L10.0761 355.091L21.4883 337.152L15.0689 330.54L-1.28053 343.782Z" fill="#FFBB87"/>
<path d="M4.7317 313.617C3.56454 313.21 -1.40977 318.814 -2.01188 319.11C-2.61398 319.406 -1.19673 323.817 -2.53988 324.131C-3.88304 324.445 -6.31925 323.909 -8.27378 324.39C-10.1079 324.834 -30.8203 342.931 -34.3773 346.953C-34.6737 347.295 -34.6182 347.822 -34.2476 348.118C-33.4325 348.793 -31.8485 350.005 -29.9588 351.059C-27.8931 352.205 -25.4476 353.149 -23.1967 352.991C-17.8704 352.612 -10.2839 347.739 -6.43966 347.221C-2.58619 346.703 3.53676 348.211 4.36118 346.204C5.1856 344.207 5.01886 338.427 9.42812 335.459C13.8374 332.491 16.5144 331.862 16.7645 329.966C16.9313 328.69 11.8921 321.838 8.25171 317.427C6.51024 315.309 5.09295 313.747 4.72243 313.617H4.7317Z" fill="#E64218"/>
<path d="M4.73148 313.617C3.56433 313.21 -1.40998 318.814 -2.01209 319.11C-2.61419 319.406 -1.19694 323.817 -2.5401 324.131C-3.88325 324.445 -6.31946 323.909 -8.27399 324.39C-10.1081 324.834 -30.8205 342.931 -34.3775 346.953C-34.674 347.295 -34.6184 347.822 -34.2478 348.118C-33.4327 348.793 -31.8487 350.005 -29.959 351.059L8.26074 317.427C6.51927 315.309 5.10201 313.747 4.73148 313.617Z" fill="white"/>
<path d="M25.9811 300.811C25.9811 300.811 23.5635 312.897 22.4241 323.171C21.2847 333.444 19.4414 347.241 19.4414 347.241C19.4414 347.241 10.9934 378.857 31.2889 381.65C56.4569 385.117 55.1786 355.323 55.1786 355.323L47.6106 292.969L25.9811 300.811Z" fill="#FFB904"/>
<path d="M-1.66011 348.941L19.1727 331.002L25.379 339.731L27.0557 380.548C27.0557 380.548 17.987 379.328 -1.66011 348.941Z" fill="#FFB904"/>
<path d="M66.2301 297.98C66.2301 297.98 74.6318 331.409 71.9732 356.052C69.3147 380.705 57.0688 410.934 57.0688 410.934L24.3884 404.859L35.3097 368.323L43.2019 299.617L66.2301 297.98Z" fill="#FFB904"/>
<path d="M33.1412 382.083C36.8742 382.083 45.3407 381.093 51.51 372.965C62.1626 358.928 55.8729 321.2 55.0948 316.779L65.8216 315.91C66.0068 315.892 66.1458 315.734 66.1272 315.549C66.1087 315.365 65.9512 315.217 65.766 315.244L54.6687 316.141C54.5761 316.141 54.4835 316.197 54.4279 316.271C54.3723 316.345 54.3445 316.446 54.3631 316.539C54.4372 316.955 61.8755 358.197 50.9727 372.558C43.1083 382.915 31.4553 381.334 31.3441 381.315C31.1589 381.288 30.9921 381.417 30.9643 381.602C30.9365 381.787 31.0662 381.953 31.2515 381.981C31.2793 381.981 31.9833 382.083 33.1504 382.083H33.1412Z" fill="#E64218"/>
<path d="M27.7503 345.565C28.0282 345.565 28.2876 345.482 28.5284 345.306C28.8897 345.038 29.0842 344.659 29.1213 344.178C29.3158 341.089 21.7849 333.95 21.4699 333.645C21.3588 333.534 21.1828 333.525 21.0531 333.608C20.9234 333.692 20.8678 333.858 20.9141 333.997C21.2847 335.079 24.6009 344.64 27.3335 345.5C27.4724 345.546 27.6207 345.565 27.7596 345.565H27.7503ZM22.0442 335.153C24.5175 337.64 28.5655 342.153 28.4451 344.132C28.4265 344.409 28.3247 344.612 28.1301 344.751C27.9449 344.89 27.7596 344.918 27.5373 344.844C25.7773 344.289 23.304 338.537 22.0442 335.143V335.153Z" fill="#E64218"/>
<path d="M27.7968 314.496C27.8431 314.496 27.8987 314.487 27.945 314.459C32.4747 312.249 35.3833 306.756 35.5038 306.525C35.5871 306.359 35.5223 306.155 35.3555 306.072C35.1888 305.989 34.985 306.054 34.9017 306.211C34.8739 306.266 31.9745 311.741 27.6394 313.849C27.4726 313.932 27.3985 314.136 27.4819 314.302C27.5375 314.422 27.6579 314.496 27.7876 314.496H27.7968Z" fill="#E64218"/>
<path d="M32.3078 255.62C32.3078 255.62 17.0978 258.884 12.0123 275.233C6.92681 291.582 27.4539 308.81 27.4539 308.81L66.2295 297.981C66.2295 297.981 61.5794 256.008 56.9386 251.81C52.2885 247.612 32.3078 255.611 32.3078 255.611V255.62Z" fill="#DC3C1E"/>
<path d="M43.9421 246.567C43.9421 246.567 46.017 230.902 66.2292 227.074C86.4414 223.245 98.5391 248.296 98.5391 248.296L39.0141 259.18L43.9421 246.567Z" fill="#DC3C1E"/>
<path d="M42.4691 239.714C42.4691 239.714 48.9348 235.239 46.4152 230.994C43.9049 226.75 37.643 230.467 37.643 230.467C37.643 230.467 35.4755 227.98 32.0481 229.635C28.6207 231.29 27.9353 235.858 27.9353 235.858C27.9353 235.858 24.582 235.553 24.1096 239.622C23.6372 243.691 27.7871 247.621 27.7871 247.621L42.4691 239.705V239.714Z" fill="#0017BF"/>
<path d="M30.9558 250.099L30.3444 257.867C30.3444 257.867 31.5764 260.206 36.0968 260.937C39.4686 261.473 40.6543 259.328 40.6543 259.328L40.5524 256.831L40.3857 252.956L32.3082 250.506L30.9558 250.09V250.099Z" fill="#FFBB87"/>
<path d="M32.3076 250.506C32.3076 250.719 32.3724 250.978 32.4743 251.274C33.9101 255.287 38.6065 256.499 40.5518 256.831L40.385 252.957L32.3076 250.506Z" fill="black"/>
<path d="M43.5065 235.387C43.5065 235.387 46.8227 245.448 44.7941 250.728C42.7655 256.008 37.8838 254.695 35.0215 253.363C32.1592 252.032 30.9549 250.09 30.9549 250.09C30.9549 250.09 28.1019 250.765 26.4901 248.028C24.8783 245.281 26.2956 242.443 27.9444 241.906C29.5932 241.379 31.3625 242.692 31.3625 242.692L30.149 239.742C30.149 239.742 37.6892 226.057 43.5158 235.368L43.5065 235.387Z" fill="#FFBB87"/>
<path d="M30.7604 246.898C30.853 246.898 30.9549 246.861 31.0198 246.778C31.1402 246.639 31.1216 246.427 30.9827 246.306L27.6758 243.514C27.5368 243.394 27.3238 243.412 27.2033 243.551C27.0829 243.689 27.1015 243.902 27.2404 244.022L30.5473 246.815C30.6122 246.871 30.6863 246.898 30.7697 246.898H30.7604Z" fill="black"/>
<path d="M27.5646 246.604C27.5646 246.604 27.6016 246.604 27.6201 246.604L29.973 246.188C30.1583 246.16 30.2787 245.984 30.2509 245.799C30.2139 245.614 30.0471 245.494 29.8618 245.522L27.509 245.938C27.3237 245.966 27.2033 246.141 27.2311 246.326C27.2589 246.493 27.4071 246.604 27.5646 246.604Z" fill="black"/>
<path d="M36.6985 239.003C36.7911 239.003 36.8838 238.966 36.9486 238.892C38.0324 237.69 39.1903 238.42 39.2366 238.448C39.3941 238.55 39.5979 238.503 39.6998 238.346C39.8016 238.189 39.7553 237.976 39.5979 237.884C39.0236 237.514 37.6156 237.144 36.4391 238.439C36.3094 238.577 36.328 238.79 36.4669 238.92C36.5318 238.975 36.6151 239.003 36.6892 239.003H36.6985Z" fill="black"/>
<path d="M44.2761 239.224C44.3688 239.224 44.4522 239.187 44.517 239.122C44.6467 238.993 44.6467 238.771 44.517 238.642C43.4147 237.578 42.1364 238.188 42.0808 238.216C41.914 238.299 41.8399 238.503 41.9233 238.669C42.0067 238.836 42.2105 238.9 42.3772 238.826C42.4235 238.808 43.3035 238.41 44.0446 239.132C44.1094 239.196 44.1928 239.224 44.2761 239.224Z" fill="black"/>
<path d="M42.1356 247.333C42.2746 247.333 42.395 247.25 42.4506 247.12C43.6548 244.013 41.7095 242.025 41.6261 241.942C41.4965 241.812 41.2834 241.812 41.1537 241.942C41.024 242.071 41.024 242.284 41.1537 242.423C41.2278 242.497 42.8581 244.189 41.8207 246.88C41.7558 247.055 41.8392 247.25 42.0152 247.314C42.0522 247.333 42.0986 247.333 42.1356 247.333Z" fill="black"/>
<path d="M43.9421 242.951C43.9421 242.951 43.9884 242.951 44.0069 242.951C44.1922 242.914 44.3126 242.738 44.2755 242.553L43.9328 240.732C43.8957 240.547 43.7198 240.426 43.5345 240.463C43.3492 240.5 43.2288 240.676 43.2658 240.861L43.6086 242.683C43.6364 242.84 43.7846 242.96 43.9421 242.96V242.951Z" fill="black"/>
<path d="M39.0143 242.665C39.0143 242.665 39.0607 242.665 39.0792 242.665C39.2644 242.628 39.3848 242.452 39.3478 242.267L39.0051 240.446C38.968 240.261 38.792 240.14 38.6068 240.177C38.4215 240.214 38.3011 240.39 38.3381 240.575L38.6808 242.397C38.7086 242.554 38.8569 242.674 39.0143 242.674V242.665Z" fill="black"/>
<path d="M44.1549 237.644C44.1549 237.644 43.4324 236.016 41.4964 235.85C39.5604 235.683 38.3191 236.959 38.3191 236.959C38.3191 236.959 38.9119 240.288 36.1423 241.814C33.3633 243.34 31.3625 242.693 31.3625 242.693L29.5006 241.86L28.3149 238.957L34.3174 233.427L41.7835 230.209L45.1738 233.806L44.1549 237.625V237.644Z" fill="#0017BF"/>
<path d="M40.1813 249.452C40.4036 249.452 40.5518 249.295 40.5426 249.11C40.5426 248.925 40.3944 248.805 40.1998 248.777C40.1257 248.796 38.6065 248.777 38.0693 247.353C38.0044 247.177 37.8099 247.094 37.6339 247.159C37.4579 247.224 37.3746 247.418 37.4394 247.593C37.9952 249.073 39.4495 249.452 40.172 249.452H40.1813Z" fill="black"/>
<path d="M131.035 312.249H59.9865C57.403 312.249 55.3086 310.158 55.3086 307.579L55.3086 248.009C55.3086 245.43 57.403 243.339 59.9865 243.339H131.035C133.618 243.339 135.713 245.43 135.713 248.009V307.579C135.713 310.158 133.618 312.249 131.035 312.249Z" fill="#373178"/>
<path d="M48.083 276.702C48.083 276.702 57.8185 271.551 60.7735 271.108C63.7284 270.664 68.7768 273.91 68.7768 273.91L66.2295 275.38C66.2295 275.38 70.2126 284.072 69.4716 285.394C68.7305 286.717 66.813 285.394 66.813 285.394C66.813 285.394 62.237 290.111 60.9124 290.258C59.5878 290.406 52.5015 287.605 52.5015 287.605L48.0737 276.702H48.083Z" fill="#FFBB87"/>
<path d="M49.4073 274.641L28.3059 282.15L30.4735 256.156C30.4735 256.156 14.2907 261.085 10.0204 277.73C5.74083 294.375 11.9379 307.626 25.212 308.81C38.4861 309.984 56.4844 291.434 56.4844 291.434L49.4073 274.641Z" fill="#DC3C1E"/>
<path d="M87.6827 237.052C87.6827 237.052 85.3206 233.085 83.1438 236.404C80.967 239.724 82.8288 249.193 84.5981 249.628C86.4971 250.099 87.6827 246.484 87.6827 246.484C87.6827 246.484 88.044 249.572 90.0448 249.628C92.0364 249.683 92.9442 246.484 92.9442 246.484C92.9442 246.484 93.9354 250.09 95.6676 249.628C97.5665 249.11 98.5669 237.052 94.945 235.794C93.2036 235.193 92.2217 237.052 92.2217 237.052C92.2217 237.052 91.5455 234.758 89.5539 235.054C87.5623 235.35 87.692 237.052 87.692 237.052H87.6827Z" fill="#FFBB87"/>
<path d="M66.2294 275.38L73.2786 271.062L75.085 274.659L67.7763 279.005L66.2294 275.38Z" fill="white"/>
<path d="M77.3358 275.86C75.8259 275.86 74.0381 275.398 73.2137 273.752C71.9632 271.255 73.6398 268.204 73.8436 267.871L76.1871 269.212C75.8815 269.748 75.1219 271.523 75.6314 272.541C75.9926 273.262 77.5859 273.206 78.2621 273.068L78.8271 275.712C78.4103 275.805 77.8916 275.86 77.345 275.86H77.3358Z" fill="white"/>
<path d="M66.2292 275.713C66.2941 275.713 66.3682 275.695 66.4238 275.648C66.572 275.537 66.609 275.325 66.4979 275.177L64.6916 272.661C64.5804 272.513 64.3766 272.477 64.2191 272.587C64.0709 272.698 64.0339 272.911 64.145 273.059L65.9513 275.574C66.0162 275.667 66.1181 275.713 66.2292 275.713Z" fill="black"/>
<path d="M66.823 285.728C66.8878 285.728 66.9619 285.709 67.0175 285.663C67.1657 285.552 67.2028 285.349 67.0916 285.191L66.0634 283.758C65.9523 283.61 65.7392 283.573 65.591 283.675C65.4428 283.786 65.4057 283.989 65.5169 284.146L66.5451 285.58C66.6099 285.672 66.7118 285.718 66.823 285.718V285.728Z" fill="black"/>
<path d="M87.6831 246.399C87.8684 246.399 88.0166 246.251 88.0166 246.066V237.05C88.0166 236.865 87.8684 236.717 87.6831 236.717C87.4979 236.717 87.3497 236.865 87.3497 237.05V246.066C87.3497 246.251 87.4979 246.399 87.6831 246.399Z" fill="black"/>
<path d="M92.9442 246.824C93.1572 246.806 93.2962 246.649 93.2776 246.464L92.5551 237.032C92.5366 236.847 92.3698 236.708 92.1938 236.717C92.0086 236.736 91.8696 236.893 91.8789 237.078L92.6014 246.51C92.6107 246.686 92.7589 246.824 92.9349 246.824H92.9442Z" fill="black"/>
<path d="M36.968 261.288C37.0143 261.288 37.0698 261.288 37.1161 261.288C38.5705 261.251 39.8395 260.669 40.8955 259.559C41.0252 259.42 41.0159 259.208 40.8863 259.078C40.7566 258.949 40.5343 258.958 40.4046 259.088C38.7928 260.789 36.6623 261.066 34.0871 259.929C32.1048 259.051 30.5856 257.626 30.5764 257.617C30.4374 257.488 30.2244 257.497 30.0947 257.627C29.965 257.765 29.9743 257.978 30.104 258.107C30.2429 258.237 33.4943 261.288 36.9587 261.288H36.968Z" fill="white"/>
<path d="M23.1926 282.852C23.1926 282.852 23.2852 282.852 23.3223 282.824C32.2798 279.042 45.1185 276.222 45.2482 276.194C45.4334 276.157 45.5446 275.972 45.5076 275.796C45.4705 275.611 45.2852 275.5 45.1092 275.537C44.9795 275.565 32.076 278.395 23.0629 282.205C22.8869 282.279 22.8128 282.473 22.8869 282.648C22.9425 282.778 23.0629 282.852 23.2019 282.852H23.1926Z" fill="white"/>
<path d="M27.7686 280.013C29.1118 280.013 30.4086 279.967 31.2979 279.921C31.4553 279.921 31.5851 279.8 31.6128 279.643C31.6406 279.486 31.5572 279.338 31.4183 279.273C31.1311 279.144 24.4617 276.203 22.1459 278.09C21.7013 278.46 21.7012 278.783 21.7754 278.987C22.0903 279.819 25.036 280.013 27.7594 280.013H27.7686ZM29.6861 279.31C26.2217 279.403 22.8036 279.236 22.4238 278.755C22.4423 278.755 22.4794 278.691 22.5813 278.617C23.8966 277.544 27.3981 278.478 29.6861 279.31Z" fill="white"/>
<path d="M64.1175 243.683C64.275 243.683 64.3954 243.581 64.4417 243.442C64.6733 242.675 65.7663 238.791 64.8678 237.792C64.7288 237.635 64.4602 237.469 64.0526 237.543C63.7284 237.607 63.4691 237.792 63.2931 238.088C62.4872 239.448 63.6636 243.054 63.7933 243.461C63.8396 243.6 63.9693 243.692 64.1175 243.692V243.683ZM64.2472 238.19C64.3213 238.19 64.3491 238.218 64.3676 238.236C64.7474 238.662 64.488 240.474 64.1082 242.083C63.784 240.816 63.4783 239.096 63.8766 238.421C63.9507 238.292 64.0526 238.218 64.1823 238.199C64.2101 238.199 64.2286 238.199 64.2564 238.199L64.2472 238.19Z" fill="white"/>
<path d="M39.4217 305.054C39.4772 305.054 39.5236 305.045 39.5699 305.017C39.6625 304.971 49.148 300.134 54.428 293.883C54.5484 293.745 54.5299 293.532 54.3909 293.412C54.252 293.292 54.0389 293.31 53.9185 293.449C48.7311 299.589 39.3661 304.36 39.2734 304.416C39.1067 304.499 39.0419 304.703 39.1252 304.869C39.1808 304.989 39.3012 305.054 39.4309 305.054H39.4217Z" fill="white"/>
<path d="M88.9893 334.776C89.0726 334.776 89.1467 334.748 89.2116 334.693C89.3505 334.573 89.3598 334.351 89.2394 334.221L86.0806 330.735C85.951 330.596 85.7379 330.587 85.599 330.707C85.46 330.827 85.4507 331.049 85.5712 331.179L88.7299 334.665C88.7947 334.739 88.8874 334.776 88.98 334.776H88.9893Z" fill="white"/>
<path d="M85.8305 334.775C85.9232 334.775 86.0158 334.738 86.0806 334.664L89.2394 331.178C89.3598 331.039 89.3505 330.826 89.2116 330.706C89.0726 330.577 88.8596 330.595 88.7299 330.734L85.5712 334.22C85.4507 334.359 85.46 334.571 85.599 334.692C85.6638 334.747 85.7472 334.775 85.8213 334.775H85.8305Z" fill="white"/>
<path d="M108.923 382.092H160.148C162.094 382.092 163.678 380.511 163.678 378.569V337.086C163.678 335.145 162.094 333.563 160.148 333.563H108.923C106.978 333.563 105.394 335.145 105.394 337.086V378.569C105.394 380.511 106.978 382.092 108.923 382.092ZM160.148 334.229C161.723 334.229 163.002 335.505 163.002 337.077V378.56C163.002 380.132 161.723 381.408 160.148 381.408H108.923C107.349 381.408 106.07 380.132 106.07 378.56V337.077C106.07 335.505 107.349 334.229 108.923 334.229H160.148Z" fill="#E64218"/>
<path d="M105.727 343.153H163.344C163.53 343.153 163.678 343.005 163.678 342.81C163.678 342.616 163.53 342.468 163.344 342.468H105.727C105.542 342.468 105.394 342.616 105.394 342.81C105.394 343.005 105.542 343.153 105.727 343.153Z" fill="#E64218"/>
<path d="M156.582 340.618C156.675 340.618 156.777 340.581 156.841 340.498L159.907 336.892C160.028 336.753 160.009 336.54 159.87 336.42C159.731 336.3 159.518 336.318 159.398 336.457L156.332 340.063C156.211 340.202 156.23 340.415 156.369 340.535C156.434 340.591 156.508 340.618 156.591 340.618H156.582Z" fill="#E64218"/>
<path d="M159.658 340.618C159.732 340.618 159.815 340.591 159.88 340.535C160.019 340.415 160.038 340.202 159.917 340.063L156.851 336.457C156.731 336.318 156.518 336.3 156.379 336.42C156.24 336.54 156.221 336.753 156.342 336.892L159.408 340.498C159.473 340.581 159.565 340.618 159.667 340.618H159.658Z" fill="#E64218"/>
<path d="M289.323 434.459H239.969C235.416 434.459 231.725 430.774 231.725 426.229V366.455C231.725 361.91 235.416 358.225 239.969 358.225H289.323C293.876 358.225 297.567 361.91 297.567 366.455V426.229C297.567 430.774 293.876 434.459 289.323 434.459Z" fill="#1D4568"/>
<path d="M284.368 434.459H235.014C230.461 434.459 226.77 430.774 226.77 426.229V366.455C226.77 361.91 230.461 358.225 235.014 358.225H284.368C288.921 358.225 292.612 361.91 292.612 366.455V426.229C292.612 430.774 288.921 434.459 284.368 434.459Z" fill="#40398D"/>
<path d="M178.759 346.131C178.851 346.131 178.935 346.094 179 346.029C179.065 345.964 179.102 345.881 179.102 345.789V241.231C179.102 241.046 178.953 240.898 178.768 240.898C178.583 240.898 178.435 241.046 178.435 241.231V345.456L95.8721 345.4V285.433C95.8721 285.248 95.7239 285.1 95.5387 285.1C95.3534 285.1 95.2052 285.248 95.2052 285.433V345.733C95.2052 345.918 95.3534 346.066 95.5387 346.075L178.777 346.131H178.759Z" fill="#E64218"/>
<path d="M192.801 268.539C192.801 268.539 191.106 273.875 194.033 274.975C196.969 276.075 196.979 273.033 196.979 273.033L195.163 269.214L192.801 268.548V268.539Z" fill="#FFBB87"/>
<path d="M206.325 279.146C206.325 279.146 202.49 269.279 198.998 267.559C195.506 265.839 188.864 266.052 187.845 267.864C186.836 269.667 189.874 269.704 190.661 269.519C191.449 269.334 193.82 269.852 194.376 270.657C194.941 271.461 195.163 274.846 195.163 274.846C195.163 274.846 192.569 275.373 191.449 274.429C190.328 273.486 189.198 271.785 188.41 273.033C187.623 274.272 190.772 280.801 193.033 282.595C195.284 284.398 201.027 286.645 201.027 286.645L206.325 279.146Z" fill="#FFBB87"/>
<path d="M195.173 275.179C195.386 275.16 195.525 274.994 195.506 274.809C195.506 274.762 195.395 273.644 194.978 271.794C194.515 269.76 192.672 269.371 192.588 269.353C192.412 269.316 192.227 269.436 192.19 269.621C192.153 269.806 192.273 269.982 192.449 270.019C192.514 270.028 193.95 270.352 194.311 271.951C194.719 273.755 194.821 274.864 194.83 274.873C194.848 275.049 194.997 275.179 195.163 275.179H195.173Z" fill="black"/>
<path d="M172.672 260.78H184.844C185.509 260.78 186.048 261.318 186.048 261.982V274.133C186.048 274.797 185.509 275.335 184.844 275.335H172.672C172.007 275.335 171.468 274.797 171.468 274.133V261.982C171.468 261.318 172.007 260.78 172.672 260.78Z" fill="#373178"/>
<path d="M172.672 279.367H184.844C185.509 279.367 186.048 279.905 186.048 280.569V292.72C186.048 293.384 185.509 293.922 184.844 293.922H172.672C172.007 293.922 171.468 293.384 171.468 292.72V280.569C171.468 279.905 172.007 279.367 172.672 279.367Z" fill="#373178"/>
<path d="M172.672 297.953H184.844C185.509 297.953 186.048 298.491 186.048 299.155V311.306C186.048 311.969 185.509 312.508 184.844 312.508H172.672C172.007 312.508 171.468 311.969 171.468 311.306V299.155C171.468 298.491 172.007 297.953 172.672 297.953Z" fill="#373178"/>
<path d="M184.723 276.287L191.541 270.544L189.79 268.482L184.964 272.56L181.037 268.288L179.045 270.119L184.723 276.287Z" fill="white"/>
<path d="M178.916 292.082L184.511 287.329L182.76 285.276L179.351 288.17L174.96 282.344L172.793 283.972L178.916 292.082Z" fill="white"/>
<path d="M178.916 310.677L184.511 305.924L182.76 303.871L179.351 306.766L174.96 300.931L172.793 302.558L178.916 310.677Z" fill="white"/>
<path d="M196.386 220H160.676C159.213 220 158.027 221.184 158.027 222.645V242.286C158.027 243.747 159.213 244.93 160.676 244.93H196.386C197.849 244.93 199.035 243.747 199.035 242.286V222.645C199.035 221.184 197.849 220 196.386 220Z" fill="#5EF939"/>
<path d="M78.8281 334.747V390.526C78.8281 393.873 81.8849 396.583 85.6365 396.583H183.835C187.605 396.583 190.662 393.873 190.662 390.526V334.747C190.662 331.4 187.605 328.69 183.835 328.69H85.6365C81.8849 328.69 78.8281 331.4 78.8281 334.747Z" fill="#40398D"/>
<path d="M119.717 344.733H143.329C143.848 344.733 144.27 345.155 144.27 345.674C144.27 346.194 143.848 346.615 143.329 346.615H119.717C119.198 346.615 118.777 346.194 118.777 345.674C118.777 345.155 119.198 344.733 119.717 344.733Z" fill="#5EF939"/>
<path d="M95.899 354.418H137.685C138.205 354.418 138.626 354.839 138.626 355.359C138.626 355.878 138.205 356.299 137.685 356.299H95.899C95.3795 356.299 94.9584 355.878 94.9584 355.359C94.9584 354.839 95.3795 354.418 95.899 354.418Z" fill="#FFB904"/>
<path d="M143.301 354.418H160.386C160.905 354.418 161.326 354.839 161.326 355.359C161.326 355.878 160.905 356.299 160.386 356.299H143.301C142.781 356.299 142.36 355.878 142.36 355.359C142.36 354.839 142.781 354.418 143.301 354.418Z" fill="#5EF939"/>
<path d="M95.899 381.679H137.685C138.205 381.679 138.626 382.101 138.626 382.62C138.626 383.14 138.205 383.561 137.685 383.561H95.899C95.3795 383.561 94.9584 383.14 94.9584 382.62C94.9584 382.101 95.3795 381.679 95.899 381.679Z" fill="#FFB904"/>
<path d="M143.301 381.679H175.656C176.176 381.679 176.597 382.101 176.597 382.62C176.597 383.14 176.176 383.561 175.656 383.561H143.301C142.782 383.561 142.36 383.14 142.36 382.62C142.36 382.101 142.782 381.679 143.301 381.679Z" fill="#5EF939"/>
<path d="M95.899 367.82H137.685C138.205 367.82 138.626 368.241 138.626 368.761C138.626 369.28 138.205 369.701 137.685 369.701H95.899C95.3795 369.701 94.9584 369.28 94.9584 368.761C94.9584 368.241 95.3795 367.82 95.899 367.82Z" fill="#5EF939"/>
<path d="M143.301 367.82H160.386C160.905 367.82 161.326 368.241 161.326 368.761C161.326 369.28 160.905 369.701 160.386 369.701H143.301C142.781 369.701 142.36 369.28 142.36 368.761C142.36 368.241 142.781 367.82 143.301 367.82Z" fill="#5EF939"/>
<path d="M147.169 363L118.599 363C118.079 363 117.658 362.579 117.658 362.06C117.658 361.54 118.079 361.119 118.599 361.119L147.169 361.119C147.688 361.119 148.109 361.54 148.109 362.06C148.109 362.579 147.688 363 147.169 363Z" fill="#FFB904"/>
<path d="M112.983 363L95.8986 363C95.3791 363 94.958 362.579 94.958 362.06C94.958 361.54 95.3791 361.119 95.8986 361.119L112.983 361.119C113.503 361.119 113.924 361.54 113.924 362.06C113.924 362.579 113.503 363 112.983 363Z" fill="#5EF939"/>
<path d="M147.169 376.403L118.599 376.403C118.079 376.403 117.658 375.981 117.658 375.462C117.658 374.942 118.079 374.521 118.599 374.521L147.169 374.521C147.688 374.521 148.109 374.942 148.109 375.462C148.109 375.981 147.688 376.403 147.169 376.403Z" fill="#FFB904"/>
<path d="M112.983 376.403L95.8986 376.403C95.3791 376.403 94.958 375.981 94.958 375.462C94.958 374.942 95.3791 374.521 95.8986 374.521L112.983 374.521C113.503 374.521 113.924 374.942 113.924 375.462C113.924 375.981 113.503 376.403 112.983 376.403Z" fill="#5EF939"/>
<path d="M95.6777 346.691L100.521 348.829V347.452L97.2305 346.119V346.061L100.521 344.728V343.351L95.6777 345.499V346.691ZM106.984 341.515H105.734L103.459 349.982H104.699L106.984 341.515ZM100.521 368.691V367.499L95.6777 365.351V366.728L98.9688 368.061V368.119L95.6777 369.452V370.829L100.521 368.691Z" fill="#3DF130"/>
<path d="M148.945 344.733H175.656C176.176 344.733 176.597 345.155 176.597 345.674C176.597 346.194 176.176 346.615 175.656 346.615H148.945C148.425 346.615 148.004 346.194 148.004 345.674C148.004 345.155 148.425 344.733 148.945 344.733Z" fill="#FFB904"/>
<path d="M261.071 258.348C261.071 258.348 271.066 255.666 278.495 264.756C285.933 273.846 281.311 285.035 269.528 284.711C257.755 284.388 255.013 272.375 255.013 272.375L261.062 258.357L261.071 258.348Z" fill="#0017BF"/>
<path d="M246.065 265.83C246.065 265.83 243.221 262.815 243.934 258.044C244.416 254.807 245.833 253.734 245.833 253.734C245.833 253.734 243.555 249.379 250.085 249.518C256.606 249.656 261.951 249.102 264.86 254.705C266.574 258.007 265.888 265.173 265.888 265.173L246.065 265.83Z" fill="#0017BF"/>
<path d="M260.478 270.914L260.431 278.857C260.431 278.857 258.986 281.132 254.327 281.483C250.853 281.742 249.769 279.958 249.769 279.958L250.649 273.013L259.07 271.219L260.478 270.914Z" fill="#FFBB87"/>
<path d="M260.469 270.435C260.45 270.647 260.367 270.906 260.237 271.202C258.431 275.16 252.15 276.778 250.15 276.945L250.65 273.024L260.469 270.435Z" fill="black"/>
<path d="M248.973 254.89C248.973 254.89 244.74 264.831 246.352 270.37C247.964 275.918 253.031 274.993 256.06 273.884C259.089 272.783 260.478 270.906 260.478 270.906C260.478 270.906 263.322 271.84 265.193 269.186C267.064 266.532 265.869 263.527 264.239 262.842C262.609 262.167 260.7 263.351 260.7 263.351L262.183 260.457C262.183 260.457 255.689 245.902 248.973 254.871V254.89Z" fill="#FFBB87"/>
<path d="M260.7 263.37C260.7 263.37 256.457 264.313 253.401 259.634C250.344 254.955 250.585 253.004 250.585 253.004L247.732 257.951C247.732 257.951 247.009 254.576 248.324 252.384C249.64 250.193 251.057 250.618 251.057 250.618L260.505 252.782L263.127 260.254L260.709 263.37H260.7Z" fill="#0017BF"/>
<path d="M250.001 267.485C250.001 267.485 250.075 267.485 250.103 267.466C250.279 267.411 250.381 267.217 250.316 267.041C249.714 265.201 250.511 263.194 250.52 263.176C250.594 263 250.511 262.806 250.335 262.732C250.159 262.658 249.964 262.741 249.89 262.917C249.853 263.009 248.991 265.173 249.668 267.244C249.714 267.383 249.844 267.476 249.992 267.476L250.001 267.485Z" fill="black"/>
<path d="M261.191 268.021C261.283 268.021 261.376 267.984 261.441 267.91L264.09 265.016C264.22 264.877 264.21 264.664 264.071 264.535C263.932 264.405 263.719 264.414 263.59 264.553L260.94 267.448C260.811 267.586 260.82 267.799 260.959 267.928C261.024 267.984 261.107 268.021 261.191 268.021Z" fill="black"/>
<path d="M264.035 267.217C264.202 267.217 264.35 267.097 264.368 266.921C264.396 266.736 264.266 266.57 264.081 266.542L262.21 266.292C262.025 266.274 261.858 266.394 261.83 266.579C261.802 266.764 261.932 266.93 262.117 266.958L263.989 267.208C263.989 267.208 264.016 267.208 264.035 267.208V267.217Z" fill="black"/>
<path d="M247.481 259.42C247.481 259.42 247.528 259.42 247.546 259.42L249.26 259.087C249.445 259.05 249.566 258.874 249.528 258.689C249.491 258.504 249.315 258.393 249.13 258.421L247.416 258.754C247.231 258.791 247.111 258.967 247.148 259.152C247.176 259.309 247.324 259.429 247.481 259.429V259.42Z" fill="black"/>
<path d="M254.022 259.818C254.161 259.818 254.29 259.735 254.337 259.596C254.401 259.42 254.309 259.226 254.142 259.161L252.364 258.496C252.188 258.431 251.993 258.523 251.928 258.69C251.863 258.866 251.956 259.06 252.123 259.124L253.901 259.79C253.901 259.79 253.975 259.809 254.022 259.809V259.818Z" fill="black"/>
<path d="M248.435 263.479C248.584 263.479 248.723 263.387 248.76 263.239L249.278 261.445C249.306 261.334 249.278 261.223 249.213 261.13L248.648 260.474C248.528 260.335 248.315 260.317 248.176 260.437C248.037 260.557 248.019 260.77 248.139 260.908L248.584 261.436L248.12 263.063C248.065 263.239 248.176 263.433 248.352 263.479C248.38 263.479 248.417 263.488 248.445 263.488L248.435 263.479Z" fill="black"/>
<path d="M253.456 263.87C253.604 263.87 253.734 263.777 253.78 263.629L254.299 261.835C254.327 261.724 254.299 261.604 254.225 261.521L253.447 260.652C253.326 260.513 253.104 260.504 252.965 260.624C252.826 260.744 252.817 260.957 252.937 261.105L253.586 261.835L253.123 263.453C253.067 263.629 253.178 263.823 253.354 263.87C253.382 263.87 253.419 263.879 253.447 263.879L253.456 263.87Z" fill="black"/>
<path d="M251.205 270.351C251.289 270.351 251.372 270.351 251.455 270.332C252.558 270.147 253.169 268.816 253.197 268.76C253.252 268.64 253.234 268.51 253.15 268.409C253.067 268.307 252.937 268.261 252.817 268.288L249.779 268.954C249.658 268.982 249.566 269.065 249.529 269.185C249.491 269.306 249.529 269.426 249.603 269.518C250.121 270.082 250.659 270.36 251.196 270.36L251.205 270.351ZM252.169 269.121C251.946 269.38 251.668 269.611 251.344 269.666C251.103 269.713 250.853 269.639 250.585 269.463L252.169 269.121Z" fill="black"/>
<path d="M246.63 328.682C246.63 328.682 215.913 330.411 207.928 336.588C199.944 342.765 199.499 407.43 199.499 407.43L224.556 410.279L224.787 346.973L246.63 328.682Z" fill="#E64218"/>
<path d="M262.516 279.311C262.516 279.311 261.636 276.222 261.191 276.222C260.607 276.222 257.384 277.776 254.447 277.757C251.52 277.739 251.011 276.824 250.14 276.944C249.269 277.064 248.945 279.311 248.945 279.311C248.945 279.311 243.517 281.114 237.209 282.575C230.9 284.036 220.989 282.122 216.82 280.097C212.652 278.072 205.557 273.689 205.557 273.689L198.229 292.914C198.229 292.914 213.097 311.916 226.732 312.027C240.367 312.138 256.81 309.438 256.81 309.438L262.506 279.302L262.516 279.311Z" fill="#0017BF"/>
<path d="M283.442 329.673C283.442 329.673 285.693 353.845 282.099 356.119C273.706 361.437 250.724 360.096 250.613 361.085C250.502 362.075 253.188 406.137 253.188 406.137L222.907 411.778C222.907 411.778 211.782 347.464 218.081 337.089C224.371 326.714 261.479 327.694 261.479 327.694L283.432 329.673H283.442Z" fill="#E64218"/>
<path d="M224.491 324.021L241.312 322.347L234.967 295.068L218.145 296.742L224.491 324.021Z" fill="#FFB904"/>
<path d="M221.971 324.271L238.783 322.606L232.438 295.318L215.625 296.992L221.971 324.271Z" fill="white"/>
<path d="M243.823 307.202L243.193 327.897C243.193 327.897 256.486 331.605 266.508 332.511C276.531 333.408 283.404 332.511 283.404 332.511V324.531L243.814 307.211L243.823 307.202Z" fill="#0017BF"/>
<path d="M245.99 309.891C245.99 309.891 243.98 305.73 241.952 304.269C239.923 302.808 236.829 302.817 236.829 302.817L237.441 305.786C237.441 305.786 232.726 306.405 231.929 305.786C231.132 305.166 227.751 302.466 226.853 302.697C225.954 302.919 227.862 305.786 227.862 305.786C227.862 305.786 225.834 303.927 225.158 305.055C224.481 306.183 227.075 310.677 227.075 310.677C227.075 310.677 224.713 308.319 225.5 312.027C226.288 315.736 233.142 319.333 235.514 319.675C237.885 320.008 247.38 320.045 247.38 320.045L245.981 309.891H245.99Z" fill="#FFBB87"/>
<path d="M237.44 306.128C237.44 306.128 237.486 306.128 237.505 306.128L239.987 305.62C240.173 305.583 240.284 305.407 240.247 305.222C240.21 305.037 240.034 304.926 239.848 304.963L237.366 305.472C237.181 305.509 237.07 305.684 237.107 305.869C237.144 306.027 237.283 306.138 237.44 306.138V306.128Z" fill="black"/>
<path d="M234.967 310.011C235.143 310.011 235.292 309.873 235.301 309.688C235.301 309.503 235.162 309.346 234.977 309.336C234.958 309.336 232.661 309.216 231.392 308.587C230.113 307.949 228.14 305.6 228.122 305.582C228.001 305.434 227.788 305.425 227.649 305.545C227.51 305.665 227.492 305.878 227.603 306.017C227.686 306.118 229.697 308.495 231.086 309.198C232.485 309.9 234.838 310.011 234.94 310.021C234.94 310.021 234.949 310.021 234.958 310.021L234.967 310.011Z" fill="black"/>
<path d="M234.402 314.284C234.587 314.284 234.735 314.136 234.735 313.951C234.735 313.766 234.596 313.609 234.402 313.609C234.383 313.609 232.494 313.554 230.882 312.777C228.788 311.769 227.316 310.447 227.297 310.437C227.158 310.317 226.945 310.327 226.815 310.465C226.695 310.604 226.704 310.817 226.843 310.946C226.908 311.002 228.399 312.333 230.585 313.397C232.327 314.238 234.3 314.294 234.383 314.303L234.402 314.284Z" fill="black"/>
<path d="M182.751 226.835H191.181V235.25H182.751V226.835Z" fill="#DC3C1E"/>
<path d="M171.57 223.821L168.949 228.361L166.327 232.901H171.57H176.822L174.201 228.361L171.57 223.821Z" fill="#E64218"/>
<path d="M178.861 241.094C175.627 241.094 173.006 238.477 173.006 235.249C173.006 232.022 175.627 229.405 178.861 229.405C182.094 229.405 184.715 232.022 184.715 235.249C184.715 238.477 182.094 241.094 178.861 241.094Z" fill="white"/>
<path d="M93.7135 299.359C93.7135 300.348 94.5194 301.153 95.5106 301.153C96.5017 301.153 97.3076 300.348 97.3076 299.359C97.3076 298.369 96.5017 297.565 95.5106 297.565C94.5194 297.565 93.7135 298.369 93.7135 299.359Z" fill="#E64218"/>
<path d="M95.5106 324.272C94.5181 324.272 93.7135 323.469 93.7135 322.478C93.7135 321.487 94.5181 320.684 95.5106 320.684C96.503 320.684 97.3076 321.487 97.3076 322.478C97.3076 323.469 96.503 324.272 95.5106 324.272Z" fill="#E64218"/>
<path d="M176.962 320.6C176.962 321.59 177.767 322.394 178.759 322.394C179.75 322.394 180.556 321.59 180.556 320.6C180.556 319.611 179.75 318.806 178.759 318.806C177.767 318.806 176.962 319.611 176.962 320.6Z" fill="#E64218"/>
<path d="M78.8276 334.747V336.356H190.671V334.747C190.671 331.4 187.614 328.69 183.844 328.69H85.6453C81.8937 328.69 78.8369 331.4 78.8369 334.747H78.8276Z" fill="#373178"/>
<path d="M222.054 405.008C222.054 405.008 222.091 405.008 222.119 405.008C222.304 404.971 222.425 404.796 222.388 404.611C222.295 404.102 212.884 353.502 216.885 342.923C220.85 332.464 245.444 332.196 245.694 332.187C245.86 332.187 246.009 332.057 246.027 331.891C246.046 331.724 245.944 331.567 245.777 331.521L240.006 330.023C239.83 329.977 239.645 330.088 239.599 330.263C239.552 330.439 239.663 330.624 239.839 330.68L243.359 331.595C236.977 331.928 219.683 333.657 216.265 342.682C212.189 353.437 221.341 402.65 221.73 404.74C221.758 404.897 221.906 405.017 222.063 405.017L222.054 405.008Z" fill="white"/>
<path d="M261.192 279.081C261.192 279.081 280.589 279.534 291.742 301.459C302.894 323.393 291.177 334.638 272.252 332.16C253.327 329.682 243.814 323.726 243.814 323.726L245.982 305.13L261.192 279.081Z" fill="#0017BF"/>
<path d="M273.02 308.07C273.168 308.07 273.307 307.978 273.344 307.83C273.4 307.654 273.288 307.46 273.112 307.414C265.35 305.194 249.352 305.213 249.195 305.204C249.01 305.204 248.861 305.352 248.861 305.546C248.861 305.731 249.01 305.879 249.195 305.879C249.88 305.879 265.378 305.906 272.927 308.061C272.955 308.061 272.992 308.07 273.02 308.07Z" fill="#FFB904"/>
<path d="M256.541 281.595C259.626 281.595 262.571 279.672 262.701 279.589C262.858 279.487 262.895 279.274 262.794 279.126C262.692 278.969 262.479 278.932 262.321 279.034C262.293 279.052 259.098 281.124 256.078 280.911C255.893 280.883 255.726 281.041 255.717 281.226C255.707 281.41 255.846 281.577 256.031 281.586C256.198 281.595 256.365 281.605 256.532 281.605L256.541 281.595Z" fill="#FFB904"/>
<path d="M227.492 289.806C227.695 289.806 227.89 289.751 228.066 289.631C229.576 288.678 230.02 283.602 230.067 283.028C230.076 282.88 229.993 282.742 229.854 282.686C229.715 282.631 229.557 282.677 229.465 282.788C229.103 283.241 225.954 287.291 226.426 289.002C226.519 289.344 226.75 289.594 227.084 289.723C227.223 289.779 227.353 289.797 227.482 289.797L227.492 289.806ZM229.27 284.184C229.011 286.163 228.473 288.586 227.714 289.057C227.593 289.141 227.473 289.15 227.334 289.094C227.195 289.039 227.121 288.956 227.084 288.817C226.852 287.966 228.103 285.812 229.27 284.175V284.184Z" fill="#FFB904"/>
<path d="M271.927 307.349C274.882 307.349 278.458 307.118 278.967 306.017C279.078 305.777 279.125 305.379 278.671 304.898C276.272 302.309 268.704 306.452 268.389 306.628C268.259 306.701 268.194 306.849 268.222 306.997C268.25 307.145 268.379 307.247 268.537 307.256C269.259 307.293 270.529 307.349 271.927 307.349ZM276.272 304.713C277.078 304.713 277.754 304.898 278.18 305.361C278.263 305.453 278.411 305.629 278.356 305.74C278.004 306.48 273.891 306.766 269.843 306.646C271.631 305.786 274.326 304.723 276.272 304.723V304.713Z" fill="#FFB904"/>
<path d="M250.622 361.416C250.705 361.416 250.789 361.389 250.853 361.324C250.965 361.222 250.992 361.065 250.927 360.926C250.233 359.539 247.88 355.036 246.453 355.036C246.203 355.036 245.879 355.156 245.675 355.637C244.684 358.023 249.862 361.037 250.455 361.37C250.511 361.398 250.566 361.416 250.622 361.416ZM246.463 355.711C247.055 355.711 248.519 357.847 249.76 360.14C248.111 359.04 245.786 357.144 246.305 355.896C246.333 355.822 246.389 355.711 246.453 355.711H246.463Z" fill="white"/>
<path d="M263.099 329.025C263.257 329.025 263.405 328.914 263.433 328.747C263.47 328.562 263.349 328.387 263.164 328.35C263.071 328.331 253.401 326.491 245.87 322.089C245.703 321.997 245.499 322.052 245.407 322.21C245.314 322.367 245.37 322.579 245.527 322.672C253.16 327.138 262.942 328.997 263.044 329.015C263.062 329.015 263.09 329.015 263.109 329.015L263.099 329.025Z" fill="#FFB904"/>
<path d="M106.774 292.091H84.2551C82.3878 292.091 80.874 290.58 80.874 288.716V266.236C80.874 264.372 82.3878 262.861 84.2551 262.861H106.774C108.641 262.861 110.155 264.372 110.155 266.236V288.716C110.155 290.58 108.641 292.091 106.774 292.091Z" fill="#5EF939"/>
<path d="M105.764 280.19L104.727 282.668L106.024 283.898C105.06 285.47 103.745 286.811 102.198 287.809L100.753 286.441L98.2891 287.486L98.3724 289.446C97.4554 289.659 96.5013 289.779 95.5194 289.779C94.6301 289.779 93.7594 289.687 92.9164 289.502V287.393L90.4617 286.33L88.9518 287.883C87.3956 286.903 86.0802 285.59 85.0983 284.046L86.5434 282.677L85.5059 280.199L83.4958 280.181C83.3013 279.311 83.1994 278.405 83.1994 277.471C83.1994 276.491 83.3105 275.538 83.5329 274.623L85.5059 274.604L86.5434 272.126L85.1632 270.813C86.1543 269.278 87.4882 267.974 89.0444 267.013L90.4617 268.474L92.9164 267.41V265.45C93.7594 265.265 94.6301 265.172 95.5194 265.172C96.5013 265.172 97.4554 265.283 98.3724 265.505L98.2983 267.318L100.762 268.363L102.115 267.077C103.671 268.067 104.996 269.389 105.977 270.952L104.736 272.126L105.774 274.595L107.515 274.614C107.728 275.529 107.849 276.482 107.849 277.462C107.849 278.387 107.747 279.293 107.552 280.162L105.783 280.181L105.764 280.19ZM101.494 277.471C101.494 274.17 98.8171 271.497 95.5101 271.497C92.2032 271.497 89.5261 274.17 89.5261 277.471C89.5261 280.772 92.2032 283.445 95.5101 283.445C98.8171 283.445 101.494 280.772 101.494 277.471Z" fill="white"/>
</g>
</svg>
