<svg width="643" height="260" viewBox="0 0 643 260" fill="none" xmlns="http://www.w3.org/2000/svg">
<path d="M643 0H0V260H643V0Z" fill="black"/>
<mask id="mask0_1455_33327" style="mask-type:alpha" maskUnits="userSpaceOnUse" x="273" y="0" width="370" height="260">
<path d="M643 0H273V260H643V0Z" fill="black"/>
</mask>
<g mask="url(#mask0_1455_33327)">
<path d="M313.89 187.881L325.623 199.565L337.413 181.031L330.781 174.2L313.89 187.881Z" fill="#FFBB87"/>
<path d="M320.102 156.717C318.896 156.297 313.757 162.086 313.135 162.392C312.513 162.698 313.977 167.255 312.589 167.58C311.202 167.904 308.685 167.35 306.665 167.847C304.771 168.306 283.372 187.002 279.697 191.157C279.391 191.511 279.449 192.055 279.831 192.361C280.674 193.059 282.31 194.31 284.262 195.399C286.396 196.584 288.923 197.558 291.248 197.396C296.751 197.004 304.589 191.969 308.56 191.434C312.541 190.899 318.867 192.457 319.719 190.384C320.571 188.32 320.398 182.349 324.954 179.283C329.509 176.216 332.275 175.566 332.533 173.608C332.705 172.289 327.499 165.21 323.738 160.653C321.939 158.466 320.475 156.851 320.092 156.717H320.102Z" fill="#E64218"/>
<path d="M320.101 156.717C318.895 156.297 313.756 162.086 313.134 162.392C312.512 162.698 313.976 167.255 312.589 167.58C311.201 167.904 308.684 167.35 306.665 167.847C304.77 168.306 283.372 187.002 279.697 191.157C279.39 191.511 279.448 192.055 279.831 192.361C280.673 193.059 282.309 194.31 284.262 195.399L323.747 160.653C321.948 158.466 320.484 156.851 320.101 156.717Z" fill="white"/>
<path d="M367.013 253.56L364.563 260.525L350.667 264.967L343.987 261.996L347.547 246.032L367.013 253.56Z" fill="#FFBB87"/>
<path d="M342.054 143.488C342.054 143.488 339.556 155.974 338.379 166.588C337.202 177.201 335.298 191.455 335.298 191.455C335.298 191.455 326.57 224.118 347.537 227.003C373.539 230.586 372.218 199.805 372.218 199.805L364.4 135.386L342.054 143.488Z" fill="#FFB904"/>
<path d="M313.498 193.212L335.021 174.678L341.433 183.696L343.165 225.865C343.165 225.865 333.796 224.604 313.498 193.212Z" fill="#FFB904"/>
<path d="M383.636 140.563C383.636 140.563 392.316 175.098 389.569 200.558C386.823 226.027 374.171 257.258 374.171 257.258L340.409 250.981L351.692 213.235L359.845 142.254L383.636 140.563Z" fill="#FFB904"/>
<path d="M340.619 282.134C341.231 283.243 348.935 282.383 349.605 282.574C350.275 282.765 352.246 278.399 353.49 279.077C354.744 279.765 356.237 281.857 358.074 282.841C359.787 283.768 388.229 284.169 393.741 283.539C394.21 283.481 394.526 283.042 394.45 282.555C394.287 281.475 393.914 279.45 393.186 277.339C392.402 275.036 391.167 272.629 389.33 271.186C384.985 267.804 375.779 266.314 372.467 264.05C369.147 261.786 365.491 256.398 363.472 257.372C361.452 258.337 357.586 262.884 352.141 262.12C346.705 261.356 344.207 259.99 342.705 261.279C341.691 262.149 340.82 270.88 340.561 276.775C340.427 279.603 340.427 281.781 340.628 282.134H340.619Z" fill="#E64218"/>
<path d="M349.452 227.451C353.309 227.451 362.056 226.429 368.429 218.031C379.435 203.529 372.937 164.551 372.133 159.985L383.215 159.087C383.406 159.067 383.55 158.905 383.531 158.714C383.511 158.523 383.349 158.37 383.157 158.399L371.693 159.325C371.597 159.325 371.501 159.383 371.444 159.459C371.386 159.536 371.358 159.641 371.377 159.736C371.453 160.166 379.138 202.774 367.874 217.611C359.749 228.311 347.71 226.677 347.595 226.658C347.404 226.629 347.232 226.763 347.203 226.954C347.174 227.145 347.308 227.317 347.5 227.346C347.528 227.346 348.256 227.451 349.462 227.451H349.452Z" fill="#E64218"/>
<path d="M343.882 189.723C344.169 189.723 344.437 189.637 344.685 189.456C345.059 189.179 345.26 188.787 345.298 188.29C345.499 185.099 337.719 177.724 337.393 177.409C337.278 177.294 337.096 177.285 336.963 177.371C336.829 177.457 336.771 177.629 336.819 177.772C337.202 178.89 340.628 188.768 343.451 189.656C343.594 189.704 343.748 189.723 343.891 189.723H343.882ZM337.986 178.966C340.542 181.536 344.724 186.198 344.599 188.242C344.58 188.529 344.475 188.739 344.274 188.883C344.083 189.026 343.891 189.054 343.661 188.978C341.843 188.405 339.288 182.463 337.986 178.957V178.966Z" fill="#E64218"/>
<path d="M343.93 157.626C343.978 157.626 344.035 157.616 344.083 157.588C348.763 155.304 351.768 149.63 351.892 149.391C351.978 149.219 351.911 149.009 351.739 148.923C351.567 148.837 351.356 148.904 351.27 149.066C351.241 149.123 348.246 154.779 343.767 156.957C343.595 157.043 343.519 157.253 343.605 157.425C343.662 157.549 343.787 157.626 343.92 157.626H343.93Z" fill="#E64218"/>
<path d="M348.591 96.7997C348.591 96.7997 332.877 100.172 327.623 117.062C322.369 133.953 343.576 151.751 343.576 151.751L383.636 140.564C383.636 140.564 378.832 97.2009 374.037 92.8637C369.233 88.5264 348.591 96.7901 348.591 96.7901V96.7997Z" fill="#DC3C1E"/>
<path d="M360.611 87.4467C360.611 87.4467 362.754 71.2633 383.636 67.3082C404.517 63.353 417.016 89.2332 417.016 89.2332L355.519 100.478L360.611 87.4467Z" fill="#DC3C1E"/>
<path d="M359.089 80.3675C359.089 80.3675 365.768 75.7437 363.165 71.3586C360.572 66.9736 354.103 70.8141 354.103 70.8141C354.103 70.8141 351.863 68.2442 348.323 69.9543C344.782 71.6644 344.074 76.3837 344.074 76.3837C344.074 76.3837 340.609 76.0685 340.121 80.272C339.633 84.4755 343.92 88.5357 343.92 88.5357L359.089 80.358V80.3675Z" fill="#0017BF"/>
<path d="M347.193 91.0957L346.562 99.1206C346.562 99.1206 347.834 101.538 352.505 102.292C355.988 102.846 357.213 100.63 357.213 100.63L357.108 98.0506L356.935 94.0477L348.59 91.5161L347.193 91.0862V91.0957Z" fill="#FFBB87"/>
<path d="M348.59 91.5166C348.59 91.7363 348.657 92.0038 348.762 92.3095C350.246 96.4557 355.098 97.7072 357.107 98.0511L356.935 94.0482L348.59 91.5166Z" fill="black"/>
<path d="M360.161 75.8966C360.161 75.8966 363.587 86.2908 361.491 91.7457C359.395 97.2007 354.352 95.8442 351.395 94.4685C348.438 93.0928 347.194 91.0866 347.194 91.0866C347.194 91.0866 344.246 91.784 342.581 88.9562C340.916 86.1188 342.38 83.1859 344.083 82.6318C345.787 82.0873 347.615 83.4438 347.615 83.4438L346.361 80.3963C346.361 80.3963 354.151 66.2573 360.17 75.8775L360.161 75.8966Z" fill="#FFBB87"/>
<path d="M346.992 87.7891C347.088 87.7891 347.193 87.7509 347.26 87.6649C347.385 87.5216 347.366 87.3019 347.222 87.1777L343.806 84.2926C343.662 84.1684 343.442 84.1875 343.317 84.3308C343.193 84.4741 343.212 84.6938 343.356 84.818L346.772 87.7031C346.839 87.7604 346.916 87.7891 347.002 87.7891H346.992Z" fill="black"/>
<path d="M343.69 87.4849C343.69 87.4849 343.729 87.4849 343.748 87.4849L346.179 87.055C346.37 87.0263 346.494 86.8448 346.466 86.6537C346.427 86.4627 346.255 86.3385 346.064 86.3671L343.633 86.797C343.441 86.8257 343.317 87.0072 343.346 87.1983C343.375 87.3702 343.528 87.4849 343.69 87.4849Z" fill="black"/>
<path d="M353.127 79.6322C353.222 79.6322 353.318 79.594 353.385 79.5176C354.505 78.2756 355.701 79.0303 355.749 79.059C355.911 79.1641 356.122 79.1163 356.227 78.9539C356.333 78.7915 356.285 78.5718 356.122 78.4762C355.529 78.0941 354.074 77.712 352.859 79.0495C352.725 79.1928 352.744 79.4125 352.887 79.5462C352.954 79.6036 353.04 79.6322 353.117 79.6322H353.127Z" fill="black"/>
<path d="M360.954 79.8607C361.05 79.8607 361.136 79.8225 361.203 79.7556C361.337 79.6219 361.337 79.3926 361.203 79.2589C360.064 78.1602 358.744 78.7908 358.686 78.8194C358.514 78.9054 358.438 79.1156 358.524 79.2875C358.61 79.4595 358.82 79.5264 358.993 79.4499C359.04 79.4308 359.95 79.02 360.715 79.7652C360.782 79.8321 360.868 79.8607 360.954 79.8607Z" fill="black"/>
<path d="M358.744 88.2381C358.888 88.2381 359.012 88.1521 359.069 88.0183C360.313 84.8084 358.304 82.7544 358.218 82.6684C358.084 82.5347 357.864 82.5347 357.73 82.6684C357.596 82.8022 357.596 83.0219 357.73 83.1652C357.806 83.2416 359.49 84.9899 358.419 87.7699C358.352 87.9515 358.438 88.1521 358.62 88.2189C358.658 88.2381 358.706 88.2381 358.744 88.2381Z" fill="black"/>
<path d="M360.61 83.711C360.61 83.711 360.658 83.711 360.677 83.711C360.869 83.6728 360.993 83.4913 360.955 83.3002L360.601 81.4182C360.563 81.2272 360.381 81.103 360.189 81.1412C359.998 81.1794 359.874 81.3609 359.912 81.552L360.266 83.434C360.295 83.5964 360.448 83.7206 360.61 83.7206V83.711Z" fill="black"/>
<path d="M355.519 83.4154C355.519 83.4154 355.567 83.4154 355.586 83.4154C355.777 83.3772 355.901 83.1957 355.863 83.0046L355.509 81.1226C355.471 80.9315 355.289 80.8073 355.098 80.8455C354.906 80.8837 354.782 81.0653 354.82 81.2563L355.174 83.1383C355.203 83.3008 355.356 83.425 355.519 83.425V83.4154Z" fill="black"/>
<path d="M360.83 78.2281C360.83 78.2281 360.084 76.5467 358.084 76.3747C356.083 76.2027 354.801 77.5211 354.801 77.5211C354.801 77.5211 355.414 80.9603 352.552 82.5366C349.681 84.113 347.614 83.4442 347.614 83.4442L345.69 82.5844L344.466 79.5846L350.667 73.8717L358.38 70.5471L361.883 74.2634L360.83 78.209V78.2281Z" fill="#0017BF"/>
<path d="M356.725 90.4275C356.955 90.4275 357.108 90.2651 357.098 90.074C357.098 89.8829 356.945 89.7587 356.744 89.7301C356.668 89.7492 355.098 89.7301 354.543 88.2588C354.476 88.0773 354.275 87.9914 354.093 88.0582C353.911 88.1251 353.825 88.3257 353.892 88.5072C354.466 90.0358 355.969 90.4275 356.715 90.4275H356.725Z" fill="black"/>
<path d="M450.587 155.304H377.185C374.516 155.304 372.353 153.144 372.353 150.479V88.9362C372.353 86.2717 374.516 84.1118 377.185 84.1118L450.587 84.1118C453.256 84.1118 455.419 86.2717 455.419 88.9362V150.479C455.419 153.144 453.256 155.304 450.587 155.304Z" fill="#373178"/>
<path d="M364.888 118.58C364.888 118.58 374.946 113.259 377.999 112.8C381.052 112.342 386.267 115.695 386.267 115.695L383.636 117.214C383.636 117.214 387.751 126.194 386.985 127.56C386.22 128.926 384.239 127.56 384.239 127.56C384.239 127.56 379.511 132.432 378.143 132.585C376.774 132.738 369.453 129.843 369.453 129.843L364.879 118.58H364.888Z" fill="#FFBB87"/>
<path d="M366.257 116.451L344.457 124.208L346.696 97.3538C346.696 97.3538 329.977 102.446 325.566 119.642C321.144 136.838 327.547 150.528 341.26 151.751C354.974 152.964 373.568 133.8 373.568 133.8L366.257 116.451Z" fill="#DC3C1E"/>
<path d="M405.799 77.6164C405.799 77.6164 403.359 73.518 401.11 76.9477C398.861 80.3773 400.785 90.16 402.612 90.609C404.574 91.0962 405.799 87.3609 405.799 87.3609C405.799 87.3609 406.172 90.5517 408.239 90.609C410.297 90.6663 411.235 87.3609 411.235 87.3609C411.235 87.3609 412.259 91.0867 414.048 90.609C416.01 90.074 417.044 77.6164 413.302 76.3171C411.503 75.6962 410.488 77.6164 410.488 77.6164C410.488 77.6164 409.79 75.2472 407.732 75.5529C405.675 75.8586 405.809 77.6164 405.809 77.6164H405.799Z" fill="#FFBB87"/>
<path d="M383.635 117.214L390.918 112.753L392.784 116.469L385.233 120.959L383.635 117.214Z" fill="white"/>
<path d="M395.11 117.71C393.55 117.71 391.703 117.233 390.851 115.532C389.559 112.953 391.291 109.8 391.502 109.456L393.923 110.842C393.607 111.396 392.822 113.23 393.349 114.281C393.722 115.026 395.368 114.969 396.067 114.825L396.65 117.558C396.22 117.653 395.684 117.71 395.119 117.71H395.11Z" fill="white"/>
<path d="M383.636 117.558C383.703 117.558 383.78 117.539 383.837 117.491C383.99 117.376 384.029 117.157 383.914 117.004L382.048 114.405C381.933 114.252 381.722 114.214 381.559 114.329C381.406 114.444 381.368 114.663 381.483 114.816L383.349 117.415C383.416 117.51 383.521 117.558 383.636 117.558Z" fill="black"/>
<path d="M384.248 127.905C384.315 127.905 384.392 127.885 384.449 127.838C384.603 127.723 384.641 127.513 384.526 127.35L383.464 125.87C383.349 125.717 383.129 125.679 382.976 125.784C382.823 125.898 382.784 126.108 382.899 126.271L383.961 127.752C384.028 127.847 384.134 127.895 384.248 127.895V127.905Z" fill="black"/>
<path d="M405.8 87.2729C405.991 87.2729 406.145 87.1201 406.145 86.929V77.6144C406.145 77.4234 405.991 77.2705 405.8 77.2705C405.609 77.2705 405.455 77.4234 405.455 77.6144V86.929C405.455 87.1201 405.609 87.2729 405.8 87.2729Z" fill="black"/>
<path d="M411.236 87.7128C411.456 87.6937 411.599 87.5313 411.58 87.3402L410.834 77.5958C410.815 77.4047 410.642 77.2614 410.461 77.271C410.269 77.2901 410.126 77.4525 410.135 77.6435L410.882 87.388C410.891 87.5695 411.044 87.7128 411.226 87.7128H411.236Z" fill="black"/>
<path d="M353.405 102.656C353.453 102.656 353.51 102.656 353.558 102.656C355.061 102.617 356.372 102.016 357.463 100.869C357.597 100.726 357.587 100.506 357.453 100.372C357.319 100.239 357.09 100.248 356.956 100.382C355.29 102.14 353.089 102.426 350.429 101.251C348.381 100.344 346.811 98.8725 346.802 98.863C346.658 98.7292 346.438 98.7388 346.304 98.8726C346.17 99.0159 346.18 99.2356 346.314 99.3693C346.457 99.5031 349.816 102.656 353.396 102.656H353.405Z" fill="white"/>
<path d="M339.174 124.933C339.174 124.933 339.27 124.933 339.308 124.905C348.562 120.997 361.826 118.084 361.96 118.055C362.151 118.017 362.266 117.826 362.228 117.644C362.19 117.453 361.998 117.338 361.816 117.377C361.683 117.405 348.352 120.329 339.04 124.265C338.858 124.341 338.782 124.542 338.858 124.723C338.916 124.857 339.04 124.933 339.184 124.933H339.174Z" fill="white"/>
<path d="M343.902 122C345.29 122 346.629 121.953 347.548 121.905C347.711 121.905 347.845 121.781 347.873 121.618C347.902 121.456 347.816 121.303 347.672 121.236C347.376 121.102 340.485 118.064 338.093 120.013C337.634 120.396 337.634 120.73 337.71 120.94C338.036 121.8 341.079 122 343.892 122H343.902ZM345.883 121.274C342.304 121.37 338.772 121.198 338.38 120.701C338.399 120.701 338.437 120.634 338.543 120.558C339.902 119.45 343.519 120.415 345.883 121.274Z" fill="white"/>
<path d="M381.454 84.4672C381.617 84.4672 381.741 84.3621 381.789 84.2188C382.028 83.4258 383.158 79.4134 382.229 78.3816C382.086 78.2192 381.808 78.0473 381.387 78.1237C381.052 78.1906 380.784 78.3816 380.602 78.6873C379.77 80.0917 380.985 83.8175 381.119 84.2379C381.167 84.3812 381.301 84.4767 381.454 84.4767V84.4672ZM381.588 78.7924C381.665 78.7924 381.693 78.8211 381.713 78.8402C382.105 79.2797 381.837 81.1521 381.445 82.8144C381.11 81.5056 380.794 79.7287 381.205 79.0313C381.282 78.8975 381.387 78.8211 381.521 78.802C381.55 78.802 381.569 78.802 381.598 78.802L381.588 78.7924Z" fill="white"/>
<path d="M355.941 147.871C355.998 147.871 356.046 147.861 356.094 147.833C356.189 147.785 365.989 142.788 371.444 136.33C371.568 136.187 371.549 135.967 371.406 135.843C371.262 135.719 371.042 135.738 370.918 135.881C365.558 142.225 355.883 147.154 355.787 147.212C355.615 147.298 355.548 147.508 355.634 147.68C355.692 147.804 355.816 147.871 355.95 147.871H355.941Z" fill="white"/>
<path d="M407.149 178.577C407.235 178.577 407.312 178.548 407.379 178.491C407.522 178.367 407.532 178.137 407.407 178.004L404.144 174.402C404.01 174.259 403.79 174.249 403.647 174.373C403.503 174.498 403.493 174.727 403.618 174.861L406.881 178.462C406.948 178.539 407.044 178.577 407.14 178.577H407.149Z" fill="white"/>
<path d="M403.886 178.576C403.981 178.576 404.077 178.538 404.144 178.461L407.407 174.86C407.532 174.716 407.522 174.497 407.379 174.372C407.235 174.239 407.015 174.258 406.881 174.401L403.618 178.003C403.493 178.146 403.503 178.366 403.647 178.49C403.714 178.547 403.8 178.576 403.876 178.576H403.886Z" fill="white"/>
<path d="M427.744 227.46H480.665C482.675 227.46 484.312 225.827 484.312 223.82V180.964C484.312 178.958 482.675 177.324 480.665 177.324H427.744C425.734 177.324 424.098 178.958 424.098 180.964V223.82C424.098 225.827 425.734 227.46 427.744 227.46ZM480.665 178.012C482.292 178.012 483.613 179.33 483.613 180.954V223.811C483.613 225.435 482.292 226.753 480.665 226.753H427.744C426.117 226.753 424.796 225.435 424.796 223.811V180.954C424.796 179.33 426.117 178.012 427.744 178.012H480.665Z" fill="#E64218"/>
<path d="M424.442 187.231H483.967C484.158 187.231 484.312 187.078 484.312 186.877C484.312 186.677 484.158 186.524 483.967 186.524H424.442C424.251 186.524 424.098 186.677 424.098 186.877C424.098 187.078 424.251 187.231 424.442 187.231Z" fill="#E64218"/>
<path d="M476.981 184.613C477.077 184.613 477.182 184.574 477.249 184.489L480.417 180.763C480.541 180.619 480.522 180.4 480.378 180.275C480.235 180.151 480.015 180.17 479.89 180.314L476.723 184.039C476.598 184.183 476.617 184.403 476.761 184.527C476.828 184.584 476.904 184.613 476.99 184.613H476.981Z" fill="#E64218"/>
<path d="M480.158 184.613C480.235 184.613 480.321 184.584 480.388 184.527C480.532 184.403 480.551 184.183 480.426 184.039L477.259 180.314C477.134 180.17 476.914 180.151 476.771 180.275C476.627 180.4 476.608 180.619 476.732 180.763L479.9 184.489C479.967 184.574 480.063 184.613 480.168 184.613H480.158Z" fill="#E64218"/>
<path d="M614.117 281.562H563.129C558.425 281.562 554.611 277.755 554.611 273.059V211.306C554.611 206.61 558.425 202.803 563.129 202.803H614.117C618.821 202.803 622.634 206.61 622.634 211.306V273.059C622.634 277.755 618.821 281.562 614.117 281.562Z" fill="#1D4568"/>
<path d="M608.998 281.562H558.009C553.305 281.562 549.492 277.755 549.492 273.059V211.306C549.492 206.61 553.305 202.803 558.009 202.803H608.998C613.702 202.803 617.515 206.61 617.515 211.306V273.059C617.515 277.755 613.702 281.562 608.998 281.562Z" fill="#40398D"/>
<path d="M499.892 190.308C499.988 190.308 500.074 190.27 500.141 190.203C500.208 190.136 500.246 190.05 500.246 189.955V81.9343C500.246 81.7432 500.093 81.5903 499.902 81.5903C499.71 81.5903 499.557 81.7432 499.557 81.9343V189.611L414.26 189.553V127.6C414.26 127.408 414.107 127.256 413.916 127.256C413.724 127.256 413.571 127.408 413.571 127.6V189.897C413.571 190.088 413.724 190.241 413.916 190.251L499.911 190.308H499.892Z" fill="#E64218"/>
<path d="M543.339 252.856L539.262 266.641L522.008 263.699L525.95 250.84L543.339 252.856Z" fill="#FFBB87"/>
<path d="M570.249 250.352L572.125 266.106L554.87 269.411L553.263 254.661L570.249 250.352Z" fill="#FFBB87"/>
<path d="M514.399 110.147C514.399 110.147 512.648 115.659 515.672 116.796C518.705 117.933 518.715 114.79 518.715 114.79L516.839 110.844L514.399 110.156V110.147Z" fill="#FFBB87"/>
<path d="M528.371 121.104C528.371 121.104 524.409 110.911 520.801 109.134C517.193 107.357 510.332 107.577 509.279 109.449C508.236 111.312 511.375 111.35 512.188 111.159C513.002 110.968 515.452 111.503 516.026 112.334C516.61 113.165 516.839 116.662 516.839 116.662C516.839 116.662 514.16 117.206 513.002 116.232C511.844 115.257 510.676 113.5 509.863 114.789C509.049 116.07 512.303 122.814 514.638 124.668C516.964 126.53 522.897 128.852 522.897 128.852L528.371 121.104Z" fill="#FFBB87"/>
<path d="M516.849 117.006C517.069 116.987 517.213 116.815 517.194 116.624C517.194 116.576 517.079 115.42 516.648 113.51C516.17 111.408 514.265 111.007 514.179 110.988C513.997 110.949 513.806 111.074 513.768 111.265C513.729 111.456 513.854 111.637 514.036 111.675C514.103 111.685 515.586 112.019 515.959 113.672C516.38 115.535 516.485 116.681 516.495 116.691C516.514 116.873 516.667 117.006 516.84 117.006H516.849Z" fill="black"/>
<path d="M493.604 102.131H506.179C506.866 102.131 507.423 102.687 507.423 103.373V115.926C507.423 116.612 506.866 117.168 506.179 117.168H493.604C492.917 117.168 492.36 116.612 492.36 115.926V103.373C492.36 102.687 492.917 102.131 493.604 102.131Z" fill="#373178"/>
<path d="M493.604 121.333H506.179C506.866 121.333 507.423 121.889 507.423 122.575V135.128C507.423 135.814 506.866 136.37 506.179 136.37H493.604C492.917 136.37 492.36 135.814 492.36 135.128V122.575C492.36 121.889 492.917 121.333 493.604 121.333Z" fill="#373178"/>
<path d="M493.604 140.534H506.179C506.866 140.534 507.423 141.09 507.423 141.776V154.329C507.423 155.015 506.866 155.571 506.179 155.571H493.604C492.917 155.571 492.36 155.015 492.36 154.329V141.776C492.36 141.09 492.917 140.534 493.604 140.534Z" fill="#373178"/>
<path d="M506.054 118.151L513.098 112.218L511.289 110.088L506.303 114.301L502.245 109.887L500.188 111.779L506.054 118.151Z" fill="white"/>
<path d="M500.054 134.469L505.834 129.558L504.025 127.438L500.504 130.428L495.967 124.409L493.728 126.091L500.054 134.469Z" fill="white"/>
<path d="M500.054 153.68L505.834 148.77L504.025 146.649L500.504 149.639L495.967 143.611L493.728 145.292L500.054 153.68Z" fill="white"/>
<path d="M518.103 60H481.211C479.699 60 478.474 61.2228 478.474 62.7323V83.0237C478.474 84.5331 479.699 85.756 481.211 85.756H518.103C519.615 85.756 520.84 84.5331 520.84 83.0237V62.7323C520.84 61.2228 519.615 60 518.103 60Z" fill="#5EF939"/>
<path d="M396.651 178.547V236.173C396.651 239.632 399.809 242.431 403.685 242.431H505.135C509.03 242.431 512.188 239.632 512.188 236.173V178.547C512.188 175.089 509.03 172.29 505.135 172.29H403.685C399.809 172.29 396.651 175.089 396.651 178.547Z" fill="#40398D"/>
<path d="M438.894 188.864H463.288C463.825 188.864 464.26 189.299 464.26 189.836C464.26 190.373 463.825 190.808 463.288 190.808H438.894C438.358 190.808 437.923 190.373 437.923 189.836C437.923 189.299 438.358 188.864 438.894 188.864Z" fill="#5EF939"/>
<path d="M414.288 198.869H457.458C457.995 198.869 458.43 199.304 458.43 199.841C458.43 200.378 457.995 200.813 457.458 200.813H414.288C413.751 200.813 413.316 200.378 413.316 199.841C413.316 199.304 413.751 198.869 414.288 198.869Z" fill="#FFB904"/>
<path d="M463.259 198.869H480.91C481.447 198.869 481.882 199.304 481.882 199.841C481.882 200.378 481.447 200.813 480.91 200.813H463.259C462.723 200.813 462.288 200.378 462.288 199.841C462.288 199.304 462.723 198.869 463.259 198.869Z" fill="#5EF939"/>
<path d="M414.288 227.034H457.458C457.995 227.034 458.43 227.469 458.43 228.005C458.43 228.542 457.995 228.977 457.458 228.977H414.288C413.751 228.977 413.316 228.542 413.316 228.005C413.316 227.469 413.751 227.034 414.288 227.034Z" fill="#FFB904"/>
<path d="M463.26 227.034H496.686C497.223 227.034 497.658 227.469 497.658 228.005C497.658 228.542 497.223 228.977 496.686 228.977H463.26C462.723 228.977 462.288 228.542 462.288 228.005C462.288 227.469 462.723 227.034 463.26 227.034Z" fill="#5EF939"/>
<path d="M414.288 212.715H457.458C457.995 212.715 458.43 213.15 458.43 213.687C458.43 214.224 457.995 214.659 457.458 214.659H414.288C413.751 214.659 413.316 214.224 413.316 213.687C413.316 213.15 413.751 212.715 414.288 212.715Z" fill="#5EF939"/>
<path d="M463.259 212.715H480.91C481.447 212.715 481.882 213.15 481.882 213.687C481.882 214.224 481.447 214.659 480.91 214.659H463.259C462.723 214.659 462.288 214.224 462.288 213.687C462.288 213.15 462.723 212.715 463.259 212.715Z" fill="#5EF939"/>
<path d="M467.255 207.736L437.739 207.736C437.203 207.736 436.768 207.301 436.768 206.765C436.768 206.228 437.203 205.793 437.739 205.793L467.255 205.793C467.792 205.793 468.227 206.228 468.227 206.765C468.227 207.301 467.792 207.736 467.255 207.736Z" fill="#FFB904"/>
<path d="M431.938 207.736L414.287 207.736C413.751 207.736 413.315 207.301 413.315 206.765C413.315 206.228 413.751 205.793 414.287 205.793L431.938 205.793C432.474 205.793 432.91 206.228 432.91 206.765C432.91 207.301 432.474 207.736 431.938 207.736Z" fill="#5EF939"/>
<path d="M467.255 221.582L437.739 221.582C437.203 221.582 436.768 221.147 436.768 220.611C436.768 220.074 437.203 219.639 437.739 219.639L467.255 219.639C467.792 219.639 468.227 220.074 468.227 220.611C468.227 221.147 467.792 221.582 467.255 221.582Z" fill="#FFB904"/>
<path d="M431.938 221.582L414.287 221.582C413.751 221.582 413.315 221.147 413.315 220.611C413.315 220.074 413.751 219.639 414.287 219.639L431.938 219.639C432.474 219.639 432.91 220.074 432.91 220.611C432.91 221.147 432.474 221.582 431.938 221.582Z" fill="#5EF939"/>
<path d="M414.031 190.463V189.272L418.875 187.123V188.5L415.584 189.833V189.892L418.875 191.225V192.602L414.031 190.463ZM425.338 185.287L423.053 193.754H421.812L424.088 185.287H425.338ZM418.875 212.463L414.031 214.602V213.225L417.322 211.892V211.833L414.031 210.5V209.123L418.875 211.272V212.463Z" fill="#3DF130"/>
<path d="M469.091 188.864H496.686C497.223 188.864 497.658 189.299 497.658 189.836C497.658 190.373 497.223 190.808 496.686 190.808H469.091C468.554 190.808 468.119 190.373 468.119 189.836C468.119 189.299 468.554 188.864 469.091 188.864Z" fill="#FFB904"/>
<path d="M537.635 279.691C538.898 279.768 540.018 278.774 540.161 277.427C540.755 272.115 542.745 260.269 541.779 260.164C540.544 260.03 527.72 262.027 527.72 262.027C527.72 262.027 528.189 254.623 522.907 255.368C518.859 255.942 513.767 260.116 511.614 262.027C510.935 262.639 510.112 263.021 509.231 263.135C505.461 263.642 495.029 265.524 494.283 270.912C493.364 277.504 496.111 277.045 497.345 277.179C498.408 277.293 528.993 279.156 537.635 279.682V279.691Z" fill="#FFB904"/>
<path d="M576.527 275.247C577.713 274.798 578.316 273.432 577.895 272.142C576.24 267.059 573.158 255.452 572.23 255.748C571.043 256.13 560.191 263.238 560.191 263.238C560.191 263.238 557.559 256.302 553.061 259.159C549.607 261.356 546.697 267.251 545.53 269.878C545.157 270.709 544.573 271.397 543.817 271.865C540.592 273.881 531.864 279.89 533.414 285.106C535.3 291.487 537.606 289.94 538.793 289.558C539.807 289.223 568.44 278.323 576.527 275.237V275.247Z" fill="#FFB904"/>
<path d="M584.929 99.6176C584.929 99.6176 595.255 96.8471 602.93 106.238C610.615 115.629 605.84 127.189 593.667 126.854C581.503 126.52 578.671 114.11 578.671 114.11L584.92 99.6271L584.929 99.6176Z" fill="#0017BF"/>
<path d="M569.426 107.347C569.426 107.347 566.488 104.233 567.225 99.3033C567.723 95.9596 569.187 94.8514 569.187 94.8514C569.187 94.8514 566.833 90.3517 573.58 90.4951C580.317 90.6384 585.839 90.0651 588.844 95.8545C590.614 99.2651 589.906 106.669 589.906 106.669L569.426 107.347Z" fill="#0017BF"/>
<path d="M584.317 112.6L584.27 120.806C584.27 120.806 582.777 123.156 577.963 123.519C574.374 123.787 573.255 121.943 573.255 121.943L574.164 114.768L582.863 112.915L584.317 112.6Z" fill="#FFBB87"/>
<path d="M584.308 112.105C584.288 112.325 584.202 112.592 584.068 112.898C582.202 116.987 575.714 118.659 573.647 118.831L574.163 114.78L584.308 112.105Z" fill="black"/>
<path d="M572.431 96.0455C572.431 96.0455 568.058 106.315 569.723 112.038C571.388 117.77 576.623 116.815 579.752 115.668C582.881 114.531 584.317 112.592 584.317 112.592C584.317 112.592 587.255 113.557 589.188 110.815C591.121 108.073 589.886 104.968 588.202 104.261C586.518 103.564 584.546 104.787 584.546 104.787L586.078 101.797C586.078 101.797 579.369 86.7596 572.431 96.0264V96.0455Z" fill="#FFBB87"/>
<path d="M584.546 104.806C584.546 104.806 580.163 105.781 577.005 100.947C573.847 96.1126 574.096 94.0968 574.096 94.0968L571.149 99.2079C571.149 99.2079 570.402 95.7209 571.761 93.4567C573.12 91.1926 574.584 91.632 574.584 91.632L584.345 93.8675L587.054 101.587L584.556 104.806H584.546Z" fill="#0017BF"/>
<path d="M573.494 109.058C573.494 109.058 573.57 109.057 573.599 109.038C573.781 108.981 573.886 108.78 573.819 108.599C573.197 106.698 574.02 104.625 574.03 104.606C574.106 104.424 574.02 104.223 573.838 104.147C573.656 104.071 573.455 104.157 573.379 104.338C573.341 104.434 572.451 106.669 573.149 108.809C573.197 108.952 573.331 109.048 573.484 109.048L573.494 109.058Z" fill="black"/>
<path d="M585.053 109.611C585.149 109.611 585.245 109.573 585.312 109.497L588.049 106.506C588.183 106.363 588.173 106.143 588.03 106.01C587.886 105.876 587.666 105.885 587.532 106.029L584.795 109.019C584.661 109.162 584.671 109.382 584.814 109.516C584.881 109.573 584.967 109.611 585.053 109.611Z" fill="black"/>
<path d="M587.991 108.781C588.164 108.781 588.317 108.657 588.336 108.475C588.365 108.284 588.231 108.112 588.039 108.083L586.106 107.825C585.915 107.806 585.743 107.931 585.714 108.122C585.685 108.313 585.819 108.485 586.01 108.513L587.944 108.771C587.944 108.771 587.972 108.771 587.991 108.771V108.781Z" fill="black"/>
<path d="M570.89 100.725C570.89 100.725 570.938 100.725 570.957 100.725L572.727 100.381C572.919 100.343 573.043 100.162 573.005 99.9706C572.967 99.7796 572.785 99.6649 572.593 99.6936L570.823 100.038C570.631 100.076 570.507 100.257 570.545 100.448C570.574 100.611 570.727 100.735 570.89 100.735V100.725Z" fill="black"/>
<path d="M577.646 101.137C577.79 101.137 577.924 101.051 577.972 100.907C578.039 100.726 577.943 100.525 577.771 100.458L575.933 99.7705C575.751 99.7036 575.55 99.7992 575.483 99.9711C575.416 100.153 575.512 100.353 575.684 100.42L577.522 101.108C577.522 101.108 577.598 101.127 577.646 101.127V101.137Z" fill="black"/>
<path d="M571.876 104.919C572.029 104.919 572.173 104.823 572.211 104.671L572.747 102.817C572.775 102.703 572.747 102.588 572.68 102.492L572.096 101.814C571.972 101.671 571.751 101.652 571.608 101.776C571.464 101.9 571.445 102.12 571.57 102.263L572.029 102.808L571.55 104.489C571.493 104.671 571.608 104.871 571.79 104.919C571.818 104.919 571.857 104.929 571.885 104.929L571.876 104.919Z" fill="black"/>
<path d="M577.063 105.322C577.216 105.322 577.35 105.227 577.397 105.074L577.933 103.221C577.962 103.106 577.933 102.982 577.857 102.896L577.053 101.998C576.929 101.854 576.699 101.845 576.555 101.969C576.412 102.093 576.402 102.313 576.527 102.466L577.197 103.221L576.718 104.892C576.661 105.074 576.775 105.275 576.957 105.322C576.986 105.322 577.024 105.332 577.053 105.332L577.063 105.322Z" fill="black"/>
<path d="M574.738 112.018C574.824 112.018 574.91 112.018 574.996 111.999C576.135 111.808 576.767 110.432 576.795 110.375C576.853 110.251 576.834 110.117 576.747 110.012C576.661 109.907 576.527 109.859 576.403 109.888L573.264 110.576C573.14 110.604 573.044 110.69 573.006 110.815C572.967 110.939 573.006 111.063 573.082 111.158C573.618 111.741 574.173 112.028 574.728 112.028L574.738 112.018ZM575.733 110.748C575.503 111.015 575.216 111.254 574.881 111.311C574.633 111.359 574.374 111.283 574.097 111.101L575.733 110.748Z" fill="black"/>
<path d="M570.01 172.281C570.01 172.281 538.276 174.067 530.027 180.449C521.777 186.831 521.318 253.638 521.318 253.638L547.205 256.58L547.444 191.178L570.01 172.281Z" fill="#E64218"/>
<path d="M586.423 121.275C586.423 121.275 585.514 118.084 585.054 118.084C584.451 118.084 581.121 119.689 578.087 119.67C575.063 119.651 574.537 118.705 573.637 118.83C572.738 118.954 572.403 121.275 572.403 121.275C572.403 121.275 566.795 123.138 560.278 124.648C553.761 126.157 543.521 124.179 539.214 122.087C534.908 119.995 527.577 115.467 527.577 115.467L520.008 135.328C520.008 135.328 535.367 154.961 549.454 155.075C563.541 155.19 580.528 152.4 580.528 152.4L586.413 121.266L586.423 121.275Z" fill="#0017BF"/>
<path d="M608.041 173.305C608.041 173.305 610.366 198.277 606.653 200.627C597.983 206.121 574.24 204.735 574.125 205.758C574.01 206.78 576.785 252.302 576.785 252.302L545.501 258.129C545.501 258.129 534.008 191.685 540.515 180.966C547.013 170.248 585.35 171.26 585.35 171.26L608.031 173.305H608.041Z" fill="#E64218"/>
<path d="M547.138 167.466L564.517 165.737L557.961 137.554L540.582 139.284L547.138 167.466Z" fill="#FFB904"/>
<path d="M544.535 167.724L561.904 166.004L555.349 137.812L537.979 139.541L544.535 167.724Z" fill="white"/>
<path d="M567.111 150.089L566.46 171.47C566.46 171.47 580.193 175.301 590.547 176.237C600.902 177.164 608.003 176.237 608.003 176.237V167.992L567.101 150.099L567.111 150.089Z" fill="#0017BF"/>
<path d="M569.35 152.868C569.35 152.868 567.273 148.569 565.177 147.06C563.081 145.55 559.885 145.56 559.885 145.56L560.517 148.627C560.517 148.627 555.646 149.267 554.823 148.627C554 147.987 550.506 145.197 549.578 145.436C548.65 145.665 550.621 148.627 550.621 148.627C550.621 148.627 548.526 146.706 547.827 147.872C547.128 149.037 549.808 153.68 549.808 153.68C549.808 153.68 547.368 151.244 548.181 155.075C548.994 158.906 556.076 162.622 558.526 162.976C560.976 163.32 570.785 163.358 570.785 163.358L569.34 152.868H569.35Z" fill="#FFBB87"/>
<path d="M560.517 148.981C560.517 148.981 560.565 148.981 560.584 148.981L563.149 148.455C563.34 148.417 563.455 148.236 563.416 148.045C563.378 147.854 563.196 147.739 563.005 147.777L560.44 148.303C560.249 148.341 560.134 148.522 560.172 148.713C560.211 148.876 560.354 148.99 560.517 148.99V148.981Z" fill="black"/>
<path d="M557.961 152.992C558.143 152.992 558.296 152.849 558.306 152.658C558.306 152.467 558.162 152.304 557.971 152.295C557.952 152.295 555.578 152.171 554.267 151.521C552.947 150.862 550.908 148.435 550.889 148.416C550.765 148.263 550.544 148.254 550.401 148.378C550.257 148.502 550.238 148.722 550.353 148.865C550.439 148.97 552.516 151.426 553.951 152.152C555.396 152.878 557.827 152.992 557.932 153.002C557.932 153.002 557.942 153.002 557.952 153.002L557.961 152.992Z" fill="black"/>
<path d="M557.378 157.407C557.57 157.407 557.723 157.254 557.723 157.063C557.723 156.872 557.579 156.709 557.378 156.709C557.359 156.709 555.407 156.652 553.742 155.849C551.579 154.808 550.057 153.442 550.038 153.432C549.894 153.308 549.674 153.318 549.54 153.461C549.416 153.604 549.426 153.824 549.569 153.958C549.636 154.015 551.177 155.391 553.435 156.49C555.234 157.359 557.273 157.416 557.359 157.426L557.378 157.407Z" fill="black"/>
<path d="M504.016 67.062H512.725V75.7556H504.016V67.062Z" fill="#DC3C1E"/>
<path d="M492.464 63.9473L489.756 68.638L487.048 73.3287H492.464H497.891L495.182 68.638L492.464 63.9473Z" fill="#E64218"/>
<path d="M499.997 81.7925C496.656 81.7925 493.949 79.0893 493.949 75.7548C493.949 72.4202 496.656 69.717 499.997 69.717C503.337 69.717 506.045 72.4202 506.045 75.7548C506.045 79.0893 503.337 81.7925 499.997 81.7925Z" fill="white"/>
<path d="M412.03 141.987C412.03 143.009 412.863 143.84 413.887 143.84C414.911 143.84 415.743 143.009 415.743 141.987C415.743 140.965 414.911 140.134 413.887 140.134C412.863 140.134 412.03 140.965 412.03 141.987Z" fill="#E64218"/>
<path d="M413.887 167.725C412.861 167.725 412.03 166.895 412.03 165.872C412.03 164.848 412.861 164.019 413.887 164.019C414.912 164.019 415.743 164.848 415.743 165.872C415.743 166.895 414.912 167.725 413.887 167.725Z" fill="#E64218"/>
<path d="M498.035 163.932C498.035 164.954 498.868 165.786 499.891 165.786C500.915 165.786 501.748 164.954 501.748 163.932C501.748 162.91 500.915 162.079 499.891 162.079C498.868 162.079 498.035 162.91 498.035 163.932Z" fill="#E64218"/>
<path d="M396.651 178.547V180.21H512.198V178.547C512.198 175.089 509.04 172.29 505.145 172.29H403.694C399.819 172.29 396.661 175.089 396.661 178.547H396.651Z" fill="#373178"/>
<path d="M544.621 251.135C544.621 251.135 544.66 251.135 544.688 251.135C544.88 251.097 545.004 250.915 544.966 250.724C544.87 250.199 535.147 197.923 539.281 186.994C543.377 176.189 568.785 175.912 569.044 175.902C569.216 175.902 569.369 175.768 569.388 175.596C569.408 175.424 569.302 175.262 569.13 175.214L563.168 173.667C562.986 173.619 562.795 173.734 562.747 173.915C562.699 174.097 562.814 174.288 562.996 174.345L566.632 175.291C560.039 175.635 542.172 177.421 538.64 186.745C534.429 197.856 543.885 248.699 544.286 250.858C544.315 251.021 544.468 251.145 544.631 251.145L544.621 251.135Z" fill="white"/>
<path d="M585.054 121.038C585.054 121.038 605.093 121.506 616.615 144.157C628.138 166.817 616.032 178.434 596.48 175.874C576.929 173.314 567.101 167.161 567.101 167.161L569.34 147.95L585.054 121.038Z" fill="#0017BF"/>
<path d="M597.275 150.987C597.428 150.987 597.572 150.891 597.61 150.739C597.668 150.557 597.553 150.356 597.371 150.309C589.351 148.016 572.824 148.035 572.661 148.025C572.47 148.025 572.317 148.178 572.317 148.379C572.317 148.57 572.47 148.723 572.661 148.723C573.37 148.723 589.38 148.751 597.179 150.977C597.208 150.977 597.246 150.987 597.275 150.987Z" fill="#FFB904"/>
<path d="M580.25 123.635C583.437 123.635 586.48 121.648 586.614 121.562C586.777 121.457 586.815 121.238 586.71 121.085C586.604 120.922 586.384 120.884 586.222 120.989C586.193 121.008 582.891 123.148 579.771 122.929C579.58 122.9 579.408 123.062 579.398 123.253C579.389 123.444 579.532 123.616 579.724 123.626C579.896 123.635 580.068 123.645 580.24 123.645L580.25 123.635Z" fill="#FFB904"/>
<path d="M550.238 132.118C550.449 132.118 550.65 132.061 550.832 131.937C552.391 130.953 552.851 125.708 552.899 125.116C552.908 124.963 552.822 124.819 552.679 124.762C552.535 124.705 552.372 124.753 552.277 124.867C551.903 125.335 548.65 129.52 549.138 131.287C549.233 131.641 549.473 131.898 549.817 132.032C549.961 132.09 550.095 132.109 550.229 132.109L550.238 132.118ZM552.076 126.31C551.808 128.354 551.253 130.857 550.468 131.344C550.344 131.43 550.219 131.44 550.076 131.383C549.932 131.325 549.855 131.239 549.817 131.096C549.578 130.217 550.87 127.991 552.076 126.3V126.31Z" fill="#FFB904"/>
<path d="M596.146 150.242C599.199 150.242 602.893 150.003 603.419 148.866C603.534 148.617 603.582 148.207 603.113 147.71C600.634 145.035 592.815 149.315 592.49 149.496C592.356 149.573 592.289 149.726 592.318 149.878C592.346 150.031 592.48 150.136 592.643 150.146C593.39 150.184 594.701 150.242 596.146 150.242ZM600.634 147.519C601.467 147.519 602.165 147.71 602.605 148.188C602.692 148.283 602.845 148.465 602.787 148.579C602.424 149.343 598.175 149.64 593.993 149.515C595.839 148.627 598.624 147.528 600.634 147.528V147.519Z" fill="#FFB904"/>
<path d="M574.135 206.1C574.221 206.1 574.307 206.071 574.374 206.004C574.489 205.899 574.518 205.737 574.451 205.593C573.733 204.16 571.302 199.508 569.828 199.508C569.57 199.508 569.235 199.632 569.025 200.129C568.001 202.594 573.35 205.708 573.963 206.052C574.02 206.081 574.078 206.1 574.135 206.1ZM569.838 200.205C570.451 200.205 571.963 202.412 573.245 204.781C571.541 203.644 569.139 201.686 569.675 200.396C569.704 200.32 569.761 200.205 569.828 200.205H569.838Z" fill="white"/>
<path d="M587.026 172.635C587.188 172.635 587.341 172.521 587.37 172.349C587.408 172.158 587.284 171.976 587.093 171.938C586.997 171.919 577.006 170.018 569.225 165.47C569.053 165.375 568.843 165.432 568.747 165.595C568.651 165.757 568.709 165.977 568.871 166.072C576.757 170.687 586.863 172.607 586.968 172.626C586.987 172.626 587.016 172.626 587.035 172.626L587.026 172.635Z" fill="#FFB904"/>
<path d="M425.523 134.479H402.259C400.329 134.479 398.766 132.917 398.766 130.992V107.767C398.766 105.841 400.329 104.28 402.259 104.28H425.523C427.452 104.28 429.016 105.841 429.016 107.767V130.992C429.016 132.917 427.452 134.479 425.523 134.479Z" fill="#5EF939"/>
<path d="M424.481 122.183L423.409 124.743L424.749 126.014C423.753 127.638 422.394 129.023 420.796 130.055L419.303 128.641L416.758 129.721L416.844 131.746C415.896 131.966 414.911 132.09 413.896 132.09C412.978 132.09 412.078 131.994 411.207 131.803V129.625L408.671 128.526L407.111 130.131C405.503 129.119 404.144 127.762 403.13 126.167L404.623 124.753L403.551 122.192L401.474 122.173C401.273 121.275 401.168 120.339 401.168 119.374C401.168 118.362 401.283 117.378 401.513 116.432L403.551 116.413L404.623 113.852L403.197 112.496C404.221 110.91 405.599 109.563 407.207 108.569L408.671 110.079L411.207 108.98V106.955C412.078 106.764 412.978 106.668 413.896 106.668C414.911 106.668 415.896 106.783 416.844 107.012L416.767 108.885L419.313 109.964L420.71 108.636C422.318 109.658 423.686 111.025 424.701 112.639L423.418 113.852L424.49 116.403L426.289 116.422C426.509 117.368 426.634 118.352 426.634 119.365C426.634 120.32 426.529 121.256 426.328 122.154L424.5 122.173L424.481 122.183ZM420.069 119.374C420.069 115.964 417.303 113.203 413.887 113.203C410.47 113.203 407.704 115.964 407.704 119.374C407.704 122.785 410.47 125.546 413.887 125.546C417.303 125.546 420.069 122.785 420.069 119.374Z" fill="white"/>
</g>
</svg>
