<svg xmlns="http://www.w3.org/2000/svg" width="1380" height="429" fill="none"><path fill="#FFBB87" d="m203.285 323.305 12.074 12.011 12.132-19.053-6.824-7.022-17.382 14.064Z"/><path fill="#E64218" d="M209.677 291.269c-1.241-.432-6.529 5.52-7.169 5.834-.64.314.866 4.999-.562 5.333-1.428.334-4.018-.236-6.095.275-1.95.471-23.97 19.691-27.752 23.963-.315.364-.256.924.138 1.238a31.794 31.794 0 0 0 4.56 3.123c2.196 1.218 4.795 2.22 7.189 2.053 5.662-.403 13.728-5.579 17.814-6.129 4.097-.55 10.607 1.051 11.483-1.08.877-2.122.699-8.26 5.387-11.412 4.688-3.153 7.534-3.821 7.799-5.834.178-1.355-5.18-8.633-9.05-13.318-1.851-2.249-3.358-3.908-3.752-4.046h.01Z"/><path fill="#fff" d="M209.677 291.269c-1.241-.432-6.529 5.52-7.17 5.834-.64.314.867 4.999-.561 5.333-1.428.334-4.018-.236-6.096.275-1.95.471-23.97 19.691-27.751 23.963-.315.364-.256.924.138 1.238.866.717 2.55 2.003 4.559 3.123l40.633-35.72c-1.852-2.249-3.358-3.908-3.752-4.046Z"/><path fill="#FFBB87" d="m257.951 390.826-2.521 7.16-14.299 4.567-6.874-3.055 3.664-16.411 20.03 7.739Z"/><path fill="#FFB904" d="M232.268 277.668s-2.571 12.836-3.782 23.747c-1.211 10.912-3.171 25.565-3.171 25.565s-8.981 33.578 12.596 36.544c26.756 3.683 25.397-27.96 25.397-27.96l-8.045-66.225-22.995 8.329Z"/><path fill="#FFB904" d="m202.882 328.786 22.148-19.053 6.598 9.271 1.782 43.35s-9.641-1.296-30.528-33.568ZM275.057 274.661s8.933 35.504 6.106 61.677c-2.826 26.183-15.845 58.289-15.845 58.289l-34.744-6.453 11.611-38.803 8.39-72.971 24.482-1.739Z"/><path fill="#E64218" d="M230.791 420.201c.63 1.14 8.558.256 9.247.452.689.196 2.718-4.292 3.998-3.595 1.29.708 2.827 2.858 4.717 3.87 1.763.953 31.031 1.365 36.704.717.482-.059.807-.511.728-1.012-.167-1.109-.551-3.191-1.3-5.362-.807-2.367-2.077-4.842-3.968-6.325-4.471-3.476-13.945-5.009-17.352-7.336-3.418-2.328-7.179-7.867-9.257-6.865-2.078.992-6.057 5.667-11.66 4.881-5.594-.786-8.164-2.19-9.71-.864-1.044.893-1.94 9.87-2.206 15.93-.138 2.907-.138 5.146.069 5.509h-.01ZM239.881 363.984c3.968 0 12.969-1.051 19.528-9.683 11.325-14.909 4.638-54.979 3.811-59.674l11.404-.923a.353.353 0 0 0 .325-.383c-.02-.196-.187-.353-.384-.324l-11.798.953a.339.339 0 0 0-.256.137.368.368 0 0 0-.069.285c.079.442 7.987 44.244-3.604 59.497-8.361 10.999-20.75 9.32-20.868 9.3a.357.357 0 1 0-.098.707c.029 0 .778.108 2.018.108h-.009ZM234.149 325.2c.295 0 .571-.088.827-.275.384-.284.591-.687.63-1.198.207-3.28-7.8-10.862-8.134-11.186a.358.358 0 0 0-.444-.039.364.364 0 0 0-.147.412c.394 1.149 3.919 11.304 6.824 12.218.148.049.306.068.453.068h-.009Zm-6.067-11.058c2.63 2.642 6.933 7.434 6.805 9.536-.02.295-.128.511-.335.658a.634.634 0 0 1-.63.098c-1.871-.589-4.5-6.698-5.84-10.302v.01ZM234.198 292.202a.305.305 0 0 0 .157-.039c4.816-2.347 7.908-8.181 8.036-8.426a.358.358 0 0 0-.157-.482.366.366 0 0 0-.483.148c-.029.059-3.112 5.873-7.721 8.112a.36.36 0 0 0-.167.481.356.356 0 0 0 .325.206h.01Z"/><path fill="#fff" d="M230.791 420.202c.63 1.139 8.558.255 9.247.452.689.196 2.718-4.292 3.998-3.595 1.29.707 2.827 2.858 4.717 3.87 1.763.952 31.031 1.365 36.704.717.482-.059.807-.511.728-1.012-.167-1.11-.551-3.192-1.3-5.362l-54.153-.58c-.138 2.907-.138 5.146.069 5.51h-.01Z"/><path fill="#DC3C1E" d="M238.994 229.672s-16.171 3.466-21.577 20.83c-5.407 17.364 16.416 35.661 16.416 35.661l41.224-11.501s-4.944-44.578-9.878-49.037c-4.943-4.459-26.185 4.037-26.185 4.037v.01Z"/><path fill="#DC3C1E" d="M251.363 220.056s2.206-16.637 23.694-20.703c21.488-4.066 34.35 22.54 34.35 22.54l-63.283 11.559 5.239-13.396Z"/><path fill="#0017BF" d="M249.797 212.779s6.874-4.753 4.195-9.261c-2.668-4.508-9.326-.56-9.326-.56s-2.304-2.642-5.948-.884c-3.644 1.758-4.372 6.61-4.372 6.61s-3.565-.324-4.067 3.997c-.503 4.321 3.909 8.495 3.909 8.495l15.609-8.406v.009Z"/><path fill="#FFBB87" d="m237.557 223.808-.65 8.25s1.309 2.485 6.115 3.261c3.585.569 4.845-1.709 4.845-1.709l-.108-2.652-.177-4.115-8.588-2.603-1.437-.442v.01Z"/><path fill="#000" d="M238.994 224.241c0 .225.069.5.177.815 1.526 4.262 6.519 5.549 8.587 5.902l-.177-4.115-8.587-2.602Z"/><path fill="#FFBB87" d="M250.9 208.183s3.526 10.685 1.369 16.293c-2.157 5.608-7.347 4.213-10.39 2.799-3.043-1.414-4.323-3.477-4.323-3.477s-3.033.717-4.747-2.19c-1.713-2.917-.206-5.932 1.546-6.501 1.753-.56 3.634.834 3.634.834l-1.29-3.132s8.016-14.536 14.211-4.646l-.01.02Z"/><path fill="#000" d="M237.349 220.409a.35.35 0 0 0 .276-.128.356.356 0 0 0-.039-.501l-3.516-2.966a.358.358 0 0 0-.502.039.357.357 0 0 0 .039.501l3.516 2.966a.354.354 0 0 0 .236.089h-.01Z"/><path fill="#000" d="M233.952 220.096h.059l2.501-.442a.359.359 0 0 0 .296-.413.364.364 0 0 0-.414-.294l-2.501.442a.358.358 0 0 0-.296.412c.03.177.187.295.355.295ZM243.662 212.023a.352.352 0 0 0 .266-.118c1.152-1.277 2.383-.501 2.432-.471a.355.355 0 0 0 .493-.108.35.35 0 0 0-.109-.491c-.61-.393-2.107-.786-3.358.589-.138.147-.118.373.03.511a.37.37 0 0 0 .236.088h.01ZM251.717 212.258a.36.36 0 0 0 .256-.108.367.367 0 0 0 0-.511c-1.172-1.13-2.531-.481-2.59-.452a.361.361 0 0 0-.167.481.372.372 0 0 0 .483.167c.049-.019.984-.442 1.772.324a.343.343 0 0 0 .246.099ZM249.443 220.871a.364.364 0 0 0 .334-.226c1.281-3.3-.787-5.412-.876-5.5a.356.356 0 0 0-.502 0 .367.367 0 0 0 0 .511c.079.078 1.812 1.875.709 4.733a.356.356 0 0 0 .207.462c.039.02.088.02.128.02ZM251.363 216.216h.069a.359.359 0 0 0 .286-.422l-.365-1.935a.36.36 0 0 0-.423-.285.36.36 0 0 0-.286.423l.365 1.935a.367.367 0 0 0 .354.294v-.01ZM246.124 215.912h.069a.357.357 0 0 0 .285-.422l-.364-1.935a.36.36 0 0 0-.423-.285.36.36 0 0 0-.286.423l.364 1.934c.03.167.187.295.355.295v-.01Z"/><path fill="#0017BF" d="M251.589 210.579s-.768-1.728-2.826-1.905c-2.058-.177-3.378 1.178-3.378 1.178s.63 3.536-2.314 5.156c-2.955 1.621-5.082.933-5.082.933l-1.979-.883-1.261-3.084 6.382-5.873 7.937-3.418 3.604 3.82-1.083 4.056v.02Z"/><path fill="#000" d="M247.365 223.12c.236 0 .394-.166.384-.363 0-.196-.158-.324-.365-.353-.078.019-1.694 0-2.265-1.513a.356.356 0 0 0-.463-.206.355.355 0 0 0-.206.461c.591 1.572 2.137 1.974 2.905 1.974h.01Z"/><path fill="#373178" d="M343.953 289.815H268.42c-2.747 0-4.974-2.22-4.974-4.959v-63.268a4.967 4.967 0 0 1 4.974-4.96h75.533a4.966 4.966 0 0 1 4.973 4.96v63.268a4.966 4.966 0 0 1-4.973 4.959Z"/><path fill="#FFBB87" d="M255.765 252.063s10.35-5.471 13.492-5.942c3.141-.472 8.508 2.976 8.508 2.976l-2.708 1.561s4.235 9.232 3.447 10.636c-.788 1.405-2.826 0-2.826 0s-4.865 5.009-6.274 5.166c-1.408.158-8.941-2.818-8.941-2.818l-4.708-11.579h.01Z"/><path fill="#DC3C1E" d="m257.173 249.874-22.433 7.974 2.304-27.607s-17.204 5.235-21.744 22.913c-4.55 17.678 2.038 31.752 16.151 33.009 14.112 1.247 33.246-18.454 33.246-18.454l-7.524-17.835Z"/><path fill="#FFBB87" d="M297.865 209.951s-2.511-4.214-4.826-.688c-2.314 3.526-.335 13.583 1.546 14.044 2.019.501 3.28-3.339 3.28-3.339s.384 3.281 2.511 3.339c2.117.059 3.082-3.339 3.082-3.339s1.054 3.831 2.896 3.339c2.018-.55 3.082-13.356-.768-14.692-1.852-.638-2.896 1.336-2.896 1.336s-.719-2.436-2.836-2.122c-2.117.315-1.979 2.122-1.979 2.122h-.01Z"/><path fill="#fff" d="m275.057 250.659 7.494-4.587 1.921 3.821-7.77 4.616-1.645-3.85Z"/><path fill="#fff" d="M286.865 251.169c-1.605 0-3.506-.491-4.383-2.24-1.329-2.651.453-5.892.67-6.246l2.492 1.424c-.325.57-1.133 2.455-.591 3.536.384.766 2.078.707 2.797.56l.6 2.808a7.433 7.433 0 0 1-1.575.158h-.01Z"/><path fill="#000" d="M275.057 251.012c.069 0 .148-.02.207-.069a.36.36 0 0 0 .079-.501l-1.92-2.671a.358.358 0 1 0-.581.422l1.92 2.672a.351.351 0 0 0 .295.147ZM275.688 261.648c.068 0 .147-.02.206-.069a.358.358 0 0 0 .079-.501l-1.093-1.522a.374.374 0 0 0-.502-.089.358.358 0 0 0-.079.501l1.093 1.523a.352.352 0 0 0 .296.147v.01ZM297.865 219.878a.353.353 0 0 0 .355-.353v-9.576a.353.353 0 0 0-.355-.353.352.352 0 0 0-.354.353v9.576c0 .196.157.353.354.353ZM303.459 220.331c.226-.02.374-.187.354-.383l-.768-10.018a.375.375 0 0 0-.384-.334.369.369 0 0 0-.335.383l.768 10.018c.01.186.168.334.355.334h.01Z"/><path fill="#fff" d="M243.948 235.691h.157c1.546-.039 2.896-.658 4.018-1.836a.367.367 0 0 0-.01-.511c-.138-.137-.374-.127-.512.01-1.713 1.807-3.978 2.102-6.716.894-2.107-.933-3.723-2.446-3.732-2.456a.37.37 0 0 0-.512.01.367.367 0 0 0 .009.511c.148.137 3.605 3.378 7.288 3.378h.01ZM229.304 258.594s.098 0 .137-.03c9.523-4.016 23.173-7.012 23.31-7.041a.357.357 0 1 0-.147-.698c-.138.03-13.856 3.035-23.438 7.081-.187.079-.266.285-.187.472a.354.354 0 0 0 .334.216h-.009Z"/><path fill="#fff" d="M234.169 255.578c1.428 0 2.806-.049 3.752-.098a.347.347 0 0 0 .335-.294.362.362 0 0 0-.207-.393c-.305-.138-7.396-3.261-9.858-1.257-.473.392-.473.736-.394.952.335.884 3.467 1.09 6.362 1.09h.01Zm2.038-.746c-3.683.098-7.317-.079-7.72-.589.019 0 .059-.069.167-.148 1.398-1.139 5.121-.147 7.553.737ZM272.812 216.993a.362.362 0 0 0 .345-.256c.246-.815 1.408-4.94.453-6-.148-.167-.434-.344-.867-.265-.345.068-.62.265-.808.579-.856 1.444.394 5.274.532 5.706a.361.361 0 0 0 .345.246v-.01Zm.138-5.834c.079 0 .108.029.128.049.404.452.128 2.377-.276 4.086-.345-1.346-.67-3.173-.246-3.889a.435.435 0 0 1 .325-.236h.079l-.01-.01ZM246.557 282.174c.059 0 .109-.01.158-.039.098-.05 10.183-5.186 15.796-11.825a.357.357 0 0 0-.039-.501.36.36 0 0 0-.503.039c-5.515 6.522-15.471 11.589-15.569 11.648a.358.358 0 0 0-.158.481.348.348 0 0 0 .325.197h-.01ZM299.254 313.74a.353.353 0 0 0 .266-.589l-3.359-3.703a.37.37 0 0 0-.512-.029.357.357 0 0 0-.029.501l3.358 3.702a.35.35 0 0 0 .266.118h.01Z"/><path fill="#fff" d="M295.896 313.74a.348.348 0 0 0 .265-.118l3.359-3.702a.355.355 0 0 0-.03-.501.36.36 0 0 0-.512.029l-3.358 3.703a.356.356 0 0 0 .029.501.373.373 0 0 0 .237.088h.01Z"/><path fill="#E64218" d="M320.446 363.995h54.459a3.753 3.753 0 0 0 3.752-3.742v-44.058a3.752 3.752 0 0 0-3.752-3.742h-54.459a3.752 3.752 0 0 0-3.752 3.742v44.058a3.753 3.753 0 0 0 3.752 3.742Zm54.459-50.835a3.03 3.03 0 0 1 3.033 3.025v44.058a3.03 3.03 0 0 1-3.033 3.025h-54.459a3.03 3.03 0 0 1-3.033-3.025v-44.058a3.03 3.03 0 0 1 3.033-3.025h54.459Z"/><path fill="#E64218" d="M317.049 322.638h61.254a.355.355 0 0 0 .354-.364.354.354 0 0 0-.354-.364h-61.254a.355.355 0 0 0-.355.364c0 .206.158.364.355.364ZM371.114 319.946c.098 0 .207-.04.275-.128l3.26-3.83a.357.357 0 0 0-.039-.501.36.36 0 0 0-.503.039l-3.259 3.83a.356.356 0 0 0 .039.501.355.355 0 0 0 .237.089h-.01Z"/><path fill="#E64218" d="M374.383 319.946c.079 0 .168-.03.237-.089a.357.357 0 0 0 .039-.501l-3.26-3.83a.358.358 0 0 0-.502-.039.357.357 0 0 0-.039.501l3.26 3.83a.335.335 0 0 0 .275.128h-.01Z"/><path fill="#1D4568" d="M512.235 419.612h-52.47c-4.841 0-8.765-3.913-8.765-8.741v-63.484c0-4.827 3.924-8.741 8.765-8.741h52.47c4.84 0 8.764 3.914 8.764 8.741v63.484c0 4.828-3.924 8.741-8.764 8.741Z"/><path fill="#40398D" d="M506.966 419.612h-52.47c-4.84 0-8.764-3.913-8.764-8.741v-63.484c0-4.827 3.924-8.741 8.764-8.741h52.47c4.841 0 8.765 3.914 8.765 8.741v63.484c0 4.828-3.924 8.741-8.765 8.741Z"/><path fill="#E64218" d="M394.69 325.801a.36.36 0 0 0 .256-.108.357.357 0 0 0 .109-.256V214.389a.353.353 0 0 0-.355-.353.352.352 0 0 0-.354.353v110.695l-87.775-.059v-63.69a.353.353 0 0 0-.355-.354.352.352 0 0 0-.354.354v64.043c0 .197.157.354.354.364l88.494.059h-.02Z"/><path fill="#FFBB87" d="m439.4 390.101-4.196 14.172-17.756-3.025 4.058-13.219 17.894 2.072ZM467.092 387.527l1.93 16.195-17.755 3.398-1.655-15.163 17.48-4.43ZM409.619 243.393s-1.802 5.666 1.31 6.835c3.122 1.169 3.132-2.062 3.132-2.062l-1.93-4.056-2.512-.708v-.009Z"/><path fill="#FFBB87" d="M423.997 254.657s-4.077-10.479-7.789-12.306c-3.713-1.827-10.774-1.601-11.857.324-1.074 1.915 2.157 1.955 2.994 1.758.837-.196 3.358.354 3.949 1.208.6.855.837 4.449.837 4.449s-2.758.56-3.949-.442c-1.192-1.002-2.393-2.809-3.23-1.483-.838 1.316 2.511 8.25 4.914 10.155 2.393 1.915 8.498 4.302 8.498 4.302l5.633-7.965Z"/><path fill="#000" d="M412.141 250.444c.226-.02.374-.197.354-.393 0-.049-.118-1.237-.561-3.202-.493-2.16-2.452-2.573-2.541-2.592a.363.363 0 0 0-.423.284.36.36 0 0 0 .275.423 2.687 2.687 0 0 1 1.98 2.052c.433 1.915.541 3.094.551 3.104.02.186.178.324.355.324h.01Z"/><path fill="#373178" d="M388.22 235.151h12.94c.707 0 1.28.572 1.28 1.277v12.905c0 .705-.573 1.277-1.28 1.277h-12.94a1.28 1.28 0 0 1-1.281-1.277v-12.905a1.28 1.28 0 0 1 1.281-1.277ZM388.22 254.893h12.94c.707 0 1.28.571 1.28 1.277v12.905c0 .705-.573 1.276-1.28 1.276h-12.94a1.279 1.279 0 0 1-1.281-1.276V256.17c0-.706.574-1.277 1.281-1.277ZM388.22 274.633h12.94c.707 0 1.28.571 1.28 1.276v12.905c0 .705-.573 1.277-1.28 1.277h-12.94a1.28 1.28 0 0 1-1.281-1.277v-12.905c0-.705.574-1.276 1.281-1.276Z"/><path fill="#fff" d="m401.032 251.621 7.248-6.099-1.861-2.19-5.131 4.331-4.176-4.537-2.117 1.945 6.037 6.55ZM394.857 268.397l5.948-5.048-1.861-2.18-3.624 3.074-4.668-6.188-2.304 1.729 6.509 8.613ZM394.857 288.146l5.948-5.048-1.861-2.18-3.624 3.074-4.668-6.197-2.304 1.728 6.509 8.623Z"/><path fill="#5EF939" d="M413.431 191.841h-37.964a2.812 2.812 0 0 0-2.817 2.808v20.861a2.812 2.812 0 0 0 2.817 2.808h37.964a2.811 2.811 0 0 0 2.816-2.808v-20.861a2.811 2.811 0 0 0-2.816-2.808Z"/><path fill="#40398D" d="M288.451 313.711v59.241c0 3.555 3.249 6.433 7.238 6.433h104.398c4.008 0 7.258-2.878 7.258-6.433v-59.241c0-3.555-3.25-6.433-7.258-6.433H295.689c-3.989 0-7.238 2.878-7.238 6.433Z"/><path fill="#5EF939" d="M331.92 324.317h25.105a1 1 0 0 1 0 1.998H331.92a1 1 0 0 1 0-1.998Z"/><path fill="#FFB904" d="M306.598 334.602h44.427a1 1 0 0 1 0 1.998h-44.427a1 1 0 0 1 0-1.998Z"/><path fill="#5EF939" d="M356.993 334.602h18.165a.999.999 0 1 1 0 1.998h-18.165a.999.999 0 1 1 0-1.998Z"/><path fill="#FFB904" d="M306.598 363.556h44.427a1 1 0 0 1 0 1.998h-44.427a1 1 0 0 1 0-1.998Z"/><path fill="#5EF939" d="M356.993 363.556h34.399a.999.999 0 1 1 0 1.998h-34.399a.999.999 0 1 1 0-1.998ZM306.598 348.836h44.427a1 1 0 0 1 0 1.998h-44.427a1 1 0 0 1 0-1.998ZM356.993 348.836h18.165a1 1 0 0 1 0 1.998h-18.165a.999.999 0 1 1 0-1.998Z"/><path fill="#FFB904" d="M361.107 343.717h-30.375a.999.999 0 1 1 0-1.998h30.375a1 1 0 0 1 0 1.998Z"/><path fill="#5EF939" d="M324.764 343.717h-18.166a1 1 0 0 1 0-1.998h18.166a1 1 0 0 1 0 1.998Z"/><path fill="#FFB904" d="M361.107 357.951h-30.375a.999.999 0 1 1 0-1.998h30.375a.999.999 0 1 1 0 1.998Z"/><path fill="#5EF939" d="M324.764 357.951h-18.166a1 1 0 0 1 0-1.998h18.166a1 1 0 0 1 0 1.998Z"/><path fill="#3DF130" d="m306.311 325.602 4.844 2.139v-1.377l-3.291-1.333v-.059l3.291-1.333v-1.377l-4.844 2.148v1.192Zm11.307-5.176h-1.25l-2.276 8.467h1.241l2.285-8.467Zm7.781 5.176v-1.192l-4.844-2.148v1.377l3.291 1.333v.059l-3.291 1.333v1.377l4.844-2.139Z"/><path fill="#FFB904" d="M362.993 324.317h28.399a.999.999 0 1 1 0 1.998h-28.399a.999.999 0 1 1 0-1.998ZM433.53 417.689c1.3.079 2.452-.943 2.6-2.328.611-5.46 2.659-17.638 1.664-17.746-1.27-.138-14.466 1.915-14.466 1.915s.482-7.612-4.954-6.846c-4.166.59-9.405 4.881-11.62 6.846a4.541 4.541 0 0 1-2.453 1.139c-3.88.52-14.614 2.455-15.382 7.994-.945 6.777 1.881 6.306 3.151 6.443 1.093.118 32.567 2.033 41.46 2.573v.01Z"/><path fill="#FFB904" d="M473.552 413.121c1.221-.462 1.842-1.866 1.408-3.192-1.703-5.225-4.874-17.158-5.83-16.853-1.221.393-12.388 7.7-12.388 7.7s-2.708-7.131-7.337-4.194c-3.555 2.259-6.549 8.319-7.75 11.019a4.575 4.575 0 0 1-1.763 2.043c-3.319 2.072-12.3 8.25-10.705 13.612 1.94 6.561 4.314 4.97 5.535 4.577 1.044-.344 30.509-11.55 38.83-14.722v.01Z"/><path fill="#fff" d="M482.199 232.569s10.626-2.848 18.524 6.806c7.908 9.654 2.994 21.538-9.533 21.194-12.517-.344-15.432-13.102-15.432-13.102l6.431-14.888.01-.01Z"/><path fill="#0017BF" d="M466.245 240.515s-3.023-3.202-2.265-8.269c.512-3.438 2.019-4.577 2.019-4.577s-2.423-4.626 4.52-4.478c6.933.147 12.615-.442 15.707 5.509 1.822 3.506 1.094 11.118 1.094 11.118l-21.075.697Z"/><path fill="#FFBB87" d="m481.568 245.915-.049 8.437s-1.536 2.416-6.49 2.789c-3.693.275-4.845-1.621-4.845-1.621l.936-7.375 8.952-1.906 1.496-.324Z"/><path fill="#000" d="M481.558 245.406c-.019.226-.108.501-.246.815-1.92 4.204-8.597 5.922-10.724 6.099l.532-4.164 10.438-2.75Z"/><path fill="#FFBB87" d="M469.337 228.896s-4.5 10.558-2.787 16.441c1.714 5.893 7.101 4.91 10.321 3.732 3.22-1.169 4.697-3.163 4.697-3.163s3.024.992 5.013-1.826c1.989-2.819.719-6.011-1.014-6.738-1.734-.717-3.762.541-3.762.541l1.575-3.074s-6.903-15.459-14.043-5.932v.019Z"/><path fill="#0017BF" d="M481.805 237.903s-4.51 1.002-7.76-3.968c-3.25-4.969-2.994-7.042-2.994-7.042l-3.033 5.255s-.768-3.585.63-5.913c1.399-2.327 2.905-1.875 2.905-1.875l10.045 2.298 2.787 7.935-2.57 3.31h-.01Z"/><path fill="#000" d="M470.43 242.273s.079 0 .109-.019a.351.351 0 0 0 .226-.452c-.64-1.955.207-4.086.217-4.105a.358.358 0 0 0-.197-.472.36.36 0 0 0-.473.197c-.039.098-.955 2.396-.236 4.596a.36.36 0 0 0 .345.245l.009.01ZM482.327 242.842a.35.35 0 0 0 .265-.118l2.817-3.074a.358.358 0 0 0-.02-.511.361.361 0 0 0-.512.02l-2.816 3.074a.36.36 0 0 0 .019.511.39.39 0 0 0 .247.098Z"/><path fill="#000" d="M485.35 241.989a.352.352 0 0 0 .354-.314.354.354 0 0 0-.305-.403l-1.989-.266a.363.363 0 0 0-.404.305.356.356 0 0 0 .305.403l1.99.265h.049v.01ZM467.752 233.708h.069l1.821-.354a.359.359 0 0 0 .286-.422.365.365 0 0 0-.423-.285l-1.822.353a.36.36 0 0 0-.286.423c.03.167.187.294.355.294v-.009ZM474.704 234.13a.348.348 0 0 0 .335-.236.363.363 0 0 0-.207-.461l-1.891-.707a.363.363 0 0 0-.462.206.363.363 0 0 0 .206.461l1.891.708s.079.019.128.019v.01ZM468.766 238.019a.35.35 0 0 0 .345-.255l.551-1.906a.401.401 0 0 0-.069-.333l-.6-.698a.36.36 0 0 0-.503-.039.357.357 0 0 0-.039.501l.473.56-.493 1.728a.355.355 0 0 0 .247.442c.029 0 .068.01.098.01l-.01-.01ZM474.103 238.433a.357.357 0 0 0 .345-.256l.552-1.905a.372.372 0 0 0-.079-.334l-.827-.923a.37.37 0 0 0-.512-.029c-.148.127-.158.353-.03.51l.689.776-.492 1.719a.356.356 0 0 0 .246.442c.03 0 .069.01.099.01l.009-.01ZM471.711 245.317c.088 0 .177 0 .266-.02 1.171-.196 1.821-1.611 1.851-1.669a.347.347 0 0 0-.049-.374.358.358 0 0 0-.355-.127l-3.23.707a.356.356 0 0 0-.266.245.383.383 0 0 0 .079.354c.551.599 1.123.894 1.694.894l.01-.01Zm1.024-1.306c-.237.275-.532.52-.877.579-.256.049-.522-.029-.807-.216l1.684-.363Z"/><path fill="#E64218" d="M466.846 307.268s-32.656 1.837-41.145 8.397c-8.489 6.561-8.961 75.24-8.961 75.24l26.638 3.025.246-67.236 23.222-19.426Z"/><path fill="#0017BF" d="M483.735 254.834s-.936-3.28-1.408-3.28c-.621 0-4.048 1.65-7.17 1.63-3.112-.02-3.653-.992-4.579-.864-.926.127-1.27 2.514-1.27 2.514s-5.771 1.915-12.478 3.467c-6.706 1.551-17.243-.482-21.675-2.632-4.431-2.151-11.975-6.806-11.975-6.806l-7.79 20.418s15.806 20.182 30.302 20.3c14.497.118 31.977-2.75 31.977-2.75l6.056-32.007.01.01Z"/><path fill="#E64218" d="M505.981 308.32s2.393 25.673-1.428 28.089c-8.922 5.647-33.355 4.223-33.473 5.274-.118 1.051 2.738 47.848 2.738 47.848l-32.193 5.991s-11.827-68.306-5.131-79.325c6.687-11.02 46.138-9.979 46.138-9.979l23.34 2.102h.009Z"/><path fill="#FFB904" d="m443.309 302.319 17.884-1.778-6.746-28.972-17.883 1.778 6.745 28.972Z"/><path fill="#fff" d="m440.63 302.584 17.874-1.768-6.746-28.982-17.874 1.777 6.746 28.973Z"/><path fill="#0017BF" d="m463.862 284.455-.67 21.98s14.132 3.938 24.787 4.901c10.656.952 17.963 0 17.963 0v-8.476l-42.09-18.395.01-.01Z"/><path fill="#FFBB87" d="M466.166 287.312s-2.137-4.419-4.293-5.971c-2.157-1.552-5.446-1.542-5.446-1.542l.65 3.153s-5.013.658-5.86 0c-.847-.659-4.441-3.526-5.397-3.281-.955.236 1.074 3.281 1.074 3.281s-2.157-1.975-2.876-.776c-.719 1.198 2.039 5.971 2.039 5.971s-2.511-2.505-1.674 1.434c.837 3.938 8.124 7.759 10.645 8.122 2.521.353 12.615.393 12.615.393l-1.487-10.784h.01Z"/><path fill="#000" d="M457.076 283.315h.069l2.639-.54a.351.351 0 0 0 .276-.422.353.353 0 0 0-.423-.275l-2.64.54a.352.352 0 0 0-.275.422.367.367 0 0 0 .354.285v-.01ZM454.447 287.439a.356.356 0 0 0 .354-.344.368.368 0 0 0-.344-.373c-.02 0-2.462-.128-3.811-.796-1.359-.677-3.457-3.172-3.477-3.191a.35.35 0 0 0-.502-.04.367.367 0 0 0-.049.501c.088.108 2.225 2.632 3.703 3.379 1.487.746 3.988.864 4.096.874h.02l.01-.01ZM453.846 291.977a.353.353 0 0 0 .355-.353.355.355 0 0 0-.355-.364c-.019 0-2.028-.059-3.742-.884-2.226-1.07-3.791-2.474-3.811-2.484a.37.37 0 0 0-.512.029.369.369 0 0 0 .029.511c.069.059 1.655 1.473 3.979 2.602 1.851.894 3.949.953 4.038.963l.019-.02Z"/><path fill="#DC3C1E" d="M398.935 199.099h8.961v8.938h-8.961v-8.938Z"/><path fill="#E64218" d="m387.048 195.898-2.787 4.822-2.787 4.822h11.158l-2.787-4.822-2.797-4.822Z"/><path fill="#fff" d="M394.798 214.244c-3.437 0-6.223-2.779-6.223-6.207s2.786-6.207 6.223-6.207c3.438 0 6.224 2.779 6.224 6.207s-2.786 6.207-6.224 6.207Z"/><path fill="#E64218" d="M304.276 276.125a1.91 1.91 0 0 0 3.821 0 1.91 1.91 0 0 0-3.821 0ZM306.187 302.585a1.908 1.908 0 0 1-1.911-1.906c0-1.052.855-1.905 1.911-1.905 1.055 0 1.91.853 1.91 1.905a1.908 1.908 0 0 1-1.91 1.906ZM392.78 298.686c0 1.051.856 1.905 1.91 1.905a1.91 1.91 0 0 0 1.911-1.905 1.91 1.91 0 0 0-3.821 0Z"/><path fill="#373178" d="M288.45 313.711v1.709h118.904v-1.709c0-3.555-3.25-6.433-7.258-6.433H295.698c-3.988 0-7.238 2.878-7.238 6.433h-.01Z"/><path fill="#fff" d="M440.719 388.332h.069a.359.359 0 0 0 .286-.422c-.099-.54-10.104-54.282-5.85-65.517 4.215-11.108 30.361-11.392 30.627-11.402a.36.36 0 0 0 .355-.315.363.363 0 0 0-.266-.392l-6.135-1.591a.36.36 0 0 0-.434.255.374.374 0 0 0 .256.442l3.743.972c-6.786.354-25.172 2.19-28.806 11.776-4.333 11.422 5.397 63.69 5.811 65.91a.366.366 0 0 0 .354.294l-.01-.01Z"/><path fill="#0017BF" d="M482.327 254.589s20.621.481 32.478 23.767c11.857 23.296-.6 35.239-20.72 32.606-20.119-2.632-30.233-8.956-30.233-8.956l2.305-19.751 16.17-27.666Z"/><path fill="#FFB904" d="M494.903 285.377a.348.348 0 0 0 .344-.255.355.355 0 0 0-.246-.442c-8.253-2.357-25.26-2.337-25.427-2.347a.355.355 0 0 0-.355.363c0 .197.158.354.355.354.728 0 17.204.029 25.23 2.318.03 0 .069.009.099.009ZM477.383 257.259c3.28 0 6.411-2.042 6.549-2.131a.35.35 0 0 0 .099-.491.364.364 0 0 0-.503-.098c-.029.02-3.427 2.22-6.637 1.994-.197-.03-.374.137-.384.334a.362.362 0 0 0 .335.383c.177.009.354.019.531.019l.01-.01ZM446.5 265.98c.217 0 .423-.059.611-.187 1.605-1.011 2.077-6.403 2.127-7.012a.363.363 0 0 0-.227-.363.365.365 0 0 0-.413.108c-.385.481-3.733 4.783-3.231 6.6.099.363.345.628.7.766.147.059.285.078.423.078l.01.01Zm1.891-5.971c-.276 2.102-.847 4.675-1.655 5.176a.397.397 0 0 1-.403.039.4.4 0 0 1-.266-.295c-.247-.903 1.083-3.192 2.324-4.93v.01Z"/><path fill="#FFB904" d="M493.74 284.611c3.142 0 6.943-.245 7.485-1.414.118-.255.167-.678-.315-1.188-2.551-2.75-10.597 1.65-10.931 1.836a.371.371 0 0 0-.178.393c.03.157.168.265.335.275a72.39 72.39 0 0 0 3.604.098Zm4.619-2.799c.857 0 1.576.197 2.029.688.088.098.246.285.187.402-.374.786-4.747 1.091-9.05.963 1.9-.913 4.766-2.043 6.834-2.043v-.01Z"/><path fill="#fff" d="M471.09 342.035a.34.34 0 0 0 .246-.098.358.358 0 0 0 .079-.422c-.739-1.473-3.24-6.256-4.757-6.256-.266 0-.61.127-.827.638-1.054 2.534 4.451 5.736 5.082 6.089.059.03.118.049.177.049Zm-4.422-6.059c.63 0 2.186 2.268 3.506 4.704-1.753-1.169-4.225-3.182-3.673-4.508.029-.078.088-.196.157-.196h.01Z"/><path fill="#FFB904" d="M484.355 307.633a.359.359 0 0 0 .355-.295.359.359 0 0 0-.286-.422c-.098-.02-10.38-1.974-18.386-6.649a.363.363 0 0 0-.492.127.363.363 0 0 0 .128.491c8.114 4.744 18.514 6.718 18.622 6.738h.069l-.01.01Z"/><path fill="#5EF939" d="M318.161 268.406h-23.94a3.59 3.59 0 0 1-3.594-3.585v-23.875a3.59 3.59 0 0 1 3.594-3.585h23.94a3.59 3.59 0 0 1 3.595 3.585v23.875a3.59 3.59 0 0 1-3.595 3.585Z"/><path fill="#fff" d="m317.088 255.766-1.103 2.632 1.379 1.307a13.136 13.136 0 0 1-4.067 4.154l-1.537-1.453-2.619 1.109.088 2.082c-.975.226-1.989.354-3.033.354-.945 0-1.871-.098-2.767-.295v-2.239l-2.61-1.129-1.605 1.65a13.183 13.183 0 0 1-4.097-4.076l1.537-1.454-1.103-2.632-2.137-.019a13.145 13.145 0 0 1-.316-2.878 12.8 12.8 0 0 1 .355-3.025l2.098-.02 1.103-2.632-1.468-1.394a13.145 13.145 0 0 1 4.127-4.037l1.506 1.552 2.61-1.129v-2.083a12.936 12.936 0 0 1 2.767-.294c1.044 0 2.058.118 3.033.353l-.078 1.925 2.619 1.11 1.438-1.365a13.233 13.233 0 0 1 4.107 4.115l-1.32 1.247 1.103 2.623 1.851.019c.227.973.355 1.984.355 3.025 0 .982-.109 1.945-.315 2.868l-1.881.02-.02.009Zm-4.54-2.887c0-3.506-2.846-6.344-6.362-6.344-3.515 0-6.361 2.838-6.361 6.344 0 3.506 2.846 6.344 6.361 6.344 3.516 0 6.362-2.838 6.362-6.344Z"/><path fill="#40398D" d="M1 189.415v66.617c0 2.023 1.408 3.673 3.141 3.673h100.055c1.723 0 3.132-1.65 3.132-3.673v-66.617c0-2.023-1.409-3.673-3.132-3.673H4.141c-1.743 0-3.142 1.65-3.142 3.673Z"/><path fill="#2E2C6E" d="M1 189.415v3.899h106.338v-3.899c0-2.023-1.409-3.673-3.132-3.673H4.151c-1.743 0-3.142 1.65-3.142 3.673H1Z"/><path fill="#FFB904" d="M88.085 189.533a1.8 1.8 0 0 0 1.802 1.797 1.8 1.8 0 0 0 1.802-1.797 1.8 1.8 0 0 0-1.802-1.797 1.8 1.8 0 0 0-1.802 1.797Z"/><path fill="#3DF130" d="M93.875 189.533a1.8 1.8 0 0 0 1.802 1.797 1.8 1.8 0 0 0 1.803-1.797 1.8 1.8 0 0 0-1.803-1.797 1.8 1.8 0 0 0-1.802 1.797Z"/><path fill="#5EF939" d="M99.656 189.533a1.8 1.8 0 0 0 1.802 1.797 1.8 1.8 0 0 0 1.803-1.797 1.8 1.8 0 0 0-1.803-1.797 1.8 1.8 0 0 0-1.802 1.797Z"/><path fill="#3DF130" d="M18.615 206.282h7.87v1.998h-7.87v-1.998ZM18.615 242.835h7.87v1.998h-7.87v-1.998ZM23.669 212.231h14.66v1.998H23.67v-1.998Z"/><path fill="#FFB904" d="M40.408 212.231H55.07v1.998H40.41v-1.998Z"/><path fill="#3DF130" d="M23.669 236.389h14.66v1.998H23.67v-1.998Z"/><path fill="#FFB904" d="M40.408 236.389H55.07v1.998H40.41v-1.998Z"/><path fill="#3DF130" d="M32.039 218.466H58.07v1.998H32.04v-1.998ZM32.039 230.889H58.07v1.998H32.04v-1.998ZM46.41 224.262H72.44v1.998H46.41v-1.998Z"/><path fill="#FFB904" d="M60.939 218.466h29.764v1.998H60.94v-1.998ZM60.939 230.889h29.764v1.998H60.94v-1.998ZM18.615 199.894h7.87v1.998h-7.87v-1.998ZM18.615 248.927h7.87v1.998h-7.87v-1.998Z"/><ellipse cx="12.173" cy="201.189" fill="#2E2C6E" rx="1.297" ry="1.295"/><ellipse cx="12.173" cy="207.281" fill="#2E2C6E" rx="1.297" ry="1.295"/><ellipse cx="12.173" cy="213.373" fill="#2E2C6E" rx="1.297" ry="1.295"/><ellipse cx="12.173" cy="219.465" fill="#2E2C6E" rx="1.297" ry="1.295"/><ellipse cx="12.173" cy="225.557" fill="#2E2C6E" rx="1.297" ry="1.295"/><ellipse cx="12.173" cy="231.649" fill="#2E2C6E" rx="1.297" ry="1.295"/><ellipse cx="12.173" cy="237.741" fill="#2E2C6E" rx="1.297" ry="1.295"/><ellipse cx="12.173" cy="243.833" fill="#2E2C6E" rx="1.297" ry="1.295"/><ellipse cx="12.173" cy="249.926" fill="#2E2C6E" rx="1.297" ry="1.295"/><path fill="#5EF939" d="M196.682 148.597h70.748c1.772 0 3.22-2.169 3.22-4.825V91.983c0-2.655-1.448-4.824-3.22-4.824h-70.748c-1.772 0-3.22 2.169-3.22 4.824v51.789c0 2.656 1.448 4.825 3.22 4.825Zm70.748-60.361c1.378 0 2.501 1.682 2.501 3.747v51.789c0 2.066-1.123 3.748-2.501 3.748h-70.748c-1.379 0-2.501-1.682-2.501-3.748V91.983c0-2.065 1.122-3.747 2.501-3.747h70.748Z"/><path fill="#5EF939" d="M193.826 98.492h76.46c.197 0 .364-.237.364-.532 0-.295-.158-.53-.364-.53h-76.46c-.197 0-.364.235-.364.53 0 .296.157.532.364.532ZM201.576 95.171c.118 0 .246-.088.306-.266.098-.25.039-.59-.128-.737l-4.068-3.6c-.167-.148-.394-.074-.492.192-.099.25-.039.59.128.737l4.067 3.6a.308.308 0 0 0 .187.074Z"/><path fill="#5EF939" d="M197.509 95.17c.059 0 .128-.03.187-.074l4.067-3.6c.168-.148.227-.487.128-.738-.098-.25-.325-.34-.492-.192l-4.067 3.6c-.168.148-.227.487-.128.738.069.177.187.266.305.266Z"/><rect width="75.052" height="54.693" fill="#5EF939" opacity=".2" rx="5" transform="matrix(-1 0 0 1 234.38 67.823)"/><path fill="#FFBB87" d="M131.7 390.789v10.499l-20.188-.746v-9.753H131.7ZM181.344 389.609v10.489l-18.692-.737v-9.752h18.692Z"/><path fill="#fff" d="M158.014 417.442c0 1.847.64 3.968 1.94 4.498 1.3.531 11.837 1.64 21.065.855 8.823-.756 10.655-1.395 11.315-2.181.315-.402-.305-2.249-1.014-4.046-.05-.088-.079-.196-.119-.285a75.564 75.564 0 0 0-1.014-2.396 10.231 10.231 0 0 0-.995-1.699c-.955-1.287-2.846-3.958-3.328-5.333-.64-1.837-1.605-5.804-2.255-7.67-.65-1.837-2.246-2.22-2.246-2.22s-18.149-1.218-19.459-.147c-1.29 1.051-1.94 9.792-1.94 11.108v1.316c0 1.227-.867 3.653-1.428 5.666-.148.501-.276.983-.365 1.405-.088.432-.147.795-.147 1.11l-.01.019ZM77.507 421.215c1.212.491 52.736 1.866 53.937 0 .365-.56.621-2.475.788-4.872.424-5.657.424-14.064.424-14.064s.374-2.877.305-4.203c-.059-1.316-24.846-.815-24.846-.815l-15.944 10.292s-4.59 1.356-9.415 2.132c-2.56.402-4.205 3.466-5.022 6.354-.729 2.563-.788 4.95-.217 5.185l-.01-.009Z"/><path fill="#0017BF" d="M143.439 274.151s-22.778 22.687-31.868 58.23c-9.09 35.543-8.479 61.697-8.479 61.697h34.35s.906-21.715 4.677-39.491c3.772-17.777 9.277-30.849 9.277-30.849l3.703 70.34h34.281s-6.293-102.091-12.389-117.334c-4.964-12.404-33.542-2.593-33.542-2.593h-.01Z"/><path fill="#FFB904" d="M167.034 404.882h.05c.059 0 6.086-.835 12.339 0a.356.356 0 0 0 .404-.304.356.356 0 0 0-.305-.403c-6.342-.844-12.468 0-12.527 0a.355.355 0 0 0 .049.707h-.01ZM167.034 409.312h.05c.059 0 6.086-.835 12.339 0 .197.039.374-.108.404-.305a.355.355 0 0 0-.305-.402c-6.342-.845-12.468 0-12.527 0a.354.354 0 0 0-.305.402.359.359 0 0 0 .354.305h-.01Z"/><path fill="#fff" d="M151.396 324.094a.363.363 0 0 0 .364-.364l-.295-24.327a.363.363 0 0 0-.227-.334l-8.961-3.437a.357.357 0 1 0-.256.668l8.735 3.359.295 24.081c0 .197.168.354.365.354h-.02Z"/><path fill="#FFB904" d="M105.367 403.291a.367.367 0 0 0 .364-.354.36.36 0 0 0-.354-.363l-5.387-.079a.361.361 0 0 0-.364.354c0 .196.157.364.354.364l5.387.078ZM101.625 406.179a.368.368 0 0 0 .364-.354.362.362 0 0 0-.355-.364l-5.386-.078a.361.361 0 0 0-.365.354.36.36 0 0 0 .355.363l5.387.079Z"/><path fill="#FFBB87" d="M105.347 242.488a18.73 18.73 0 0 0-3.043-7.346c-2.167-3.084-5.475-7.022-8.46-7.425-4.972-.668-12.546 1.532-12.989 4.989-.443 3.457 1.418 4.233 1.418 4.233s-.413 2.19.483 3.153l.886.962s-.561 2.78 2.669 3.114c3.23.334 5.013-.315 5.564-.766.561-.452.857-.904.857-.904s-1.743 3.31 2.038 4.763c3.782 1.464 10.577-4.763 10.577-4.763v-.01Z"/><path fill="#000" d="M83.682 237.372c1.516 0 3.978-.196 6.233-1.257 2.137-1.001 3.21-2.023 3.103-2.946-.05-.442-.394-1.031-1.734-1.316-.876-.187-1.605-.147-2.245-.108-1.064.059-1.9.108-3.19-.786a.372.372 0 0 0-.503.089.352.352 0 0 0 .089.501c1.496 1.041 2.54.982 3.643.913.62-.039 1.27-.079 2.059.098.699.147 1.132.413 1.162.697.049.423-.63 1.248-2.689 2.22-3.319 1.562-7.258 1.129-7.297 1.12a.343.343 0 0 0-.394.314.355.355 0 0 0 .315.393c.06 0 .61.068 1.458.068h-.01Z"/><path fill="#FFBB87" d="M96.996 231.245s-6.903 2.033-6.233 3.584c.67 1.562 4.786 1.493 4.786 1.493s-3.782 5.834.443 8.839l1.004-13.916Z"/><path fill="#000" d="M95.992 245.525a.363.363 0 0 0 .295-.148.352.352 0 0 0-.089-.5c-3.9-2.76-.502-8.122-.354-8.348a.364.364 0 0 0 .01-.374.354.354 0 0 0-.315-.186h-.148c-1.517 0-3.91-.334-4.313-1.277-.02-.049-.03-.108.02-.216.452-.953 3.909-2.278 5.987-2.887a.368.368 0 0 0 .246-.442.37.37 0 0 0-.443-.246c-.581.167-5.702 1.719-6.43 3.271-.129.275-.139.55-.03.795.59 1.385 3.25 1.66 4.51 1.699-.837 1.572-2.826 6.168.847 8.78.059.049.138.069.207.069v.01Z"/><path fill="#000" d="M83.633 241.408c.206 0 5.16-.039 8.035-1.12 3.093-1.158 2.551-4.007 2.541-4.036a.358.358 0 0 0-.423-.275.366.366 0 0 0-.286.422c.02.089.424 2.279-2.088 3.222-2.747 1.031-7.73 1.07-7.78 1.07a.355.355 0 0 0-.354.363c0 .197.158.354.364.354h-.01ZM90.703 232.118h-2.846V221.06h2.846v11.058Z"/><path fill="#fff" d="M94.288 210.226c0 6.05-1.724 10.961-3.84 10.961-2.118 0-3.842-4.911-3.842-10.961 0-6.05 1.724-10.96 3.841-10.96s3.84 4.91 3.84 10.96ZM129.022 394.433a.355.355 0 0 0 .354-.334c.049-.648 5.17-64.712 21.991-83.735a.355.355 0 0 0-.532-.472c-16.988 19.201-22.119 83.51-22.168 84.158a.362.362 0 0 0 .335.383h.029-.009ZM175.789 292.145c.247 0 .493-.01.749-.039a.363.363 0 0 0 .325-.393.363.363 0 0 0-.394-.324c-4.599.452-7.691-3.987-7.721-4.037a.362.362 0 0 0-.601.403c.128.187 3.034 4.38 7.642 4.38v.01Z"/><path fill="#fff" d="M183.333 394.432c.227-.02.375-.187.355-.383l-8.125-102.297c-.019-.197-.167-.344-.384-.324a.353.353 0 0 0-.325.383l8.125 102.297a.361.361 0 0 0 .354.334v-.01Z"/><path fill="#FFB904" d="m104.983 232.746-13.886 16.883s9.877 12.139 20.986 16.136c11.108 3.997 23.448 0 23.448 0v17.914h43.813s-1.95-49.273-3.397-49.754c-10.35-3.467-24.561-4.793-31.169-3.261-2.708.629-19.134 9.183-21.596 9.478-2.472.294-18.209-7.405-18.209-7.405l.01.009Z"/><path fill="#0017BF" d="M163.44 218.506s-2.688-.845-3.86-2.495c-1.182-1.65-1.143-5.529-1.143-5.529s-5.101 2.249-6.381 1.885c-1.28-.363-3.457-6.324-1.586-8.721 1.872-2.396 5.141.923 5.141.923s.936-3.535 4.678-2.455c4.382 1.257 5.249 5.844 5.249 5.844s.61-4.872 3.565-2.524c2.954 2.347 1.487 7.876 1.487 7.876s2.413 1.228 1.763 3.526c-.641 2.298-4.127 4.321-4.127 4.321l-4.796-2.642.01-.009Z"/><path fill="#FFBB87" d="m163.43 225.547.178 7.415s-1.34 2.161-5.83 2.593c-3.349.324-4.54-.383-4.54-.383l.374-3.762.374-3.673 8.085-1.876 1.359-.314Z"/><path fill="#000" d="M162.071 225.861c-.009.206-.088.442-.206.717-1.635 3.732-6.323 4.616-8.253 4.822l.374-3.673 8.085-1.876v.01Z"/><path fill="#FFBB87" d="M151.859 210.864s-3.811 9.369-2.098 14.506c1.714 5.136 6.589 4.154 9.484 3.054 2.895-1.1 4.185-2.877 4.185-2.877s2.777.805 4.511-1.709c1.733-2.514.492-5.304-1.103-5.893-1.596-.599-3.408.56-3.408.56l1.349-2.73s-6.686-13.426-12.92-4.901v-.01Z"/><path fill="#000" d="M163.814 222.562c.069 0 .148-.02.207-.069l3.407-2.465a.36.36 0 0 0 .079-.501.362.362 0 0 0-.502-.078l-3.408 2.465a.36.36 0 0 0-.078.501.346.346 0 0 0 .285.147h.01ZM158.969 215.509a.37.37 0 0 0 .226-.078.349.349 0 0 0 .05-.501c-1.34-1.601-2.955-1.041-3.024-1.022a.36.36 0 0 0-.216.462.35.35 0 0 0 .453.216c.049-.02 1.211-.403 2.225.805a.35.35 0 0 0 .276.128l.01-.01ZM150.924 214.508a.396.396 0 0 0 .226-.078c.768-.639 1.605-.207 1.645-.187.177.088.394.029.482-.147a.355.355 0 0 0-.147-.482c-.05-.029-1.291-.687-2.443.266a.348.348 0 0 0-.049.5.348.348 0 0 0 .276.128h.01ZM151.111 218.083a.357.357 0 0 0 .344-.265l.444-1.709a.354.354 0 0 0-.256-.432.359.359 0 0 0-.434.255l-.443 1.709a.354.354 0 0 0 .256.432c.03 0 .059.01.089.01ZM156.655 218.426a.358.358 0 0 0 .345-.265l.443-1.709a.355.355 0 0 0-.689-.177l-.443 1.709a.352.352 0 0 0 .256.432c.029 0 .059.01.088.01ZM155.01 225.026c.089 0 .187 0 .286-.03.719-.157 1.29-.884 1.703-2.16a.358.358 0 0 0-.118-.393.342.342 0 0 0-.403-.03l-2.62 1.493a.363.363 0 0 0-.177.255.354.354 0 0 0 .088.295c.02.03.532.57 1.231.57h.01Zm.906-1.473c-.236.422-.502.677-.768.736a.788.788 0 0 1-.433-.049l1.211-.687h-.01Z"/><path fill="#0017BF" d="M163.44 218.506s-2.895-.688-3.821-3.143c-.925-2.455-.63-4.586-.63-4.586s-1.576 1.522-4.126 1.09c-2.541-.432-3.083-3.104-3.083-3.104l2.521-2.593s9.514 2.642 9.77 2.358c.256-.285 3.368 6.177 3.368 6.177l-4.009 3.811.01-.01Z"/><path fill="#000" d="M166.956 222.699a.363.363 0 0 0 .305-.167.351.351 0 0 0-.118-.491l-1.792-1.11a.355.355 0 0 0-.493.118.352.352 0 0 0 .119.491l1.792 1.11a.337.337 0 0 0 .187.049Z"/><path fill="#E64218" d="M158.693 220.577a2.048 2.048 0 0 0 2.049-1.915l.108-1.709a.968.968 0 0 0-.246-.716 1 1 0 0 0-.68-.334l-3.781-.236c-.591-.03-1.015.383-1.044.923l-.109 1.709a2.062 2.062 0 0 0 1.921 2.18l1.654.108h.128v-.01Zm-2.609-4.193 3.801.236a.28.28 0 0 1 .187.088.268.268 0 0 1 .069.196l-.108 1.709c-.02.354-.178.678-.453.914a1.33 1.33 0 0 1-.966.334l-1.654-.109a1.332 1.332 0 0 1-1.251-1.414l.109-1.709c0-.137.128-.245.266-.245Z"/><path fill="#E64218" d="M160.565 218.271h.078c.03 0 2.984-.658 5.604-.099a.356.356 0 0 0 .423-.275.35.35 0 0 0-.275-.422c-2.768-.589-5.781.069-5.909.098a.363.363 0 0 0-.276.432.358.358 0 0 0 .355.275v-.009Z"/><path fill="#000" d="M153.908 221.639s.078 0 .118-.019a.359.359 0 0 0 .226-.452c-.857-2.573.187-3.595.237-3.634a.348.348 0 0 0 .019-.501.358.358 0 0 0-.502-.029c-.059.049-1.457 1.345-.433 4.4a.36.36 0 0 0 .344.245l-.009-.01Z"/><path fill="#E64218" d="M151.475 220.205c.453 0 .876-.157 1.221-.462.374-.324.591-.776.62-1.267l.128-1.984a.887.887 0 0 0-.226-.658.866.866 0 0 0-.631-.304l-2.796-.177a.906.906 0 0 0-.965.845l-.128 1.984a1.85 1.85 0 0 0 1.733 1.964l.916.059h.128Zm-1.734-4.145 2.807.177c.049 0 .099.029.138.069a.236.236 0 0 1 .049.137l-.128 1.984c-.02.305-.157.58-.384.776a1.084 1.084 0 0 1-.817.275l-.916-.059a1.139 1.139 0 0 1-1.064-1.198l.128-1.984c0-.098.089-.177.197-.177h-.01Z"/><path fill="#0017BF" d="M154.459 250.768v12.807c0 .678-.562 1.237-1.241 1.237h-12.842a1.234 1.234 0 0 1-1.241-1.237v-12.807a1.24 1.24 0 0 1 1.241-1.237h12.842c.679 0 1.241.559 1.241 1.237Z"/><path fill="#fff" d="M153.336 250.768v12.807c0 .678-.561 1.237-1.241 1.237h-12.841a1.234 1.234 0 0 1-1.241-1.237v-12.807a1.24 1.24 0 0 1 1.241-1.237h12.841c.68 0 1.241.559 1.241 1.237Z"/><path fill="#DC3C1E" d="M148.924 255.384a2.125 2.125 0 0 1-2.127-2.121c0-1.172.953-2.122 2.127-2.122 1.175 0 2.128.95 2.128 2.122a2.125 2.125 0 0 1-2.128 2.121Z"/><path fill="#E64218" d="M153.336 259.578v3.997c0 .678-.561 1.238-1.24 1.238h-12.842c-.699 0-1.241-.56-1.241-1.238v-3.928c1.989-1.012 5.456-2.534 7.662-2.161 3.259.56 3.259 2.976 4.264 3.162.571.108 2.166-.52 3.407-1.07h-.01ZM155.591 218.387a.365.365 0 0 0 .306-.167.361.361 0 0 0-.119-.491c-.078-.049-1.89-1.139-2.993-.275a.357.357 0 0 0-.06.501.351.351 0 0 0 .503.059c.581-.462 1.762.079 2.166.324a.317.317 0 0 0 .187.049h.01Z"/><path fill="#FFBB87" d="M163.007 262.583s-5.052-2.603-8.371-2.976c-3.319-.373-4.884 2.976-4.884 2.976s-2.965.933-6.283 1.296c-3.319.373-5.939.747-5.939 1.856 0 1.11 2.62 1.857 2.62 1.857s-4.186.559-2.62 2.229c1.566 1.67 4.363 2.229 4.363 2.229s-3.496.933 1.221 2.603c4.717 1.67 15.067 2.043 20.277-1.856 5.209-3.899-.384-10.224-.384-10.224v.01Z"/><path fill="#FFB904" d="M175.947 233.924s29.623 13.622 26.225 30.21c-3.397 16.588-42.582 14.211-42.582 14.211v-21.174l14.112-.982 2.235-22.265h.01Z"/><path fill="#0017BF" d="M159.599 257.534h.079c.089-.019 8.568-1.915 16.82-1.689a.353.353 0 0 0 .365-.344.353.353 0 0 0-.345-.363c-8.341-.216-16.909 1.689-16.998 1.709a.348.348 0 0 0-.265.432.358.358 0 0 0 .354.275l-.01-.02Z"/><path fill="#0017BF" d="M179.827 256.238c1.526 0 3.013-.187 3.762-.815.354-.295.541-.688.541-1.13 0-.442-.177-.795-.531-1.011-1.743-1.13-7.849 1.541-8.538 1.846a.355.355 0 0 0-.207.373.345.345 0 0 0 .295.305c.394.068 2.57.432 4.678.432Zm2.541-2.544c.364 0 .66.059.847.177.098.059.197.167.197.412a.698.698 0 0 1-.286.58c-1.054.884-4.441.687-6.598.412 1.969-.785 4.441-1.581 5.84-1.581ZM156.97 236.026c2.226 0 5.052-.569 7.297-2.877a.367.367 0 0 0 0-.511.368.368 0 0 0-.512 0c-4.077 4.184-10.222 2.2-10.281 2.18a.36.36 0 0 0-.453.226.359.359 0 0 0 .226.452c.03.01 1.606.52 3.733.52l-.01.01ZM124.393 246.29a.7.7 0 0 0 .571-.275c.729-.962-.925-4.841-1.447-6.01a.364.364 0 0 0-.394-.206.355.355 0 0 0-.296.324c-.108 1.385-.325 5.912 1.438 6.158h.128v.009Zm-.906-4.488c.729 1.896 1.133 3.506.906 3.781-.63-.098-.886-1.934-.906-3.781Z"/><path fill="#000" d="M149.752 262.947h.078l3.999-.893a.363.363 0 0 0-.158-.708l-3.998.894a.362.362 0 0 0 .079.717v-.01ZM143.026 268.18a26.59 26.59 0 0 0 6.391-.805.365.365 0 0 0 .266-.432.359.359 0 0 0-.434-.265c-5.229 1.296-8.991.579-9.03.579a.356.356 0 0 0-.424.285.359.359 0 0 0 .286.422c.079.02 1.162.226 2.954.226l-.009-.01ZM145.31 272.768c1.517 0 3.24-.216 4.619-.992a.357.357 0 0 0 .138-.491.359.359 0 0 0-.493-.138c-2.836 1.591-7.573.57-7.612.56a.368.368 0 0 0-.433.275.365.365 0 0 0 .275.432c.118.03 1.635.354 3.496.354h.01Z"/><path fill="#5EF939" d="M88.753 221.54c2.354 0 4.205-4.969 4.205-11.314 0-6.344-1.841-11.314-4.205-11.314-2.363 0-4.205 4.97-4.205 11.314 0 6.345 1.842 11.314 4.205 11.314Zm0-21.921c1.684 0 3.487 4.263 3.487 10.597 0 6.335-1.803 10.597-3.487 10.597-1.684 0-3.486-4.262-3.486-10.597 0-6.334 1.802-10.597 3.486-10.597Z"/><path fill="#0017BF" d="M89.975 218.24a.352.352 0 0 0 .246-.108c.098-.098.995-1.08 1.369-4.508a.356.356 0 1 0-.709-.078c-.345 3.182-1.152 4.075-1.162 4.085a.355.355 0 0 0 .256.599v.01Z"/><ellipse cx="295.53" cy="321.91" fill="#1D166C" rx="1.297" ry="1.295"/><ellipse cx="295.53" cy="328.002" fill="#1D166C" rx="1.297" ry="1.295"/><ellipse cx="295.53" cy="334.094" fill="#1D166C" rx="1.297" ry="1.295"/><ellipse cx="295.53" cy="340.186" fill="#1D166C" rx="1.297" ry="1.295"/><ellipse cx="295.53" cy="346.279" fill="#1D166C" rx="1.297" ry="1.295"/><ellipse cx="295.53" cy="352.371" fill="#1D166C" rx="1.297" ry="1.295"/><ellipse cx="295.53" cy="358.463" fill="#1D166C" rx="1.297" ry="1.295"/><ellipse cx="295.53" cy="364.555" fill="#1D166C" rx="1.297" ry="1.295"/><ellipse cx="295.53" cy="370.647" fill="#1D166C" rx="1.297" ry="1.295"/><path fill="#40398D" d="M918.626 221.861v61.558c0 1.868 1.573 3.397 3.512 3.397H1033.9c1.93 0 3.5-1.529 3.5-3.397v-61.558c0-1.869-1.57-3.397-3.5-3.397H922.138c-1.939 0-3.512 1.528-3.512 3.397Z"/><path fill="#fff" d="M918.626 222.52v4.296H1037.4v-4.296c0-2.238-1.57-4.056-3.5-4.056H922.138c-1.939 0-3.512 1.818-3.512 4.056Z"/><path fill="#FFB904" d="M1017.92 224.627c-1.12 0-2.02-.89-2.02-1.988 0-1.098.9-1.988 2.02-1.988 1.11 0 2.02.89 2.02 1.988 0 1.098-.91 1.988-2.02 1.988Z"/><path fill="#E64218" d="M1024.38 224.627c-1.12 0-2.02-.89-2.02-1.988 0-1.098.9-1.988 2.02-1.988s2.02.89 2.02 1.988c0 1.098-.9 1.988-2.02 1.988Z"/><path fill="#0017BF" d="M1030.83 224.627c-1.11 0-2.02-.89-2.02-1.988 0-1.098.91-1.988 2.02-1.988 1.12 0 2.02.89 2.02 1.988 0 1.098-.9 1.988-2.02 1.988Z"/><path fill="#FFB904" d="M933.419 252.34h21.819a1.498 1.498 0 1 1 0 2.997h-21.819a1.498 1.498 0 1 1 0-2.997Z"/><path fill="#3DF130" d="M960.845 252.34h21.819a1.499 1.499 0 0 1 0 2.997h-21.819a1.498 1.498 0 1 1 0-2.997ZM933.419 242.3h10.583a1.498 1.498 0 0 1 0 2.997h-10.583a1.499 1.499 0 1 1 0-2.997Z"/><path fill="#E64218" d="M948.96 242.3h28.355a1.498 1.498 0 0 1 0 2.997H948.96a1.499 1.499 0 0 1 0-2.997Z"/><path fill="#3DF130" d="M933.419 262.071h55.405a1.499 1.499 0 1 1 0 2.997h-55.405a1.499 1.499 0 1 1 0-2.997Z"/><path fill="#2E2C6E" d="M996.067 241.511h26.833v26.414h-26.833v-26.414Z"/><path fill="#3DF130" d="m1000.53 255.073 5.66 2.625v-1.465l-3.99-1.717v-.07l3.99-1.717v-1.465l-5.66 2.625v1.184Zm10.86-6.106h-1.3l-2.74 10.16h1.31l2.73-10.16Zm6.83 6.106v-1.184l-5.66-2.625v1.465l3.99 1.717v.07l-3.99 1.717v1.465l5.66-2.625Z"/><path fill="#0017BF" d="M1221.34 132.405h52.72c1.38 0 2.5-1.582 2.5-3.507V92.7c0-1.94-1.13-3.508-2.5-3.508h-52.72c-1.38 0-2.5 1.583-2.5 3.508v36.198c0 1.939 1.13 3.507 2.5 3.507Zm52.72-42.186c.98 0 1.76 1.112 1.76 2.466v36.199c0 1.368-.8 2.466-1.76 2.466h-52.72c-.97 0-1.75-1.112-1.75-2.466V92.7c0-1.37.79-2.467 1.75-2.467h52.72v-.014Z"/><path fill="#0017BF" d="M1219.21 97.39h56.98c.2 0 .38-.229.38-.514 0-.285-.17-.513-.38-.513h-56.98c-.2 0-.38.228-.38.513 0 .285.17.513.38.513ZM1270.42 95.067a.35.35 0 0 0 .19-.072l3.03-2.523c.18-.143.24-.47.14-.713-.1-.243-.34-.328-.51-.186l-3.03 2.524c-.18.143-.24.47-.14.713.07.17.2.257.32.257Z"/><path fill="#0017BF" d="M1273.45 95.067c.12 0 .25-.086.32-.257.1-.243.04-.57-.14-.713l-3.03-2.523c-.17-.143-.41-.058-.51.185-.1.242-.04.57.13.713l3.04 2.523c.06.043.12.072.19.072Z"/><path fill="#2E2C6E" d="M1106.97 79.13v62.617c0 1.908 1.57 3.456 3.52 3.456h112.07c1.94 0 3.51-1.548 3.51-3.456V79.129c0-1.908-1.57-3.457-3.51-3.457h-112.07c-1.95 0-3.52 1.549-3.52 3.457Z"/><path fill="#fff" d="M1106.97 79.13v3.666h119.1v-3.667c0-1.908-1.57-3.457-3.51-3.457h-112.07c-1.95 0-3.52 1.549-3.52 3.457Z"/><path fill="#E64218" d="M1111.73 79.23c0 1.008.83 1.828 1.86 1.828 1.02 0 1.86-.82 1.86-1.829s-.84-1.828-1.86-1.828c-1.03 0-1.86.82-1.86 1.828Z"/><path fill="#3DF130" d="M1117.69 79.23a1.84 1.84 0 0 0 1.85 1.828c1.03 0 1.86-.82 1.86-1.829s-.83-1.828-1.86-1.828c-1.02 0-1.85.82-1.85 1.828Z"/><path fill="#0017BF" d="M1123.65 79.23c0 1.008.84 1.828 1.86 1.828 1.03 0 1.86-.82 1.86-1.829s-.83-1.828-1.86-1.828c-1.02 0-1.86.82-1.86 1.828Z"/><path fill="#5EF939" d="M1146.86 97.156h25.1c.56 0 1 .447 1 .999s-.44.999-1 .999h-25.1c-.55 0-1-.447-1-.999s.45-.999 1-.999Z"/><path fill="#FFB904" d="M1121.54 107.441h44.42c.56 0 1 .447 1 .999s-.44.999-1 .999h-44.42a1 1 0 0 1-1-.999 1 1 0 0 1 1-.999Z"/><path fill="#5EF939" d="M1171.93 107.441h18.17a1 1 0 0 1 1 .999 1 1 0 0 1-1 .999h-18.17a1 1 0 0 1-1-.999 1 1 0 0 1 1-.999ZM1121.54 121.675h44.42c.56 0 1 .447 1 .999s-.44.999-1 .999h-44.42a1 1 0 0 1-1-.999 1 1 0 0 1 1-.999ZM1171.93 121.675h18.17a1 1 0 0 1 1 .999 1 1 0 0 1-1 .999h-18.17a1 1 0 0 1-1-.999 1 1 0 0 1 1-.999Z"/><path fill="#FFB904" d="M1176.05 116.556h-30.38a1 1 0 0 1-1-.999 1 1 0 0 1 1-.999h30.38a1 1 0 0 1 1 .999 1 1 0 0 1-1 .999Z"/><path fill="#5EF939" d="M1139.7 116.556h-18.16a1 1 0 0 1-1-.999 1 1 0 0 1 1-.999h18.16c.56 0 1 .447 1 .999s-.44.999-1 .999Z"/><path fill="#FFB904" d="M1176.05 130.79h-30.38a1 1 0 0 1-1-.999 1 1 0 0 1 1-.999h30.38a1 1 0 0 1 1 .999 1 1 0 0 1-1 .999Z"/><path fill="#5EF939" d="M1139.7 130.79h-18.16a1 1 0 0 1-1-.999 1 1 0 0 1 1-.999h18.16c.56 0 1 .447 1 .999s-.44.999-1 .999Z"/><path fill="#3DF130" d="m1121.25 98.44 4.84 2.14v-1.377l-3.29-1.333v-.059l3.29-1.333v-1.377l-4.84 2.148v1.192Zm11.31-5.175h-1.25l-2.28 8.467h1.24l2.29-8.467Zm7.78 5.176v-1.192l-4.84-2.148v1.377l3.29 1.333v.059l-3.29 1.333v1.377l4.84-2.14Z"/><path fill="#FFB904" d="M1177.93 97.156h28.4c.55 0 1 .447 1 .999s-.45.999-1 .999h-28.4c-.55 0-1-.447-1-.999s.45-.999 1-.999Z"/><path fill="#FFBB87" d="M1141.03 386.288v16.903h21.83v-22.187l-21.83 5.284ZM1084.22 379.973l-4.57 16.294 21.05 5.724 6.01-21.388-22.49-.63Z"/><path fill="#0017BF" d="M1147 205.238s5.6-9.271 14.54-4.755c8.94 4.515 7.97 13.846 14.76 15.994 6.79 2.138 12.35 7.902 8.4 15.335-3.3 6.213-12.24 4.245-12.24 4.245s-5.56 9.321-15.38 6.134c-9.83-3.187-14.31-8.212-13.28-16.224 1.03-8.012 3.21-20.719 3.21-20.719l-.01-.01Z"/><path fill="#0017BF" d="M1131.03 218.706s-5.31-7.633 5.44-13.657c10.74-6.014 18.58 2.238 18.67 6.663.09 4.436-2.48 6.484-2.48 6.484s1.01 9.61-8.37 8.941c-9.38-.659-13.26-8.451-13.26-8.451v.02Z"/><path fill="#FFBB87" d="m1145.19 225.617.2 7.763s-1.36 2.267-5.97 2.747c-3.43.36-4.66-.38-4.66-.38l.38-3.946.37-3.846 8.28-2.008 1.39-.34.01.01Z"/><path fill="#000" d="M1145.16 225.248c-.01.21-.09.47-.21.76-1.66 3.916-7.83 5.584-9.81 5.804l.37-3.846 9.65-2.718Z"/><path fill="#FFBB87" d="M1133.31 210.312s-3.89 9.83-2.12 15.195c1.76 5.365 6.76 4.316 9.72 3.137 2.96-1.169 4.28-3.037 4.28-3.037s2.84.829 4.62-1.818c1.78-2.648.5-5.555-1.14-6.164-1.63-.609-3.49.599-3.49.599l1.38-2.867s-6.87-14.016-13.25-5.055v.01Z"/><path fill="#000" d="M1132.69 223h.06c.2-.03.34-.22.31-.42-.5-2.967.66-4.545.68-4.565.12-.16.09-.39-.07-.51a.376.376 0 0 0-.52.07c-.05.07-1.37 1.818-.81 5.115.03.18.18.31.36.31h-.01ZM1145.4 222.221c.06 0 .12-.01.17-.04l3.83-2.008a.35.35 0 0 0 .16-.489c-.09-.18-.33-.24-.5-.15l-3.84 2.008a.354.354 0 0 0-.15.489c.07.12.19.19.33.19Z"/><path fill="#000" d="M1148.98 222.9c.1 0 .2-.04.28-.12a.353.353 0 0 0-.04-.509l-1.85-1.589a.367.367 0 0 0-.52.04c-.13.15-.12.38.04.51l1.84 1.588c.08.06.17.09.25.09v-.01Z"/><path fill="#0017BF" d="M1131.77 215.189s.18-2.398 2.04-4.446c1.98-2.178 3.65-1.818 3.65-1.818s-2.92 6.294 1.99 8.511c3.49 1.579 5.73.81 5.73.81l5.01-4.886-9.95-7.952s-9.07-1.248-8.46 9.791l-.01-.01Z"/><path fill="#000" d="M1135.16 224.998s.08 0 .12-.02c.05-.02 1.24-.43 2.01-1.708.1-.17.04-.4-.13-.5a.38.38 0 0 0-.51.13c-.63 1.049-1.6 1.389-1.62 1.389a.368.368 0 0 0-.23.459c.05.15.19.25.35.25h.01ZM1136.16 218.894c.17 0 .33-.11.37-.28l.39-1.728c.02-.09 0-.19-.05-.28l-.56-.879a.36.36 0 0 0-.5-.11c-.18.11-.23.33-.12.5l.48.749-.36 1.578c-.04.2.08.39.27.44h.08v.01ZM1131.26 218.855c.17 0 .32-.11.37-.28l.39-1.728c.02-.09 0-.19-.05-.28l-.56-.879a.369.369 0 0 0-.51-.11c-.17.11-.22.33-.11.5l.48.749-.37 1.578c-.04.2.09.39.28.44h.08v.01ZM1132.09 214.37h.08l1.09-.23a.363.363 0 0 0-.15-.71l-1.09.23c-.2.04-.32.24-.28.43.04.17.19.29.36.29l-.01-.01Z"/><path fill="#3DF130" d="m1093.56 230.093-17.74 10.709-19.89-26.194 17.75-10.719 19.88 26.204Z"/><path fill="#fff" d="m1095.85 228.844-17.74 10.709-19.89-26.194 17.75-10.719 19.88 26.204Z"/><path fill="#0017BF" d="M1063.21 215.487c.07 0 .13-.02.19-.05l13.02-7.863a.36.36 0 0 0 .12-.499.369.369 0 0 0-.51-.12l-13.02 7.862c-.17.11-.23.33-.12.5.07.11.19.17.32.17ZM1065.32 218.195c.07 0 .13-.02.19-.05l13.02-7.862c.17-.11.23-.33.12-.5a.369.369 0 0 0-.51-.12l-13.02 7.862c-.17.11-.23.33-.12.5.07.11.2.17.32.17ZM1067.38 220.932c.07 0 .13-.02.19-.05l13.02-7.862c.17-.11.23-.33.12-.499a.369.369 0 0 0-.51-.12l-13.02 7.862c-.17.11-.23.33-.12.499.07.11.2.17.32.17ZM1069.45 223.66c.07 0 .13-.02.19-.05l13.02-7.862c.17-.11.23-.33.12-.5a.36.36 0 0 0-.5-.119l-13.02 7.862c-.18.11-.24.329-.13.499.07.11.2.17.32.17Z"/><path fill="#FFBB87" d="m1114.79 216.488 19.24 25.224-18.47 10.62-11.95-31.169 11.18-4.675Z"/><path fill="#000" d="M1137.69 214.808c.16 0 .3-.09.35-.24a.352.352 0 0 0-.22-.459l-2.29-.78c-.19-.06-.4.03-.46.22-.08.19.03.4.22.46l2.28.779s.08.02.12.02Z"/><path fill="#FFBB87" d="M1086.94 241.502s-.41-7.193-2.61-10.04c-2.21-2.847-6.07-5.065-6.9-3.417-.82 1.649 1.8 4.036 1.38 5.015-.41.979-3.16.49-7.3-.969-4.14-1.448-6.89-6.164-6.89-6.164s-.82 1.869-.55 3.567c.27 1.698.82 2.597.82 2.597s-.88-1.958-.88 1.619c0 1.798 1.57 3.057 1.57 3.057s-1.24 1.478 1.38 4.735c2.62 3.257 9.93 6.244 9.93 6.244s8.13 19.54 21.5 24.695c13.38 5.155 23.85-1.768 23.85-1.768l-4.13-21.439s-14.34 5.025-31.16-7.732h-.01Z"/><path fill="#000" d="M1071.42 236.178c.17 0 .32-.12.36-.29a.357.357 0 0 0-.28-.429c-3.06-.63-6.62-4.246-6.65-4.286a.387.387 0 0 0-.53-.01c-.15.14-.15.37 0 .519.16.16 3.76 3.817 7.04 4.496h.08-.02ZM1070.8 239.723c.17 0 .33-.13.36-.299.03-.2-.1-.39-.3-.42-3.47-.579-4.97-2.438-4.99-2.458a.37.37 0 0 0-.52-.06c-.16.12-.19.35-.07.51.07.09 1.68 2.108 5.45 2.727H1070.8Z"/><path fill="#FFB904" d="M1129.69 281.123s-17.77 23.577-32.38 49.761c-14.6 26.184-22.71 58.931-22.71 58.931l37.39 2.278 27.19-64.696-8 63.837 36.16-1.249s7.82-59.261 3.65-87.213c-4.17-27.953-9.06-33.837-9.06-33.837l-32.23 12.188h-.01Z"/><path fill="#fff" d="M1151.21 219.464c.11 0 .21-.05.3-.14 6.3-7.812-2.19-14.795-2.27-14.865a.376.376 0 0 0-.52.05c-.13.159-.1.389.06.509.33.27 8 6.593 2.15 13.846a.364.364 0 0 0 .29.59l-.01.01Z"/><path fill="#3DF130" d="M1109.2 249.504s14.23-15.674 31.41-16.693c17.18-1.019 22.96 7.123 23.79 10.989.83 3.866 2.28 31.548 1.24 33.387-1.03 1.828-8.09 5.085-19.54 5.904-11.47.819-17.47-.61-18.29-1.219-.82-.609-1.86-9.161-1.86-9.161l-9.72 2.448-7.03-25.645v-.01Z"/><path fill="#0017BF" d="M1145.19 225.617s-4.84 10.719.2 14.965c5.03 4.246 12.52 1.499 12.52 1.499s2.53 1.588 7.36-.02c4.83-1.609 7.19-6.014 7.19-6.014l-27.27-10.43Z"/><path fill="#FFBB87" d="M1114.79 216.487s-4.83-7.463-7.26-9.101c-2.42-1.639-15.96-6.883-17.3-5.605-1.34 1.279 6.58 6.624 6.58 6.624s-1.36.289-1.7 1.368c-.33 1.079.27 1.958.27 1.958s-1.69-.06-2.17 1.069c-.47 1.129.31 2.368.31 2.368s3.1 5.594 4.88 5.704c1.77.12 1.53-2.977 1.53-2.977s.64 2.817 2.18 4.376c1.55 1.548 4.71 1.718 7.98.02 3.27-1.698 4.7-5.814 4.7-5.814v.01Z"/><path fill="#000" d="M1111.01 221.373c.19 0 .35-.14.37-.33.02-.2-.12-.38-.34-.4-3.72-.389-4.63-5.115-4.64-5.165a.343.343 0 0 0-.17-.239.395.395 0 0 0-.28-.05c-1.77.379-3.89.519-4.23.08-.07-.09 0-.26.06-.39.97-1.908 5.47-3.856 5.51-3.876.18-.08.27-.3.19-.48a.372.372 0 0 0-.48-.189c-.2.079-4.79 2.067-5.88 4.215-.29.57-.15.949.02 1.169.71.899 3.37.5 4.61.26.3 1.219 1.54 5.015 5.21 5.395h.05Z"/><path fill="#000" d="M1101.88 214.459c.15 0 .31-.1.36-.25.06-.19-.04-.4-.24-.46-2.13-.689-4.84-5.474-4.87-5.524a.372.372 0 0 0-.51-.14c-.18.1-.24.32-.14.5.12.209 2.88 5.084 5.29 5.864.04.01.08.02.11.02v-.01ZM1101 218.545h.07c.72-.04 1.27-.29 1.62-.75.62-.809.38-1.938.37-1.988-.04-.2-.25-.319-.44-.279a.362.362 0 0 0-.28.429s.18.859-.24 1.389c-.21.279-.57.429-1.06.459-1.37.06-4-3.796-5.32-6.254a.362.362 0 0 0-.5-.149.352.352 0 0 0-.15.489c.37.689 3.64 6.644 5.95 6.644l-.02.01Z"/><path fill="#fff" d="M1125.95 273.081c.14 0 .29-.09.35-.22.47-1.109 2.78-6.713.96-7.912-.37-.25-.68-.15-.83-.06-1.21.689-.95 6.184-.84 7.852.01.17.14.31.3.34h.06Zm.84-7.563c.82.54.27 3.127-.55 5.435-.07-2.857.15-5.235.55-5.435ZM1141.37 287.756c7.67 0 17.97-1.269 24.16-7.213.14-.14.15-.37 0-.52a.377.377 0 0 0-.53 0c-10.32 9.9-33.27 6.344-33.5 6.304-.2-.03-.39.1-.42.3-.03.2.1.389.3.419.4.06 4.53.71 9.98.71h.01ZM1139 327.767c.12 0 .26-.07.33-.18.05-.09 5.25-8.682 18.75-13.737.19-.07.29-.279.21-.469a.354.354 0 0 0-.47-.21c-13.76 5.155-19.08 13.966-19.13 14.046-.1.17-.04.4.13.5.06.03.12.05.18.05ZM1170.54 307.965c.35 0 .69-.01 1.05-.03.2-.01.35-.189.34-.389-.01-.2-.17-.34-.39-.34-3.2.21-5.77-.569-7.64-2.328-3.03-2.827-3.35-7.412-3.39-8.501l8.88-3.477c.19-.07.28-.289.2-.469-.08-.18-.3-.28-.48-.2l-9.12 3.566c-.14.05-.23.19-.23.33 0 .24-.07 5.844 3.61 9.281 1.81 1.698 4.22 2.557 7.15 2.557h.02ZM1132.64 311.303c7.81 0 10.48-12.288 10.5-12.418a.359.359 0 0 0-.25-.419l-13.8-4.216c-.18-.05-.39.04-.46.21-.16.389-3.82 9.51-1.15 14.176.82 1.418 2.13 2.277 3.9 2.557.43.07.84.1 1.25.1l.01.01Zm9.7-12.238c-.5 1.998-3.49 12.598-10.84 11.419-1.54-.25-2.68-.979-3.37-2.198-2.24-3.906.45-11.588 1.07-13.237l13.14 4.006v.01Z"/><path fill="#E64218" d="M1101.28 417.557s5.3-24.456 1.3-24.536c-4.01-.08-10.47 2.468-10.47 2.468s-8.24-6.014-12.57-4.026c-4.33 1.998-7.46 7.353-7.46 7.353l-24.03 10.669s-3.29 3.746-2.86 5.934c.35 1.708 33.72 5.834 48.37 7.563 3.77.449 7.19-1.959 7.74-5.425h-.02Z"/><path fill="#0017BF" d="M1069.63 406.319c.1 0 .21-.04.28-.13.11-.11.13-.27.06-.4l-1.55-3.177 9.06 2.308c.17.04.33-.03.42-.17a.377.377 0 0 0-.05-.439l-5.52-5.764a.387.387 0 0 0-.53-.02.373.373 0 0 0-.02.519l4.64 4.845-8.6-2.188a.367.367 0 0 0-.37.12c-.09.11-.11.26-.05.39l1.52 3.117-6.66-2.088c-.19-.06-.4.05-.46.24-.07.189.04.399.24.459l7.47 2.338s.07.02.11.02l.01.02Z"/><path fill="#E64218" d="M1138.72 395.848s-14.26 22.927-11.8 25.754c2.45 2.827 19.83 3.227 27.76 1.978 7.93-1.249 10.97-2.188 11.57-4.096.6-1.908-3.17-25.464-3.17-25.464s-3.49-3.876-8.28-2.877c-4.79.999-12.29 4.645-12.29 4.645s-1.86-3.147-3.8.05l.01.01Z"/><path fill="#0017BF" d="M1139.27 398.046c.06 0 .13-.02.19-.049l3.25-1.889a.37.37 0 0 0 .13-.499.383.383 0 0 0-.51-.13l-3.25 1.888c-.17.1-.23.33-.13.5.07.12.19.179.32.179Z"/><path fill="#fff" d="M1049.71 296.617h36.94c1.59 0 2.89-1.279 2.89-2.847v-16.554c0-1.568-1.3-2.847-2.89-2.847h-36.94c-1.59 0-2.89 1.279-2.89 2.847v16.554c0 1.568 1.3 2.847 2.89 2.847Z"/><path fill="#fff" d="m1070.52 275.997 13.52-9.501-3.31 9.501h-10.21Z"/><path fill="#3DF130" d="M1059.26 292.281h-4.69v-13.566h4.69v13.566Z"/><path fill="#FFB904" d="M1066.78 292.281h-4.69v-11.129h4.69v11.129Z"/><path fill="#5EF939" d="M1081.8 292.281h-4.69v-11.129h4.69v11.129Z"/><path fill="#373178" d="M1074.28 292.271h-4.69v-6.783h4.69v6.783Z"/><path fill="#001AF8" d="M947.964 388.395s-1.36 16.264-.873 16.834c.487.569 39.74 12.048 39.74 12.048l-5.246-23.527-8.748-15.874-24.873 10.519Z"/><path fill="#1D4568" d="M867.895 386.617h60.28c3.273 0 5.926 2.612 5.926 5.834v23.797c0 3.222-2.653 5.834-5.926 5.834h-60.28c-3.273 0-5.927-2.612-5.927-5.834v-23.797c0-3.222 2.654-5.834 5.927-5.834Z"/><path fill="#0017BF" d="M901.577 298.534s8.819-1.758 15.039 3.467c6.221 5.225 9.712 45.145 9.712 45.145s-20.834 11.099-38.593 11.099c-17.759 0-16.197-.799-16.197-.799l-4.14-16.194 34.169-42.708.01-.01Z"/><path fill="#40398D" d="M873.335 386.617h60.28c3.273 0 5.926 2.612 5.926 5.834v23.797c0 3.222-2.653 5.834-5.926 5.834h-60.28c-3.273 0-5.927-2.612-5.927-5.834v-23.797c0-3.222 2.654-5.834 5.927-5.834Z"/><path fill="#FFBB87" d="M952.419 277.715s2.547-6.383 3.907-4.565c1.36 1.818-1.096 11.409-1.096 11.409s-5.815.899-2.811-6.844Z"/><path fill="#fff" d="M914.282 275.538h26.03c.942 0 1.705.752 1.705 1.678v25.625c0 .927-.763 1.678-1.705 1.678h-26.03c-.941 0-1.705-.751-1.705-1.678v-25.625c0-.926.764-1.678 1.705-1.678Z"/><path fill="#5EF939" d="M923.721 293.868a7.49 7.49 0 0 1 0-10.709c3.004-2.957 7.875-2.957 10.879 0a7.49 7.49 0 0 1 0 10.709c-3.004 2.957-7.875 2.957-10.879 0Z"/><path fill="#E64218" d="m923.902 288.603-3.085 5.255-3.074 5.245H930.062l-3.085-5.245-3.075-5.255Z"/><path fill="#FFBB87" d="M946.31 302.191s-6.221-5.745-5.927-8.792c.295-3.047 1.746-9.89 1.746-9.89s-6.12-6.264-5.825-7.602c.294-1.339 5.003.769 5.003.769s-5.024-4.875-5.013-6.793c0-1.908 2.628-.959 2.628-.959s-.386-2.198 1.167-2.008c1.553.189 11.275 6.793 14.086 10.329 2.821 3.537-.193 12.588 0 13.847.192 1.258 2.141 3.846 2.141 3.846l-10.006 7.243v.01Z"/><path fill="#0017BF" d="m957.584 291.111-18.652 9.171s2.527 7.192-3.308 9.3c-5.825 2.108-12.635-7.292-20.398-9.67-7.773-2.378-14.014-.839-14.014-.839l3.704 31.838s34.919 18.272 51.826 6.214c16.907-12.048.853-46.024.853-46.024l-.011.01Z"/><path fill="#000" d="M955.311 280.761c.254-.03.396-.22.365-.419-.01-.11-.385-2.658-1.948-4.166a.384.384 0 0 0-.528 0 .37.37 0 0 0 0 .519c1.38 1.329 1.726 3.716 1.736 3.736.03.18.182.32.365.32l.01.01ZM947.091 275.897c.112 0 .213-.05.284-.13a.35.35 0 0 0-.05-.51l-8.159-6.603a.365.365 0 0 0-.518.05.349.349 0 0 0 .051.509l8.159 6.604c.071.06.152.08.233.08ZM943.986 278.783c.122 0 .233-.06.304-.17a.36.36 0 0 0-.101-.499l-2.679-1.738a.376.376 0 0 0-.508.099c-.111.17-.06.39.102.5l2.679 1.738a.37.37 0 0 0 .203.06v.01Z"/><path fill="#fff" d="M998.258 393.2s28.722 15.175 32.392 17.243c3.67 2.068 5.9 8.631 4.44 9.84-1.47 1.209-48.827.689-52.511 0-3.684-.689-6.312-17.612-6.312-17.612l21.991-9.471Z"/><path fill="#FFB904" d="M1007.52 401.153s.09 0 .14-.02c.41-.16 10.22-3.877 9.43-9.601-.12-.889-.47-1.408-1.06-1.548-1.4-.34-3.85 2.158-5.72 4.425 1.28-2.807 2.63-6.483 1.85-8.182-.22-.499-.63-.819-1.17-.939-.52-.11-1.03 0-1.51.34-2.82 2.008-3.9 12.008-3.95 12.428a.37.37 0 0 0 .34.399c.21.01.38-.13.4-.329.3-2.798 1.53-10.41 3.65-11.919.3-.209.6-.289.91-.219.32.07.52.239.66.529.96 2.068-2.29 8.721-3.62 11.109-.09.17-.04.38.13.49.17.1.39.06.5-.1 2.26-3.227 6.05-7.653 7.35-7.333.32.07.45.549.51.939.71 5.145-8.87 8.781-8.96 8.811-.19.07-.28.28-.21.47.05.15.19.24.34.24l-.01.01Z"/><path fill="#3DF130" d="M916.261 338.324s28.496-25.165 44.855-21.149c16.359 4.016 17.607 20.84 20.52 39.771 2.912 18.941 3.826 32.777 3.826 32.777l-39.162.769-2.324-33.087-41.851-12.817 14.126-6.264h.01Z"/><path fill="#4EFD62" d="M871.549 357.437s2.527 20.609 11.193 26.733c8.667 6.124 23.564 4.216 38.035-3.567 14.238-7.652 18.439-10.489 20.063-10.489 1.624 0 29.846 38.482 29.846 38.482l32.944-16.934s-25.11-59.72-45.914-64.136c-20.133-4.275-65.333 23.757-65.333 23.757l-20.834 6.154Z"/><path fill="#0017BF" d="M887.745 274.767s-11.803-3.117-16.085 4.756c-4.272 7.872-.589 39.81-.589 39.81l18.125-11.738-.386-15.835-1.075-16.993h.01Z"/><path fill="#0017BF" d="m911.563 316.147 13.811 12.088s-19.646 30.38-47.625 25.535c-27.978-4.846-15.668-30.36-11.011-37.233 7.256-10.71 16.136-16.834 24.112-17.373 7.967-.549 20.713 16.993 20.713 16.993v-.01Z"/><path fill="#FFBB87" d="m890.85 292.96.213 8.462s1.614 2.397 6.647 2.677c3.755.21 4.892-1.718 4.892-1.718l-1.096-7.383-9.134-1.738-1.532-.29.01-.01Z"/><path fill="#000" d="M892.383 293.249c.03.23.121.5.274.809 2.029 4.176 7.316 4.965 9.478 5.095l-.619-4.166-9.133-1.738Z"/><path fill="#FFBB87" d="M902.937 275.658s4.78 10.499 3.156 16.434c-1.624 5.934-7.114 5.054-10.412 3.946-3.288-1.119-4.831-3.077-4.831-3.077s-3.054 1.049-5.124-1.739c-2.081-2.787-.843-6.014.893-6.773 1.745-.759 3.836.47 3.836.47l-1.665-3.047s6.708-15.635 14.147-6.214Z"/><path fill="#000" d="M896.553 281.311c.132 0 .254-.07.325-.19.274-.469.619-.769 1.025-.869.7-.18 1.411.24 1.421.25.172.11.406.05.507-.12.112-.17.051-.39-.122-.5-.04-.02-.974-.589-1.989-.339-.619.15-1.116.569-1.491 1.219a.359.359 0 0 0 .142.499c.061.03.121.05.182.05ZM904.459 280.312c.051 0 .101-.01.152-.03.183-.08.264-.3.183-.48a1.018 1.018 0 0 0-.68-.589c-.731-.2-1.614.38-1.715.45a.361.361 0 0 0-.091.509c.111.17.345.21.517.09.223-.15.782-.43 1.096-.34.061.02.142.05.203.19.061.13.193.21.335.21v-.01ZM896.909 283.539c.122 0 .243-.06.314-.17.142-.219.305-.339.508-.369.456-.07 1.035.309 1.197.449.153.13.386.11.518-.04a.359.359 0 0 0-.041-.509c-.091-.08-.923-.749-1.786-.619-.416.059-.771.299-1.025.699a.353.353 0 0 0 .112.499.37.37 0 0 0 .203.06ZM903.028 283.27c.132 0 .264-.07.335-.2.051-.1.507-.929 1.4-.559.183.08.406 0 .488-.19a.356.356 0 0 0-.193-.479c-1.238-.52-2.081.369-2.355.909a.357.357 0 0 0 .173.489c.051.03.112.04.162.04l-.01-.01ZM902.612 288.414c.193 0 .355-.14.365-.33.193-2.148-1.015-4.625-1.065-4.725a.377.377 0 0 0-.498-.17.365.365 0 0 0-.172.489c.01.02 1.167 2.408.994 4.346-.02.2.132.38.335.4h.031l.01-.01ZM899.984 291.47a.38.38 0 0 0 .365-.279.374.374 0 0 0-.274-.44c-.02 0-1.928-.449-2.466-1.788a.36.36 0 0 0-.477-.2.351.351 0 0 0-.203.47c.69 1.698 2.902 2.208 2.994 2.228h.081l-.02.009ZM890.13 289.464a.358.358 0 0 0 .233-.639l-3.46-2.778a.372.372 0 0 0-.518.05.36.36 0 0 0 .051.51l3.46 2.777c.071.05.153.08.234.08Z"/><path fill="#000" d="M886.659 289.463c.051 0 .112-.01.162-.04l2.152-1.049a.374.374 0 0 0 .172-.489.385.385 0 0 0-.497-.17l-2.151 1.049a.375.375 0 0 0-.173.49.36.36 0 0 0 .335.199v.01Z"/><path fill="#0017BF" d="M890.454 284.917s3.755-.399 6.11-3.466c2.344-3.067 3.43-6.184 3.43-6.184s1.593.25 2.618 1.488c.761.909 1.644 2.238 1.644 2.238s.051-4.266-2.152-6.344c-2.202-2.077-4.069-1.338-4.069-1.338s-4.81-2.638-9.641 1.648c-4.83 4.286-2.476 11.968-2.476 11.968s2.456-.989 4.536 0v-.01Z"/><path fill="#FFBB87" d="M912.74 295.717s-.132-3.586 1.035-4.815c1.167-1.229 2.06.62 2.06.62s1.035-3.497 2.202-2.438c1.167 1.059 1.563 3.486 1.563 3.486s2.06-1.518 2.841 1.489c.782 3.007.914 7.393 3.887 10.17 2.983 2.777 5.571 9.251 3.369 14.675-2.202 5.425-6.342 5.635-6.342 5.635l-7.774-8.072s1.492-5.145-.842-6.993c-2.334-1.848-4.892-3.047-5.348-7.293-.173-1.608 3.349-6.484 3.349-6.484v.02Zm1.42 8.392-.751-3.826c-2.334 3.057.751 3.826.751 3.826Z"/><path fill="#000" d="M914.15 304.468s.082 0 .122-.02a.365.365 0 0 0 .223-.47c-1.136-3.187-1.39-8.232-1.4-8.292 0-.199-.193-.329-.386-.349a.363.363 0 0 0-.355.379c0 .21.264 5.205 1.441 8.492a.36.36 0 0 0 .345.24l.01.02ZM917.844 303.73a.42.42 0 0 0 .183-.05c.182-.1.243-.32.142-.5-2.152-3.776-1.421-11.968-1.411-12.048a.37.37 0 0 0-.335-.4c-.203-.009-.385.13-.406.33-.03.35-.761 8.492 1.502 12.468.071.12.193.19.325.19v.01ZM921.437 303.73a.39.39 0 0 0 .264-.11.37.37 0 0 0 0-.52c-1.583-1.558-1.786-8.132-1.736-10.529a.37.37 0 0 0-.365-.37c-.162 0-.375.16-.375.36 0 .369-.173 8.971 1.948 11.059a.37.37 0 0 0 .264.11Z"/><path fill="#fff" d="M980.316 348.544c.061 0 .132-.02.193-.05.172-.1.233-.33.132-.499-.081-.13-8.048-13.167-19.018-19.451-12.086-6.923-40.623 7.193-41.83 7.802a.362.362 0 0 0-.163.49.374.374 0 0 0 .498.159c.294-.149 29.388-14.545 41.12-7.822 10.797 6.194 18.672 19.061 18.753 19.191.072.12.193.18.315.18ZM940.84 370.482s.071 0 .101-.01a.366.366 0 0 0 .254-.23c.254-.729 2.446-7.143.335-8.711-.467-.35-.954-.31-1.289.11-1.096 1.358-.609 7.962.365 8.761.071.05.153.08.234.08Zm.071-8.462s.081.02.172.08c1.137.839.498 4.436-.294 7.003-.447-1.768-.741-6.084.041-7.023.03-.04.05-.06.091-.06h-.01Z"/><path fill="#FFB904" d="M935.624 318.276c.355 0 .659-.15.872-.43 1.228-1.568-.335-7.662-.517-8.352-.081-.319-.629-.319-.721 0-.182.69-1.745 6.784-.517 8.352.223.28.527.43.872.43h.011Zm0-7.093c.517 2.417.913 5.424.294 6.223-.162.21-.416.21-.579 0-.619-.789-.233-3.796.295-6.223h-.01ZM897.68 304.589c3.511 0 5.997-2.088 6.038-2.118a.35.35 0 0 0 .03-.509.362.362 0 0 0-.517-.03c-.234.2-5.724 4.795-11.914-.77a.387.387 0 0 0-.528.02.37.37 0 0 0 .021.52c2.455 2.208 4.83 2.907 6.87 2.907v-.02ZM885.34 324.908s.081 0 .111-.02c7.459-2.408 23.889-8.312 24.051-8.372a.364.364 0 0 0 .223-.469.382.382 0 0 0-.476-.22c-.163.06-16.583 5.964-24.031 8.372a.364.364 0 0 0-.234.459c.051.15.193.25.356.25Z"/><path fill="#FFB904" d="M878.53 326.987c2.689 0 7.662-2.248 8.291-2.538a.36.36 0 0 0 .203-.409.366.366 0 0 0-.355-.29c-1.431-.03-8.636-.09-9.763 1.489a.923.923 0 0 0-.111.899c.122.309.365.539.72.689.274.11.619.16 1.015.16Zm6.373-2.508c-2.364.959-5.865 2.168-7.103 1.679-.214-.08-.274-.19-.305-.27-.041-.1-.02-.16.02-.22.579-.809 4.323-1.129 7.388-1.179v-.01Z"/><path fill="#fff" d="M879.393 364.918c6.697-.13 8.676-6.524 8.696-6.584a.352.352 0 0 0-.253-.449.365.365 0 0 0-.457.249c-.071.24-1.857 5.945-7.997 6.064a.37.37 0 0 0-.365.37c0 .2.173.36.376.36v-.01ZM1307.97 347.315h49.86c2.11 0 3.82-1.688 3.82-3.766v-71.928c0-2.078-1.71-3.767-3.82-3.767h-49.86c-2.11 0-3.83 1.689-3.83 3.767v71.928c0 2.078 1.72 3.766 3.83 3.766Zm49.86-78.721c1.7 0 3.08 1.358 3.08 3.037v71.928c0 1.678-1.38 3.037-3.08 3.037h-49.86c-1.71 0-3.09-1.359-3.09-3.037v-71.928c0-1.679 1.38-3.037 3.09-3.037h49.86Z"/><path fill="#0017BF" d="M1364.4 352.789h-49.85c-1.91 0-3.46-1.525-3.46-3.406v-71.919c0-1.881 1.55-3.406 3.46-3.406h49.85c1.91 0 3.46 1.525 3.46 3.406v71.919c0 1.881-1.55 3.406-3.46 3.406Z"/><path fill="#fff" d="M1325.91 309.253a15.9 15.9 0 0 1-.38-3.477c0-1.259.15-2.487.43-3.666l2.28-.02 1.35-3.187-1.62-1.519a15.962 15.962 0 0 1 5.05-4.995l1.76 1.649 3.22-1.349-.1-2.328a16.311 16.311 0 0 1 7.12-.07v2.528l3.21 1.369 1.84-1.879a15.929 15.929 0 0 1 5.07 4.896l-1.81 1.688 1.35 3.187 2.58.03c.28 1.179.44 2.407.44 3.666 0 1.199-.14 2.358-.4 3.487l-2.63.03-1.35 3.186 1.88 1.769a16.13 16.13 0 0 1-5.02 4.945l-1.97-1.998-3.21 1.368v2.718c-1.1.229-2.23.359-3.4.359-1.28 0-2.54-.15-3.72-.429l.11-2.518-3.22-1.348-1.89 1.768a16 16 0 0 1-4.99-5.035l1.7-1.589-1.35-3.186-2.32-.02-.01-.03Zm15.7 4.215c4.31 0 7.81-3.436 7.81-7.692s-3.49-7.682-7.81-7.682c-4.32 0-7.8 3.436-7.8 7.682s3.5 7.692 7.8 7.692Z"/><path fill="#5EF939" d="M1322.92 332.111a8.392 8.392 0 0 1-.8-1.899 8.893 8.893 0 0 1-.38-2.137l1.28-.39.22-2.018-1.16-.59a9.326 9.326 0 0 1 2-3.646l1.28.649 1.6-1.288-.45-1.299c.63-.35 1.31-.639 2.03-.849a9.15 9.15 0 0 1 1.98-.35l.42 1.429 2.04.25.74-1.369a9.576 9.576 0 0 1 3.69 1.938l-.73 1.249 1.3 1.578 1.46-.409c.35.619.65 1.288.86 2.008.2.679.33 1.358.37 2.038l-1.49.439-.22 2.018 1.36.689a9.104 9.104 0 0 1-2.01 3.617l-1.45-.809-1.58 1.298.45 1.539c-.57.31-1.2.569-1.85.759-.73.21-1.46.33-2.18.37l-.37-1.439-2.05-.24-.77 1.309a9.543 9.543 0 0 1-3.67-2.028l.69-1.169-1.3-1.578-1.31.369v-.039Zm9.59-.18c2.43-.71 3.83-3.227 3.11-5.625-.72-2.397-3.27-3.776-5.71-3.067-2.44.71-3.84 3.227-3.12 5.625.72 2.397 3.28 3.776 5.72 3.067Z"/><path fill="#0017BF" d="M1337.4 164.607h40.63c1.09 0 1.97.868 1.97 1.938v46.624c0 1.07-.88 1.938-1.97 1.938h-40.63c-1.09 0-1.97-.868-1.97-1.938v-46.624c0-1.07.88-1.938 1.97-1.938Z"/><path fill="#FFB904" d="M1355.08 173.589H1372v19.62h-16.92v-19.62Z"/><path fill="#3DF130" d="M1343.43 187.665h18.74v18.451h-18.74v-18.451Z"/><path fill="#fff" d="m1357.13 191.331 3.57.23-2.78 2.107s-2.09-.489-.79-2.337Z"/><path fill="#FFBB87" d="m1260.14 383.239-1.16 18.042-16.12 1.769-4.76-9.431 1.04-13.626 21 3.246ZM1228.9 376.306l-13.7 12.038-12.72-9.901 3.35-10 10.46-8.981 12.61 16.844ZM1215.45 253.279s18.07-8.361 27.37-6.164c9.3 2.198 13.26-16.763 13.26-16.763s-26.59-18.122-48.11 13.477c-15.57 22.847 6.29 7.982 6.29 7.982l1.19 1.468Z"/><path fill="#3DF130" d="m1241.53 282.311-35.39 79.48 21.13 21.449s10.66-8.651 21.3-37.702c10.66-29.061 6.86-57.253 6.86-57.253l-13.9-5.974Z"/><path fill="#0017BF" d="M1270.5 206.056s-14.8-7.783-9.85-12.918c4.95-5.134 11.6 6.734 11.6 6.734l-1.76 6.184h.01Z"/><path fill="#0017BF" d="M1282.03 195.685s-9.02-4.205-13.69 2.428c-4.53 6.444 1.14 12.707 1.14 12.707l10.68-8.851 1.87-6.284Z"/><path fill="#FFBB87" d="m1272.79 214.618-.06 7.463s1.34 2.158 5.77 2.547c3.3.29 4.46-.429 4.46-.429l-.42-3.787-.43-3.686-7.98-1.798-1.34-.3v-.01Z"/><path fill="#000" d="M1274.13 214.926c.02.2.09.45.21.72 1.66 3.736 6.29 4.585 8.2 4.765l-.43-3.686-7.98-1.799Z"/><path fill="#FFBB87" d="M1282.93 199.132s4.75 9.351 3.51 14.796c-1.25 5.444-6.27 4.865-9.3 3.976-3.03-.889-4.51-2.608-4.51-2.608s-2.73 1.069-4.72-1.378c-1.98-2.448-1-5.425.55-6.184 1.56-.75 3.5.279 3.5.279l-1.62-2.707s5.48-14.445 12.59-6.174Z"/><path fill="#000" d="M1284.69 211.589c.19 0 .35-.149.37-.339.23-3.307-1.22-4.915-1.28-4.975-.15-.15-.38-.16-.52-.02a.362.362 0 0 0-.03.509c.01.01 1.31 1.469 1.08 4.436-.01.2.15.379.35.389h.03ZM1272.09 211.96c.14 0 .28-.08.34-.22a.355.355 0 0 0-.2-.479l-3.98-1.639a.368.368 0 0 0-.49.2c-.08.19 0 .4.21.48l3.97 1.638s.09.03.15.03v-.01Z"/><path fill="#000" d="M1268.61 212.959c.11 0 .2-.04.27-.11l1.67-1.728c.14-.15.13-.38-.01-.52a.387.387 0 0 0-.53.01l-1.67 1.728c-.14.15-.13.38.01.52.07.07.16.1.25.1h.01ZM1282.43 214.528c1.04 0 1.52-.76 1.62-1.159a.366.366 0 0 0-.3-.45c-.01 0-1.32-.209-2.02-1.169a.362.362 0 0 0-.41-.129.375.375 0 0 0-.26.339c0 .16-.02 1.619.62 2.258.2.21.46.32.75.32h.01l-.01-.01Zm.71-1.009a.862.862 0 0 1-.72.279c-.08 0-.16-.03-.23-.099-.16-.17-.26-.48-.32-.8.45.32.92.51 1.27.61v.01ZM1280.88 207.854s.08 0 .12-.02c.19-.06.3-.27.23-.459l-.51-1.529.41-.779a.36.36 0 0 0-.17-.49.365.365 0 0 0-.49.16l-.48.909a.39.39 0 0 0-.02.28l.55 1.668c.05.15.19.25.35.25l.01.01ZM1285.71 207.374s.09 0 .12-.02c.19-.06.3-.27.23-.459l-.51-1.529.41-.779c.09-.18.02-.4-.16-.49a.373.373 0 0 0-.5.16l-.48.909a.39.39 0 0 0-.02.28l.55 1.668c.05.15.19.25.35.25l.01.01ZM1284.48 203.029a.361.361 0 0 0 .04-.72l-1.1-.13c-.2-.03-.38.12-.42.32-.02.2.13.38.33.4l1.1.13h.05Z"/><path fill="#FFBB87" d="M1329.82 212.18s-9.62 13.027-18.86 15.484c-9.23 2.458-3.49 20.97-3.49 20.97s32.15 3.376 35.69-34.516c2.56-27.403-10.55-1.948-10.55-1.948h-2.78l-.01.01Z"/><path fill="#000" d="M1278.99 203.959c.05 0 .1-.01.15-.03l2.18-.979c.18-.08.26-.3.18-.48-.08-.18-.3-.26-.48-.18l-2.19.979c-.18.08-.26.3-.18.48.06.13.19.21.34.21Z"/><path fill="#3DF130" d="M1246.95 258.293s-7.59 24.116-7.04 26.364c.53 2.248 5.77 14.706 6.14 15.745.36 1.038-9.39 85.444-9.39 85.444l31.71 7.783s21.28-90.071 18.69-116.185c-2.58-26.114-40.11-19.141-40.11-19.141v-.01Z"/><path fill="#fff" d="m1322.11 205.467-.8-2.339 35.81-11.817.8 2.339-35.81 11.817Z"/><path fill="#0017BF" d="M1272.87 209.672s3.83-1.199 6.81-5.554c2.97-4.346 2.86-5.425 2.86-5.425l2.03 4.186s1.27-3.427.05-5.495c-1.23-2.068-2.58-1.698-2.58-1.698l-9.02 1.908-3.31 7.023 3.17 5.055h-.01Z"/><path fill="#E64218" d="M1317.18 223.607s-16.8 1.829-21.75.61c-4.96-1.219-17.54-2.697-26.82-3.217-9.27-.519-23.33.09-29.7 1.129-6.36 1.049-9.11 1.828-9.11 1.828s.53 9.92 1.95 16.454c1.41 6.533 1.68 7.752 1.68 7.752l13.88-1.049-4.93 20.739s6.96 4.506 22.62 8.422c15.65 3.916 24.09.869 24.09.869l5.01-24.286s11.76-.17 17.68-1.478c5.93-1.309 6.81-1.479 6.81-1.479l-1.41-26.294Z"/><path fill="#FFBB87" d="M1330.72 214.128s-3.58-7.433-3.37-9.131c.22-1.698 3.97-2.877 3.97-2.877s.77-6.853 2.22-7.373c1.45-.519 2.22 1.579 2.22 1.579s.86-4.286 2.65-3.777c1.8.5 2.13 3.077 2.13 3.077s.35-3.386 2.48-2.557c2.13.829 4 9.091 2.97 16.174-1.02 7.083-7.4 9.9-7.4 9.9l-7.86-4.995-.01-.02Z"/><path fill="#000" d="M1330.81 207.255c.19 0 .35-.14.37-.33l.51-4.775a.37.37 0 0 0-.34-.4c-.2-.02-.38.12-.41.32l-.5 4.775c-.02.2.12.38.33.4h.04v.01Z"/><path fill="#FFBB87" d="M1216.85 250.712s-.48 6.444-1.49 8.721c-1.01 2.278-2.83 4.955-4.24 4.566-1.4-.39.82-6.444.82-6.444s-4.07 2.528-7.11 5.125c-3.03 2.588-4.06 4.696-5.6 4.656-1.54-.04-1.28-2.928-1.28-2.928s-1.23 1.619-2.47 1.049c-1.25-.569-.32-3.686-.32-3.686s-2.17.689-2.35-1.488c-.18-2.178 5.24-8.862 10.11-12.128 4.86-3.267 9.52-2.728 9.52-2.728l4.39 5.295.02-.01Z"/><path fill="#000" d="M1209.03 257.784c.13 0 .26-.07.32-.2a.369.369 0 0 0-.15-.489l-8.32-4.286c-.19-.09-.41-.03-.5.15-.09.18-.02.399.15.489l8.32 4.286c.05.03.11.04.18.04v.01Z"/><path fill="#000" d="M1195.18 262.119c.12 0 .25-.06.32-.17.03-.05 3.18-4.985 6.19-8.212a.364.364 0 0 0-.02-.519.365.365 0 0 0-.52.02c-3.05 3.276-6.24 8.262-6.27 8.311-.11.17-.06.4.11.5.06.04.13.06.19.06v.01ZM1197.97 264.758c.12 0 .23-.05.3-.14l6.92-8.741c.12-.16.09-.39-.06-.509-.16-.12-.4-.1-.52.06l-6.92 8.741c-.12.16-.09.389.06.509.07.05.15.08.22.08ZM1209.21 254.907h.06c.2-.029.33-.219.3-.419-.61-3.477 3.27-6.394 3.31-6.424.16-.12.19-.349.07-.509a.376.376 0 0 0-.52-.07c-.17.13-4.28 3.217-3.59 7.123.03.18.18.299.37.299Z"/><path fill="#FFB904" d="M1252.31 397.526s5.8-4.706 8.36-3.197c2.56 1.508 9.56 15.454 9.56 15.454s9.61 2.438 12.51 5.295c2.9 2.857.68 7.733 0 8.062-.68.34-23.26-.429-24.28-.929-1.03-.499-27.65-17.303-28.16-17.972-.51-.669 6.82-17.303 8.18-16.803 1.37.499 13.83 10.08 13.83 10.08v.01ZM1221.59 384.568s-6.14 17.472-5.12 18.481c1.03 1.009 3.76 8.572 3.76 12.098 0 3.527-4.44 6.723-5.29 6.723-.85 0-16.42-17.642-17-18.651-.57-1.009-6.55-34.436-5.86-34.606.68-.169 17.36-3.966 18.18-3.106.83.859 2.47 18.062 2.47 18.062s5.63-3.527 8.87 1.009l-.01-.01Z"/><path fill="#0017BF" d="M1216.47 403.41c.1 0 .2-.04.27-.11a.373.373 0 0 0 0-.519l-3.58-3.527a.387.387 0 0 0-.53 0c-.14.14-.14.37 0 .52l3.58 3.526c.07.07.16.11.26.11ZM1270.23 410.163c.16 0 .31-.11.35-.28a.36.36 0 0 0-.26-.439l-4.1-1.009c-.2-.05-.4.07-.45.259-.05.2.07.39.27.44l4.1 1.009s.06.01.09.01v.01ZM1238.77 367.775c.18 0 .34-.14.36-.32.86-7.223 8.37-70.56 8.18-71.778-.18-1.239-5.75-8.922-6.87-10.45a.367.367 0 0 0-.51-.08c-.17.12-.21.34-.09.509 2.54 3.487 6.62 9.311 6.74 10.13.09 1.349-5.3 47.423-8.18 71.589-.02.2.13.38.33.4h.04ZM1276.92 296.436s.06 0 .09-.01c6.72-1.608 6.42-8.771 6.42-8.851-.01-.2-.16-.339-.38-.349-.21 0-.37.179-.36.379.01.27.26 6.634-5.85 8.102a.363.363 0 0 0 .08.719v.01ZM1233.12 376.807c.09 0 .18-.03.25-.1.15-.14.15-.37.02-.52l-22.85-23.876a.388.388 0 0 0-.53-.02c-.15.14-.15.37-.02.52l22.85 23.876c.07.08.17.12.28.12ZM1270.28 385.677c.17 0 .32-.11.36-.28a.374.374 0 0 0-.27-.439l-32.11-7.253c-.21-.05-.39.08-.45.27-.04.199.09.389.28.439l32.11 7.253h.08v.01Z"/><path fill="#fff" d="M1294.11 253.228c.14 0 .27-.08.33-.209l2.31-4.806c.09-.18 0-.399-.18-.489-.18-.08-.4 0-.49.17l-2.31 4.805c-.09.18 0 .399.17.489.06.02.11.03.17.03v.01ZM1247.32 247.484c.21 0 .38-.159.38-.359v-4.636c0-.199-.16-.359-.38-.359a.36.36 0 0 0-.37.359v4.636c0 .2.16.359.37.359Z"/><path fill="#E64218" d="M897.548 232.94h53.004c1.421 0 2.578-1.138 2.578-2.537v-25.335c0-1.398-1.157-2.537-2.578-2.537h-53.004c-1.42 0-2.577 1.139-2.577 2.537v25.335c0 1.399 1.157 2.537 2.577 2.537Zm53.004-29.67c1.015 0 1.827.809 1.827 1.808v25.335a1.82 1.82 0 0 1-1.827 1.808h-53.004a1.813 1.813 0 0 1-1.826-1.808v-25.335a1.82 1.82 0 0 1 1.826-1.808h53.004Z"/><path fill="#E64218" d="M895.346 208.876h57.408a.37.37 0 0 0 .376-.36c0-.2-.163-.36-.376-.36h-57.408a.37.37 0 0 0-.375.36c0 .2.162.36.375.36ZM899.385 207.505c.985 0 1.797-.789 1.797-1.768s-.802-1.768-1.797-1.768c-.994 0-1.796.789-1.796 1.768s.802 1.768 1.796 1.768Zm0-2.797c.579 0 1.056.459 1.056 1.039a1.04 1.04 0 0 1-1.056 1.039 1.04 1.04 0 0 1-1.055-1.039c0-.58.467-1.039 1.055-1.039ZM904.145 207.505c.984 0 1.796-.789 1.796-1.768s-.802-1.768-1.796-1.768c-.995 0-1.796.789-1.796 1.768s.801 1.768 1.796 1.768Zm0-2.797c.578 0 1.055.459 1.055 1.039a1.04 1.04 0 0 1-1.055 1.039 1.04 1.04 0 0 1-1.056-1.039c0-.58.467-1.039 1.056-1.039ZM908.904 207.505c.984 0 1.796-.789 1.796-1.768s-.801-1.768-1.796-1.768c-.994 0-1.796.789-1.796 1.768s.802 1.768 1.796 1.768Zm0-2.797c.579 0 1.056.459 1.056 1.039a1.04 1.04 0 0 1-1.056 1.039 1.04 1.04 0 0 1-1.055-1.039c0-.58.467-1.039 1.055-1.039Z"/></svg>