<svg xmlns="http://www.w3.org/2000/svg" width="350" height="260" fill="none"><mask id="a" width="350" height="260" x="0" y="0" maskUnits="userSpaceOnUse" style="mask-type:alpha"><path fill="#000" d="M350 0H0v260h350V0Z"/></mask><g mask="url(#a)"><path fill="#fff" d="M214.177 215.501h54.641c2.313 0 4.192-1.852 4.192-4.132v-78.906c0-2.28-1.879-4.132-4.192-4.132h-54.641c-2.313 0-4.193 1.852-4.193 4.132v78.906c0 2.28 1.88 4.132 4.193 4.132Zm54.641-86.359c1.868 0 3.38 1.49 3.38 3.332v78.906c0 1.841-1.512 3.332-3.38 3.332h-54.641c-1.868 0-3.381-1.491-3.381-3.332v-78.906c0-1.842 1.513-3.332 3.381-3.332h54.641Z"/><path fill="#0017BF" d="M276.025 221.506h-54.63c-2.094 0-3.792-1.673-3.792-3.737v-78.896c0-2.064 1.698-3.737 3.792-3.737h54.63c2.094 0 3.792 1.673 3.792 3.737v78.896c0 2.064-1.698 3.737-3.792 3.737Z"/><path fill="#fff" d="M233.841 173.746a17.214 17.214 0 0 1-.422-3.814c0-1.381.166-2.729.478-4.022l2.491-.022 1.479-3.496-1.768-1.666a17.472 17.472 0 0 1 5.527-5.479l1.936 1.808 3.525-1.479-.111-2.554a17.906 17.906 0 0 1 7.807-.077v2.773l3.515 1.501 2.024-2.06a17.423 17.423 0 0 1 5.549 5.37l-1.979 1.852 1.479 3.496 2.825.033c.311 1.293.478 2.641.478 4.022 0 1.315-.145 2.587-.434 3.825l-2.88.033-1.479 3.496 2.057 1.94a17.68 17.68 0 0 1-5.505 5.424l-2.158-2.191-3.514 1.501v2.981a17.834 17.834 0 0 1-7.807-.077l.122-2.762-3.526-1.479-2.068 1.94a17.542 17.542 0 0 1-5.472-5.524l1.857-1.742-1.479-3.496-2.536-.022-.011-.033Zm17.205 4.625c4.727 0 8.564-3.77 8.564-8.439 0-4.668-3.826-8.428-8.564-8.428-4.737 0-8.552 3.77-8.552 8.428 0 4.658 3.837 8.439 8.552 8.439Z"/><path fill="#5EF939" d="M230.56 198.821a9.597 9.597 0 0 1-.878-2.082 10.185 10.185 0 0 1-.412-2.345l1.401-.428.245-2.214-1.279-.646a10.277 10.277 0 0 1 2.202-4l1.402.712 1.746-1.414-.49-1.424c.69-.384 1.435-.702 2.225-.932a9.962 9.962 0 0 1 2.168-.383l.467 1.567 2.236.274.801-1.502c1.49.406 2.88 1.129 4.048 2.126l-.801 1.37 1.424 1.732 1.601-.449a10.283 10.283 0 0 1 1.346 4.438l-1.624.482-.245 2.214 1.491.756a10.15 10.15 0 0 1-2.202 3.967l-1.591-.887-1.735 1.424.501 1.688c-.634.34-1.324.625-2.035.833a10.84 10.84 0 0 1-2.392.406l-.4-1.579-2.247-.263-.845 1.436a10.512 10.512 0 0 1-4.026-2.225l.756-1.282-1.423-1.731-1.435.405v-.044Zm10.51-.197c2.669-.778 4.204-3.54 3.414-6.17-.789-2.63-3.592-4.143-6.261-3.365-2.669.778-4.204 3.54-3.414 6.17.789 2.631 3.592 4.143 6.261 3.365Z"/><path fill="#0017BF" d="M247.313 38h58.224c1.558 0 2.821 1.245 2.821 2.78v66.875c0 1.535-1.263 2.78-2.821 2.78h-58.224c-1.558 0-2.821-1.245-2.821-2.78V40.78c0-1.535 1.263-2.78 2.821-2.78Z"/><path fill="#FFB904" d="M272.645 50.883H296.9v28.143h-24.255V50.883Z"/><path fill="#3DF130" d="M255.951 71.072h26.858v26.466h-26.858V71.072Z"/><path fill="#fff" d="m285.235 62.763 5.327.343-4.147 3.147s-3.118-.73-1.18-3.49Z"/><path fill="#FFBB87" d="M73.938 155.244s26.955-12.483 40.819-9.202c13.878 3.281 19.781-25.025 19.781-25.025s-39.653-27.054-71.754 20.118c-23.217 34.108 9.383 11.916 9.383 11.916l1.771 2.193Z"/><path fill="#3DF130" d="M112.834 198.583 60.059 317.238l31.511 32.02s15.892-12.915 31.768-56.285c15.891-43.384 10.231-85.471 10.231-85.471l-20.735-8.919Z"/><path fill="#0017BF" d="M156.044 84.745s-22.082-11.618-14.696-19.284c7.386-7.665 17.299 10.052 17.299 10.052l-2.618 9.232h.015Z"/><path fill="#0017BF" d="M173.237 69.264s-13.455-6.279-20.417 3.624c-6.75 9.62 1.695 18.97 1.695 18.97l15.937-13.213 2.785-9.381Z"/><path fill="#FFBB87" d="m159.45 97.528-.091 11.14s2.013 3.222 8.612 3.804c4.918.432 6.659-.642 6.659-.642l-.636-5.652-.635-5.503-11.912-2.685-1.997-.447v-.015Z"/><path fill="#000" d="M161.447 97.988c.03.298.136.67.318 1.074 2.482 5.577 9.383 6.845 12.229 7.113l-.636-5.503-11.911-2.684Z"/><path fill="#FFBB87" d="M174.584 74.409s7.083 13.96 5.222 22.087c-1.862 8.128-9.339 7.263-13.864 5.936s-6.72-3.892-6.72-3.892-4.071 1.595-7.037-2.059c-2.967-3.653-1.499-8.098.817-9.231 2.315-1.119 5.221.417 5.221.417l-2.421-4.041s8.173-21.566 18.782-9.217Z"/><path fill="#000" d="M177.203 93.006a.543.543 0 0 0 .544-.507c.348-4.937-1.816-7.338-1.907-7.427a.54.54 0 0 0-.771-.03.536.536 0 0 0-.046.76c.015.015 1.953 2.193 1.62 6.622a.55.55 0 0 0 .514.582h.046ZM158.405 93.56a.56.56 0 0 0 .515-.328.528.528 0 0 0-.303-.716l-5.933-2.446a.54.54 0 0 0-.726.298.528.528 0 0 0 .302.716l5.933 2.446s.136.045.212.045v-.015Z"/><path fill="#000" d="M153.229 95.05c.151 0 .287-.06.393-.163l2.498-2.58a.553.553 0 0 0-.016-.776.573.573 0 0 0-.787.015l-2.497 2.58a.552.552 0 0 0 .015.775c.106.105.243.15.379.15h.015ZM173.828 97.394c1.559 0 2.27-1.134 2.422-1.73a.54.54 0 0 0-.076-.433.576.576 0 0 0-.378-.239c-.015 0-1.968-.313-3.012-1.745a.528.528 0 0 0-.605-.193.562.562 0 0 0-.394.507c0 .238-.03 2.416.923 3.37.303.313.696.477 1.12.477h.015l-.015-.014Zm1.06-1.507a1.283 1.283 0 0 1-1.075.418.455.455 0 0 1-.333-.15c-.242-.253-.393-.715-.484-1.192a6.36 6.36 0 0 0 1.892.91v.014ZM171.526 87.43s.121 0 .167-.03a.532.532 0 0 0 .348-.686l-.757-2.282.606-1.163a.54.54 0 0 0-.243-.73.555.555 0 0 0-.741.238l-.712 1.357a.577.577 0 0 0-.03.418l.817 2.49a.555.555 0 0 0 .53.373l.015.015ZM178.732 86.715s.121 0 .166-.03a.532.532 0 0 0 .348-.686l-.757-2.282.606-1.163a.54.54 0 0 0-.242-.73.556.556 0 0 0-.742.238l-.711 1.357a.567.567 0 0 0-.03.417l.817 2.491a.553.553 0 0 0 .53.373l.015.015ZM176.884 80.226a.551.551 0 0 0 .545-.477.54.54 0 0 0-.484-.596l-1.635-.194a.556.556 0 0 0-.62.477.54.54 0 0 0 .484.596l1.635.194h.075Z"/><path fill="#FFBB87" d="M244.507 93.888s-14.348 19.448-28.121 23.117c-13.772 3.668-5.206 31.304-5.206 31.304s47.947 5.041 53.229-51.528c3.814-40.908-15.74-2.908-15.74-2.908h-4.147l-.015.015Z"/><path fill="#000" d="M168.696 81.615a.612.612 0 0 0 .227-.045l3.254-1.462a.543.543 0 0 0 .273-.715.559.559 0 0 0-.727-.269l-3.254 1.462a.544.544 0 0 0-.272.716.55.55 0 0 0 .499.313Z"/><path fill="#3DF130" d="M120.916 162.73s-11.321 36.002-10.504 39.358c.802 3.356 8.612 21.953 9.157 23.504.545 1.551-14 127.558-14 127.558l47.296 11.618s31.738-134.463 27.879-173.448c-3.86-38.985-59.828-28.575-59.828-28.575v-.015Z"/><path fill="#fff" d="m233.004 83.868-1.188-3.493 53.412-17.641 1.188 3.493-53.412 17.64Z"/><path fill="#0017BF" d="M159.57 90.144s5.721-1.79 10.155-8.292c4.435-6.488 4.268-8.098 4.268-8.098l3.027 6.249s1.892-5.116.076-8.203c-1.831-3.087-3.844-2.535-3.844-2.535l-13.455 2.848-4.934 10.485 4.722 7.546h-.015Z"/><path fill="#E64218" d="M225.664 110.947s-25.064 2.73-32.449.91c-7.386-1.819-26.153-4.027-39.986-4.802-13.834-.776-34.795.134-44.3 1.685-9.49 1.566-13.591 2.729-13.591 2.729s.787 14.81 2.906 24.564c2.104 9.753 2.512 11.573 2.512 11.573l20.705-1.566-7.356 30.961s10.383 6.726 33.736 12.572c23.337 5.846 35.929 1.298 35.929 1.298l7.462-36.256s17.541-.253 26.38-2.207c8.839-1.954 10.155-2.207 10.155-2.207l-2.103-39.254Z"/><path fill="#FFBB87" d="M245.854 96.796s-5.343-11.095-5.025-13.63c.318-2.536 5.918-4.296 5.918-4.296s1.15-10.23 3.314-11.006c2.164-.776 3.315 2.356 3.315 2.356s1.271-6.398 3.95-5.637c2.679.745 3.178 4.593 3.178 4.593s.515-5.056 3.693-3.818 5.963 13.572 4.434 24.146c-1.528 10.574-11.048 14.779-11.048 14.779l-11.714-7.457-.015-.03Z"/><path fill="#000" d="M245.99 86.535a.552.552 0 0 0 .545-.492l.757-7.129a.542.542 0 0 0-.5-.596.544.544 0 0 0-.605.477l-.757 7.129a.542.542 0 0 0 .5.596h.06v.015Z"/><path fill="#FFBB87" d="M76.026 151.411s-.71 9.62-2.224 13.02c-1.499 3.4-4.223 7.397-6.327 6.816-2.088-.582 1.226-9.62 1.226-9.62s-6.069 3.773-10.594 7.651c-4.525 3.863-6.054 7.01-8.354 6.95-2.3-.06-1.907-4.37-1.907-4.37s-1.847 2.416-3.693 1.566c-1.862-.85-.47-5.503-.47-5.503s-3.238 1.029-3.51-2.222c-.273-3.252 7.824-13.229 15.073-18.106 7.25-4.877 14.212-4.071 14.212-4.071l6.538 7.904.03-.015Z"/><path fill="#000" d="M64.357 161.969a.53.53 0 0 0 .485-.298.548.548 0 0 0-.227-.731l-12.41-6.398c-.273-.134-.606-.045-.742.224a.548.548 0 0 0 .227.731l12.41 6.398a.51.51 0 0 0 .257.059v.015Z"/><path fill="#000" d="M43.713 168.441a.56.56 0 0 0 .47-.254c.045-.075 4.752-7.442 9.232-12.259a.54.54 0 0 0-.03-.776.54.54 0 0 0-.773.03c-4.555 4.892-9.307 12.334-9.353 12.408a.528.528 0 0 0 .167.746c.09.06.197.09.287.09v.015ZM47.875 172.381a.56.56 0 0 0 .439-.209l10.322-13.049a.552.552 0 0 0-.09-.761c-.243-.179-.591-.149-.773.09l-10.322 13.049a.552.552 0 0 0 .091.761.61.61 0 0 0 .333.119ZM64.63 157.674h.09a.543.543 0 0 0 .454-.626c-.908-5.19 4.874-9.545 4.934-9.589a.54.54 0 0 0 .106-.761.558.558 0 0 0-.772-.104c-.257.193-6.386 4.802-5.357 10.633a.536.536 0 0 0 .544.447Z"/><path fill="#0017BF" d="M108.718 326.17a.55.55 0 0 0 .545-.477c1.271-10.783 12.471-105.336 12.199-107.156-.273-1.849-8.582-13.318-10.246-15.6a.562.562 0 0 0-.772-.119.54.54 0 0 0-.121.761c3.783 5.204 9.867 13.899 10.049 15.122.136 2.014-7.915 70.796-12.199 106.873a.54.54 0 0 0 .485.596h.06ZM165.609 219.672s.091 0 .136-.015c10.02-2.401 9.581-13.095 9.581-13.214-.015-.298-.242-.507-.575-.522a.542.542 0 0 0-.53.567c.015.403.393 9.903-8.733 12.095a.542.542 0 0 0-.408.656c.06.254.287.418.529.418v.015Z"/><path fill="#fff" d="M191.247 155.168c.212 0 .409-.12.5-.314l3.435-7.173c.137-.269 0-.597-.257-.731a.591.591 0 0 0-.742.254l-3.435 7.173c-.136.269 0 .597.257.731.076.03.151.045.242.045v.015ZM121.476 146.594c.303 0 .56-.239.56-.537v-6.92a.542.542 0 0 0-.56-.537.542.542 0 0 0-.56.537v6.92c0 .298.242.537.56.537Z"/></g></svg>