<svg width="280" height="400" viewBox="0 0 280 400" fill="none" xmlns="http://www.w3.org/2000/svg">
<path d="M280 0H0V400H280V0Z" fill="black"/>
<mask id="mask0_1455_34742" style="mask-type:alpha" maskUnits="userSpaceOnUse" x="0" y="220" width="280" height="180">
<path d="M280 220H0V400H280V220Z" fill="black"/>
</mask>
<g mask="url(#mask0_1455_34742)">
<path d="M127.591 322.783C127.591 322.783 134.138 326.204 135.048 332.489C135.957 338.775 130.438 339.888 130.438 339.888L116.762 333.201L127.591 322.783Z" fill="#FFBB87"/>
<path d="M33.2708 273.602C33.2708 273.602 25.1962 270.546 21.2863 266.951C17.3763 263.357 17.2399 262.536 17.5218 260.41C17.64 259.516 16.5216 257.783 17.7218 256.205C18.9221 254.626 23.4413 257.336 23.4413 257.336C23.4413 257.336 21.4863 254.243 23.0685 253.586C24.6598 252.93 29.5336 257.464 29.5336 257.464C29.5336 257.464 27.815 252.911 29.0335 252.382C30.2519 251.862 35.8168 254.791 36.6806 256.989C37.5445 259.188 37.6809 266.906 37.6809 266.906L33.2708 273.611V273.602Z" fill="#FFBB87"/>
<path d="M56.5028 331.112C56.5028 331.112 45.8914 361.235 43.3453 381.715C40.7993 402.205 52.4474 435.038 52.4474 435.038L85.4639 433.688C85.4639 433.688 78.3441 401.019 76.9438 391.066C75.7981 380.092 80.4082 332.334 80.4082 332.334L56.5028 331.112Z" fill="#FFB700"/>
<path d="M94.8849 329.46C94.8849 329.46 101.832 355.907 114.862 377.847C127.892 399.788 134.003 405.982 134.003 405.982L108.679 429.108C108.679 429.108 78.0902 396.823 73.7893 374.353C69.4974 351.884 69.2246 331.623 69.2246 331.623L94.8758 329.46H94.8849Z" fill="#FFB700"/>
<path d="M93.7847 346.967C88.7927 346.967 86.3467 341.931 86.3194 341.867C86.2376 341.703 86.3194 341.502 86.474 341.42C86.6376 341.338 86.8377 341.42 86.9195 341.575C87.0377 341.831 89.9657 347.815 96.067 345.927C96.2489 345.872 96.4307 345.973 96.4853 346.146C96.5399 346.319 96.4398 346.511 96.2671 346.565C95.376 346.839 94.5485 346.958 93.7847 346.958V346.967Z" fill="#0002BB"/>
<path d="M107.506 376.725C107.278 376.725 107.069 376.652 106.878 376.525C106.251 376.078 106.169 375.594 106.206 375.266C106.424 373.605 110.452 372.055 110.916 371.881C111.043 371.836 111.188 371.872 111.279 371.972C111.37 372.073 111.388 372.219 111.334 372.337C111.143 372.739 109.388 376.288 107.824 376.689C107.724 376.716 107.615 376.725 107.515 376.725H107.506ZM110.316 372.839C108.797 373.505 106.969 374.545 106.869 375.348C106.86 375.43 106.824 375.676 107.26 375.977C107.378 376.059 107.497 376.078 107.651 376.041C108.506 375.822 109.643 374.062 110.316 372.839Z" fill="#0002BB"/>
<path d="M76.317 383.896C76.1988 383.896 76.0806 383.832 76.017 383.713C71.8615 375.311 69.3609 352.842 69.079 350.178L59.5042 347.551C59.3314 347.505 59.2223 347.323 59.2768 347.14C59.3223 346.967 59.5042 346.857 59.686 346.912L69.4791 349.603C69.6064 349.64 69.7064 349.749 69.7246 349.886C69.7519 350.132 72.3434 374.782 76.6171 383.421C76.6989 383.586 76.6353 383.786 76.4625 383.868C76.417 383.896 76.3625 383.905 76.317 383.905V383.896Z" fill="#0002BB"/>
<path d="M38.7991 260.575C38.7991 260.575 45.1824 275.554 52.1021 280.891C59.0219 286.228 67.3328 287.459 69.5515 287.231C71.7702 286.994 78.6899 287.642 83.1091 287.879C100.568 288.819 98.1034 317.227 97.8579 321.715C97.6851 324.862 97.4123 329.159 97.2577 331.431C97.1941 332.343 96.503 333.082 95.5937 333.182C91.9565 333.593 82.5453 334.551 73.607 334.669C64.8686 334.779 58.4217 334.277 55.8939 334.04C55.221 333.976 54.7027 333.429 54.6754 332.754C54.6209 331.385 53.9844 328.065 53.8116 324.087C53.5479 317.82 52.8023 310.257 52.8023 310.257C52.8023 310.257 40.5814 310.905 30.7792 296.409C22.55 284.239 24.6141 270.628 24.6141 270.628L38.7991 260.575Z" fill="#0002BB"/>
<path d="M46.0009 284.595C45.7736 284.595 45.4735 284.512 45.2371 284.148C45.0462 283.847 45.0098 283.509 45.1098 283.135C45.6099 281.329 49.7018 279.203 50.1746 278.966C50.3019 278.902 50.4656 278.929 50.5656 279.03C50.6656 279.139 50.6838 279.294 50.611 279.422C50.1109 280.28 47.5558 284.558 46.0191 284.585C46.0191 284.585 46.01 284.585 46.0009 284.585V284.595ZM49.3835 280.161C47.9559 281 46.0191 282.323 45.7463 283.317C45.6918 283.5 45.7099 283.655 45.8009 283.792C45.8827 283.919 45.9646 283.929 46.0009 283.929C46.7102 283.919 48.2287 281.967 49.3835 280.161Z" fill="white"/>
<path d="M71.5425 269.415C71.5425 269.415 66.2868 264.534 69.0875 261.012C71.8972 257.491 77.0711 261.651 77.0711 261.651C77.0711 261.651 79.3443 259.671 82.2268 261.615C85.1001 263.558 85.1456 267.782 85.1456 267.782C85.1456 267.782 88.2099 267.937 88.1099 271.677C88.019 275.417 83.7726 278.455 83.7726 278.455L71.5425 269.415Z" fill="#0002BB"/>
<path d="M80.6903 279.678L80.263 287.906C80.263 287.906 78.799 290.178 74.4526 290.251C71.2064 290.306 70.1152 289.412 70.1152 289.412L70.7972 285.772L71.4337 281.238L79.3537 279.897L80.6813 279.668L80.6903 279.678Z" fill="#FFBB87"/>
<path d="M79.39 280.891C79.3627 281.092 79.2627 281.329 79.1263 281.593C77.2441 285.197 72.6612 285.717 70.7881 285.772L71.3973 281.575L79.39 280.891Z" fill="black"/>
<path d="M71.1606 265.364C71.1606 265.364 66.8869 274.058 68.0417 279.103C69.1966 284.148 73.7612 283.582 76.5164 282.743C79.2715 281.904 80.5991 280.298 80.5991 280.298C80.5991 280.298 83.0906 281.274 84.891 278.993C86.6914 276.713 85.773 273.958 84.3636 273.264C82.9451 272.58 81.1811 273.538 81.1811 273.538L82.645 271.02C82.645 271.02 77.5893 257.655 71.1515 265.355L71.1606 265.364Z" fill="#FFBB87"/>
<path d="M81.2266 277.452C81.1175 277.452 81.0084 277.397 80.9448 277.297C80.8447 277.142 80.8902 276.932 81.0448 276.84L84.3819 274.733C84.5365 274.633 84.7456 274.678 84.8365 274.833C84.9366 274.989 84.8911 275.198 84.7365 275.29L81.3994 277.397C81.3448 277.433 81.2812 277.452 81.2266 277.452Z" fill="black"/>
<path d="M84.1458 277.598C84.1458 277.598 84.0731 277.598 84.0458 277.579L81.9726 276.904C81.7998 276.85 81.6998 276.658 81.7634 276.485C81.818 276.311 82.0089 276.211 82.1817 276.275L84.2549 276.95C84.4277 277.005 84.5277 277.196 84.464 277.37C84.4186 277.506 84.2913 277.598 84.1458 277.598Z" fill="black"/>
<path d="M76.8901 269.542C76.8264 269.542 76.7719 269.524 76.7082 269.488C75.608 268.785 74.4986 268.74 74.4896 268.74C74.3077 268.74 74.1622 268.575 74.1713 268.393C74.1713 268.21 74.3259 268.055 74.5168 268.074C74.5714 268.074 75.8171 268.128 77.0719 268.931C77.2265 269.031 77.272 269.232 77.172 269.387C77.1083 269.488 76.9992 269.542 76.8901 269.542Z" fill="black"/>
<path d="M70.0336 268.776C69.8791 268.776 69.7518 268.676 69.7154 268.52C69.6699 268.338 69.779 268.165 69.9609 268.119C70.7883 267.918 71.4885 268.055 71.5158 268.064C71.6976 268.101 71.8068 268.274 71.7704 268.457C71.734 268.639 71.5612 268.758 71.3794 268.712C71.3794 268.712 70.7883 268.593 70.1155 268.758C70.0882 268.758 70.0609 268.767 70.0427 268.767L70.0336 268.776Z" fill="black"/>
<path d="M70.7972 276.403C70.6426 276.403 70.5063 276.302 70.4699 276.147C69.7788 273.155 71.9248 271.586 72.0157 271.522C72.1612 271.412 72.3703 271.449 72.4794 271.604C72.5885 271.75 72.5522 271.96 72.4067 272.069C72.3339 272.124 70.5335 273.456 71.1246 276.001C71.1609 276.184 71.0518 276.357 70.8791 276.403C70.8518 276.403 70.8336 276.403 70.8063 276.403H70.7972Z" fill="black"/>
<path d="M69.8516 272.197C69.8516 272.197 69.7789 272.197 69.7425 272.179C69.5697 272.124 69.4788 271.932 69.5334 271.759L70.079 270.153C70.1335 269.98 70.3245 269.889 70.4972 269.944C70.67 269.998 70.7609 270.19 70.7064 270.363L70.1608 271.969C70.1153 272.106 69.988 272.197 69.8425 272.197H69.8516Z" fill="black"/>
<path d="M74.335 272.562C74.335 272.562 74.2623 272.562 74.2259 272.544C74.0531 272.489 73.9622 272.297 74.0168 272.124L74.5623 270.518C74.626 270.345 74.8079 270.254 74.9806 270.309C75.1534 270.363 75.2443 270.555 75.1898 270.728L74.6442 272.334C74.5987 272.471 74.4714 272.562 74.3259 272.562H74.335Z" fill="black"/>
<path d="M70.2877 267.325C70.2877 267.325 71.1425 265.939 72.9156 266.039C74.6887 266.139 75.6435 267.453 75.6435 267.453C75.6435 267.453 74.6796 270.391 76.9892 272.133C79.2988 273.876 81.1902 273.547 81.1902 273.547L82.9724 273.036L84.4091 270.555L79.6989 264.78L73.3793 260.912L69.8604 263.74L70.2877 267.335V267.325Z" fill="#0002BB"/>
<path d="M72.2518 279.486C72.2518 279.486 72.2064 279.486 72.1882 279.486C71.1607 279.422 70.5333 278.41 70.5151 278.364C70.4605 278.273 70.4514 278.154 70.4969 278.054C70.5423 277.953 70.6424 277.88 70.7515 277.862L73.4885 277.461C73.6067 277.443 73.7158 277.488 73.7885 277.57C73.8613 277.661 73.8886 277.78 73.8522 277.89C73.834 277.953 73.3248 279.486 72.2609 279.486H72.2518ZM71.4244 278.428C71.6244 278.61 71.8972 278.793 72.2245 278.82C72.5337 278.847 72.7883 278.519 72.9702 278.2L71.4244 278.428Z" fill="black"/>
<path d="M74.5437 290.607C72.0523 290.607 70.0064 289.731 69.97 289.712C69.8063 289.64 69.7245 289.439 69.7972 289.275C69.87 289.11 70.07 289.028 70.2337 289.101C70.2973 289.129 76.3351 291.719 79.9995 287.678C80.1177 287.541 80.336 287.532 80.4633 287.66C80.5996 287.788 80.6087 287.997 80.4814 288.134C78.7265 290.068 76.4896 290.616 74.5256 290.616L74.5437 290.607Z" fill="white"/>
<path d="M52.812 310.585C52.6302 310.585 52.4756 310.439 52.4756 310.257V305.577C52.4756 305.394 52.6211 305.249 52.812 305.249C53.003 305.249 53.1485 305.394 53.1485 305.577V310.257C53.1485 310.439 53.003 310.585 52.812 310.585Z" fill="white"/>
<path d="M86.6191 288.508C86.6191 288.508 100.14 292.404 112.898 302.138C125.655 311.872 129.238 322.792 129.238 322.792L115.044 335.363C115.044 335.363 101.559 322.71 94.5846 319.343C87.6103 315.977 86.6191 288.518 86.6191 288.518V288.508Z" fill="#0002BB"/>
<path d="M97.885 321.597C97.885 321.597 97.8486 321.597 97.8304 321.597C97.6849 321.578 97.5758 321.46 97.5576 321.314C97.4303 320.392 96.8757 315.74 98.0214 314.791C98.185 314.654 98.476 314.508 98.8852 314.645C99.2034 314.755 99.449 314.983 99.5854 315.311C100.276 316.935 98.4033 320.958 98.185 321.414C98.1305 321.533 98.0123 321.606 97.885 321.606V321.597ZM98.567 315.247C98.5124 315.247 98.476 315.265 98.4487 315.293C97.9304 315.722 97.9123 317.993 98.085 319.982C98.667 318.522 99.3489 316.433 98.9761 315.567C98.9125 315.411 98.8125 315.32 98.6761 315.265C98.6306 315.247 98.5942 315.247 98.567 315.247Z" fill="white"/>
<path d="M34.8558 249.667L-6.43164 220L-36.0015 261.423L5.28599 291.089L34.8558 249.667Z" fill="#4EFD62"/>
<path d="M36.189 255.146C36.189 255.146 30.2331 247.803 27.8144 249.016C25.3957 250.229 32.4882 261.158 32.4882 261.158C32.4882 261.158 38.3895 259.982 36.1799 255.146H36.189Z" fill="#FFBB87"/>
<path d="M269.133 322.782C269.133 322.782 275.28 325.61 277.098 327.544C278.917 329.478 278.617 331.093 278.617 331.093L274.579 332.817L269.133 322.791V322.782Z" fill="#FFBB87"/>
<path d="M316.157 354.569C316.157 337.868 302.618 324.31 285.917 324.286C269.216 324.262 255.677 337.781 255.677 354.482C255.677 371.183 269.216 384.742 285.917 384.766C302.618 384.79 316.157 371.27 316.157 354.569Z" fill="#FFB700"/>
<path d="M178.558 333.447L153.607 344.139L128.646 354.831L131.893 327.8L135.148 300.769L156.853 317.108L178.558 333.447Z" fill="#1C34ED"/>
<path d="M230.133 287.076C230.133 287.076 251.756 308.706 257.685 313.432L263.613 318.157C263.613 318.157 270.951 323.968 272.461 326.778C273.97 329.588 266.086 327.773 266.086 327.773L258.839 330.336C258.839 330.336 225.641 318.029 221.722 296.783C217.803 275.536 230.124 287.076 230.124 287.076H230.133Z" fill="#FFBB87"/>
<path d="M268.205 322.189C268.205 322.189 272.215 325.957 273.752 328.356C275.288 330.756 278.917 338.583 276.916 340.462C275.934 341.384 273.761 337.406 273.761 337.406C273.761 337.406 276.398 341.776 275.098 343.792C274.215 345.16 271.842 340.781 271.842 340.781C271.842 340.781 273.543 346.118 269.969 343.71C266.396 341.301 263.813 336.913 259.83 334.998C255.848 333.082 256.311 329.077 256.311 329.077L268.205 322.18V322.189Z" fill="#FFBB87"/>
<path d="M274.725 339.276C274.571 339.276 274.425 339.167 274.398 339.003C273.598 334.469 269.67 331.786 269.633 331.759C269.479 331.659 269.442 331.449 269.542 331.294C269.642 331.139 269.851 331.102 270.006 331.203C270.179 331.321 274.216 334.076 275.062 338.884C275.098 339.066 274.971 339.24 274.789 339.267C274.771 339.267 274.753 339.267 274.734 339.267L274.725 339.276Z" fill="black"/>
<path d="M272.115 341.703C271.988 341.703 271.87 341.63 271.815 341.511C271.797 341.466 269.715 336.932 267.36 335.581C267.205 335.49 267.141 335.29 267.232 335.125C267.323 334.961 267.532 334.906 267.687 334.998C270.233 336.457 272.333 341.037 272.424 341.228C272.497 341.393 272.424 341.593 272.261 341.666C272.215 341.685 272.17 341.694 272.124 341.694L272.115 341.703Z" fill="black"/>
<path d="M231.724 265.145C231.724 265.145 245.745 262.344 251.028 276.247C255.739 288.645 249.974 306.735 239.38 306.343C228.787 305.96 223.031 301.198 223.031 301.198V268.338L231.724 265.145Z" fill="#0002BB"/>
<path d="M215.566 272.087C215.566 272.087 209.374 266.504 219.003 261.003C228.633 255.502 235.653 263.047 235.734 267.088C235.816 271.138 233.516 273.009 233.516 273.009C233.516 273.009 234.416 281.785 226.014 281.173C217.612 280.571 215.566 272.069 215.566 272.069V272.087Z" fill="#0002BB"/>
<path d="M226.814 279.778L226.987 286.866C226.987 286.866 225.769 288.937 221.64 289.375C218.567 289.703 217.467 289.028 217.467 289.028L217.803 285.425L218.14 281.912L225.56 280.079L226.805 279.769L226.814 279.778Z" fill="#FFBB87"/>
<path d="M226.796 279.44C226.787 279.632 226.714 279.869 226.605 280.134C225.114 283.71 219.586 285.233 217.812 285.434L218.149 281.922L226.796 279.44Z" fill="black"/>
<path d="M216.175 265.811C216.175 265.811 212.692 274.788 214.275 279.686C215.857 284.585 220.33 283.627 222.986 282.551C225.641 281.484 226.823 279.778 226.823 279.778C226.823 279.778 229.369 280.535 230.96 278.117C232.551 275.7 231.406 273.045 229.942 272.489C228.478 271.932 226.814 273.036 226.814 273.036L228.05 270.418C228.05 270.418 221.894 257.619 216.175 265.802V265.811Z" fill="#FFBB87"/>
<path d="M215.611 277.388C215.448 277.388 215.311 277.269 215.284 277.105C214.793 274.094 215.966 272.498 216.011 272.434C216.12 272.288 216.33 272.261 216.475 272.37C216.621 272.48 216.648 272.689 216.539 272.835C216.53 272.854 215.484 274.295 215.93 277.004C215.957 277.187 215.839 277.36 215.657 277.388C215.639 277.388 215.62 277.388 215.602 277.388H215.611Z" fill="black"/>
<path d="M227.005 276.676C226.887 276.676 226.769 276.612 226.714 276.503C226.633 276.338 226.687 276.138 226.851 276.056L230.288 274.222C230.452 274.14 230.652 274.195 230.733 274.359C230.815 274.523 230.761 274.724 230.597 274.806L227.16 276.639C227.114 276.667 227.06 276.676 227.005 276.676Z" fill="black"/>
<path d="M230.214 277.296C230.142 277.296 230.06 277.269 229.996 277.214L228.341 275.764C228.205 275.645 228.187 275.435 228.305 275.299C228.423 275.162 228.632 275.143 228.778 275.262L230.433 276.713C230.569 276.831 230.587 277.041 230.469 277.178C230.405 277.251 230.314 277.287 230.214 277.287V277.296Z" fill="black"/>
<path d="M214.794 270.253C214.794 270.253 214.957 268.064 216.621 266.194C218.394 264.205 219.895 264.534 219.895 264.534C219.895 264.534 217.276 270.281 221.677 272.306C224.805 273.747 226.814 273.045 226.814 273.045L231.297 268.584L222.386 261.322C222.386 261.322 214.257 260.182 214.803 270.263L214.794 270.253Z" fill="#0002BB"/>
<path d="M217.821 279.212C217.684 279.212 217.557 279.13 217.512 278.984C217.448 278.811 217.539 278.619 217.712 278.565C217.712 278.565 218.594 278.245 219.157 277.297C219.248 277.141 219.457 277.087 219.612 277.178C219.767 277.269 219.821 277.479 219.73 277.634C219.039 278.802 217.975 279.176 217.93 279.194C217.893 279.203 217.857 279.212 217.821 279.212Z" fill="black"/>
<path d="M218.731 273.647C218.731 273.647 218.685 273.647 218.658 273.647C218.476 273.611 218.367 273.428 218.403 273.246L218.731 271.804L218.303 271.12C218.203 270.965 218.249 270.755 218.403 270.664C218.558 270.564 218.767 270.609 218.858 270.764L219.358 271.567C219.403 271.64 219.422 271.731 219.403 271.823L219.049 273.401C219.012 273.556 218.876 273.656 218.721 273.656L218.731 273.647Z" fill="black"/>
<path d="M214.329 273.611C214.329 273.611 214.283 273.611 214.256 273.611C214.074 273.574 213.965 273.392 214.011 273.209L214.338 271.768L213.911 271.084C213.811 270.929 213.856 270.719 214.011 270.628C214.165 270.527 214.374 270.573 214.465 270.728L214.965 271.531C215.011 271.604 215.029 271.695 215.011 271.786L214.656 273.364C214.62 273.519 214.483 273.62 214.329 273.62V273.611Z" fill="black"/>
<path d="M215.076 269.515C214.921 269.515 214.785 269.405 214.748 269.25C214.712 269.068 214.821 268.894 215.003 268.858L215.976 268.648C216.167 268.612 216.33 268.721 216.367 268.904C216.403 269.086 216.294 269.259 216.112 269.296L215.139 269.506C215.139 269.506 215.094 269.506 215.066 269.506L215.076 269.515Z" fill="black"/>
<path d="M220.103 269.916C220.103 269.916 220.03 269.916 219.994 269.898L217.948 269.177C217.775 269.113 217.684 268.931 217.748 268.757C217.812 268.584 217.993 268.493 218.166 268.557L220.212 269.277C220.385 269.341 220.476 269.524 220.412 269.697C220.367 269.834 220.239 269.916 220.103 269.916Z" fill="black"/>
<path d="M171.338 317.838C171.338 317.838 166.819 313.742 163.563 313.806C160.299 313.87 157.353 315.895 156.116 316.561L158.944 318.686C159.399 318.714 160.035 318.778 160.035 318.778C160.535 319.608 159.517 321.752 156.262 323.959C153.006 326.176 149.024 327.243 150.415 327.955C151.806 328.667 152.761 328.758 152.761 328.758C152.761 328.758 150.861 328.338 153.488 330.272C154.807 331.239 156.562 330.783 156.562 330.783C156.562 330.783 156.989 332.48 160.763 332.334C164.536 332.197 170.601 328.512 170.601 328.512C170.601 328.512 189.506 332.161 200.372 325.246C211.238 318.331 211.456 308.004 211.456 308.004L196.325 300.769C196.325 300.769 188.696 310.248 171.347 317.838H171.338Z" fill="#FFBB87"/>
<path d="M152.098 328.949C151.934 328.949 151.788 328.831 151.77 328.657C151.743 328.475 151.87 328.311 152.052 328.283C152.098 328.283 156.635 327.654 158.717 325.775C158.854 325.656 159.063 325.665 159.19 325.802C159.308 325.939 159.299 326.149 159.163 326.276C156.926 328.293 152.334 328.922 152.143 328.949C152.125 328.949 152.116 328.949 152.098 328.949Z" fill="black"/>
<path d="M156.553 331.102C156.371 331.102 156.226 330.956 156.226 330.774C156.226 330.591 156.362 330.436 156.544 330.436C156.562 330.436 158.735 330.345 160.99 328.146C161.118 328.019 161.327 328.019 161.463 328.146C161.59 328.274 161.59 328.493 161.463 328.621C159.008 331.011 156.671 331.093 156.571 331.102H156.553Z" fill="black"/>
<path d="M212.929 330.464C212.929 330.464 197.007 351.993 183.922 375.904C170.838 399.815 163.572 429.719 163.572 429.719L197.071 431.799L221.431 372.72L214.265 431.015L246.655 429.874C246.655 429.874 253.665 375.758 249.928 350.233C246.191 324.707 241.808 319.334 241.808 319.334L212.929 330.464Z" fill="#0002BB"/>
<path d="M194.57 301.59C194.57 301.59 207.319 287.277 222.713 286.346C238.107 285.416 243.29 292.851 244.036 296.381C244.772 299.912 246.073 325.191 245.145 326.86C244.218 328.53 237.898 331.504 227.632 332.252C217.357 333 211.983 331.695 211.247 331.139C210.51 330.582 209.583 322.773 209.583 322.773L202.345 326.012L194.579 301.581L194.57 301.59Z" fill="#E24E1B"/>
<path d="M209.583 323.12C209.583 323.12 209.547 323.12 209.528 323.12C209.374 323.093 209.265 322.965 209.256 322.81C209.156 321.286 208.928 316.269 210.01 315.639C210.147 315.566 210.419 315.466 210.756 315.694C212.384 316.78 210.319 321.898 209.892 322.919C209.838 323.047 209.719 323.12 209.583 323.12ZM210.383 316.251C209.983 316.406 209.774 318.568 209.838 321.186C210.574 319.079 211.074 316.716 210.383 316.251Z" fill="white"/>
<path d="M221.276 373.058C221.222 373.058 221.158 373.04 221.113 373.012C220.958 372.921 220.903 372.72 220.994 372.556C221.04 372.474 225.814 364.428 238.135 359.729C238.307 359.666 238.498 359.748 238.562 359.921C238.626 360.094 238.544 360.286 238.371 360.35C226.277 364.966 221.613 372.811 221.567 372.894C221.504 373.003 221.394 373.058 221.276 373.058Z" fill="white"/>
<path d="M226.823 279.778C226.823 279.778 216.775 303.46 233.724 307.073C250.683 310.686 253.065 292.34 251.729 284.449C250.392 276.548 235.743 273.675 235.743 273.675C235.743 273.675 235.825 280.69 226.823 279.787V279.778Z" fill="#0002BB"/>
<path d="M229.66 261.277C229.66 261.277 231.733 250.777 238.253 253.696C244.773 256.615 238.253 267.243 238.253 267.243H232.097L229.66 261.277Z" fill="#0002BB"/>
<path d="M212.283 344.75C212.156 344.75 212.038 344.677 211.983 344.549C209.237 338.319 213.956 335.107 214.002 335.08C214.156 334.98 214.356 335.025 214.456 335.171C214.556 335.326 214.511 335.527 214.365 335.636C214.193 335.755 210.074 338.574 212.583 344.285C212.656 344.449 212.583 344.65 212.41 344.723C212.365 344.741 212.32 344.75 212.274 344.75H212.283Z" fill="white"/>
<path d="M32.5979 264.497C32.5433 264.497 32.4887 264.488 32.4342 264.452C28.206 262.08 29.9245 256.925 29.9427 256.871C30.0064 256.697 30.1882 256.606 30.361 256.661C30.5338 256.725 30.6247 256.907 30.5701 257.081C30.5065 257.272 29.0152 261.76 32.7524 263.859C32.9161 263.95 32.9707 264.151 32.8797 264.315C32.8161 264.424 32.707 264.488 32.5888 264.488L32.5979 264.497Z" fill="black"/>
<path d="M122.063 332.726C122.063 332.726 129.001 339.541 129.928 339.778C130.856 340.015 136.575 342.652 137.303 341.53C138.448 339.778 133.593 336.12 133.593 336.12C133.593 336.12 131.992 328.092 127.528 328.949C123.063 329.816 122.054 332.717 122.054 332.717L122.063 332.726Z" fill="#FFBB87"/>
<path d="M130.956 329.916C130.874 329.916 130.792 329.889 130.729 329.825C130.701 329.798 127.846 327.125 125.955 328.092C125.8 328.174 125.591 328.11 125.509 327.946C125.427 327.782 125.491 327.581 125.655 327.499C127.964 326.313 131.056 329.214 131.183 329.342C131.32 329.469 131.32 329.679 131.192 329.816C131.129 329.889 131.038 329.916 130.956 329.916Z" fill="black"/>
</g>
</svg>
