<svg xmlns="http://www.w3.org/2000/svg" width="743" height="600" viewBox="0 0 743 600" fill="none">
<path d="M690.286 563.568V579.344H710.658V558.636L690.286 563.568Z" fill="#FFBB87"/>
<path d="M637.267 557.675L632.995 572.882L652.648 578.224L658.255 558.262L637.267 557.675Z" fill="#FFBB87"/>
<path d="M695.855 394.595C695.855 394.595 701.083 385.943 709.427 390.157C717.772 394.371 716.862 403.08 723.199 405.084C729.535 407.08 734.725 412.459 731.041 419.396C727.963 425.196 719.618 423.359 719.618 423.359C719.618 423.359 714.428 432.058 705.26 429.083C696.092 426.109 691.906 421.419 692.872 413.942C693.828 406.464 695.865 394.605 695.865 394.605L695.855 394.595Z" fill="#0017BF"/>
<path d="M680.948 407.164C680.948 407.164 675.995 400.041 686.025 394.419C696.055 388.806 703.367 396.507 703.452 400.638C703.537 404.777 701.141 406.689 701.141 406.689C701.141 406.689 702.079 415.658 693.327 415.033C684.576 414.418 680.948 407.146 680.948 407.146V407.164Z" fill="#0017BF"/>
<path d="M694.17 413.615L694.35 420.86C694.35 420.86 693.08 422.976 688.781 423.424C685.579 423.759 684.433 423.069 684.433 423.069L684.784 419.387L685.134 415.797L692.863 413.923L694.16 413.606L694.17 413.615Z" fill="#FFBB87"/>
<path d="M694.141 413.271C694.131 413.466 694.055 413.709 693.942 413.979C692.388 417.634 686.63 419.191 684.783 419.396L685.134 415.807L694.141 413.271Z" fill="black"/>
<path d="M683.079 399.331C683.079 399.331 679.452 408.505 681.1 413.512C682.748 418.519 687.407 417.54 690.173 416.44C692.939 415.349 694.17 413.605 694.17 413.605C694.17 413.605 696.822 414.379 698.479 411.909C700.137 409.438 698.943 406.725 697.419 406.156C695.894 405.587 694.16 406.715 694.16 406.715L695.448 404.039C695.448 404.039 689.036 390.958 683.079 399.322V399.331Z" fill="#FFBB87"/>
<path d="M682.501 411.172C682.501 411.172 682.539 411.172 682.558 411.172C682.747 411.144 682.87 410.967 682.842 410.781C682.378 408.011 683.458 406.538 683.476 406.52C683.59 406.37 683.562 406.156 683.41 406.044C683.259 405.932 683.041 405.96 682.927 406.109C682.88 406.175 681.648 407.806 682.169 410.883C682.198 411.051 682.34 411.172 682.51 411.172H682.501Z" fill="black"/>
<path d="M694.36 410.445C694.416 410.445 694.473 410.436 694.521 410.408L698.101 408.534C698.271 408.45 698.337 408.236 698.243 408.077C698.158 407.909 697.94 407.853 697.779 407.937L694.199 409.811C694.028 409.895 693.962 410.11 694.057 410.268C694.123 410.38 694.236 410.445 694.36 410.445Z" fill="black"/>
<path d="M697.702 411.079C697.796 411.079 697.891 411.042 697.967 410.967C698.09 410.827 698.081 410.613 697.929 410.492L696.205 409.009C696.063 408.888 695.845 408.897 695.713 409.046C695.59 409.186 695.599 409.401 695.751 409.522L697.474 411.004C697.541 411.06 697.626 411.088 697.702 411.088V411.079Z" fill="black"/>
<path d="M681.639 403.882C681.639 403.882 681.809 401.644 683.543 399.733C685.389 397.7 686.952 398.036 686.952 398.036C686.952 398.036 684.225 403.91 688.809 405.98C692.067 407.453 694.16 406.735 694.16 406.735L698.829 402.176L689.547 394.754C689.547 394.754 681.08 393.589 681.648 403.891L681.639 403.882Z" fill="#0017BF"/>
<path d="M684.802 413.037C684.802 413.037 684.878 413.037 684.916 413.018C684.963 412.999 686.071 412.617 686.791 411.424C686.886 411.265 686.829 411.051 686.668 410.958C686.507 410.864 686.289 410.92 686.194 411.079C685.607 412.058 684.698 412.375 684.688 412.375C684.508 412.44 684.414 412.627 684.471 412.804C684.518 412.944 684.65 413.037 684.793 413.037H684.802Z" fill="black"/>
<path d="M685.74 407.34C685.901 407.34 686.043 407.238 686.081 407.079L686.451 405.466C686.47 405.382 686.451 405.289 686.403 405.205L685.882 404.385C685.778 404.226 685.56 404.179 685.409 404.282C685.248 404.385 685.201 404.59 685.305 404.748L685.75 405.448L685.409 406.921C685.371 407.107 685.485 407.284 685.665 407.331C685.693 407.331 685.712 407.331 685.74 407.331V407.34Z" fill="black"/>
<path d="M681.165 407.304C681.326 407.304 681.468 407.201 681.506 407.043L681.876 405.43C681.894 405.346 681.876 405.253 681.828 405.169L681.307 404.348C681.203 404.19 680.995 404.143 680.834 404.246C680.673 404.348 680.625 404.553 680.73 404.712L681.175 405.411L680.834 406.884C680.796 407.071 680.909 407.248 681.089 407.295C681.118 407.295 681.137 407.295 681.165 407.295V407.304Z" fill="black"/>
<path d="M681.942 403.118C681.942 403.118 681.989 403.118 682.018 403.118L683.031 402.903C683.221 402.866 683.334 402.679 683.296 402.502C683.259 402.315 683.079 402.203 682.889 402.241L681.876 402.455C681.686 402.493 681.573 402.679 681.611 402.857C681.648 403.015 681.791 403.127 681.952 403.127L681.942 403.118Z" fill="black"/>
<path d="M645.98 417.792L629.425 427.787L610.861 403.34L627.426 393.336L645.98 417.792Z" fill="#3DF130"/>
<path d="M648.121 416.626L631.565 426.621L613.002 402.175L629.567 392.17L648.121 416.626Z" fill="#F6F6F6"/>
<path d="M617.652 404.16C617.718 404.16 617.775 404.141 617.832 404.113L629.983 396.776C630.144 396.673 630.201 396.468 630.097 396.309C630.002 396.151 629.784 396.095 629.623 396.198L617.472 403.535C617.311 403.638 617.254 403.843 617.358 404.002C617.424 404.104 617.538 404.16 617.652 404.16Z" fill="#0017BF"/>
<path d="M619.622 406.688C619.689 406.688 619.745 406.669 619.802 406.641L631.954 399.303C632.115 399.201 632.172 398.996 632.067 398.837C631.973 398.679 631.755 398.623 631.594 398.725L619.442 406.063C619.281 406.165 619.225 406.371 619.329 406.529C619.395 406.632 619.509 406.688 619.622 406.688Z" fill="#0017BF"/>
<path d="M621.545 409.243C621.611 409.243 621.668 409.224 621.725 409.196L633.877 401.858C634.038 401.756 634.094 401.551 633.99 401.392C633.896 401.233 633.678 401.178 633.517 401.28L621.365 408.618C621.204 408.72 621.147 408.926 621.252 409.084C621.318 409.187 621.432 409.243 621.545 409.243Z" fill="#0017BF"/>
<path d="M623.477 411.788C623.543 411.788 623.6 411.77 623.657 411.742L635.808 404.404C635.969 404.302 636.026 404.096 635.922 403.938C635.827 403.779 635.609 403.723 635.448 403.826L623.297 411.164C623.136 411.266 623.079 411.471 623.183 411.63C623.249 411.732 623.363 411.788 623.477 411.788Z" fill="#0017BF"/>
<path d="M665.794 405.094L683.751 428.637L666.513 438.548L655.356 409.458L665.794 405.094Z" fill="#FFBB87"/>
<path d="M687.17 403.527C687.313 403.527 687.445 403.443 687.492 403.303C687.559 403.126 687.464 402.93 687.284 402.874L685.153 402.147C684.973 402.091 684.774 402.175 684.717 402.352C684.651 402.529 684.746 402.725 684.926 402.781L687.057 403.508C687.057 403.508 687.133 403.527 687.17 403.527Z" fill="black"/>
<path d="M639.805 428.44C639.805 428.44 639.417 421.727 637.362 419.07C635.306 416.412 631.698 414.343 630.931 415.881C630.164 417.419 632.607 419.648 632.219 420.561C631.831 421.475 629.264 421.018 625.4 419.657C621.535 418.305 618.969 413.904 618.969 413.904C618.969 413.904 618.201 415.648 618.457 417.233C618.713 418.818 619.224 419.657 619.224 419.657C619.224 419.657 618.4 417.83 618.4 421.167C618.4 422.846 619.868 424.02 619.868 424.02C619.868 424.02 618.713 425.4 621.156 428.44C623.6 431.479 630.419 434.267 630.419 434.267C630.419 434.267 638.006 452.504 650.489 457.315C662.972 462.126 672.746 455.665 672.746 455.665L668.891 435.656C668.891 435.656 655.509 440.346 639.815 428.44H639.805Z" fill="#FFBB87"/>
<path d="M625.314 423.471C625.475 423.471 625.617 423.359 625.655 423.201C625.693 423.014 625.579 422.837 625.39 422.8C622.539 422.212 619.214 418.837 619.186 418.8C619.053 418.669 618.836 418.66 618.694 418.791C618.551 418.921 618.551 419.136 618.694 419.275C618.836 419.425 622.198 422.837 625.257 423.471C625.285 423.471 625.304 423.471 625.333 423.471H625.314Z" fill="black"/>
<path d="M624.736 426.78C624.897 426.78 625.049 426.659 625.077 426.5C625.105 426.314 624.982 426.137 624.793 426.109C621.554 425.568 620.152 423.834 620.133 423.815C620.019 423.666 619.802 423.638 619.65 423.759C619.498 423.871 619.47 424.086 619.584 424.235C619.65 424.319 621.156 426.202 624.67 426.78C624.689 426.78 624.708 426.78 624.727 426.78H624.736Z" fill="black"/>
<path d="M679.697 465.418C679.697 465.418 663.113 487.422 649.484 511.86C635.855 536.297 628.288 566.86 628.288 566.86L663.18 568.986L688.553 508.606L681.09 568.184L714.835 567.018C714.835 567.018 722.138 511.71 718.245 485.623C714.352 459.535 709.787 454.044 709.787 454.044L679.707 465.418H679.697Z" fill="#FFB904"/>
<path d="M699.786 407.872C699.89 407.872 699.985 407.825 700.06 407.741C705.942 400.45 698.024 393.933 697.948 393.868C697.797 393.747 697.579 393.774 697.465 393.914C697.342 394.064 697.37 394.278 697.513 394.39C697.825 394.642 704.985 400.543 699.52 407.312C699.407 407.462 699.426 407.676 699.577 407.788C699.644 407.835 699.719 407.863 699.795 407.863L699.786 407.872Z" fill="white"/>
<path d="M660.575 435.909C660.575 435.909 673.854 421.28 689.888 420.329C705.923 419.378 711.322 426.977 712.098 430.585C712.866 434.193 714.22 460.029 713.254 461.745C712.288 463.451 705.705 466.49 695.012 467.255C684.31 468.019 678.712 466.686 677.945 466.117C677.178 465.549 676.212 457.568 676.212 457.568L667.139 459.852L660.575 435.918V435.909Z" fill="#3DF130"/>
<path d="M694.169 413.615C694.169 413.615 689.651 423.619 694.349 427.582C699.047 431.544 706.036 428.98 706.036 428.98C706.036 428.98 708.395 430.463 712.903 428.962C717.411 427.461 719.618 423.349 719.618 423.349L694.169 413.615Z" fill="#0017BF"/>
<path d="M665.794 405.094C665.794 405.094 661.286 398.129 659.022 396.6C656.758 395.071 644.124 390.176 642.874 391.369C641.623 392.563 649.011 397.551 649.011 397.551C649.011 397.551 647.742 397.821 647.429 398.828C647.117 399.835 647.676 400.656 647.676 400.656C647.676 400.656 646.103 400.6 645.658 401.653C645.213 402.707 645.942 403.863 645.942 403.863C645.942 403.863 648.841 409.084 650.498 409.187C652.146 409.299 651.928 406.408 651.928 406.408C651.928 406.408 652.525 409.038 653.964 410.492C655.404 411.937 658.359 412.096 661.409 410.511C664.459 408.926 665.794 405.084 665.794 405.084V405.094Z" fill="#FFBB87"/>
<path d="M662.271 409.654C662.441 409.654 662.593 409.523 662.611 409.346C662.63 409.159 662.498 408.992 662.299 408.973C658.823 408.609 657.971 404.199 657.961 404.153C657.942 404.059 657.895 403.985 657.81 403.929C657.734 403.882 657.63 403.864 657.544 403.882C655.896 404.236 653.917 404.367 653.595 403.957C653.529 403.873 653.595 403.714 653.652 403.593C654.561 401.812 658.757 399.994 658.795 399.976C658.965 399.901 659.05 399.696 658.975 399.528C658.899 399.36 658.69 399.276 658.52 399.351C658.34 399.425 654.05 401.281 653.036 403.285C652.761 403.817 652.894 404.171 653.055 404.376C653.718 405.215 656.199 404.843 657.355 404.619C657.639 405.756 658.795 409.299 662.223 409.654C662.233 409.654 662.252 409.654 662.261 409.654H662.271Z" fill="black"/>
<path d="M653.747 403.201C653.889 403.201 654.031 403.108 654.078 402.968C654.135 402.791 654.04 402.595 653.86 402.539C651.871 401.895 649.343 397.429 649.314 397.383C649.22 397.215 649.011 397.159 648.841 397.252C648.67 397.346 648.613 397.551 648.708 397.718C648.822 397.914 651.398 402.464 653.643 403.191C653.68 403.201 653.718 403.21 653.747 403.21V403.201Z" fill="black"/>
<path d="M652.923 407.014C652.923 407.014 652.961 407.014 652.989 407.014C653.662 406.977 654.173 406.744 654.505 406.315C655.082 405.56 654.855 404.506 654.846 404.459C654.808 404.273 654.618 404.161 654.438 404.198C654.249 404.236 654.135 404.422 654.173 404.599C654.173 404.599 654.344 405.401 653.955 405.895C653.756 406.156 653.415 406.296 652.961 406.324C651.682 406.38 649.229 402.781 647.998 400.488C647.913 400.32 647.704 400.254 647.534 400.348C647.363 400.432 647.297 400.637 647.392 400.805C647.733 401.448 650.792 407.005 652.942 407.005L652.923 407.014Z" fill="black"/>
<path d="M676.212 457.912C676.344 457.912 676.477 457.828 676.534 457.707C676.979 456.672 679.129 451.442 677.434 450.323C677.083 450.09 676.799 450.183 676.657 450.267C675.53 450.91 675.767 456.038 675.871 457.595C675.88 457.754 676.003 457.884 676.155 457.912C676.174 457.912 676.193 457.912 676.212 457.912ZM676.998 450.854C677.756 451.358 677.244 453.773 676.477 455.926C676.411 453.26 676.619 451.041 676.998 450.854Z" fill="white"/>
<path d="M690.599 471.608C697.759 471.608 707.372 470.424 713.15 464.877C713.282 464.746 713.292 464.532 713.15 464.392C713.017 464.261 712.799 464.252 712.657 464.392C703.025 473.632 681.601 470.312 681.393 470.275C681.204 470.247 681.024 470.368 680.995 470.555C680.967 470.741 681.09 470.918 681.279 470.946C681.649 471.002 685.503 471.608 690.59 471.608H690.599Z" fill="white"/>
<path d="M688.392 508.95C688.505 508.95 688.629 508.885 688.695 508.783C688.742 508.699 693.601 500.68 706.198 495.962C706.378 495.897 706.463 495.701 706.397 495.524C706.33 495.347 706.131 495.254 705.951 495.328C693.108 500.139 688.146 508.363 688.098 508.438C688.004 508.596 688.06 508.811 688.221 508.904C688.278 508.932 688.335 508.95 688.392 508.95Z" fill="white"/>
<path d="M717.828 490.47C718.15 490.47 718.472 490.461 718.804 490.442C718.993 490.433 719.135 490.265 719.126 490.078C719.116 489.892 718.965 489.761 718.756 489.761C715.773 489.957 713.377 489.23 711.624 487.589C708.802 484.95 708.499 480.671 708.461 479.655L716.748 476.41C716.928 476.345 717.013 476.14 716.938 475.972C716.862 475.804 716.663 475.711 716.493 475.785L707.978 479.114C707.845 479.16 707.76 479.291 707.76 479.421C707.76 479.645 707.703 484.876 711.132 488.083C712.827 489.668 715.072 490.47 717.809 490.47H717.828Z" fill="white"/>
<path d="M682.453 493.585C689.746 493.585 692.237 482.117 692.256 481.996C692.294 481.828 692.19 481.651 692.019 481.604L679.138 477.67C678.968 477.623 678.778 477.707 678.712 477.865C678.561 478.229 675.141 486.742 677.642 491.096C678.4 492.42 679.621 493.222 681.279 493.483C681.677 493.548 682.065 493.576 682.444 493.576L682.453 493.585ZM691.508 482.164C691.044 484.028 688.25 493.921 681.392 492.821C679.953 492.588 678.892 491.907 678.248 490.769C676.155 487.124 678.665 479.954 679.242 478.416L691.508 482.154V482.164Z" fill="white"/>
<path d="M653.187 592.751C653.187 592.751 658.131 569.927 654.399 569.852C650.658 569.778 644.625 572.155 644.625 572.155C644.625 572.155 636.934 566.542 632.9 568.398C628.856 570.263 625.929 575.26 625.929 575.26L603.501 585.218C603.501 585.218 600.432 588.714 600.84 590.756C601.162 592.35 632.303 596.201 645.979 597.814C649.503 598.234 652.695 595.987 653.206 592.751H653.187Z" fill="#E64218"/>
<path d="M623.647 582.263C623.742 582.263 623.846 582.225 623.912 582.141C624.007 582.039 624.026 581.89 623.96 581.768L622.52 578.804L630.978 580.957C631.129 580.995 631.281 580.929 631.366 580.799C631.442 580.668 631.423 580.5 631.319 580.389L626.166 575.009C626.034 574.869 625.816 574.869 625.674 574.99C625.532 575.121 625.532 575.335 625.655 575.475L629.983 579.997L621.961 577.955C621.829 577.927 621.696 577.964 621.611 578.067C621.525 578.17 621.506 578.309 621.563 578.431L622.984 581.34L616.771 579.391C616.591 579.335 616.392 579.438 616.335 579.615C616.278 579.792 616.373 579.988 616.563 580.044L623.533 582.225C623.533 582.225 623.6 582.244 623.638 582.244L623.647 582.263Z" fill="#0017BF"/>
<path d="M688.127 572.49C688.127 572.49 674.82 593.888 677.112 596.527C679.404 599.165 695.619 599.538 703.025 598.373C710.422 597.207 713.264 596.331 713.823 594.55C714.381 592.769 710.868 570.784 710.868 570.784C710.868 570.784 707.609 567.167 703.139 568.099C698.669 569.031 691.669 572.434 691.669 572.434C691.669 572.434 689.927 569.497 688.118 572.481L688.127 572.49Z" fill="#E64218"/>
<path d="M688.638 574.542C688.695 574.542 688.761 574.524 688.818 574.496L691.848 572.734C692.01 572.64 692.066 572.426 691.972 572.267C691.877 572.109 691.659 572.053 691.498 572.146L688.467 573.908C688.306 574.002 688.249 574.216 688.344 574.375C688.41 574.486 688.524 574.542 688.638 574.542Z" fill="#0017BF"/>
<path d="M605.054 479.878H639.529C641.016 479.878 642.228 478.685 642.228 477.221V461.772C642.228 460.308 641.016 459.115 639.529 459.115H605.054C603.567 459.115 602.354 460.308 602.354 461.772V477.221C602.354 478.685 603.567 479.878 605.054 479.878Z" fill="#F6F6F6"/>
<path d="M624.48 460.634L637.096 451.767L634.008 460.634H624.48Z" fill="#F6F6F6"/>
<path d="M613.967 475.832H609.591V463.171H613.967V475.832Z" fill="#3DF130"/>
<path d="M620.985 475.832H616.609V465.446H620.985V475.832Z" fill="#FFB904"/>
<path d="M635.002 475.832H630.626V465.446H635.002V475.832Z" fill="#5EF939"/>
<path d="M627.984 475.823H623.608V469.492H627.984V475.823Z" fill="#373178"/>
<path d="M482.716 415.44V469.16C482.716 470.903 484.184 472.33 485.993 472.33H590.299C592.098 472.33 593.566 470.903 593.566 469.16V415.44C593.566 413.697 592.098 412.27 590.299 412.27H485.993C484.184 412.27 482.716 413.697 482.716 415.44Z" fill="#40398D"/>
<path d="M482.716 412.322V416.332H593.566V412.322C593.566 410.234 592.098 408.537 590.299 408.537H485.993C484.184 408.537 482.716 410.234 482.716 412.322Z" fill="#EDEDED"/>
<path d="M575.382 414.289C574.341 414.289 573.497 413.459 573.497 412.434C573.497 411.409 574.341 410.578 575.382 410.578C576.423 410.578 577.267 411.409 577.267 412.434C577.267 413.459 576.423 414.289 575.382 414.289Z" fill="#FFB904"/>
<path d="M581.415 414.289C580.374 414.289 579.53 413.459 579.53 412.434C579.53 411.409 580.374 410.578 581.415 410.578C582.456 410.578 583.3 411.409 583.3 412.434C583.3 413.459 582.456 414.289 581.415 414.289Z" fill="#E64218"/>
<path d="M587.438 414.289C586.398 414.289 585.554 413.459 585.554 412.434C585.554 411.409 586.398 410.578 587.438 410.578C588.479 410.578 589.323 411.409 589.323 412.434C589.323 413.459 588.479 414.289 587.438 414.289Z" fill="#0017BF"/>
<path d="M496.521 440.154H516.885C517.657 440.154 518.283 440.78 518.283 441.552C518.283 442.325 517.657 442.951 516.885 442.951H496.521C495.749 442.951 495.122 442.325 495.122 441.552C495.122 440.78 495.749 440.154 496.521 440.154Z" fill="#FFB904"/>
<path d="M522.118 440.154H542.481C543.254 440.154 543.88 440.78 543.88 441.552C543.88 442.325 543.254 442.951 542.481 442.951H522.118C521.345 442.951 520.719 442.325 520.719 441.552C520.719 440.78 521.345 440.154 522.118 440.154Z" fill="#3DF130"/>
<path d="M496.522 430.783H506.398C507.171 430.783 507.797 431.409 507.797 432.181C507.797 432.954 507.171 433.58 506.398 433.58H496.522C495.749 433.58 495.123 432.954 495.123 432.181C495.123 431.409 495.749 430.783 496.522 430.783Z" fill="#3DF130"/>
<path d="M511.026 430.783H537.489C538.262 430.783 538.888 431.409 538.888 432.181C538.888 432.954 538.262 433.58 537.489 433.58H511.026C510.254 433.58 509.628 432.954 509.628 432.181C509.628 431.409 510.254 430.783 511.026 430.783Z" fill="#E64218"/>
<path d="M496.522 449.235H548.231C549.004 449.235 549.63 449.861 549.63 450.634C549.63 451.406 549.004 452.032 548.231 452.032H496.522C495.749 452.032 495.123 451.406 495.123 450.634C495.123 449.861 495.749 449.235 496.522 449.235Z" fill="#3DF130"/>
<path d="M554.99 430.047H580.032V454.699H554.99V430.047Z" fill="#2E2C6E"/>
<path d="M559.221 443.519V442.335L564.881 439.71V441.175L560.896 442.892V442.962L564.881 444.679V446.144L559.221 443.519ZM570.084 437.413L567.354 447.573H566.041L568.783 437.413H570.084ZM564.881 465.519L559.221 468.144V466.679L563.205 464.962V464.892L559.221 463.175V461.71L564.881 464.335V465.519Z" fill="#3DF130"/>
<path d="M510.096 567.133C510.096 567.133 508.827 582.312 509.282 582.843C509.737 583.375 546.371 594.088 546.371 594.088L541.474 572.13L533.31 557.315L510.096 567.133Z" fill="#001AF8"/>
<path d="M435.368 565.473H491.627C494.682 565.473 497.158 567.911 497.158 570.918V593.127C497.158 596.134 494.682 598.572 491.627 598.572H435.368C432.313 598.572 429.837 596.134 429.837 593.127V570.918C429.837 567.911 432.313 565.473 435.368 565.473Z" fill="#1D4568"/>
<path d="M466.803 483.266C466.803 483.266 475.034 481.625 480.839 486.502C486.645 491.378 489.903 528.635 489.903 528.635C489.903 528.635 470.459 538.994 453.884 538.994C437.31 538.994 438.768 538.248 438.768 538.248L434.904 523.134L466.794 483.276L466.803 483.266Z" fill="#0017BF"/>
<path d="M440.445 565.473H496.704C499.759 565.473 502.235 567.911 502.235 570.918V593.127C502.235 596.134 499.759 598.572 496.704 598.572H440.445C437.39 598.572 434.914 596.134 434.914 593.127V570.918C434.914 567.911 437.39 565.473 440.445 565.473Z" fill="#40398D"/>
<path d="M514.254 463.836C514.254 463.836 516.631 457.878 517.9 459.575C519.169 461.272 516.877 470.223 516.877 470.223C516.877 470.223 511.45 471.062 514.254 463.836Z" fill="#FFBB87"/>
<path d="M478.661 461.804H502.955C503.834 461.804 504.546 462.505 504.546 463.37V487.286C504.546 488.151 503.834 488.852 502.955 488.852H478.661C477.782 488.852 477.07 488.151 477.07 487.286V463.37C477.07 462.505 477.782 461.804 478.661 461.804Z" fill="#F6F6F6"/>
<path d="M487.471 478.911C484.667 476.151 484.667 471.676 487.471 468.916C490.275 466.156 494.82 466.156 497.624 468.916C500.427 471.676 500.427 476.151 497.624 478.911C494.82 481.671 490.275 481.671 487.471 478.911Z" fill="#5EF939"/>
<path d="M487.64 473.998L484.76 478.902L481.891 483.797H487.64H493.389L490.509 478.902L487.64 473.998Z" fill="#E64218"/>
<path d="M508.552 486.679C508.552 486.679 502.746 481.317 503.021 478.474C503.296 475.63 504.65 469.243 504.65 469.243C504.65 469.243 498.939 463.397 499.213 462.148C499.488 460.899 503.883 462.866 503.883 462.866C503.883 462.866 499.194 458.316 499.204 456.526C499.204 454.745 501.657 455.631 501.657 455.631C501.657 455.631 501.297 453.58 502.746 453.757C504.195 453.934 513.269 460.097 515.892 463.397C518.525 466.698 515.712 475.145 515.892 476.32C516.072 477.495 517.891 479.91 517.891 479.91L508.552 486.669V486.679Z" fill="#FFBB87"/>
<path d="M519.074 476.338L501.666 484.897C501.666 484.897 504.025 491.61 498.579 493.577C493.142 495.545 486.787 486.771 479.542 484.552C472.287 482.333 466.462 483.769 466.462 483.769L469.919 513.483C469.919 513.483 502.509 530.536 518.288 519.283C534.067 508.038 519.084 476.329 519.084 476.329L519.074 476.338Z" fill="#0017BF"/>
<path d="M516.953 466.679C517.19 466.651 517.322 466.473 517.294 466.287C517.285 466.184 516.934 463.807 515.476 462.399C515.343 462.269 515.125 462.269 514.983 462.399C514.85 462.53 514.85 462.753 514.983 462.884C516.271 464.124 516.593 466.352 516.603 466.371C516.631 466.539 516.773 466.669 516.944 466.669L516.953 466.679Z" fill="black"/>
<path d="M509.282 462.139C509.386 462.139 509.481 462.092 509.547 462.017C509.67 461.868 509.651 461.654 509.5 461.542L501.885 455.379C501.743 455.258 501.525 455.276 501.402 455.425C501.279 455.575 501.298 455.789 501.449 455.901L509.064 462.064C509.13 462.12 509.206 462.139 509.282 462.139Z" fill="black"/>
<path d="M506.384 464.832C506.497 464.832 506.602 464.777 506.668 464.674C506.772 464.515 506.725 464.31 506.573 464.208L504.073 462.585C503.912 462.483 503.703 462.53 503.599 462.679C503.495 462.837 503.542 463.042 503.694 463.145L506.194 464.767C506.251 464.805 506.317 464.823 506.384 464.823V464.832Z" fill="black"/>
<path d="M557.035 571.617C557.035 571.617 583.839 585.78 587.267 587.71C590.696 589.64 592.77 595.766 591.406 596.894C590.043 598.022 545.84 597.537 542.402 596.894C538.964 596.251 536.511 580.456 536.511 580.456L557.035 571.617Z" fill="#001AF8"/>
<path d="M565.683 579.039C565.683 579.039 565.768 579.039 565.806 579.021C566.194 578.871 575.353 575.403 574.614 570.061C574.5 569.231 574.169 568.746 573.619 568.615C572.312 568.298 570.03 570.629 568.287 572.746C569.48 570.126 570.74 566.695 570.011 565.11C569.802 564.644 569.424 564.345 568.922 564.233C568.429 564.131 567.956 564.233 567.51 564.55C564.877 566.424 563.874 575.757 563.826 576.149C563.807 576.335 563.94 576.503 564.139 576.522C564.338 576.531 564.499 576.401 564.518 576.214C564.792 573.604 565.938 566.499 567.918 565.091C568.202 564.895 568.477 564.821 568.77 564.886C569.064 564.951 569.253 565.11 569.386 565.38C570.276 567.31 567.245 573.52 566.005 575.748C565.919 575.907 565.967 576.102 566.128 576.205C566.289 576.298 566.488 576.261 566.592 576.112C568.704 573.1 572.237 568.97 573.458 569.268C573.752 569.333 573.875 569.781 573.932 570.144C574.595 574.946 565.654 578.34 565.569 578.368C565.389 578.433 565.304 578.629 565.37 578.806C565.417 578.946 565.55 579.03 565.692 579.03L565.683 579.039Z" fill="#FFB904"/>
<path d="M480.509 520.402C480.509 520.402 507.104 496.916 522.371 500.664C537.639 504.412 538.804 520.113 541.522 537.781C544.24 555.459 545.093 568.372 545.093 568.372L508.543 569.09L506.375 538.21L467.315 526.248L480.499 520.402H480.509Z" fill="#3DF130"/>
<path d="M438.778 538.239C438.778 538.239 441.137 557.474 449.225 563.189C457.313 568.905 471.217 567.124 484.723 559.861C498.011 552.719 501.932 550.071 503.448 550.071C504.963 550.071 531.302 585.986 531.302 585.986L562.046 570.182C562.046 570.182 538.614 514.445 519.198 510.324C500.407 506.334 458.223 532.496 458.223 532.496L438.778 538.239Z" fill="#4EFD62"/>
<path d="M453.894 461.085C453.894 461.085 442.879 458.176 438.882 465.523C434.894 472.87 438.333 502.678 438.333 502.678L455.248 491.722L454.888 476.944L453.884 461.085H453.894Z" fill="#0017BF"/>
<path d="M476.123 499.704L489.014 510.986C489.014 510.986 470.677 539.339 444.565 534.817C418.453 530.295 429.942 506.482 434.289 500.068C441.061 490.073 449.348 484.357 456.793 483.854C464.228 483.341 476.123 499.713 476.123 499.713V499.704Z" fill="#0017BF"/>
<path d="M456.792 478.064L456.991 485.961C456.991 485.961 458.497 488.199 463.195 488.46C466.699 488.656 467.76 486.856 467.76 486.856L466.737 479.966L458.213 478.344L456.783 478.073L456.792 478.064Z" fill="#FFBB87"/>
<path d="M458.222 478.333C458.251 478.548 458.336 478.8 458.478 479.089C460.372 482.986 465.307 483.723 467.324 483.844L466.746 479.956L458.222 478.333Z" fill="black"/>
<path d="M468.072 461.916C468.072 461.916 472.533 471.715 471.018 477.253C469.503 482.791 464.379 481.971 461.301 480.936C458.232 479.892 456.792 478.064 456.792 478.064C456.792 478.064 453.941 479.043 452.009 476.442C450.068 473.841 451.223 470.829 452.843 470.121C454.472 469.412 456.423 470.559 456.423 470.559L454.87 467.715C454.87 467.715 461.13 453.123 468.072 461.916Z" fill="#FFBB87"/>
<path d="M462.115 467.192C462.238 467.192 462.351 467.126 462.418 467.015C462.673 466.576 462.996 466.297 463.374 466.203C464.028 466.036 464.691 466.427 464.7 466.437C464.861 466.539 465.079 466.483 465.174 466.325C465.278 466.166 465.221 465.961 465.06 465.858C465.022 465.84 464.151 465.308 463.204 465.541C462.626 465.681 462.162 466.073 461.812 466.679C461.717 466.847 461.774 467.052 461.944 467.145C462.001 467.173 462.058 467.192 462.115 467.192Z" fill="black"/>
<path d="M469.493 466.259C469.54 466.259 469.588 466.25 469.635 466.231C469.806 466.157 469.881 465.952 469.806 465.784C469.673 465.495 469.455 465.308 469.171 465.234C468.489 465.047 467.665 465.588 467.57 465.653C467.419 465.756 467.371 465.97 467.485 466.129C467.589 466.287 467.807 466.324 467.968 466.213C468.177 466.073 468.697 465.812 468.991 465.896C469.048 465.914 469.124 465.942 469.18 466.073C469.237 466.194 469.36 466.269 469.493 466.269V466.259Z" fill="black"/>
<path d="M462.447 469.272C462.561 469.272 462.674 469.216 462.741 469.113C462.873 468.908 463.025 468.796 463.214 468.768C463.64 468.703 464.18 469.057 464.332 469.188C464.474 469.309 464.692 469.29 464.815 469.15C464.938 469.01 464.919 468.796 464.777 468.675C464.692 468.6 463.915 467.976 463.11 468.097C462.722 468.153 462.39 468.376 462.153 468.749C462.049 468.908 462.097 469.122 462.258 469.216C462.314 469.253 462.381 469.272 462.447 469.272Z" fill="black"/>
<path d="M468.157 469.02C468.28 469.02 468.404 468.955 468.47 468.834C468.517 468.74 468.943 467.967 469.777 468.312C469.947 468.386 470.156 468.312 470.232 468.134C470.307 467.957 470.232 467.761 470.052 467.687C468.896 467.202 468.11 468.032 467.854 468.535C467.769 468.703 467.835 468.908 468.015 468.992C468.063 469.02 468.119 469.03 468.167 469.03L468.157 469.02Z" fill="black"/>
<path d="M467.769 473.821C467.949 473.821 468.101 473.69 468.11 473.513C468.29 471.508 467.163 469.196 467.116 469.103C467.031 468.935 466.822 468.86 466.652 468.944C466.481 469.028 466.406 469.233 466.491 469.401C466.5 469.42 467.58 471.648 467.419 473.457C467.4 473.643 467.542 473.811 467.732 473.83C467.741 473.83 467.751 473.83 467.76 473.83L467.769 473.821Z" fill="black"/>
<path d="M465.317 476.673C465.478 476.673 465.62 476.562 465.658 476.412C465.696 476.226 465.582 476.049 465.402 476.002C465.383 476.002 463.602 475.583 463.101 474.333C463.034 474.156 462.826 474.072 462.655 474.147C462.475 474.212 462.39 474.417 462.466 474.585C463.11 476.17 465.175 476.645 465.26 476.664C465.288 476.664 465.307 476.664 465.336 476.664L465.317 476.673Z" fill="black"/>
<path d="M456.12 474.801C456.224 474.801 456.319 474.754 456.385 474.68C456.508 474.531 456.48 474.316 456.338 474.204L453.108 471.612C452.957 471.491 452.739 471.519 452.625 471.659C452.502 471.808 452.53 472.022 452.672 472.134L455.902 474.726C455.968 474.773 456.044 474.801 456.12 474.801Z" fill="black"/>
<path d="M452.881 474.8C452.928 474.8 452.985 474.791 453.032 474.763L455.04 473.784C455.211 473.7 455.277 473.495 455.201 473.327C455.116 473.159 454.908 473.094 454.737 473.169L452.729 474.148C452.559 474.232 452.493 474.437 452.568 474.605C452.625 474.726 452.748 474.791 452.881 474.791V474.8Z" fill="black"/>
<path d="M456.423 470.558C456.423 470.558 459.927 470.185 462.124 467.322C464.312 464.46 465.326 461.551 465.326 461.551C465.326 461.551 466.813 461.784 467.769 462.94C468.48 463.789 469.304 465.029 469.304 465.029C469.304 465.029 469.351 461.047 467.296 459.108C465.24 457.169 463.498 457.859 463.498 457.859C463.498 457.859 459.008 455.397 454.5 459.397C449.992 463.397 452.189 470.567 452.189 470.567C452.189 470.567 454.481 469.644 456.423 470.567V470.558Z" fill="#0017BF"/>
<path d="M477.221 480.637C477.221 480.637 477.098 477.29 478.188 476.143C479.277 474.996 480.11 476.721 480.11 476.721C480.11 476.721 481.076 473.458 482.165 474.446C483.255 475.435 483.624 477.7 483.624 477.7C483.624 477.7 485.547 476.283 486.276 479.089C487.005 481.896 487.128 485.989 489.903 488.581C492.688 491.173 495.103 497.215 493.048 502.277C490.993 507.34 487.128 507.536 487.128 507.536L479.873 500.002C479.873 500.002 481.266 495.201 479.087 493.476C476.909 491.751 474.522 490.632 474.096 486.67C473.935 485.169 477.221 480.619 477.221 480.619V480.637ZM478.547 488.469L477.847 484.898C475.668 487.751 478.547 488.469 478.547 488.469Z" fill="#FFBB87"/>
<path d="M478.539 488.804C478.539 488.804 478.614 488.804 478.652 488.785C478.832 488.72 478.927 488.524 478.861 488.347C477.8 485.373 477.563 480.664 477.554 480.608C477.554 480.422 477.374 480.301 477.194 480.282C477.004 480.282 476.853 480.45 476.862 480.636C476.862 480.832 477.108 485.494 478.207 488.562C478.254 488.701 478.387 488.785 478.529 488.785L478.539 488.804Z" fill="black"/>
<path d="M481.985 488.115C482.042 488.115 482.099 488.096 482.156 488.068C482.326 487.975 482.383 487.77 482.288 487.602C480.28 484.078 480.962 476.432 480.972 476.358C480.991 476.171 480.849 476.003 480.659 475.985C480.47 475.975 480.299 476.106 480.28 476.292C480.252 476.619 479.57 484.218 481.682 487.928C481.748 488.04 481.862 488.105 481.985 488.105V488.115Z" fill="black"/>
<path d="M485.339 488.115C485.424 488.115 485.519 488.078 485.585 488.012C485.718 487.882 485.718 487.667 485.585 487.528C484.108 486.073 483.918 479.938 483.966 477.7C483.966 477.514 483.814 477.355 483.625 477.355C483.473 477.355 483.274 477.505 483.274 477.691C483.274 478.036 483.113 486.064 485.093 488.012C485.159 488.078 485.244 488.115 485.339 488.115Z" fill="black"/>
<path d="M540.291 529.94C540.347 529.94 540.414 529.921 540.471 529.893C540.632 529.8 540.688 529.586 540.594 529.427C540.518 529.306 533.083 517.139 522.845 511.274C511.564 504.813 484.931 517.987 483.804 518.556C483.634 518.64 483.568 518.845 483.653 519.013C483.738 519.181 483.946 519.246 484.117 519.162C484.392 519.022 511.546 505.587 522.494 511.861C532.572 517.642 539.921 529.651 539.997 529.772C540.063 529.884 540.177 529.94 540.291 529.94Z" fill="white"/>
<path d="M503.447 550.415C503.447 550.415 503.513 550.415 503.542 550.405C503.655 550.377 503.741 550.293 503.778 550.191C504.015 549.51 506.061 543.524 504.091 542.061C503.655 541.734 503.201 541.772 502.888 542.163C501.865 543.431 502.32 549.594 503.229 550.34C503.295 550.387 503.371 550.415 503.447 550.415ZM503.513 542.517C503.513 542.517 503.589 542.536 503.674 542.592C504.735 543.375 504.138 546.732 503.4 549.128C502.983 547.478 502.708 543.45 503.438 542.573C503.466 542.536 503.485 542.517 503.523 542.517H503.513Z" fill="white"/>
<path d="M498.579 501.691C498.911 501.691 499.195 501.551 499.394 501.29C500.54 499.826 499.081 494.138 498.911 493.495C498.835 493.197 498.323 493.197 498.238 493.495C498.068 494.138 496.609 499.826 497.755 501.29C497.963 501.551 498.248 501.691 498.57 501.691H498.579ZM498.579 495.071C499.062 497.327 499.431 500.134 498.854 500.879C498.702 501.075 498.465 501.075 498.314 500.879C497.736 500.143 498.096 497.336 498.589 495.071H498.579Z" fill="#FFB904"/>
<path d="M463.167 488.917C466.444 488.917 468.764 486.968 468.802 486.94C468.944 486.819 468.963 486.605 468.83 486.465C468.707 486.325 468.489 486.306 468.347 486.437C468.129 486.623 463.006 490.912 457.228 485.719C457.086 485.598 456.868 485.598 456.736 485.738C456.603 485.877 456.622 486.092 456.755 486.222C459.047 488.283 461.263 488.936 463.167 488.936V488.917Z" fill="#FFB904"/>
<path d="M451.649 507.881C451.649 507.881 451.725 507.881 451.753 507.862C458.715 505.615 474.049 500.105 474.2 500.049C474.38 499.983 474.475 499.788 474.408 499.61C474.342 499.433 474.143 499.349 473.963 499.405C473.812 499.461 458.487 504.972 451.536 507.219C451.356 507.275 451.261 507.47 451.318 507.647C451.365 507.787 451.498 507.881 451.649 507.881Z" fill="#FFB904"/>
<path d="M445.294 509.821C447.804 509.821 452.445 507.723 453.032 507.453C453.174 507.387 453.259 507.229 453.221 507.07C453.184 506.912 453.051 506.8 452.89 506.8C451.555 506.772 444.83 506.716 443.779 508.189C443.599 508.441 443.561 508.739 443.675 509.028C443.788 509.317 444.015 509.532 444.347 509.672C444.603 509.774 444.925 509.821 445.294 509.821ZM451.242 507.481C449.035 508.376 445.768 509.504 444.612 509.047C444.413 508.972 444.356 508.87 444.328 508.795C444.29 508.702 444.309 508.646 444.347 508.59C444.887 507.835 448.382 507.537 451.242 507.49V507.481Z" fill="#FFB904"/>
<path d="M446.099 545.221C452.35 545.1 454.197 539.133 454.216 539.077C454.273 538.9 454.169 538.704 453.979 538.658C453.799 538.602 453.61 538.704 453.553 538.891C453.487 539.114 451.82 544.438 446.09 544.55C445.9 544.55 445.749 544.709 445.749 544.895C445.749 545.082 445.91 545.231 446.099 545.231V545.221Z" fill="white"/>
<path d="M463.043 422.048H512.511C513.837 422.048 514.917 420.985 514.917 419.68V396.035C514.917 394.729 513.837 393.667 512.511 393.667H463.043C461.717 393.667 460.638 394.729 460.638 396.035V419.68C460.638 420.985 461.717 422.048 463.043 422.048ZM512.511 394.356C513.458 394.356 514.216 395.112 514.216 396.044V419.689C514.216 420.621 513.449 421.376 512.511 421.376H463.043C462.096 421.376 461.338 420.621 461.338 419.689V396.044C461.338 395.112 462.106 394.356 463.043 394.356H512.511Z" fill="#E64218"/>
<path d="M460.988 399.588H514.567C514.756 399.588 514.917 399.439 514.917 399.252C514.917 399.066 514.765 398.917 514.567 398.917H460.988C460.799 398.917 460.638 399.066 460.638 399.252C460.638 399.439 460.789 399.588 460.988 399.588Z" fill="#E64218"/>
<path d="M464.757 398.309C465.676 398.309 466.434 397.573 466.434 396.659C466.434 395.745 465.685 395.009 464.757 395.009C463.829 395.009 463.081 395.745 463.081 396.659C463.081 397.573 463.829 398.309 464.757 398.309ZM464.757 395.698C465.297 395.698 465.742 396.127 465.742 396.668C465.742 397.209 465.307 397.638 464.757 397.638C464.208 397.638 463.772 397.209 463.772 396.668C463.772 396.127 464.208 395.698 464.757 395.698Z" fill="#E64218"/>
<path d="M469.2 398.309C470.118 398.309 470.876 397.573 470.876 396.659C470.876 395.745 470.128 395.009 469.2 395.009C468.271 395.009 467.523 395.745 467.523 396.659C467.523 397.573 468.271 398.309 469.2 398.309ZM469.2 395.698C469.739 395.698 470.185 396.127 470.185 396.668C470.185 397.209 469.749 397.638 469.2 397.638C468.65 397.638 468.215 397.209 468.215 396.668C468.215 396.127 468.65 395.698 469.2 395.698Z" fill="#E64218"/>
<path d="M473.641 398.309C474.56 398.309 475.317 397.573 475.317 396.659C475.317 395.745 474.569 395.009 473.641 395.009C472.713 395.009 471.965 395.745 471.965 396.659C471.965 397.573 472.713 398.309 473.641 398.309ZM473.641 395.698C474.181 395.698 474.626 396.127 474.626 396.668C474.626 397.209 474.19 397.638 473.641 397.638C473.092 397.638 472.656 397.209 472.656 396.668C472.656 396.127 473.092 395.698 473.641 395.698Z" fill="#E64218"/>
<path d="M41.8226 505.76L52.5457 516.428L63.3213 499.506L57.26 493.269L41.8226 505.76Z" fill="#FFBB87"/>
<path d="M47.4998 477.307C46.3978 476.923 41.7009 482.209 41.1324 482.489C40.5639 482.768 41.9021 486.928 40.6339 487.225C39.3656 487.521 37.0653 487.016 35.2198 487.469C33.488 487.888 13.931 504.958 10.5724 508.752C10.2925 509.075 10.345 509.572 10.6949 509.851C11.4646 510.488 12.9602 511.631 14.7445 512.625C16.6949 513.707 19.004 514.597 21.1294 514.448C26.1585 514.091 33.3219 509.494 36.9516 509.005C40.5901 508.517 46.3715 509.939 47.15 508.046C47.9284 506.162 47.771 500.71 51.9343 497.91C56.0976 495.11 58.6253 494.517 58.8614 492.729C59.0189 491.525 54.2608 485.062 50.8235 480.901C49.1792 478.904 47.8409 477.429 47.4911 477.307H47.4998Z" fill="#E64218"/>
<path d="M47.4996 477.307C46.3976 476.923 41.7008 482.209 41.1322 482.489C40.5637 482.768 41.9019 486.928 40.6337 487.225C39.3655 487.521 37.0651 487.016 35.2197 487.469C33.4879 487.888 13.9309 504.958 10.5722 508.752C10.2923 509.075 10.3448 509.572 10.6947 509.851C11.4644 510.488 12.96 511.631 14.7443 512.625L50.832 480.901C49.1877 478.904 47.8495 477.429 47.4996 477.307Z" fill="white"/>
<path d="M90.374 565.729L88.1349 572.088L75.4351 576.144L69.3301 573.431L72.5838 558.855L90.374 565.729Z" fill="#FFBB87"/>
<path d="M67.5636 465.227C67.5636 465.227 65.2808 476.628 64.205 486.319C63.1291 496.009 61.3886 509.024 61.3886 509.024C61.3886 509.024 53.4119 538.846 72.5753 541.481C96.3393 544.752 95.1323 516.647 95.1323 516.647L87.9865 457.83L67.5636 465.227Z" fill="#FFB904"/>
<path d="M41.4642 510.628L61.1349 493.706L66.995 501.94L68.5781 540.442C68.5781 540.442 60.0154 539.29 41.4642 510.628Z" fill="#FFB904"/>
<path d="M105.567 462.557C105.567 462.557 113.5 494.09 110.99 517.335C108.479 540.59 96.9165 569.104 96.9165 569.104L66.0591 563.374L76.3712 528.91L83.8231 464.101L105.567 462.557Z" fill="#FFB904"/>
<path d="M66.2518 591.818C66.8116 592.83 73.8525 592.045 74.4647 592.22C75.077 592.394 76.8787 588.408 78.0158 589.027C79.1616 589.655 80.526 591.565 82.2053 592.464C83.7709 593.31 109.765 593.676 114.803 593.101C115.232 593.048 115.52 592.647 115.45 592.202C115.302 591.217 114.961 589.367 114.296 587.44C113.579 585.337 112.45 583.139 110.771 581.822C106.8 578.734 98.3862 577.374 95.3599 575.306C92.3249 573.239 88.9838 568.32 87.1383 569.209C85.2928 570.09 81.7593 574.242 76.7825 573.544C71.8146 572.847 69.5317 571.599 68.1585 572.777C67.2314 573.571 66.4355 581.543 66.1994 586.925C66.0769 589.507 66.0769 591.496 66.2606 591.818H66.2518Z" fill="#E64218"/>
<path d="M74.3251 541.889C77.8499 541.889 85.8441 540.956 91.6692 533.289C101.728 520.048 95.7888 484.459 95.0541 480.29L105.182 479.47C105.357 479.452 105.489 479.304 105.471 479.13C105.454 478.955 105.305 478.816 105.13 478.842L94.6518 479.688C94.5643 479.688 94.4768 479.74 94.4243 479.81C94.3719 479.88 94.3456 479.976 94.3631 480.063C94.4331 480.456 101.456 519.359 91.1619 532.905C83.7362 542.674 72.7332 541.183 72.6283 541.165C72.4533 541.139 72.2959 541.261 72.2697 541.436C72.2434 541.61 72.3659 541.767 72.5408 541.793C72.567 541.793 73.2318 541.889 74.3338 541.889H74.3251Z" fill="#E64218"/>
<path d="M69.2333 507.443C69.4957 507.443 69.7406 507.365 69.968 507.199C70.3091 506.946 70.4928 506.589 70.5278 506.135C70.7114 503.222 63.6006 496.488 63.3032 496.2C63.1982 496.095 63.032 496.087 62.9096 496.165C62.7871 496.244 62.7347 496.401 62.7784 496.531C63.1283 497.552 66.2595 506.571 68.8397 507.382C68.9709 507.426 69.1108 507.443 69.242 507.443H69.2333ZM63.8455 497.622C66.1808 499.968 70.003 504.225 69.8893 506.091C69.8718 506.353 69.7756 506.545 69.5919 506.676C69.4169 506.807 69.242 506.833 69.0321 506.763C67.3703 506.24 65.035 500.814 63.8455 497.613V497.622Z" fill="#E64218"/>
<path d="M69.2776 478.136C69.3213 478.136 69.3738 478.128 69.4175 478.101C73.6945 476.017 76.4409 470.835 76.5546 470.617C76.6333 470.46 76.5721 470.268 76.4147 470.19C76.2572 470.111 76.0648 470.172 75.9861 470.321C75.9599 470.373 73.2222 475.537 69.1289 477.526C68.9715 477.604 68.9015 477.796 68.9802 477.953C69.0327 478.066 69.1464 478.136 69.2689 478.136H69.2776Z" fill="#E64218"/>
<path d="M66.2518 591.819C66.8116 592.831 73.8525 592.045 74.4647 592.22C75.077 592.394 76.8787 588.408 78.0158 589.027C79.1616 589.655 80.526 591.566 82.2053 592.464C83.7709 593.31 109.765 593.677 114.803 593.101C115.232 593.049 115.52 592.647 115.45 592.203C115.302 591.217 114.961 589.368 114.296 587.44L66.1994 586.925C66.0769 589.507 66.0769 591.496 66.2606 591.819H66.2518Z" fill="white"/>
<path d="M73.537 422.6C73.537 422.6 59.1754 425.679 54.3736 441.1C49.5718 456.522 68.9539 472.772 68.9539 472.772L105.566 462.558C105.566 462.558 101.176 422.966 96.7938 419.006C92.403 415.046 73.537 422.591 73.537 422.591V422.6Z" fill="#DC3C1E"/>
<path d="M84.5228 414.059C84.5228 414.059 86.482 399.283 105.567 395.672C124.651 392.061 136.074 415.691 136.074 415.691L79.8697 425.957L84.5228 414.059Z" fill="#DC3C1E"/>
<path d="M83.1319 407.597C83.1319 407.597 89.2369 403.375 86.8579 399.371C84.4876 395.368 78.575 398.874 78.575 398.874C78.575 398.874 76.5284 396.528 73.2922 398.089C70.056 399.651 69.4088 403.96 69.4088 403.96C69.4088 403.96 66.2426 403.672 65.7965 407.51C65.3505 411.348 69.2689 415.055 69.2689 415.055L83.1319 407.588V407.597Z" fill="#0017BF"/>
<path d="M72.2605 417.392L71.6832 424.719C71.6832 424.719 72.8465 426.926 77.1147 427.615C80.2984 428.121 81.418 426.097 81.418 426.097L81.3218 423.742L81.1643 420.087L73.5375 417.776L72.2605 417.383V417.392Z" fill="#FFBB87"/>
<path d="M73.537 417.776C73.537 417.976 73.5982 418.221 73.6944 418.5C75.0501 422.285 79.4845 423.428 81.3213 423.742L81.1638 420.087L73.537 417.776Z" fill="black"/>
<path d="M84.1111 403.514C84.1111 403.514 87.2423 413.005 85.3268 417.985C83.4114 422.966 78.802 421.727 76.0994 420.471C73.3967 419.215 72.2597 417.383 72.2597 417.383C72.2597 417.383 69.5658 418.02 68.0439 415.438C66.522 412.848 67.8602 410.17 69.4171 409.664C70.9739 409.167 72.6445 410.405 72.6445 410.405L71.4987 407.623C71.4987 407.623 78.6183 394.713 84.1198 403.497L84.1111 403.514Z" fill="#FFBB87"/>
<path d="M72.0762 414.373C72.1637 414.373 72.2599 414.338 72.3211 414.259C72.4348 414.129 72.4173 413.928 72.2861 413.815L69.1636 411.18C69.0324 411.067 68.8313 411.084 68.7176 411.215C68.6039 411.346 68.6214 411.547 68.7526 411.66L71.875 414.294C71.9362 414.347 72.0062 414.373 72.0849 414.373H72.0762Z" fill="black"/>
<path d="M69.0594 414.095C69.0594 414.095 69.0944 414.095 69.1118 414.095L71.3334 413.702C71.5084 413.676 71.6221 413.51 71.5959 413.336C71.5609 413.161 71.4034 413.048 71.2285 413.074L69.0069 413.467C68.832 413.493 68.7183 413.659 68.7445 413.833C68.7707 413.99 68.9107 414.095 69.0594 414.095Z" fill="black"/>
<path d="M77.6834 406.925C77.7709 406.925 77.8583 406.89 77.9195 406.82C78.9429 405.686 80.0362 406.375 80.0799 406.402C80.2286 406.498 80.421 406.454 80.5172 406.306C80.6134 406.157 80.5697 405.957 80.421 405.869C79.8787 405.521 78.5493 405.172 77.4385 406.393C77.316 406.524 77.3335 406.724 77.4647 406.846C77.526 406.899 77.6047 406.925 77.6746 406.925H77.6834Z" fill="black"/>
<path d="M84.837 407.133C84.9245 407.133 85.0032 407.098 85.0644 407.037C85.1869 406.915 85.1869 406.706 85.0644 406.584C84.0236 405.581 82.8166 406.156 82.7641 406.182C82.6067 406.261 82.5367 406.453 82.6154 406.61C82.6941 406.767 82.8866 406.828 83.044 406.758C83.0877 406.741 83.9186 406.366 84.6183 407.046C84.6796 407.107 84.7583 407.133 84.837 407.133Z" fill="black"/>
<path d="M82.8176 414.783C82.9488 414.783 83.0625 414.704 83.115 414.582C84.252 411.652 82.4153 409.776 82.3366 409.698C82.2141 409.576 82.013 409.576 81.8905 409.698C81.7681 409.82 81.7681 410.02 81.8905 410.151C81.9605 410.221 83.4999 411.817 82.5203 414.356C82.459 414.521 82.5377 414.704 82.7039 414.766C82.7389 414.783 82.7827 414.783 82.8176 414.783Z" fill="black"/>
<path d="M84.5226 410.649C84.5226 410.649 84.5663 410.649 84.5838 410.649C84.7587 410.614 84.8724 410.449 84.8374 410.274L84.5138 408.556C84.4788 408.381 84.3127 408.268 84.1377 408.303C83.9628 408.338 83.8491 408.504 83.8841 408.678L84.2077 410.396C84.2339 410.545 84.3739 410.658 84.5226 410.658V410.649Z" fill="black"/>
<path d="M79.8692 410.379C79.8692 410.379 79.913 410.379 79.9305 410.379C80.1054 410.344 80.2191 410.179 80.1841 410.004L79.8605 408.286C79.8255 408.111 79.6593 407.998 79.4844 408.033C79.3095 408.068 79.1958 408.233 79.2307 408.408L79.5544 410.126C79.5806 410.275 79.7206 410.388 79.8692 410.388V410.379Z" fill="black"/>
<path d="M84.7234 405.643C84.7234 405.643 84.0412 404.107 82.2132 403.95C80.3852 403.793 79.2132 404.997 79.2132 404.997C79.2132 404.997 79.773 408.137 77.1578 409.576C74.5339 411.016 72.6446 410.405 72.6446 410.405L70.8866 409.62L69.767 406.881L75.4347 401.665L82.4844 398.63L85.6855 402.023L84.7234 405.625V405.643Z" fill="#0017BF"/>
<path d="M80.972 416.781C81.1819 416.781 81.3218 416.633 81.3131 416.459C81.3131 416.284 81.1732 416.171 80.9895 416.144C80.9195 416.162 79.4851 416.144 78.9778 414.801C78.9166 414.635 78.7329 414.557 78.5667 414.618C78.4005 414.679 78.3218 414.862 78.383 415.028C78.9078 416.424 80.281 416.781 80.9632 416.781H80.972Z" fill="black"/>
<path d="M166.757 476.016H99.6718C97.2324 476.016 95.2549 474.044 95.2549 471.611L95.2549 415.42C95.2549 412.987 97.2324 411.015 99.6718 411.015H166.757C169.196 411.015 171.174 412.987 171.174 415.42V471.611C171.174 474.044 169.196 476.016 166.757 476.016Z" fill="#373178"/>
<path d="M88.4326 442.486C88.4326 442.486 97.625 437.627 100.415 437.209C103.205 436.79 107.972 439.852 107.972 439.852L105.567 441.239C105.567 441.239 109.328 449.438 108.628 450.685C107.928 451.933 106.118 450.685 106.118 450.685C106.118 450.685 101.797 455.134 100.546 455.273C99.2956 455.413 92.6046 452.77 92.6046 452.77L88.4238 442.486H88.4326Z" fill="#FFBB87"/>
<path d="M89.683 440.542L69.7586 447.625L71.8053 423.105C71.8053 423.105 56.5253 427.755 52.4932 443.455C48.4523 459.156 54.3037 471.656 66.8373 472.772C79.3709 473.88 96.3652 456.382 96.3652 456.382L89.683 440.542Z" fill="#DC3C1E"/>
<path d="M125.823 405.084C125.823 405.084 123.593 401.342 121.537 404.474C119.482 407.605 121.24 416.537 122.911 416.947C124.704 417.392 125.823 413.981 125.823 413.981C125.823 413.981 126.164 416.895 128.054 416.947C129.934 417 130.791 413.981 130.791 413.981C130.791 413.981 131.727 417.383 133.363 416.947C135.156 416.459 136.1 405.084 132.68 403.898C131.036 403.331 130.109 405.084 130.109 405.084C130.109 405.084 129.47 402.921 127.59 403.2C125.709 403.479 125.832 405.084 125.832 405.084H125.823Z" fill="#FFBB87"/>
<path d="M105.567 441.239L112.223 437.166L113.929 440.559L107.028 444.659L105.567 441.239Z" fill="white"/>
<path d="M116.054 441.692C114.628 441.692 112.94 441.256 112.162 439.703C110.981 437.348 112.564 434.47 112.756 434.156L114.969 435.421C114.681 435.926 113.963 437.601 114.444 438.561C114.786 439.241 116.29 439.189 116.928 439.058L117.462 441.553C117.068 441.64 116.579 441.692 116.062 441.692H116.054Z" fill="white"/>
<path d="M105.567 441.553C105.628 441.553 105.698 441.536 105.751 441.492C105.891 441.387 105.926 441.187 105.821 441.047L104.115 438.675C104.01 438.535 103.818 438.5 103.669 438.605C103.529 438.709 103.494 438.91 103.599 439.05L105.305 441.422C105.366 441.509 105.462 441.553 105.567 441.553Z" fill="black"/>
<path d="M106.127 450.999C106.188 450.999 106.258 450.982 106.31 450.938C106.45 450.833 106.485 450.641 106.38 450.493L105.41 449.141C105.305 449.002 105.103 448.967 104.963 449.063C104.824 449.167 104.789 449.359 104.893 449.508L105.864 450.86C105.926 450.947 106.022 450.99 106.127 450.99V450.999Z" fill="black"/>
<path d="M125.824 413.902C125.999 413.902 126.139 413.762 126.139 413.588V405.083C126.139 404.909 125.999 404.769 125.824 404.769C125.649 404.769 125.509 404.909 125.509 405.083V413.588C125.509 413.762 125.649 413.902 125.824 413.902Z" fill="black"/>
<path d="M130.792 414.303C130.993 414.286 131.124 414.138 131.107 413.963L130.425 405.066C130.407 404.892 130.25 404.761 130.083 404.77C129.909 404.787 129.777 404.935 129.786 405.11L130.468 414.007C130.477 414.173 130.617 414.303 130.783 414.303H130.792Z" fill="black"/>
<path d="M77.9364 427.946C77.9801 427.946 78.0326 427.946 78.0763 427.946C79.4495 427.911 80.6478 427.362 81.6448 426.315C81.7673 426.184 81.7585 425.984 81.6361 425.861C81.5136 425.739 81.3037 425.748 81.1813 425.87C79.6594 427.475 77.6477 427.737 75.2162 426.664C73.3445 425.835 71.9101 424.492 71.9013 424.483C71.7701 424.361 71.569 424.37 71.4465 424.492C71.3241 424.623 71.3328 424.823 71.4553 424.946C71.5865 425.068 74.6564 427.946 77.9276 427.946H77.9364Z" fill="white"/>
<path d="M64.9309 448.287C64.9309 448.287 65.0184 448.287 65.0534 448.261C73.5112 444.693 85.6337 442.033 85.7562 442.007C85.9311 441.972 86.0361 441.797 86.0011 441.632C85.9661 441.457 85.7912 441.352 85.625 441.387C85.5025 441.413 73.3188 444.083 64.8085 447.676C64.6423 447.746 64.5724 447.929 64.6423 448.095C64.6948 448.217 64.8085 448.287 64.9397 448.287H64.9309Z" fill="white"/>
<path d="M69.2519 445.609C70.5201 445.609 71.7446 445.565 72.5843 445.522C72.733 445.522 72.8555 445.408 72.8817 445.26C72.9079 445.112 72.8292 444.972 72.698 444.911C72.4269 444.789 66.1294 442.015 63.9428 443.794C63.523 444.143 63.523 444.449 63.593 444.641C63.8903 445.426 66.6717 445.609 69.2432 445.609H69.2519ZM71.0624 444.946C67.7913 445.033 64.5638 444.876 64.2052 444.422C64.2227 444.422 64.2577 444.361 64.3539 444.292C65.5959 443.28 68.9021 444.161 71.0624 444.946Z" fill="white"/>
<path d="M103.572 411.339C103.721 411.339 103.835 411.243 103.878 411.112C104.097 410.388 105.129 406.725 104.281 405.783C104.15 405.634 103.896 405.477 103.511 405.547C103.205 405.608 102.96 405.783 102.794 406.062C102.033 407.344 103.144 410.746 103.266 411.13C103.31 411.26 103.432 411.348 103.572 411.348V411.339ZM103.695 406.158C103.765 406.158 103.791 406.184 103.809 406.201C104.167 406.603 103.922 408.312 103.564 409.83C103.257 408.635 102.969 407.013 103.345 406.376C103.415 406.254 103.511 406.184 103.634 406.166C103.66 406.166 103.677 406.166 103.704 406.166L103.695 406.158Z" fill="white"/>
<path d="M80.2544 469.229C80.3069 469.229 80.3506 469.221 80.3944 469.194C80.4818 469.151 89.4382 464.589 94.4236 458.692C94.5373 458.562 94.5198 458.361 94.3887 458.248C94.2575 458.134 94.0563 458.152 93.9426 458.282C89.0446 464.074 80.2019 468.575 80.1145 468.628C79.957 468.706 79.8958 468.898 79.9745 469.055C80.027 469.168 80.1407 469.229 80.2631 469.229H80.2544Z" fill="white"/>
<path d="M127.057 497.265C127.135 497.265 127.205 497.239 127.267 497.186C127.398 497.073 127.407 496.864 127.293 496.741L124.31 493.453C124.188 493.322 123.987 493.313 123.856 493.427C123.724 493.54 123.716 493.75 123.829 493.872L126.812 497.16C126.873 497.23 126.961 497.265 127.048 497.265H127.057Z" fill="white"/>
<path d="M124.074 497.265C124.162 497.265 124.249 497.23 124.31 497.16L127.293 493.872C127.407 493.741 127.398 493.54 127.267 493.427C127.135 493.305 126.934 493.322 126.812 493.453L123.829 496.742C123.716 496.872 123.724 497.073 123.856 497.186C123.917 497.239 123.995 497.265 124.065 497.265H124.074Z" fill="white"/>
<path d="M145.879 541.898H194.247C196.083 541.898 197.579 540.407 197.579 538.575V499.445C197.579 497.613 196.083 496.122 194.247 496.122H145.879C144.042 496.122 142.547 497.613 142.547 499.445V538.575C142.547 540.407 144.042 541.898 145.879 541.898ZM194.247 496.75C195.734 496.75 196.941 497.954 196.941 499.436V538.566C196.941 540.049 195.734 541.253 194.247 541.253H145.879C144.392 541.253 143.185 540.049 143.185 538.566V499.436C143.185 497.954 144.392 496.75 145.879 496.75H194.247Z" fill="#E64218"/>
<path d="M142.861 505.167H197.264C197.439 505.167 197.579 505.028 197.579 504.844C197.579 504.661 197.439 504.521 197.264 504.521H142.861C142.687 504.521 142.547 504.661 142.547 504.844C142.547 505.028 142.687 505.167 142.861 505.167Z" fill="#E64218"/>
<path d="M190.879 502.776C190.967 502.776 191.063 502.742 191.124 502.663L194.019 499.261C194.133 499.13 194.116 498.93 193.984 498.816C193.853 498.703 193.652 498.72 193.538 498.851L190.643 502.253C190.53 502.384 190.547 502.585 190.678 502.698C190.739 502.75 190.809 502.776 190.888 502.776H190.879Z" fill="#E64218"/>
<path d="M193.783 502.776C193.853 502.776 193.932 502.75 193.993 502.698C194.124 502.585 194.142 502.384 194.028 502.253L191.133 498.851C191.019 498.72 190.818 498.703 190.687 498.816C190.556 498.93 190.538 499.13 190.652 499.261L193.547 502.663C193.608 502.742 193.696 502.776 193.792 502.776H193.783Z" fill="#E64218"/>
<path d="M316.215 591.295H269.614C265.315 591.295 261.83 587.819 261.83 583.532V527.149C261.83 522.861 265.315 519.385 269.614 519.385H316.215C320.515 519.385 324 522.861 324 527.149V583.532C324 587.819 320.515 591.295 316.215 591.295Z" fill="#1D4568"/>
<path d="M311.537 591.295H264.936C260.637 591.295 257.151 587.819 257.151 583.532V527.149C257.151 522.861 260.637 519.385 264.936 519.385H311.537C315.836 519.385 319.321 522.861 319.321 527.149V583.532C319.321 587.819 315.836 591.295 311.537 591.295Z" fill="#40398D"/>
<path d="M211.819 507.977C211.906 507.977 211.985 507.942 212.046 507.881C212.108 507.82 212.143 507.741 212.143 507.654V409.027C212.143 408.852 212.003 408.713 211.828 408.713C211.653 408.713 211.513 408.852 211.513 409.027V507.34L133.556 507.287V450.721C133.556 450.547 133.416 450.407 133.241 450.407C133.066 450.407 132.926 450.547 132.926 450.721V507.601C132.926 507.776 133.066 507.915 133.241 507.924L211.836 507.977H211.819Z" fill="#E64218"/>
<path d="M251.527 565.085L247.801 577.672L232.032 574.985L235.635 563.244L251.527 565.085Z" fill="#FFBB87"/>
<path d="M276.123 562.799L277.837 577.183L262.067 580.201L260.598 566.733L276.123 562.799Z" fill="#FFBB87"/>
<path d="M225.078 434.786C225.078 434.786 223.477 439.819 226.241 440.857C229.014 441.895 229.022 439.025 229.022 439.025L227.308 435.423L225.078 434.795V434.786Z" fill="#FFBB87"/>
<path d="M237.848 444.79C237.848 444.79 234.227 435.483 230.929 433.861C227.632 432.239 221.361 432.439 220.399 434.149C219.445 435.85 222.314 435.885 223.057 435.71C223.801 435.536 226.04 436.024 226.565 436.783C227.098 437.542 227.308 440.734 227.308 440.734C227.308 440.734 224.859 441.232 223.801 440.342C222.743 439.452 221.676 437.847 220.932 439.025C220.189 440.194 223.162 446.352 225.297 448.044C227.422 449.745 232.845 451.865 232.845 451.865L237.848 444.79Z" fill="#FFBB87"/>
<path d="M227.317 441.048C227.519 441.031 227.65 440.874 227.632 440.7C227.632 440.656 227.527 439.6 227.134 437.856C226.696 435.937 224.956 435.571 224.877 435.553C224.711 435.518 224.536 435.632 224.501 435.806C224.466 435.981 224.58 436.146 224.746 436.181C224.807 436.19 226.163 436.495 226.504 438.004C226.889 439.705 226.985 440.752 226.994 440.761C227.011 440.926 227.151 441.048 227.309 441.048H227.317Z" fill="black"/>
<path d="M206.071 427.466H217.564C218.192 427.466 218.701 427.974 218.701 428.6V440.062C218.701 440.688 218.192 441.196 217.564 441.196H206.071C205.443 441.196 204.934 440.688 204.934 440.062V428.6C204.934 427.974 205.443 427.466 206.071 427.466Z" fill="#373178"/>
<path d="M206.071 445H217.564C218.192 445 218.701 445.507 218.701 446.134V457.595C218.701 458.222 218.192 458.729 217.564 458.729H206.071C205.443 458.729 204.934 458.222 204.934 457.595V446.134C204.934 445.507 205.443 445 206.071 445Z" fill="#373178"/>
<path d="M206.071 462.532H217.564C218.192 462.532 218.701 463.039 218.701 463.666V475.127C218.701 475.753 218.192 476.261 217.564 476.261H206.071C205.443 476.261 204.934 475.753 204.934 475.127V463.666C204.934 463.039 205.443 462.532 206.071 462.532Z" fill="#373178"/>
<path d="M217.451 442.094L223.889 436.677L222.236 434.732L217.679 438.579L213.97 434.549L212.09 436.276L217.451 442.094Z" fill="#F6F6F6"/>
<path d="M211.967 456.993L217.25 452.51L215.597 450.574L212.378 453.304L208.232 447.808L206.186 449.344L211.967 456.993Z" fill="white"/>
<path d="M211.967 474.534L217.25 470.05L215.597 468.114L212.378 470.844L208.232 465.34L206.186 466.875L211.967 474.534Z" fill="white"/>
<path d="M228.463 389H194.746C193.364 389 192.244 390.116 192.244 391.495V410.022C192.244 411.4 193.364 412.516 194.746 412.516H228.463C229.845 412.516 230.965 411.4 230.965 410.022V391.495C230.965 390.116 229.845 389 228.463 389Z" fill="#5EF939"/>
<path d="M117.462 497.239V549.854C117.462 553.012 120.348 555.567 123.891 555.567H216.612C220.171 555.567 223.058 553.012 223.058 549.854V497.239C223.058 494.081 220.171 491.526 216.612 491.526H123.891C120.348 491.526 117.462 494.081 117.462 497.239Z" fill="#40398D"/>
<path d="M156.069 506.659H178.366C178.856 506.659 179.253 507.056 179.253 507.546C179.253 508.036 178.856 508.433 178.366 508.433H156.069C155.579 508.433 155.182 508.036 155.182 507.546C155.182 507.056 155.579 506.659 156.069 506.659Z" fill="#5EF939"/>
<path d="M133.579 515.793H173.037C173.527 515.793 173.924 516.19 173.924 516.68C173.924 517.171 173.527 517.568 173.037 517.568H133.579C133.089 517.568 132.692 517.171 132.692 516.68C132.692 516.19 133.089 515.793 133.579 515.793Z" fill="#FFB904"/>
<path d="M178.338 515.793H194.471C194.961 515.793 195.358 516.19 195.358 516.68C195.358 517.171 194.961 517.568 194.471 517.568H178.338C177.848 517.568 177.45 517.171 177.45 516.68C177.45 516.19 177.848 515.793 178.338 515.793Z" fill="#5EF939"/>
<path d="M133.579 541.509H173.037C173.527 541.509 173.924 541.906 173.924 542.396C173.924 542.886 173.527 543.283 173.037 543.283H133.579C133.089 543.283 132.692 542.886 132.692 542.396C132.692 541.906 133.089 541.509 133.579 541.509Z" fill="#FFB904"/>
<path d="M178.338 541.509H208.89C209.38 541.509 209.777 541.906 209.777 542.396C209.777 542.886 209.38 543.283 208.89 543.283H178.338C177.848 543.283 177.451 542.886 177.451 542.396C177.451 541.906 177.848 541.509 178.338 541.509Z" fill="#5EF939"/>
<path d="M133.579 528.435H173.037C173.527 528.435 173.924 528.833 173.924 529.323C173.924 529.813 173.527 530.21 173.037 530.21H133.579C133.089 530.21 132.692 529.813 132.692 529.323C132.692 528.833 133.089 528.435 133.579 528.435Z" fill="#5EF939"/>
<path d="M178.338 528.435H194.471C194.961 528.435 195.358 528.833 195.358 529.323C195.358 529.813 194.961 530.21 194.471 530.21H178.338C177.848 530.21 177.45 529.813 177.45 529.323C177.45 528.833 177.848 528.435 178.338 528.435Z" fill="#5EF939"/>
<path d="M181.992 523.889L155.014 523.889C154.524 523.889 154.127 523.492 154.127 523.002C154.127 522.512 154.524 522.115 155.014 522.115L181.992 522.115C182.482 522.115 182.879 522.512 182.879 523.002C182.879 523.492 182.482 523.889 181.992 523.889Z" fill="#FFB904"/>
<path d="M149.713 523.889L133.58 523.889C133.09 523.889 132.692 523.492 132.692 523.002C132.692 522.512 133.09 522.115 133.58 522.115L149.713 522.115C150.203 522.115 150.6 522.512 150.6 523.002C150.6 523.492 150.203 523.889 149.713 523.889Z" fill="#5EF939"/>
<path d="M181.992 536.531L155.014 536.531C154.524 536.531 154.127 536.134 154.127 535.644C154.127 535.154 154.524 534.756 155.014 534.756L181.992 534.756C182.482 534.756 182.879 535.154 182.879 535.644C182.879 536.134 182.482 536.531 181.992 536.531Z" fill="#FFB904"/>
<path d="M149.713 536.531L133.58 536.531C133.09 536.531 132.692 536.134 132.692 535.644C132.692 535.154 133.09 534.756 133.58 534.756L149.713 534.756C150.203 534.756 150.6 535.154 150.6 535.644C150.6 536.134 150.203 536.531 149.713 536.531Z" fill="#5EF939"/>
<path d="M133.42 509.229V508.037L138.264 505.889V507.266L134.973 508.599V508.657L138.264 509.99V511.367L133.42 509.229ZM144.727 504.053L142.441 512.52H141.201L143.477 504.053H144.727ZM138.264 531.229L133.42 533.367V531.99L136.711 530.657V530.599L133.42 529.266V527.889L138.264 530.037V531.229Z" fill="#3DF130"/>
<path d="M183.667 506.659H208.89C209.38 506.659 209.777 507.056 209.777 507.546C209.777 508.036 209.38 508.433 208.89 508.433H183.667C183.177 508.433 182.78 508.036 182.78 507.546C182.78 507.056 183.177 506.659 183.667 506.659Z" fill="#FFB904"/>
<path d="M246.315 589.587C247.469 589.657 248.492 588.75 248.624 587.52C249.166 582.67 250.985 571.854 250.102 571.758C248.973 571.636 237.253 573.459 237.253 573.459C237.253 573.459 237.682 566.699 232.854 567.379C229.154 567.902 224.501 571.714 222.533 573.459C221.912 574.017 221.16 574.366 220.355 574.471C216.909 574.933 207.375 576.651 206.693 581.571C205.854 587.589 208.364 587.171 209.492 587.293C210.463 587.398 238.416 589.098 246.315 589.578V589.587Z" fill="#FFB904"/>
<path d="M281.859 585.53C282.944 585.12 283.495 583.872 283.11 582.695C281.597 578.054 278.781 567.456 277.932 567.727C276.848 568.076 266.929 574.565 266.929 574.565C266.929 574.565 264.524 568.233 260.413 570.841C257.256 572.847 254.597 578.229 253.53 580.628C253.188 581.386 252.655 582.014 251.964 582.442C249.016 584.282 241.04 589.769 242.457 594.531C244.18 600.358 246.288 598.945 247.372 598.596C248.299 598.291 274.469 588.338 281.859 585.521V585.53Z" fill="#FFB904"/>
<path d="M289.54 425.173C289.54 425.173 298.977 422.643 305.992 431.217C313.015 439.792 308.651 450.346 297.525 450.041C286.408 449.736 283.819 438.405 283.819 438.405L289.531 425.181L289.54 425.173Z" fill="#0017BF"/>
<path d="M275.37 432.23C275.37 432.23 272.684 429.387 273.358 424.886C273.813 421.833 275.151 420.821 275.151 420.821C275.151 420.821 272.999 416.713 279.166 416.844C285.323 416.974 290.37 416.451 293.116 421.737C294.734 424.851 294.087 431.611 294.087 431.611L275.37 432.23Z" fill="#0017BF"/>
<path d="M288.979 437.026L288.936 444.519C288.936 444.519 287.571 446.665 283.172 446.996C279.892 447.241 278.869 445.557 278.869 445.557L279.7 439.006L287.65 437.314L288.979 437.026Z" fill="#FFBB87"/>
<path d="M288.971 436.574C288.953 436.775 288.874 437.019 288.752 437.298C287.046 441.031 281.116 442.558 279.227 442.715L279.699 439.016L288.971 436.574Z" fill="black"/>
<path d="M278.116 421.911C278.116 421.911 274.119 431.288 275.64 436.513C277.162 441.746 281.947 440.874 284.807 439.827C287.667 438.789 288.979 437.019 288.979 437.019C288.979 437.019 291.664 437.899 293.431 435.396C295.197 432.893 294.069 430.058 292.53 429.412C290.99 428.776 289.189 429.892 289.189 429.892L290.588 427.162C290.588 427.162 284.457 413.432 278.116 421.893V421.911Z" fill="#FFBB87"/>
<path d="M289.19 429.91C289.19 429.91 285.184 430.8 282.298 426.386C279.411 421.973 279.639 420.132 279.639 420.132L276.945 424.799C276.945 424.799 276.263 421.615 277.505 419.548C278.747 417.48 280.085 417.882 280.085 417.882L289.006 419.923L291.481 426.971L289.199 429.91H289.19Z" fill="#0017BF"/>
<path d="M279.087 433.792C279.087 433.792 279.157 433.792 279.183 433.774C279.35 433.722 279.446 433.539 279.385 433.373C278.816 431.637 279.568 429.744 279.577 429.727C279.647 429.561 279.568 429.378 279.402 429.308C279.236 429.239 279.052 429.317 278.982 429.483C278.947 429.57 278.134 431.611 278.772 433.565C278.816 433.696 278.938 433.783 279.078 433.783L279.087 433.792Z" fill="black"/>
<path d="M289.652 434.297C289.74 434.297 289.827 434.262 289.888 434.192L292.39 431.462C292.512 431.331 292.504 431.13 292.372 431.008C292.241 430.886 292.04 430.895 291.918 431.026L289.416 433.756C289.294 433.887 289.302 434.087 289.434 434.209C289.495 434.262 289.574 434.297 289.652 434.297Z" fill="black"/>
<path d="M292.338 433.539C292.495 433.539 292.635 433.426 292.653 433.26C292.679 433.085 292.556 432.928 292.382 432.902L290.615 432.666C290.44 432.649 290.282 432.762 290.256 432.937C290.23 433.112 290.352 433.269 290.527 433.295L292.294 433.531C292.294 433.531 292.32 433.531 292.338 433.531V433.539Z" fill="black"/>
<path d="M276.708 426.184C276.708 426.184 276.752 426.184 276.769 426.184L278.387 425.87C278.562 425.835 278.676 425.669 278.641 425.495C278.606 425.321 278.44 425.216 278.265 425.242L276.647 425.556C276.472 425.591 276.358 425.757 276.393 425.931C276.42 426.079 276.559 426.193 276.708 426.193V426.184Z" fill="black"/>
<path d="M282.883 426.559C283.014 426.559 283.137 426.481 283.181 426.35C283.242 426.184 283.154 426.001 282.997 425.94L281.318 425.312C281.151 425.251 280.968 425.338 280.906 425.495C280.845 425.661 280.933 425.844 281.09 425.905L282.769 426.533C282.769 426.533 282.839 426.551 282.883 426.551V426.559Z" fill="black"/>
<path d="M277.609 430.013C277.749 430.013 277.88 429.926 277.915 429.787L278.405 428.094C278.431 427.99 278.405 427.885 278.344 427.798L277.81 427.179C277.696 427.048 277.495 427.03 277.364 427.144C277.233 427.257 277.215 427.458 277.329 427.589L277.749 428.086L277.312 429.621C277.259 429.787 277.364 429.97 277.53 430.013C277.557 430.013 277.591 430.022 277.618 430.022L277.609 430.013Z" fill="black"/>
<path d="M282.349 430.381C282.489 430.381 282.612 430.294 282.655 430.154L283.145 428.462C283.172 428.357 283.145 428.244 283.075 428.165L282.341 427.345C282.227 427.215 282.017 427.206 281.886 427.319C281.755 427.433 281.746 427.633 281.86 427.773L282.472 428.462L282.034 429.988C281.982 430.154 282.087 430.337 282.253 430.381C282.279 430.381 282.314 430.39 282.341 430.39L282.349 430.381Z" fill="black"/>
<path d="M280.224 436.495C280.303 436.495 280.382 436.495 280.46 436.477C281.501 436.303 282.079 435.047 282.105 434.994C282.157 434.881 282.14 434.759 282.061 434.663C281.982 434.567 281.86 434.523 281.746 434.55L278.877 435.178C278.764 435.204 278.676 435.282 278.641 435.396C278.606 435.509 278.641 435.622 278.711 435.71C279.201 436.242 279.708 436.503 280.216 436.503L280.224 436.495ZM281.134 435.335C280.924 435.579 280.662 435.797 280.355 435.849C280.128 435.893 279.892 435.823 279.638 435.657L281.134 435.335Z" fill="black"/>
<path d="M275.903 491.517C275.903 491.517 246.9 493.148 239.361 498.975C231.821 504.801 231.401 565.799 231.401 565.799L255.061 568.485L255.279 508.77L275.903 491.517Z" fill="#E64218"/>
<path d="M290.903 444.947C290.903 444.947 290.072 442.034 289.653 442.034C289.102 442.034 286.058 443.499 283.285 443.482C280.521 443.465 280.04 442.601 279.218 442.714C278.396 442.828 278.09 444.947 278.09 444.947C278.09 444.947 272.964 446.648 267.008 448.027C261.052 449.405 251.693 447.599 247.757 445.689C243.821 443.779 237.122 439.644 237.122 439.644L230.203 457.778C230.203 457.778 244.241 475.703 257.116 475.808C269.991 475.913 285.516 473.366 285.516 473.366L290.895 444.939L290.903 444.947Z" fill="#0017BF"/>
<path d="M310.662 492.451C310.662 492.451 312.788 515.252 309.394 517.398C301.47 522.413 279.77 521.149 279.665 522.082C279.56 523.015 282.096 564.579 282.096 564.579L253.504 569.9C253.504 569.9 243 509.234 248.947 499.447C254.886 489.66 289.924 490.585 289.924 490.585L310.653 492.451H310.662Z" fill="#E64218"/>
<path d="M254.999 487.121L270.883 485.542L264.892 459.811L249.008 461.389L254.999 487.121Z" fill="#FFB904"/>
<path d="M252.62 487.356L268.495 485.786L262.504 460.046L246.629 461.624L252.62 487.356Z" fill="#F6F6F6"/>
<path d="M273.253 471.255L272.659 490.777C272.659 490.777 285.21 494.275 294.673 495.129C304.137 495.975 310.627 495.129 310.627 495.129V487.602L273.245 471.264L273.253 471.255Z" fill="#0017BF"/>
<path d="M275.3 473.793C275.3 473.793 273.402 469.868 271.487 468.489C269.571 467.111 266.65 467.12 266.65 467.12L267.227 469.92C267.227 469.92 262.775 470.504 262.023 469.92C261.271 469.336 258.079 466.789 257.23 467.007C256.382 467.216 258.184 469.92 258.184 469.92C258.184 469.92 256.268 468.167 255.63 469.231C254.991 470.295 257.44 474.534 257.44 474.534C257.44 474.534 255.21 472.31 255.953 475.808C256.697 479.306 263.169 482.699 265.408 483.021C267.647 483.335 276.612 483.37 276.612 483.37L275.292 473.793H275.3Z" fill="#FFBB87"/>
<path d="M267.227 470.243C267.227 470.243 267.271 470.243 267.288 470.243L269.632 469.764C269.807 469.729 269.912 469.563 269.877 469.389C269.842 469.214 269.676 469.109 269.501 469.144L267.157 469.624C266.982 469.659 266.877 469.825 266.912 469.999C266.947 470.147 267.078 470.252 267.227 470.252V470.243Z" fill="black"/>
<path d="M264.891 473.905C265.057 473.905 265.197 473.775 265.206 473.6C265.206 473.426 265.075 473.277 264.9 473.269C264.882 473.269 262.713 473.155 261.515 472.562C260.308 471.96 258.445 469.745 258.428 469.727C258.314 469.588 258.113 469.579 257.982 469.692C257.85 469.806 257.833 470.006 257.938 470.137C258.016 470.233 259.914 472.475 261.226 473.138C262.547 473.801 264.769 473.905 264.865 473.914C264.865 473.914 264.874 473.914 264.882 473.914L264.891 473.905Z" fill="black"/>
<path d="M264.358 477.936C264.533 477.936 264.673 477.797 264.673 477.622C264.673 477.448 264.542 477.299 264.358 477.299C264.34 477.299 262.556 477.247 261.034 476.514C259.058 475.564 257.667 474.316 257.649 474.308C257.518 474.194 257.317 474.203 257.195 474.334C257.081 474.465 257.09 474.665 257.221 474.787C257.282 474.84 258.69 476.096 260.754 477.099C262.399 477.893 264.262 477.945 264.34 477.954L264.358 477.936Z" fill="black"/>
<path d="M215.589 395.447H223.548V403.385H215.589V395.447Z" fill="#DC3C1E"/>
<path d="M205.032 392.604L202.557 396.886L200.082 401.169H205.032H209.991L207.516 396.886L205.032 392.604Z" fill="#E64218"/>
<path d="M211.916 408.898C208.863 408.898 206.388 406.429 206.388 403.385C206.388 400.34 208.863 397.872 211.916 397.872C214.969 397.872 217.443 400.34 217.443 403.385C217.443 406.429 214.969 408.898 211.916 408.898Z" fill="white"/>
<path d="M131.518 463.858C131.518 464.791 132.278 465.55 133.214 465.55C134.15 465.55 134.911 464.791 134.911 463.858C134.911 462.924 134.15 462.165 133.214 462.165C132.278 462.165 131.518 462.924 131.518 463.858Z" fill="#E64218"/>
<path d="M133.214 487.357C132.277 487.357 131.518 486.6 131.518 485.665C131.518 484.731 132.277 483.973 133.214 483.973C134.151 483.973 134.911 484.731 134.911 485.665C134.911 486.6 134.151 487.357 133.214 487.357Z" fill="#E64218"/>
<path d="M210.122 483.894C210.122 484.828 210.883 485.587 211.819 485.587C212.755 485.587 213.516 484.828 213.516 483.894C213.516 482.961 212.755 482.202 211.819 482.202C210.883 482.202 210.122 482.961 210.122 483.894Z" fill="#E64218"/>
<path d="M117.462 497.239V498.757H223.066V497.239C223.066 494.081 220.18 491.526 216.62 491.526H123.899C120.357 491.526 117.471 494.081 117.471 497.239H117.462Z" fill="#EDEDED"/>
<path d="M252.699 563.514C252.699 563.514 252.734 563.514 252.76 563.514C252.935 563.479 253.049 563.313 253.014 563.139C252.927 562.659 244.04 514.929 247.819 504.95C251.562 495.085 274.784 494.832 275.02 494.823C275.177 494.823 275.317 494.701 275.335 494.544C275.352 494.387 275.256 494.239 275.099 494.195L269.65 492.782C269.484 492.738 269.309 492.843 269.265 493.009C269.221 493.174 269.326 493.349 269.492 493.401L272.816 494.265C266.79 494.579 250.46 496.21 247.233 504.723C243.384 514.868 252.026 561.29 252.393 563.261C252.419 563.409 252.559 563.523 252.708 563.523L252.699 563.514Z" fill="white"/>
<path d="M289.653 444.73C289.653 444.73 307.968 445.157 318.498 465.839C329.029 486.529 317.965 497.136 300.096 494.798C282.227 492.46 273.244 486.843 273.244 486.843L275.291 469.302L289.653 444.73Z" fill="#0017BF"/>
<path d="M300.822 472.075C300.962 472.075 301.093 471.987 301.128 471.848C301.18 471.682 301.076 471.499 300.909 471.455C293.58 469.362 278.475 469.379 278.326 469.37C278.151 469.37 278.011 469.51 278.011 469.693C278.011 469.868 278.151 470.007 278.326 470.007C278.973 470.007 293.606 470.033 300.734 472.066C300.761 472.066 300.796 472.075 300.822 472.075Z" fill="#FFB904"/>
<path d="M285.262 447.102C288.175 447.102 290.956 445.287 291.078 445.209C291.227 445.113 291.262 444.912 291.166 444.773C291.07 444.624 290.869 444.59 290.72 444.686C290.694 444.703 287.676 446.657 284.825 446.456C284.65 446.43 284.492 446.578 284.484 446.753C284.475 446.927 284.606 447.084 284.781 447.093C284.938 447.102 285.096 447.11 285.253 447.11L285.262 447.102Z" fill="#FFB904"/>
<path d="M257.833 454.847C258.026 454.847 258.21 454.795 258.376 454.681C259.801 453.783 260.221 448.994 260.265 448.453C260.274 448.314 260.195 448.183 260.064 448.13C259.933 448.078 259.784 448.122 259.696 448.226C259.355 448.654 256.382 452.474 256.828 454.088C256.915 454.411 257.134 454.646 257.449 454.768C257.58 454.821 257.702 454.838 257.825 454.838L257.833 454.847ZM259.513 449.544C259.268 451.41 258.761 453.696 258.043 454.14C257.93 454.219 257.816 454.228 257.685 454.175C257.554 454.123 257.484 454.044 257.449 453.914C257.23 453.111 258.411 451.079 259.513 449.535V449.544Z" fill="#FFB904"/>
<path d="M299.79 471.394C302.58 471.394 305.956 471.176 306.437 470.138C306.542 469.911 306.586 469.536 306.157 469.083C303.892 466.64 296.746 470.548 296.449 470.714C296.326 470.784 296.265 470.923 296.291 471.063C296.318 471.202 296.44 471.298 296.589 471.307C297.271 471.342 298.469 471.394 299.79 471.394ZM303.892 468.908C304.653 468.908 305.291 469.083 305.694 469.519C305.773 469.606 305.912 469.772 305.86 469.877C305.528 470.574 301.644 470.845 297.822 470.731C299.51 469.92 302.055 468.917 303.892 468.917V468.908Z" fill="#FFB904"/>
<path d="M279.673 522.395C279.752 522.395 279.83 522.369 279.892 522.308C279.997 522.212 280.023 522.064 279.962 521.933C279.306 520.625 277.084 516.377 275.737 516.377C275.501 516.377 275.195 516.49 275.002 516.944C274.067 519.194 278.956 522.038 279.516 522.352C279.568 522.378 279.621 522.395 279.673 522.395ZM275.746 517.013C276.306 517.013 277.688 519.028 278.86 521.192C277.303 520.154 275.107 518.365 275.597 517.188C275.623 517.118 275.676 517.013 275.737 517.013H275.746Z" fill="white"/>
<path d="M291.454 491.841C291.603 491.841 291.743 491.736 291.769 491.579C291.804 491.405 291.69 491.239 291.515 491.204C291.428 491.186 282.297 489.451 275.186 485.299C275.028 485.211 274.836 485.264 274.749 485.412C274.661 485.56 274.714 485.761 274.862 485.848C282.069 490.061 291.306 491.814 291.402 491.832C291.419 491.832 291.445 491.832 291.463 491.832L291.454 491.841Z" fill="#FFB904"/>
<path d="M143.85 457.001H122.587C120.824 457.001 119.395 455.576 119.395 453.817V432.613C119.395 430.854 120.824 429.429 122.587 429.429H143.85C145.613 429.429 147.042 430.854 147.042 432.613V453.817C147.042 455.576 145.613 457.001 143.85 457.001Z" fill="#5EF939"/>
<path d="M142.896 445.776L141.917 448.113L143.141 449.273C142.232 450.756 140.99 452.021 139.529 452.963L138.164 451.672L135.838 452.658L135.917 454.507C135.051 454.708 134.15 454.821 133.223 454.821C132.383 454.821 131.561 454.734 130.765 454.559V452.571L128.447 451.568L127.022 453.033C125.552 452.108 124.31 450.87 123.383 449.413L124.747 448.122L123.768 445.784L121.87 445.767C121.686 444.947 121.59 444.092 121.59 443.211C121.59 442.287 121.695 441.388 121.905 440.525L123.768 440.507L124.747 438.17L123.444 436.931C124.38 435.483 125.64 434.253 127.109 433.346L128.447 434.724L130.765 433.721V431.872C131.561 431.697 132.383 431.61 133.223 431.61C134.15 431.61 135.051 431.715 135.917 431.924L135.847 433.634L138.173 434.619L139.45 433.407C140.92 434.34 142.17 435.588 143.097 437.062L141.925 438.17L142.905 440.498L144.549 440.516C144.751 441.379 144.864 442.278 144.864 443.203C144.864 444.075 144.768 444.93 144.584 445.75L142.914 445.767L142.896 445.776ZM138.864 443.211C138.864 440.097 136.336 437.576 133.214 437.576C130.092 437.576 127.564 440.097 127.564 443.211C127.564 446.325 130.092 448.846 133.214 448.846C136.336 448.846 138.864 446.325 138.864 443.211Z" fill="white"/>
<ellipse cx="123.749" cy="504.521" rx="1.15155" ry="1.1504" fill="#1D166C"/>
<ellipse cx="123.749" cy="509.932" rx="1.15155" ry="1.1504" fill="#1D166C"/>
<ellipse cx="123.749" cy="515.343" rx="1.15155" ry="1.1504" fill="#1D166C"/>
<ellipse cx="123.749" cy="520.753" rx="1.15155" ry="1.1504" fill="#1D166C"/>
<ellipse cx="123.749" cy="526.164" rx="1.15155" ry="1.1504" fill="#1D166C"/>
<ellipse cx="123.749" cy="531.574" rx="1.15155" ry="1.1504" fill="#1D166C"/>
<ellipse cx="123.749" cy="536.985" rx="1.15155" ry="1.1504" fill="#1D166C"/>
<ellipse cx="123.749" cy="542.396" rx="1.15155" ry="1.1504" fill="#1D166C"/>
<ellipse cx="123.749" cy="547.807" rx="1.15155" ry="1.1504" fill="#1D166C"/>
</svg>