<svg xmlns="http://www.w3.org/2000/svg" width="320" height="215" fill="none"><path fill="#FFBB87" d="m32.07 119.143 10.943 10.871 10.995-17.244-6.185-6.356-15.752 12.729Z"/><path fill="#E64218" d="M37.863 90.148c-1.124-.39-5.917 4.996-6.497 5.28-.58.285.786 4.525-.508 4.827-1.295.302-3.642-.214-5.525.249-1.767.426-21.723 17.822-25.15 21.688-.285.329-.232.836.125 1.12a28.72 28.72 0 0 0 4.132 2.827c1.99 1.102 4.347 2.009 6.515 1.858 5.132-.365 12.441-5.049 16.145-5.547 3.713-.498 9.612.951 10.406-.978.795-1.92.634-7.475 4.882-10.328 4.248-2.854 6.828-3.458 7.069-5.28.16-1.227-4.695-7.814-8.202-12.054-1.678-2.035-3.044-3.537-3.4-3.662h.008Z"/><path fill="#fff" d="M37.864 90.148c-1.125-.39-5.917 4.996-6.497 5.28-.58.285.785 4.525-.509 4.827-1.294.302-3.641-.214-5.524.249-1.767.426-21.723 17.822-25.15 21.688-.286.329-.232.836.125 1.12a28.72 28.72 0 0 0 4.132 2.827L41.264 93.81c-1.678-2.035-3.043-3.537-3.4-3.662Z"/><path fill="#FFBB87" d="m81.612 180.254-2.284 6.48-12.96 4.133-6.228-2.764 3.32-14.853 18.152 7.004Z"/><path fill="#FFB904" d="M58.336 77.838s-2.329 11.618-3.427 21.493c-1.097 9.876-2.873 23.138-2.873 23.138s-8.14 30.391 11.414 33.075c24.249 3.333 23.017-25.306 23.017-25.306l-7.291-59.937-20.84 7.537Z"/><path fill="#FFB904" d="m31.705 124.103 20.072-17.244 5.98 8.391 1.615 39.235s-8.738-1.173-27.667-30.382ZM97.115 75.117s8.095 32.133 5.533 55.822c-2.561 23.697-14.36 52.755-14.36 52.755l-31.486-5.84 10.523-35.12 7.603-66.044 22.187-1.573Z"/><path fill="#E64218" d="M56.998 206.84c.571 1.032 7.755.232 8.38.409.625.178 2.463-3.884 3.624-3.253 1.169.64 2.561 2.587 4.275 3.502 1.597.862 28.121 1.236 33.262.649.437-.053.732-.462.66-.915a28.332 28.332 0 0 0-1.178-4.854c-.732-2.142-1.883-4.382-3.596-5.724-4.052-3.147-12.638-4.533-15.726-6.64-3.097-2.107-6.506-7.12-8.389-6.213-1.883.897-5.489 5.129-10.567 4.417-5.069-.711-7.398-1.982-8.8-.782-.946.809-1.758 8.933-1.999 14.418-.125 2.631-.125 4.658.063 4.986h-.01ZM65.236 155.96c3.597 0 11.754-.951 17.698-8.764 10.263-13.493 4.203-49.76 3.454-54.009l10.334-.835a.32.32 0 0 0 .295-.347c-.018-.177-.17-.32-.348-.293l-10.692.862a.305.305 0 0 0-.232.125.332.332 0 0 0-.062.257c.071.4 7.237 40.044-3.267 53.849-7.577 9.955-18.804 8.435-18.911 8.417a.323.323 0 1 0-.09.64c.027 0 .706.098 1.83.098h-.009ZM60.041 120.859c.268 0 .518-.08.75-.249.348-.258.536-.623.571-1.085.188-2.969-7.068-9.831-7.372-10.124a.324.324 0 0 0-.401-.036.329.329 0 0 0-.134.374c.357 1.04 3.552 10.231 6.185 11.057a1.3 1.3 0 0 0 .41.063h-.009Zm-5.497-10.009c2.383 2.391 6.283 6.729 6.167 8.631-.018.266-.116.462-.304.595a.574.574 0 0 1-.571.089c-1.696-.533-4.079-6.062-5.292-9.324v.009ZM60.086 90.993a.283.283 0 0 0 .143-.036c4.364-2.124 7.166-7.404 7.282-7.626a.323.323 0 0 0-.142-.436.33.33 0 0 0-.438.133c-.026.054-2.82 5.316-6.997 7.343a.327.327 0 0 0 .143.622h.01Z"/><path fill="#fff" d="M56.998 206.841c.571 1.031 7.755.231 8.38.409.625.178 2.463-3.885 3.624-3.254 1.169.64 2.561 2.587 4.275 3.503 1.597.862 28.121 1.235 33.262.649.437-.054.732-.463.66-.916a28.326 28.326 0 0 0-1.178-4.853l-49.077-.525c-.125 2.631-.125 4.658.063 4.987h-.01Z"/><path fill="#DC3C1E" d="M64.433 34.398s-14.655 3.138-19.555 18.854c-4.9 15.715 14.878 32.275 14.878 32.275l37.359-10.409s-4.48-40.346-8.952-44.382c-4.48-4.035-23.73 3.654-23.73 3.654v.008Z"/><path fill="#DC3C1E" d="M75.642 25.696s2-15.058 21.473-18.738c19.473-3.68 31.129 20.4 31.129 20.4L70.894 37.82l4.748-12.124Z"/><path fill="#0017BF" d="M74.222 19.11s6.23-4.302 3.802-8.382c-2.418-4.08-8.451-.507-8.451-.507s-2.089-2.391-5.39-.8c-3.303 1.591-3.963 5.982-3.963 5.982s-3.231-.293-3.686 3.618c-.455 3.911 3.543 7.689 3.543 7.689l14.145-7.61v.01Z"/><path fill="#FFBB87" d="m63.13 29.091-.59 7.467s1.187 2.249 5.543 2.951c3.248.516 4.39-1.547 4.39-1.547l-.097-2.4-.161-3.724-7.782-2.356-1.304-.4v.01Z"/><path fill="#000" d="M64.432 29.483c0 .204.063.453.16.738 1.384 3.857 5.909 5.022 7.783 5.342l-.16-3.725-7.783-2.355Z"/><path fill="#FFBB87" d="M75.222 14.95s3.195 9.67 1.24 14.746c-1.954 5.076-6.657 3.813-9.415 2.533-2.758-1.28-3.918-3.146-3.918-3.146s-2.749.649-4.302-1.982c-1.552-2.64-.187-5.37 1.402-5.885 1.588-.507 3.293.756 3.293.756l-1.17-2.836s7.265-13.155 12.879-4.204l-.009.018Z"/><path fill="#000" d="M62.942 26.015c.089 0 .187-.036.25-.116a.322.322 0 0 0-.036-.453l-3.186-2.684a.322.322 0 1 0-.42.489l3.187 2.684a.32.32 0 0 0 .214.08h-.01Z"/><path fill="#000" d="M59.863 25.732h.054l2.267-.4a.324.324 0 0 0 .267-.374.33.33 0 0 0-.375-.266l-2.267.4a.324.324 0 0 0-.267.373c.027.16.17.267.321.267ZM68.663 18.425a.32.32 0 0 0 .24-.107c1.045-1.155 2.16-.453 2.205-.426a.321.321 0 0 0 .446-.098.317.317 0 0 0-.098-.444c-.553-.356-1.91-.712-3.043.533a.324.324 0 0 0 .24.542h.01ZM75.963 18.638c.09 0 .17-.036.232-.098a.332.332 0 0 0 0-.462c-1.062-1.023-2.293-.436-2.347-.41a.327.327 0 0 0-.152.436c.08.16.277.222.438.151.044-.017.892-.4 1.606.294a.31.31 0 0 0 .223.089ZM73.902 26.433c.134 0 .25-.08.303-.204 1.16-2.987-.714-4.898-.794-4.978a.324.324 0 0 0-.455 0 .332.332 0 0 0 0 .462c.071.071 1.642 1.698.642 4.284a.322.322 0 0 0 .188.418c.035.018.08.018.116.018ZM75.641 22.22h.063a.324.324 0 0 0 .259-.382l-.33-1.751a.326.326 0 0 0-.384-.258.324.324 0 0 0-.259.382l.33 1.751c.027.151.17.267.322.267v-.009ZM70.894 21.945h.062a.325.325 0 0 0 .26-.382l-.331-1.75a.326.326 0 0 0-.384-.259.324.324 0 0 0-.259.383l.33 1.75c.027.152.17.267.322.267v-.009Z"/><path fill="#0017BF" d="M75.847 17.118s-.696-1.564-2.561-1.724c-1.865-.16-3.061 1.066-3.061 1.066s.571 3.2-2.097 4.667c-2.678 1.467-4.606.845-4.606.845l-1.794-.8-1.142-2.791 5.783-5.316 7.194-3.093 3.266 3.457-.982 3.671v.018Z"/><path fill="#000" d="M72.018 28.47c.214 0 .357-.152.348-.33 0-.177-.142-.293-.33-.32-.071.018-1.535 0-2.053-1.368a.323.323 0 0 0-.419-.187.322.322 0 0 0-.188.418c.536 1.422 1.937 1.786 2.633 1.786h.01Z"/><path fill="#373178" d="M159.551 88.833H91.099c-2.49 0-4.507-2.01-4.507-4.49v-57.26c0-2.48 2.018-4.49 4.507-4.49h68.452c2.489 0 4.507 2.01 4.507 4.49v57.26c0 2.48-2.018 4.49-4.507 4.49Z"/><path fill="#FFBB87" d="M79.631 54.664s9.38-4.951 12.227-5.378c2.847-.427 7.71 2.693 7.71 2.693l-2.453 1.414s3.837 8.355 3.123 9.626c-.714 1.271-2.561 0-2.561 0s-4.41 4.533-5.685 4.676c-1.276.142-8.104-2.551-8.104-2.551l-4.266-10.48h.009Z"/><path fill="#DC3C1E" d="M80.907 52.683 60.577 59.9l2.088-24.986s-15.591 4.738-19.706 20.738c-4.123 16 1.848 28.737 14.637 29.875 12.789 1.129 30.13-16.702 30.13-16.702l-6.819-16.142Z"/><path fill="#FFBB87" d="M117.784 16.55s-2.276-3.814-4.373-.623c-2.097 3.191-.303 12.293 1.401 12.711 1.83.453 2.972-3.022 2.972-3.022s.348 2.969 2.276 3.022c1.919.053 2.793-3.022 2.793-3.022s.955 3.467 2.624 3.022c1.83-.498 2.794-12.089-.696-13.297-1.678-.578-2.624 1.208-2.624 1.208s-.651-2.204-2.57-1.92c-1.919.285-1.794 1.92-1.794 1.92h-.009Z"/><path fill="#fff" d="m97.115 53.394 6.792-4.152 1.74 3.458-7.042 4.178-1.49-3.484Z"/><path fill="#fff" d="M107.816 53.855c-1.455 0-3.178-.445-3.972-2.027-1.205-2.4.411-5.333.607-5.653l2.258 1.289c-.295.515-1.026 2.222-.536 3.2.348.693 1.884.64 2.535.506l.544 2.542a6.794 6.794 0 0 1-1.428.143h-.008Z"/><path fill="#000" d="M97.115 53.713a.326.326 0 0 0 .259-.516l-1.741-2.418a.325.325 0 0 0-.527.382l1.74 2.419c.063.088.161.133.269.133ZM97.686 63.339a.298.298 0 0 0 .188-.062.324.324 0 0 0 .071-.454l-.99-1.377a.339.339 0 0 0-.456-.08.324.324 0 0 0-.071.453l.99 1.378c.063.089.161.133.268.133v.009ZM117.785 25.535a.32.32 0 0 0 .321-.32v-8.667a.32.32 0 0 0-.321-.32.32.32 0 0 0-.322.32v8.667c0 .178.143.32.322.32ZM122.853 25.944c.206-.017.34-.169.322-.346l-.696-9.067a.34.34 0 0 0-.349-.302.333.333 0 0 0-.303.347l.696 9.066a.322.322 0 0 0 .321.302h.009Z"/><path fill="#fff" d="M68.922 39.846h.143c1.4-.035 2.624-.595 3.641-1.662a.332.332 0 0 0-.009-.462c-.125-.124-.339-.116-.464.009-1.553 1.636-3.606 1.902-6.087.809-1.91-.845-3.373-2.213-3.382-2.222a.335.335 0 0 0-.464.009.332.332 0 0 0 .009.462c.134.124 3.266 3.057 6.604 3.057h.009ZM55.65 60.575s.09 0 .126-.027c8.63-3.635 21-6.346 21.124-6.373a.323.323 0 1 0-.133-.63c-.125.026-12.557 2.746-21.241 6.408a.319.319 0 0 0-.17.427.32.32 0 0 0 .304.195h-.01Z"/><path fill="#fff" d="M60.06 57.846c1.293 0 2.543-.045 3.4-.09a.314.314 0 0 0 .303-.266.328.328 0 0 0-.188-.355c-.276-.125-6.702-2.951-8.933-1.138-.428.355-.428.667-.357.862.303.8 3.141.987 5.765.987h.01Zm1.847-.676c-3.338.09-6.631-.07-6.997-.533.018 0 .053-.062.151-.133 1.268-1.032 4.641-.134 6.846.666ZM95.08 22.923a.326.326 0 0 0 .312-.23c.224-.739 1.277-4.472.41-5.432-.133-.151-.392-.311-.785-.24-.312.062-.562.24-.731.524-.777 1.307.357 4.774.482 5.165.044.133.17.222.312.222v-.009Zm.125-5.28c.071 0 .098.027.116.045.366.409.116 2.15-.25 3.698-.312-1.218-.607-2.872-.223-3.52a.396.396 0 0 1 .294-.214h.072l-.009-.009ZM71.286 81.916a.263.263 0 0 0 .143-.035c.09-.045 9.228-4.693 14.315-10.702a.322.322 0 0 0-.49-.418c-4.998 5.902-14.021 10.489-14.11 10.542a.323.323 0 0 0-.143.436c.053.115.17.177.294.177h-.009ZM119.043 110.486a.321.321 0 0 0 .241-.533l-3.043-3.352a.336.336 0 0 0-.464-.026.321.321 0 0 0-.027.453l3.043 3.351a.321.321 0 0 0 .241.107h.009Z"/><path fill="#fff" d="M116 110.486a.321.321 0 0 0 .241-.107l3.043-3.351a.32.32 0 0 0-.027-.453.327.327 0 0 0-.464.027l-3.043 3.351a.32.32 0 0 0 .241.533H116Z"/><path fill="#E64218" d="M138.249 155.97h49.353c1.874 0 3.4-1.52 3.4-3.387v-39.875a3.398 3.398 0 0 0-3.4-3.387h-49.353a3.398 3.398 0 0 0-3.401 3.387v39.875a3.398 3.398 0 0 0 3.401 3.387Zm49.353-46.009a2.745 2.745 0 0 1 2.749 2.738v39.875a2.745 2.745 0 0 1-2.749 2.738h-49.353a2.744 2.744 0 0 1-2.749-2.738v-39.875a2.744 2.744 0 0 1 2.749-2.738h49.353Z"/><path fill="#E64218" d="M135.17 118.538h55.511a.32.32 0 0 0 .321-.329.321.321 0 0 0-.321-.329H135.17a.322.322 0 0 0-.322.329c0 .187.143.329.322.329ZM184.166 116.102c.09 0 .188-.035.25-.115l2.954-3.467a.322.322 0 1 0-.491-.417l-2.954 3.466a.322.322 0 0 0 .036.453c.063.054.134.08.214.08h-.009Z"/><path fill="#E64218" d="M187.13 116.102a.336.336 0 0 0 .214-.08.322.322 0 0 0 .036-.453l-2.954-3.466a.325.325 0 0 0-.456-.036.323.323 0 0 0-.035.453l2.954 3.467c.062.08.151.115.25.115h-.009Z"/><path fill="#1D4568" d="M312.057 206.307h-47.551c-4.386 0-7.943-3.542-7.943-7.911v-57.457c0-4.369 3.557-7.911 7.943-7.911h47.551c4.387 0 7.943 3.542 7.943 7.911v57.457c0 4.369-3.556 7.911-7.943 7.911Z"/><path fill="#40398D" d="M307.282 206.307h-47.55c-4.387 0-7.943-3.542-7.943-7.911v-57.457c0-4.369 3.556-7.911 7.943-7.911h47.55c4.387 0 7.943 3.542 7.943 7.911v57.457c0 4.369-3.556 7.911-7.943 7.911Z"/><path fill="#E64218" d="M205.532 121.401a.326.326 0 0 0 .232-.097.327.327 0 0 0 .098-.231V20.567a.32.32 0 0 0-.321-.32.32.32 0 0 0-.322.32v100.186l-79.546-.054V63.055a.319.319 0 0 0-.321-.32.32.32 0 0 0-.321.32v57.964c0 .178.143.32.321.329l80.197.053h-.017Z"/><path fill="#FFBB87" d="m246.05 179.598-3.802 12.826-16.091-2.737 3.677-11.965 16.216 1.876ZM271.146 177.268l1.75 14.658-16.092 3.075-1.499-13.724 15.841-4.009ZM219.062 46.817s-1.633 5.129 1.187 6.187c2.829 1.057 2.838-1.867 2.838-1.867l-1.749-3.671-2.276-.64v-.01Z"/><path fill="#FFBB87" d="M232.092 57.012s-3.695-9.485-7.06-11.138c-3.364-1.653-9.763-1.449-10.745.293-.973 1.734 1.955 1.77 2.713 1.591.759-.177 3.043.32 3.579 1.094.544.773.759 4.027.759 4.027s-2.499.506-3.579-.4c-1.08-.907-2.169-2.543-2.928-1.343-.758 1.191 2.276 7.467 4.454 9.191 2.169 1.734 7.702 3.894 7.702 3.894l5.105-7.21Z"/><path fill="#000" d="M221.347 53.198c.205-.017.339-.177.321-.355 0-.045-.107-1.12-.509-2.898-.446-1.956-2.222-2.329-2.302-2.347a.33.33 0 0 0-.384.258.325.325 0 0 0 .25.382c.062.01 1.445.32 1.794 1.858.392 1.734.49 2.8.499 2.809a.327.327 0 0 0 .322.293h.009Z"/><path fill="#373178" d="M199.668 39.358h11.727c.641 0 1.16.517 1.16 1.156v11.68c0 .638-.519 1.155-1.16 1.155h-11.727c-.641 0-1.16-.517-1.16-1.156v-11.68c0-.638.519-1.155 1.16-1.155ZM199.668 57.225h11.727c.641 0 1.16.518 1.16 1.156v11.68c0 .638-.519 1.155-1.16 1.155h-11.727c-.641 0-1.16-.517-1.16-1.155V58.38c0-.638.519-1.156 1.16-1.156ZM199.668 75.091h11.727c.641 0 1.16.517 1.16 1.156v11.68c0 .638-.519 1.155-1.16 1.155h-11.727c-.641 0-1.16-.517-1.16-1.155v-11.68c0-.639.519-1.156 1.16-1.156Z"/><path fill="#fff" d="m211.279 54.264 6.569-5.52-1.687-1.982-4.65 3.92-3.784-4.106-1.919 1.76 5.471 5.928ZM205.683 69.447l5.391-4.569-1.687-1.973-3.284 2.782-4.231-5.6-2.088 1.565 5.899 7.795ZM205.683 87.322l5.391-4.569-1.687-1.973-3.284 2.782-4.231-5.609-2.088 1.564 5.899 7.805Z"/><path fill="#5EF939" d="M222.515.159h-34.404a2.547 2.547 0 0 0-2.553 2.542v18.88a2.547 2.547 0 0 0 2.553 2.542h34.404a2.547 2.547 0 0 0 2.553-2.542V2.7A2.547 2.547 0 0 0 222.515.16Z"/><path fill="#40398D" d="M109.252 110.459v53.617c0 3.218 2.945 5.823 6.56 5.823h94.611c3.632 0 6.577-2.605 6.577-5.823v-53.617c0-3.218-2.945-5.822-6.577-5.822h-94.611c-3.615 0-6.56 2.604-6.56 5.822Z"/><path fill="#5EF939" d="M148.646 120.059h22.753a.904.904 0 0 1 0 1.808h-22.753a.905.905 0 1 1 0-1.808Z"/><path fill="#FFB904" d="M125.698 129.367h40.264a.904.904 0 0 1 0 1.808h-40.264a.903.903 0 1 1 0-1.808Z"/><path fill="#5EF939" d="M171.367 129.367h16.465a.904.904 0 1 1 0 1.808h-16.465a.904.904 0 1 1 0-1.808Z"/><path fill="#FFB904" d="M125.698 155.573h40.264a.904.904 0 1 1 0 1.808h-40.264a.904.904 0 1 1 0-1.808Z"/><path fill="#5EF939" d="M171.368 155.573h31.177a.904.904 0 1 1 0 1.808h-31.177a.905.905 0 1 1 0-1.808ZM125.698 142.25h40.264a.904.904 0 0 1 0 1.809h-40.264a.904.904 0 1 1 0-1.809ZM171.367 142.25h16.465a.904.904 0 1 1 0 1.809h-16.465a.905.905 0 0 1 0-1.809Z"/><path fill="#FFB904" d="M175.099 137.617h-27.53a.904.904 0 1 1 0-1.808h27.53a.904.904 0 0 1 0 1.808Z"/><path fill="#5EF939" d="M142.162 137.617h-16.464a.905.905 0 1 1 0-1.808h16.464a.904.904 0 1 1 0 1.808Z"/><path fill="#FFB904" d="M175.099 150.5h-27.53a.904.904 0 1 1 0-1.808h27.53a.904.904 0 1 1 0 1.808Z"/><path fill="#5EF939" d="M142.162 150.5h-16.464a.905.905 0 1 1 0-1.808h16.464a.903.903 0 1 1 0 1.808Z"/><path fill="#3DF130" d="m125.518 122.434 4.844 2.139v-1.377l-3.291-1.333v-.059l3.291-1.333v-1.377l-4.844 2.149v1.191Zm11.307-5.176h-1.25l-2.276 8.467h1.241l2.285-8.467Zm-6.463 27.176v-1.191l-4.844-2.149v1.377l3.291 1.333v.059l-3.291 1.333v1.377l4.844-2.139Z"/><path fill="#FFB904" d="M176.805 120.059h25.74a.904.904 0 0 1 0 1.808h-25.74a.904.904 0 0 1 0-1.808ZM240.731 204.566c1.179.072 2.223-.853 2.357-2.106.553-4.942 2.409-15.964 1.508-16.062-1.151-.125-13.111 1.733-13.111 1.733s.438-6.889-4.489-6.195c-3.775.533-8.523 4.417-10.531 6.195a4.1 4.1 0 0 1-2.222 1.031c-3.516.471-13.244 2.222-13.94 7.236-.857 6.133 1.704 5.706 2.856 5.831.99.106 29.513 1.84 37.572 2.329v.008Z"/><path fill="#FFB904" d="M277.001 200.432c1.106-.418 1.669-1.689 1.276-2.889-1.544-4.729-4.418-15.528-5.284-15.253-1.106.356-11.227 6.969-11.227 6.969s-2.454-6.453-6.649-3.796c-3.221 2.045-5.935 7.529-7.023 9.974a4.143 4.143 0 0 1-1.598 1.848c-3.008 1.876-11.147 7.467-9.701 12.32 1.758 5.938 3.909 4.498 5.016 4.143.946-.312 27.648-10.454 35.19-13.325v.009Z"/><path fill="#fff" d="M284.838 37.02s9.629-2.577 16.787 6.16c7.166 8.738 2.713 19.494-8.639 19.183-11.343-.312-13.985-11.858-13.985-11.858l5.828-13.476.009-.008Z"/><path fill="#0017BF" d="M270.379 44.213s-2.74-2.898-2.053-7.485c.464-3.11 1.829-4.142 1.829-4.142s-2.195-4.187 4.097-4.053c6.283.133 11.432-.4 14.235 4.986 1.651 3.174.99 10.063.99 10.063l-19.098.63Z"/><path fill="#FFBB87" d="m284.266 49.1-.045 7.636s-1.392 2.186-5.881 2.524c-3.347.249-4.391-1.467-4.391-1.467l.848-6.675 8.112-1.724 1.357-.294Z"/><path fill="#000" d="M284.257 48.64c-.018.203-.098.452-.223.737-1.74 3.804-7.791 5.36-9.719 5.52l.482-3.769 9.46-2.489Z"/><path fill="#FFBB87" d="M273.181 33.697s-4.078 9.555-2.525 14.88c1.552 5.333 6.434 4.444 9.353 3.377 2.918-1.057 4.257-2.862 4.257-2.862s2.74.898 4.542-1.653c1.803-2.551.652-5.44-.919-6.098-1.571-.649-3.409.489-3.409.489l1.428-2.782s-6.256-13.991-12.727-5.369v.018Z"/><path fill="#0017BF" d="M284.48 41.848s-4.087.907-7.033-3.59c-2.945-4.498-2.713-6.374-2.713-6.374l-2.748 4.756s-.697-3.245.571-5.352c1.267-2.106 2.632-1.697 2.632-1.697l9.104 2.08 2.525 7.182-2.329 2.995h-.009Z"/><path fill="#000" d="M274.171 45.804s.072 0 .099-.018a.318.318 0 0 0 .205-.409c-.58-1.769.187-3.698.196-3.716a.323.323 0 0 0-.178-.426.326.326 0 0 0-.429.178c-.035.088-.865 2.168-.214 4.16.045.133.17.222.312.222l.009.009ZM284.953 46.318a.32.32 0 0 0 .241-.106l2.552-2.783a.324.324 0 0 0-.018-.462.327.327 0 0 0-.464.018l-2.552 2.782a.324.324 0 0 0 .018.462.35.35 0 0 0 .223.09Z"/><path fill="#000" d="M287.693 45.546a.32.32 0 0 0 .321-.285.321.321 0 0 0-.277-.364l-1.802-.24a.328.328 0 0 0-.366.276.321.321 0 0 0 .276.364l1.803.24h.045v.009ZM271.744 38.051h.063l1.651-.32a.325.325 0 0 0 .259-.382.333.333 0 0 0-.384-.258l-1.651.32a.324.324 0 0 0-.259.383c.027.15.17.266.321.266v-.009ZM278.045 38.434c.134 0 .258-.08.303-.213a.329.329 0 0 0-.187-.418l-1.714-.64a.33.33 0 0 0-.419.186.328.328 0 0 0 .187.418l1.714.64s.071.018.116.018v.009ZM272.663 41.954a.317.317 0 0 0 .313-.232l.5-1.724a.367.367 0 0 0-.063-.302l-.544-.631a.326.326 0 0 0-.456-.036.323.323 0 0 0-.035.453l.428.507-.446 1.565a.32.32 0 0 0 .223.4c.027 0 .063.008.089.008l-.009-.008ZM277.5 42.328a.325.325 0 0 0 .313-.231l.5-1.724a.336.336 0 0 0-.072-.303l-.75-.835a.335.335 0 0 0-.464-.027c-.133.116-.142.32-.026.462l.624.703-.446 1.555a.322.322 0 0 0 .223.4c.027 0 .063.009.089.009l.009-.009ZM275.332 48.558c.08 0 .16 0 .241-.017 1.062-.178 1.651-1.458 1.678-1.511a.314.314 0 0 0-.045-.338.324.324 0 0 0-.321-.116l-2.928.64a.322.322 0 0 0-.241.222.346.346 0 0 0 .072.32c.5.543 1.017.81 1.535.81l.009-.01Zm.928-1.182c-.214.25-.482.471-.794.525-.232.044-.473-.027-.732-.196l1.526-.329Z"/><path fill="#E64218" d="M270.923 104.628s-29.594 1.662-37.287 7.6c-7.693 5.938-8.122 68.097-8.122 68.097l24.142 2.738.223-60.853 21.044-17.582Z"/><path fill="#0017BF" d="M286.229 57.172s-.848-2.969-1.276-2.969c-.562 0-3.668 1.493-6.497 1.475-2.821-.017-3.311-.897-4.15-.782-.839.116-1.152 2.276-1.152 2.276s-5.23 1.733-11.307 3.138c-6.078 1.404-15.627-.436-19.644-2.383-4.016-1.946-10.852-6.16-10.852-6.16l-7.059 18.48s14.324 18.267 27.461 18.373c13.137.107 28.978-2.489 28.978-2.489l5.489-28.968.009.009Z"/><path fill="#E64218" d="M306.39 105.581s2.169 23.235-1.294 25.422c-8.086 5.111-30.228 3.822-30.335 4.773-.107.951 2.481 43.306 2.481 43.306l-29.175 5.423s-10.718-61.822-4.65-71.795c6.06-9.974 41.813-9.031 41.813-9.031l21.151 1.902h.009Z"/><path fill="#FFB904" d="m249.594 100.149 16.207-1.609-6.114-26.222-16.207 1.609 6.114 26.222Z"/><path fill="#fff" d="m247.165 100.389 16.199-1.6-6.114-26.231-16.198 1.609 6.113 26.222Z"/><path fill="#0017BF" d="m268.219 83.981-.607 19.893s12.807 3.564 22.463 4.436c9.657.862 16.279 0 16.279 0v-7.671l-38.144-16.65.009-.008Z"/><path fill="#FFBB87" d="M270.307 86.567s-1.936-4-3.891-5.404c-1.954-1.405-4.935-1.396-4.935-1.396l.589 2.853s-4.543.596-5.31 0c-.768-.595-4.025-3.19-4.891-2.969-.866.214.973 2.97.973 2.97s-1.955-1.787-2.606-.703c-.652 1.084 1.847 5.404 1.847 5.404s-2.276-2.266-1.517 1.298c.758 3.565 7.363 7.022 9.647 7.351 2.285.32 11.433.356 11.433.356l-1.348-9.76h.009Z"/><path fill="#000" d="M262.069 82.95h.063l2.392-.49a.318.318 0 0 0 .249-.382.319.319 0 0 0-.383-.249l-2.392.49a.318.318 0 0 0-.25.382c.036.15.17.257.321.257v-.008ZM259.687 86.682a.323.323 0 0 0 .321-.311.333.333 0 0 0-.313-.338c-.017 0-2.231-.116-3.453-.72-1.232-.614-3.133-2.871-3.151-2.889a.317.317 0 0 0-.455-.036.332.332 0 0 0-.045.454c.081.097 2.017 2.382 3.356 3.058 1.348.675 3.615.782 3.713.79h.018l.009-.008ZM259.142 90.79a.319.319 0 0 0 .321-.32.32.32 0 0 0-.321-.33c-.018 0-1.838-.053-3.391-.8-2.017-.969-3.436-2.24-3.454-2.249a.336.336 0 0 0-.464.027.333.333 0 0 0 .027.462c.062.054 1.499 1.334 3.605 2.356 1.678.809 3.579.862 3.659.871l.018-.018Z"/><path fill="#DC3C1E" d="M209.379 6.729h8.121v8.089h-8.121v-8.09Z"/><path fill="#E64218" d="m198.606 3.831-2.525 4.364-2.526 4.365h10.112l-2.526-4.365-2.535-4.364Z"/><path fill="#fff" d="M205.631 20.435c-3.116 0-5.641-2.515-5.641-5.618 0-3.102 2.525-5.617 5.641-5.617 3.115 0 5.64 2.515 5.64 5.617 0 3.103-2.525 5.618-5.64 5.618Z"/><path fill="#E64218" d="M123.594 76.442a1.73 1.73 0 0 0 1.732 1.725 1.73 1.73 0 0 0 1.731-1.725 1.73 1.73 0 0 0-1.731-1.724 1.73 1.73 0 0 0-1.732 1.724ZM125.326 100.389a1.728 1.728 0 0 1-1.732-1.724c0-.952.776-1.724 1.732-1.724s1.731.772 1.731 1.724-.775 1.724-1.731 1.724ZM203.801 96.86a1.73 1.73 0 0 0 1.731 1.725 1.73 1.73 0 0 0 1.732-1.724 1.73 1.73 0 0 0-1.732-1.725 1.73 1.73 0 0 0-1.731 1.725Z"/><path fill="#373178" d="M109.252 110.459v1.547h107.757v-1.547c0-3.218-2.945-5.822-6.577-5.822h-94.611c-3.614 0-6.56 2.604-6.56 5.822h-.009Z"/><path fill="#fff" d="M247.246 177.997h.062a.324.324 0 0 0 .259-.382c-.089-.489-9.156-49.129-5.301-59.298 3.82-10.053 27.515-10.311 27.756-10.319.16 0 .303-.125.321-.285a.328.328 0 0 0-.241-.355l-5.56-1.44a.326.326 0 0 0-.393.231.34.34 0 0 0 .232.4l3.392.88c-6.149.32-22.812 1.982-26.105 10.657-3.927 10.338 4.891 57.644 5.266 59.653a.332.332 0 0 0 .321.267l-.009-.009Z"/><path fill="#0017BF" d="M284.953 56.95s18.688.436 29.434 21.511c10.745 21.084-.545 31.893-18.778 29.511-18.233-2.382-27.399-8.107-27.399-8.107l2.089-17.875 14.654-25.04Z"/><path fill="#FFB904" d="M296.35 84.816a.317.317 0 0 0 .312-.231.322.322 0 0 0-.223-.4c-7.479-2.133-22.892-2.116-23.044-2.124a.321.321 0 0 0-.321.328c0 .178.143.32.321.32.661 0 15.592.027 22.865 2.098.027 0 .063.01.09.01ZM280.473 59.367c2.972 0 5.81-1.849 5.935-1.929a.318.318 0 0 0 .089-.444.33.33 0 0 0-.455-.09c-.027.018-3.106 2.01-6.016 1.805-.178-.027-.339.125-.348.302a.328.328 0 0 0 .304.347c.16.009.321.018.482.018l.009-.01ZM252.485 67.26a.966.966 0 0 0 .553-.17c1.455-.915 1.883-5.795 1.928-6.346a.33.33 0 0 0-.206-.329.33.33 0 0 0-.374.098c-.349.436-3.383 4.329-2.928 5.973.089.33.313.57.634.694.134.053.259.07.384.07l.009.01Zm1.713-5.405c-.25 1.903-.767 4.231-1.499 4.685a.36.36 0 0 1-.366.035.364.364 0 0 1-.241-.266c-.223-.818.982-2.89 2.106-4.463v.01Z"/><path fill="#FFB904" d="M295.297 84.123c2.847 0 6.291-.223 6.782-1.28.107-.232.152-.614-.285-1.076-2.312-2.489-9.603 1.493-9.907 1.662a.333.333 0 0 0-.16.356c.026.142.151.24.303.249.696.035 1.919.088 3.267.088Zm4.185-2.534c.777 0 1.428.178 1.839.622.08.09.223.258.169.365-.339.71-4.301.987-8.201.87 1.722-.826 4.319-1.848 6.193-1.848v-.009Z"/><path fill="#fff" d="M274.769 136.095a.31.31 0 0 0 .224-.089.324.324 0 0 0 .071-.382c-.669-1.333-2.936-5.662-4.311-5.662-.241 0-.553.115-.749.578-.955 2.293 4.034 5.191 4.605 5.511a.37.37 0 0 0 .16.044Zm-4.007-5.484c.571 0 1.982 2.053 3.177 4.258-1.588-1.058-3.828-2.88-3.328-4.08.026-.072.08-.178.142-.178h.009Z"/><path fill="#FFB904" d="M286.791 104.958a.325.325 0 0 0 .322-.266.326.326 0 0 0-.259-.383c-.089-.017-9.407-1.786-16.663-6.017a.33.33 0 0 0-.446.115.33.33 0 0 0 .116.445c7.354 4.293 16.779 6.08 16.877 6.097h.062l-.009.009Z"/><path fill="#5EF939" d="M136.179 69.456h-21.696a3.251 3.251 0 0 1-3.258-3.245V44.602a3.251 3.251 0 0 1 3.258-3.244h21.696a3.25 3.25 0 0 1 3.257 3.244v21.61a3.25 3.25 0 0 1-3.257 3.243Z"/><path fill="#fff" d="m135.205 58.016-1 2.382 1.25 1.182a11.888 11.888 0 0 1-3.686 3.76l-1.392-1.315-2.374 1.004.08 1.885c-.884.204-1.803.32-2.749.32-.857 0-1.696-.09-2.508-.267V64.94l-2.365-1.022-1.455 1.494a11.933 11.933 0 0 1-3.712-3.69l1.392-1.315-.999-2.382-1.937-.018a11.85 11.85 0 0 1-.286-2.604c0-.942.107-1.858.322-2.738l1.901-.018.999-2.382-1.33-1.262a11.901 11.901 0 0 1 3.74-3.654l1.365 1.405 2.365-1.022v-1.885a11.712 11.712 0 0 1 2.508-.266c.946 0 1.865.106 2.749.32l-.071 1.742 2.373 1.004 1.304-1.235a11.98 11.98 0 0 1 3.721 3.724l-1.196 1.129 1 2.373 1.678.018c.205.88.321 1.796.321 2.738 0 .889-.098 1.76-.286 2.595l-1.704.018-.018.009Zm-4.114-2.613c0-3.174-2.58-5.742-5.766-5.742s-5.765 2.568-5.765 5.742c0 3.173 2.579 5.742 5.765 5.742 3.186 0 5.766-2.569 5.766-5.742Z"/></svg>