<svg width="280" height="400" viewBox="0 0 280 400" fill="none" xmlns="http://www.w3.org/2000/svg">
<path d="M280 0H0V400H280V0Z" fill="black"/>
<mask id="mask0_1455_34253" style="mask-type:alpha" maskUnits="userSpaceOnUse" x="0" y="220" width="280" height="180">
<path d="M280 220H0V400H280V220Z" fill="black"/>
</mask>
<g mask="url(#mask0_1455_34253)">
<path d="M36.1535 257.694V320.618C36.1535 322.528 37.7598 324.09 39.7391 324.09H153.865C155.834 324.09 157.44 322.528 157.44 320.618V257.694C157.44 255.785 155.834 254.222 153.865 254.222H39.7391C37.7598 254.222 36.1535 255.785 36.1535 257.694Z" fill="#40398D"/>
<path d="M36.1535 258.368V262.759H157.44V258.368C157.44 256.081 155.834 254.222 153.865 254.222H39.7391C37.7598 254.222 36.1535 256.081 36.1535 258.368Z" fill="#EDEDED"/>
<path d="M137.545 260.52C136.406 260.52 135.483 259.611 135.483 258.488C135.483 257.366 136.406 256.456 137.545 256.456C138.684 256.456 139.607 257.366 139.607 258.488C139.607 259.611 138.684 260.52 137.545 260.52Z" fill="#FFB904"/>
<path d="M144.145 260.52C143.006 260.52 142.083 259.611 142.083 258.488C142.083 257.366 143.006 256.456 144.145 256.456C145.284 256.456 146.207 257.366 146.207 258.488C146.207 259.611 145.284 260.52 144.145 260.52Z" fill="#E64218"/>
<path d="M150.735 260.52C149.596 260.52 148.672 259.611 148.672 258.488C148.672 257.366 149.596 256.456 150.735 256.456C151.874 256.456 152.797 257.366 152.797 258.488C152.797 259.611 151.874 260.52 150.735 260.52Z" fill="#0017BF"/>
<path d="M45.6202 287.033H71.5181C72.1812 287.033 72.7188 287.571 72.7188 288.234C72.7188 288.897 72.1812 289.434 71.5181 289.434H45.6202C44.9571 289.434 44.4196 288.897 44.4196 288.234C44.4196 287.571 44.9571 287.033 45.6202 287.033Z" fill="#FFB904"/>
<path d="M76.8956 287.033H102.793C103.457 287.033 103.994 287.571 103.994 288.234C103.994 288.897 103.457 289.434 102.793 289.434H76.8956C76.2325 289.434 75.6949 288.897 75.6949 288.234C75.6949 287.571 76.2325 287.033 76.8956 287.033Z" fill="#3DF130"/>
<path d="M45.6203 279.573H58.7046C59.3677 279.573 59.9053 280.111 59.9053 280.774C59.9053 281.437 59.3677 281.975 58.7046 281.975H45.6203C44.9572 281.975 44.4196 281.437 44.4196 280.774C44.4196 280.111 44.9572 279.573 45.6203 279.573Z" fill="#3DF130"/>
<path d="M88.9006 301.244H101.985C102.648 301.244 103.186 301.782 103.186 302.445C103.186 303.108 102.648 303.645 101.985 303.645H88.9006C88.2375 303.645 87.6999 303.108 87.6999 302.445C87.6999 301.782 88.2375 301.244 88.9006 301.244Z" fill="#FFB904"/>
<path d="M63.3425 279.573H96.6929C97.356 279.573 97.8936 280.111 97.8936 280.774C97.8936 281.437 97.356 281.975 96.6929 281.975H63.3425C62.6794 281.975 62.1418 281.437 62.1418 280.774C62.1418 280.111 62.6794 279.573 63.3425 279.573Z" fill="#E64218"/>
<path d="M45.6205 294.138H109.819C110.482 294.138 111.02 294.676 111.02 295.339C111.02 296.002 110.482 296.539 109.819 296.539H45.6205C44.9574 296.539 44.4198 296.002 44.4198 295.339C44.4198 294.676 44.9574 294.138 45.6205 294.138Z" fill="#3DF130"/>
<path d="M45.6207 301.244H83.9927C84.6558 301.244 85.1934 301.782 85.1934 302.445C85.1934 303.108 84.6558 303.645 83.9927 303.645H45.6207C44.9576 303.645 44.42 303.108 44.42 302.445C44.42 301.782 44.9576 301.244 45.6207 301.244Z" fill="#3DF130"/>
<path d="M116.48 276.718H148.322V306.869H116.48V276.718Z" fill="#2E2C6E"/>
<path d="M120.612 293.01V291.432L128.159 287.932V289.885L122.847 292.174V292.268L128.159 294.557V296.51L120.612 293.01ZM135.097 284.869L131.456 298.416H129.706L133.362 284.869H135.097ZM144.206 293.01L136.659 296.51V294.557L141.972 292.268V292.174L136.659 289.885V287.932L144.206 291.432V293.01Z" fill="#FFB904"/>
<path d="M242.814 226.128C242.814 226.128 248.534 216.652 257.664 221.267C266.793 225.883 265.799 235.421 272.731 237.616C279.664 239.801 285.343 245.694 281.312 253.291C277.944 259.643 268.814 257.631 268.814 257.631C268.814 257.631 263.135 267.158 253.104 263.901C243.073 260.643 238.493 255.507 239.55 247.317C240.596 239.127 242.824 226.138 242.824 226.138L242.814 226.128Z" fill="#0017BF"/>
<path d="M226.503 239.894C226.503 239.894 221.084 232.093 232.058 225.935C243.032 219.788 251.032 228.223 251.125 232.746C251.219 237.28 248.597 239.374 248.597 239.374C248.597 239.374 249.623 249.197 240.048 248.513C230.472 247.839 226.503 239.874 226.503 239.874V239.894Z" fill="#0017BF"/>
<path d="M240.969 246.962L241.166 254.896C241.166 254.896 239.777 257.214 235.073 257.704C231.57 258.072 230.316 257.316 230.316 257.316L230.7 253.283L231.083 249.351L239.539 247.299L240.959 246.952L240.969 246.962Z" fill="#FFBB87"/>
<path d="M240.937 246.581C240.926 246.795 240.843 247.061 240.719 247.357C239.019 251.36 232.719 253.065 230.698 253.29L231.081 249.359L240.937 246.581Z" fill="black"/>
<path d="M228.834 231.315C228.834 231.315 224.865 241.363 226.668 246.846C228.471 252.33 233.57 251.258 236.596 250.053C239.622 248.858 240.969 246.948 240.969 246.948C240.969 246.948 243.871 247.796 245.684 245.09C247.498 242.384 246.192 239.412 244.524 238.789C242.855 238.167 240.959 239.402 240.959 239.402L242.368 236.471C242.368 236.471 235.352 222.145 228.834 231.304V231.315Z" fill="#FFBB87"/>
<path d="M228.202 244.286C228.202 244.286 228.244 244.286 228.265 244.286C228.472 244.255 228.606 244.061 228.575 243.857C228.068 240.824 229.249 239.211 229.27 239.19C229.394 239.027 229.363 238.792 229.197 238.67C229.031 238.547 228.793 238.578 228.669 238.741C228.617 238.813 227.27 240.6 227.84 243.969C227.871 244.153 228.026 244.286 228.213 244.286H228.202Z" fill="black"/>
<path d="M241.177 243.489C241.24 243.489 241.302 243.479 241.354 243.448L245.271 241.396C245.457 241.304 245.53 241.069 245.426 240.895C245.333 240.711 245.095 240.65 244.918 240.742L241.001 242.795C240.815 242.886 240.742 243.121 240.846 243.295C240.918 243.417 241.043 243.489 241.177 243.489Z" fill="black"/>
<path d="M244.835 244.181C244.938 244.181 245.042 244.14 245.125 244.058C245.26 243.905 245.249 243.67 245.084 243.538L243.197 241.914C243.042 241.781 242.804 241.791 242.659 241.955C242.524 242.108 242.534 242.343 242.7 242.476L244.586 244.099C244.659 244.161 244.752 244.191 244.835 244.191V244.181Z" fill="black"/>
<path d="M227.259 236.299C227.259 236.299 227.445 233.848 229.342 231.755C231.362 229.529 233.072 229.896 233.072 229.896C233.072 229.896 230.088 236.33 235.103 238.597C238.668 240.21 240.958 239.424 240.958 239.424L246.067 234.43L235.912 226.302C235.912 226.302 226.647 225.025 227.269 236.309L227.259 236.299Z" fill="#0017BF"/>
<path d="M230.72 246.326C230.72 246.326 230.803 246.326 230.844 246.306C230.896 246.285 232.108 245.867 232.896 244.559C233 244.386 232.937 244.151 232.761 244.049C232.585 243.947 232.347 244.008 232.243 244.182C231.601 245.254 230.606 245.601 230.595 245.601C230.399 245.673 230.295 245.877 230.357 246.071C230.409 246.224 230.554 246.326 230.709 246.326H230.72Z" fill="black"/>
<path d="M231.746 240.088C231.922 240.088 232.078 239.975 232.119 239.802L232.523 238.035C232.544 237.943 232.523 237.841 232.471 237.749L231.902 236.85C231.788 236.677 231.549 236.626 231.383 236.738C231.207 236.85 231.155 237.075 231.269 237.249L231.756 238.015L231.383 239.628C231.342 239.832 231.466 240.026 231.663 240.077C231.694 240.077 231.715 240.077 231.746 240.077V240.088Z" fill="black"/>
<path d="M226.74 240.046C226.916 240.046 227.072 239.934 227.113 239.76L227.517 237.993C227.538 237.902 227.517 237.799 227.466 237.708L226.896 236.809C226.782 236.635 226.554 236.584 226.378 236.697C226.201 236.809 226.15 237.034 226.264 237.207L226.751 237.973L226.378 239.586C226.336 239.791 226.46 239.985 226.657 240.036C226.688 240.036 226.709 240.036 226.74 240.036V240.046Z" fill="black"/>
<path d="M227.591 235.461C227.591 235.461 227.643 235.461 227.674 235.461L228.783 235.226C228.99 235.185 229.115 234.981 229.073 234.787C229.032 234.583 228.835 234.46 228.628 234.501L227.519 234.736C227.311 234.777 227.187 234.981 227.229 235.175C227.27 235.349 227.425 235.471 227.602 235.471L227.591 235.461Z" fill="black"/>
<path d="M188.242 251.535L170.128 262.482L149.817 235.707L167.941 224.75L188.242 251.535Z" fill="#3DF130"/>
<path d="M190.585 250.257L172.471 261.204L152.159 234.429L170.284 223.472L190.585 250.257Z" fill="#F6F6F6"/>
<path d="M157.247 236.603C157.32 236.603 157.382 236.583 157.444 236.552L170.74 228.516C170.916 228.404 170.978 228.179 170.864 228.005C170.761 227.832 170.522 227.77 170.346 227.883L157.051 235.919C156.874 236.032 156.812 236.256 156.926 236.43C156.999 236.542 157.123 236.603 157.247 236.603Z" fill="#0017BF"/>
<path d="M159.404 239.372C159.476 239.372 159.538 239.352 159.601 239.321L172.896 231.285C173.072 231.172 173.134 230.948 173.02 230.774C172.917 230.601 172.679 230.539 172.502 230.652L159.207 238.688C159.031 238.8 158.968 239.025 159.082 239.199C159.155 239.311 159.279 239.372 159.404 239.372Z" fill="#0017BF"/>
<path d="M161.507 242.17C161.58 242.17 161.642 242.149 161.704 242.119L175 234.082C175.176 233.97 175.238 233.745 175.124 233.572C175.02 233.398 174.782 233.337 174.606 233.449L161.31 241.486C161.134 241.598 161.072 241.823 161.186 241.996C161.259 242.109 161.383 242.17 161.507 242.17Z" fill="#0017BF"/>
<path d="M163.62 244.958C163.692 244.958 163.754 244.938 163.816 244.907L177.112 236.871C177.288 236.758 177.35 236.534 177.236 236.36C177.133 236.187 176.894 236.125 176.718 236.238L163.423 244.274C163.246 244.387 163.184 244.611 163.298 244.785C163.371 244.897 163.495 244.958 163.62 244.958Z" fill="#0017BF"/>
<path d="M209.922 237.627L229.57 263.412L210.71 274.266L198.502 242.406L209.922 237.627Z" fill="#FFBB87"/>
<path d="M233.311 235.912C233.466 235.912 233.612 235.82 233.663 235.667C233.736 235.473 233.632 235.258 233.435 235.197L231.104 234.401C230.907 234.339 230.689 234.431 230.627 234.625C230.554 234.819 230.658 235.034 230.855 235.095L233.187 235.891C233.187 235.891 233.27 235.912 233.311 235.912Z" fill="black"/>
<path d="M181.485 263.197C181.485 263.197 181.06 255.845 178.812 252.934C176.563 250.024 172.615 247.757 171.775 249.442C170.936 251.127 173.61 253.567 173.185 254.568C172.76 255.569 169.951 255.069 165.723 253.578C161.495 252.097 158.687 247.277 158.687 247.277C158.687 247.277 157.848 249.187 158.127 250.923C158.407 252.659 158.967 253.578 158.967 253.578C158.967 253.578 158.065 251.576 158.065 255.232C158.065 257.07 159.672 258.357 159.672 258.357C159.672 258.357 158.407 259.868 161.081 263.197C163.754 266.526 171.216 269.579 171.216 269.579C171.216 269.579 179.516 289.553 193.175 294.822C206.833 300.091 217.527 293.015 217.527 293.015L213.31 271.101C213.31 271.101 198.667 276.237 181.496 263.197H181.485Z" fill="#FFBB87"/>
<path d="M165.632 257.757C165.808 257.757 165.963 257.634 166.005 257.46C166.046 257.256 165.922 257.062 165.715 257.021C162.595 256.378 158.958 252.681 158.927 252.641C158.782 252.498 158.543 252.487 158.388 252.63C158.233 252.773 158.233 253.008 158.388 253.161C158.543 253.325 162.222 257.062 165.569 257.757C165.601 257.757 165.621 257.757 165.652 257.757H165.632Z" fill="black"/>
<path d="M164.999 261.379C165.176 261.379 165.341 261.246 165.373 261.072C165.404 260.868 165.269 260.674 165.062 260.644C161.517 260.051 159.984 258.152 159.963 258.131C159.839 257.968 159.6 257.937 159.435 258.07C159.269 258.193 159.238 258.428 159.362 258.591C159.435 258.683 161.082 260.746 164.927 261.379C164.948 261.379 164.968 261.379 164.989 261.379H164.999Z" fill="black"/>
<path d="M225.136 303.696C225.136 303.696 206.991 327.796 192.079 354.56C177.167 381.325 168.887 414.799 168.887 414.799L207.064 417.127L234.826 350.997L226.66 416.249L263.583 414.972C263.583 414.972 271.572 354.397 267.313 325.825C263.054 297.253 258.059 291.238 258.059 291.238L225.147 303.696H225.136Z" fill="#FFB904"/>
<path d="M247.115 240.671C247.229 240.671 247.332 240.62 247.415 240.528C253.851 232.543 245.187 225.405 245.104 225.334C244.939 225.201 244.7 225.232 244.576 225.385C244.441 225.548 244.472 225.783 244.628 225.905C244.97 226.181 252.804 232.645 246.825 240.059C246.7 240.222 246.721 240.457 246.887 240.58C246.959 240.631 247.042 240.661 247.125 240.661L247.115 240.671Z" fill="white"/>
<path d="M204.213 271.376C204.213 271.376 218.742 255.354 236.286 254.312C253.83 253.27 259.737 261.593 260.587 265.545C261.426 269.497 262.908 297.793 261.851 299.672C260.794 301.541 253.592 304.87 241.892 305.707C230.182 306.544 224.058 305.084 223.219 304.461C222.379 303.838 221.322 295.097 221.322 295.097L211.394 297.599L204.213 271.386V271.376Z" fill="#3DF130"/>
<path d="M240.968 246.962C240.968 246.962 236.025 257.919 241.165 262.259C246.305 266.599 253.953 263.79 253.953 263.79C253.953 263.79 256.533 265.414 261.466 263.77C266.399 262.126 268.813 257.623 268.813 257.623L240.968 246.962Z" fill="#0017BF"/>
<path d="M209.922 237.629C209.922 237.629 204.989 230 202.512 228.326C200.036 226.651 186.212 221.29 184.844 222.597C183.476 223.904 191.559 229.367 191.559 229.367C191.559 229.367 190.17 229.663 189.828 230.766C189.486 231.869 190.098 232.768 190.098 232.768C190.098 232.768 188.377 232.707 187.89 233.86C187.403 235.014 188.201 236.281 188.201 236.281C188.201 236.281 191.372 241.999 193.186 242.111C194.989 242.234 194.751 239.068 194.751 239.068C194.751 239.068 195.404 241.948 196.979 243.541C198.554 245.124 201.787 245.297 205.124 243.561C208.461 241.825 209.922 237.618 209.922 237.618V237.629Z" fill="#FFBB87"/>
<path d="M206.066 242.621C206.253 242.621 206.419 242.479 206.439 242.285C206.46 242.08 206.315 241.896 206.097 241.876C202.294 241.478 201.362 236.648 201.351 236.597C201.331 236.495 201.279 236.413 201.185 236.352C201.103 236.301 200.989 236.28 200.895 236.301C199.092 236.689 196.926 236.832 196.574 236.382C196.501 236.29 196.574 236.117 196.636 235.984C197.631 234.034 202.222 232.042 202.263 232.022C202.45 231.94 202.543 231.715 202.46 231.532C202.377 231.348 202.149 231.256 201.963 231.338C201.766 231.419 197.071 233.451 195.963 235.647C195.662 236.229 195.807 236.617 195.983 236.842C196.709 237.761 199.424 237.352 200.688 237.107C200.999 238.353 202.263 242.233 206.015 242.621C206.025 242.621 206.046 242.621 206.056 242.621H206.066Z" fill="black"/>
<path d="M196.74 235.555C196.896 235.555 197.051 235.453 197.103 235.3C197.165 235.106 197.062 234.891 196.865 234.83C194.689 234.125 191.922 229.234 191.891 229.183C191.787 228.999 191.559 228.938 191.372 229.04C191.186 229.142 191.124 229.367 191.227 229.551C191.352 229.765 194.17 234.748 196.626 235.545C196.668 235.555 196.709 235.565 196.74 235.565V235.555Z" fill="black"/>
<path d="M195.839 239.731C195.839 239.731 195.88 239.731 195.911 239.731C196.647 239.69 197.206 239.435 197.569 238.965C198.201 238.138 197.953 236.984 197.942 236.933C197.901 236.729 197.694 236.606 197.497 236.647C197.289 236.688 197.165 236.892 197.206 237.086C197.206 237.086 197.393 237.965 196.968 238.506C196.75 238.792 196.377 238.945 195.88 238.976C194.481 239.037 191.797 235.095 190.45 232.583C190.357 232.399 190.129 232.328 189.942 232.43C189.756 232.522 189.683 232.746 189.787 232.93C190.16 233.635 193.507 239.721 195.859 239.721L195.839 239.731Z" fill="black"/>
<path d="M221.321 295.477C221.467 295.477 221.612 295.385 221.674 295.252C222.161 294.119 224.513 288.39 222.658 287.165C222.275 286.91 221.964 287.012 221.809 287.104C220.575 287.808 220.834 293.425 220.948 295.13C220.959 295.303 221.093 295.446 221.259 295.477C221.28 295.477 221.301 295.477 221.321 295.477ZM222.182 287.747C223.011 288.298 222.451 290.943 221.612 293.302C221.539 290.381 221.767 287.951 222.182 287.747Z" fill="white"/>
<path d="M237.063 310.476C244.897 310.476 255.416 309.179 261.737 303.103C261.882 302.96 261.892 302.726 261.737 302.572C261.592 302.429 261.353 302.419 261.198 302.572C250.659 312.692 227.218 309.057 226.99 309.016C226.783 308.985 226.586 309.118 226.555 309.322C226.524 309.526 226.659 309.72 226.866 309.751C227.27 309.812 231.488 310.476 237.053 310.476H237.063Z" fill="white"/>
<path d="M234.647 351.375C234.771 351.375 234.906 351.304 234.978 351.191C235.03 351.1 240.346 342.318 254.129 337.151C254.326 337.079 254.419 336.865 254.347 336.671C254.274 336.477 254.056 336.374 253.86 336.456C239.807 341.725 234.377 350.732 234.326 350.814C234.222 350.987 234.284 351.222 234.46 351.324C234.522 351.355 234.585 351.375 234.647 351.375Z" fill="white"/>
<path d="M266.856 331.131C267.209 331.131 267.561 331.121 267.924 331.1C268.131 331.09 268.286 330.906 268.276 330.702C268.266 330.498 268.1 330.355 267.872 330.355C264.607 330.569 261.986 329.773 260.068 327.975C256.98 325.086 256.649 320.398 256.607 319.285L265.675 315.732C265.872 315.66 265.965 315.436 265.882 315.252C265.799 315.068 265.582 314.966 265.395 315.048L256.079 318.693C255.934 318.744 255.84 318.887 255.84 319.03C255.84 319.275 255.778 325.004 259.53 328.517C261.385 330.253 263.841 331.131 266.835 331.131H266.856Z" fill="white"/>
<path d="M228.151 334.546C236.13 334.546 238.856 321.986 238.876 321.853C238.918 321.669 238.804 321.475 238.617 321.424L224.524 317.115C224.337 317.064 224.13 317.156 224.057 317.329C223.892 317.727 220.151 327.051 222.886 331.819C223.715 333.27 225.052 334.148 226.866 334.434C227.301 334.505 227.726 334.536 228.14 334.536L228.151 334.546ZM238.058 322.037C237.55 324.079 234.493 334.914 226.99 333.709C225.415 333.453 224.254 332.708 223.55 331.462C221.259 327.469 224.006 319.617 224.638 317.932L238.058 322.027V322.037Z" fill="white"/>
<path d="M143.464 319.531H181.185C182.812 319.531 184.138 318.224 184.138 316.621V299.7C184.138 298.097 182.812 296.79 181.185 296.79H143.464C141.837 296.79 140.511 298.097 140.511 299.7V316.621C140.511 318.224 141.837 319.531 143.464 319.531Z" fill="white"/>
<path d="M164.719 298.454L178.522 288.743L175.144 298.454H164.719Z" fill="white"/>
<path d="M153.216 315.1H148.429V301.233H153.216V315.1Z" fill="#3DF130"/>
<path d="M160.895 315.1H156.107V303.725H160.895V315.1Z" fill="#FFB904"/>
<path d="M176.232 315.1H171.444V303.725H176.232V315.1Z" fill="#5EF939"/>
<path d="M168.553 315.089H163.766V308.155H168.553V315.089Z" fill="#373178"/>
<path d="M14.6323 269.021H68.7575C70.2083 269.021 71.3896 267.857 71.3896 266.427V240.531C71.3896 239.101 70.2083 237.937 68.7575 237.937H14.6323C13.1815 237.937 12.0001 239.101 12.0001 240.531V266.427C12.0001 267.857 13.1815 269.021 14.6323 269.021ZM68.7575 238.693C69.7938 238.693 70.6228 239.52 70.6228 240.541V266.438C70.6228 267.459 69.7834 268.286 68.7575 268.286H14.6323C13.596 268.286 12.767 267.459 12.767 266.438V240.541C12.767 239.52 13.6063 238.693 14.6323 238.693H68.7575Z" fill="#E64218"/>
<path d="M12.3835 244.422H71.0062C71.2135 244.422 71.3896 244.258 71.3896 244.054C71.3896 243.85 71.2238 243.687 71.0062 243.687H12.3835C12.1763 243.687 12.0001 243.85 12.0001 244.054C12.0001 244.258 12.1659 244.422 12.3835 244.422Z" fill="#E64218"/>
<path d="M16.5085 243.023C17.5137 243.023 18.3428 242.216 18.3428 241.215C18.3428 240.215 17.5241 239.408 16.5085 239.408C15.493 239.408 14.6743 240.215 14.6743 241.215C14.6743 242.216 15.493 243.023 16.5085 243.023ZM16.5085 240.164C17.0992 240.164 17.5863 240.633 17.5863 241.226C17.5863 241.818 17.1096 242.288 16.5085 242.288C15.9075 242.288 15.4308 241.818 15.4308 241.226C15.4308 240.633 15.9075 240.164 16.5085 240.164Z" fill="#E64218"/>
<path d="M21.3689 243.023C22.3741 243.023 23.2031 242.216 23.2031 241.215C23.2031 240.215 22.3845 239.408 21.3689 239.408C20.3533 239.408 19.5347 240.215 19.5347 241.215C19.5347 242.216 20.3533 243.023 21.3689 243.023ZM21.3689 240.164C21.9596 240.164 22.4467 240.633 22.4467 241.226C22.4467 241.818 21.97 242.288 21.3689 242.288C20.7679 242.288 20.2912 241.818 20.2912 241.226C20.2912 240.633 20.7679 240.164 21.3689 240.164Z" fill="#E64218"/>
<path d="M26.2283 243.023C27.2335 243.023 28.0625 242.216 28.0625 241.215C28.0625 240.215 27.2438 239.408 26.2283 239.408C25.2127 239.408 24.3941 240.215 24.3941 241.215C24.3941 242.216 25.2127 243.023 26.2283 243.023ZM26.2283 240.164C26.819 240.164 27.306 240.633 27.306 241.226C27.306 241.818 26.8293 242.288 26.2283 242.288C25.6272 242.288 25.1505 241.818 25.1505 241.226C25.1505 240.633 25.6272 240.164 26.2283 240.164Z" fill="#E64218"/>
</g>
</svg>
