<svg xmlns="http://www.w3.org/2000/svg" width="744" height="600" viewBox="0 0 744 600" fill="none">
<path d="M495.917 404.572V455.693C495.917 457.352 497.314 458.71 499.036 458.71H598.297C600.009 458.71 601.406 457.352 601.406 455.693V404.572C601.406 402.913 600.009 401.556 598.297 401.556H499.036C497.314 401.556 495.917 402.913 495.917 404.572Z" fill="#40398D"/>
<path d="M495.918 401.605V405.42H601.406V401.605C601.406 399.618 600.009 398.003 598.297 398.003H499.036C497.315 398.003 495.918 399.618 495.918 401.605Z" fill="#EDEDED"/>
<path d="M584.101 403.477C583.111 403.477 582.308 402.687 582.308 401.711C582.308 400.736 583.111 399.946 584.101 399.946C585.092 399.946 585.895 400.736 585.895 401.711C585.895 402.687 585.092 403.477 584.101 403.477Z" fill="#FFB904"/>
<path d="M589.842 403.477C588.852 403.477 588.049 402.687 588.049 401.711C588.049 400.736 588.852 399.946 589.842 399.946C590.833 399.946 591.636 400.736 591.636 401.711C591.636 402.687 590.833 403.477 589.842 403.477Z" fill="#E64218"/>
<path d="M595.574 403.477C594.584 403.477 593.781 402.687 593.781 401.711C593.781 400.736 594.584 399.946 595.574 399.946C596.565 399.946 597.368 400.736 597.368 401.711C597.368 402.687 596.565 403.477 595.574 403.477Z" fill="#0017BF"/>
<path d="M509.055 428.09H528.434C529.169 428.09 529.765 428.686 529.765 429.421C529.765 430.156 529.169 430.752 528.434 430.752H509.055C508.32 430.752 507.725 430.156 507.725 429.421C507.725 428.686 508.32 428.09 509.055 428.09Z" fill="#FFB904"/>
<path d="M533.414 428.09H552.792C553.527 428.09 554.123 428.686 554.123 429.421C554.123 430.156 553.527 430.752 552.792 430.752H533.414C532.679 430.752 532.083 430.156 532.083 429.421C532.083 428.686 532.679 428.09 533.414 428.09Z" fill="#3DF130"/>
<path d="M509.056 419.173H518.455C519.19 419.173 519.786 419.769 519.786 420.504C519.786 421.239 519.19 421.835 518.455 421.835H509.056C508.321 421.835 507.725 421.239 507.725 420.504C507.725 419.769 508.321 419.173 509.056 419.173Z" fill="#3DF130"/>
<path d="M522.858 419.173H548.041C548.776 419.173 549.372 419.769 549.372 420.504C549.372 421.239 548.776 421.835 548.041 421.835H522.858C522.123 421.835 521.527 421.239 521.527 420.504C521.527 419.769 522.123 419.173 522.858 419.173Z" fill="#E64218"/>
<path d="M509.055 436.732H558.263C558.998 436.732 559.594 437.328 559.594 438.063C559.594 438.798 558.998 439.394 558.263 439.394H509.055C508.32 439.394 507.724 438.798 507.724 438.063C507.724 437.328 508.32 436.732 509.055 436.732Z" fill="#3DF130"/>
<path d="M564.696 418.473H588.526V441.932H564.696V418.473Z" fill="#2E2C6E"/>
<path d="M568.772 431.884V430.7L574.433 428.075V429.54L570.448 431.257V431.327L574.433 433.044V434.509L568.772 431.884ZM579.636 425.778L576.905 435.938H575.593L578.335 425.778H579.636ZM574.433 453.884L568.772 456.509V455.044L572.757 453.327V453.257L568.772 451.54V450.075L574.433 452.7V453.884Z" fill="#3DF130"/>
<path d="M693.447 547.056V562.068H712.834V542.362L693.447 547.056Z" fill="#FFBB87"/>
<path d="M642.992 541.447L638.927 555.919L657.629 561.003L662.965 542.006L642.992 541.447Z" fill="#FFBB87"/>
<path d="M698.746 386.256C698.746 386.256 703.721 378.022 711.662 382.033C719.602 386.043 718.737 394.33 724.767 396.238C730.797 398.137 735.736 403.256 732.23 409.858C729.301 415.376 721.36 413.628 721.36 413.628C721.36 413.628 716.421 421.907 707.696 419.076C698.972 416.246 694.988 411.783 695.907 404.667C696.817 397.551 698.755 386.265 698.755 386.265L698.746 386.256Z" fill="#0017BF"/>
<path d="M684.56 398.217C684.56 398.217 679.847 391.439 689.391 386.088C698.936 380.747 705.894 388.076 705.975 392.007C706.057 395.946 703.776 397.765 703.776 397.765C703.776 397.765 704.669 406.3 696.34 405.706C688.012 405.12 684.56 398.2 684.56 398.2V398.217Z" fill="#0017BF"/>
<path d="M697.142 404.356L697.313 411.25C697.313 411.25 696.105 413.264 692.014 413.69C688.967 414.009 687.877 413.352 687.877 413.352L688.21 409.848L688.544 406.432L695.898 404.648L697.133 404.347L697.142 404.356Z" fill="#FFBB87"/>
<path d="M697.115 404.028C697.106 404.215 697.034 404.445 696.926 404.703C695.447 408.181 689.968 409.662 688.21 409.858L688.543 406.442L697.115 404.028Z" fill="black"/>
<path d="M686.589 390.763C686.589 390.763 683.137 399.494 684.705 404.258C686.273 409.023 690.707 408.091 693.339 407.044C695.971 406.006 697.143 404.347 697.143 404.347C697.143 404.347 699.666 405.083 701.244 402.732C702.821 400.381 701.685 397.799 700.234 397.258C698.783 396.716 697.134 397.79 697.134 397.79L698.36 395.244C698.36 395.244 692.258 382.795 686.589 390.754V390.763Z" fill="#FFBB87"/>
<path d="M686.039 402.031C686.039 402.031 686.075 402.031 686.093 402.031C686.273 402.005 686.391 401.836 686.363 401.659C685.922 399.024 686.949 397.622 686.967 397.604C687.076 397.462 687.048 397.258 686.904 397.151C686.76 397.045 686.553 397.072 686.445 397.214C686.4 397.276 685.228 398.828 685.724 401.756C685.751 401.916 685.886 402.031 686.048 402.031H686.039Z" fill="black"/>
<path d="M697.323 401.34C697.377 401.34 697.431 401.331 697.477 401.304L700.883 399.521C701.046 399.441 701.109 399.237 701.019 399.086C700.938 398.927 700.73 398.873 700.577 398.953L697.17 400.737C697.008 400.816 696.945 401.021 697.035 401.171C697.098 401.278 697.206 401.34 697.323 401.34Z" fill="black"/>
<path d="M700.504 401.943C700.594 401.943 700.684 401.907 700.756 401.836C700.873 401.703 700.864 401.499 700.72 401.384L699.08 399.973C698.945 399.858 698.737 399.867 698.611 400.009C698.494 400.142 698.503 400.346 698.647 400.461L700.288 401.872C700.351 401.925 700.432 401.952 700.504 401.952V401.943Z" fill="black"/>
<path d="M685.219 395.094C685.219 395.094 685.381 392.964 687.03 391.145C688.788 389.211 690.275 389.531 690.275 389.531C690.275 389.531 687.679 395.12 692.041 397.09C695.142 398.492 697.134 397.809 697.134 397.809L701.577 393.47L692.744 386.407C692.744 386.407 684.687 385.298 685.228 395.103L685.219 395.094Z" fill="#0017BF"/>
<path d="M688.229 403.805C688.229 403.805 688.301 403.805 688.337 403.788C688.382 403.77 689.436 403.406 690.121 402.27C690.212 402.12 690.157 401.915 690.004 401.827C689.851 401.738 689.644 401.791 689.554 401.942C688.995 402.874 688.13 403.175 688.121 403.175C687.949 403.237 687.859 403.415 687.913 403.584C687.958 403.717 688.084 403.805 688.22 403.805H688.229Z" fill="black"/>
<path d="M689.121 398.385C689.274 398.385 689.409 398.287 689.445 398.137L689.797 396.602C689.815 396.522 689.797 396.433 689.751 396.353L689.256 395.572C689.157 395.421 688.949 395.377 688.805 395.475C688.652 395.572 688.607 395.768 688.706 395.918L689.13 396.584L688.805 397.986C688.769 398.163 688.877 398.332 689.048 398.376C689.076 398.376 689.094 398.376 689.121 398.376V398.385Z" fill="black"/>
<path d="M684.767 398.35C684.921 398.35 685.056 398.252 685.092 398.101L685.443 396.566C685.461 396.487 685.443 396.398 685.398 396.318L684.902 395.537C684.803 395.386 684.605 395.342 684.452 395.44C684.299 395.537 684.254 395.732 684.353 395.883L684.776 396.549L684.452 397.951C684.416 398.128 684.524 398.297 684.695 398.341C684.722 398.341 684.74 398.341 684.767 398.341V398.35Z" fill="black"/>
<path d="M685.507 394.367C685.507 394.367 685.552 394.367 685.579 394.367L686.543 394.162C686.724 394.127 686.832 393.949 686.796 393.78C686.76 393.603 686.589 393.496 686.408 393.532L685.444 393.736C685.264 393.772 685.155 393.949 685.192 394.118C685.228 394.269 685.363 394.375 685.516 394.375L685.507 394.367Z" fill="black"/>
<path d="M651.284 408.331L635.529 417.842L617.863 394.578L633.627 385.058L651.284 408.331Z" fill="#3DF130"/>
<path d="M653.32 407.222L637.566 416.733L619.9 393.469L635.664 383.949L653.32 407.222Z" fill="#F6F6F6"/>
<path d="M624.325 395.359C624.389 395.359 624.443 395.341 624.497 395.314L636.06 388.331C636.214 388.234 636.268 388.039 636.169 387.888C636.078 387.737 635.871 387.684 635.718 387.781L624.154 394.764C624.001 394.862 623.947 395.057 624.046 395.208C624.109 395.305 624.217 395.359 624.325 395.359Z" fill="#0017BF"/>
<path d="M626.2 397.764C626.263 397.764 626.317 397.746 626.371 397.719L637.935 390.737C638.088 390.639 638.142 390.444 638.043 390.293C637.953 390.142 637.746 390.089 637.592 390.187L626.029 397.169C625.876 397.267 625.821 397.462 625.921 397.613C625.984 397.711 626.092 397.764 626.2 397.764Z" fill="#0017BF"/>
<path d="M628.03 400.195C628.093 400.195 628.147 400.177 628.201 400.151L639.765 393.168C639.918 393.07 639.972 392.875 639.873 392.724C639.783 392.573 639.576 392.52 639.422 392.618L627.859 399.6C627.705 399.698 627.651 399.893 627.751 400.044C627.814 400.142 627.922 400.195 628.03 400.195Z" fill="#0017BF"/>
<path d="M629.869 402.617C629.932 402.617 629.986 402.6 630.04 402.573L641.604 395.59C641.757 395.493 641.811 395.297 641.712 395.147C641.622 394.996 641.415 394.942 641.262 395.04L629.698 402.023C629.545 402.12 629.491 402.316 629.59 402.466C629.653 402.564 629.761 402.617 629.869 402.617Z" fill="#0017BF"/>
<path d="M670.139 396.247L687.228 418.651L670.824 428.082L660.207 400.399L670.139 396.247Z" fill="#FFBB87"/>
<path d="M690.482 394.756C690.617 394.756 690.743 394.676 690.789 394.543C690.852 394.374 690.762 394.188 690.59 394.135L688.562 393.443C688.391 393.389 688.202 393.469 688.148 393.638C688.085 393.806 688.175 393.993 688.346 394.046L690.374 394.738C690.374 394.738 690.446 394.756 690.482 394.756Z" fill="black"/>
<path d="M645.408 418.464C645.408 418.464 645.038 412.076 643.083 409.547C641.127 407.018 637.693 405.048 636.963 406.512C636.233 407.976 638.558 410.097 638.189 410.966C637.819 411.836 635.376 411.401 631.699 410.106C628.022 408.819 625.579 404.631 625.579 404.631C625.579 404.631 624.849 406.291 625.093 407.799C625.336 409.307 625.823 410.106 625.823 410.106C625.823 410.106 625.038 408.367 625.038 411.543C625.038 413.14 626.436 414.258 626.436 414.258C626.436 414.258 625.336 415.571 627.661 418.464C629.987 421.356 636.476 424.009 636.476 424.009C636.476 424.009 643.696 441.364 655.575 445.942C667.454 450.521 676.755 444.372 676.755 444.372L673.087 425.331C673.087 425.331 660.352 429.794 645.417 418.464H645.408Z" fill="#FFBB87"/>
<path d="M631.618 413.735C631.771 413.735 631.906 413.629 631.942 413.478C631.978 413.301 631.87 413.132 631.69 413.096C628.977 412.537 625.813 409.326 625.786 409.29C625.66 409.166 625.453 409.157 625.317 409.281C625.182 409.405 625.182 409.61 625.317 409.743C625.453 409.885 628.652 413.132 631.564 413.735C631.591 413.735 631.609 413.735 631.636 413.735H631.618Z" fill="black"/>
<path d="M631.068 416.884C631.221 416.884 631.365 416.769 631.392 416.618C631.419 416.441 631.302 416.272 631.122 416.246C628.039 415.731 626.706 414.081 626.688 414.063C626.579 413.921 626.372 413.894 626.228 414.01C626.084 414.116 626.057 414.32 626.165 414.462C626.228 414.542 627.661 416.334 631.005 416.884C631.023 416.884 631.041 416.884 631.059 416.884H631.068Z" fill="black"/>
<path d="M683.371 453.654C683.371 453.654 667.589 474.593 654.619 497.848C641.649 521.104 634.448 550.188 634.448 550.188L667.652 552.211L691.798 494.752L684.696 551.448L716.809 550.339C716.809 550.339 723.758 497.706 720.054 472.881C716.35 448.055 712.005 442.829 712.005 442.829L683.38 453.654H683.371Z" fill="#FFB904"/>
<path d="M702.487 398.89C702.586 398.89 702.676 398.846 702.748 398.766C708.346 391.828 700.811 385.626 700.739 385.564C700.594 385.448 700.387 385.475 700.279 385.608C700.162 385.75 700.189 385.954 700.324 386.06C700.621 386.3 707.435 391.916 702.235 398.358C702.127 398.5 702.145 398.704 702.289 398.81C702.352 398.855 702.424 398.881 702.496 398.881L702.487 398.89Z" fill="white"/>
<path d="M665.173 425.571C665.173 425.571 677.809 411.65 693.068 410.745C708.327 409.84 713.465 417.071 714.204 420.505C714.934 423.939 716.223 448.525 715.304 450.158C714.384 451.781 708.12 454.674 697.944 455.401C687.76 456.129 682.433 454.86 681.703 454.319C680.973 453.778 680.054 446.183 680.054 446.183L671.419 448.356L665.173 425.58V425.571Z" fill="#3DF130"/>
<path d="M697.142 404.355C697.142 404.355 692.843 413.876 697.313 417.647C701.784 421.418 708.436 418.978 708.436 418.978C708.436 418.978 710.68 420.388 714.97 418.96C719.26 417.531 721.36 413.619 721.36 413.619L697.142 404.355Z" fill="#0017BF"/>
<path d="M670.139 396.246C670.139 396.246 665.849 389.619 663.695 388.163C661.541 386.708 649.517 382.05 648.328 383.186C647.138 384.322 654.168 389.068 654.168 389.068C654.168 389.068 652.96 389.326 652.663 390.284C652.366 391.242 652.897 392.023 652.897 392.023C652.897 392.023 651.401 391.97 650.978 392.972C650.554 393.975 651.248 395.075 651.248 395.075C651.248 395.075 654.006 400.044 655.583 400.142C657.151 400.248 656.944 397.497 656.944 397.497C656.944 397.497 657.512 400 658.882 401.384C660.252 402.759 663.064 402.91 665.966 401.401C668.868 399.893 670.139 396.238 670.139 396.238V396.246Z" fill="#FFBB87"/>
<path d="M666.786 400.586C666.948 400.586 667.092 400.462 667.11 400.293C667.128 400.116 667.002 399.956 666.813 399.939C663.505 399.592 662.694 395.396 662.685 395.351C662.667 395.263 662.622 395.192 662.541 395.138C662.469 395.094 662.369 395.076 662.288 395.094C660.72 395.431 658.836 395.555 658.53 395.165C658.467 395.085 658.53 394.934 658.584 394.819C659.449 393.124 663.442 391.394 663.478 391.376C663.64 391.305 663.721 391.11 663.649 390.95C663.577 390.791 663.379 390.711 663.217 390.782C663.045 390.853 658.962 392.619 657.998 394.526C657.737 395.032 657.863 395.369 658.016 395.564C658.647 396.363 661.008 396.008 662.108 395.795C662.378 396.877 663.478 400.249 666.741 400.586C666.75 400.586 666.768 400.586 666.777 400.586H666.786Z" fill="black"/>
<path d="M658.675 394.446C658.81 394.446 658.945 394.357 658.99 394.224C659.044 394.055 658.954 393.869 658.783 393.816C656.89 393.204 654.484 388.954 654.457 388.909C654.367 388.749 654.168 388.696 654.006 388.785C653.844 388.874 653.79 389.069 653.88 389.229C653.988 389.415 656.439 393.745 658.576 394.437C658.612 394.446 658.648 394.455 658.675 394.455V394.446Z" fill="black"/>
<path d="M657.89 398.074C657.89 398.074 657.926 398.074 657.953 398.074C658.593 398.039 659.08 397.817 659.395 397.409C659.945 396.69 659.729 395.687 659.72 395.643C659.684 395.465 659.504 395.359 659.332 395.394C659.152 395.43 659.044 395.607 659.08 395.776C659.08 395.776 659.242 396.539 658.873 397.009C658.683 397.258 658.359 397.391 657.926 397.417C656.71 397.471 654.375 394.046 653.203 391.863C653.122 391.703 652.924 391.641 652.762 391.73C652.6 391.81 652.536 392.005 652.627 392.165C652.951 392.777 655.862 398.065 657.908 398.065L657.89 398.074Z" fill="black"/>
<path d="M680.053 446.51C680.18 446.51 680.306 446.431 680.36 446.315C680.784 445.33 682.829 440.353 681.216 439.288C680.883 439.066 680.612 439.155 680.477 439.235C679.405 439.847 679.63 444.727 679.729 446.209C679.738 446.36 679.855 446.484 679.999 446.51C680.017 446.51 680.035 446.51 680.053 446.51ZM680.802 439.794C681.523 440.273 681.036 442.571 680.306 444.621C680.243 442.083 680.441 439.971 680.802 439.794Z" fill="white"/>
<path d="M693.744 459.544C700.558 459.544 709.707 458.417 715.205 453.138C715.331 453.014 715.34 452.81 715.205 452.677C715.078 452.552 714.871 452.544 714.736 452.677C705.57 461.469 685.182 458.311 684.984 458.275C684.804 458.249 684.632 458.364 684.605 458.541C684.578 458.719 684.695 458.887 684.876 458.914C685.227 458.967 688.895 459.544 693.735 459.544H693.744Z" fill="white"/>
<path d="M691.644 495.079C691.752 495.079 691.869 495.017 691.932 494.92C691.978 494.84 696.601 487.209 708.589 482.72C708.76 482.658 708.841 482.471 708.778 482.303C708.715 482.134 708.526 482.045 708.354 482.116C696.133 486.695 691.41 494.52 691.365 494.591C691.275 494.742 691.329 494.946 691.482 495.035C691.536 495.062 691.59 495.079 691.644 495.079Z" fill="white"/>
<path d="M719.657 477.493C719.964 477.493 720.27 477.484 720.585 477.467C720.766 477.458 720.901 477.298 720.892 477.121C720.883 476.943 720.739 476.819 720.54 476.819C717.701 477.005 715.421 476.313 713.754 474.752C711.068 472.241 710.779 468.168 710.743 467.201L718.63 464.113C718.801 464.051 718.882 463.856 718.81 463.696C718.738 463.537 718.549 463.448 718.386 463.519L710.284 466.686C710.157 466.731 710.076 466.855 710.076 466.979C710.076 467.192 710.022 472.17 713.285 475.222C714.898 476.73 717.034 477.493 719.639 477.493H719.657Z" fill="white"/>
<path d="M685.993 480.458C692.933 480.458 695.304 469.544 695.322 469.429C695.358 469.269 695.259 469.101 695.097 469.056L682.839 465.312C682.677 465.268 682.496 465.348 682.433 465.498C682.289 465.844 679.035 473.945 681.415 478.089C682.136 479.349 683.299 480.112 684.876 480.36C685.254 480.422 685.624 480.449 685.984 480.449L685.993 480.458ZM694.61 469.589C694.168 471.363 691.509 480.777 684.984 479.73C683.614 479.508 682.605 478.861 681.992 477.778C680 474.309 682.388 467.486 682.938 466.022L694.61 469.58V469.589Z" fill="white"/>
<path d="M658.143 574.827C658.143 574.827 662.848 553.106 659.297 553.035C655.737 552.965 649.996 555.227 649.996 555.227C649.996 555.227 642.677 549.886 638.837 551.651C634.989 553.426 632.204 558.182 632.204 558.182L610.861 567.658C610.861 567.658 607.941 570.985 608.328 572.928C608.635 574.445 638.27 578.11 651.284 579.645C654.637 580.044 657.675 577.906 658.161 574.827H658.143Z" fill="#E64218"/>
<path d="M630.031 564.846C630.122 564.846 630.221 564.81 630.284 564.731C630.374 564.633 630.392 564.491 630.329 564.376L628.959 561.554L637.007 563.604C637.152 563.639 637.296 563.577 637.377 563.453C637.449 563.329 637.431 563.169 637.332 563.063L632.429 557.943C632.303 557.81 632.095 557.81 631.96 557.925C631.825 558.049 631.825 558.254 631.942 558.387L636.061 562.69L628.427 560.747C628.301 560.72 628.175 560.756 628.094 560.853C628.012 560.951 627.994 561.084 628.049 561.199L629.4 563.968L623.488 562.113C623.317 562.06 623.127 562.157 623.073 562.326C623.019 562.495 623.109 562.681 623.29 562.734L629.923 564.81C629.923 564.81 629.986 564.828 630.022 564.828L630.031 564.846Z" fill="#0017BF"/>
<path d="M691.392 555.546C691.392 555.546 678.729 575.909 680.91 578.42C683.091 580.931 698.522 581.286 705.57 580.177C712.609 579.068 715.313 578.234 715.845 576.539C716.376 574.844 713.033 553.923 713.033 553.923C713.033 553.923 709.932 550.48 705.678 551.367C701.424 552.255 694.763 555.493 694.763 555.493C694.763 555.493 693.105 552.698 691.383 555.537L691.392 555.546Z" fill="#E64218"/>
<path d="M691.879 557.499C691.933 557.499 691.996 557.481 692.05 557.454L694.934 555.777C695.087 555.689 695.141 555.485 695.051 555.334C694.961 555.183 694.754 555.13 694.6 555.218L691.716 556.895C691.563 556.984 691.509 557.188 691.599 557.339C691.662 557.445 691.77 557.499 691.879 557.499Z" fill="#0017BF"/>
<path d="M612.337 467.414H645.145C646.56 467.414 647.713 466.278 647.713 464.885V450.183C647.713 448.79 646.56 447.655 645.145 447.655H612.337C610.922 447.655 609.769 448.79 609.769 450.183V464.885C609.769 466.278 610.922 467.414 612.337 467.414Z" fill="#F6F6F6"/>
<path d="M630.823 449.101L642.828 440.663L639.89 449.101H630.823Z" fill="#F6F6F6"/>
<path d="M620.819 463.563H616.655V451.514H620.819V463.563Z" fill="#3DF130"/>
<path d="M627.498 463.563H623.333V453.679H627.498V463.563Z" fill="#FFB904"/>
<path d="M640.837 463.563H636.672V453.679H640.837V463.563Z" fill="#5EF939"/>
<path d="M634.158 463.555H629.994V457.53H634.158V463.555Z" fill="#373178"/>
<path d="M521.975 548.926C521.975 548.926 520.767 563.371 521.2 563.877C521.633 564.383 556.495 574.577 556.495 574.577L551.835 553.682L544.066 539.583L521.975 548.926Z" fill="#001AF8"/>
<path d="M450.861 547.347H504.399C507.306 547.347 509.663 549.667 509.663 552.529V573.663C509.663 576.525 507.306 578.845 504.399 578.845H450.861C447.954 578.845 445.598 576.525 445.598 573.663V552.529C445.598 549.667 447.954 547.347 450.861 547.347Z" fill="#1D4568"/>
<path d="M480.777 469.117C480.777 469.117 488.609 467.555 494.134 472.196C499.659 476.836 502.759 512.291 502.759 512.291C502.759 512.291 484.256 522.149 468.483 522.149C452.71 522.149 454.098 521.439 454.098 521.439L450.421 507.056L480.768 469.126L480.777 469.117Z" fill="#0017BF"/>
<path d="M455.693 547.347H509.231C512.138 547.347 514.495 549.667 514.495 552.529V573.663C514.495 576.525 512.138 578.845 509.231 578.845H455.693C452.786 578.845 450.43 576.525 450.43 573.663V552.529C450.43 549.667 452.786 547.347 455.693 547.347Z" fill="#40398D"/>
<path d="M525.931 450.626C525.931 450.626 528.194 444.957 529.401 446.572C530.609 448.186 528.428 456.704 528.428 456.704C528.428 456.704 523.264 457.503 525.931 450.626Z" fill="#FFBB87"/>
<path d="M492.061 448.693H515.179C516.016 448.693 516.693 449.36 516.693 450.183V472.942C516.693 473.765 516.016 474.432 515.179 474.432H492.061C491.225 474.432 490.547 473.765 490.547 472.942V450.183C490.547 449.36 491.225 448.693 492.061 448.693Z" fill="#F6F6F6"/>
<path d="M500.444 464.972C497.776 462.346 497.776 458.088 500.444 455.461C503.112 452.835 507.437 452.835 510.105 455.461C512.773 458.088 512.773 462.346 510.105 464.972C507.437 467.599 503.112 467.599 500.444 464.972Z" fill="#5EF939"/>
<path d="M500.605 460.297L497.865 464.964L495.134 469.622H500.605H506.076L503.336 464.964L500.605 460.297Z" fill="#E64218"/>
<path d="M520.505 472.364C520.505 472.364 514.98 467.262 515.241 464.556C515.503 461.85 516.792 455.772 516.792 455.772C516.792 455.772 511.357 450.209 511.618 449.02C511.88 447.831 516.062 449.703 516.062 449.703C516.062 449.703 511.6 445.373 511.609 443.67C511.609 441.975 513.944 442.818 513.944 442.818C513.944 442.818 513.601 440.866 514.98 441.035C516.359 441.203 524.994 447.068 527.49 450.209C529.996 453.35 527.319 461.389 527.49 462.507C527.661 463.625 529.392 465.923 529.392 465.923L520.505 472.355V472.364Z" fill="#FFBB87"/>
<path d="M530.519 462.524L513.953 470.669C513.953 470.669 516.197 477.057 511.015 478.929C505.841 480.801 499.793 472.452 492.898 470.34C485.994 468.229 480.451 469.595 480.451 469.595L483.741 497.872C483.741 497.872 514.755 514.1 529.771 503.391C544.787 492.691 530.528 462.515 530.528 462.515L530.519 462.524Z" fill="#0017BF"/>
<path d="M528.5 453.332C528.725 453.305 528.851 453.137 528.824 452.959C528.815 452.861 528.482 450.599 527.094 449.259C526.968 449.135 526.76 449.135 526.625 449.259C526.499 449.383 526.499 449.596 526.625 449.721C527.851 450.901 528.157 453.021 528.166 453.039C528.193 453.199 528.329 453.323 528.491 453.323L528.5 453.332Z" fill="black"/>
<path d="M521.2 449.011C521.299 449.011 521.389 448.967 521.452 448.896C521.569 448.754 521.551 448.55 521.407 448.443L514.161 442.579C514.026 442.463 513.818 442.481 513.701 442.623C513.584 442.765 513.602 442.969 513.746 443.076L520.993 448.94C521.056 448.994 521.128 449.011 521.2 449.011Z" fill="black"/>
<path d="M518.442 451.575C518.55 451.575 518.649 451.522 518.712 451.424C518.811 451.273 518.766 451.078 518.622 450.98L516.243 449.437C516.089 449.339 515.891 449.383 515.792 449.525C515.693 449.676 515.738 449.871 515.882 449.969L518.261 451.513C518.316 451.548 518.379 451.566 518.442 451.566V451.575Z" fill="black"/>
<path d="M566.644 553.194C566.644 553.194 592.151 566.672 595.413 568.509C598.676 570.345 600.65 576.175 599.352 577.248C598.054 578.322 555.99 577.86 552.719 577.248C549.447 576.636 547.112 561.606 547.112 561.606L566.644 553.194Z" fill="#001AF8"/>
<path d="M574.873 560.257C574.873 560.257 574.954 560.257 574.99 560.239C575.36 560.097 584.076 556.797 583.373 551.713C583.264 550.923 582.949 550.462 582.426 550.337C581.182 550.036 579.01 552.254 577.352 554.268C578.487 551.775 579.686 548.51 578.992 547.001C578.794 546.558 578.433 546.274 577.956 546.167C577.487 546.07 577.036 546.167 576.613 546.469C574.107 548.252 573.152 557.134 573.107 557.507C573.089 557.684 573.215 557.844 573.404 557.861C573.593 557.87 573.747 557.746 573.765 557.569C574.026 555.084 575.117 548.323 577 546.984C577.271 546.797 577.532 546.726 577.811 546.788C578.091 546.851 578.271 547.001 578.397 547.259C579.245 549.095 576.36 555.004 575.18 557.125C575.099 557.276 575.144 557.462 575.297 557.56C575.45 557.649 575.639 557.613 575.738 557.471C577.748 554.605 581.11 550.675 582.273 550.959C582.552 551.021 582.669 551.447 582.724 551.793C583.354 556.362 574.846 559.592 574.765 559.618C574.594 559.68 574.513 559.867 574.576 560.035C574.621 560.168 574.747 560.248 574.882 560.248L574.873 560.257Z" fill="#FFB904"/>
<path d="M493.819 504.456C493.819 504.456 519.128 482.106 533.657 485.673C548.186 489.24 549.295 504.181 551.882 520.995C554.468 537.817 555.279 550.106 555.279 550.106L520.498 550.789L518.434 521.403L481.264 510.019L493.81 504.456H493.819Z" fill="#3DF130"/>
<path d="M454.107 521.431C454.107 521.431 456.351 539.735 464.048 545.174C471.745 550.613 484.976 548.918 497.829 542.006C510.474 535.21 514.206 532.69 515.648 532.69C517.09 532.69 542.155 566.867 542.155 566.867L571.412 551.828C571.412 551.828 549.113 498.788 530.637 494.866C512.755 491.068 472.611 515.965 472.611 515.965L454.107 521.431Z" fill="#4EFD62"/>
<path d="M468.491 448.008C468.491 448.008 458.009 445.24 454.205 452.232C450.411 459.223 453.683 487.589 453.683 487.589L469.78 477.164L469.438 463.101L468.482 448.008H468.491Z" fill="#0017BF"/>
<path d="M489.646 484.759L501.912 495.495C501.912 495.495 484.463 522.477 459.614 518.174C434.765 513.87 445.698 491.21 449.835 485.105C456.279 475.594 464.166 470.155 471.25 469.676C478.325 469.188 489.646 484.768 489.646 484.768V484.759Z" fill="#0017BF"/>
<path d="M471.25 464.166L471.439 471.681C471.439 471.681 472.872 473.811 477.342 474.059C480.677 474.245 481.687 472.533 481.687 472.533L480.713 465.976L472.601 464.432L471.241 464.175L471.25 464.166Z" fill="#FFBB87"/>
<path d="M472.61 464.422C472.637 464.626 472.718 464.866 472.854 465.141C474.656 468.85 479.352 469.551 481.272 469.666L480.722 465.966L472.61 464.422Z" fill="black"/>
<path d="M481.984 448.799C481.984 448.799 486.229 458.124 484.787 463.394C483.345 468.665 478.469 467.884 475.54 466.899C472.619 465.905 471.249 464.166 471.249 464.166C471.249 464.166 468.536 465.098 466.698 462.622C464.85 460.147 465.95 457.281 467.491 456.607C469.041 455.932 470.898 457.024 470.898 457.024L469.42 454.317C469.42 454.317 475.377 440.432 481.984 448.799Z" fill="#FFBB87"/>
<path d="M476.315 453.82C476.432 453.82 476.54 453.758 476.603 453.651C476.846 453.234 477.153 452.968 477.513 452.879C478.135 452.72 478.766 453.092 478.775 453.101C478.928 453.199 479.136 453.146 479.226 452.995C479.325 452.844 479.271 452.649 479.118 452.551C479.082 452.533 478.252 452.028 477.351 452.25C476.801 452.383 476.36 452.755 476.026 453.332C475.936 453.492 475.99 453.687 476.152 453.776C476.207 453.802 476.261 453.82 476.315 453.82Z" fill="black"/>
<path d="M483.336 452.932C483.381 452.932 483.426 452.924 483.471 452.906C483.634 452.835 483.706 452.64 483.634 452.48C483.507 452.205 483.3 452.027 483.03 451.956C482.381 451.779 481.597 452.294 481.506 452.356C481.362 452.453 481.317 452.657 481.425 452.808C481.524 452.959 481.732 452.995 481.885 452.888C482.083 452.755 482.579 452.507 482.858 452.586C482.912 452.604 482.985 452.631 483.039 452.755C483.093 452.87 483.21 452.941 483.336 452.941V452.932Z" fill="black"/>
<path d="M476.63 455.799C476.738 455.799 476.846 455.746 476.909 455.648C477.036 455.453 477.18 455.346 477.36 455.32C477.766 455.258 478.279 455.595 478.424 455.719C478.559 455.834 478.766 455.817 478.883 455.683C479 455.55 478.982 455.346 478.847 455.231C478.766 455.16 478.027 454.565 477.261 454.681C476.891 454.734 476.576 454.947 476.351 455.302C476.251 455.453 476.297 455.657 476.45 455.746C476.504 455.781 476.567 455.799 476.63 455.799Z" fill="black"/>
<path d="M482.065 455.56C482.182 455.56 482.3 455.498 482.363 455.382C482.408 455.294 482.813 454.557 483.606 454.885C483.769 454.956 483.967 454.885 484.039 454.717C484.111 454.548 484.039 454.362 483.868 454.291C482.768 453.83 482.02 454.619 481.777 455.098C481.696 455.258 481.759 455.453 481.93 455.533C481.975 455.56 482.029 455.569 482.074 455.569L482.065 455.56Z" fill="black"/>
<path d="M481.696 460.128C481.867 460.128 482.011 460.004 482.02 459.835C482.191 457.928 481.119 455.727 481.074 455.638C480.993 455.479 480.794 455.408 480.632 455.488C480.47 455.567 480.398 455.763 480.479 455.922C480.488 455.94 481.515 458.061 481.362 459.782C481.344 459.959 481.479 460.119 481.66 460.137C481.669 460.137 481.678 460.137 481.687 460.137L481.696 460.128Z" fill="black"/>
<path d="M479.361 462.843C479.515 462.843 479.65 462.737 479.686 462.595C479.722 462.417 479.614 462.249 479.442 462.204C479.424 462.204 477.73 461.805 477.252 460.616C477.189 460.447 476.991 460.368 476.829 460.439C476.657 460.501 476.576 460.696 476.648 460.856C477.261 462.364 479.226 462.816 479.307 462.834C479.334 462.834 479.352 462.834 479.379 462.834L479.361 462.843Z" fill="black"/>
<path d="M470.61 461.061C470.709 461.061 470.799 461.017 470.862 460.946C470.979 460.804 470.952 460.6 470.817 460.493L467.743 458.026C467.599 457.911 467.392 457.938 467.284 458.071C467.167 458.213 467.194 458.417 467.329 458.523L470.402 460.99C470.465 461.034 470.537 461.061 470.61 461.061Z" fill="black"/>
<path d="M467.527 461.06C467.572 461.06 467.626 461.051 467.671 461.025L469.582 460.093C469.744 460.013 469.807 459.818 469.735 459.658C469.654 459.499 469.456 459.437 469.293 459.508L467.383 460.439C467.22 460.519 467.157 460.714 467.229 460.874C467.284 460.989 467.401 461.051 467.527 461.051V461.06Z" fill="black"/>
<path d="M470.898 457.023C470.898 457.023 474.233 456.668 476.324 453.944C478.406 451.22 479.37 448.452 479.37 448.452C479.37 448.452 480.785 448.674 481.696 449.774C482.372 450.582 483.156 451.762 483.156 451.762C483.156 451.762 483.201 447.973 481.245 446.128C479.289 444.282 477.631 444.939 477.631 444.939C477.631 444.939 473.358 442.596 469.068 446.403C464.778 450.209 466.869 457.032 466.869 457.032C466.869 457.032 469.05 456.154 470.898 457.032V457.023Z" fill="#0017BF"/>
<path d="M490.69 466.615C490.69 466.615 490.573 463.429 491.61 462.338C492.646 461.247 493.439 462.888 493.439 462.888C493.439 462.888 494.359 459.783 495.395 460.723C496.432 461.664 496.783 463.82 496.783 463.82C496.783 463.82 498.613 462.471 499.307 465.142C500.001 467.813 500.118 471.708 502.759 474.174C505.409 476.641 507.707 482.39 505.751 487.208C503.795 492.026 500.118 492.212 500.118 492.212L493.214 485.043C493.214 485.043 494.539 480.474 492.466 478.832C490.393 477.191 488.122 476.126 487.716 472.355C487.563 470.927 490.69 466.597 490.69 466.597V466.615ZM491.952 474.068L491.285 470.67C489.212 473.385 491.952 474.068 491.952 474.068Z" fill="#FFBB87"/>
<path d="M491.943 474.386C491.943 474.386 492.016 474.386 492.052 474.369C492.223 474.307 492.313 474.12 492.25 473.952C491.24 471.121 491.015 466.641 491.006 466.587C491.006 466.41 490.835 466.295 490.664 466.277C490.483 466.277 490.339 466.437 490.348 466.614C490.348 466.8 490.582 471.237 491.628 474.156C491.673 474.289 491.799 474.369 491.934 474.369L491.943 474.386Z" fill="black"/>
<path d="M495.224 473.731C495.278 473.731 495.332 473.713 495.386 473.686C495.548 473.598 495.602 473.402 495.512 473.243C493.601 469.889 494.25 462.613 494.259 462.542C494.277 462.365 494.142 462.205 493.962 462.187C493.782 462.179 493.619 462.303 493.601 462.48C493.574 462.791 492.925 470.022 494.935 473.553C494.998 473.66 495.107 473.722 495.224 473.722V473.731Z" fill="black"/>
<path d="M498.415 473.731C498.496 473.731 498.586 473.695 498.649 473.633C498.776 473.509 498.776 473.305 498.649 473.172C497.243 471.788 497.063 465.949 497.108 463.82C497.108 463.643 496.964 463.492 496.784 463.492C496.639 463.492 496.45 463.634 496.45 463.811C496.45 464.139 496.297 471.779 498.181 473.633C498.244 473.695 498.325 473.731 498.415 473.731Z" fill="black"/>
<path d="M550.709 513.533C550.763 513.533 550.826 513.515 550.88 513.488C551.034 513.4 551.088 513.196 550.998 513.045C550.925 512.929 543.85 501.351 534.107 495.77C523.373 489.621 498.028 502.158 496.955 502.699C496.793 502.779 496.73 502.974 496.811 503.134C496.892 503.294 497.09 503.356 497.253 503.276C497.514 503.143 523.354 490.357 533.774 496.329C543.363 501.83 550.358 513.258 550.43 513.373C550.493 513.479 550.601 513.533 550.709 513.533Z" fill="white"/>
<path d="M515.647 533.017C515.647 533.017 515.711 533.017 515.738 533.008C515.846 532.982 515.927 532.902 515.963 532.804C516.188 532.157 518.135 526.46 516.26 525.067C515.846 524.757 515.413 524.792 515.116 525.165C514.142 526.372 514.575 532.236 515.44 532.946C515.503 532.991 515.575 533.017 515.647 533.017ZM515.711 525.502C515.711 525.502 515.783 525.52 515.864 525.573C516.873 526.318 516.305 529.512 515.602 531.793C515.206 530.222 514.944 526.389 515.638 525.555C515.665 525.52 515.684 525.502 515.72 525.502H515.711Z" fill="white"/>
<path d="M511.015 486.65C511.33 486.65 511.6 486.517 511.79 486.269C512.88 484.876 511.492 479.463 511.33 478.851C511.258 478.567 510.771 478.567 510.69 478.851C510.528 479.463 509.14 484.876 510.23 486.269C510.429 486.517 510.699 486.65 511.006 486.65H511.015ZM511.015 480.351C511.474 482.498 511.826 485.168 511.276 485.878C511.132 486.065 510.906 486.065 510.762 485.878C510.212 485.177 510.555 482.507 511.024 480.351H511.015Z" fill="#FFB904"/>
<path d="M477.315 474.494C480.434 474.494 482.642 472.64 482.678 472.613C482.813 472.498 482.831 472.294 482.705 472.16C482.588 472.027 482.381 472.01 482.245 472.134C482.038 472.311 477.162 476.393 471.664 471.451C471.529 471.335 471.322 471.335 471.195 471.468C471.069 471.601 471.087 471.806 471.213 471.93C473.395 473.891 475.504 474.512 477.315 474.512V474.494Z" fill="#FFB904"/>
<path d="M466.355 492.541C466.355 492.541 466.427 492.541 466.454 492.523C473.079 490.385 487.671 485.141 487.815 485.088C487.987 485.025 488.077 484.839 488.014 484.671C487.951 484.502 487.761 484.422 487.59 484.475C487.446 484.529 472.863 489.772 466.247 491.911C466.076 491.964 465.986 492.15 466.04 492.319C466.085 492.452 466.211 492.541 466.355 492.541Z" fill="#FFB904"/>
<path d="M460.307 494.387C462.696 494.387 467.112 492.391 467.671 492.133C467.806 492.071 467.887 491.92 467.851 491.77C467.815 491.619 467.689 491.512 467.536 491.512C466.265 491.486 459.866 491.432 458.865 492.834C458.694 493.074 458.658 493.358 458.766 493.633C458.874 493.908 459.09 494.112 459.406 494.245C459.649 494.343 459.956 494.387 460.307 494.387ZM465.967 492.16C463.867 493.012 460.758 494.085 459.658 493.651C459.469 493.58 459.415 493.482 459.388 493.411C459.352 493.322 459.37 493.269 459.406 493.216C459.92 492.497 463.246 492.213 465.967 492.169V492.16Z" fill="#FFB904"/>
<path d="M461.073 528.075C467.022 527.96 468.779 522.281 468.797 522.228C468.851 522.06 468.752 521.873 468.572 521.829C468.401 521.776 468.22 521.873 468.166 522.051C468.103 522.264 466.517 527.33 461.064 527.436C460.884 527.436 460.739 527.587 460.739 527.765C460.739 527.942 460.893 528.084 461.073 528.084V528.075Z" fill="white"/>
<path d="M477.197 410.86H524.272C525.534 410.86 526.562 409.848 526.562 408.606V386.105C526.562 384.863 525.534 383.852 524.272 383.852H477.197C475.935 383.852 474.908 384.863 474.908 386.105V408.606C474.908 409.848 475.935 410.86 477.197 410.86ZM524.272 384.508C525.174 384.508 525.895 385.227 525.895 386.114V408.615C525.895 409.502 525.165 410.221 524.272 410.221H477.197C476.296 410.221 475.575 409.502 475.575 408.615V386.114C475.575 385.227 476.305 384.508 477.197 384.508H524.272Z" fill="#E64218"/>
<path d="M475.241 389.487H526.228C526.408 389.487 526.561 389.345 526.561 389.167C526.561 388.99 526.417 388.848 526.228 388.848H475.241C475.061 388.848 474.908 388.99 474.908 389.167C474.908 389.345 475.052 389.487 475.241 389.487Z" fill="#E64218"/>
<path d="M478.829 388.269C479.703 388.269 480.424 387.568 480.424 386.699C480.424 385.829 479.712 385.128 478.829 385.128C477.945 385.128 477.233 385.829 477.233 386.699C477.233 387.568 477.945 388.269 478.829 388.269ZM478.829 385.785C479.342 385.785 479.766 386.193 479.766 386.708C479.766 387.222 479.352 387.631 478.829 387.631C478.306 387.631 477.891 387.222 477.891 386.708C477.891 386.193 478.306 385.785 478.829 385.785Z" fill="#E64218"/>
<path d="M483.056 388.269C483.93 388.269 484.651 387.568 484.651 386.699C484.651 385.829 483.939 385.128 483.056 385.128C482.172 385.128 481.46 385.829 481.46 386.699C481.46 387.568 482.172 388.269 483.056 388.269ZM483.056 385.785C483.569 385.785 483.993 386.193 483.993 386.708C483.993 387.222 483.578 387.631 483.056 387.631C482.533 387.631 482.118 387.222 482.118 386.708C482.118 386.193 482.533 385.785 483.056 385.785Z" fill="#E64218"/>
<path d="M487.283 388.269C488.157 388.269 488.878 387.568 488.878 386.699C488.878 385.829 488.166 385.128 487.283 385.128C486.4 385.128 485.688 385.829 485.688 386.699C485.688 387.568 486.4 388.269 487.283 388.269ZM487.283 385.785C487.797 385.785 488.22 386.193 488.22 386.708C488.22 387.222 487.806 387.631 487.283 387.631C486.76 387.631 486.346 387.222 486.346 386.708C486.346 386.193 486.76 385.785 487.283 385.785Z" fill="#E64218"/>
<path d="M41.9302 492.759L52.6534 503.427L63.429 486.505L57.3677 480.269L41.9302 492.759Z" fill="#FFBB87"/>
<path d="M47.6072 464.307C46.5052 463.923 41.8084 469.209 41.2398 469.488C40.6713 469.767 42.0095 473.928 40.7413 474.225C39.4731 474.521 37.1727 474.015 35.3273 474.469C33.5955 474.888 14.0385 491.958 10.6798 495.752C10.3999 496.075 10.4524 496.572 10.8023 496.851C11.572 497.488 13.0676 498.631 14.8519 499.625C16.8023 500.707 19.1114 501.596 21.2368 501.448C26.266 501.09 33.4293 496.494 37.0591 496.005C40.6976 495.517 46.479 496.938 47.2574 495.046C48.0358 493.162 47.8784 487.71 52.0417 484.91C56.205 482.11 58.7327 481.517 58.9688 479.729C59.1263 478.525 54.3683 472.061 50.9309 467.901C49.2866 465.903 47.9483 464.429 47.5985 464.307H47.6072Z" fill="#E64218"/>
<path d="M47.6068 464.307C46.5048 463.923 41.8079 469.209 41.2394 469.488C40.6709 469.767 42.0091 473.928 40.7409 474.225C39.4726 474.521 37.1723 474.015 35.3268 474.469C33.595 474.888 14.038 491.958 10.6794 495.752C10.3995 496.075 10.452 496.572 10.8019 496.851C11.5716 497.488 13.0672 498.631 14.8515 499.625L50.9392 467.901C49.2949 465.903 47.9567 464.429 47.6068 464.307Z" fill="white"/>
<path d="M90.4824 552.728L88.2433 559.087L75.5435 563.143L69.4385 560.431L72.6922 545.855L90.4824 552.728Z" fill="#FFBB87"/>
<path d="M67.6712 452.227C67.6712 452.227 65.3884 463.627 64.3126 473.318C63.2368 483.009 61.4963 496.023 61.4963 496.023C61.4963 496.023 53.5195 525.846 72.683 528.48C96.447 531.751 95.24 503.647 95.24 503.647L88.0942 444.83L67.6712 452.227Z" fill="#FFB904"/>
<path d="M41.572 497.627L61.2427 480.705L67.1028 488.939L68.6859 527.441C68.6859 527.441 60.1232 526.29 41.572 497.627Z" fill="#FFB904"/>
<path d="M105.675 449.557C105.675 449.557 113.608 481.089 111.098 504.335C108.587 527.589 97.0246 556.104 97.0246 556.104L66.1672 550.373L76.4792 515.91L83.9312 451.101L105.675 449.557Z" fill="#FFB904"/>
<path d="M66.3595 578.818C66.9193 579.829 73.9602 579.044 74.5724 579.219C75.1847 579.393 76.9864 575.407 78.1235 576.026C79.2692 576.654 80.6337 578.565 82.313 579.463C83.8786 580.309 109.873 580.676 114.911 580.1C115.339 580.048 115.628 579.646 115.558 579.201C115.409 578.216 115.068 576.367 114.404 574.439C113.686 572.337 112.558 570.139 110.879 568.821C106.908 565.734 98.4939 564.373 95.4676 562.306C92.4326 560.238 89.0915 555.319 87.246 556.209C85.4005 557.09 81.8669 561.241 76.8902 560.544C71.9222 559.846 69.6394 558.599 68.2662 559.776C67.3391 560.57 66.5432 568.542 66.307 573.924C66.1846 576.506 66.1846 578.495 66.3682 578.818H66.3595Z" fill="#E64218"/>
<path d="M74.4329 528.889C77.9577 528.889 85.9519 527.956 91.777 520.289C101.835 507.048 95.8966 471.459 95.1619 467.29L105.29 466.47C105.465 466.453 105.596 466.304 105.579 466.13C105.561 465.955 105.413 465.816 105.238 465.842L94.7596 466.688C94.6721 466.688 94.5846 466.74 94.5321 466.81C94.4797 466.88 94.4534 466.976 94.4709 467.063C94.5409 467.456 101.564 506.359 91.2697 519.905C83.844 529.674 72.841 528.183 72.736 528.165C72.5611 528.139 72.4037 528.261 72.3774 528.436C72.3512 528.61 72.4737 528.767 72.6486 528.793C72.6748 528.793 73.3395 528.889 74.4416 528.889H74.4329Z" fill="#E64218"/>
<path d="M69.342 494.443C69.6044 494.443 69.8493 494.364 70.0767 494.199C70.4178 493.946 70.6015 493.588 70.6365 493.135C70.8202 490.221 63.7093 483.487 63.412 483.199C63.307 483.095 63.1408 483.086 63.0184 483.165C62.8959 483.243 62.8434 483.4 62.8872 483.531C63.237 484.551 66.3682 493.571 68.9484 494.382C69.0796 494.425 69.2196 494.443 69.3508 494.443H69.342ZM63.9542 484.621C66.2895 486.968 70.1117 491.224 69.998 493.091C69.9805 493.353 69.8843 493.544 69.7006 493.675C69.5257 493.806 69.3508 493.832 69.1409 493.763C67.479 493.239 65.1437 487.814 63.9542 484.612V484.621Z" fill="#E64218"/>
<path d="M69.3857 465.136C69.4295 465.136 69.4819 465.127 69.5257 465.101C73.8027 463.016 76.5491 457.835 76.6628 457.617C76.7415 457.46 76.6803 457.268 76.5228 457.189C76.3654 457.111 76.173 457.172 76.0943 457.32C76.068 457.372 73.3304 462.536 69.2371 464.525C69.0796 464.603 69.0096 464.795 69.0884 464.952C69.1408 465.066 69.2546 465.136 69.377 465.136H69.3857Z" fill="#E64218"/>
<path d="M66.3595 578.819C66.9193 579.831 73.9602 579.045 74.5724 579.22C75.1847 579.394 76.9864 575.408 78.1235 576.027C79.2692 576.655 80.6337 578.566 82.313 579.464C83.8786 580.31 109.873 580.677 114.911 580.101C115.339 580.049 115.628 579.647 115.558 579.203C115.409 578.217 115.068 576.368 114.404 574.44L66.307 573.925C66.1846 576.507 66.1846 578.496 66.3682 578.819H66.3595Z" fill="white"/>
<path d="M73.6452 409.599C73.6452 409.599 59.2835 412.679 54.4817 428.1C49.6799 443.522 69.062 459.772 69.062 459.772L105.675 449.558C105.675 449.558 101.284 409.966 96.9019 406.006C92.5112 402.046 73.6452 409.591 73.6452 409.591V409.599Z" fill="#DC3C1E"/>
<path d="M84.6308 401.059C84.6308 401.059 86.59 386.283 105.675 382.672C124.759 379.061 136.182 402.69 136.182 402.69L79.9777 412.957L84.6308 401.059Z" fill="#DC3C1E"/>
<path d="M83.24 394.597C83.24 394.597 89.345 390.375 86.9659 386.371C84.5957 382.368 78.6831 385.874 78.6831 385.874C78.6831 385.874 76.6364 383.528 73.4002 385.089C70.1641 386.65 69.5168 390.959 69.5168 390.959C69.5168 390.959 66.3506 390.672 65.9046 394.51C65.4585 398.347 69.3769 402.055 69.3769 402.055L83.24 394.588V394.597Z" fill="#0017BF"/>
<path d="M72.3689 404.392L71.7916 411.719C71.7916 411.719 72.9549 413.925 77.2231 414.614C80.4068 415.12 81.5264 413.097 81.5264 413.097L81.4302 410.742L81.2727 407.087L73.6459 404.775L72.3689 404.383V404.392Z" fill="#FFBB87"/>
<path d="M73.6449 404.776C73.6449 404.976 73.7061 405.221 73.8023 405.5C75.158 409.285 79.5924 410.428 81.4292 410.742L81.2717 407.087L73.6449 404.776Z" fill="black"/>
<path d="M84.2199 390.514C84.2199 390.514 87.3511 400.004 85.4356 404.985C83.5201 409.966 78.9108 408.727 76.2081 407.471C73.5055 406.215 72.3684 404.383 72.3684 404.383C72.3684 404.383 69.6745 405.02 68.1526 402.438C66.6308 399.847 67.969 397.169 69.5258 396.664C71.0827 396.166 72.7533 397.405 72.7533 397.405L71.6075 394.622C71.6075 394.622 78.7271 381.713 84.2286 390.497L84.2199 390.514Z" fill="#FFBB87"/>
<path d="M72.185 401.372C72.2724 401.372 72.3686 401.337 72.4299 401.259C72.5436 401.128 72.5261 400.927 72.3949 400.814L69.2724 398.18C69.1412 398.066 68.94 398.084 68.8263 398.215C68.7126 398.345 68.7301 398.546 68.8613 398.659L71.9838 401.294C72.045 401.346 72.115 401.372 72.1937 401.372H72.185Z" fill="black"/>
<path d="M69.1673 401.095C69.1673 401.095 69.2023 401.095 69.2198 401.095L71.4414 400.702C71.6163 400.676 71.73 400.51 71.7038 400.336C71.6688 400.161 71.5113 400.048 71.3364 400.074L69.1148 400.467C68.9399 400.493 68.8262 400.658 68.8524 400.833C68.8787 400.99 69.0186 401.095 69.1673 401.095Z" fill="black"/>
<path d="M77.7913 393.924C77.8788 393.924 77.9662 393.89 78.0274 393.82C79.0508 392.686 80.1441 393.375 80.1878 393.401C80.3365 393.497 80.5289 393.453 80.6251 393.305C80.7213 393.157 80.6776 392.956 80.5289 392.869C79.9867 392.52 78.6572 392.171 77.5464 393.392C77.424 393.523 77.4414 393.724 77.5726 393.846C77.6339 393.898 77.7126 393.924 77.7825 393.924H77.7913Z" fill="black"/>
<path d="M84.9456 394.133C85.0331 394.133 85.1118 394.098 85.1731 394.037C85.2955 393.915 85.2955 393.706 85.1731 393.584C84.1322 392.581 82.9252 393.156 82.8727 393.183C82.7153 393.261 82.6453 393.453 82.724 393.61C82.8028 393.767 82.9952 393.828 83.1526 393.758C83.1964 393.741 84.0273 393.366 84.727 394.046C84.7882 394.107 84.8669 394.133 84.9456 394.133Z" fill="black"/>
<path d="M82.9251 401.782C83.0563 401.782 83.17 401.704 83.2224 401.582C84.3595 398.651 82.5227 396.776 82.444 396.697C82.3216 396.575 82.1204 396.575 81.9979 396.697C81.8755 396.819 81.8755 397.02 81.9979 397.151C82.0679 397.22 83.6073 398.817 82.6277 401.355C82.5665 401.521 82.6452 401.704 82.8114 401.765C82.8463 401.782 82.8901 401.782 82.9251 401.782Z" fill="black"/>
<path d="M84.6307 397.649C84.6307 397.649 84.6744 397.649 84.6919 397.649C84.8669 397.614 84.9806 397.448 84.9456 397.274L84.622 395.555C84.587 395.381 84.4208 395.267 84.2459 395.302C84.0709 395.337 83.9572 395.503 83.9922 395.677L84.3158 397.396C84.3421 397.544 84.482 397.657 84.6307 397.657V397.649Z" fill="black"/>
<path d="M79.9778 397.379C79.9778 397.379 80.0215 397.379 80.039 397.379C80.2139 397.344 80.3276 397.178 80.2926 397.004L79.969 395.285C79.934 395.111 79.7679 394.997 79.5929 395.032C79.418 395.067 79.3043 395.233 79.3393 395.407L79.6629 397.126C79.6891 397.274 79.8291 397.387 79.9778 397.387V397.379Z" fill="black"/>
<path d="M84.832 392.642C84.832 392.642 84.1497 391.107 82.3217 390.95C80.4937 390.793 79.3217 391.996 79.3217 391.996C79.3217 391.996 79.8815 395.137 77.2663 396.576C74.6424 398.015 72.7531 397.404 72.7531 397.404L70.9951 396.619L69.8756 393.881L75.5433 388.664L82.5929 385.629L85.7941 389.022L84.832 392.624V392.642Z" fill="#0017BF"/>
<path d="M81.0795 403.781C81.2895 403.781 81.4294 403.632 81.4206 403.458C81.4206 403.283 81.2807 403.17 81.097 403.144C81.027 403.161 79.5926 403.144 79.0853 401.8C79.0241 401.635 78.8405 401.556 78.6743 401.617C78.5081 401.678 78.4293 401.862 78.4906 402.027C79.0154 403.423 80.3886 403.781 81.0708 403.781H81.0795Z" fill="black"/>
<path d="M166.864 463.016H99.7794C97.34 463.016 95.3624 461.043 95.3624 458.611L95.3624 402.419C95.3624 399.987 97.34 398.014 99.7794 398.014H166.864C169.304 398.014 171.281 399.987 171.281 402.419V458.611C171.281 461.043 169.304 463.016 166.864 463.016Z" fill="#373178"/>
<path d="M88.5407 429.486C88.5407 429.486 97.7332 424.627 100.523 424.209C103.313 423.79 108.08 426.852 108.08 426.852L105.675 428.239C105.675 428.239 109.436 436.438 108.736 437.685C108.036 438.933 106.226 437.685 106.226 437.685C106.226 437.685 101.905 442.134 100.655 442.273C99.4038 442.413 92.7128 439.77 92.7128 439.77L88.532 429.486H88.5407Z" fill="#FFBB87"/>
<path d="M89.7915 427.542L69.8671 434.624L71.9138 410.105C71.9138 410.105 56.6338 414.754 52.6017 430.455C48.5608 446.156 54.4122 458.655 66.9458 459.772C79.4795 460.88 96.4738 443.382 96.4738 443.382L89.7915 427.542Z" fill="#DC3C1E"/>
<path d="M125.931 392.084C125.931 392.084 123.701 388.342 121.646 391.474C119.59 394.605 121.348 403.537 123.019 403.947C124.812 404.392 125.931 400.981 125.931 400.981C125.931 400.981 126.273 403.895 128.162 403.947C130.042 403.999 130.899 400.981 130.899 400.981C130.899 400.981 131.835 404.383 133.471 403.947C135.264 403.459 136.209 392.084 132.789 390.898C131.144 390.331 130.217 392.084 130.217 392.084C130.217 392.084 129.579 389.921 127.698 390.2C125.818 390.479 125.94 392.084 125.94 392.084H125.931Z" fill="#FFBB87"/>
<path d="M105.675 428.239L112.331 424.166L114.036 427.559L107.135 431.658L105.675 428.239Z" fill="white"/>
<path d="M116.161 428.692C114.736 428.692 113.048 428.256 112.269 426.703C111.088 424.348 112.672 421.469 112.864 421.155L115.077 422.42C114.788 422.926 114.071 424.601 114.552 425.56C114.893 426.241 116.398 426.188 117.036 426.057L117.57 428.552C117.176 428.639 116.686 428.692 116.17 428.692H116.161Z" fill="white"/>
<path d="M105.675 428.553C105.736 428.553 105.806 428.535 105.859 428.492C105.999 428.387 106.034 428.186 105.929 428.047L104.223 425.674C104.118 425.535 103.926 425.5 103.777 425.604C103.637 425.709 103.602 425.91 103.707 426.049L105.413 428.422C105.474 428.509 105.57 428.553 105.675 428.553Z" fill="black"/>
<path d="M106.235 437.999C106.296 437.999 106.366 437.981 106.418 437.938C106.558 437.833 106.593 437.641 106.488 437.493L105.518 436.141C105.413 436.001 105.211 435.966 105.071 436.062C104.932 436.167 104.897 436.359 105.002 436.507L105.972 437.859C106.034 437.947 106.13 437.99 106.235 437.99V437.999Z" fill="black"/>
<path d="M125.932 400.902C126.107 400.902 126.246 400.762 126.246 400.588V392.083C126.246 391.909 126.107 391.769 125.932 391.769C125.757 391.769 125.617 391.909 125.617 392.083V400.588C125.617 400.762 125.757 400.902 125.932 400.902Z" fill="black"/>
<path d="M130.9 401.303C131.101 401.286 131.232 401.138 131.215 400.963L130.533 392.066C130.515 391.892 130.358 391.761 130.191 391.769C130.016 391.787 129.885 391.935 129.894 392.11L130.576 401.007C130.585 401.172 130.725 401.303 130.891 401.303H130.9Z" fill="black"/>
<path d="M78.0451 414.946C78.0889 414.946 78.1413 414.946 78.1851 414.946C79.5582 414.911 80.7565 414.361 81.7536 413.315C81.8761 413.184 81.8673 412.983 81.7449 412.861C81.6224 412.739 81.4125 412.748 81.29 412.87C79.7682 414.475 77.7565 414.736 75.325 413.664C73.4532 412.835 72.0188 411.492 72.0101 411.483C71.8789 411.361 71.6777 411.369 71.5553 411.492C71.4328 411.622 71.4416 411.823 71.564 411.945C71.6952 412.067 74.7652 414.946 78.0364 414.946H78.0451Z" fill="white"/>
<path d="M65.0389 435.287C65.0389 435.287 65.1263 435.287 65.1613 435.261C73.6191 431.693 85.7416 429.033 85.8641 429.006C86.039 428.971 86.144 428.797 86.109 428.631C86.074 428.457 85.8991 428.352 85.7329 428.387C85.6105 428.413 73.4267 431.082 64.9164 434.676C64.7502 434.746 64.6803 434.929 64.7502 435.095C64.8027 435.217 64.9164 435.287 65.0476 435.287H65.0389Z" fill="white"/>
<path d="M69.3596 432.609C70.6278 432.609 71.8523 432.565 72.692 432.521C72.8406 432.521 72.9631 432.408 72.9894 432.26C73.0156 432.111 72.9369 431.972 72.8057 431.911C72.5345 431.789 66.2371 429.015 64.0505 430.794C63.6307 431.143 63.6307 431.448 63.7006 431.64C63.998 432.425 66.7794 432.609 69.3508 432.609H69.3596ZM71.1701 431.946C67.8989 432.033 64.6715 431.876 64.3129 431.422C64.3304 431.422 64.3654 431.361 64.4616 431.291C65.7036 430.28 69.0097 431.161 71.1701 431.946Z" fill="white"/>
<path d="M103.68 398.338C103.829 398.338 103.943 398.242 103.987 398.111C104.205 397.387 105.237 393.724 104.389 392.782C104.258 392.634 104.004 392.477 103.619 392.546C103.313 392.607 103.068 392.782 102.902 393.061C102.141 394.343 103.252 397.745 103.374 398.129C103.418 398.26 103.54 398.347 103.68 398.347V398.338ZM103.803 393.157C103.873 393.157 103.899 393.183 103.917 393.201C104.275 393.602 104.03 395.311 103.672 396.829C103.366 395.634 103.077 394.012 103.453 393.375C103.523 393.253 103.619 393.183 103.742 393.166C103.768 393.166 103.785 393.166 103.812 393.166L103.803 393.157Z" fill="white"/>
<path d="M80.3625 456.229C80.4149 456.229 80.4587 456.22 80.5024 456.194C80.5899 456.15 89.5462 451.588 94.5317 445.692C94.6454 445.561 94.6279 445.36 94.4967 445.247C94.3655 445.134 94.1643 445.151 94.0506 445.282C89.1526 451.074 80.31 455.575 80.2225 455.627C80.0651 455.706 80.0038 455.897 80.0826 456.054C80.135 456.168 80.2487 456.229 80.3712 456.229H80.3625Z" fill="white"/>
<path d="M127.165 484.265C127.243 484.265 127.313 484.238 127.375 484.186C127.506 484.073 127.514 483.863 127.401 483.741L124.418 480.453C124.296 480.322 124.095 480.313 123.963 480.427C123.832 480.54 123.823 480.749 123.937 480.871L126.92 484.16C126.981 484.23 127.068 484.265 127.156 484.265H127.165Z" fill="white"/>
<path d="M124.182 484.265C124.27 484.265 124.357 484.23 124.418 484.16L127.401 480.872C127.514 480.741 127.506 480.54 127.375 480.427C127.243 480.305 127.042 480.322 126.92 480.453L123.937 483.741C123.823 483.872 123.832 484.073 123.963 484.186C124.025 484.239 124.103 484.265 124.173 484.265H124.182Z" fill="white"/>
<path d="M143.957 444.001H122.695C120.932 444.001 119.502 442.576 119.502 440.817V419.612C119.502 417.854 120.932 416.429 122.695 416.429H143.957C145.721 416.429 147.15 417.854 147.15 419.612V440.817C147.15 442.576 145.721 444.001 143.957 444.001Z" fill="#5EF939"/>
<path d="M143.004 432.775L142.025 435.113L143.249 436.273C142.339 437.756 141.097 439.021 139.637 439.963L138.272 438.672L135.946 439.658L136.025 441.507C135.159 441.707 134.258 441.821 133.331 441.821C132.491 441.821 131.669 441.734 130.873 441.559V439.57L128.555 438.567L127.129 440.033C125.66 439.108 124.418 437.869 123.491 436.413L124.855 435.122L123.876 432.784L121.978 432.767C121.794 431.947 121.698 431.092 121.698 430.211C121.698 429.286 121.803 428.388 122.013 427.524L123.876 427.507L124.855 425.169L123.552 423.931C124.488 422.483 125.748 421.253 127.217 420.346L128.555 421.724L130.873 420.721V418.872C131.669 418.697 132.491 418.61 133.331 418.61C134.258 418.61 135.159 418.715 136.025 418.924L135.955 420.634L138.281 421.619L139.558 420.407C141.028 421.34 142.278 422.587 143.205 424.062L142.033 425.169L143.013 427.498L144.657 427.516C144.858 428.379 144.972 429.278 144.972 430.202C144.972 431.075 144.876 431.929 144.692 432.749L143.022 432.767L143.004 432.775ZM138.972 430.211C138.972 427.097 136.444 424.576 133.322 424.576C130.199 424.576 127.672 427.097 127.672 430.211C127.672 433.325 130.199 435.846 133.322 435.846C136.444 435.846 138.972 433.325 138.972 430.211Z" fill="white"/>
<path d="M145.988 528.899H194.356C196.192 528.899 197.688 527.407 197.688 525.575V486.445C197.688 484.614 196.192 483.122 194.356 483.122H145.988C144.151 483.122 142.655 484.614 142.655 486.445V525.575C142.655 527.407 144.151 528.899 145.988 528.899ZM194.356 483.75C195.842 483.75 197.049 484.954 197.049 486.437V525.566C197.049 527.049 195.842 528.253 194.356 528.253H145.988C144.501 528.253 143.294 527.049 143.294 525.566V486.437C143.294 484.954 144.501 483.75 145.988 483.75H194.356Z" fill="#E64218"/>
<path d="M142.97 492.167H197.373C197.548 492.167 197.688 492.027 197.688 491.844C197.688 491.661 197.548 491.521 197.373 491.521H142.97C142.795 491.521 142.655 491.661 142.655 491.844C142.655 492.027 142.795 492.167 142.97 492.167Z" fill="#E64218"/>
<path d="M190.988 489.777C191.075 489.777 191.172 489.742 191.233 489.664L194.128 486.262C194.242 486.131 194.224 485.93 194.093 485.817C193.962 485.703 193.761 485.721 193.647 485.852L190.752 489.254C190.638 489.384 190.656 489.585 190.787 489.698C190.848 489.751 190.918 489.777 190.997 489.777H190.988Z" fill="#E64218"/>
<path d="M193.892 489.777C193.962 489.777 194.041 489.751 194.102 489.698C194.234 489.585 194.251 489.384 194.137 489.254L191.242 485.852C191.129 485.721 190.927 485.703 190.796 485.817C190.665 485.93 190.648 486.131 190.761 486.262L193.656 489.664C193.718 489.742 193.805 489.777 193.901 489.777H193.892Z" fill="#E64218"/>
<path d="M316.325 578.295H269.724C265.425 578.295 261.94 574.819 261.94 570.532V514.149C261.94 509.861 265.425 506.385 269.724 506.385H316.325C320.625 506.385 324.11 509.861 324.11 514.149V570.532C324.11 574.819 320.625 578.295 316.325 578.295Z" fill="#1D4568"/>
<path d="M311.644 578.295H265.043C260.744 578.295 257.259 574.819 257.259 570.532V514.149C257.259 509.861 260.744 506.385 265.043 506.385H311.644C315.944 506.385 319.429 509.861 319.429 514.149V570.532C319.429 574.819 315.944 578.295 311.644 578.295Z" fill="#40398D"/>
<path d="M211.927 494.977C212.015 494.977 212.094 494.942 212.155 494.881C212.216 494.82 212.251 494.741 212.251 494.654V396.027C212.251 395.852 212.111 395.713 211.936 395.713C211.761 395.713 211.621 395.852 211.621 396.027V494.34L133.664 494.288V437.721C133.664 437.547 133.524 437.407 133.35 437.407C133.175 437.407 133.035 437.547 133.035 437.721V494.602C133.035 494.776 133.175 494.916 133.35 494.924L211.945 494.977H211.927Z" fill="#E64218"/>
<path d="M251.635 552.085L247.909 564.672L232.14 561.985L235.743 550.245L251.635 552.085Z" fill="#FFBB87"/>
<path d="M276.232 549.799L277.946 564.182L262.176 567.201L260.707 553.733L276.232 549.799Z" fill="#FFBB87"/>
<path d="M225.187 421.786C225.187 421.786 223.586 426.819 226.35 427.857C229.123 428.895 229.131 426.025 229.131 426.025L227.417 422.422L225.187 421.794V421.786Z" fill="#FFBB87"/>
<path d="M237.957 431.79C237.957 431.79 234.336 422.483 231.038 420.861C227.741 419.238 221.47 419.439 220.508 421.149C219.554 422.85 222.423 422.884 223.166 422.71C223.91 422.536 226.149 423.024 226.674 423.783C227.207 424.542 227.417 427.734 227.417 427.734C227.417 427.734 224.968 428.231 223.91 427.342C222.852 426.452 221.785 424.847 221.041 426.025C220.298 427.193 223.271 433.352 225.406 435.044C227.531 436.745 232.954 438.864 232.954 438.864L237.957 431.79Z" fill="#FFBB87"/>
<path d="M227.426 428.048C227.628 428.031 227.759 427.874 227.741 427.7C227.741 427.656 227.636 426.6 227.243 424.856C226.805 422.937 225.065 422.571 224.986 422.553C224.82 422.518 224.645 422.632 224.61 422.806C224.575 422.981 224.689 423.146 224.855 423.181C224.916 423.19 226.272 423.495 226.613 425.004C226.998 426.705 227.094 427.752 227.103 427.761C227.12 427.926 227.26 428.048 227.418 428.048H227.426Z" fill="black"/>
<path d="M206.18 414.467H217.673C218.301 414.467 218.81 414.974 218.81 415.601V427.062C218.81 427.689 218.301 428.196 217.673 428.196H206.18C205.552 428.196 205.043 427.689 205.043 427.062V415.601C205.043 414.974 205.552 414.467 206.18 414.467Z" fill="#373178"/>
<path d="M206.18 432H217.673C218.301 432 218.81 432.507 218.81 433.133V444.595C218.81 445.221 218.301 445.729 217.673 445.729H206.18C205.552 445.729 205.043 445.221 205.043 444.595V433.133C205.043 432.507 205.552 432 206.18 432Z" fill="#373178"/>
<path d="M206.18 449.531H217.673C218.301 449.531 218.81 450.039 218.81 450.665V462.127C218.81 462.753 218.301 463.261 217.673 463.261H206.18C205.552 463.261 205.043 462.753 205.043 462.127V450.665C205.043 450.039 205.552 449.531 206.18 449.531Z" fill="#373178"/>
<path d="M217.56 429.094L223.997 423.678L222.344 421.732L217.787 425.579L214.078 421.549L212.198 423.276L217.56 429.094Z" fill="#F6F6F6"/>
<path d="M212.076 443.994L217.358 439.51L215.705 437.574L212.487 440.304L208.341 434.809L206.294 436.344L212.076 443.994Z" fill="white"/>
<path d="M212.076 461.534L217.359 457.051L215.706 455.114L212.487 457.844L208.341 452.34L206.295 453.876L212.076 461.534Z" fill="white"/>
<path d="M228.572 376H194.855C193.473 376 192.353 377.116 192.353 378.495V397.022C192.353 398.4 193.473 399.516 194.855 399.516H228.572C229.954 399.516 231.073 398.4 231.073 397.022V378.495C231.073 377.116 229.954 376 228.572 376Z" fill="#5EF939"/>
<path d="M117.571 484.239V536.854C117.571 540.012 120.458 542.568 124 542.568H216.721C220.281 542.568 223.167 540.012 223.167 536.854V484.239C223.167 481.082 220.281 478.526 216.721 478.526H124C120.458 478.526 117.571 481.082 117.571 484.239Z" fill="#40398D"/>
<path d="M156.179 493.659H178.475C178.965 493.659 179.362 494.056 179.362 494.546C179.362 495.036 178.965 495.433 178.475 495.433H156.179C155.689 495.433 155.291 495.036 155.291 494.546C155.291 494.056 155.689 493.659 156.179 493.659Z" fill="#5EF939"/>
<path d="M133.689 502.793H173.146C173.636 502.793 174.033 503.19 174.033 503.68C174.033 504.17 173.636 504.568 173.146 504.568H133.689C133.199 504.568 132.802 504.17 132.802 503.68C132.802 503.19 133.199 502.793 133.689 502.793Z" fill="#FFB904"/>
<path d="M178.447 502.793H194.58C195.07 502.793 195.468 503.19 195.468 503.68C195.468 504.17 195.07 504.568 194.58 504.568H178.447C177.957 504.568 177.559 504.17 177.559 503.68C177.559 503.19 177.957 502.793 178.447 502.793Z" fill="#5EF939"/>
<path d="M133.689 528.509H173.146C173.636 528.509 174.033 528.906 174.033 529.396C174.033 529.886 173.636 530.283 173.146 530.283H133.689C133.199 530.283 132.802 529.886 132.802 529.396C132.802 528.906 133.199 528.509 133.689 528.509Z" fill="#FFB904"/>
<path d="M178.447 528.509H208.999C209.489 528.509 209.886 528.906 209.886 529.396C209.886 529.886 209.489 530.283 208.999 530.283H178.447C177.957 530.283 177.56 529.886 177.56 529.396C177.56 528.906 177.957 528.509 178.447 528.509Z" fill="#5EF939"/>
<path d="M133.689 515.436H173.146C173.636 515.436 174.033 515.833 174.033 516.323C174.033 516.813 173.636 517.21 173.146 517.21H133.689C133.199 517.21 132.802 516.813 132.802 516.323C132.802 515.833 133.199 515.436 133.689 515.436Z" fill="#5EF939"/>
<path d="M178.447 515.436H194.58C195.07 515.436 195.468 515.833 195.468 516.323C195.468 516.813 195.07 517.21 194.58 517.21H178.447C177.957 517.21 177.559 516.813 177.559 516.323C177.559 515.833 177.957 515.436 178.447 515.436Z" fill="#5EF939"/>
<path d="M182.101 510.889L155.123 510.889C154.633 510.889 154.236 510.492 154.236 510.002C154.236 509.512 154.633 509.115 155.123 509.115L182.101 509.115C182.591 509.115 182.988 509.512 182.988 510.002C182.988 510.492 182.591 510.889 182.101 510.889Z" fill="#FFB904"/>
<path d="M149.822 510.889L133.689 510.889C133.199 510.889 132.801 510.492 132.801 510.002C132.801 509.512 133.199 509.115 133.689 509.115L149.822 509.115C150.312 509.115 150.709 509.512 150.709 510.002C150.709 510.492 150.312 510.889 149.822 510.889Z" fill="#5EF939"/>
<path d="M182.101 523.531L155.123 523.531C154.633 523.531 154.236 523.134 154.236 522.643C154.236 522.153 154.633 521.756 155.123 521.756L182.101 521.756C182.591 521.756 182.988 522.153 182.988 522.643C182.988 523.134 182.591 523.531 182.101 523.531Z" fill="#FFB904"/>
<path d="M149.822 523.531L133.689 523.531C133.199 523.531 132.801 523.134 132.801 522.643C132.801 522.153 133.199 521.756 133.689 521.756L149.822 521.756C150.312 521.756 150.709 522.153 150.709 522.643C150.709 523.134 150.312 523.531 149.822 523.531Z" fill="#5EF939"/>
<path d="M133.529 496.229V495.037L138.372 492.889V494.266L135.081 495.599V495.657L138.372 496.99V498.367L133.529 496.229ZM144.835 491.053L142.55 499.52H141.31L143.585 491.053H144.835ZM138.372 518.229L133.529 520.367V518.99L136.82 517.657V517.599L133.529 516.266V514.889L138.372 517.037V518.229Z" fill="#3DF130"/>
<path d="M183.776 493.659H208.999C209.489 493.659 209.886 494.056 209.886 494.546C209.886 495.036 209.489 495.433 208.999 495.433H183.776C183.286 495.433 182.889 495.036 182.889 494.546C182.889 494.056 183.286 493.659 183.776 493.659Z" fill="#FFB904"/>
<path d="M246.422 576.587C247.577 576.657 248.6 575.75 248.731 574.52C249.274 569.67 251.093 558.854 250.21 558.758C249.081 558.636 237.361 560.459 237.361 560.459C237.361 560.459 237.79 553.699 232.962 554.379C229.262 554.903 224.609 558.714 222.641 560.459C222.02 561.017 221.268 561.366 220.463 561.471C217.017 561.933 207.483 563.651 206.801 568.571C205.961 574.59 208.472 574.171 209.6 574.293C210.571 574.398 238.524 576.099 246.422 576.578V576.587Z" fill="#FFB904"/>
<path d="M281.969 572.53C283.053 572.12 283.604 570.872 283.219 569.695C281.706 565.054 278.89 554.456 278.042 554.727C276.957 555.076 267.039 561.565 267.039 561.565C267.039 561.565 264.633 555.233 260.523 557.841C257.365 559.847 254.706 565.229 253.639 567.628C253.298 568.386 252.764 569.014 252.073 569.442C249.126 571.282 241.149 576.769 242.566 581.531C244.289 587.358 246.397 585.945 247.482 585.596C248.409 585.291 274.578 575.338 281.969 572.521V572.53Z" fill="#FFB904"/>
<path d="M289.649 412.173C289.649 412.173 299.086 409.643 306.101 418.217C313.124 426.792 308.76 437.346 297.634 437.041C286.517 436.736 283.928 425.405 283.928 425.405L289.64 412.181L289.649 412.173Z" fill="#0017BF"/>
<path d="M275.479 419.231C275.479 419.231 272.794 416.387 273.467 411.886C273.922 408.833 275.26 407.821 275.26 407.821C275.26 407.821 273.109 403.713 279.275 403.844C285.433 403.975 290.479 403.451 293.226 408.737C294.844 411.851 294.196 418.611 294.196 418.611L275.479 419.231Z" fill="#0017BF"/>
<path d="M289.089 424.026L289.045 431.519C289.045 431.519 287.681 433.665 283.281 433.996C280.001 434.241 278.978 432.557 278.978 432.557L279.809 426.006L287.759 424.314L289.089 424.026Z" fill="#FFBB87"/>
<path d="M289.08 423.574C289.062 423.774 288.984 424.019 288.861 424.298C287.156 428.031 281.226 429.557 279.336 429.714L279.809 426.016L289.08 423.574Z" fill="black"/>
<path d="M278.225 408.911C278.225 408.911 274.227 418.288 275.749 423.513C277.271 428.746 282.056 427.874 284.916 426.827C287.776 425.789 289.088 424.019 289.088 424.019C289.088 424.019 291.773 424.899 293.54 422.396C295.306 419.893 294.178 417.058 292.639 416.412C291.099 415.776 289.298 416.892 289.298 416.892L290.697 414.162C290.697 414.162 284.566 400.432 278.225 408.893V408.911Z" fill="#FFBB87"/>
<path d="M289.299 416.91C289.299 416.91 285.293 417.8 282.407 413.386C279.521 408.972 279.748 407.132 279.748 407.132L277.054 411.799C277.054 411.799 276.372 408.615 277.614 406.548C278.856 404.48 280.194 404.881 280.194 404.881L289.115 406.923L291.591 413.97L289.308 416.91H289.299Z" fill="#0017BF"/>
<path d="M279.197 420.792C279.197 420.792 279.267 420.792 279.293 420.774C279.459 420.722 279.555 420.539 279.494 420.373C278.926 418.637 279.678 416.744 279.686 416.727C279.756 416.561 279.678 416.378 279.512 416.308C279.345 416.238 279.162 416.317 279.092 416.483C279.057 416.57 278.243 418.611 278.882 420.565C278.926 420.696 279.048 420.783 279.188 420.783L279.197 420.792Z" fill="black"/>
<path d="M289.762 421.297C289.85 421.297 289.937 421.262 289.998 421.192L292.5 418.462C292.622 418.331 292.613 418.13 292.482 418.008C292.351 417.886 292.15 417.895 292.027 418.026L289.526 420.756C289.403 420.887 289.412 421.087 289.543 421.209C289.605 421.262 289.683 421.297 289.762 421.297Z" fill="black"/>
<path d="M292.447 420.539C292.605 420.539 292.745 420.426 292.762 420.26C292.788 420.085 292.666 419.928 292.491 419.902L290.724 419.666C290.549 419.649 290.392 419.762 290.366 419.937C290.339 420.112 290.462 420.269 290.637 420.295L292.404 420.531C292.404 420.531 292.43 420.531 292.447 420.531V420.539Z" fill="black"/>
<path d="M276.817 413.184C276.817 413.184 276.861 413.184 276.878 413.184L278.496 412.87C278.671 412.835 278.785 412.669 278.75 412.495C278.715 412.32 278.549 412.216 278.374 412.242L276.756 412.556C276.581 412.591 276.467 412.756 276.502 412.931C276.529 413.079 276.668 413.193 276.817 413.193V413.184Z" fill="black"/>
<path d="M282.991 413.559C283.123 413.559 283.245 413.481 283.289 413.35C283.35 413.184 283.262 413.001 283.105 412.94L281.426 412.312C281.26 412.251 281.076 412.338 281.015 412.495C280.953 412.661 281.041 412.844 281.198 412.905L282.878 413.533C282.878 413.533 282.948 413.551 282.991 413.551V413.559Z" fill="black"/>
<path d="M277.719 417.013C277.859 417.013 277.99 416.926 278.025 416.787L278.515 415.094C278.541 414.99 278.515 414.885 278.454 414.798L277.92 414.178C277.806 414.048 277.605 414.03 277.474 414.144C277.343 414.257 277.325 414.458 277.439 414.588L277.859 415.086L277.421 416.621C277.369 416.787 277.474 416.97 277.64 417.013C277.666 417.013 277.701 417.022 277.728 417.022L277.719 417.013Z" fill="black"/>
<path d="M282.458 417.381C282.598 417.381 282.72 417.294 282.764 417.154L283.254 415.462C283.28 415.357 283.254 415.244 283.184 415.165L282.449 414.345C282.335 414.215 282.125 414.206 281.994 414.319C281.863 414.433 281.854 414.633 281.968 414.773L282.58 415.462L282.143 416.988C282.09 417.154 282.195 417.337 282.361 417.381C282.388 417.381 282.423 417.39 282.449 417.39L282.458 417.381Z" fill="black"/>
<path d="M280.334 423.495C280.413 423.495 280.491 423.495 280.57 423.478C281.611 423.303 282.188 422.047 282.214 421.995C282.267 421.881 282.249 421.759 282.171 421.663C282.092 421.567 281.969 421.524 281.856 421.55L278.987 422.178C278.873 422.204 278.786 422.283 278.751 422.396C278.716 422.509 278.751 422.623 278.821 422.71C279.31 423.242 279.818 423.504 280.325 423.504L280.334 423.495ZM281.243 422.335C281.034 422.579 280.771 422.797 280.465 422.85C280.238 422.893 280.001 422.823 279.748 422.658L281.243 422.335Z" fill="black"/>
<path d="M276.013 478.517C276.013 478.517 247.01 480.148 239.471 485.974C231.931 491.801 231.511 552.799 231.511 552.799L255.17 555.485L255.389 495.77L276.013 478.517Z" fill="#E64218"/>
<path d="M291.013 431.947C291.013 431.947 290.182 429.034 289.762 429.034C289.211 429.034 286.167 430.499 283.395 430.482C280.631 430.465 280.15 429.601 279.327 429.714C278.505 429.828 278.199 431.947 278.199 431.947C278.199 431.947 273.074 433.648 267.117 435.027C261.161 436.405 251.802 434.599 247.867 432.689C243.931 430.779 237.231 426.644 237.231 426.644L230.312 444.778C230.312 444.778 244.35 462.703 257.225 462.808C270.1 462.913 285.625 460.366 285.625 460.366L291.004 431.939L291.013 431.947Z" fill="#0017BF"/>
<path d="M310.771 479.451C310.771 479.451 312.896 502.252 309.502 504.398C301.578 509.413 279.878 508.149 279.773 509.082C279.668 510.015 282.205 551.579 282.205 551.579L253.613 556.899C253.613 556.899 243.108 496.233 249.056 486.447C254.995 476.66 290.033 477.584 290.033 477.584L310.762 479.451H310.771Z" fill="#E64218"/>
<path d="M255.108 474.121L270.991 472.542L265 446.811L249.117 448.389L255.108 474.121Z" fill="#FFB904"/>
<path d="M252.73 474.357L268.605 472.786L262.613 447.046L246.739 448.625L252.73 474.357Z" fill="#F6F6F6"/>
<path d="M273.362 458.256L272.767 477.777C272.767 477.777 285.319 481.275 294.782 482.13C304.246 482.976 310.736 482.13 310.736 482.13V474.602L273.353 458.265L273.362 458.256Z" fill="#0017BF"/>
<path d="M275.41 460.793C275.41 460.793 273.512 456.867 271.596 455.489C269.681 454.111 266.759 454.12 266.759 454.12L267.337 456.92C267.337 456.92 262.885 457.504 262.133 456.92C261.38 456.335 258.188 453.788 257.339 454.006C256.491 454.216 258.293 456.92 258.293 456.92C258.293 456.92 256.377 455.166 255.739 456.231C255.1 457.295 257.549 461.534 257.549 461.534C257.549 461.534 255.319 459.31 256.062 462.808C256.806 466.305 263.278 469.698 265.517 470.021C267.756 470.335 276.722 470.37 276.722 470.37L275.401 460.793H275.41Z" fill="#FFBB87"/>
<path d="M267.335 457.243C267.335 457.243 267.379 457.243 267.397 457.243L269.741 456.764C269.916 456.729 270.02 456.563 269.985 456.389C269.95 456.214 269.784 456.109 269.609 456.144L267.265 456.624C267.09 456.659 266.985 456.825 267.02 456.999C267.055 457.147 267.187 457.252 267.335 457.252V457.243Z" fill="black"/>
<path d="M265.001 460.905C265.167 460.905 265.307 460.775 265.316 460.6C265.316 460.426 265.184 460.277 265.009 460.269C264.992 460.269 262.823 460.155 261.625 459.562C260.418 458.96 258.555 456.745 258.537 456.727C258.423 456.588 258.222 456.579 258.091 456.692C257.96 456.806 257.942 457.006 258.047 457.137C258.126 457.233 260.024 459.475 261.336 460.138C262.657 460.801 264.878 460.905 264.974 460.914C264.974 460.914 264.983 460.914 264.992 460.914L265.001 460.905Z" fill="black"/>
<path d="M264.467 464.936C264.642 464.936 264.782 464.797 264.782 464.622C264.782 464.448 264.651 464.299 264.467 464.299C264.45 464.299 262.666 464.247 261.144 463.514C259.167 462.564 257.776 461.316 257.759 461.307C257.628 461.194 257.427 461.203 257.304 461.334C257.19 461.464 257.199 461.665 257.33 461.787C257.392 461.84 258.8 463.096 260.864 464.099C262.508 464.892 264.371 464.945 264.45 464.954L264.467 464.936Z" fill="black"/>
<path d="M215.698 382.447H223.657V390.385H215.698V382.447Z" fill="#DC3C1E"/>
<path d="M205.14 379.604L202.665 383.886L200.189 388.169H205.14H210.099L207.624 383.886L205.14 379.604Z" fill="#E64218"/>
<path d="M212.024 395.898C208.971 395.898 206.496 393.429 206.496 390.385C206.496 387.34 208.971 384.872 212.024 384.872C215.077 384.872 217.552 387.34 217.552 390.385C217.552 393.429 215.077 395.898 212.024 395.898Z" fill="white"/>
<path d="M131.626 450.858C131.626 451.791 132.387 452.55 133.323 452.55C134.259 452.55 135.02 451.791 135.02 450.858C135.02 449.924 134.259 449.166 133.323 449.166C132.387 449.166 131.626 449.924 131.626 450.858Z" fill="#E64218"/>
<path d="M133.323 474.358C132.386 474.358 131.626 473.6 131.626 472.665C131.626 471.731 132.386 470.973 133.323 470.973C134.26 470.973 135.02 471.731 135.02 472.665C135.02 473.6 134.26 474.358 133.323 474.358Z" fill="#E64218"/>
<path d="M210.231 470.895C210.231 471.828 210.991 472.587 211.927 472.587C212.863 472.587 213.624 471.828 213.624 470.895C213.624 469.962 212.863 469.203 211.927 469.203C210.991 469.203 210.231 469.962 210.231 470.895Z" fill="#E64218"/>
<path d="M117.57 484.239V485.757H223.175V484.239C223.175 481.082 220.288 478.526 216.729 478.526H124.008C120.465 478.526 117.579 481.082 117.579 484.239H117.57Z" fill="#EDEDED"/>
<path d="M252.809 550.514C252.809 550.514 252.844 550.514 252.87 550.514C253.045 550.479 253.158 550.313 253.123 550.139C253.036 549.659 244.15 501.929 247.928 491.95C251.672 482.085 274.893 481.832 275.129 481.823C275.287 481.823 275.427 481.701 275.444 481.544C275.462 481.387 275.366 481.239 275.208 481.195L269.759 479.782C269.593 479.738 269.418 479.843 269.374 480.009C269.331 480.174 269.436 480.349 269.602 480.401L272.925 481.265C266.899 481.579 250.57 483.21 247.342 491.723C243.494 501.868 252.135 548.29 252.502 550.261C252.529 550.409 252.669 550.523 252.817 550.523L252.809 550.514Z" fill="white"/>
<path d="M289.763 431.73C289.763 431.73 308.078 432.157 318.608 452.839C329.139 473.529 318.075 484.136 300.206 481.798C282.337 479.46 273.354 473.843 273.354 473.843L275.401 456.302L289.763 431.73Z" fill="#0017BF"/>
<path d="M300.931 459.075C301.071 459.075 301.203 458.987 301.238 458.848C301.29 458.682 301.185 458.499 301.019 458.455C293.689 456.362 278.584 456.379 278.436 456.371C278.261 456.371 278.121 456.51 278.121 456.693C278.121 456.868 278.261 457.007 278.436 457.007C279.083 457.007 293.716 457.034 300.844 459.066C300.87 459.066 300.905 459.075 300.931 459.075Z" fill="#FFB904"/>
<path d="M285.372 434.102C288.284 434.102 291.065 432.287 291.188 432.209C291.337 432.113 291.372 431.912 291.275 431.773C291.179 431.624 290.978 431.59 290.829 431.686C290.803 431.703 287.786 433.657 284.934 433.456C284.759 433.43 284.602 433.578 284.593 433.753C284.584 433.927 284.716 434.084 284.891 434.093C285.048 434.102 285.205 434.11 285.363 434.11L285.372 434.102Z" fill="#FFB904"/>
<path d="M257.941 441.847C258.134 441.847 258.317 441.795 258.484 441.681C259.909 440.783 260.329 435.994 260.373 435.453C260.382 435.314 260.303 435.183 260.172 435.131C260.041 435.078 259.892 435.122 259.804 435.227C259.463 435.654 256.489 439.474 256.936 441.088C257.023 441.411 257.242 441.646 257.557 441.769C257.688 441.821 257.81 441.838 257.933 441.838L257.941 441.847ZM259.621 436.544C259.376 438.41 258.868 440.696 258.151 441.14C258.038 441.219 257.924 441.228 257.793 441.175C257.661 441.123 257.592 441.045 257.557 440.914C257.338 440.111 258.519 438.079 259.621 436.535V436.544Z" fill="#FFB904"/>
<path d="M299.899 458.395C302.69 458.395 306.066 458.176 306.547 457.138C306.652 456.912 306.695 456.537 306.267 456.083C304.002 453.641 296.856 457.548 296.558 457.714C296.436 457.784 296.375 457.924 296.401 458.063C296.427 458.203 296.55 458.299 296.698 458.307C297.38 458.342 298.579 458.395 299.899 458.395ZM304.002 455.909C304.762 455.909 305.401 456.083 305.803 456.519C305.882 456.606 306.022 456.772 305.969 456.877C305.637 457.575 301.754 457.845 297.932 457.732C299.62 456.92 302.165 455.917 304.002 455.917V455.909Z" fill="#FFB904"/>
<path d="M279.783 509.395C279.862 509.395 279.94 509.369 280.002 509.308C280.106 509.212 280.133 509.064 280.071 508.933C279.415 507.624 277.194 503.376 275.847 503.376C275.611 503.376 275.305 503.49 275.112 503.943C274.176 506.194 279.066 509.037 279.625 509.351C279.678 509.378 279.73 509.395 279.783 509.395ZM275.856 504.013C276.415 504.013 277.797 506.028 278.969 508.191C277.413 507.153 275.217 505.365 275.707 504.188C275.733 504.118 275.786 504.013 275.847 504.013H275.856Z" fill="white"/>
<path d="M291.564 478.841C291.712 478.841 291.852 478.736 291.878 478.579C291.913 478.405 291.8 478.239 291.625 478.204C291.537 478.186 282.406 476.451 275.295 472.299C275.138 472.211 274.945 472.264 274.858 472.412C274.77 472.56 274.823 472.761 274.972 472.848C282.179 477.061 291.415 478.814 291.511 478.832C291.529 478.832 291.555 478.832 291.572 478.832L291.564 478.841Z" fill="#FFB904"/>
<ellipse cx="123.858" cy="491.521" rx="1.15155" ry="1.1504" fill="#1D166C"/>
<ellipse cx="123.858" cy="496.932" rx="1.15155" ry="1.1504" fill="#1D166C"/>
<ellipse cx="123.858" cy="502.343" rx="1.15155" ry="1.1504" fill="#1D166C"/>
<ellipse cx="123.858" cy="507.754" rx="1.15155" ry="1.1504" fill="#1D166C"/>
<ellipse cx="123.858" cy="513.164" rx="1.15155" ry="1.1504" fill="#1D166C"/>
<ellipse cx="123.858" cy="518.575" rx="1.15155" ry="1.1504" fill="#1D166C"/>
<ellipse cx="123.858" cy="523.985" rx="1.15155" ry="1.1504" fill="#1D166C"/>
<ellipse cx="123.858" cy="529.396" rx="1.15155" ry="1.1504" fill="#1D166C"/>
<ellipse cx="123.858" cy="534.807" rx="1.15155" ry="1.1504" fill="#1D166C"/>
</svg>