<svg width="980" height="260" viewBox="0 0 980 260" fill="none" xmlns="http://www.w3.org/2000/svg">
<path d="M980 0H0V260H980V0Z" fill="black"/>
<mask id="mask0_1455_34414" style="mask-type:alpha" maskUnits="userSpaceOnUse" x="480" y="0" width="500" height="260">
<path d="M980 0H480V260H980V0Z" fill="black"/>
</mask>
<g mask="url(#mask0_1455_34414)">
<path d="M596.605 82.4439V169.99C596.605 172.647 598.839 174.821 601.593 174.821H760.377C763.117 174.821 765.352 172.647 765.352 169.99V82.4439C765.352 79.7871 763.117 77.6133 760.377 77.6133H601.593C598.839 77.6133 596.605 79.7871 596.605 82.4439Z" fill="#40398D"/>
<path d="M596.605 83.3816V89.4908H765.352V83.3816C765.352 80.1991 763.117 77.6133 760.377 77.6133H601.593C598.839 77.6133 596.605 80.1991 596.605 83.3816Z" fill="#EDEDED"/>
<path d="M737.672 86.3756C736.087 86.3756 734.803 85.1098 734.803 83.5483C734.803 81.9868 736.087 80.721 737.672 80.721C739.256 80.721 740.541 81.9868 740.541 83.5483C740.541 85.1098 739.256 86.3756 737.672 86.3756Z" fill="#FFB904"/>
<path d="M746.854 86.3756C745.269 86.3756 743.984 85.1098 743.984 83.5483C743.984 81.9868 745.269 80.721 746.854 80.721C748.438 80.721 749.723 81.9868 749.723 83.5483C749.723 85.1098 748.438 86.3756 746.854 86.3756Z" fill="#E64218"/>
<path d="M756.021 86.3756C754.437 86.3756 753.152 85.1098 753.152 83.5483C753.152 81.9868 754.437 80.721 756.021 80.721C757.606 80.721 758.891 81.9868 758.891 83.5483C758.891 85.1098 757.606 86.3756 756.021 86.3756Z" fill="#0017BF"/>
<path d="M609.775 123.263H645.807C646.73 123.263 647.478 124.011 647.478 124.933C647.478 125.856 646.73 126.604 645.807 126.604H609.775C608.853 126.604 608.105 125.856 608.105 124.933C608.105 124.011 608.853 123.263 609.775 123.263Z" fill="#FFB904"/>
<path d="M653.29 123.263H689.322C690.244 123.263 690.992 124.011 690.992 124.933C690.992 125.856 690.244 126.604 689.322 126.604H653.29C652.367 126.604 651.619 125.856 651.619 124.933C651.619 124.011 652.367 123.263 653.29 123.263Z" fill="#3DF130"/>
<path d="M609.776 112.884H627.98C628.902 112.884 629.65 113.632 629.65 114.555C629.65 115.478 628.902 116.225 627.98 116.225H609.776C608.853 116.225 608.105 115.478 608.105 114.555C608.105 113.632 608.853 112.884 609.776 112.884Z" fill="#3DF130"/>
<path d="M669.992 143.034H688.197C689.119 143.034 689.867 143.782 689.867 144.705C689.867 145.627 689.119 146.375 688.197 146.375H669.992C669.07 146.375 668.322 145.627 668.322 144.705C668.322 143.782 669.07 143.034 669.992 143.034Z" fill="#FFB904"/>
<path d="M634.433 112.884H680.833C681.756 112.884 682.504 113.632 682.504 114.555C682.504 115.478 681.756 116.225 680.833 116.225H634.433C633.51 116.225 632.762 115.478 632.762 114.555C632.762 113.632 633.51 112.884 634.433 112.884Z" fill="#E64218"/>
<path d="M609.776 133.148H699.095C700.018 133.148 700.766 133.896 700.766 134.818C700.766 135.741 700.018 136.489 699.095 136.489H609.776C608.853 136.489 608.105 135.741 608.105 134.818C608.105 133.896 608.853 133.148 609.776 133.148Z" fill="#3DF130"/>
<path d="M609.776 143.034H663.163C664.086 143.034 664.834 143.782 664.834 144.705C664.834 145.627 664.086 146.375 663.163 146.375H609.776C608.854 146.375 608.106 145.627 608.106 144.705C608.106 143.782 608.854 143.034 609.776 143.034Z" fill="#3DF130"/>
<path d="M709.88 109.405H752.45V151.355H709.88V109.405Z" fill="#2E2C6E"/>
<path d="M719.376 130.828V129.25L726.922 125.75V127.703L721.61 129.992V130.086L726.922 132.375V134.328L719.376 130.828ZM733.86 122.687L730.219 136.234H728.469L732.126 122.687H733.86ZM742.969 130.828L735.422 134.328V132.375L740.735 130.086V129.992L735.422 127.703V125.75L742.969 129.25V130.828Z" fill="#FFB904"/>
<path d="M884.132 38.526C884.132 38.526 892.091 25.3416 904.793 31.7633C917.495 38.1851 916.111 51.4548 925.756 54.5094C935.402 57.5498 943.303 65.7475 937.694 76.3178C933.009 85.1549 920.306 82.356 920.306 82.356C920.306 82.356 912.405 95.6115 898.449 91.0794C884.492 86.5472 878.12 79.4009 879.59 68.0065C881.046 56.6121 884.146 38.5403 884.146 38.5403L884.132 38.526Z" fill="#0017BF"/>
<path d="M861.44 57.679C861.44 57.679 853.899 46.8245 869.168 38.2574C884.436 29.7045 895.567 41.4399 895.697 47.7338C895.827 54.0419 892.179 56.9544 892.179 56.9544C892.179 56.9544 893.606 70.622 880.284 69.6701C866.962 68.7324 861.44 57.6506 861.44 57.6506V57.679Z" fill="#0017BF"/>
<path d="M881.565 67.5116L881.839 78.5508C881.839 78.5508 879.907 81.7759 873.361 82.4578C868.488 82.9693 866.743 81.9179 866.743 81.9179L867.277 76.306L867.81 70.8361L879.575 67.9804L881.551 67.4974L881.565 67.5116Z" fill="#FFBB87"/>
<path d="M881.521 66.9824C881.506 67.2808 881.391 67.6502 881.218 68.0622C878.853 73.6315 870.087 76.0041 867.276 76.3167L867.809 70.8468L881.521 66.9824Z" fill="black"/>
<path d="M864.682 45.7419C864.682 45.7419 859.16 59.722 861.669 67.3514C864.177 74.9808 871.271 73.489 875.481 71.8126C879.691 70.1503 881.565 67.4935 881.565 67.4935C881.565 67.4935 885.602 68.6727 888.125 64.9078C890.649 61.1428 888.832 57.0084 886.511 56.1418C884.189 55.2751 881.551 56.9942 881.551 56.9942L883.512 52.9167C883.512 52.9167 873.751 32.9836 864.682 45.7277V45.7419Z" fill="#FFBB87"/>
<path d="M863.803 63.7891C863.803 63.7891 863.86 63.7891 863.889 63.7891C864.178 63.7465 864.365 63.4766 864.322 63.1924C863.615 58.9728 865.259 56.728 865.288 56.6996C865.461 56.4723 865.418 56.1455 865.187 55.975C864.956 55.8045 864.625 55.8472 864.452 56.0745C864.379 56.1739 862.505 58.6602 863.298 63.3487C863.341 63.6044 863.558 63.7891 863.817 63.7891H863.803Z" fill="black"/>
<path d="M881.855 62.6802C881.941 62.6802 882.028 62.666 882.1 62.6233L887.55 59.7676C887.809 59.6398 887.91 59.313 887.766 59.0715C887.636 58.8157 887.305 58.7305 887.06 58.8584L881.61 61.7141C881.35 61.8419 881.249 62.1687 881.393 62.4102C881.494 62.5807 881.667 62.6802 881.855 62.6802Z" fill="black"/>
<path d="M886.944 63.6426C887.088 63.6426 887.232 63.5858 887.347 63.4721C887.535 63.259 887.52 62.9322 887.29 62.7476L884.666 60.4886C884.449 60.3039 884.118 60.3181 883.916 60.5454C883.729 60.7585 883.743 61.0853 883.974 61.27L886.598 63.529C886.699 63.6142 886.828 63.6568 886.944 63.6568V63.6426Z" fill="black"/>
<path d="M862.49 52.6765C862.49 52.6765 862.749 49.2667 865.388 46.3542C868.199 43.257 870.578 43.7684 870.578 43.7684C870.578 43.7684 866.426 52.7191 873.404 55.8732C878.364 58.118 881.55 57.024 881.55 57.024L888.658 50.0765L874.529 38.7674C874.529 38.7674 861.639 36.9915 862.504 52.6907L862.49 52.6765Z" fill="#0017BF"/>
<path d="M867.306 66.6274C867.306 66.6274 867.421 66.6274 867.479 66.599C867.551 66.5706 869.238 65.9881 870.333 64.1695C870.478 63.928 870.391 63.6012 870.146 63.4591C869.901 63.3171 869.569 63.4023 869.425 63.6438C868.531 65.1356 867.147 65.6187 867.133 65.6187C866.859 65.7181 866.714 66.0023 866.801 66.2722C866.873 66.4853 867.075 66.6274 867.291 66.6274H867.306Z" fill="black"/>
<path d="M868.733 57.9477C868.978 57.9477 869.194 57.7915 869.252 57.5499L869.814 55.092C869.843 54.9642 869.814 54.8221 869.742 54.6942L868.949 53.444C868.79 53.2025 868.459 53.1314 868.228 53.2877C867.983 53.444 867.911 53.7566 868.07 53.9981L868.747 55.0636L868.228 57.3084C868.17 57.5926 868.344 57.8625 868.617 57.9335C868.661 57.9335 868.69 57.9335 868.733 57.9335V57.9477Z" fill="black"/>
<path d="M861.769 57.8896C862.014 57.8896 862.23 57.7333 862.288 57.4918L862.85 55.0339C862.879 54.906 862.85 54.7639 862.778 54.6361L861.985 53.3858C861.827 53.1443 861.509 53.0733 861.264 53.2295C861.019 53.3858 860.947 53.6984 861.106 53.9399L861.783 55.0055L861.264 57.2502C861.207 57.5344 861.38 57.8043 861.654 57.8754C861.697 57.8754 861.726 57.8754 861.769 57.8754V57.8896Z" fill="black"/>
<path d="M862.953 51.5108C862.953 51.5108 863.025 51.5108 863.068 51.5108L864.611 51.184C864.899 51.1272 865.072 50.8431 865.014 50.5731C864.957 50.289 864.683 50.1185 864.394 50.1753L862.852 50.5021C862.563 50.5589 862.39 50.8431 862.448 51.113C862.506 51.3545 862.722 51.525 862.967 51.525L862.953 51.5108Z" fill="black"/>
<path d="M808.206 73.8748L783.004 89.1052L754.745 51.8533L779.961 36.6087L808.206 73.8748Z" fill="#3DF130"/>
<path d="M811.466 72.097L786.263 87.3274L758.004 50.0755L783.221 34.8309L811.466 72.097Z" fill="#F6F6F6"/>
<path d="M765.083 53.1004C765.184 53.1004 765.271 53.072 765.357 53.0294L783.855 41.8481C784.1 41.6918 784.187 41.3793 784.028 41.1377C783.884 40.8962 783.552 40.811 783.307 40.9673L764.809 52.1485C764.564 52.3048 764.478 52.6174 764.636 52.8589C764.737 53.0152 764.91 53.1004 765.083 53.1004Z" fill="#0017BF"/>
<path d="M768.082 56.9525C768.183 56.9525 768.27 56.9241 768.356 56.8815L786.854 45.7002C787.099 45.5439 787.186 45.2314 787.027 44.9899C786.883 44.7483 786.551 44.6631 786.306 44.8194L767.808 56.0006C767.563 56.1569 767.477 56.4695 767.635 56.711C767.736 56.8673 767.909 56.9525 768.082 56.9525Z" fill="#0017BF"/>
<path d="M771.01 60.8444C771.111 60.8444 771.197 60.8159 771.284 60.7733L789.782 49.5921C790.027 49.4358 790.114 49.1232 789.955 48.8817C789.811 48.6402 789.479 48.5549 789.234 48.7112L770.736 59.8925C770.491 60.0487 770.404 60.3613 770.563 60.6028C770.664 60.7591 770.837 60.8444 771.01 60.8444Z" fill="#0017BF"/>
<path d="M773.949 64.7247C774.05 64.7247 774.137 64.6963 774.223 64.6537L792.721 53.4724C792.967 53.3162 793.053 53.0036 792.894 52.7621C792.75 52.5205 792.419 52.4353 792.174 52.5916L773.675 63.7728C773.43 63.9291 773.344 64.2417 773.502 64.4832C773.603 64.6395 773.776 64.7247 773.949 64.7247Z" fill="#0017BF"/>
<path d="M838.37 54.525L865.706 90.3988L839.466 105.501L822.481 61.174L838.37 54.525Z" fill="#FFBB87"/>
<path d="M870.91 52.1378C871.126 52.1378 871.328 52.0099 871.4 51.7968C871.501 51.5269 871.357 51.2285 871.083 51.1433L867.839 50.0351C867.565 49.9498 867.262 50.0777 867.176 50.3476C867.075 50.6176 867.219 50.9159 867.493 51.0012L870.737 52.1094C870.737 52.1094 870.852 52.1378 870.91 52.1378Z" fill="black"/>
<path d="M798.806 90.0997C798.806 90.0997 798.215 79.8703 795.086 75.8212C791.957 71.7721 786.464 68.6181 785.296 70.9623C784.128 73.3065 787.848 76.7021 787.257 78.0944C786.666 79.4868 782.759 78.7906 776.876 76.7163C770.994 74.6562 767.086 67.9503 767.086 67.9503C767.086 67.9503 765.919 70.6071 766.308 73.0224C766.697 75.4376 767.476 76.7163 767.476 76.7163C767.476 76.7163 766.221 73.9316 766.221 79.0179C766.221 81.5752 768.456 83.3654 768.456 83.3654C768.456 83.3654 766.697 85.4681 770.417 90.0997C774.137 94.7313 784.518 98.9794 784.518 98.9794C784.518 98.9794 796.066 126.769 815.069 134.1C834.072 141.431 848.951 131.585 848.951 131.585L843.083 101.096C843.083 101.096 822.711 108.243 798.82 90.0997H798.806Z" fill="#FFBB87"/>
<path d="M776.748 82.5304C776.993 82.5304 777.21 82.3599 777.267 82.1184C777.325 81.8342 777.152 81.5643 776.864 81.5074C772.524 80.6124 767.463 75.4693 767.42 75.4125C767.218 75.2136 766.886 75.1993 766.67 75.3982C766.454 75.5971 766.454 75.9239 766.67 76.137C766.886 76.3643 772.005 81.5643 776.662 82.5304C776.705 82.5304 776.734 82.5304 776.777 82.5304H776.748Z" fill="black"/>
<path d="M775.868 87.5703C776.113 87.5703 776.344 87.3856 776.387 87.1441C776.431 86.8599 776.243 86.59 775.955 86.5474C771.024 85.7233 768.89 83.0807 768.861 83.0523C768.688 82.825 768.357 82.7824 768.126 82.9671C767.895 83.1376 767.852 83.4643 768.025 83.6917C768.126 83.8195 770.418 86.6894 775.767 87.5703C775.796 87.5703 775.825 87.5703 775.854 87.5703H775.868Z" fill="black"/>
<path d="M859.537 146.447C859.537 146.447 834.291 179.977 813.544 217.214C792.796 254.452 781.277 301.024 781.277 301.024L834.392 304.263L873.018 212.256L861.656 303.042L913.027 301.266C913.027 301.266 924.143 216.987 918.218 177.235C912.292 137.482 905.343 129.114 905.343 129.114L859.551 146.447H859.537Z" fill="#FFB904"/>
<path d="M890.116 58.7597C890.275 58.7597 890.419 58.6887 890.534 58.5608C899.488 47.4506 887.434 37.5196 887.319 37.4201C887.088 37.2355 886.757 37.2781 886.584 37.4912C886.396 37.7185 886.44 38.0453 886.656 38.2158C887.132 38.5994 898.032 47.5927 889.712 57.9073C889.539 58.1346 889.568 58.4614 889.799 58.6319C889.9 58.7029 890.015 58.7455 890.131 58.7455L890.116 58.7597Z" fill="white"/>
<path d="M830.427 101.479C830.427 101.479 850.641 79.1874 875.05 77.7382C899.46 76.2891 907.678 87.8681 908.86 93.3664C910.028 98.8647 912.09 138.233 910.619 140.848C909.148 143.448 899.128 148.079 882.85 149.244C866.558 150.409 858.037 148.378 856.869 147.511C855.701 146.644 854.231 134.483 854.231 134.483L840.418 137.964L830.427 101.493V101.479Z" fill="#3DF130"/>
<path d="M881.565 67.5115C881.565 67.5115 874.687 82.7561 881.839 88.7942C888.99 94.8324 899.63 90.9253 899.63 90.9253C899.63 90.9253 903.22 93.1843 910.083 90.8969C916.946 88.6095 920.306 82.344 920.306 82.344L881.565 67.5115Z" fill="#0017BF"/>
<path d="M838.368 54.5262C838.368 54.5262 831.505 43.9132 828.059 41.5832C824.614 39.2532 805.38 31.7943 803.477 33.6128C801.574 35.4314 812.82 43.0324 812.82 43.0324C812.82 43.0324 810.888 43.4444 810.412 44.9788C809.936 46.5132 810.787 47.7634 810.787 47.7634C810.787 47.7634 808.393 47.6782 807.716 49.2836C807.038 50.8891 808.148 52.6508 808.148 52.6508C808.148 52.6508 812.56 60.607 815.083 60.7633C817.592 60.9337 817.26 56.5294 817.26 56.5294C817.26 56.5294 818.169 60.5359 820.36 62.7523C822.552 64.9544 827.05 65.196 831.693 62.7807C836.335 60.3654 838.368 54.512 838.368 54.512V54.5262Z" fill="#FFBB87"/>
<path d="M833.005 61.473C833.264 61.473 833.495 61.2741 833.524 61.0042C833.552 60.72 833.351 60.4643 833.048 60.4359C827.756 59.8818 826.459 53.1617 826.444 53.0906C826.416 52.9485 826.344 52.8349 826.214 52.7496C826.098 52.6786 825.94 52.6502 825.81 52.6786C823.301 53.2185 820.288 53.4174 819.798 52.7923C819.697 52.6644 819.798 52.4229 819.884 52.2382C821.268 49.5245 827.656 46.7541 827.713 46.7257C827.973 46.612 828.103 46.2995 827.987 46.0437C827.872 45.788 827.555 45.6601 827.295 45.7738C827.021 45.8875 820.49 48.7147 818.947 51.7693C818.529 52.5791 818.731 53.119 818.976 53.4316C819.985 54.7103 823.763 54.142 825.522 53.801C825.954 55.5343 827.713 60.9331 832.933 61.473C832.947 61.473 832.976 61.473 832.99 61.473H833.005Z" fill="black"/>
<path d="M820.03 51.6413C820.246 51.6413 820.462 51.4993 820.535 51.2861C820.621 51.0162 820.477 50.7178 820.203 50.6326C817.175 49.6523 813.326 42.8469 813.282 42.7759C813.138 42.5202 812.821 42.4349 812.561 42.577C812.302 42.7191 812.215 43.0316 812.36 43.2874C812.533 43.5857 816.454 50.5189 819.871 51.6271C819.929 51.6413 819.987 51.6555 820.03 51.6555V51.6413Z" fill="black"/>
<path d="M818.775 57.4519C818.775 57.4519 818.833 57.4519 818.876 57.4519C819.9 57.395 820.679 57.0398 821.183 56.3863C822.063 55.2355 821.717 53.6301 821.702 53.559C821.645 53.2749 821.356 53.1044 821.082 53.1612C820.794 53.2181 820.621 53.5022 820.679 53.7721C820.679 53.7721 820.938 54.994 820.347 55.747C820.044 56.1448 819.525 56.3579 818.833 56.4005C816.887 56.4858 813.152 51.0017 811.278 47.5067C811.148 47.2509 810.831 47.1515 810.572 47.2936C810.312 47.4214 810.211 47.734 810.355 47.9897C810.874 48.97 815.531 57.4377 818.804 57.4377L818.775 57.4519Z" fill="black"/>
<path d="M854.23 135.011C854.432 135.011 854.633 134.884 854.72 134.699C855.398 133.122 858.67 125.151 856.09 123.447C855.556 123.091 855.124 123.233 854.907 123.361C853.192 124.342 853.552 132.156 853.711 134.528C853.725 134.77 853.912 134.969 854.143 135.011C854.172 135.011 854.201 135.011 854.23 135.011ZM855.426 124.256C856.58 125.024 855.801 128.703 854.633 131.985C854.532 127.922 854.85 124.541 855.426 124.256Z" fill="white"/>
<path d="M876.13 155.879C887.03 155.879 901.664 154.075 910.459 145.621C910.661 145.423 910.676 145.096 910.459 144.883C910.258 144.684 909.926 144.67 909.71 144.883C895.047 158.962 862.433 153.904 862.116 153.848C861.828 153.805 861.554 153.99 861.511 154.274C861.467 154.558 861.655 154.828 861.943 154.87C862.505 154.956 868.374 155.879 876.116 155.879H876.13Z" fill="white"/>
<path d="M872.769 212.783C872.942 212.783 873.13 212.683 873.231 212.527C873.303 212.399 880.699 200.181 899.875 192.992C900.149 192.892 900.279 192.594 900.178 192.324C900.077 192.054 899.774 191.912 899.5 192.026C879.95 199.357 872.395 211.888 872.322 212.001C872.178 212.243 872.265 212.57 872.51 212.712C872.596 212.754 872.683 212.783 872.769 212.783Z" fill="white"/>
<path d="M917.582 184.617C918.072 184.617 918.562 184.602 919.067 184.574C919.355 184.56 919.571 184.304 919.557 184.02C919.543 183.736 919.312 183.537 918.995 183.537C914.453 183.835 910.805 182.727 908.138 180.226C903.841 176.206 903.38 169.685 903.322 168.136L915.938 163.192C916.212 163.092 916.342 162.78 916.226 162.524C916.111 162.268 915.808 162.126 915.549 162.24L902.587 167.312C902.385 167.383 902.255 167.582 902.255 167.781C902.255 168.122 902.169 176.092 907.388 180.979C909.969 183.395 913.386 184.617 917.553 184.617H917.582Z" fill="white"/>
<path d="M863.731 189.368C874.832 189.368 878.624 171.893 878.653 171.708C878.711 171.452 878.552 171.183 878.293 171.112L858.684 165.116C858.425 165.045 858.137 165.173 858.036 165.414C857.805 165.968 852.6 178.94 856.406 185.575C857.56 187.592 859.42 188.814 861.943 189.212C862.548 189.311 863.14 189.354 863.716 189.354L863.731 189.368ZM877.514 171.964C876.808 174.805 872.554 189.88 862.116 188.203C859.924 187.848 858.31 186.811 857.329 185.077C854.143 179.522 857.964 168.597 858.843 166.253L877.514 171.95V171.964Z" fill="white"/>
<path d="M745.907 168.479H798.388C800.652 168.479 802.497 166.661 802.497 164.43V140.889C802.497 138.658 800.652 136.839 798.388 136.839H745.907C743.643 136.839 741.798 138.658 741.798 140.889V164.43C741.798 166.661 743.643 168.479 745.907 168.479Z" fill="white"/>
<path d="M775.478 139.155L794.683 125.644L789.982 139.155H775.478Z" fill="white"/>
<path d="M759.474 162.315H752.812V143.021H759.474V162.315Z" fill="#3DF130"/>
<path d="M770.158 162.315H763.497V146.488H770.158V162.315Z" fill="#FFB904"/>
<path d="M791.496 162.315H784.835V146.488H791.496V162.315Z" fill="#5EF939"/>
<path d="M780.812 162.299H774.151V152.652H780.812V162.299Z" fill="#373178"/>
<path d="M566.662 98.2032H641.967C643.985 98.2032 645.629 96.5835 645.629 94.5945V58.5644C645.629 56.5754 643.985 54.9557 641.967 54.9557H566.662C564.644 54.9557 563 56.5754 563 58.5644V94.5945C563 96.5835 564.644 98.2032 566.662 98.2032ZM641.967 56.0071C643.409 56.0071 644.562 57.1579 644.562 58.5787V94.6087C644.562 96.0295 643.394 97.1803 641.967 97.1803H566.662C565.22 97.1803 564.067 96.0295 564.067 94.6087V58.5787C564.067 57.1579 565.235 56.0071 566.662 56.0071H641.967Z" fill="#E64218"/>
<path d="M563.533 63.9781H645.095C645.384 63.9781 645.629 63.7508 645.629 63.4667C645.629 63.1825 645.398 62.9552 645.095 62.9552H563.533C563.245 62.9552 563 63.1825 563 63.4667C563 63.7508 563.231 63.9781 563.533 63.9781Z" fill="#E64218"/>
<path d="M569.272 62.0319C570.671 62.0319 571.824 60.9095 571.824 59.5172C571.824 58.1248 570.685 57.0024 569.272 57.0024C567.859 57.0024 566.72 58.1248 566.72 59.5172C566.72 60.9095 567.859 62.0319 569.272 62.0319ZM569.272 58.0538C570.094 58.0538 570.772 58.7073 570.772 59.5314C570.772 60.3554 570.108 61.0089 569.272 61.0089C568.436 61.0089 567.773 60.3554 567.773 59.5314C567.773 58.7073 568.436 58.0538 569.272 58.0538Z" fill="#E64218"/>
<path d="M576.035 62.0319C577.433 62.0319 578.587 60.9095 578.587 59.5172C578.587 58.1248 577.448 57.0024 576.035 57.0024C574.622 57.0024 573.483 58.1248 573.483 59.5172C573.483 60.9095 574.622 62.0319 576.035 62.0319ZM576.035 58.0538C576.857 58.0538 577.534 58.7073 577.534 59.5314C577.534 60.3554 576.871 61.0089 576.035 61.0089C575.199 61.0089 574.535 60.3554 574.535 59.5314C574.535 58.7073 575.199 58.0538 576.035 58.0538Z" fill="#E64218"/>
<path d="M582.796 62.0319C584.194 62.0319 585.348 60.9095 585.348 59.5172C585.348 58.1248 584.209 57.0024 582.796 57.0024C581.383 57.0024 580.244 58.1248 580.244 59.5172C580.244 60.9095 581.383 62.0319 582.796 62.0319ZM582.796 58.0538C583.618 58.0538 584.295 58.7073 584.295 59.5314C584.295 60.3554 583.632 61.0089 582.796 61.0089C581.959 61.0089 581.296 60.3554 581.296 59.5314C581.296 58.7073 581.959 58.0538 582.796 58.0538Z" fill="#E64218"/>
</g>
</svg>
