<svg width="980" height="260" viewBox="0 0 980 260" fill="none" xmlns="http://www.w3.org/2000/svg">
<path d="M980 0H0V260H980V0Z" fill="black"/>
<mask id="mask0_1455_35178" style="mask-type:alpha" maskUnits="userSpaceOnUse" x="480" y="0" width="500" height="260">
<path d="M980 0H480V260H980V0Z" fill="black"/>
</mask>
<g mask="url(#mask0_1455_35178)">
<path d="M769.569 54.7569C769.569 54.7569 777.189 53.003 780.009 54.7569C782.828 56.5108 782.828 72.5498 780.009 72.715C777.189 72.8802 769.569 54.7569 769.569 54.7569Z" fill="#FFBB87"/>
<path d="M816.215 67.3132C816.215 67.3132 799.896 72.2824 799.591 88.753C799.286 105.224 829.854 106.838 829.854 106.838C829.854 106.838 847.595 108.591 852.421 96.9756C857.234 85.3598 841.423 78.2174 841.423 78.2174C841.423 78.2174 822.196 63.0939 816.227 67.3132H816.215Z" fill="#0002BB"/>
<path d="M784.377 64.7333L765.798 83.1992C765.798 83.1992 767.258 107.524 783.031 118.504C798.804 129.485 820.761 122.647 820.761 122.647V89.9476C820.761 89.9476 807.833 91.3075 800.734 90.367C793.635 89.4139 784.39 64.746 784.39 64.746L784.377 64.7333Z" fill="#1C34ED"/>
<path d="M768.02 89.2872C767.893 89.2872 767.766 89.2364 767.677 89.1347C767.512 88.9441 767.525 88.6518 767.716 88.4865L786.346 71.9138C786.537 71.7486 786.829 71.7613 786.994 71.9519C787.159 72.1425 787.146 72.4348 786.956 72.6001L768.325 89.1728C768.236 89.2491 768.122 89.2872 768.02 89.2872Z" fill="#0002BB"/>
<path d="M903.245 80.1112C903.245 80.1112 896.488 94.5361 891.142 93.1635C885.795 91.7909 882.887 89.1601 882.887 89.1601C882.887 89.1601 877.261 75.1546 882.315 73.5532C890.215 71.0495 903.245 80.0984 903.245 80.0984V80.1112Z" fill="#FFBB87"/>
<path d="M839.569 93.0994C839.569 93.0994 853.844 95.7174 860.905 94.2686C867.965 92.8198 879.166 82.7798 879.166 82.7798L899.575 93.6078C899.575 93.6078 889.758 127.388 853.336 126.117C829.511 125.291 832.191 98.2465 832.191 98.2465L839.569 93.074V93.0994Z" fill="#1C34ED"/>
<path d="M864.257 103.127C864.104 103.127 863.952 103.114 863.761 103.076C862.885 102.911 862.212 102.453 861.755 101.703C860.256 99.276 861.59 94.5482 861.653 94.3449C861.704 94.1669 861.856 94.0399 862.034 94.0144C862.225 93.989 862.39 94.0653 862.491 94.2305C863.19 95.3235 866.593 100.839 865.425 102.568C865.247 102.835 864.904 103.127 864.257 103.127ZM862.288 95.6793C861.996 97.1536 861.653 99.7717 862.542 101.221C862.86 101.742 863.317 102.047 863.926 102.161C864.193 102.212 864.536 102.225 864.65 102.047C865.133 101.322 863.876 98.361 862.288 95.6793Z" fill="#0002BB"/>
<path d="M896.451 100.344C896.374 100.344 896.298 100.331 896.235 100.293L873.108 87.9142C872.88 87.7871 872.803 87.5075 872.918 87.2915C873.032 87.0627 873.324 86.9738 873.54 87.1008L896.666 99.4796C896.895 99.6067 896.971 99.8863 896.857 100.102C896.768 100.255 896.616 100.344 896.451 100.344Z" fill="#0002BB"/>
<path d="M852.091 147.951C852.091 147.951 859.254 189.064 860.803 227.749C862.353 266.435 863.368 294.382 863.368 294.382L820 295.83L818.171 219.006L819.161 148.993L852.079 147.951H852.091Z" fill="#E24E1B"/>
<path d="M801.801 149.006C801.801 149.006 797.356 163.837 794.778 176.533C792.2 189.229 788.327 206.233 788.327 206.233C788.327 206.233 773.926 244.805 800.188 250.32C832.762 257.17 834.236 219.895 834.236 219.895L830.934 141.393L801.801 148.993V149.006Z" fill="#E24E1B"/>
<path d="M830.324 91.676C830.324 91.676 830.26 88.6768 820.761 89.9476C807.934 91.6506 803.299 115.886 803.299 115.886C803.299 115.886 799.311 150.95 799.87 151.687C800.429 152.411 815.77 155.703 832.978 154.788C850.198 153.873 853.945 151.509 854.884 150.963C855.824 150.416 847.747 98.6786 847.747 98.6786C847.747 98.6786 843.823 91.854 830.298 91.676H830.324Z" fill="#1C34ED"/>
<path d="M823.809 82.4748L824.177 92.4007C824.177 92.4007 826.069 95.184 831.886 95.4381C836.216 95.6288 837.702 94.5993 837.702 94.5993L836.915 89.5919L836.14 84.7116L825.574 82.7925L823.796 82.4748H823.809Z" fill="#FFBB87"/>
<path d="M823.809 82.0046C823.847 82.2715 823.961 82.5892 824.139 82.9578C826.539 87.8381 834.426 89.4776 836.928 89.6047L836.153 84.7243L823.821 82.0173L823.809 82.0046Z" fill="black"/>
<path d="M837.513 62.001C837.513 62.001 843.177 74.2527 841.386 81.2427C839.595 88.2328 833.246 87.2796 829.423 86.0214C825.613 84.7632 823.797 82.4755 823.797 82.4755C823.797 82.4755 820.292 83.7464 817.853 80.5183C815.415 77.2775 816.787 73.4647 818.793 72.5624C820.787 71.6473 823.225 73.058 823.225 73.058L821.27 69.4994C821.27 69.4994 828.788 51.0584 837.513 62.001Z" fill="#FFBB87"/>
<path d="M787.718 190.716L778.752 181.299L756.604 193.652L761.531 201.227L770.662 208.75L787.718 190.716Z" fill="#FFBB87"/>
<path d="M761.188 166.124C762.547 164.968 764.642 165.133 765.963 166.531C771.144 172.021 783.45 183.701 782.447 184.641C781.164 185.848 765.036 194.465 765.036 194.465C765.036 194.465 771.855 202.421 765.277 206.055C760.223 208.851 750.952 208.457 746.913 208.114C745.631 208.013 744.374 208.267 743.294 208.889C738.621 211.52 725.273 218.243 719.851 212.804C713.222 206.144 716.701 204.34 717.971 203.132C719.063 202.09 751.917 174.042 761.2 166.124H761.188Z" fill="#0002BB"/>
<path d="M839.34 67.0845C839.34 67.0845 839.289 67.0845 839.277 67.0845L836.851 66.7286C836.597 66.6905 836.419 66.4617 836.457 66.2075C836.495 65.9533 836.724 65.7881 836.978 65.8135L839.404 66.1694C839.658 66.2075 839.835 66.4363 839.797 66.6905C839.759 66.9192 839.569 67.0845 839.34 67.0845Z" fill="black"/>
<path d="M830.324 68.0885C830.121 68.0885 829.943 67.9614 829.879 67.7708C829.803 67.5293 829.943 67.2624 830.184 67.1861L833.346 66.1821C833.6 66.1059 833.854 66.2457 833.931 66.4871C834.007 66.7286 833.867 66.9955 833.626 67.0718L830.463 68.0758C830.463 68.0758 830.375 68.1012 830.324 68.1012V68.0885Z" fill="black"/>
<path d="M838.134 77.0229C838.134 77.0229 838.058 77.0229 838.007 77.0102C837.766 76.9467 837.614 76.6925 837.677 76.4383C838.769 72.4476 836.013 71.0242 835.899 70.9607C835.671 70.8463 835.582 70.5667 835.683 70.3379C835.798 70.1092 836.077 70.0075 836.306 70.1219C836.344 70.1346 839.862 71.9139 838.566 76.6671C838.515 76.8704 838.325 77.0102 838.122 77.0102L838.134 77.0229Z" fill="black"/>
<path d="M833.587 81.2803C833.397 81.2803 833.206 81.2549 833.003 81.204C831.441 80.7592 831.276 78.9672 831.263 78.891C831.251 78.7384 831.314 78.5986 831.428 78.497C831.543 78.3953 831.695 78.3699 831.848 78.408L835.518 79.3612C835.67 79.3993 835.784 79.5137 835.835 79.6535C835.886 79.806 835.861 79.9585 835.772 80.0856C835.734 80.1365 834.845 81.2803 833.587 81.2803ZM832.381 79.501C832.533 79.8314 832.8 80.1746 833.257 80.3144C833.714 80.4415 834.146 80.2635 834.464 80.0475L832.381 79.5137V79.501Z" fill="black"/>
<path d="M823.25 78.1539C823.187 78.1539 823.123 78.1412 823.06 78.1158L818.081 75.8535C817.853 75.7519 817.751 75.4723 817.853 75.2435C817.954 75.0147 818.234 74.9003 818.462 75.0147L823.441 77.277C823.669 77.3786 823.771 77.6582 823.669 77.887C823.593 78.0522 823.428 78.1539 823.25 78.1539Z" fill="black"/>
<path d="M818.818 79.3104C818.704 79.3104 818.577 79.2596 818.488 79.1706C818.31 78.9927 818.31 78.7004 818.488 78.5097L820.685 76.3364C820.863 76.1585 821.155 76.1585 821.345 76.3364C821.523 76.5144 821.523 76.8067 821.345 76.9973L819.148 79.1706C819.059 79.2596 818.945 79.3104 818.818 79.3104Z" fill="black"/>
<path d="M830.324 62.7255C830.324 62.7255 833.156 62.2934 836.128 64.0854C839.087 65.8773 839.697 67.6185 839.697 67.6185C839.697 67.6185 841.525 62.9924 837.512 58.9127C833.499 54.8331 826.324 53.4351 820.418 58.1375C815.287 62.2171 815.554 68.5209 815.554 68.5209L823.25 73.058C823.25 73.058 832.597 71.2533 830.337 62.7382L830.324 62.7255Z" fill="#0002BB"/>
<path d="M824.025 89.2741C824.025 89.2741 829.092 98.005 838.134 94.1034C847.176 90.2018 812.545 146.781 812.545 146.781L817.168 97.2552L824.013 89.2614L824.025 89.2741Z" fill="#1C34ED"/>
<path d="M760.54 206.233L789.698 185.963L796.899 197.477L794.778 248.528C794.778 248.528 783.044 246.101 760.553 206.233H760.54Z" fill="#E24E1B"/>
<path d="M819.275 248.693C819.135 248.693 818.996 248.63 818.907 248.503C818.754 248.299 818.792 248.007 818.996 247.855C819.097 247.778 829.435 239.886 834.946 219.781C840.47 199.586 837.08 168.679 837.042 168.361C837.016 168.158 837.13 167.967 837.308 167.891L848.649 162.744C848.877 162.642 849.157 162.744 849.258 162.972C849.36 163.201 849.258 163.481 849.03 163.582L837.994 168.59C838.35 172.021 841.093 200.794 835.835 220.022C830.235 240.458 819.656 248.515 819.542 248.604C819.465 248.668 819.364 248.693 819.262 248.693H819.275Z" fill="white"/>
<path d="M800.023 202.777C799.909 202.777 799.769 202.777 799.63 202.739C795.019 201.963 792.911 190.678 792.822 190.207C792.784 190.004 792.886 189.788 793.076 189.699C793.267 189.61 793.495 189.661 793.622 189.826C795.642 192.254 802.157 200.299 801.039 202.256C800.899 202.51 800.607 202.777 800.011 202.777H800.023ZM794.143 191.91C795.045 195.596 797.026 201.366 799.782 201.836C800.087 201.887 800.226 201.836 800.239 201.811C800.734 200.947 797.623 196.282 794.13 191.923L794.143 191.91Z" fill="white"/>
<path d="M803.299 170.547C803.058 170.547 802.855 170.357 802.842 170.115C802.817 169.861 803.007 169.632 803.274 169.619C803.604 169.594 811.402 168.857 813.612 158.029C813.662 157.774 813.916 157.622 814.158 157.673C814.412 157.724 814.577 157.965 814.513 158.219C812.164 169.759 803.426 170.547 803.337 170.547C803.337 170.547 803.312 170.547 803.299 170.547Z" fill="white"/>
<path d="M850.11 126.6C850.11 126.6 850.047 126.6 850.008 126.6C849.754 126.55 849.602 126.295 849.653 126.041C852.142 114.819 847.507 108.375 847.468 108.312C847.316 108.109 847.367 107.816 847.57 107.664C847.773 107.511 848.065 107.549 848.218 107.765C848.421 108.032 853.145 114.59 850.567 126.257C850.516 126.473 850.326 126.626 850.11 126.626V126.6Z" fill="#0002BB"/>
<path d="M833.486 95.5651C826.997 95.5651 823.669 89.5664 823.619 89.4901C823.492 89.2614 823.581 88.9818 823.809 88.8674C824.038 88.7403 824.317 88.8293 824.431 89.058C824.622 89.4012 829.067 97.3698 837.957 93.6842C838.185 93.5825 838.465 93.6969 838.566 93.9383C838.668 94.1798 838.554 94.4467 838.312 94.5484C836.547 95.2855 834.934 95.5778 833.486 95.5778V95.5651Z" fill="#0002BB"/>
<path d="M833.016 73.1848C832.8 73.1848 832.61 73.0322 832.559 72.8162L832.089 70.6429C832.064 70.5031 832.089 70.3506 832.191 70.2489L833.131 69.1432C833.296 68.9526 833.588 68.9272 833.778 69.0924C833.969 69.2576 833.994 69.5499 833.829 69.7406L833.029 70.681L833.448 72.6383C833.499 72.8924 833.347 73.1339 833.093 73.1848C833.054 73.1848 833.029 73.1848 832.991 73.1848H833.016Z" fill="black"/>
<path d="M839.81 72.2825C839.594 72.2825 839.404 72.13 839.353 71.9139L838.883 69.7406C838.858 69.6008 838.883 69.4483 838.985 69.3467L839.925 68.241C840.09 68.0503 840.382 68.0249 840.572 68.1901C840.763 68.3553 840.788 68.6477 840.623 68.8383L839.823 69.7788L840.242 71.736C840.293 71.9902 840.14 72.2316 839.886 72.2825C839.848 72.2825 839.823 72.2825 839.785 72.2825H839.81Z" fill="black"/>
<path d="M799.782 99.0601C799.68 99.0601 799.578 99.0473 799.477 99.0092C797.14 98.3483 798.639 92.0446 799.159 90.1255C799.21 89.9222 799.375 89.7696 799.617 89.7824C799.832 89.7824 800.01 89.9349 800.061 90.1382C800.467 91.8667 801.687 97.6112 800.455 98.7932C800.277 98.9711 800.048 99.0601 799.794 99.0601H799.782ZM799.578 92.4004C799.02 95.26 798.931 97.9035 799.731 98.1196C800.201 97.9289 800.163 95.5777 799.578 92.4004Z" fill="#0002BB"/>
<path d="M860.891 44.5389L900.145 37.2694L939.399 30L926.064 67.6562L912.73 105.3L886.81 74.913L860.891 44.5389Z" fill="#E24E1B"/>
<path d="M891.763 83.5298C891.497 83.5298 891.293 83.3137 891.306 83.0595C891.369 79.3993 888.055 76.5652 888.017 76.527C887.826 76.3618 887.801 76.0695 887.966 75.8789C888.131 75.6882 888.423 75.6628 888.614 75.8153C888.766 75.9424 892.309 78.9672 892.233 83.0723C892.233 83.3264 892.017 83.5298 891.776 83.5298H891.763Z" fill="black"/>
<path d="M888.31 76.1842C888.31 76.1842 889.542 63.4623 886.329 64.1105C883.116 64.746 879.725 76.7943 880.461 78.5608C881.198 80.3274 885.427 80.6197 885.427 80.6197L888.31 76.1969V76.1842Z" fill="#FFBB87"/>
<path d="M714.67 107.117C713.972 108.337 707.152 116.967 695.862 118.39C684.572 119.814 684.8 106.228 684.8 106.228L701.208 96.2765L714.683 107.117H714.67Z" fill="#FFBB87"/>
<path d="M738.773 126.841C763.398 126.841 783.361 106.864 783.361 82.2206C783.361 57.5773 763.398 37.5999 738.773 37.5999C714.147 37.5999 694.185 57.5773 694.185 82.2206C694.185 106.864 714.147 126.841 738.773 126.841Z" fill="#07CBF5"/>
<path d="M685.739 99.6827C685.739 99.6827 694.807 89.9729 699.163 89.9347C703.519 89.8966 709.602 92.5655 711.126 97.1154C712.663 101.678 703.036 98.2592 703.036 98.2592C703.036 98.2592 696.28 108.134 690.222 108.058C684.164 107.982 685.739 99.67 685.739 99.67V99.6827Z" fill="#FFBB87"/>
<path d="M693.079 124.503C693.079 124.503 648.377 139.092 629.976 119.75C611.574 100.42 625.239 86.3254 625.239 86.3254C625.239 86.3254 652.619 93.5186 658.664 93.8618L684.52 95.8825L693.079 124.49V124.503Z" fill="#E24E1B"/>
<path d="M571.037 225.945C571.037 226.618 570.491 227.165 569.818 227.165C569.145 227.165 568.599 226.618 568.599 225.945C568.599 225.271 569.145 224.725 569.818 224.725C570.491 224.725 571.037 225.271 571.037 225.945Z" fill="white"/>
<path d="M557.628 244.106L536.8 243.191L537.727 220.391L555.926 219.73L557.628 244.106Z" fill="#FD842B"/>
<path d="M648.822 153.873C648.822 153.873 663.49 190.97 663.198 224.47C662.893 257.971 652.759 294.229 652.759 294.229L608.247 295.068C608.247 295.068 615.727 259.496 616.362 251.299C616.997 243.114 618.673 191.25 618.673 191.25L619.156 156.008L648.835 153.86L648.822 153.873Z" fill="#1C34ED"/>
<path d="M592.614 153.873C592.614 153.873 593.833 171.983 590.81 185.302C587.801 198.557 578.136 210.287 568.167 213.553C558.198 216.82 548.483 215.574 548.483 215.574L547.2 254.285C547.2 254.285 580.867 263.321 604.513 248.503C628.16 233.684 626.636 202.814 626.636 202.814L628.388 153.034L592.601 153.873H592.614Z" fill="#1C34ED"/>
<path d="M610.368 84.254C627.588 82.6273 641.888 94.3702 644.225 111.031L645.609 120.944C645.609 120.944 650.13 153.86 649.381 155.131C648.631 156.402 632.998 159.681 617.886 158.956C602.774 158.232 593.223 155.678 592.474 155.131C591.725 154.585 593.973 86.9228 593.973 86.3764C593.973 86.1095 601.123 85.1182 610.355 84.254H610.368Z" fill="#E24E1B"/>
<path d="M617.53 235.68C617.429 235.68 617.327 235.641 617.238 235.578C617.035 235.425 616.997 235.133 617.162 234.93C638.484 207.923 628.452 168.208 628.35 167.802C628.312 167.675 628.35 167.535 628.414 167.42C628.49 167.306 628.617 167.243 628.744 167.23L642.256 165.921C642.51 165.895 642.739 166.086 642.764 166.34C642.79 166.594 642.599 166.823 642.345 166.849L629.366 168.107C630.484 172.949 638.142 209.843 617.886 235.514C617.797 235.629 617.657 235.692 617.518 235.692L617.53 235.68Z" fill="#0002BB"/>
<path d="M596.652 167.904C596.487 167.904 596.335 167.904 596.17 167.904C595.916 167.904 595.712 167.688 595.725 167.421C595.725 167.166 595.941 166.976 596.182 166.976C604.171 167.179 604.92 161.435 604.945 161.18C604.971 160.926 605.199 160.748 605.453 160.774C605.707 160.799 605.885 161.028 605.86 161.282C605.86 161.346 605.06 167.904 596.64 167.904H596.652Z" fill="#0002BB"/>
<path d="M589.3 211.253C588.792 211.253 588.309 211.088 587.852 210.758C585.109 208.788 584.08 201.175 584.042 200.857C584.017 200.654 584.118 200.463 584.296 200.374C584.474 200.285 584.69 200.324 584.829 200.463C585.985 201.658 591.751 207.771 590.989 210.211C590.874 210.58 590.57 211.05 589.77 211.203C589.617 211.228 589.465 211.253 589.312 211.253H589.3ZM585.198 202.23C585.693 204.81 586.76 208.826 588.385 210.008C588.766 210.288 589.16 210.389 589.579 210.3C590.011 210.211 590.074 210.021 590.1 209.944C590.506 208.661 587.623 204.912 585.198 202.23Z" fill="#0002BB"/>
<path d="M516.341 214.786C514.855 215.498 515.477 225.424 515.185 226.25C514.893 227.088 520.443 229.91 519.465 231.46C518.5 233.011 515.68 234.79 514.283 237.065C512.975 239.2 510.6 275.585 511.058 282.689C511.096 283.274 511.642 283.719 512.277 283.655C513.851 283.503 516.912 283.109 519.998 282.143C522.779 281.266 525.611 279.932 527.402 277.873C532.101 272.548 534.628 260.843 537.79 256.763C540.952 252.659 548.191 248.35 547.073 245.694C545.943 243.038 540.279 237.777 541.625 230.863C542.971 223.949 544.914 220.848 543.327 218.84C542.336 217.582 532.405 216.019 524.875 215.218C520.455 214.735 516.861 214.519 516.315 214.786H516.341Z" fill="#FFB700"/>
<path d="M614.775 62.2174C614.775 62.2174 623.474 62.6368 623.969 54.2741C624.49 45.3777 616.273 44.5262 612.781 48.1229C609.288 51.7196 609.936 55.3798 609.936 55.3798C609.936 55.3798 607.498 53.1812 604.843 55.8755C602.9 57.8581 603.903 61.0863 603.903 61.0863C603.903 61.0863 599.42 60.9083 599.827 64.8355C600.246 68.7626 603.053 70.7452 603.053 70.7452L614.775 62.2047V62.2174Z" fill="#0002BB"/>
<path d="M606.812 77.5945L607.713 86.8468C607.713 86.8468 609.644 89.3505 615.092 89.2488C619.156 89.1853 620.477 88.1304 620.477 88.1304L619.461 83.4916L618.457 78.9798L608.475 77.7851L606.799 77.5818L606.812 77.5945Z" fill="#FFBB87"/>
<path d="M608.488 77.7979C608.539 78.052 608.666 78.3316 608.844 78.6621C611.371 83.0849 617.124 83.5297 619.474 83.5043L618.47 78.9925L608.488 77.7979Z" fill="black"/>
<path d="M618.471 57.6926C618.471 57.6926 624.465 68.8258 623.17 75.46C621.887 82.0942 615.893 81.5604 612.261 80.5945C608.628 79.6286 606.812 77.5952 606.812 77.5952C606.812 77.5952 603.599 78.9805 601.148 76.0955C598.684 73.2105 599.764 69.563 601.58 68.6098C603.396 67.6439 605.746 68.8258 605.746 68.8258L603.714 65.6104C603.714 65.6104 609.708 47.9574 618.471 57.6926Z" fill="#FFBB87"/>
<path d="M605.859 73.9473C605.783 73.9473 605.707 73.9219 605.631 73.8837L601.173 71.2911C600.957 71.164 600.881 70.8844 601.008 70.6556C601.135 70.4395 601.427 70.3633 601.643 70.4904L606.101 73.0831C606.316 73.2101 606.393 73.4897 606.266 73.7185C606.177 73.871 606.024 73.9473 605.859 73.9473Z" fill="black"/>
<path d="M602.05 74.2649C601.86 74.2649 601.682 74.1505 601.618 73.9599C601.529 73.7184 601.656 73.4515 601.898 73.3626L604.577 72.384C604.819 72.295 605.085 72.4221 605.174 72.6636C605.263 72.905 605.136 73.1719 604.895 73.2609L602.215 74.2395C602.215 74.2395 602.114 74.2649 602.063 74.2649H602.05Z" fill="black"/>
<path d="M611.168 63.4243C611.079 63.4243 611.003 63.3989 610.926 63.3481C610.71 63.2083 610.647 62.9287 610.774 62.7126C611.904 60.9079 613.657 61.0477 614.432 61.3782C614.673 61.4798 614.774 61.7467 614.673 61.9882C614.571 62.2297 614.305 62.3313 614.063 62.2424C613.911 62.1788 612.514 61.6705 611.549 63.221C611.46 63.3608 611.307 63.437 611.155 63.437L611.168 63.4243Z" fill="black"/>
<path d="M620.095 62.1153C620.007 62.1153 619.918 62.0899 619.841 62.039C618.826 61.3527 617.898 62.0263 617.886 62.039C617.683 62.1915 617.39 62.1407 617.238 61.9373C617.086 61.734 617.136 61.4417 617.34 61.2892C617.403 61.2511 618.813 60.2343 620.349 61.2892C620.565 61.429 620.616 61.7213 620.476 61.9373C620.388 62.0771 620.235 62.1407 620.095 62.1407V62.1153Z" fill="black"/>
<path d="M618.851 72.651C618.851 72.651 618.787 72.651 618.762 72.651C618.508 72.6001 618.343 72.3587 618.394 72.1045C619.054 68.6984 617.136 66.5251 617.048 66.4362C616.882 66.2455 616.895 65.9532 617.086 65.7753C617.276 65.6101 617.568 65.6228 617.733 65.8007C617.822 65.9024 620.045 68.3934 619.295 72.2697C619.257 72.4857 619.054 72.6383 618.838 72.6383L618.851 72.651Z" fill="black"/>
<path d="M620.489 66.5634C620.299 66.5634 620.121 66.449 620.058 66.2711L619.27 64.1995C619.181 63.958 619.296 63.6911 619.537 63.6021C619.778 63.5132 620.045 63.6275 620.134 63.869L620.921 65.9406C621.01 66.1821 620.896 66.449 620.655 66.5379C620.604 66.5634 620.54 66.5634 620.489 66.5634Z" fill="black"/>
<path d="M614.648 67.2496C614.457 67.2496 614.279 67.1352 614.216 66.9573L613.428 64.8857C613.34 64.6442 613.454 64.3773 613.695 64.2883C613.936 64.1994 614.203 64.3138 614.292 64.5552L615.079 66.6268C615.168 66.8683 615.054 67.1352 614.813 67.2242C614.762 67.2496 614.698 67.2496 614.648 67.2496Z" fill="black"/>
<path d="M619.703 60.2091C619.703 60.2091 618.522 58.4426 616.21 58.6586C613.899 58.8747 612.718 60.6286 612.718 60.6286C612.718 60.6286 614.115 64.4159 611.169 66.7925C608.222 69.1691 605.746 68.826 605.746 68.826L603.396 68.2413L601.402 65.0768L607.295 57.3369L615.372 51.999L620.097 55.5195L619.703 60.2219V60.2091Z" fill="#0002BB"/>
<path d="M616.934 75.0274C616.121 75.0274 614.724 74.7986 613.86 73.3371C613.733 73.121 613.797 72.8287 614.025 72.7016C614.241 72.5745 614.533 72.6381 614.66 72.8668C615.562 74.3919 617.315 74.0869 617.391 74.0742C617.645 74.0234 617.886 74.1886 617.937 74.4428C617.988 74.6969 617.823 74.9384 617.569 74.9893C617.543 74.9893 617.302 75.0401 616.946 75.0401L616.934 75.0274Z" fill="black"/>
<path d="M622.89 70.9099C620.883 70.9099 619.245 69.0544 619.245 66.7922C619.245 64.5299 620.883 62.6744 622.89 62.6744C624.897 62.6744 626.535 64.5299 626.535 66.7922C626.535 69.0544 624.897 70.9099 622.89 70.9099ZM622.89 63.5894C621.391 63.5894 620.172 65.0256 620.172 66.7794C620.172 68.5333 621.391 69.9694 622.89 69.9694C624.389 69.9694 625.608 68.5333 625.608 66.7794C625.608 65.0256 624.389 63.5894 622.89 63.5894Z" fill="#07CBF5"/>
<path d="M613.974 71.8123C611.701 71.8123 609.859 69.9567 609.859 67.6945C609.859 65.4323 611.714 63.5767 613.974 63.5767C616.235 63.5767 618.089 65.4323 618.089 67.6945C618.089 69.9567 616.235 71.8123 613.974 71.8123ZM613.974 64.4918C612.209 64.4918 610.786 65.9279 610.786 67.6818C610.786 69.4356 612.222 70.8718 613.974 70.8718C615.727 70.8718 617.162 69.4356 617.162 67.6818C617.162 65.9279 615.727 64.4918 613.974 64.4918Z" fill="#07CBF5"/>
<path d="M619.702 67.2496H617.467C617.213 67.2496 617.01 67.0462 617.01 66.7921C617.01 66.5379 617.213 66.3345 617.467 66.3345H619.702C619.956 66.3345 620.159 66.5379 620.159 66.7921C620.159 67.0462 619.956 67.2496 619.702 67.2496Z" fill="#07CBF5"/>
<path d="M603.383 68.6984C603.205 68.6984 603.028 68.5841 602.951 68.4061C602.85 68.1646 602.977 67.8978 603.205 67.8088C605.936 66.7158 610.19 67.2242 610.368 67.2369C610.622 67.2623 610.8 67.5038 610.775 67.758C610.749 68.0121 610.508 68.1901 610.254 68.1646C610.216 68.1646 606.05 67.669 603.548 68.673C603.498 68.6984 603.434 68.7111 603.371 68.7111L603.383 68.6984Z" fill="#07CBF5"/>
<path d="M656.022 104.614C655.933 104.614 655.844 104.614 655.756 104.601C654.994 104.499 654.638 104.067 654.473 103.711C653.355 101.297 657.762 94.3829 658.257 93.6076C658.372 93.4424 658.575 93.3662 658.765 93.417C658.956 93.4678 659.096 93.6331 659.108 93.8364C659.159 94.6625 659.578 101.996 657.407 104.055C657.013 104.436 656.53 104.626 656.022 104.626V104.614ZM658.245 95.3869C656.568 98.2084 654.727 102.047 655.311 103.317C655.375 103.457 655.502 103.635 655.87 103.673C656.213 103.711 656.505 103.622 656.772 103.368C658.067 102.148 658.283 98.0177 658.245 95.3869Z" fill="white"/>
<path d="M692.293 108.147C691.264 108.147 690.159 107.918 689.016 107.346C688.788 107.232 688.699 106.952 688.8 106.723C688.915 106.495 689.194 106.406 689.423 106.507C694.909 109.214 699.291 103.114 699.341 103.05C699.494 102.847 699.773 102.796 699.989 102.936C700.192 103.089 700.243 103.368 700.103 103.584C700.065 103.635 696.839 108.134 692.293 108.134V108.147Z" fill="black"/>
<path d="M608.654 94.3323C608.59 94.3323 608.514 94.3323 608.451 94.3323C607.917 94.2941 607.46 94.0273 607.155 93.5824C605.911 91.7904 607.13 87.2406 607.269 86.7322C607.308 86.5797 607.422 86.4653 607.562 86.4145C607.701 86.3636 607.866 86.389 607.993 86.478C608.044 86.5161 613.48 90.4051 620.325 87.7108C620.439 87.66 620.566 87.6727 620.681 87.7108C620.795 87.7616 620.884 87.8506 620.922 87.965C621.443 89.3249 622.484 92.5657 621.049 93.1757C619.842 93.6841 616.744 91.2694 615.143 89.9095C614.165 91.0279 611.079 94.3323 608.654 94.3323ZM608.006 87.5964C607.638 89.1596 607.181 91.9938 607.904 93.0486C608.057 93.2647 608.247 93.3791 608.514 93.4045C610.267 93.5443 612.87 91.066 614.216 89.5663C611.232 89.3249 608.997 88.1937 607.993 87.5964H608.006ZM616.197 89.579C618.255 91.2694 620.249 92.5149 620.693 92.3369C621.023 92.1971 620.871 90.6085 620.223 88.7402C618.814 89.2486 617.455 89.5028 616.21 89.579H616.197Z" fill="white"/>
<path d="M701.366 131.572L636.263 103.405L608.117 168.556L673.22 196.722L701.366 131.572Z" fill="#0002BB"/>
<path d="M622.356 122.266C624.248 122.533 627.868 125.672 627.868 125.672C627.868 125.672 634.637 127.121 634.993 129.193C635.348 131.264 632.072 133.272 632.072 133.272C632.072 133.272 633.697 137.555 633.278 139.131C632.859 140.707 631.767 148.256 627.741 149.858C623.715 151.446 607.231 143.745 607.231 143.745L606.735 126.93C606.735 126.93 620.477 121.999 622.369 122.266H622.356Z" fill="#FFBB87"/>
<path d="M627.868 126.13H619.702C619.448 126.13 619.245 125.926 619.245 125.672C619.245 125.418 619.448 125.214 619.702 125.214H627.868C628.122 125.214 628.326 125.418 628.326 125.672C628.326 125.926 628.122 126.13 627.868 126.13Z" fill="black"/>
<path d="M593.985 86.3763C593.985 86.3763 556.737 96.8611 557.487 126.498C558.236 156.135 608.59 151.255 608.59 151.255V123.867L593.985 86.3763Z" fill="#E24E1B"/>
<path d="M608.044 123.232C608.044 123.232 607.968 123.232 607.917 123.219C607.752 123.181 591.573 118.797 577.908 117.005C577.654 116.966 577.476 116.738 577.514 116.483C577.552 116.229 577.781 116.051 578.035 116.089C591.763 117.894 608.006 122.292 608.171 122.33C608.413 122.393 608.565 122.647 608.502 122.902C608.451 123.105 608.26 123.245 608.057 123.245L608.044 123.232Z" fill="white"/>
<path d="M589.667 118.987C589.667 118.987 589.579 118.987 589.528 118.962C588.512 118.644 579.584 115.772 578.898 113.014C578.809 112.633 578.809 112.048 579.368 111.489C579.825 111.031 580.409 110.815 581.095 110.866C584.499 111.095 589.794 117.945 590.023 118.238C590.15 118.403 590.15 118.619 590.023 118.784C589.934 118.911 589.794 118.987 589.642 118.987H589.667ZM580.93 111.781C580.562 111.781 580.27 111.896 580.028 112.137C579.749 112.417 579.762 112.633 579.8 112.785C580.168 114.26 584.727 116.318 588.309 117.577C586.404 115.327 583.102 111.921 581.044 111.781C581.006 111.781 580.968 111.781 580.93 111.781Z" fill="white"/>
<path d="M608.044 151.471H591.826C591.572 151.471 591.369 151.268 591.369 151.001C591.369 150.734 591.572 150.543 591.826 150.543H608.044C608.298 150.543 608.501 150.746 608.501 151.001C608.501 151.255 608.298 151.471 608.044 151.471Z" fill="white"/>
<path d="M776.986 53.9816C776.986 53.9816 764.781 53.6003 767.601 56.892C770.42 60.1836 777.672 60.4124 777.672 60.4124C777.672 60.4124 781.685 55.8117 776.973 53.9816H776.986Z" fill="#FFBB87"/>
</g>
</svg>
