<svg width="75" height="28" viewBox="0 0 75 28" fill="none" xmlns="http://www.w3.org/2000/svg">
<rect x="0.5" y="0.5" width="74" height="27" rx="9.5" fill="black"/>
<path d="M10 19.8204V8H12.449V17.7959H17.5429V19.8204H10Z" fill="white"/>
<path d="M18.6531 17.3388C18.6612 15.3633 20.2449 14.7184 21.951 14.6122C22.5878 14.5714 23.7796 14.5143 24.1551 14.498V13.7796C24.1469 13.0367 23.6408 12.6122 22.7347 12.6041C21.9102 12.6122 21.3959 12.9796 21.2653 13.5837H18.9633C19.1102 12.049 20.449 10.8408 22.8 10.8408C24.7347 10.8408 26.5633 11.7061 26.5551 13.8449V19.8204H24.2694V18.5959H24.2041C23.7714 19.4122 22.9224 19.9918 21.6082 19.9837C19.9102 19.9918 18.6612 19.0939 18.6531 17.3388ZM20.9714 17.2735C20.9714 17.951 21.5184 18.3102 22.2939 18.3184C23.3959 18.3102 24.1633 17.5918 24.1551 16.6531V16.0082C23.7878 16.0245 22.751 16.0816 22.3429 16.1143C21.502 16.1878 20.9714 16.5878 20.9714 17.2735Z" fill="white"/>
<path d="M28.449 19.8204V8H30.8653V12.4408H30.9306C31.2653 11.7224 31.9673 10.8408 33.4612 10.8408C35.4204 10.8408 37.0612 12.3592 37.0694 15.3959C37.0612 18.3592 35.4857 19.9673 33.4612 19.9673C32.0163 19.9673 31.2816 19.1347 30.9306 18.4H30.8327V19.8204H28.449ZM30.8163 15.3796C30.8082 16.9796 31.502 18.0327 32.6939 18.0408C33.9265 18.0327 34.5959 16.9469 34.5878 15.3796C34.5959 13.8367 33.9429 12.7673 32.6939 12.7673C31.4939 12.7673 30.8082 13.7878 30.8163 15.3796Z" fill="white"/>
<path d="M43.6816 13.5837C43.5755 12.9633 43.0367 12.5633 42.2286 12.5551C41.4449 12.5633 40.849 12.9306 40.8571 13.4694C40.849 13.8694 41.1592 14.1796 42 14.351L43.5837 14.6776C45.3061 15.0367 46.1388 15.8041 46.1469 17.0776C46.1388 18.8245 44.5714 19.9918 42.2122 20C39.8204 19.9918 38.4163 18.9224 38.2122 17.1918H40.6449C40.7592 17.8857 41.3224 18.2449 42.2122 18.2531C43.0939 18.2449 43.6816 17.8939 43.6816 17.3224C43.6816 16.8653 43.3061 16.5796 42.4735 16.4082L41.0041 16.1143C39.3143 15.7796 38.449 14.9143 38.4571 13.6C38.449 11.902 39.9102 10.8408 42.1959 10.8408C44.4327 10.8408 45.8204 11.902 45.951 13.5837H43.6816Z" fill="white"/>
<path d="M65.5 15.7333V18.1786C65.5 18.7943 65.2554 19.3847 64.82 19.82C64.3846 20.2554 63.7943 20.5 63.1786 20.5H54.8214C54.2057 20.5 53.6153 20.2554 53.18 19.82C52.7446 19.3847 52.5 18.7943 52.5 18.1786V9.82144C52.5 9.20566 52.7446 8.61536 53.18 8.17999C53.6153 7.74462 54.2057 7.50001 54.8214 7.50001H57.2667C57.4325 7.50001 57.5858 7.58862 57.6689 7.73215C57.7519 7.87568 57.7516 8.05291 57.6689 8.19644C57.5861 8.33997 57.4327 8.42858 57.2667 8.42858H54.8214C54.4519 8.42858 54.0977 8.57529 53.8366 8.83662C53.5756 9.09795 53.4286 9.45213 53.4286 9.82144V18.1786C53.4286 18.5481 53.5753 18.9023 53.8366 19.1634C54.0979 19.4244 54.4521 19.5714 54.8214 19.5714H63.1786C63.5481 19.5714 63.9023 19.4247 64.1636 19.1634C64.4247 18.9021 64.5717 18.5479 64.5717 18.1786V15.7333C64.5717 15.5675 64.6603 15.4142 64.8038 15.3311C64.9474 15.2481 65.1246 15.2484 65.2681 15.3311C65.4116 15.4139 65.5 15.5673 65.5 15.7333ZM60.919 8.42858H63.9166L58.6702 13.6702C58.5824 13.7575 58.5328 13.8761 58.5328 14C58.5328 14.1239 58.5821 14.2425 58.6702 14.3298C58.7575 14.4176 58.8761 14.4672 59 14.4672C59.1239 14.4672 59.2425 14.4179 59.3298 14.3298L64.5714 9.08787V12.081C64.5714 12.2041 64.6202 12.3221 64.7073 12.4094C64.7943 12.4967 64.9123 12.5452 65.0357 12.5452C65.1591 12.5452 65.2769 12.4964 65.3642 12.4094C65.4514 12.3224 65.5 12.2043 65.5 12.081V7.96429C65.5008 7.84093 65.4522 7.72234 65.3655 7.63452C65.2777 7.54776 65.1591 7.49921 65.0357 7.50001H60.919C60.7532 7.50001 60.5999 7.58862 60.5168 7.73215C60.4338 7.87568 60.4341 8.05291 60.5168 8.19644C60.5996 8.33997 60.753 8.42858 60.919 8.42858Z" fill="white" stroke="white" stroke-width="0.2"/>
<rect x="0.5" y="0.5" width="74" height="27" rx="9.5" stroke="white"/>
</svg>
