<svg width="980" height="260" viewBox="0 0 980 260" fill="none" xmlns="http://www.w3.org/2000/svg">
<path d="M980 0H0V260H980V0Z" fill="black"/>
<mask id="mask0_1455_33701" style="mask-type:alpha" maskUnits="userSpaceOnUse" x="480" y="0" width="500" height="260">
<path d="M980 0H480V260H980V0Z" fill="black"/>
</mask>
<g mask="url(#mask0_1455_33701)">
<path d="M837.896 221.402H896.816C899.31 221.402 901.337 219.405 901.337 216.947V131.861C901.337 129.403 899.31 127.406 896.816 127.406H837.896C835.402 127.406 833.375 129.403 833.375 131.861V216.947C833.375 219.405 835.402 221.402 837.896 221.402ZM896.816 128.28C898.83 128.28 900.461 129.887 900.461 131.873V216.959C900.461 218.944 898.83 220.551 896.816 220.551H837.896C835.881 220.551 834.25 218.944 834.25 216.959V131.873C834.25 129.887 835.881 128.28 837.896 128.28H896.816Z" fill="white"/>
<path d="M904.588 227.877H845.68C843.422 227.877 841.591 226.073 841.591 223.848V138.773C841.591 136.548 843.422 134.744 845.68 134.744H904.588C906.846 134.744 908.677 136.548 908.677 138.773V223.848C908.677 226.073 906.846 227.877 904.588 227.877Z" fill="#0017BF"/>
<path d="M859.1 176.377C858.801 175.053 858.645 173.683 858.645 172.265C858.645 170.776 858.825 169.322 859.16 167.928L861.847 167.904L863.442 164.134L861.535 162.338C863.046 159.951 865.085 157.93 867.495 156.429L869.582 158.379L873.384 156.784L873.264 154.03C874.679 153.699 876.154 153.522 877.665 153.522C879.044 153.522 880.387 153.664 881.682 153.947V156.937L885.472 158.556L887.655 156.335C890.065 157.8 892.116 159.785 893.639 162.125L891.504 164.122L893.099 167.892L896.145 167.928C896.481 169.322 896.661 170.776 896.661 172.265C896.661 173.683 896.505 175.053 896.193 176.389L893.087 176.424L891.492 180.194L893.711 182.286C892.2 184.637 890.161 186.646 887.775 188.135L885.448 185.772L881.658 187.391V190.605C880.363 190.877 879.02 191.031 877.641 191.031C876.13 191.031 874.643 190.854 873.24 190.523L873.372 187.545L869.57 185.949L867.339 188.041C864.953 186.516 862.926 184.484 861.439 182.085L863.442 180.206L861.847 176.436L859.112 176.413L859.1 176.377ZM877.653 181.364C882.75 181.364 886.887 177.299 886.887 172.265C886.887 167.23 882.762 163.177 877.653 163.177C872.544 163.177 868.431 167.242 868.431 172.265C868.431 177.287 872.568 181.364 877.653 181.364Z" fill="white"/>
<path d="M855.562 203.416C855.166 202.719 854.843 201.963 854.615 201.171C854.363 200.332 854.219 199.481 854.171 198.642L855.682 198.181L855.946 195.794L854.567 195.097C855.022 193.501 855.838 192.024 856.941 190.783L858.452 191.551L860.335 190.027L859.807 188.491C860.551 188.077 861.355 187.734 862.206 187.486C862.986 187.262 863.765 187.12 864.545 187.073L865.048 188.762L867.459 189.058L868.322 187.439C869.929 187.876 871.428 188.656 872.687 189.731L871.824 191.209L873.359 193.076L875.086 192.591C875.506 193.324 875.854 194.116 876.105 194.967C876.345 195.77 876.489 196.574 876.537 197.377L874.786 197.897L874.522 200.284L876.129 201.1C875.674 202.683 874.858 204.149 873.755 205.378L872.04 204.421L870.169 205.957L870.709 207.777C870.025 208.143 869.282 208.45 868.514 208.675C867.651 208.923 866.787 209.065 865.936 209.112L865.504 207.41L863.081 207.127L862.17 208.675C860.563 208.202 859.076 207.387 857.829 206.276L858.644 204.893L857.109 203.026L855.562 203.463V203.416ZM866.895 203.203C869.773 202.364 871.428 199.386 870.577 196.55C869.725 193.714 866.703 192.083 863.825 192.922C860.947 193.761 859.292 196.739 860.143 199.575C860.995 202.412 864.017 204.042 866.895 203.203Z" fill="#5EF939"/>
<path d="M873.627 30H936.411C938.091 30 939.453 31.3421 939.453 32.9976V105.11C939.453 106.766 938.091 108.108 936.411 108.108H873.627C871.947 108.108 870.585 106.766 870.585 105.11V32.9976C870.585 31.3421 871.947 30 873.627 30Z" fill="#0017BF"/>
<path d="M900.943 43.8916H927.098V74.2385H900.943V43.8916Z" fill="#FFB904"/>
<path d="M882.941 65.6621H911.902V94.2012H882.941V65.6621Z" fill="#3DF130"/>
<path d="M914.519 56.7026L920.264 57.0725L915.792 60.4658C915.792 60.4658 912.43 59.6778 914.519 56.7026Z" fill="white"/>
<path d="M686.674 156.426C686.674 156.426 715.74 142.965 730.689 146.503C745.655 150.041 752.02 119.518 752.02 119.518C752.02 119.518 709.261 90.3455 674.646 141.212C649.611 177.992 684.765 154.062 684.765 154.062L686.674 156.426Z" fill="#FFBB87"/>
<path d="M728.617 203.16L671.709 331.107L705.688 365.634C705.688 365.634 722.824 351.708 739.943 304.942C757.08 258.16 750.976 212.777 750.976 212.777L728.617 203.16Z" fill="#3DF130"/>
<path d="M775.211 80.4057C775.211 80.4057 751.4 67.8779 759.364 59.6119C767.328 51.3458 778.018 70.451 778.018 70.451L775.194 80.4057H775.211Z" fill="#0017BF"/>
<path d="M793.75 63.7123C793.75 63.7123 779.241 56.9419 771.734 67.6202C764.455 77.993 773.562 88.0763 773.562 88.0763L790.747 73.8278L793.75 63.7123Z" fill="#0017BF"/>
<path d="M778.883 94.1899L778.785 106.203C778.785 106.203 780.956 109.677 788.071 110.304C793.375 110.77 795.252 109.612 795.252 109.612L794.567 103.517L793.881 97.5832L781.037 94.6885L778.883 94.206V94.1899Z" fill="#FFBB87"/>
<path d="M781.037 94.6858C781.07 95.0074 781.184 95.4095 781.38 95.8437C784.056 101.858 791.498 103.225 794.566 103.515L793.881 97.5805L781.037 94.6858Z" fill="black"/>
<path d="M795.202 69.2604C795.202 69.2604 802.84 84.313 800.833 93.0776C798.825 101.842 790.763 100.909 785.884 99.4782C781.004 98.0469 778.637 95.2808 778.637 95.2808C778.637 95.2808 774.247 97.0016 771.049 93.0615C767.85 89.1215 769.433 84.3291 771.93 83.1069C774.427 81.9007 777.56 83.5572 777.56 83.5572L774.949 79.199C774.949 79.199 783.762 55.9447 795.202 69.2604Z" fill="#FFBB87"/>
<path d="M798.026 89.3139C798.336 89.3139 798.597 89.0726 798.613 88.7671C798.989 83.444 796.655 80.8548 796.557 80.7583C796.329 80.5171 795.953 80.501 795.725 80.7262C795.48 80.9352 795.464 81.3212 795.676 81.5463C795.692 81.5624 797.781 83.9104 797.422 88.6867C797.406 89.0083 797.651 89.2978 797.977 89.3139C797.977 89.3139 798.01 89.3139 798.026 89.3139Z" fill="black"/>
<path d="M777.756 89.9111C777.985 89.9111 778.213 89.7824 778.311 89.5573C778.442 89.2517 778.311 88.914 777.985 88.7854L771.587 86.1479C771.277 86.0193 770.935 86.1479 770.804 86.4696C770.674 86.7751 770.804 87.1128 771.13 87.2415L777.528 89.8789C777.528 89.8789 777.675 89.9272 777.756 89.9272V89.9111Z" fill="black"/>
<path d="M772.176 91.5186C772.339 91.5186 772.486 91.4543 772.6 91.3417L775.293 88.5596C775.521 88.3183 775.505 87.9484 775.276 87.7233C775.032 87.4981 774.656 87.5142 774.428 87.7394L771.735 90.5215C771.506 90.7628 771.523 91.1326 771.751 91.3578C771.865 91.4704 772.012 91.5186 772.159 91.5186H772.176Z" fill="black"/>
<path d="M794.388 94.045C796.069 94.045 796.836 92.8227 796.999 92.1795C797.048 92.0187 796.999 91.8418 796.917 91.7131C796.82 91.5684 796.673 91.4879 796.509 91.4558C796.493 91.4558 794.388 91.1181 793.262 89.5742C793.115 89.3651 792.854 89.2847 792.609 89.3651C792.364 89.4456 792.201 89.6546 792.185 89.9119C792.185 90.1692 792.152 92.5172 793.18 93.5464C793.507 93.8841 793.931 94.061 794.388 94.061H794.404L794.388 94.045ZM795.53 92.4207C795.318 92.6619 794.91 92.9192 794.371 92.871C794.241 92.871 794.127 92.8227 794.012 92.7102C793.751 92.4368 793.588 91.9382 793.49 91.4236C794.208 91.9382 794.975 92.2438 795.53 92.4046V92.4207Z" fill="black"/>
<path d="M791.906 83.3012C791.906 83.3012 792.036 83.3012 792.085 83.269C792.395 83.1725 792.575 82.8348 792.46 82.5293L791.644 80.0687L792.297 78.8144C792.444 78.5249 792.33 78.1711 792.036 78.0264C791.742 77.8816 791.383 77.9942 791.236 78.2837L790.469 79.7471C790.404 79.8919 790.388 80.0527 790.437 80.1974L791.318 82.8831C791.4 83.1243 791.628 83.2851 791.889 83.2851L791.906 83.3012Z" fill="black"/>
<path d="M799.675 82.53C799.675 82.53 799.806 82.53 799.855 82.4978C800.165 82.4013 800.344 82.0636 800.23 81.758L799.414 79.2975L800.067 78.0431C800.214 77.7537 800.099 77.3999 799.806 77.2551C799.512 77.1104 799.153 77.223 799.006 77.5124L798.239 78.9759C798.174 79.1206 798.157 79.2814 798.206 79.4262L799.088 82.1118C799.169 82.3531 799.398 82.5139 799.659 82.5139L799.675 82.53Z" fill="black"/>
<path d="M797.683 75.5333C797.977 75.5333 798.238 75.3081 798.27 75.0186C798.303 74.697 798.074 74.4075 797.748 74.3754L795.986 74.1663C795.659 74.1181 795.365 74.3593 795.316 74.6809C795.284 75.0026 795.512 75.292 795.839 75.3242L797.601 75.5333C797.601 75.5333 797.65 75.5333 797.666 75.5333H797.683Z" fill="black"/>
<path d="M870.601 90.265C870.601 90.265 855.13 111.236 840.278 115.192C825.427 119.148 834.664 148.948 834.664 148.948C834.664 148.948 886.366 154.383 892.062 93.3848C896.174 49.2724 875.089 90.2489 875.089 90.2489H870.617L870.601 90.265Z" fill="#FFBB87"/>
<path d="M788.854 77.0305C788.936 77.0305 789.017 77.0144 789.099 76.9822L792.608 75.4062C792.902 75.2775 793.032 74.9237 792.902 74.6343C792.771 74.3448 792.412 74.2161 792.118 74.3448L788.609 75.9208C788.316 76.0495 788.185 76.4033 788.316 76.6927C788.414 76.9018 788.626 77.0305 788.854 77.0305Z" fill="black"/>
<path d="M737.331 164.499C737.331 164.499 725.124 203.32 726.005 206.939C726.87 210.557 735.291 230.611 735.879 232.284C736.466 233.956 720.783 369.832 720.783 369.832L771.783 382.359C771.783 382.359 806.006 237.365 801.844 195.328C797.683 153.29 737.331 164.515 737.331 164.515V164.499Z" fill="#3DF130"/>
<path d="M858.198 79.4599L856.917 75.6936L914.511 56.6711L915.792 60.4374L858.198 79.4599Z" fill="white"/>
<path d="M779.012 86.2277C779.012 86.2277 785.181 84.2979 789.963 77.2862C794.745 70.2906 794.565 68.5538 794.565 68.5538L797.829 75.2921C797.829 75.2921 799.869 69.776 797.911 66.4471C795.936 63.1181 793.766 63.7131 793.766 63.7131L779.257 66.7848L773.937 78.0903L779.029 86.2277H779.012Z" fill="#0017BF"/>
<path d="M850.282 108.66C850.282 108.66 823.256 111.603 815.292 109.641C807.328 107.679 787.091 105.299 772.174 104.463C757.258 103.627 734.655 104.608 724.406 106.28C714.173 107.969 709.75 109.223 709.75 109.223C709.75 109.223 710.599 125.192 712.884 135.71C715.152 146.228 715.593 148.189 715.593 148.189L737.919 146.501L729.987 179.887C729.987 179.887 741.183 187.14 766.365 193.444C791.53 199.748 805.108 194.843 805.108 194.843L813.154 155.748C813.154 155.748 832.069 155.475 841.6 153.368C851.131 151.261 852.551 150.988 852.551 150.988L850.282 108.66Z" fill="#E64218"/>
<path d="M872.053 93.4012C872.053 93.4012 866.292 81.4363 866.635 78.7024C866.978 75.9685 873.016 74.0708 873.016 74.0708C873.016 74.0708 874.257 63.0387 876.59 62.2024C878.924 61.3662 880.164 64.7433 880.164 64.7433C880.164 64.7433 881.535 57.8442 884.424 58.6644C887.313 59.4685 887.851 63.6176 887.851 63.6176C887.851 63.6176 888.406 58.1659 891.833 59.5007C895.26 60.8355 898.263 74.1351 896.615 85.5372C894.967 96.9392 884.701 101.474 884.701 101.474L872.07 93.4333L872.053 93.4012Z" fill="#FFBB87"/>
<path d="M872.201 82.3363C872.495 82.3363 872.756 82.1112 872.788 81.8056L873.604 74.1185C873.637 73.7969 873.408 73.5074 873.066 73.4752C872.739 73.4431 872.446 73.6682 872.413 73.9898L871.597 81.677C871.564 81.9986 871.793 82.2881 872.136 82.3202C872.152 82.3202 872.184 82.3202 872.201 82.3202V82.3363Z" fill="black"/>
<path d="M688.927 152.293C688.927 152.293 688.16 162.666 686.528 166.332C684.912 169.999 681.974 174.309 679.706 173.682C677.454 173.055 681.028 163.309 681.028 163.309C681.028 163.309 674.484 167.378 669.604 171.559C664.724 175.724 663.076 179.117 660.595 179.053C658.114 178.989 658.539 174.341 658.539 174.341C658.539 174.341 656.548 176.946 654.557 176.03C652.549 175.113 654.051 170.096 654.051 170.096C654.051 170.096 650.558 171.205 650.265 167.699C649.971 164.194 658.702 153.435 666.519 148.176C674.337 142.917 681.844 143.786 681.844 143.786L688.894 152.309L688.927 152.293Z" fill="#FFBB87"/>
<path d="M676.343 163.678C676.555 163.678 676.767 163.565 676.865 163.356C677.012 163.067 676.898 162.713 676.621 162.568L663.238 155.669C662.944 155.525 662.585 155.621 662.438 155.911C662.292 156.2 662.406 156.554 662.683 156.699L676.066 163.598C676.147 163.646 676.245 163.662 676.343 163.662V163.678Z" fill="black"/>
<path d="M654.082 170.656C654.278 170.656 654.474 170.56 654.588 170.383C654.637 170.302 659.713 162.358 664.543 157.163C664.772 156.922 664.756 156.552 664.511 156.327C664.266 156.102 663.891 156.118 663.678 156.359C658.766 161.634 653.642 169.659 653.593 169.739C653.413 170.013 653.495 170.383 653.772 170.544C653.87 170.608 653.984 170.64 654.082 170.64V170.656Z" fill="black"/>
<path d="M658.571 174.905C658.75 174.905 658.93 174.825 659.044 174.68L670.174 160.609C670.37 160.351 670.321 159.981 670.076 159.788C669.815 159.595 669.44 159.628 669.244 159.885L658.114 173.956C657.918 174.214 657.967 174.584 658.211 174.777C658.326 174.857 658.456 174.905 658.571 174.905Z" fill="black"/>
<path d="M676.637 159.047C676.637 159.047 676.702 159.047 676.734 159.047C677.061 158.999 677.273 158.693 677.224 158.372C676.245 152.775 682.479 148.079 682.544 148.031C682.806 147.838 682.854 147.468 682.659 147.211C682.463 146.953 682.087 146.905 681.826 147.098C681.549 147.307 674.939 152.277 676.049 158.565C676.098 158.854 676.343 159.047 676.637 159.047Z" fill="black"/>
<path d="M724.179 340.739C724.473 340.739 724.734 340.513 724.767 340.224C726.137 328.597 738.214 226.638 737.921 224.676C737.627 222.682 728.667 210.315 726.872 207.854C726.676 207.597 726.301 207.533 726.04 207.726C725.778 207.919 725.713 208.273 725.909 208.546C729.989 214.158 736.55 223.534 736.745 224.853C736.892 227.024 728.21 301.193 723.592 340.095C723.559 340.417 723.787 340.706 724.114 340.739C724.13 340.739 724.163 340.739 724.179 340.739Z" fill="#0017BF"/>
<path d="M785.525 225.899C785.525 225.899 785.623 225.899 785.672 225.883C796.476 223.294 796.003 211.763 796.003 211.635C795.986 211.313 795.742 211.088 795.383 211.072C795.056 211.072 794.795 211.361 794.811 211.683C794.828 212.117 795.236 222.361 785.395 224.725C785.068 224.806 784.873 225.127 784.954 225.433C785.019 225.706 785.264 225.883 785.525 225.883V225.899Z" fill="#0017BF"/>
<path d="M813.171 156.344C813.399 156.344 813.611 156.215 813.709 156.006L817.414 148.271C817.561 147.981 817.414 147.627 817.136 147.483C816.843 147.354 816.484 147.483 816.337 147.756L812.632 155.491C812.485 155.781 812.632 156.135 812.909 156.279C812.991 156.311 813.073 156.328 813.171 156.328V156.344Z" fill="white"/>
<path d="M737.935 147.098C738.262 147.098 738.539 146.841 738.539 146.519V139.057C738.539 138.736 738.278 138.479 737.935 138.479C737.592 138.479 737.331 138.736 737.331 139.057V146.519C737.331 146.841 737.592 147.098 737.935 147.098Z" fill="white"/>
</g>
</svg>
