<svg width="385" height="400" viewBox="0 0 385 400" fill="none" xmlns="http://www.w3.org/2000/svg">
<path d="M385 0H0V400H385V0Z" fill="black"/>
<mask id="mask0_1455_34253" style="mask-type:alpha" maskUnits="userSpaceOnUse" x="0" y="220" width="385" height="180">
<path d="M385 220H0V400H385V220Z" fill="black"/>
</mask>
<g mask="url(#mask0_1455_34253)">
<path d="M81.1535 257.694V320.618C81.1535 322.528 82.7598 324.09 84.7391 324.09H198.865C200.834 324.09 202.44 322.528 202.44 320.618V257.694C202.44 255.785 200.834 254.222 198.865 254.222H84.7391C82.7598 254.222 81.1535 255.785 81.1535 257.694Z" fill="#40398D"/>
<path d="M81.1535 258.368V262.759H202.44V258.368C202.44 256.081 200.834 254.222 198.865 254.222H84.7391C82.7598 254.222 81.1535 256.081 81.1535 258.368Z" fill="#EDEDED"/>
<path d="M182.545 260.52C181.406 260.52 180.483 259.611 180.483 258.488C180.483 257.366 181.406 256.456 182.545 256.456C183.684 256.456 184.607 257.366 184.607 258.488C184.607 259.611 183.684 260.52 182.545 260.52Z" fill="#FFB904"/>
<path d="M189.145 260.52C188.006 260.52 187.083 259.611 187.083 258.488C187.083 257.366 188.006 256.456 189.145 256.456C190.284 256.456 191.207 257.366 191.207 258.488C191.207 259.611 190.284 260.52 189.145 260.52Z" fill="#E64218"/>
<path d="M195.735 260.52C194.596 260.52 193.672 259.611 193.672 258.488C193.672 257.366 194.596 256.456 195.735 256.456C196.874 256.456 197.797 257.366 197.797 258.488C197.797 259.611 196.874 260.52 195.735 260.52Z" fill="#0017BF"/>
<path d="M90.6202 287.033H116.518C117.181 287.033 117.719 287.571 117.719 288.234C117.719 288.897 117.181 289.434 116.518 289.434H90.6202C89.9571 289.434 89.4196 288.897 89.4196 288.234C89.4196 287.571 89.9571 287.033 90.6202 287.033Z" fill="#FFB904"/>
<path d="M121.896 287.033H147.793C148.457 287.033 148.994 287.571 148.994 288.234C148.994 288.897 148.457 289.434 147.793 289.434H121.896C121.232 289.434 120.695 288.897 120.695 288.234C120.695 287.571 121.233 287.033 121.896 287.033Z" fill="#3DF130"/>
<path d="M90.6203 279.573H103.705C104.368 279.573 104.905 280.111 104.905 280.774C104.905 281.437 104.368 281.975 103.705 281.975H90.6203C89.9572 281.975 89.4196 281.437 89.4196 280.774C89.4196 280.111 89.9572 279.573 90.6203 279.573Z" fill="#3DF130"/>
<path d="M133.901 301.244H146.985C147.648 301.244 148.186 301.782 148.186 302.445C148.186 303.108 147.648 303.645 146.985 303.645H133.901C133.237 303.645 132.7 303.108 132.7 302.445C132.7 301.782 133.237 301.244 133.901 301.244Z" fill="#FFB904"/>
<path d="M108.342 279.573H141.693C142.356 279.573 142.894 280.111 142.894 280.774C142.894 281.437 142.356 281.975 141.693 281.975H108.342C107.679 281.975 107.142 281.437 107.142 280.774C107.142 280.111 107.679 279.573 108.342 279.573Z" fill="#E64218"/>
<path d="M90.6205 294.138H154.819C155.482 294.138 156.02 294.676 156.02 295.339C156.02 296.002 155.482 296.539 154.819 296.539H90.6205C89.9574 296.539 89.4198 296.002 89.4198 295.339C89.4198 294.676 89.9574 294.138 90.6205 294.138Z" fill="#3DF130"/>
<path d="M90.6207 301.244H128.993C129.656 301.244 130.193 301.782 130.193 302.445C130.193 303.108 129.656 303.645 128.993 303.645H90.6207C89.9576 303.645 89.42 303.108 89.42 302.445C89.42 301.782 89.9576 301.244 90.6207 301.244Z" fill="#3DF130"/>
<path d="M161.48 276.718H193.322V306.869H161.48V276.718Z" fill="#2E2C6E"/>
<path d="M165.612 293.01V291.432L173.159 287.932V289.885L167.847 292.174V292.268L173.159 294.557V296.51L165.612 293.01ZM180.097 284.869L176.456 298.416H174.706L178.362 284.869H180.097ZM189.206 293.01L181.659 296.51V294.557L186.972 292.268V292.174L181.659 289.885V287.932L189.206 291.432V293.01Z" fill="#FFB904"/>
<path d="M287.814 226.128C287.814 226.128 293.534 216.652 302.664 221.267C311.793 225.883 310.799 235.421 317.731 237.616C324.664 239.801 330.343 245.694 326.312 253.291C322.944 259.643 313.814 257.631 313.814 257.631C313.814 257.631 308.135 267.158 298.104 263.901C288.073 260.643 283.493 255.507 284.55 247.317C285.596 239.127 287.824 226.138 287.824 226.138L287.814 226.128Z" fill="#0017BF"/>
<path d="M271.503 239.894C271.503 239.894 266.084 232.093 277.058 225.935C288.032 219.788 296.032 228.223 296.125 232.746C296.219 237.28 293.597 239.374 293.597 239.374C293.597 239.374 294.623 249.197 285.048 248.513C275.472 247.839 271.503 239.874 271.503 239.874V239.894Z" fill="#0017BF"/>
<path d="M285.969 246.962L286.166 254.896C286.166 254.896 284.777 257.214 280.073 257.704C276.57 258.072 275.316 257.316 275.316 257.316L275.7 253.283L276.083 249.351L284.539 247.299L285.959 246.952L285.969 246.962Z" fill="#FFBB87"/>
<path d="M285.937 246.581C285.926 246.795 285.843 247.061 285.719 247.357C284.019 251.36 277.719 253.065 275.698 253.29L276.081 249.359L285.937 246.581Z" fill="black"/>
<path d="M273.834 231.315C273.834 231.315 269.865 241.363 271.668 246.846C273.471 252.33 278.57 251.258 281.596 250.053C284.622 248.858 285.969 246.948 285.969 246.948C285.969 246.948 288.871 247.796 290.684 245.09C292.498 242.384 291.192 239.412 289.524 238.789C287.855 238.167 285.959 239.402 285.959 239.402L287.368 236.471C287.368 236.471 280.352 222.145 273.834 231.304V231.315Z" fill="#FFBB87"/>
<path d="M273.202 244.286C273.202 244.286 273.244 244.286 273.265 244.286C273.472 244.255 273.606 244.061 273.575 243.857C273.068 240.824 274.249 239.211 274.27 239.19C274.394 239.027 274.363 238.792 274.197 238.67C274.031 238.547 273.793 238.578 273.669 238.741C273.617 238.813 272.27 240.6 272.84 243.969C272.871 244.153 273.026 244.286 273.213 244.286H273.202Z" fill="black"/>
<path d="M286.177 243.489C286.24 243.489 286.302 243.479 286.354 243.448L290.271 241.396C290.457 241.304 290.53 241.069 290.426 240.895C290.333 240.711 290.095 240.65 289.918 240.742L286.001 242.795C285.815 242.886 285.742 243.121 285.846 243.295C285.918 243.417 286.043 243.489 286.177 243.489Z" fill="black"/>
<path d="M289.835 244.181C289.938 244.181 290.042 244.14 290.125 244.058C290.26 243.905 290.249 243.67 290.084 243.538L288.197 241.914C288.042 241.781 287.804 241.791 287.659 241.955C287.524 242.108 287.534 242.343 287.7 242.476L289.586 244.099C289.659 244.161 289.752 244.191 289.835 244.191V244.181Z" fill="black"/>
<path d="M272.259 236.299C272.259 236.299 272.445 233.848 274.342 231.755C276.362 229.529 278.072 229.896 278.072 229.896C278.072 229.896 275.088 236.33 280.103 238.597C283.668 240.21 285.958 239.424 285.958 239.424L291.067 234.43L280.912 226.302C280.912 226.302 271.647 225.025 272.269 236.309L272.259 236.299Z" fill="#0017BF"/>
<path d="M275.72 246.326C275.72 246.326 275.803 246.326 275.844 246.306C275.896 246.285 277.108 245.867 277.896 244.559C278 244.386 277.937 244.151 277.761 244.049C277.585 243.947 277.347 244.008 277.243 244.182C276.601 245.254 275.606 245.601 275.595 245.601C275.399 245.673 275.295 245.877 275.357 246.071C275.409 246.224 275.554 246.326 275.709 246.326H275.72Z" fill="black"/>
<path d="M276.746 240.088C276.922 240.088 277.078 239.975 277.119 239.802L277.523 238.035C277.544 237.943 277.523 237.841 277.471 237.749L276.902 236.85C276.788 236.677 276.549 236.626 276.383 236.738C276.207 236.85 276.155 237.075 276.269 237.249L276.756 238.015L276.383 239.628C276.342 239.832 276.466 240.026 276.663 240.077C276.694 240.077 276.715 240.077 276.746 240.077V240.088Z" fill="black"/>
<path d="M271.74 240.046C271.916 240.046 272.072 239.934 272.113 239.76L272.517 237.993C272.538 237.902 272.517 237.799 272.466 237.708L271.896 236.809C271.782 236.635 271.554 236.584 271.378 236.697C271.201 236.809 271.15 237.034 271.264 237.207L271.751 237.973L271.378 239.586C271.336 239.791 271.46 239.985 271.657 240.036C271.688 240.036 271.709 240.036 271.74 240.036V240.046Z" fill="black"/>
<path d="M272.591 235.461C272.591 235.461 272.643 235.461 272.674 235.461L273.783 235.226C273.99 235.185 274.115 234.981 274.073 234.787C274.032 234.583 273.835 234.46 273.628 234.501L272.519 234.736C272.311 234.777 272.187 234.981 272.229 235.175C272.27 235.349 272.425 235.471 272.602 235.471L272.591 235.461Z" fill="black"/>
<path d="M233.242 251.535L215.128 262.482L194.817 235.707L212.941 224.75L233.242 251.535Z" fill="#3DF130"/>
<path d="M235.585 250.257L217.471 261.204L197.159 234.429L215.284 223.472L235.585 250.257Z" fill="#F6F6F6"/>
<path d="M202.247 236.603C202.32 236.603 202.382 236.583 202.444 236.552L215.74 228.516C215.916 228.404 215.978 228.179 215.864 228.005C215.761 227.832 215.522 227.77 215.346 227.883L202.051 235.919C201.874 236.032 201.812 236.256 201.926 236.43C201.999 236.542 202.123 236.603 202.247 236.603Z" fill="#0017BF"/>
<path d="M204.404 239.372C204.476 239.372 204.538 239.352 204.601 239.321L217.896 231.285C218.072 231.172 218.134 230.948 218.02 230.774C217.917 230.601 217.679 230.539 217.502 230.652L204.207 238.688C204.031 238.8 203.968 239.025 204.082 239.199C204.155 239.311 204.279 239.372 204.404 239.372Z" fill="#0017BF"/>
<path d="M206.507 242.17C206.58 242.17 206.642 242.149 206.704 242.119L220 234.082C220.176 233.97 220.238 233.745 220.124 233.572C220.02 233.398 219.782 233.337 219.606 233.449L206.31 241.486C206.134 241.598 206.072 241.823 206.186 241.996C206.259 242.109 206.383 242.17 206.507 242.17Z" fill="#0017BF"/>
<path d="M208.62 244.958C208.692 244.958 208.754 244.938 208.816 244.907L222.112 236.871C222.288 236.758 222.35 236.534 222.236 236.36C222.133 236.187 221.894 236.125 221.718 236.238L208.423 244.274C208.246 244.387 208.184 244.611 208.298 244.785C208.371 244.897 208.495 244.958 208.62 244.958Z" fill="#0017BF"/>
<path d="M254.922 237.627L274.57 263.412L255.71 274.266L243.502 242.406L254.922 237.627Z" fill="#FFBB87"/>
<path d="M278.311 235.912C278.466 235.912 278.612 235.82 278.663 235.667C278.736 235.473 278.632 235.258 278.435 235.197L276.104 234.401C275.907 234.339 275.689 234.431 275.627 234.625C275.554 234.819 275.658 235.034 275.855 235.095L278.187 235.891C278.187 235.891 278.27 235.912 278.311 235.912Z" fill="black"/>
<path d="M226.485 263.197C226.485 263.197 226.06 255.845 223.812 252.934C221.563 250.024 217.615 247.757 216.775 249.442C215.936 251.127 218.61 253.567 218.185 254.568C217.76 255.569 214.951 255.069 210.723 253.578C206.495 252.097 203.687 247.277 203.687 247.277C203.687 247.277 202.848 249.187 203.127 250.923C203.407 252.659 203.967 253.578 203.967 253.578C203.967 253.578 203.065 251.576 203.065 255.232C203.065 257.07 204.672 258.357 204.672 258.357C204.672 258.357 203.407 259.868 206.081 263.197C208.754 266.526 216.216 269.579 216.216 269.579C216.216 269.579 224.516 289.553 238.175 294.822C251.833 300.091 262.527 293.015 262.527 293.015L258.31 271.101C258.31 271.101 243.667 276.237 226.496 263.197H226.485Z" fill="#FFBB87"/>
<path d="M210.632 257.757C210.808 257.757 210.963 257.634 211.005 257.46C211.046 257.256 210.922 257.062 210.715 257.021C207.595 256.378 203.958 252.681 203.927 252.641C203.782 252.498 203.543 252.487 203.388 252.63C203.233 252.773 203.233 253.008 203.388 253.161C203.543 253.325 207.222 257.062 210.569 257.757C210.601 257.757 210.621 257.757 210.652 257.757H210.632Z" fill="black"/>
<path d="M209.999 261.379C210.176 261.379 210.341 261.246 210.373 261.072C210.404 260.868 210.269 260.674 210.062 260.644C206.517 260.051 204.984 258.152 204.963 258.131C204.839 257.968 204.6 257.937 204.435 258.07C204.269 258.193 204.238 258.428 204.362 258.591C204.435 258.683 206.082 260.746 209.927 261.379C209.948 261.379 209.968 261.379 209.989 261.379H209.999Z" fill="black"/>
<path d="M270.136 303.696C270.136 303.696 251.991 327.796 237.079 354.56C222.167 381.325 213.887 414.799 213.887 414.799L252.064 417.127L279.826 350.997L271.66 416.249L308.583 414.972C308.583 414.972 316.572 354.397 312.313 325.825C308.054 297.253 303.059 291.238 303.059 291.238L270.147 303.696H270.136Z" fill="#FFB904"/>
<path d="M292.115 240.671C292.229 240.671 292.332 240.62 292.415 240.528C298.851 232.543 290.187 225.405 290.104 225.334C289.939 225.201 289.7 225.232 289.576 225.385C289.441 225.548 289.472 225.783 289.628 225.905C289.97 226.181 297.804 232.645 291.825 240.059C291.7 240.222 291.721 240.457 291.887 240.58C291.959 240.631 292.042 240.661 292.125 240.661L292.115 240.671Z" fill="white"/>
<path d="M249.213 271.376C249.213 271.376 263.742 255.354 281.286 254.312C298.83 253.27 304.737 261.593 305.587 265.545C306.426 269.497 307.908 297.793 306.851 299.672C305.794 301.541 298.592 304.87 286.892 305.707C275.182 306.544 269.058 305.084 268.219 304.461C267.379 303.838 266.322 295.097 266.322 295.097L256.394 297.599L249.213 271.386V271.376Z" fill="#3DF130"/>
<path d="M285.968 246.962C285.968 246.962 281.025 257.919 286.165 262.259C291.305 266.599 298.953 263.79 298.953 263.79C298.953 263.79 301.533 265.414 306.466 263.77C311.399 262.126 313.813 257.623 313.813 257.623L285.968 246.962Z" fill="#0017BF"/>
<path d="M254.922 237.629C254.922 237.629 249.989 230 247.512 228.326C245.036 226.651 231.212 221.29 229.844 222.597C228.476 223.904 236.559 229.367 236.559 229.367C236.559 229.367 235.17 229.663 234.828 230.766C234.486 231.869 235.098 232.768 235.098 232.768C235.098 232.768 233.377 232.707 232.89 233.86C232.403 235.014 233.201 236.281 233.201 236.281C233.201 236.281 236.372 241.999 238.186 242.111C239.989 242.234 239.751 239.068 239.751 239.068C239.751 239.068 240.404 241.948 241.979 243.541C243.554 245.124 246.787 245.297 250.124 243.561C253.461 241.825 254.922 237.618 254.922 237.618V237.629Z" fill="#FFBB87"/>
<path d="M251.066 242.621C251.253 242.621 251.419 242.479 251.439 242.285C251.46 242.08 251.315 241.896 251.097 241.876C247.294 241.478 246.362 236.648 246.351 236.597C246.331 236.495 246.279 236.413 246.185 236.352C246.103 236.301 245.989 236.28 245.895 236.301C244.092 236.689 241.926 236.832 241.574 236.382C241.501 236.29 241.574 236.117 241.636 235.984C242.631 234.034 247.222 232.042 247.263 232.022C247.45 231.94 247.543 231.715 247.46 231.532C247.377 231.348 247.149 231.256 246.963 231.338C246.766 231.419 242.071 233.451 240.963 235.647C240.662 236.229 240.807 236.617 240.983 236.842C241.709 237.761 244.424 237.352 245.688 237.107C245.999 238.353 247.263 242.233 251.015 242.621C251.025 242.621 251.046 242.621 251.056 242.621H251.066Z" fill="black"/>
<path d="M241.74 235.555C241.896 235.555 242.051 235.453 242.103 235.3C242.165 235.106 242.062 234.891 241.865 234.83C239.689 234.125 236.922 229.234 236.891 229.183C236.787 228.999 236.559 228.938 236.372 229.04C236.186 229.142 236.124 229.367 236.227 229.551C236.352 229.765 239.17 234.748 241.626 235.545C241.668 235.555 241.709 235.565 241.74 235.565V235.555Z" fill="black"/>
<path d="M240.839 239.731C240.839 239.731 240.88 239.731 240.911 239.731C241.647 239.69 242.206 239.435 242.569 238.965C243.201 238.138 242.953 236.984 242.942 236.933C242.901 236.729 242.694 236.606 242.497 236.647C242.289 236.688 242.165 236.892 242.206 237.086C242.206 237.086 242.393 237.965 241.968 238.506C241.75 238.792 241.377 238.945 240.88 238.976C239.481 239.037 236.797 235.095 235.45 232.583C235.357 232.399 235.129 232.328 234.942 232.43C234.756 232.522 234.683 232.746 234.787 232.93C235.16 233.635 238.507 239.721 240.859 239.721L240.839 239.731Z" fill="black"/>
<path d="M266.321 295.477C266.467 295.477 266.612 295.385 266.674 295.252C267.161 294.119 269.513 288.39 267.658 287.165C267.275 286.91 266.964 287.012 266.809 287.104C265.575 287.808 265.834 293.425 265.948 295.13C265.959 295.303 266.093 295.446 266.259 295.477C266.28 295.477 266.301 295.477 266.321 295.477ZM267.182 287.747C268.011 288.298 267.451 290.943 266.612 293.302C266.539 290.381 266.767 287.951 267.182 287.747Z" fill="white"/>
<path d="M282.063 310.476C289.897 310.476 300.416 309.179 306.737 303.103C306.882 302.96 306.892 302.726 306.737 302.572C306.592 302.429 306.353 302.419 306.198 302.572C295.659 312.692 272.218 309.057 271.99 309.016C271.783 308.985 271.586 309.118 271.555 309.322C271.524 309.526 271.659 309.72 271.866 309.751C272.27 309.812 276.488 310.476 282.053 310.476H282.063Z" fill="white"/>
<path d="M279.647 351.375C279.771 351.375 279.906 351.304 279.978 351.191C280.03 351.1 285.346 342.318 299.129 337.151C299.326 337.079 299.419 336.865 299.347 336.671C299.274 336.477 299.056 336.374 298.86 336.456C284.807 341.725 279.377 350.732 279.326 350.814C279.222 350.987 279.284 351.222 279.46 351.324C279.522 351.355 279.585 351.375 279.647 351.375Z" fill="white"/>
<path d="M311.856 331.131C312.209 331.131 312.561 331.121 312.924 331.1C313.131 331.09 313.286 330.906 313.276 330.702C313.266 330.498 313.1 330.355 312.872 330.355C309.607 330.569 306.986 329.773 305.068 327.975C301.98 325.086 301.649 320.398 301.607 319.285L310.675 315.732C310.872 315.66 310.965 315.436 310.882 315.252C310.799 315.068 310.582 314.966 310.395 315.048L301.079 318.693C300.934 318.744 300.84 318.887 300.84 319.03C300.84 319.275 300.778 325.004 304.53 328.517C306.385 330.253 308.841 331.131 311.835 331.131H311.856Z" fill="white"/>
<path d="M273.151 334.546C281.13 334.546 283.856 321.986 283.876 321.853C283.918 321.669 283.804 321.475 283.617 321.424L269.524 317.115C269.337 317.064 269.13 317.156 269.057 317.329C268.892 317.727 265.151 327.051 267.886 331.819C268.715 333.27 270.052 334.148 271.866 334.434C272.301 334.505 272.726 334.536 273.14 334.536L273.151 334.546ZM283.058 322.037C282.55 324.079 279.493 334.914 271.99 333.709C270.415 333.453 269.254 332.708 268.55 331.462C266.259 327.469 269.006 319.617 269.638 317.932L283.058 322.027V322.037Z" fill="white"/>
<path d="M188.464 319.531H226.185C227.812 319.531 229.138 318.224 229.138 316.621V299.7C229.138 298.097 227.812 296.79 226.185 296.79H188.464C186.837 296.79 185.511 298.097 185.511 299.7V316.621C185.511 318.224 186.837 319.531 188.464 319.531Z" fill="white"/>
<path d="M209.719 298.454L223.522 288.743L220.144 298.454H209.719Z" fill="white"/>
<path d="M198.216 315.1H193.429V301.233H198.216V315.1Z" fill="#3DF130"/>
<path d="M205.895 315.1H201.107V303.725H205.895V315.1Z" fill="#FFB904"/>
<path d="M221.232 315.1H216.444V303.725H221.232V315.1Z" fill="#5EF939"/>
<path d="M213.553 315.089H208.766V308.155H213.553V315.089Z" fill="#373178"/>
<path d="M59.6323 269.021H113.758C115.208 269.021 116.39 267.857 116.39 266.427V240.531C116.39 239.101 115.208 237.937 113.758 237.937H59.6323C58.1815 237.937 57.0001 239.101 57.0001 240.531V266.427C57.0001 267.857 58.1815 269.021 59.6323 269.021ZM113.758 238.693C114.794 238.693 115.623 239.52 115.623 240.541V266.438C115.623 267.459 114.783 268.286 113.758 268.286H59.6323C58.596 268.286 57.767 267.459 57.767 266.438V240.541C57.767 239.52 58.6063 238.693 59.6323 238.693H113.758Z" fill="#E64218"/>
<path d="M57.3835 244.422H116.006C116.213 244.422 116.39 244.258 116.39 244.054C116.39 243.85 116.224 243.687 116.006 243.687H57.3835C57.1763 243.687 57.0001 243.85 57.0001 244.054C57.0001 244.258 57.1659 244.422 57.3835 244.422Z" fill="#E64218"/>
<path d="M61.5085 243.023C62.5137 243.023 63.3428 242.216 63.3428 241.215C63.3428 240.215 62.5241 239.408 61.5085 239.408C60.493 239.408 59.6743 240.215 59.6743 241.215C59.6743 242.216 60.493 243.023 61.5085 243.023ZM61.5085 240.164C62.0992 240.164 62.5863 240.633 62.5863 241.226C62.5863 241.818 62.1096 242.288 61.5085 242.288C60.9075 242.288 60.4308 241.818 60.4308 241.226C60.4308 240.633 60.9075 240.164 61.5085 240.164Z" fill="#E64218"/>
<path d="M66.3689 243.023C67.3741 243.023 68.2031 242.216 68.2031 241.215C68.2031 240.215 67.3845 239.408 66.3689 239.408C65.3533 239.408 64.5347 240.215 64.5347 241.215C64.5347 242.216 65.3533 243.023 66.3689 243.023ZM66.3689 240.164C66.9596 240.164 67.4467 240.633 67.4467 241.226C67.4467 241.818 66.97 242.288 66.3689 242.288C65.7679 242.288 65.2912 241.818 65.2912 241.226C65.2912 240.633 65.7679 240.164 66.3689 240.164Z" fill="#E64218"/>
<path d="M71.2283 243.023C72.2335 243.023 73.0625 242.216 73.0625 241.215C73.0625 240.215 72.2438 239.408 71.2283 239.408C70.2127 239.408 69.3941 240.215 69.3941 241.215C69.3941 242.216 70.2127 243.023 71.2283 243.023ZM71.2283 240.164C71.819 240.164 72.306 240.633 72.306 241.226C72.306 241.818 71.8293 242.288 71.2283 242.288C70.6272 242.288 70.1505 241.818 70.1505 241.226C70.1505 240.633 70.6272 240.164 71.2283 240.164Z" fill="#E64218"/>
</g>
</svg>
