<svg width="980" height="260" viewBox="0 0 980 260" fill="none" xmlns="http://www.w3.org/2000/svg">
<path d="M980 0H0V260H980V0Z" fill="black"/>
<mask id="mask0_1455_33888" style="mask-type:alpha" maskUnits="userSpaceOnUse" x="480" y="0" width="500" height="260">
<path d="M980 0H480V260H980V0Z" fill="black"/>
</mask>
<g mask="url(#mask0_1455_33888)">
<path d="M831.422 34.9863V125.356C831.422 128.098 829.115 130.342 826.273 130.342H662.368C659.54 130.342 657.233 128.098 657.233 125.356V34.9863C657.233 32.2438 659.54 30 662.368 30H826.273C829.115 30 831.422 32.2438 831.422 34.9863Z" fill="#40398D"/>
<path d="M831.422 35.9542V42.2605H657.233V35.9542C657.233 32.6691 659.54 30 662.368 30H826.273C829.115 30 831.422 32.6691 831.422 35.9542Z" fill="#EDEDED"/>
<path d="M685.805 39.0442C687.441 39.0442 688.767 37.7376 688.767 36.1257C688.767 34.5139 687.441 33.2073 685.805 33.2073C684.17 33.2073 682.844 34.5139 682.844 36.1257C682.844 37.7376 684.17 39.0442 685.805 39.0442Z" fill="#FFB904"/>
<path d="M676.328 39.0442C677.964 39.0442 679.29 37.7376 679.29 36.1257C679.29 34.5139 677.964 33.2073 676.328 33.2073C674.692 33.2073 673.366 34.5139 673.366 36.1257C673.366 37.7376 674.692 39.0442 676.328 39.0442Z" fill="#E64218"/>
<path d="M666.864 39.0442C668.5 39.0442 669.826 37.7376 669.826 36.1257C669.826 34.5139 668.5 33.2073 666.864 33.2073C665.228 33.2073 663.902 34.5139 663.902 36.1257C663.902 37.7376 665.228 39.0442 666.864 39.0442Z" fill="#0017BF"/>
<path d="M817.826 77.1213H780.633C779.68 77.1213 778.908 77.8934 778.908 78.8457C778.908 79.798 779.68 80.5701 780.633 80.5701H817.826C818.779 80.5701 819.551 79.798 819.551 78.8457C819.551 77.8934 818.779 77.1213 817.826 77.1213Z" fill="#FFB904"/>
<path d="M772.909 77.1213H735.716C734.763 77.1213 733.991 77.8934 733.991 78.8457C733.991 79.798 734.763 80.5701 735.716 80.5701H772.909C773.862 80.5701 774.634 79.798 774.634 78.8457C774.634 77.8934 773.862 77.1213 772.909 77.1213Z" fill="#3DF130"/>
<path d="M817.826 66.4087H799.035C798.083 66.4087 797.311 67.1807 797.311 68.1331C797.311 69.0854 798.083 69.8574 799.035 69.8574H817.826C818.779 69.8574 819.551 69.0854 819.551 68.1331C819.551 67.1807 818.779 66.4087 817.826 66.4087Z" fill="#3DF130"/>
<path d="M755.667 97.5308H736.876C735.923 97.5308 735.151 98.3028 735.151 99.2551C735.151 100.207 735.923 100.979 736.876 100.979H755.667C756.619 100.979 757.391 100.207 757.391 99.2551C757.391 98.3028 756.619 97.5308 755.667 97.5308Z" fill="#FFB904"/>
<path d="M792.374 66.4087H744.477C743.525 66.4087 742.753 67.1807 742.753 68.1331C742.753 69.0854 743.525 69.8574 744.477 69.8574H792.374C793.327 69.8574 794.099 69.0854 794.099 68.1331C794.099 67.1807 793.327 66.4087 792.374 66.4087Z" fill="#E64218"/>
<path d="M817.827 87.3262H725.627C724.674 87.3262 723.902 88.0982 723.902 89.0505C723.902 90.0029 724.674 90.7749 725.627 90.7749H817.827C818.779 90.7749 819.551 90.0029 819.551 89.0505C819.551 88.0982 818.779 87.3262 817.827 87.3262Z" fill="#3DF130"/>
<path d="M817.826 97.5308H762.718C761.765 97.5308 760.993 98.3028 760.993 99.2551C760.993 100.207 761.765 100.979 762.718 100.979H817.826C818.779 100.979 819.551 100.207 819.551 99.2551C819.551 98.3028 818.779 97.5308 817.826 97.5308Z" fill="#3DF130"/>
<path d="M714.561 62.8174H670.617V106.119H714.561V62.8174Z" fill="#2E2C6E"/>
<path d="M704.686 85.7805V84.2024L697.139 80.7024V82.6555L702.452 84.9446V85.0383L697.139 87.3274V89.2805L704.686 85.7805ZM690.202 77.6399L693.842 91.1868H695.592L691.936 77.6399H690.202ZM681.092 85.7805L688.639 89.2805V87.3274L683.327 85.0383V84.9446L688.639 82.6555V80.7024L681.092 84.2024V85.7805Z" fill="#FFB904"/>
<path d="M866.916 153.259C866.916 153.259 851.46 150.175 840.558 159.341C829.655 168.507 823.537 238.54 823.537 238.54C823.537 238.54 860.051 258.012 891.175 258.012C922.3 258.012 919.561 256.609 919.561 256.609L926.818 228.2L866.934 153.277L866.916 153.259Z" fill="#0017BF"/>
<path d="M777.811 116.733C777.811 116.733 773.347 105.534 770.963 108.724C768.58 111.914 772.884 128.738 772.884 128.738C772.884 128.738 783.075 130.316 777.811 116.733Z" fill="#FFBB87"/>
<path d="M844.649 112.91H799.029C797.379 112.91 796.041 114.228 796.041 115.855V160.809C796.041 162.435 797.379 163.753 799.029 163.753H844.649C846.299 163.753 847.637 162.435 847.637 160.809V115.855C847.637 114.228 846.299 112.91 844.649 112.91Z" fill="#F6F6F6"/>
<path d="M828.106 145.068C833.371 139.88 833.371 131.469 828.106 126.281C822.841 121.093 814.305 121.093 809.041 126.281C803.776 131.469 803.776 139.88 809.041 145.068C814.305 150.256 822.841 150.256 828.106 145.068Z" fill="#5EF939"/>
<path d="M827.791 135.833L833.198 145.051L838.587 154.252H827.791H816.995L822.402 145.051L827.791 135.833Z" fill="#E64218"/>
<path d="M788.519 159.671C788.519 159.671 799.422 149.593 798.906 144.248C798.39 138.903 795.847 126.897 795.847 126.897C795.847 126.897 806.571 115.909 806.056 113.56C805.54 111.212 797.287 114.91 797.287 114.91C797.287 114.91 806.091 106.357 806.073 102.992C806.073 99.6445 801.467 101.309 801.467 101.309C801.467 101.309 802.143 97.4538 799.421 97.7867C796.7 98.1197 779.662 109.704 774.735 115.909C769.791 122.113 775.073 137.991 774.735 140.2C774.397 142.408 770.982 146.947 770.982 146.947L788.519 159.653V159.671Z" fill="#FFBB87"/>
<path d="M768.756 140.233L801.446 156.322C801.446 156.322 797.017 168.94 807.244 172.638C817.453 176.336 829.387 159.844 842.993 155.673C856.616 151.502 867.555 154.201 867.555 154.201L861.063 210.056C861.063 210.056 799.863 242.111 770.232 220.957C740.601 199.821 768.738 140.215 768.738 140.215L768.756 140.233Z" fill="#0017BF"/>
<path d="M772.74 122.075C772.296 122.022 772.047 121.689 772.1 121.339C772.118 121.146 772.776 116.677 775.515 114.031C775.764 113.785 776.173 113.785 776.44 114.031C776.689 114.276 776.689 114.697 776.44 114.942C774.021 117.273 773.416 121.462 773.398 121.497C773.345 121.812 773.078 122.057 772.758 122.057L772.74 122.075Z" fill="black"/>
<path d="M787.148 113.539C786.952 113.539 786.774 113.452 786.65 113.312C786.419 113.031 786.454 112.628 786.739 112.418L801.038 100.833C801.305 100.605 801.714 100.64 801.945 100.921C802.177 101.201 802.141 101.604 801.856 101.815L787.557 113.399C787.432 113.504 787.29 113.539 787.148 113.539Z" fill="black"/>
<path d="M792.589 118.606C792.375 118.606 792.18 118.5 792.055 118.308C791.859 118.01 791.948 117.624 792.233 117.431L796.928 114.382C797.231 114.189 797.622 114.277 797.818 114.557C798.013 114.855 797.924 115.241 797.64 115.433L792.944 118.483C792.838 118.553 792.713 118.588 792.589 118.588V118.606Z" fill="black"/>
<path d="M841.181 223.061C841.181 223.061 791.239 178.914 762.569 185.959C733.899 193.005 731.711 222.518 726.606 255.73C721.502 288.959 719.901 313.232 719.901 313.232L788.536 314.582L792.609 256.536L865.956 234.05L841.199 223.061H841.181Z" fill="#3DF130"/>
<path d="M919.542 256.589C919.542 256.589 915.114 292.745 899.925 303.489C884.736 314.232 858.627 310.885 833.265 297.232C808.311 283.807 800.948 278.83 798.103 278.83C795.257 278.83 745.795 346.34 745.795 346.34L688.063 316.633C688.063 316.633 732.065 211.863 768.525 204.117C803.812 196.616 883.029 245.793 883.029 245.793L919.542 256.589Z" fill="#4EFD62"/>
<path d="M891.159 111.562C891.159 111.562 911.843 106.094 919.349 119.904C926.836 133.715 920.38 189.745 920.38 189.745L888.615 169.152L889.291 141.374L891.176 111.562H891.159Z" fill="#0017BF"/>
<path d="M849.416 184.153L825.21 205.36C825.21 205.36 859.643 258.656 908.678 250.156C957.712 241.656 936.138 196.895 927.975 184.837C915.258 166.049 899.696 155.305 885.716 154.359C871.755 153.395 849.416 184.171 849.416 184.171V184.153Z" fill="#0017BF"/>
<path d="M885.714 143.473L885.34 158.317C885.34 158.317 882.512 162.523 873.691 163.014C867.11 163.382 865.118 160 865.118 160L867.039 147.048L883.046 143.999L885.732 143.49L885.714 143.473Z" fill="#FFBB87"/>
<path d="M883.028 143.983C882.975 144.386 882.815 144.859 882.548 145.402C878.991 152.728 869.725 154.113 865.937 154.34L867.021 147.032L883.028 143.983Z" fill="black"/>
<path d="M864.531 113.125C864.531 113.125 856.154 131.545 859 141.956C861.846 152.366 871.468 150.824 877.248 148.878C883.01 146.915 885.714 143.48 885.714 143.48C885.714 143.48 891.067 145.321 894.695 140.431C898.342 135.541 896.172 129.88 893.13 128.548C890.071 127.216 886.407 129.372 886.407 129.372L889.324 124.027C889.324 124.027 877.568 96.5986 864.531 113.125Z" fill="#FFBB87"/>
<path d="M875.721 123.042C875.489 123.042 875.276 122.92 875.151 122.709C874.671 121.886 874.067 121.36 873.355 121.185C872.128 120.869 870.883 121.605 870.865 121.623C870.563 121.816 870.154 121.71 869.976 121.412C869.78 121.115 869.887 120.729 870.189 120.536C870.26 120.501 871.897 119.502 873.675 119.94C874.76 120.203 875.632 120.939 876.29 122.078C876.468 122.394 876.361 122.779 876.041 122.955C875.934 123.007 875.827 123.042 875.721 123.042Z" fill="black"/>
<path d="M861.864 121.289C861.775 121.289 861.686 121.272 861.597 121.236C861.277 121.096 861.135 120.711 861.277 120.395C861.526 119.852 861.935 119.501 862.468 119.361C863.749 119.011 865.296 120.027 865.474 120.15C865.759 120.343 865.848 120.746 865.634 121.044C865.439 121.342 865.03 121.412 864.727 121.201C864.336 120.939 863.358 120.448 862.806 120.606C862.7 120.641 862.557 120.693 862.451 120.939C862.344 121.166 862.113 121.307 861.864 121.307V121.289Z" fill="black"/>
<path d="M875.098 126.948C874.884 126.948 874.671 126.843 874.546 126.65C874.297 126.265 874.013 126.054 873.657 126.002C872.857 125.879 871.843 126.545 871.558 126.79C871.292 127.018 870.883 126.983 870.651 126.72C870.42 126.457 870.456 126.054 870.722 125.827C870.883 125.686 872.341 124.512 873.853 124.74C874.582 124.845 875.204 125.266 875.649 125.967C875.845 126.265 875.756 126.668 875.453 126.843C875.347 126.913 875.222 126.948 875.098 126.948Z" fill="black"/>
<path d="M864.372 126.479C864.141 126.479 863.909 126.357 863.785 126.129C863.696 125.954 862.896 124.499 861.33 125.147C861.01 125.288 860.619 125.147 860.477 124.814C860.334 124.481 860.477 124.113 860.815 123.973C862.984 123.062 864.461 124.622 864.941 125.568C865.101 125.883 864.976 126.269 864.639 126.427C864.55 126.479 864.443 126.497 864.354 126.497L864.372 126.479Z" fill="black"/>
<path d="M865.102 135.502C864.764 135.502 864.479 135.257 864.461 134.924C864.123 131.156 866.24 126.809 866.329 126.634C866.489 126.319 866.88 126.178 867.2 126.336C867.52 126.494 867.663 126.879 867.503 127.195C867.485 127.23 865.457 131.419 865.76 134.819C865.795 135.169 865.528 135.485 865.173 135.52C865.155 135.52 865.137 135.52 865.119 135.52L865.102 135.502Z" fill="black"/>
<path d="M869.71 140.862C869.407 140.862 869.14 140.652 869.069 140.371C868.998 140.021 869.212 139.688 869.55 139.6C869.585 139.6 872.929 138.811 873.871 136.463C873.996 136.13 874.387 135.972 874.707 136.112C875.045 136.235 875.205 136.621 875.063 136.936C873.854 139.915 869.976 140.809 869.816 140.844C869.763 140.844 869.727 140.844 869.674 140.844L869.71 140.862Z" fill="black"/>
<path d="M886.979 137.341C886.783 137.341 886.606 137.254 886.481 137.113C886.25 136.833 886.303 136.43 886.57 136.22L892.635 131.347C892.919 131.119 893.328 131.172 893.542 131.435C893.773 131.715 893.72 132.118 893.453 132.329L887.388 137.201C887.264 137.289 887.121 137.341 886.979 137.341Z" fill="black"/>
<path d="M893.061 137.342C892.972 137.342 892.866 137.325 892.777 137.272L889.006 135.432C888.686 135.274 888.562 134.889 888.704 134.573C888.864 134.258 889.255 134.135 889.575 134.275L893.346 136.116C893.666 136.273 893.791 136.659 893.648 136.974C893.542 137.202 893.31 137.325 893.061 137.325V137.342Z" fill="black"/>
<path d="M886.409 129.369C886.409 129.369 879.829 128.668 875.702 123.287C871.594 117.907 869.691 112.439 869.691 112.439C869.691 112.439 866.899 112.877 865.102 115.05C863.768 116.645 862.221 118.976 862.221 118.976C862.221 118.976 862.132 111.492 865.991 107.847C869.851 104.201 873.123 105.498 873.123 105.498C873.123 105.498 881.554 100.872 890.02 108.39C898.486 115.909 894.359 129.386 894.359 129.386C894.359 129.386 890.055 127.651 886.409 129.386V129.369Z" fill="#0017BF"/>
<path d="M847.352 148.312C847.352 148.312 847.584 142.021 845.538 139.865C843.493 137.709 841.928 140.952 841.928 140.952C841.928 140.952 840.114 134.817 838.068 136.675C836.023 138.533 835.329 142.792 835.329 142.792C835.329 142.792 831.719 140.128 830.349 145.403C828.98 150.678 828.749 158.372 823.538 163.245C818.309 168.117 813.773 179.474 817.633 188.99C821.492 198.507 828.749 198.875 828.749 198.875L842.372 184.714C842.372 184.714 839.758 175.688 843.849 172.446C847.939 169.203 852.421 167.1 853.222 159.652C853.524 156.83 847.352 148.277 847.352 148.277V148.312ZM844.862 163.034L846.179 156.322C850.269 161.685 844.862 163.034 844.862 163.034Z" fill="#FFBB87"/>
<path d="M844.882 163.665C844.882 163.665 844.74 163.665 844.668 163.63C844.33 163.507 844.153 163.139 844.277 162.806C846.269 157.216 846.714 148.365 846.732 148.26C846.732 147.909 847.069 147.681 847.407 147.646C847.763 147.646 848.048 147.962 848.03 148.312C848.03 148.68 847.567 157.443 845.504 163.209C845.415 163.472 845.166 163.63 844.9 163.63L844.882 163.665Z" fill="black"/>
<path d="M838.407 162.37C838.3 162.37 838.193 162.335 838.087 162.283C837.767 162.107 837.66 161.722 837.838 161.406C841.608 154.781 840.328 140.41 840.31 140.27C840.274 139.92 840.541 139.604 840.897 139.569C841.252 139.551 841.573 139.797 841.608 140.147C841.662 140.761 842.942 155.044 838.976 162.02C838.851 162.23 838.638 162.353 838.407 162.353V162.37Z" fill="black"/>
<path d="M832.11 162.367C831.95 162.367 831.772 162.297 831.648 162.174C831.399 161.929 831.399 161.526 831.648 161.263C834.422 158.529 834.778 146.997 834.689 142.79C834.689 142.44 834.974 142.142 835.329 142.142C835.614 142.142 835.987 142.422 835.987 142.773C835.987 143.421 836.29 158.511 832.573 162.174C832.448 162.297 832.288 162.367 832.11 162.367Z" fill="black"/>
<path d="M728.917 240.991C728.81 240.991 728.686 240.956 728.579 240.903C728.277 240.728 728.17 240.325 728.348 240.027C728.49 239.799 742.452 216.928 761.678 205.904C782.861 193.759 832.874 218.523 834.99 219.592C835.31 219.75 835.435 220.135 835.275 220.451C835.115 220.766 834.723 220.889 834.403 220.731C833.887 220.468 782.896 195.213 762.336 207.008C743.412 217.874 729.611 240.448 729.469 240.676C729.344 240.886 729.131 240.991 728.917 240.991Z" fill="white"/>
<path d="M807.249 187.889C806.626 187.889 806.093 187.626 805.719 187.136C803.567 184.384 806.306 173.693 806.626 172.484C806.769 171.923 807.729 171.923 807.889 172.484C808.209 173.693 810.948 184.384 808.796 187.136C808.405 187.626 807.871 187.889 807.267 187.889H807.249ZM807.249 175.446C806.342 179.687 805.648 184.962 806.733 186.364C807.018 186.732 807.462 186.732 807.747 186.364C808.832 184.98 808.156 179.705 807.231 175.446H807.249Z" fill="#FFB904"/>
<path d="M873.746 163.876C867.593 163.876 863.235 160.213 863.164 160.16C862.897 159.932 862.862 159.529 863.111 159.266C863.342 159.004 863.751 158.969 864.018 159.214C864.427 159.564 874.049 167.626 884.898 157.864C885.165 157.637 885.574 157.637 885.823 157.899C886.072 158.162 886.036 158.565 885.787 158.811C881.483 162.684 877.321 163.911 873.746 163.911V163.876Z" fill="#FFB904"/>
<path d="M895.372 199.521C895.372 199.521 895.23 199.521 895.177 199.486C882.104 195.262 853.309 184.904 853.025 184.799C852.687 184.676 852.509 184.308 852.634 183.975C852.758 183.642 853.132 183.484 853.469 183.59C853.754 183.695 882.531 194.053 895.586 198.276C895.924 198.381 896.101 198.749 895.995 199.082C895.906 199.345 895.657 199.521 895.372 199.521Z" fill="#FFB904"/>
<path d="M907.308 203.171C902.595 203.171 893.88 199.228 892.777 198.72C892.51 198.597 892.35 198.299 892.421 198.001C892.492 197.703 892.741 197.493 893.044 197.493C895.551 197.44 908.179 197.335 910.153 200.104C910.491 200.578 910.562 201.138 910.349 201.682C910.136 202.225 909.709 202.628 909.086 202.891C908.606 203.084 908.001 203.171 907.308 203.171ZM896.138 198.772C900.282 200.455 906.418 202.575 908.588 201.717C908.962 201.576 909.068 201.384 909.122 201.243C909.193 201.068 909.157 200.963 909.086 200.858C908.072 199.438 901.51 198.877 896.138 198.79V198.772Z" fill="#FFB904"/>
<path d="M905.796 269.714C894.057 269.486 890.589 258.27 890.553 258.164C890.447 257.831 890.642 257.463 890.998 257.376C891.336 257.271 891.692 257.463 891.798 257.814C891.923 258.234 895.053 268.242 905.813 268.452C906.169 268.452 906.454 268.75 906.454 269.101C906.454 269.451 906.151 269.731 905.796 269.731V269.714Z" fill="white"/>
</g>
</svg>
